<svg width="20" height="20" viewBox="0 0 20 20" fill="none" xmlns="http://www.w3.org/2000/svg">
<path fill-rule="evenodd" clip-rule="evenodd" d="M4 2C1.79086 2 0 3.79086 0 6V14.7497C0 16.9588 1.79086 18.7497 4 18.7497H6.53113C7.08342 18.7497 7.53113 18.302 7.53113 17.7497C7.53113 17.1974 7.08342 16.7497 6.53113 16.7497H4C2.89543 16.7497 2 15.8543 2 14.7497V6C2 4.89543 2.89543 4 4 4H6.53113C7.08342 4 7.53113 3.55228 7.53113 3C7.53113 2.44772 7.08342 2 6.53113 2H4ZM18.7407 9.36112C19.1263 9.7508 19.1263 10.3784 18.7407 10.768L12.8509 16.7188C12.2225 17.3538 11.1402 16.9087 11.1402 16.0153V12.2185H5.68738C5.13509 12.2185 4.68738 11.7708 4.68738 11.2185V8.60922C4.68738 8.05694 5.13509 7.60922 5.68738 7.60922H11.1402V4.11382C11.1402 3.22043 12.2225 2.7754 12.8509 3.41037L18.7407 9.36112Z" fill="white"/>
</svg>
