<svg width="20" height="20" viewBox="0 0 20 20" fill="none" xmlns="http://www.w3.org/2000/svg">
<path fill-rule="evenodd" clip-rule="evenodd" d="M15.8447 18.7497C18.0539 18.7497 19.8447 16.9588 19.8447 14.7497L19.8447 6C19.8447 3.79086 18.0539 2 15.8447 2H13.3136C12.7613 2 12.3136 2.44772 12.3136 3C12.3136 3.55229 12.7613 4 13.3136 4L15.8447 4C16.9493 4 17.8447 4.89543 17.8447 6L17.8447 14.7497C17.8447 15.8543 16.9493 16.7497 15.8447 16.7497L13.3136 16.7497C12.7613 16.7497 12.3136 17.1974 12.3136 17.7497C12.3136 18.302 12.7613 18.7497 13.3136 18.7497H15.8447ZM15.0533 9.3608C15.439 9.75047 15.439 10.378 15.0533 10.7677L9.16355 16.7185C8.5351 17.3534 7.45281 16.9084 7.45281 16.015V12.2182H2C1.44772 12.2182 1 11.7704 1 11.2182V8.60889C1 8.0566 1.44772 7.60889 2 7.60889H7.45281V4.11349C7.45281 3.2201 8.53509 2.77507 9.16355 3.41004L15.0533 9.3608Z" fill="white"/>
</svg>
