<svg width="26" height="24" viewBox="0 0 26 24" fill="none" xmlns="http://www.w3.org/2000/svg">
<g filter="url(#filter0_d)">
<path d="M14.146 19.2917C14.0314 19.2917 13.9168 19.25 13.8231 19.1771L9.66683 15.8854H5.29183C5.00016 15.8854 4.771 15.6563 4.771 15.3646V8.63545C4.771 8.34378 5.00016 8.11462 5.29183 8.11462H9.66683L13.8231 4.82295C13.9793 4.69795 14.1981 4.67712 14.3752 4.76045C14.5522 4.84378 14.6668 5.03128 14.6668 5.2292V18.7709C14.6668 18.9688 14.5522 19.1563 14.3752 19.2396C14.3022 19.2709 14.2189 19.2917 14.146 19.2917ZM5.81266 14.8438H9.84391C9.9585 14.8438 10.0731 14.8854 10.1668 14.9584L13.6252 17.6979V6.30212L10.1668 9.0417C10.0731 9.11462 9.9585 9.15628 9.84391 9.15628H5.81266V14.8438Z" fill="#EBA375"/>
<path d="M16.3334 8.1457C16.1459 8.1457 15.9688 8.04154 15.875 7.87487C15.7396 7.62487 15.8334 7.30195 16.0834 7.16653L19.75 5.19778C20 5.06237 20.3229 5.15612 20.4584 5.40612C20.5938 5.65612 20.5 5.97903 20.25 6.11445L16.5834 8.0832C16.5 8.12487 16.4167 8.1457 16.3334 8.1457Z" fill="#EBA375"/>
<path d="M20 18.8647C19.9167 18.8647 19.8334 18.8439 19.75 18.8022L16.0834 16.8334C15.8334 16.698 15.7396 16.3855 15.875 16.1251C16.0104 15.8751 16.3229 15.7814 16.5834 15.9168L20.25 17.8855C20.5 18.0209 20.5938 18.3334 20.4584 18.5939C20.3646 18.7709 20.1875 18.8647 20 18.8647Z" fill="#EBA375"/>
<path d="M20.7085 12.5209H16.5418C16.2502 12.5209 16.021 12.2917 16.021 12.0001C16.021 11.7084 16.2502 11.4792 16.5418 11.4792H20.7085C21.0002 11.4792 21.2293 11.7084 21.2293 12.0001C21.2293 12.2917 21.0002 12.5209 20.7085 12.5209Z" fill="#EBA375"/>
</g>
<defs>
<filter id="filter0_d" x="-1" y="-2" width="28" height="28" filterUnits="userSpaceOnUse" color-interpolation-filters="sRGB">
<feFlood flood-opacity="0" result="BackgroundImageFix"/>
<feColorMatrix in="SourceAlpha" type="matrix" values="0 0 0 0 0 0 0 0 0 0 0 0 0 0 0 0 0 0 127 0"/>
<feOffset/>
<feGaussianBlur stdDeviation="2"/>
<feColorMatrix type="matrix" values="0 0 0 0 1 0 0 0 0 0.6 0 0 0 0 0 0 0 0 1 0"/>
<feBlend mode="normal" in2="BackgroundImageFix" result="effect1_dropShadow"/>
<feBlend mode="normal" in="SourceGraphic" in2="effect1_dropShadow" result="shape"/>
</filter>
</defs>
</svg>
