<?xml version="1.0" encoding="utf-8"?>
<!-- Generator: Adobe Illustrator 22.0.1, SVG Export Plug-In . SVG Version: 6.00 Build 0)  -->
<svg version="1.1" id="_x34_" xmlns="http://www.w3.org/2000/svg" xmlns:xlink="http://www.w3.org/1999/xlink" x="0px" y="0px"
	 viewBox="0 0 136 136" style="enable-background:new 0 0 136 136;" xml:space="preserve">
<style type="text/css">
	.st0{fill:none;stroke:#13192A;stroke-width:8;stroke-miterlimit:10;}
</style>
<g id="norm_3_">
	<path class="st0" d="M100,68c-0.3-8.6-7.3-15.5-16-15.5c0-8.8-7.2-16-16-16s-16,7.2-16,16c-8.7,0-15.7,6.9-16,15.5
		c0,0.2,0,0.3,0,0.5c0,8.8,7.2,16,16,16c0,8.8,7.2,16,16,16s16-7.2,16-16c8.8,0,16-7.2,16-16C100,68.3,100,68.2,100,68z"/>
	<polygon class="st0" points="68,132 41.4,132 4,94.6 4,68 4,41.4 41.4,4 68,4 94.6,4 132,41.4 132,68 132,94.6 94.6,132 	"/>
	<line class="st0" x1="68" y1="100.5" x2="68" y2="132"/>
	<line class="st0" x1="68" y1="4" x2="68" y2="36.5"/>
	<line class="st0" x1="100" y1="68" x2="132" y2="68"/>
	<line class="st0" x1="4" y1="68" x2="36" y2="68"/>
</g>
</svg>
