<?xml version="1.0" encoding="utf-8"?>
<!-- Generator: Adobe Illustrator 22.0.1, SVG Export Plug-In . SVG Version: 6.00 Build 0)  -->
<svg version="1.1" id="레이어_2_1_" xmlns="http://www.w3.org/2000/svg" xmlns:xlink="http://www.w3.org/1999/xlink" x="0px"
	 y="0px" viewBox="0 0 210 324" style="enable-background:new 0 0 210 324;" xml:space="preserve">
<style type="text/css">
	.st0{fill:url(#SVGID_1_);}
	.st1{fill:#FFFFFF;}
	.st2{fill:#EB1A21;}
	.st3{fill:#FFC40A;}
	.st4{fill:#00707A;}
</style>
<g>
	
		<linearGradient id="SVGID_1_" gradientUnits="userSpaceOnUse" x1="105" y1="-128" x2="105" y2="-452" gradientTransform="matrix(1 0 0 -1 0 -128)">
		<stop  offset="0" style="stop-color:#EB1A21"/>
		<stop  offset="1" style="stop-color:#A51A21"/>
	</linearGradient>
	<path class="st0" d="M210,324c-70,0-140,0-210,0C0,216,0,108,0,0c70,0,140,0,210,0C210,108,210,216,210,324z M199.9,162.6
		c0-46.5-0.2-87.6-0.2-134.1c0-9.4-3.5-18.1-13-18.1c-50.8,0-101-0.4-151.8-0.4c-4,0-8.3,0.5-12.3,0.7c-5.9,0.2-11.3,6.1-11.3,11.7
		c0,93.3-0.4,182.4-0.4,275.8c0,1.5,0.2,1.6,0.3,3.1c0.7,6.6,5,12.6,11.3,12.6c55.5,0,107.4,0.2,162.9,0.3c1.9,0,3.6-0.7,5.3-1.7
		c5.5-3,9.5-6,9.5-12.1C200.1,254,199.9,208.9,199.9,162.6z"/>
	<path class="st1" d="M196.6,91.4c-4.8-3.7-9.4-4.7-14.3-3.7c-1.9,0.4-3.1-0.2-3.7-2.2c-4.1-12-22.3-16.8-34.5-7.3
		c-2.2,1.7-3.2,1.8-4.9-0.5c-3.5-4.5-8.2-6-13.7-4.4c-5.6,1.7-8.7,6-9.4,11.6c-0.4,2.9-1.1,5-3.4,7.1c-3.6,3.1-4.6,7.5-3.1,12.2
		s4.6,7.9,9.5,8.2c3.4,0.2,3.3,2.2,3.9,4.4c0.8,2.7-1.2,3-2.8,3.7c-2,0.9-3.9,2-5.1,3.8c-1.8,2.7-3,1.5-4.5-0.2
		c-2.3-2.8-4.7-5.5-7.1-8.2c-3.4-3.7-6.2-6.9-3.2-12.8c2.4-4.6-0.2-9.6-4.2-13.9c5.7-0.3,9.6-2.3,11.9-6.9c0.9-1.9,3.2-1.6,4.7-2.4
		c6.4-3.4,8.6-11.5,4.6-17.9c-3.6-5.8-11.5-7.8-16.2-3.1C97,63,93,67,88.7,70.9c-4.1,3.8-3.3,8.8,0.9,15.4C86,88.5,84,87.4,82,83.9
		c-2.9-5.4-6.9-10.1-12.1-13.6c-11.2-7.4-23.4-4.4-29.5,7.5c-1.1,2.2-2.5,2.1-4.4,2.3c-6.2,0.5-11.6,2.5-15.3,7.9
		c-0.6,0.9-1.5,1.9-0.9,3.1c0.7,1.5,2.1,1.4,3.4,1.2c2.8-0.4,5.6-0.2,8.4,0.5c8.7,2.4,14.6,8.6,15.4,18.9c0.8,11.6,2.6,22.9,7,33.8
		c5.4,13.5,14,24.3,26.8,31.3c3,1.6,3,2.6,0.5,4.7c-2.8,2.4-5.3,4.4-9.3,4.7c-5.1,0.4-7.1,2.8-8,8.3c-0.5,2.9-3.2,3.5-4.8,5.3
		c-2,2.3-3.7,1.5-5.9,0.1c-4.3-2.7-8.6-1-12.8,4.5c-2.6-13-12.5-15.8-20.8-7.9c-2.2-4.6-2.3-9.6-3.1-14.3
		c-2.1-12.1-2.8-24.2-2.8-36.5c0.1-29.7,0-59.4,0-89.2c0-5.4,0-5.3,5.2-4.9c8.9,0.8,17.8,1.2,26.6-1.2c6.3-1.8,9.1-6.9,6.3-12.9
		c-1.6-3.5-0.6-4.2,2.6-4.4c3-0.2,5.9-1,8.6-2.2c7-2.9,9.1-7.2,7-14.5c-0.3-1-1.6-2.3-0.1-3c2-0.9,4.2-0.5,6.3-0.2
		c1.7,0.2,1.4,1.5,1.3,2.7c-0.1,1.3-0.2,2.6-0.2,4c0.1,8.5,4.3,13.3,12.7,14.1c2.8,0.3,4.8,1.2,6.8,3.2c6.6,6.7,15.3,8.8,24.3,9.9
		c8.6,1.1,17.2,0.6,25.7-0.2c2.3-0.2,3.9-0.1,5.4,2.2c1.8,2.8,5.1,3.5,8.2,4.1c10,1.9,20.1,1.2,30.1,0.9c5.8-0.2,5.8-0.2,5.8,5.8
		C196.6,69.9,196.6,80.2,196.6,91.4z"/>
	<path class="st2" d="M197.6,35.1c0-3,0-6,0-9c0-9.1-5.1-14.1-14.2-14.1c-11.3,0-22.5,0-33.8,0h-14.3L123,12c-3.4,0-6.8,0-10.2,0
		c-8.8,0-17.9,0-26.9-0.1c-3.8,0-5.5,1.5-5.8,5.4c-0.4,4.6,0.4,8,2.5,10.4s5.3,3.6,9.9,3.8c0.3,0,0.5,0,0.7,0c1.6,0,2.6,0.1,3.4,1.2
		c5.3,7.3,13.2,9.7,19.6,10.9c12.6,2.5,25.2,1.4,34.8,0.1c0.3,0,0.6-0.1,1-0.2c0.5-0.1,1.4-0.3,1.6-0.2c0,0,0,0,0,0.2
		c0.4,6.5,5.2,7,8.7,7.4c0.6,0.1,1.2,0.1,1.8,0.2c4.2,0.6,8.4,0.8,12.6,0.8c4.1,0,8.1-0.2,12.1-0.4c1.5-0.1,3.1-0.1,4.6-0.2
		c3.8-0.2,4.1-2.6,4.1-4.9C197.6,42.7,197.6,38.9,197.6,35.1z"/>
	<path class="st1" d="M23.9,215.5c8.1,2.1,13-1.1,15.9-8.2c1.4,5.2,2.6,9.6,1.2,14.7c-1.2,4.3,1.6,8.4,6,10.2c2.5,1,4.1,2.2,4.9,4.8
		c0.9,2.8,3.1,5,6.2,4.9c3.3,0,5,1.5,6.7,3.9c3.7,5.1,8.5,8.8,15.1,9.3c2,0.2,3.2,1.3,4.4,2.8c4,4.8,8.5,8.7,15.3,8.9
		c0.7,0,1.6,0.4,2.2,1c3.5,3.3,7.7,4.1,12.3,4c3.1-0.1,8.5,8.4,7.5,11.4c-0.5,1.4-1.5,0.9-2.4,0.9c-6.3-0.5-10.8,2.2-13.9,7.5
		c-1.6-0.4-1.2-1.8-1.4-2.8c-2-9.5-7.9-14.2-17.7-13.4c-3.5,0.3-5.2-0.6-7-3.6c-4.7-7.8-13.9-10.7-22.4-7.1c-2.4,1-3,0.3-4-1.6
		c-2.3-4.3-6-6.9-10.8-7.9c-1.5-0.3-2.9-0.5-3.7-2.1C32.5,241.4,28,228.9,23.9,215.5z"/>
	<path class="st3" d="M119.7,186.8c-0.5-3.2-1.7-6.9-6.8-8.3c-4.8-1.2-9.6-2.9-14.4-4.9c-17.2-7.3-28.6-18-35-32.8
		c-1.7-4-2.3-8.3-1.9-14c0.5-7.1,3.9-11.6,10.1-13.5c3.5-1,3.8-3.4,3.8-5.7c0-7.9-2.4-14.9-7.5-21.2c-5.7-7.1-12.3-9.2-21.2-6.7
		c-4,1.1-5.4,3.4-4.8,7.6c0.9,6.4,3.5,12.2,6,17c0.2,0.4,0.4,0.8,0.6,1.1c0.7,1.3,1.4,2.4,1.2,3.8c-0.5,5.5,0.4,10.8,1.3,16
		c5.5,33,22.9,51.6,53,56.9c0.2,0,0.4,0.1,0.5,0.1c1.6,0.2,2.1,0.4,2.2,1.2c0.1,0.7,0,1.7-2.2,2.7c-8.3,4-14.8,5-21.3,3.4
		c-3.8-0.9-7.8-1.9-12-0.1l-4.1,1.8l4.5,0.1c7.2,0.2,13.1,2.9,18.2,8.2l2.4,2.5l-0.7-3.4c-0.5-2.4-0.9-4.2-0.5-4.7
		c0.3-0.4,1.8-0.6,3.8-0.9c7.1-1,13.5-1.7,20-1.2c1.9,0.1,3.2-0.2,4-1.1C119.8,190,120,188.7,119.7,186.8z M57.8,86.2
		c0.1,0,0.1,0,0.2,0c0.7,0,2,0.2,2.2,2.4c-0.1,1.3-0.6,2.8-2.6,2.8l0,0c-0.6,0-1.2-0.2-1.5-0.6c-0.4-0.5-0.7-1.2-0.6-2
		C55.5,88.1,55.8,86.3,57.8,86.2z"/>
	<g>
		<path class="st2" d="M172.1,213.4c-0.2-0.1-0.4-0.1-0.6-0.2c-1.5-0.4-2.1-0.7-2.3-1.8c-1-7.7-6.5-10.6-11.8-13.4
			c-2.2-1.2-4.3-2.3-6.1-3.7c-0.7-0.6-1.8-0.4-2.8-0.1c-9.8,2.6-15.3,7.5-17.2,15.3c-0.6,2.5-1.5,3-4.1,3
			c-9.7,0.3-15.5,5.5-17.2,15.5c-0.5,2.9,0.3,4.7,2.9,6.2c3.3,1.9,6.7,4.1,10.3,6.6c1,0.7,2.2,1.4,3.4,1.1c1.2-0.3,1.9-1.5,2.4-2.6
			c2.4-5.2,6.7-7.6,12.7-7c0.2,0,0.4,0,0.6,0.1c0.9,0.1,2,0.3,2.9-0.2c4.8-2.7,9.2-2.2,13.7,1.4l0.6,0.5l0.6-0.4
			c1.3-0.9,1.2-2,1.1-2.5c0-0.1,0-0.3,0-0.3c0.9-1.4,2-2.4,3.3-3c0,0,0,0,0.1,0c0,0.3-0.2,0.6-0.8,1.1c-0.6,0.6-1.5,1.3-1.7,2.7
			l-0.1,0.9l0.9,0.2c7,1.4,9.6,3.3,11.5,8.1c0.7,1.7,1.6,3.7,3.4,4.2c0.3,0.1,0.6,0.1,0.8,0.1c1.5,0,3-1,4.2-1.9
			c3.3-2.5,4.8-6,4.6-10.4C186.9,222.6,182.2,216.6,172.1,213.4z M160.5,222.8v0.1c-0.1,0.2-0.1,0.3-0.1,0.4
			c-0.4,0.6-0.6,1.3-0.8,1.9c-0.4,1.1-0.8,2-1.6,2.7c0.1-1.5,0.8-2.8,1.6-4.2c0.2-0.4,0.5-0.8,0.7-1.2c0-0.1,0.1-0.1,0.1-0.1
			C160.4,222.6,160.4,222.7,160.5,222.8L160.5,222.8z M148.8,224.6c-0.5-1.8-0.5-3.4,0-5.2C149.2,221.2,149.2,222.8,148.8,224.6z"/>
		<path class="st2" d="M196.2,95.7c-3.9-5.7-8-7-15.8-5c-2.3,0.6-2.7,0.3-3.4-1.8c-2.9-9.2-10-13.8-19.9-13.1
			c-9.9,0.8-16.7,6.7-17.7,15.5c-0.5,4.8-2.2,7-6.6,8.6c-2.6,0.9-4.9,3.4-6.3,6.9c-1.7,4.1-2,8.5-0.6,11.5c0.4,0.9,1,1.9,2.4,2.2
			c3.4,0.7,6,2.8,9,5.9l1,1l0.6-1.2c2.3-4.4,5.1-7.1,8.7-8.4c1.2-0.4,1.8-1.4,2.3-2.2l0.2-0.3c5.4-8.8,7.3-9.5,17-7.1
			c0.2,0.1,0.4,0.1,0.6,0.2c0.9,0.3,2,0.6,3,0.1c0.5-0.3,0.9-0.7,1.2-1.3c0,0.2-0.1,0.3-0.1,0.4s0,0.1,0,0.2l-0.2,0.8l1.1,0.6
			c4.6,2.3,4.6,2.3,7.3,7.4c1.5,2.7,3.2,2.3,4.8,1.5c1.8-0.9,3.7-1.8,5.5-2.6c1.5-0.7,2.9-1.4,4.4-2.1c0.8-0.4,1.7-0.9,2.3-1.7
			C198.4,109.8,197.5,97.6,196.2,95.7z M172.1,106.7c0,0,0,0.1-0.1,0.1c0-0.1,0.1-0.3,0.1-0.4c0.3-1,0.9-2.2,2.6-2.5
			c-0.1,0.5-0.4,0.8-1.1,1.3C173.1,105.6,172.5,106,172.1,106.7z"/>
		<path class="st2" d="M84.3,278.3c-3.4,0.6-4.8-0.2-6.2-3.2c-2.5-5.7-7.2-8.9-13-9.1l0,0c-0.1,0-0.2,0-0.2,0
			c-8.6,0-14.7,4.9-15.8,12.9c-0.3,2.3-1.5,2.7-3.9,2.8c-6.6,0.3-10.8,3.1-12.5,8.3c-2,6-0.9,12.1,3.1,17.7c0.7,0.9,1.7,2.2,3.2,2.3
			c0.1,0,0.1,0,0.2,0c1.1,0,2.1-0.6,3.2-1.8c2.1-2.3,5.3-3.5,9.7-3.6c2.5,0,4.4-0.8,6.3-2.7c5.3-5,9-5.4,15.2-1.5
			c1.9,1.2,4.4,2.2,6.9-0.7c0.6-0.7,1.4-1.4,2.4-2.2c0.1-0.1,0.3-0.1,0.4-0.1c-0.6,0.7-1.5,1.8-1.2,2.9c0.3,1.2,1.5,1.6,2.5,1.9
			c0.2,0.1,0.5,0.2,0.7,0.2c1.4,0.6,3,1.3,4.1,2.7c2.2,2.7,4.3,1.1,5.5,0.1c6.5-4.9,8.3-11.9,5.3-19.6
			C97.7,279.5,92.3,277,84.3,278.3z M62.6,290.4c0,0.5-0.1,0.8-0.1,1c-0.6-0.3-0.7-0.9-0.7-2.1c0-0.6-0.1-1.3-0.3-1.9
			c-0.1-0.3-0.1-0.7,0-1c0.6,0.2,0.7,0.6,0.8,1.9C62.2,288.9,62.3,289.7,62.6,290.4z"/>
		<path class="st2" d="M50.1,43.6c0.9-2.4,0-5.4-2.7-8.8c-0.3-0.4-0.6-0.7-1-1c-1-0.9-1.1-1.1-0.9-1.6c0.3-0.7,0.9-0.8,2.3-0.8
			c0.4,0,0.9,0,1.3-0.1l1.1-0.1c4.7-0.6,9.6-1.1,14-3.6c3.7-2.1,5-5.3,3.8-9.5c-0.9-3.1-2.3-6.3-7.7-6.2c-7.6,0.3-15.3,0.2-22.8,0.2
			c-3.6,0-7.2,0-10.8,0c-8.9,0-13.9,4.9-14,13.7c0,1.8,0,3.6,0,5.5v3.5l0,0c0,0.7,0,1.4,0,2.1c0,2.4,0,4.8-0.1,7.2
			c-0.1,3,1.2,4.6,4.2,4.9c4.4,0.5,8.9,0.9,13.6,0.9c3.9,0,7.9-0.3,11.9-1.2C46.7,47.7,49.3,46,50.1,43.6z"/>
	</g>
	<path class="st1" d="M107.4,229.5c-8.2-5.1-15.8-9.9-23.5-14.7c-0.8-0.5-1.3-1.4-0.5-2c3-1.9,4.4-6.4,9-5.6
		c1.2,0.2,1.7-0.4,2.1-1.5c3.1-7.3,8-12.2,16.7-11.3c1.5,0.2,3-0.1,4.4,0.2c4.4,1,6.5-1.4,6.4-5.2c-0.2-4.3,2.2-4.1,5.2-5.1
		c8.4-2.8,13.3,1.9,18.3,7.1c-0.1,1.6-1.6,1.5-2.5,1.9c-6.4,2.7-11.2,7-13.6,13.6c-0.6,1.6-1.1,2.9-3.3,3.1
		C115.1,211.2,108.7,217.4,107.4,229.5z"/>
	<path class="st1" d="M196.6,259c-7.3-9.3-14.8-10.8-21-5.2c-5.7,5.2-5.7,14.2,0.1,19.3c6.2,5.4,14,3.7,20.5-4.9c0,8,0,15.6,0,23.2
		c-0.6,0.4-1.1,0.2-1.6-0.3c-13.4-12.3-28.3-22.7-43.4-32.8c-3.1-2.1-2.3-3.3-0.4-5.5c1.5-1.8,2.1-1,3.3,0.3
		c7.2,8,16.1,6.9,21.1-2.6c0.9-1.7,1.9-2.2,3.6-2.7c7.9-1.9,11.8-7.6,11.2-15.6c-0.8-9.9-5.4-17.2-15.1-20.5
		c-2.3-0.8-3.7-1.9-3.1-4.9c7.5,2.9,15,5.3,22.8,6.5c1.7,0.3,2.2,1.2,2.1,2.7c0,0.8,0,1.6,0,2.5C196.6,231.6,196.6,244.7,196.6,259z
		"/>
	<g>
		<path d="M193.1,293.2c-10.9-10.2-22.8-18.7-36.1-28c-25.1-17.4-51.2-33.9-75.7-49c-0.9-0.6-2.9-1.8-2.9-2.2s1.7-2,2.6-2.7l0.9-0.8
			c1.5-1.2,2.9-2.5,4.4-3.7c2.1-1.8,3.2-2.8,3.2-4.2c0-1.3-1.1-2.3-3-4c-1.5-1.3-2.9-2.3-4.3-2.9c-4.9-2.4-10.7-4-16,1.6
			c-1.2,1.3-2.7,2.4-4.2,3.5c-1,0.7-2,1.5-3,2.3c-2.1,1.9-3.5,1.9-5.1,0.3c-2.7-2.7-5.6-2.9-8.4-0.6c-1.7,1.4-2.7,3.2-2.9,5.1
			c-0.2,1.6,0.3,3.1,1.3,4.3c1.9,2.3,1.3,3.8,0.4,6.2c-0.1,0.3-0.2,0.5-0.3,0.8c-1,2.7-1,5.4,0.2,7.5c1.2,2,3.2,3.4,6,3.9
			c2,0.4,2.7,0.9,3,2.8c1,5.5,4,6.5,6.4,6.3c3.3-0.3,4.8,1.5,6.6,4c2.7,3.8,7,8.9,14,9c2.7,0.1,4,1.1,5.6,3.2
			c3.6,4.6,7.8,8.8,14.8,8.4c0.8,0,1.6,0.3,2.2,1.1c2.9,3.2,6.8,4.5,11.7,3.9c1.8-0.3,2.9,0.1,3.8,1.3c2.7,3.6,5.4,7.5,5.8,12.3
			c0.3,2.7,1.1,4.7,2.8,6.7c2.6,3.1,3.3,7,2,10.6c-1.3,3.8-4.6,6.5-8.7,7.3c-7.4,1.5-12.7-2.4-15.3-11.1l-0.8-2.8l-1.1,2.7
			c-1.8,4.8-4.7,8.5-8.8,11.4c-0.6,0.4-2.3,1.6-1.2,3.3c0.5,0.8,1.6,1.1,2.4,1.2s1.6,0.1,2.4,0.1h0.7c28.2,0,56.4,0,84.7,0
			c0.3,0,0.5,0,0.8,0s0.5,0,0.8,0c0.5,0,1,0,1.6-0.1c5.1-0.8,8.7-3.7,10.7-8.6C199,298.7,195.8,295.6,193.1,293.2z"/>
		<path d="M139.3,152.1c1.9,1.2,3.6,2.5,5,3.8s2.7,1.8,3.8,1.8c1.5,0,2.9-0.9,4.2-1.9c13.3-10.9,26.3-19.5,39.7-26.4
			c3.3-1.7,6.6-4.2,5.6-9.8c-0.1-0.7-0.1-1.3-0.2-2.3c0-0.5,0-1.2-0.1-1.9l-0.1-1.5l-1.3,0.6c-12.1,5.4-22.1,10.4-31.7,15.7
			c-6.5,3.6-13,7.4-19.2,11.2c-1.8,1.1-3.7,2.2-5.5,3.3c-2,1.2-2.9,2.4-3,3.7C136.5,149.7,137.4,150.9,139.3,152.1z"/>
	</g>
	<path class="st1" d="M158.2,154.8c2.4,9.7,7.6,15.9,17.7,16.3c7.1,0.3,13.8-3.9,16.4-10.5c3.9-9.7,0.9-17.6-7.1-23.8
		c0.1-0.4,0.2-0.6,0.3-0.7c3.2-2.3,7-6.1,10.1-5c2.5,0.9,0.9,6.5,0.9,10c0.2,10.7,0.1,21.4,0,32.1c0,5.2,0,5.1-5.3,4.2
		c-7.8-1.4-15.6-3.2-22.7-6.6c-6-2.9-11.2-7.1-16.9-10.8C153.6,157.6,155.5,156.1,158.2,154.8z"/>
	<g>
		<path class="st2" d="M117.3,286.8c-5.7,0.1-10.4,4.5-10.3,9.9c0,2.6,1.1,5,3,6.8c2,1.9,4.7,2.9,7.5,2.9c0.2,0,0.3,0,0.5,0
			c5.8-0.2,10.3-4.8,10.1-10.2C127.9,290.9,123,286.7,117.3,286.8z"/>
		<path class="st2" d="M164,234.8c-0.1,0-0.1,0-0.2,0c-5.4,0-9.7,4.4-9.9,10.2c-0.1,3,1,5.9,3.1,7.9c1.8,1.9,4.2,2.9,6.7,2.9h0.1
			c5.3,0,9.7-4.8,9.7-10.5C173.7,239.5,169.5,234.9,164,234.8z"/>
		<path class="st2" d="M183.9,253.1L183.9,253.1c-2.7,0-5.3,1.1-7.2,3.1c-2,2-3,4.7-2.9,7.6c0.2,5.5,4.7,9.9,10.1,9.9
			c0.1,0,0.2,0,0.3,0c5.5-0.2,9.9-4.8,9.8-10.5C193.9,257.6,189.4,253.1,183.9,253.1z"/>
		<path class="st2" d="M133.3,97.1c0.1,0,0.2,0,0.4,0c1.5-0.1,2.7-1.1,3.2-2.5c0.9-2.3,1.4-4.7,1.9-7c0.2-1,0.4-1.9,0.6-2.8v-0.1
			v-0.1c-0.1-4.5-4.9-9-9.7-9.2c-5.3-0.3-10.1,3.7-11.2,9.2c-0.2,1-0.4,2.5,0.4,3.7c0.6,0.9,1.6,1.4,3.1,1.6
			c3.3,0.5,5.7,2.2,7.5,5.2C130.4,96.3,131.8,97.1,133.3,97.1z"/>
		<path class="st2" d="M139.9,233.9L139.9,233.9c-1.5,0.1-3.4,0.3-5.2,1.4c-3.9,2.3-4.7,4.7-4.7,6.4c0,1.6,0.7,4,4.2,6.4
			c1.4,0.9,2.7,1.8,4.1,2.7l1.7,1.1c1.9,1.3,3.6,1.9,5.1,1.9c0.6,0,1.1-0.1,1.6-0.3c1.8-0.7,3.1-2.6,3.9-5.8c0.9-3.5,0.1-7-2-9.7
			C146.4,235.3,143.3,233.8,139.9,233.9z"/>
	</g>
	<path class="st1" d="M13.8,263.9c4.9,2.6,9.1,4.1,9,10.3c-0.1,4.2,3.1,7.5,6.7,9.8c1.3,0.9,2.4,1.5,1.4,3.5c-1.1,2.2-2.3,1-3.6,0.4
		c-3.4-1.6-6.8-2.4-10.5-1.1c-2.2,0.8-3-0.1-3-2.3C13.9,277.9,13.8,271.3,13.8,263.9z"/>
	<g>
		<path class="st2" d="M116.7,69c0.1-5.3-4-9.9-9-10.1c-4.8-0.1-8.9,4-9.2,9.2c-0.1,2.8,0.8,5.5,2.7,7.4c1.7,1.8,4.1,2.9,6.5,2.9
			c0,0,0,0,0.1,0C112.7,78.4,116.6,74.3,116.7,69z"/>
		<path class="st2" d="M159.7,125.5c-0.6-0.7-1.2-1.5-1.2-2.2c-0.1-0.7-0.2-1.4-0.3-2c-0.1-0.3-0.1-0.7-0.2-1
			c-0.3-1.7-1.4-2.6-3.1-2.4c-4.7,0.4-9.4,1.3-12.5,5.7c-1.1,1.5-3.1,4.3-1.3,7.5c1.8,3.2,4.4,4.7,8.3,4.7c0,0,0,0,0.1,0h0.1
			c3.6-0.5,7.4-2.5,10.8-5.6C162,128.5,160.7,126.7,159.7,125.5z"/>
		<path class="st2" d="M28.5,194.7c-4.6,0.2-8.2,4.4-8.2,9.5c0,2.7,1.1,5.4,2.9,7.2c1.6,1.5,3.6,2.4,5.6,2.4h0.1
			c2.1,0,4.1-0.9,5.7-2.6c1.8-1.9,2.8-4.5,2.8-7.2c-0.1-2.7-1.2-5.3-3.1-7.1C32.7,195.4,30.7,194.6,28.5,194.7z"/>
		<path class="st2" d="M174.8,143.8l0.2-1.5l-1.4,0.4c-2.4,0.7-4.1,2-5.8,3.2c-0.5,0.4-1,0.7-1.5,1.1c-6.1,4.2-6.9,8.3-2.8,14.4
			c3,4.6,7.1,6.8,12.7,7l1.7,0.1l-0.7-1.5C173.3,159.3,173.8,151.7,174.8,143.8z"/>
		<path class="st2" d="M120.8,91.3L120.8,91.3L120.8,91.3c-4.4,0-7.8,2.6-9,6.8c-1.2,4.2,0.7,8.9,4.3,11c1.5,0.8,2.8,1.3,3.9,1.3
			c0.5,0,0.9-0.1,1.4-0.2c1.5-0.5,2.7-1.8,3.7-4.1l0.2-0.4c0.5-1,0.9-2.1,1.6-2.9l0.1-0.1c1.4-1.8,3.2-4.1,1.1-7.1
			C126.2,92.6,123.8,91.3,120.8,91.3z"/>
		<path class="st2" d="M177.3,114.4c-1.8-2.5-4.5-3.9-7.1-4l0,0c-4,0-7.5,1.9-9.3,4.9c-1.6,2.8-1.7,6.1-0.2,9
			c0.6,1.1,1.6,2.6,3.2,3.1c0.3,0.1,0.7,0.1,1,0.1c0.8,0,1.7-0.3,2.7-0.9c1.6-0.9,3.3-1.8,5-2.6c1-0.5,1.9-0.9,2.8-1.4
			c2.2-1.2,3.3-2.2,3.6-3.6C179.2,117.8,178.7,116.4,177.3,114.4z"/>
	</g>
	<g>
		<path class="st4" d="M156.8,172.6c1.1-0.6,2.5-1.2,3.3-3l0.4-0.8l-0.7-0.5c-9.4-6.1-17.4-11.8-24.4-17.5c-0.7-0.6-1.6-1.3-3-1
			c-6.5,1.4-11-1.9-16.2-6.5c-0.5-0.4-1.3-1.1-1.3-1.6c0-0.2,0.2-0.4,0.4-0.6c0.3-0.3,0.5-0.3,1.7,0.8l0.3,0.3
			c3.4,3.3,6.9,5.1,10.9,5.5l2.8,0.3l-2-2c-1.4-1.4-2.8-2.7-4.2-4.1c-6.6-6.5-13.5-13.2-19.5-20.5l-1.2-1.4
			c-8.3-9.9-16.9-20.2-22.4-32.3c-2.6-5.7-6.4-10.5-11.2-14.3c-5-4-10.4-5.5-16-4.6c-5.9,1-10.1,5-11.1,10.6L43,81.3l1.6-0.5
			c5.8-1.8,11.4-3.2,16.4,0c7.5,4.8,16,11.9,16,24.5c0,0.8,0,1.6,0.1,2.4c0.1,2,0.2,3.9-0.5,5.5c-0.4,1-1.3,1.1-2.9,1.3
			c-1,0.1-1.9,0.2-2.8,0.7c-3.7,1.9-6,4.6-7,8.3c-0.9,3.4-1,7-0.3,10.8c2.2,11.3,8.6,20.7,20.1,29.3c8.1,6.1,17.7,10.5,30.3,13.8
			c0.4,0.1,0.9,0.2,1.4,0.2c1.2,0.2,1.8,0.3,2,0.8c1.5,3.3,3.9,4.1,6.2,4.1c1.1,0,2.1-0.1,3.1-0.3c0.3,0,0.7-0.1,1-0.1
			c10.9-1.4,20.2-4.3,28.5-9C156.3,172.9,156.6,172.7,156.8,172.6z M99.3,147.5c-0.1,0.3-0.2,0.5-0.4,0.6c-0.4,0.2-1.3-0.1-1.7-0.2
			c-3.8-1.2-7.3-3.4-10.3-6.6c-2.7-2.8-4.7-5.8-6.1-9.1c-0.3-0.7-0.3-1.2,0-1.4c0.1-0.1,0.2-0.1,0.3-0.1h0.1
			c0.2,0.1,0.5,0.3,0.7,0.7c4.4,8.3,9.7,13.2,16.8,15.5C98.8,147,99.1,147.2,99.3,147.5C99.2,147.4,99.2,147.4,99.3,147.5z
			 M98.8,158.2c0.1-0.1,0.2-0.4,0.4-0.4c0.4-0.1,1.2,0.5,1.7,0.9c0.2,0.2,0.5,0.3,0.7,0.5c12.3,8.1,24.5,11.7,37.3,11.2
			c0.2,0,0.3,0,0.5,0c0.6,0,1.5-0.1,1.7,0.1c0.1,0.1,0.2,0.4,0.2,0.6c0,0.2,0,0.4-0.1,0.5c-0.2,0.2-1,0.3-1.6,0.3
			c-0.3,0-0.5,0-0.7,0c-0.9,0.1-1.7,0-2.6,0c-0.4,0-0.8,0-1.2,0c-11.8-0.3-22.9-4-34-11.4c-0.2-0.1-0.4-0.3-0.7-0.4
			C98.5,159,98.5,158.7,98.8,158.2z M107.6,141.4c-0.2,0.1-0.6,0-1-0.2c-8.1-3.7-14.1-8.6-18.3-15.1c-0.6-0.9-0.1-1.2,0-1.3
			c0.1-0.1,0.2-0.1,0.3-0.1c0,0,0,0,0.1,0c0.2,0,0.5,0.2,0.8,0.7c4.1,6,9.9,10.8,17.7,14.6c0.5,0.2,0.7,0.5,0.8,1
			C107.8,141.2,107.7,141.4,107.6,141.4z M134.2,160.1c-0.1,0.5-0.3,0.7-1.7,0.7c-0.2,0-0.3,0-0.5,0c-8-0.8-15.2-3.9-22.2-9.6
			c-0.2-0.2-0.9-0.7-0.9-1.1c0-0.1,0.1-0.3,0.2-0.4c0.1-0.1,0.2-0.3,0.4-0.3c0.2,0,0.6,0.2,1.2,0.7c7.5,5.8,14.5,8.8,22.1,9.2
			c1,0.1,1.3,0.3,1.3,0.4C134.2,159.8,134.2,160,134.2,160.1z M92.2,158.5c-0.1,0.3-0.2,0.4-0.3,0.5c-0.1,0.1-0.3,0-0.4-0.1
			c-1.2-0.5-2.3-1.3-3.1-2c-7.4-5.9-12.9-13.5-16.6-23.5c-0.1-0.2-0.2-0.5-0.3-0.7c-0.3-0.6-0.6-1.4-0.5-1.8
			c0.1-0.2,0.4-0.3,0.6-0.4c0.1,0,0.2-0.1,0.3-0.1H72c0.3,0.1,0.6,1,0.8,1.6c0.1,0.2,0.2,0.5,0.2,0.7c4.1,10.7,10,18.6,18,24.4
			C91.7,157.5,92.1,157.9,92.2,158.5z"/>
		<path class="st4" d="M193.2,189.7c-10.2-2.5-21.9-5.7-31.9-12.3c-4.3-2.8-7.5-2.5-11.5,1.1l-0.9,0.8l0.9,0.7
			c13.4,10.7,27.8,17.8,44,21.7c0.2,0.1,0.6,0.1,1.1,0.1c0.7,0,1.5-0.2,2.2-1.1c1.3-1.8,1-4.6,0.3-6.5
			C196.5,191.8,194.9,190.1,193.2,189.7z"/>
		<path class="st4" d="M195.1,203.7c-1-0.3-1.9-0.5-2.9-0.8c-15.5-3.9-29.7-11-42.3-20.9c-3.4-2.7-6.2-2.8-9.6-0.2l-1,0.7l0.9,0.8
			c11.5,10,23.1,17.3,35.7,22.3c5.3,2.1,11.2,3.7,17.3,4.8c0.1,0,0.3,0.1,0.4,0.1c0.4,0.1,0.9,0.2,1.4,0.2s1-0.1,1.4-0.4
			c0.6-0.4,0.9-1,1-1.9C197.6,207.2,198,204.5,195.1,203.7z"/>
		<path class="st4" d="M159.3,173.1l0.5,0.8c0.1,0.2,0.2,0.4,0.3,0.5c0.2,0.4,0.5,0.9,0.9,1.1c10.6,6.7,22.5,10.2,32.7,12.7
			c0.4,0.1,0.8,0.2,1.2,0.2c0.5,0,1-0.1,1.4-0.4c0.8-0.6,1-1.7,1.1-2.5c0.3-3.2-1-4.8-4.2-5.3c-8.6-1.2-17.4-3.7-27.7-7.8l-0.4-0.2
			c-1.2-0.5-3-1.2-5.1,0.1L159.3,173.1z"/>
	</g>
	<g>
		<path class="st2" d="M130.1,122.7l-0.3-0.1c-1.2-0.5-2.9-1.1-4.4-0.2c-1.8,1.2-1.2,3.1-0.9,4.3c0,0.2,0.1,0.3,0.1,0.5
			c1.8,6.5,5,12.4,9.4,17.5l0.8,0.9l0.7-1c2.6-3.5,3.4-8.3,2.1-12.9C136.5,127.4,133.7,124.1,130.1,122.7z"/>
		<path class="st2" d="M102.2,78.4c-2.3-1.5-3.8-3.6-4.5-6.1c-0.5-1.6-1.2-2.5-2.2-2.8c-1.4-0.4-2.8,0.6-3.7,1.4
			c-3,2.7-3.9,6-2.6,9.6s4,5.6,8.1,5.9h0.1h0.1c1.3-0.1,3-0.3,4.6-1.3c1.3-0.8,2.7-1.8,2.8-3.3C104.9,80.3,103.5,79.2,102.2,78.4z"
			/>
		<path class="st2" d="M190.9,156.5c-0.6-3.3-3.3-3.5-5.3-3.6c-0.7,0-1.4-0.1-2-0.3l-0.4-0.1l-0.4,0.2c-0.5,0.3-1.3,0.2-2.1,0.2
			c-1.3,0-2.8-0.1-3.8,1c-0.7,0.7-1,1.8-1,3.4c0.1,3.5,0.3,8.3,4.6,10.2c0.3,0.1,0.6,0.2,1,0.2c1,0,2.2-0.5,3.5-1.6
			C187.7,164,191.4,159.3,190.9,156.5z"/>
	</g>
	<g>
		<path d="M25.6,231.9c-4.6-2.1-6.3-5.4-7.3-9.4c-2.6-9.7-5.3-19.4-3.9-29.8C16.8,206,21,218.8,25.6,231.9z"/>
		<path d="M27.3,233.8l-2.2-1c-5.2-2.4-6.8-6.2-7.9-10c-2.6-9.6-5.3-19.5-3.9-30.1l0.8-6.3l1.2,6.2c2.5,13.7,6.9,26.8,11.2,39
			L27.3,233.8z M15.1,200.9c0.4,7.3,2.3,14.4,4.2,21.3c0.8,3.1,2,5.6,4.5,7.4C20.6,220.5,17.4,210.9,15.1,200.9z"/>
	</g>
	<g>
		<path class="st2" d="M30.4,275.1c0.3-0.3,0.6-0.6,0.9-0.8c0.7-0.4,1.3-0.9,2-1.3c1.1-0.8,2.2-1.5,3.3-2.1c1.5-0.7,2.3-1.6,2.7-2.7
			s0.1-2.4-0.8-3.9c-0.2-0.3-0.4-0.7-0.6-1.1c-0.9-1.8-2.1-4-4.7-4.2c-2.9-0.1-4.6,2.2-6,4.1l-0.2,0.2c-1.5,2-2.2,4.4-2.3,7.6v0.1
			v0.1c0.1,0.3,0.1,0.8,0.1,1.2c0.1,1.3,0.2,3,1.9,3.8c0.4,0.2,0.8,0.3,1.1,0.3C29,276.7,29.8,275.8,30.4,275.1z"/>
		<path class="st2" d="M32.1,275.7c-0.2,0.2-0.5,0.3-0.8,0.5c-0.9,0.5-1.9,1.2-2.2,2.4c-0.1,0.7,0,1.4,0.5,2.1
			c1,1.5,2.6,2.6,4.5,2.6c0.8,0,1.6-0.2,2.5-0.6c2.8-1.5,5.4-2.3,8-2.6c1.5-0.2,2.4-1,2.8-2.5c0.4-1.5,0.9-3,1.4-4.6
			c0.2-0.7,0.5-1.4,0.7-2.1l0.4-1.2l-1.3-0.1C42.8,269.2,37.5,271.2,32.1,275.7z"/>
		<path class="st2" d="M81.3,303.2c-3.5-0.3-6.9,0.8-9.1,3l-0.1,0.1c-1,1-2.4,2.3-1.9,4.2c0.4,1.6,1.6,1.9,2.6,1.9
			c0.3,0,0.6,0,0.8-0.1c0.3,0,0.6-0.1,0.8,0c1.4,0.1,2.9,0.1,4.2,0.1c0.6,0,1.1,0,1.7,0h2c1.5,0,2.9,0,4.4,0c0.1,0,0.3,0,0.4,0
			c0.9,0,2.7,0.1,3.1-1.7c0.2-0.9-0.2-2.1-1.2-3.4C87.4,304.9,84.5,303.5,81.3,303.2z"/>
		<path class="st2" d="M190.8,148c-0.7-2.5-2-4.7-3.8-6.3c-0.2-0.2-0.5-0.4-0.7-0.6c-1.6-1.5-3.6-3.5-6.6-2.6
			c-2.6,0.7-2.8,2.9-2.9,4.5c-0.1,0.6-0.1,1.2-0.3,1.6c-0.3,0.8-0.4,1.6-0.5,2.3c0,0.2-0.1,0.5-0.1,0.7c-0.2,1.1-0.2,2.4,0.6,3.3
			c0.7,0.6,1.7,0.8,3.1,0.6c2.7-0.4,5.4-0.4,7.9,0.1c0.3,0.1,0.8,0.3,1.4,0.3c0.5,0,1.1-0.1,1.5-0.5C191.3,150.4,191,149,190.8,148z
			"/>
	</g>
	<path class="st2" d="M30.1,297.8v-0.1c-0.5-6.1-4.2-9.3-9.9-8.9c-4.1,0.3-4,3.4-3.9,5.2c0,0.3,0,0.6,0,0.8c0,1.2,0.6,2.5,1.8,3.7
		c2.2,2.2,5.8,3.7,8.8,3.7l0,0c1.4,0,2.4-0.3,2.9-1.1C30.7,300.2,30.4,298.9,30.1,297.8z"/>
	<path class="st2" d="M25.6,242.5c0-3.8-1.2-7-3.5-9.7c-0.7-0.8-1.8-1.8-3.1-1.7c-1.4,0.1-2.3,1.4-2.9,2.5c-2.1,3.6-0.8,6.6,0.4,9.3
		c0.3,0.6,0.5,1.2,0.7,1.8c0.7,2,1.9,5.2,4.5,5.2c0.2,0,0.4,0,0.6-0.1c2.8-0.5,3-3.3,3.2-5.3c0-0.5,0.1-0.9,0.1-1.4
		c0-0.2,0-0.4,0-0.5L25.6,242.5z"/>
	<path class="st3" d="M71.6,299c-4.9-2.7-9.7-1.3-14.1,4.2l-0.8,1l1.1,0.6c0.3,0.2,0.7,0.3,1.1,0.5c2.7,1.3,5.2,2.5,7,5.1l0.9,1.2
		l0.8-1.3c0.3-0.5,0.6-1,0.9-1.4c1.2-2,2.2-3.7,3.9-4.8c0.8-0.5,1.8-1.3,1.8-2.5C74,300.3,72.7,299.6,71.6,299z"/>
	<path d="M101.1,183.3c-0.8-0.2-1.6-0.4-2.4-0.7c-1.7-0.5-3.4-0.9-5.1-1.5c-6.7-2.1-8.4-1.4-12.2,4.8l-0.6,1l1,0.5
		c2.3,1.1,4.5,1.5,6.7,1.5c3.1,0,6.1-0.8,9.1-1.6c1.1-0.3,2.2-0.6,3.3-0.8l0.7-0.2l0.3-2.7L101.1,183.3z"/>
	<path class="st2" d="M97,94.6c-1.4-2.9-4-4.7-7.1-4.9h-0.2c-1-0.1-2.4-0.2-3.4,0.9c-1.2,1.4-0.3,2.9,0.3,3.8l0.5,0.7
		c2.2,3.6,4.5,7.3,7.5,10.6l0.9,0.9l0.7-1.1C98.3,102.2,98.7,98,97,94.6z"/>
	<path class="st3" d="M41.1,92.5c-0.1-0.9-0.2-1.7-0.3-2.5c-0.2-1.6-0.4-3.1-0.5-4.5c-0.1-2-1.2-3-3.1-3c-4.2,0.1-8.7,0.8-12.5,5.1
		l-1.3,1.5l2,0.2c5.7,0.5,10,1.7,14.2,4.1l1.7,1L41.1,92.5z"/>
	<path class="st2" d="M63.4,310c-6.9-5.3-14.9-5.3-20,0.1l-1.6,1.7h23.9L63.4,310z"/>
	<path class="st2" d="M50.8,265.8c-2.3-5.5-5-7.3-12.1-8l-1.7-0.2l0.7,1.6c3,6.7,4.1,8.8,7.2,8.8c1.3,0,2.9-0.3,5.1-0.9l1.2-0.3
		L50.8,265.8z"/>
	<path class="st3" d="M164.2,107.7c-6.5-2.2-11.3,0.3-13.7,7.1l-0.3,0.9l0.9,0.3c1.1,0.4,2.2,0.6,3.1,0.6c3.2,0,5.2-2.2,7-4.2
		c1-1.2,2-2.3,3.2-3l1.8-1.1L164.2,107.7z"/>
	<path d="M35.2,252.5l-0.2-0.3c-1.2-2.7-2.4-5.4-3.7-8.3l-2.6-5.8l-0.8,2.3c-1.9,5.2-0.3,9.2,1.2,13c0.2,0.4,0.3,0.8,0.5,1.2
		c0.4,1.1,1,1.8,1.8,2.1c0.3,0.1,0.6,0.2,1,0.2c0.5,0,1-0.1,1.6-0.4c0.9-0.4,1.4-0.9,1.7-1.5C35.9,254.2,35.5,253.3,35.2,252.5z"/>
	<path class="st2" d="M124.2,130.7c-0.5-1.5-0.9-3-1.4-4.7l-1-3.5l-1.1,0.7c-3.3,2.1-5.3,3.7-5.4,5.6c-0.1,1.8,1.3,3.3,3.6,5.1
		c0.1,0.1,0.3,0.2,0.4,0.3c0.4,0.4,1.2,1.1,2.2,1.1c0.5,0,1-0.2,1.6-0.7C124.3,133.8,124.7,132.4,124.2,130.7z"/>
	<path class="st3" d="M157.9,233c-3.7-3.2-7.3-3.6-11.3-1.3l-1.1,0.6l7.1,8.1l6-6.8L157.9,233z"/>
	<path class="st1" d="M26,251.9c0.2,3,3.3,5.1,1.3,6.9c-2.2,2-4.2-1.2-6.7-1.9C22,254.9,23.6,253.8,26,251.9z"/>
	<path class="st2" d="M28.1,304c-2.8-0.2-5.4-1-8.4-2.1l-2.4-0.9l1.1,2.3c1.9,3.7,3.5,5.4,5.3,5.5c0.1,0,0.2,0,0.3,0
		c1.9,0,3.5-1.7,4.8-3.2l1.2-1.5L28.1,304z"/>
	<path class="st2" d="M13.8,243.7l-0.2,2.6c-0.3,4.8-0.4,6.9,0.9,7.9c0.4,0.3,0.8,0.4,1.2,0.4c1,0,2.2-0.5,3.9-1.2l1.2-0.5
		L13.8,243.7z"/>
	<path d="M24.7,262.6c-0.3-0.9-1.1-1.4-1.8-1.7l-10-5l1,2.5c1.3,3.2,3.8,4.7,6.2,6.2l0.8,0.5c0.3,0.2,1,0.6,1.7,0.6
		c0.2,0,0.3,0,0.5-0.1c0.4-0.1,0.9-0.4,1.3-1.1C24.8,263.8,24.9,263.2,24.7,262.6z"/>
	<path d="M134.9,172.9c-12.7-0.3-24.1-4.6-34.6-11.6c-1.3-0.9-3.5-1.8-2.4-3.6c1.2-2,2.9-0.2,4.2,0.6c11.1,7.3,23.2,11.6,36.7,11
		c1.4-0.1,3.4-0.5,3.5,1.6s-2,1.8-3.4,1.9C137.6,173,136.3,172.9,134.9,172.9z"/>
	<path d="M93.3,158.5c-0.3,1.2-1.1,1.7-2.2,1.2c-1.2-0.5-2.3-1.3-3.3-2.1c-8-6.3-13.4-14.5-16.9-23.9c-0.5-1.4-1.9-3.4,0.4-4.2
		c1.9-0.7,2.2,1.4,2.7,2.8c3.7,9.6,9.2,17.8,17.6,23.9C92.4,156.8,93.1,157.4,93.3,158.5z"/>
	<path d="M132,161.8c-8.7-0.8-16.1-4.4-22.8-9.9c-0.9-0.7-1.9-1.7-0.9-2.9s2.1-0.5,3,0.3c6.4,5,13.3,8.5,21.5,9
		c1.2,0.1,2.5,0.4,2.3,1.9C134.9,162,133.3,161.7,132,161.8z"/>
	<path d="M100.4,147.2c-0.4,2.4-2,2.1-3.4,1.6c-4.2-1.3-7.7-3.7-10.7-6.8c-2.6-2.8-4.8-5.9-6.3-9.4c-0.4-1-0.5-2.1,0.4-2.7
		c1-0.6,1.9,0.1,2.4,1c3.6,6.9,8.5,12.5,16.2,15C99.5,146.1,99.9,146.8,100.4,147.2z"/>
	<path d="M108.9,141.1c-0.4,1.5-1.6,1.5-2.7,1c-7.7-3.5-14.1-8.4-18.7-15.5c-0.6-0.9-0.6-2,0.3-2.6c1-0.7,1.9,0,2.5,0.8
		c4.4,6.4,10.4,10.9,17.3,14.3C108.4,139.5,108.9,140.1,108.9,141.1z"/>
	<path d="M148.8,227.5c-1.8-4-1.8-7,0-11C150.6,220.5,150.6,223.5,148.8,227.5z"/>
	<path d="M161.5,222.8c-0.2,0.5-0.2,0.8-0.4,1.1c-1,1.8-1.1,4.2-3.2,5.3c-0.2,0.1-1-0.5-1-0.7c-0.1-2.4,1.4-4.3,2.4-6.3
		c0.3-0.6,1-0.9,1.7-0.5C161.3,221.9,161.4,222.5,161.5,222.8z"/>
	<path d="M63.6,290.1c0,1.2-0.1,2.7-1.3,2.3c-2-0.8-1.3-3.1-1.8-4.8c-0.3-0.9-0.1-2.6,1-2.3C64,286,62.7,288.7,63.6,290.1z"/>
	<path d="M61.2,88.6c-0.1,2.3-1.4,3.8-3.6,3.8c-2.1,0-3.2-1.6-3.2-3.6c0.1-2,1.2-3.5,3.4-3.6C59.9,85.1,61,86.5,61.2,88.6z"/>
	<path d="M73.7,292.5c-0.6,1-1.6,2.2-2.3,1.2c-1.3-1.7,0.6-3.3,1-5c0.2-0.9,1.3-2.2,2.1-1.4C76.2,289.2,73.7,290.8,73.7,292.5z"/>
	<path d="M55.1,293.9c0.5,1.1,1.1,2.5-0.1,2.6c-2.1,0.2-2.5-2.2-3.7-3.5c-0.7-0.7-1.2-2.3-0.1-2.5C53.6,290.1,53.6,293.1,55.1,293.9
		z"/>
	<path d="M139.5,223c0.3,0.4,0.6,0.6,0.7,0.9c1,1.8,2.9,3.2,2.8,5.5c0,0.2-0.9,0.6-1.2,0.5c-2.1-1.2-2.9-3.4-4-5.4
		c-0.4-0.6-0.2-1.4,0.5-1.7C138.6,222.7,139.1,223,139.5,223z"/>
	<path d="M149.5,100.6c0.4,0.3,0.7,0.5,0.9,0.7c1.3,1.6,3.5,2.6,3.8,4.9c0,0.2-0.8,0.8-1.1,0.7c-2.3-0.8-3.5-2.8-5-4.5
		c-0.5-0.5-0.5-1.3,0.1-1.7C148.6,100.4,149.1,100.6,149.5,100.6z"/>
	<path d="M143.6,107.3c0.5,0.1,0.8,0.2,1.1,0.3c1.8,1,4.2,1.1,5.3,3.1c0.1,0.2-0.5,1-0.7,1c-2.4,0.1-4.3-1.3-6.3-2.3
		c-0.6-0.3-0.9-1-0.5-1.6C142.7,107.5,143.3,107.4,143.6,107.3z"/>
	<path d="M160.5,97c0,0.5,0.1,0.8,0.1,1.1c-0.3,2.1,0.5,4.3-1,6.1c-0.1,0.2-1.1,0-1.2-0.3c-1-2.2-0.3-4.5-0.1-6.7
		c0.1-0.7,0.6-1.2,1.4-1.1C159.9,96.2,160.2,96.7,160.5,97z"/>
	<path d="M168.5,98.5c-0.1,0.5-0.1,0.8-0.2,1.1c-0.8,1.9-0.7,4.3-2.7,5.6c-0.2,0.1-1.1-0.4-1.1-0.6c-0.3-2.4,0.9-4.4,1.8-6.5
		c0.3-0.7,0.9-1,1.6-0.7C168.2,97.6,168.3,98.2,168.5,98.5z"/>
	<path d="M199.8,162.1c0,45.9-0.1,91.8,0.1,137.7c0,6-5.1,11.5-7.8,13.2c-0.7,0.4-4,1.6-4.5,1.7c-55,0-108.6,0-163.6,0
		c-6.3,0-12.8-6.6-13.5-13.1c-0.2-1.5,0-1.9,0-3.4c0-92.4,0.2-181.2,0.2-273.7c0-5.6,8.1-14.6,14-14.8c4-0.2,5.4,0,9.4,0
		c50.4,0,100.7,0,151.1,0c9.5,0,14.6,5.1,14.6,14.4C199.8,70,199.8,116.1,199.8,162.1z M196.6,91.4c0-11.2,0-21.5,0-31.7
		c0-6,0-6-5.8-5.8c-10.1,0.3-20.1,1-30.1-0.9c-3.1-0.6-6.4-1.3-8.2-4.1c-1.5-2.3-3.1-2.4-5.4-2.2c-8.6,0.8-17.1,1.3-25.7,0.2
		c-9-1.1-17.6-3.2-24.3-9.9c-2-2-3.9-2.9-6.8-3.2c-8.4-0.8-12.6-5.7-12.7-14.1c0-1.3,0.1-2.6,0.2-4c0.1-1.1,0.4-2.5-1.3-2.7
		c-2.1-0.2-4.4-0.7-6.3,0.2c-1.5,0.7-0.2,2,0.1,3c2,7.4,0,11.7-7,14.5c-2.8,1.1-5.6,2-8.6,2.2c-3.3,0.2-4.3,0.9-2.6,4.4
		c2.8,6,0,11.1-6.3,12.9c-8.8,2.5-17.7,2-26.6,1.2C14,50.9,14,50.8,14,56.3c0,29.7,0.1,59.4,0,89.2c-0.1,12.3,0.7,24.4,2.8,36.5
		c0.8,4.8,0.9,9.7,3.1,14.3c8.4-7.9,18.2-5.1,20.8,7.9c4.2-5.5,8.5-7.1,12.8-4.5c2.2,1.4,3.9,2.3,5.9-0.1c1.5-1.8,4.3-2.4,4.8-5.3
		c1-5.4,2.9-7.9,8-8.3c4-0.3,6.6-2.3,9.3-4.7c2.5-2.2,2.6-3.1-0.5-4.7c-12.9-7-21.5-17.8-26.8-31.3c-4.3-10.8-6.1-22.2-7-33.8
		c-0.7-10.3-6.7-16.5-15.4-18.9c-2.7-0.8-5.5-0.9-8.4-0.5c-1.3,0.2-2.7,0.2-3.4-1.2c-0.6-1.2,0.3-2.2,0.9-3.1
		c3.7-5.4,9.1-7.4,15.3-7.9c1.8-0.1,3.2-0.1,4.4-2.3c6.1-11.9,18.2-14.9,29.5-7.5c5.2,3.4,9.2,8.1,12.1,13.6c1.9,3.6,4,4.7,7.5,2.4
		c-4.2-6.7-5-11.6-0.9-15.4c4.2-3.9,8.3-7.9,12.4-12c4.7-4.7,12.6-2.7,16.2,3.1c4,6.4,1.8,14.5-4.6,17.9c-1.6,0.8-3.8,0.5-4.7,2.4
		c-2.3,4.6-6.2,6.6-11.9,6.9c4,4.3,6.6,9.3,4.2,13.9c-3,5.9-0.2,9.1,3.2,12.8c2.4,2.7,4.8,5.5,7.1,8.2c1.4,1.7,2.7,2.9,4.5,0.2
		c1.2-1.8,3.1-2.9,5.1-3.8c1.6-0.7,3.6-0.9,2.8-3.7c-0.6-2.2-0.6-4.2-3.9-4.4c-4.9-0.3-8-3.5-9.5-8.2s-0.4-9.1,3.1-12.2
		c2.4-2.1,3.1-4.1,3.4-7.1c0.7-5.6,3.8-9.9,9.4-11.6c5.4-1.6,10.2-0.1,13.7,4.4c1.7,2.3,2.7,2.3,4.9,0.5c12.1-9.5,30.4-4.7,34.5,7.3
		c0.7,2,1.8,2.5,3.7,2.2C187.2,86.7,191.8,87.7,196.6,91.4z M104,296.7c-2,5.2-5,9-9.2,11.9c-0.7,0.5-1.5,1.1-0.9,2
		c0.3,0.4,1.1,0.6,1.7,0.7c1,0.1,2,0.1,3,0.1c28.2,0,56.4,0,84.7,0c1,0,2,0.1,3-0.1c4.8-0.7,8.1-3.5,9.9-8c1.7-4.2-0.9-6.8-3.6-9.4
		c-11.1-10.4-23.5-19.2-36-27.9c-24.7-17.1-50.1-33.2-75.6-49c-4.4-2.7-4.5-3.1-0.4-6.5c1.8-1.5,3.5-3,5.3-4.5
		c3.7-3.3,3.8-3.5,0.2-6.7c-1.2-1.1-2.6-2.1-4.1-2.8c-5.2-2.5-10.2-3.6-14.8,1.4c-2.1,2.3-4.9,3.9-7.3,5.9c-2.2,1.9-4.2,2.5-6.5,0.3
		c-2.2-2.1-4.5-2.6-7-0.5c-2.8,2.3-3.3,5.7-1.5,7.9c2.5,3.1,1.3,5.2,0.2,8c-1.9,5,0.3,9.1,5.5,10c2.4,0.4,3.4,1.2,3.8,3.6
		c0.5,2.9,1.8,5.7,5.3,5.4c3.8-0.3,5.6,1.7,7.5,4.5c3.2,4.6,7.3,8.5,13.2,8.6c3.2,0.1,4.7,1.4,6.4,3.6c3.5,4.5,7.5,8.4,13.9,8.1
		c1.2-0.1,2.3,0.5,3.1,1.4c2.9,3.3,6.7,4.1,10.8,3.5c2-0.3,3.5,0.1,4.8,1.7c3,3.8,5.5,7.9,6,12.8c0.2,2.4,1,4.2,2.5,6.1
		c6,7.2,2,17.7-7.3,19.6C112.6,310.2,106.8,306.2,104,296.7z M135.4,13c-4.1,0-8.3,0-12.4,0c-12.4,0-24.8,0.1-37.2-0.1
		c-3.5-0.1-4.5,1.3-4.8,4.5c-0.7,8.5,2.9,12.8,11.4,13.1c1.8,0.1,3.6-0.2,4.9,1.6c4.7,6.5,11.6,9.1,19,10.5
		c11.5,2.3,23,1.6,34.5,0.1c1.4-0.2,3.7-1.1,3.8,0.7c0.4,6.7,5.7,6,9.7,6.6c9.7,1.5,19.4,0.6,29.2,0.2c2.8-0.1,3.1-1.6,3.1-3.9
		c-0.1-6.8,0-13.5,0-20.3c0-8.5-4.6-13.1-13.2-13.1C167.4,13,151.4,13,135.4,13z M128.1,146.9c-8.1-8.1-16.4-15.9-23.7-24.6
		c-8.9-10.6-17.9-21.1-23.7-33.9c-2.5-5.4-6.1-10.2-10.9-13.9c-4.5-3.5-9.5-5.3-15.2-4.4c-5.5,0.9-9.4,4.6-10.3,9.7
		c5.8-1.9,11.8-3.4,17.3,0.1c9.2,5.9,16.5,13.3,16.4,25.3c0,2.8,0.6,5.7-0.5,8.3c-1.1,2.4-4.1,1.5-6.2,2.5c-3.3,1.7-5.5,4.1-6.5,7.6
		c-0.9,3.4-0.9,6.9-0.3,10.3c2.4,12.4,10,21.4,19.7,28.7c9,6.7,19.2,10.8,30,13.6c1.4,0.4,3.4,0.1,4,1.6c2,4.6,5.8,3.5,9.3,3.1
		c9.9-1.2,19.4-3.9,28.1-8.9c1.3-0.7,2.8-1.1,3.6-2.9c-8.4-5.4-16.7-11.2-24.5-17.5c-0.6-0.5-1.3-1-2.2-0.8
		c-7.2,1.6-12.2-2.4-17.1-6.7c-1-0.9-2.6-2.2-1-3.7c1.3-1.1,2.4,0.2,3.3,1.2C120.6,144.5,123.9,146.5,128.1,146.9z M163.1,231.9
		c7.3,1.4,10.3,3.6,12.3,8.7c1.6,4.2,3.3,4.7,6.9,2c3.1-2.4,4.4-5.6,4.2-9.5c-0.5-9.9-5.1-15.6-14.7-18.7c-1.6-0.5-3.3-0.7-3.5-2.8
		c-1.3-10.3-11.3-11.4-17.5-16.4c-0.4-0.3-1.3-0.1-1.9,0.1c-7.9,2.1-14.4,6.1-16.5,14.6c-0.8,3.1-2.1,3.7-5.1,3.8
		c-9.5,0.3-14.7,5.3-16.3,14.7c-0.4,2.6,0.3,3.9,2.4,5.2c3.6,2.1,7,4.3,10.4,6.7c2,1.4,3.1,1.6,4.3-1.1c2.6-5.6,7.4-8.2,13.7-7.6
		c1,0.1,2.2,0.4,2.9,0c5.4-3,10.4-2.1,14.8,1.5c1.2-0.9,0.4-1.8,0.8-2.5c1-1.6,2.3-2.8,4-3.5c0.3-0.1,1.1,0.3,1.1,0.6
		C166.1,229.5,163.4,229.8,163.1,231.9z M138,125.7c2.2-4.1,5-7.3,9.2-8.8c1-0.4,1.4-1.3,2-2.1c5.7-9.2,8-10.1,18.1-7.5
		c1.5,0.4,3.2,1.5,3.9-1.2c0.5-1.8,1.8-3.1,3.8-3.2c0.2,0,0.7,0.4,0.7,0.6c0.2,2.1-1.9,2.4-2.8,3.8c-0.2,0.2-0.2,0.6-0.2,0.9
		c5.1,2.6,5.2,2.5,8.2,8c1,1.8,1.9,1.9,3.5,1.1c3.2-1.6,6.6-3.1,9.8-4.6c0.7-0.4,1.5-0.8,2-1.4c1.1-1.5,0.4-13.2-0.8-14.9
		c-3.6-5.2-7.2-6.5-14.7-4.6c-2.7,0.7-3.7,0.3-4.6-2.5c-2.8-8.8-9.6-13.1-18.9-12.4c-9.1,0.7-15.8,6-16.7,14.6
		c-0.6,5.2-2.5,7.7-7.3,9.4c-5.5,2-8.7,11.7-6.4,17c0.4,0.8,0.8,1.4,1.7,1.6C132.3,120.3,135.2,122.8,138,125.7z M23.9,215.5
		c4.1,13.4,8.6,25.8,14.4,37.8c0.8,1.6,2.2,1.8,3.7,2.1c4.8,1,8.5,3.7,10.8,7.9c1,1.9,1.7,2.6,4,1.6c8.5-3.6,17.7-0.7,22.4,7.1
		c1.8,3,3.4,3.9,7,3.6c9.8-0.8,15.6,3.9,17.7,13.4c0.2,0.9-0.2,2.4,1.4,2.8c3.2-5.3,7.7-8,13.9-7.5c0.9,0.1,1.9,0.6,2.4-0.9
		c1-3-4.4-11.4-7.5-11.4c-4.6,0.1-8.8-0.7-12.3-4c-0.5-0.5-1.4-0.9-2.2-1c-6.7-0.2-11.3-4.1-15.3-8.9c-1.2-1.4-2.4-2.6-4.4-2.8
		c-6.6-0.6-11.3-4.3-15.1-9.3c-1.8-2.4-3.5-4-6.7-3.9c-3,0-5.3-2.1-6.2-4.9c-0.9-2.6-2.5-3.8-4.9-4.8c-4.4-1.8-7.2-5.9-6-10.2
		c1.5-5.1,0.2-9.5-1.2-14.7C36.9,214.5,32,217.6,23.9,215.5z M65.1,267.1c-8.3-0.1-14,4.5-15.1,12c-0.5,3.2-2.5,3.6-4.9,3.7
		c-5.4,0.2-9.9,2.3-11.6,7.6c-2,6-0.7,11.7,3,16.8c1.4,1.9,2.9,2.8,5.1,0.4c2.7-2.9,6.5-3.9,10.4-3.9c2.3,0,4-0.8,5.6-2.4
		c5.6-5.3,9.8-5.8,16.4-1.6c2.2,1.4,3.8,1.5,5.6-0.5c0.7-0.9,1.6-1.6,2.5-2.3c0.3-0.3,1-0.4,1.4-0.2c0.7,0.3,0.9,1.1,0.4,1.6
		c-2.4,2.6,0.1,2.8,1.6,3.4c1.7,0.7,3.3,1.5,4.5,3c1.5,1.8,2.7,1.1,4.2,0c6.1-4.6,7.9-11.1,4.9-18.5c-2.2-5.6-7-8.1-14.7-6.8
		c-3.8,0.6-5.7-0.3-7.2-3.8C74.8,270.1,70.4,267.2,65.1,267.1z M90.6,199c-1.2-6-1.2-6,4.2-6.8c6.7-0.9,13.4-1.7,20.2-1.2
		c3.2,0.3,4.2-1.2,3.8-4.1c-0.5-3.6-1.9-6.4-6-7.4c-4.9-1.3-9.8-3-14.5-4.9c-15.9-6.7-28.5-17-35.5-33.3c-2-4.7-2.3-9.6-2-14.5
		c0.5-7,3.8-12.3,10.8-14.4c2.7-0.8,3.1-2.4,3.1-4.8c0-7.7-2.4-14.5-7.3-20.5c-5.6-6.9-11.7-8.7-20.2-6.3c-3.7,1-4.6,3-4.1,6.5
		c0.9,6,3.2,11.4,5.9,16.7c0.9,1.7,2.2,3.3,2,5.5c-0.5,5.3,0.4,10.5,1.3,15.7c4.3,25.7,17,49.9,52.2,56c1.4,0.2,3.3,0.3,3.5,2.1
		c0.3,1.9-1.3,3-2.7,3.8c-6.9,3.3-14.2,5.4-21.9,3.5c-3.8-0.9-7.5-1.8-11.4-0.1C79,190.7,85.2,193.3,90.6,199z M13.8,33.6L13.8,33.6
		c0,3.5,0.1,6.9,0,10.4c-0.1,2.5,0.8,3.6,3.3,3.9c8.4,1,16.8,1.6,25.1-0.2c7.9-1.7,9.4-5.9,4.5-12.3c-0.9-1.1-2.8-1.9-2-3.6
		c0.8-1.8,2.9-1.2,4.4-1.4c5.1-0.6,10.2-1.1,14.8-3.6c3.4-1.9,4.4-4.7,3.3-8.4c-1-3.4-2.3-5.6-6.7-5.5C49.3,13.3,38,13,26.8,13
		c-8.4,0-12.9,4.5-13,12.7C13.8,28.4,13.8,31,13.8,33.6z M107.4,229.5c1.3-12,7.7-18.3,18.9-19.4c2.1-0.2,2.7-1.5,3.3-3.1
		c2.4-6.6,7.2-10.9,13.6-13.6c0.9-0.4,2.4-0.3,2.5-1.9c-5-5.2-9.9-9.9-18.3-7.1c-3,1-5.4,0.8-5.2,5.1c0.2,3.8-2,6.1-6.4,5.2
		c-1.4-0.3-3,0-4.4-0.2c-8.7-0.9-13.5,4-16.7,11.3c-0.4,1-0.9,1.7-2.1,1.5c-4.7-0.8-6,3.8-9,5.6c-0.9,0.5-0.3,1.5,0.5,2
		C91.6,219.6,99.2,224.4,107.4,229.5z M196.6,259c0-14.3,0-27.4,0-40.6c0-0.8,0-1.7,0-2.5c0.1-1.5-0.5-2.5-2.1-2.7
		c-7.8-1.3-15.3-3.6-22.8-6.5c-0.6,3.1,0.7,4.1,3.1,4.9c9.8,3.3,14.3,10.6,15.1,20.5c0.7,8-3.3,13.7-11.2,15.6
		c-1.7,0.4-2.8,1-3.6,2.7c-4.9,9.5-13.9,10.6-21.1,2.6c-1.2-1.3-1.7-2.1-3.3-0.3c-1.9,2.2-2.7,3.4,0.4,5.5
		c15.1,10.1,30,20.5,43.4,32.8c0.5,0.5,1.1,0.7,1.6,0.3c0-7.6,0-15.1,0-23.2c-6.5,8.6-14.3,10.4-20.5,4.9
		c-5.8-5.1-5.8-14.1-0.1-19.3C181.8,248.1,189.3,249.7,196.6,259z M196.4,115.5c-11.2,5-21.6,10-31.6,15.6
		c-8.4,4.6-16.5,9.6-24.8,14.4c-3,1.8-3.5,3.7-0.2,5.8c1.8,1.1,3.5,2.4,5.1,3.9c2.4,2.2,4.2,1.9,6.7-0.1
		c12.4-10.2,25.6-19.2,39.9-26.5c4-2,5.8-4.4,5.1-8.8C196.4,118.7,196.5,117.5,196.4,115.5z M158.2,154.8c-2.7,1.3-4.6,2.8-6.6,5.2
		c5.7,3.7,11,8,16.9,10.8c7.1,3.4,14.9,5.3,22.7,6.6c5.3,0.9,5.3,1,5.3-4.2c0-10.7,0.1-21.4,0-32.1c-0.1-3.5,1.6-9.1-0.9-10
		c-3.1-1.1-6.9,2.7-10.1,5c-0.1,0.1-0.1,0.3-0.3,0.7c8,6.1,11,14,7.1,23.8c-2.6,6.6-9.3,10.8-16.4,10.5
		C165.8,170.7,160.7,164.5,158.2,154.8z M150.5,179.3c13.1,10.4,27.6,17.6,43.6,21.5c0.8,0.2,1.6,0.2,2.2-0.6
		c1.9-2.6-0.2-8.8-3.3-9.5c-11.2-2.8-22.4-6-32.2-12.4C156.8,175.7,154,176.1,150.5,179.3z M140.9,182.6c10.9,9.5,22.4,17,35.4,22.1
		c5.5,2.2,11.3,3.7,17.1,4.8c1.2,0.2,2.8,0.9,3.1-1.2c0.2-1.5,0.3-3.1-1.7-3.6c-1-0.3-1.9-0.5-2.9-0.8c-15.7-4-29.9-11.1-42.6-21.1
		C146.6,180.6,144.2,180.1,140.9,182.6z M117.4,287.8c-5.2,0.1-9.4,4-9.4,8.9c0,5,4.6,9,10,8.8c5.2-0.2,9.3-4.3,9.1-9.1
		C126.9,291.5,122.6,287.7,117.4,287.8z M172.7,245.3c0-5.2-3.8-9.5-8.7-9.5c-4.9-0.1-8.8,4-9,9.2c-0.1,5.4,3.9,9.9,8.9,9.8
		C168.8,254.8,172.7,250.5,172.7,245.3z M193,263.2c-0.1-5.1-4.1-9.2-9.1-9.2c-5.2,0-9.3,4.4-9.1,9.7c0.2,5,4.4,9.1,9.3,8.9
		C189.1,272.6,193.1,268.3,193,263.2z M138.5,84.5c-0.1-4-4.5-8-8.8-8.2c-4.8-0.2-9.1,3.4-10.1,8.4c-0.5,2.3,0,3.7,2.7,4.1
		c3.6,0.6,6.3,2.5,8.2,5.7c1.4,2.3,4.5,2.3,5.5-0.2C137.1,91,137.7,87.6,138.5,84.5z M139.9,234.9c-1.7,0.1-3.3,0.4-4.7,1.2
		c-5.5,3.2-5.7,7.6-0.5,11c1.9,1.3,3.9,2.5,5.8,3.8c4.8,3.2,7.6,2.1,9.1-3.6C151.2,240.8,146.5,234.7,139.9,234.9z M13.8,263.9
		c0,7.5,0,14.1,0,20.6c0,2.2,0.8,3.1,3,2.3c3.7-1.3,7.1-0.5,10.5,1.1c1.3,0.6,2.5,1.8,3.6-0.4c1-2-0.1-2.6-1.4-3.5
		c-3.6-2.4-6.8-5.6-6.7-9.8C22.9,267.9,18.8,266.4,13.8,263.9z M107.7,59.9c-4.3-0.1-7.9,3.6-8.2,8.3c-0.2,5,3.5,9.2,8.2,9.2
		c4.3,0,7.8-3.7,7.9-8.5C115.8,64.1,112.2,60,107.7,59.9z M149.4,134.8c3.6-0.5,7.3-2.7,10.3-5.4c1.8-1.7-1.9-3.6-2.1-5.9
		c-0.1-1-0.4-1.9-0.5-2.9c-0.2-1.2-0.9-1.7-2.1-1.6c-4.5,0.4-8.9,1.2-11.8,5.2c-1.3,1.9-2.6,3.9-1.2,6.4
		C143.4,133.2,145.6,134.8,149.4,134.8z M36.4,204c-0.1-4.8-3.7-8.5-7.9-8.3c-4,0.2-7.2,3.9-7.2,8.5c0,4.7,3.5,8.7,7.6,8.6
		C33.1,212.7,36.5,208.7,36.4,204z M176.2,167.5c-3.9-8-3.4-15.8-2.4-23.8c-2.9,0.8-4.8,2.7-7,4.2c-5.6,3.9-6.3,7.3-2.5,13.1
		C166.8,164.8,170.3,167.3,176.2,167.5z M120.8,92.3c-3.9,0-7,2.3-8,6c-1.1,3.7,0.6,7.9,3.9,9.8c3.6,2.1,5.9,1.3,7.6-2.6
		c0.5-1.2,1.1-2.4,1.9-3.5c1.5-1.9,2.9-3.6,1.2-6.1C125.7,93.7,123.7,92.3,120.8,92.3z M170.1,111.4c-7.4,0-11.6,6.8-8.6,12.5
		c1.2,2.3,2.8,3.6,5.5,2c2.5-1.5,5.2-2.7,7.8-4.1c3.7-1.9,4-3.5,1.6-6.8C174.7,112.6,172.2,111.5,170.1,111.4z M160.7,173.4
		c0.4,0.6,0.6,1.2,0.9,1.4c10,6.3,21.1,9.8,32.4,12.6c1.7,0.4,2.4,0,2.5-1.8c0.2-2.6-0.6-3.8-3.4-4.2c-9.6-1.4-18.9-4.3-27.9-7.8
		C164,173,162.6,172.2,160.7,173.4z M134.8,144c5-6.7,2.2-17.5-5.1-20.4c-1.2-0.5-2.6-1.1-3.8-0.4c-1.4,0.9-0.6,2.4-0.3,3.6
		C127.4,133.2,130.4,138.9,134.8,144z M97.4,85.4c1.4-0.1,2.8-0.4,4.2-1.2c3-1.8,3.1-3.1,0.2-5.1c-2.4-1.7-4.1-3.8-4.9-6.6
		c-0.9-3.1-2.6-2.5-4.3-0.9c-2.6,2.3-3.5,5.2-2.3,8.5C91.3,83.4,93.8,85.1,97.4,85.4z M183.3,153.6c-2.2,1.2-6.6-1.4-6.4,3.6
		c0.1,3.5,0.3,7.7,4,9.4c2.5,1.1,9.6-6.7,9-9.9C189.2,153.2,185.8,154.3,183.3,153.6z M25.6,231.9c-4.7-13.1-8.8-25.9-11.2-39.1
		c-1.3,10.4,1.3,20,3.9,29.8C19.4,226.4,21.1,229.8,25.6,231.9z M25.7,271.1c0.3,1.5-0.1,3.6,1.5,4.3c1.5,0.8,2.4-1.3,3.6-2
		c1.8-1.1,3.5-2.6,5.4-3.5c2.6-1.2,2.7-3,1.5-5.2c-1.1-1.9-2-4.6-4.5-4.8c-2.4-0.1-3.9,2.1-5.3,4C26.3,266.1,25.8,268.5,25.7,271.1z
		 M48.6,270.5c-6.3-0.3-11.3,2.2-15.8,6c-1.1,0.9-3.5,1.7-2.2,3.6c1.2,1.8,3.3,2.8,5.6,1.6c2.7-1.4,5.4-2.4,8.4-2.7
		c1.1-0.1,1.7-0.7,2-1.8C47.1,275,47.8,272.9,48.6,270.5z M80.3,311.3c2.1,0,4.2,0,6.4,0c1,0,2.3,0.2,2.5-0.9c0.2-0.8-0.5-1.9-1-2.6
		c-3.2-4.4-11.3-4.9-15.3-0.9c-0.9,0.9-2.1,2-1.8,3.3c0.4,1.7,2.2,1,3.3,1.1C76.4,311.4,78.4,311.3,80.3,311.3z M187.8,150.6
		c2.4,0.8,2.5-0.6,2-2.3c-0.6-2.2-1.8-4.3-3.5-5.8c-1.8-1.6-3.5-3.8-6.3-3c-2.7,0.7-1.9,3.5-2.5,5.4c-0.3,0.9-0.4,1.9-0.5,2.9
		c-0.3,2,0,3.2,2.5,2.7C182.2,150,185,150,187.8,150.6z M29.1,297.8c-0.5-5.7-3.7-8.5-8.8-8.1c-3.6,0.3-2.9,3-2.9,5.1
		c0,3.1,5.4,6.4,9.7,6.4C30.1,301.2,29.5,299.5,29.1,297.8z M24.6,242.5c0-3.4-1-6.5-3.3-9.1c-1.8-2.1-3-1.6-4.4,0.7
		c-2.3,3.8,0,7,1.2,10.3c0.7,2,1.8,4.9,4,4.5c2.5-0.4,2.1-3.6,2.5-5.9C24.6,242.8,24.6,242.7,24.6,242.5z M66.7,309.7
		c1.6-2.6,2.8-5,5.1-6.5c2.5-1.7,0.9-2.5-0.7-3.4c-4.5-2.4-8.7-1.2-12.9,4C61.3,305.3,64.5,306.5,66.7,309.7z M100.7,185.5
		c0-0.4,0.1-0.8,0.1-1.2c-2.5-0.7-5-1.4-7.4-2.1c-6.2-1.9-7.5-1.4-11.1,4.3C88.7,189.5,94.7,186.8,100.7,185.5z M95.3,105
		c3.9-6.1,0.9-13.8-5.4-14.4c-1-0.1-2.1-0.3-2.8,0.5c-0.7,0.9-0.1,1.8,0.4,2.7C89.8,97.7,92.2,101.6,95.3,105z M40.1,92.6
		c-0.3-2.8-0.6-4.9-0.8-7c-0.1-1.4-0.7-2.1-2.1-2c-4.3,0.1-8.3,0.8-11.8,4.8C30.8,88.8,35.3,89.9,40.1,92.6z M44.1,310.8
		c6.1,0,12,0,18.6,0C56.2,305.8,48.7,305.9,44.1,310.8z M38.6,258.7c4,9.1,4,9.1,11.3,7.4C47.7,261,45.3,259.4,38.6,258.7z
		 M151.5,115.2c6.6,2.4,8.2-4,12.4-6.5C157.8,106.7,153.7,109,151.5,115.2z M28.8,240.8c-2,5.4,0.1,9.5,1.7,13.6
		c0.5,1.4,1.3,2.1,3,1.4c1.9-0.8,1.1-2,0.6-3.2C32.4,248.8,30.8,245.1,28.8,240.8z M121.2,124.1c-6.2,3.9-6.4,5.4-1.8,9.1
		c0.8,0.7,1.6,1.9,2.9,0.8c1-0.8,1.3-1.8,0.9-3.1C122.6,128.9,121.9,126.7,121.2,124.1z M157.3,233.8c-3.2-2.8-6.4-3.3-10.2-1.2
		c1.9,2.2,3.7,4.2,5.6,6.4C154.1,237.3,155.5,235.7,157.3,233.8z M26,251.9c-2.4,1.9-4.1,3-5.4,5c2.5,0.7,4.5,3.8,6.7,1.9
		C29.4,257,26.2,254.9,26,251.9z M14.8,257.9c1.3,3.2,4.1,4.6,6.6,6.2c0.6,0.4,1.6,0.9,2.1-0.1c0.6-1.2-0.1-1.8-1.1-2.2
		C19.9,260.5,17.4,259.2,14.8,257.9z M19.4,302.8c3,6,5.2,6.5,8.7,2.2C25.1,304.8,22.4,304,19.4,302.8z M14.6,246.4
		c-0.6,7.9-0.3,8.2,4.6,6C17.9,250.6,16.5,248.8,14.6,246.4z"/>
	<path d="M200.8,161.4c0.1-9.1,0-18.3,0.1-27.6c0.2-36.3,0.1-72.7,0-109c0-9.1-6.8-15.3-16-15.3c-52.8,0-105.7,0-158.5,0
		c-9.4,0-15.6,6.2-15.6,15.8c0,38.4,0.2,76.7,0.1,115.1c0,29.5-0.4,58.9-0.5,88.4c-0.1,23.5-0.1,47-0.1,70.4c0,8,6.5,15.3,13.7,15.3
		c54.3,0.1,108.6,0,162.9,0c2.2,0,4-0.5,5.9-1.8c5.1-3.5,8.1-7.9,8-14.4C200.7,252.7,200.8,207.1,200.8,161.4z M186.5,310.2
		c-3,0-3.7,0-3.7,0s-103.1,0-154.7,0c-8.3,0-13.1-4.5-13-14.9c0-22.8,0-45.6,0.1-68.4c0.1-28.6,0.5-57.2,0.5-85.9
		c0.1-37.3-0.2-75.1-0.1-112.3c0-7.9,2.5-14.8,12.6-14.8c50.2,0,105.1,0.2,155.3,0.2c8.7,0,13,5.3,12.6,14.1c0,35.2,0,106.5,0,106.5
		v27c0,0,0,91.6,0.1,135.9C196,304.4,191.2,309.6,186.5,310.2z"/>
	<g>
		<g>
			<path class="st1" d="M22,306.2v-14l23.7-31.4c1.1-1.4,1.9-2.7,2.4-4.1c0.5-1.3,0.8-2.5,0.8-3.5c0-1.9-0.6-2.5-0.9-3
				c-0.8-0.6-2-1.1-3.8-1.1c-1.6,0-2.8,0.5-3.6,1.3c-0.9,0.9-1.6,2.4-1.7,4.2v3h-3.1H21.2v-3.3v-0.2c0.5-4.4,1.7-8.3,3.6-11.6
				c2-3.3,4.7-6,8-7.7c3.3-1.7,7.1-2.7,11.3-2.7c4.6,0,8.5,0.8,11.8,2.4c3.5,1.6,6.1,4.1,8,7.2c1.7,3.1,2.7,6.8,2.7,11
				c0,3.1-0.6,6.3-1.7,9.4c-1.1,3-2.7,6-4.7,8.6l-14.1,18.5H67v16.8L22,306.2L22,306.2z"/>
			<path d="M44.2,235.4c4.1,0,7.5,0.6,10.5,2c2.8,1.4,5,3.3,6.6,6c1.6,2.7,2.4,5.8,2.4,9.4l0,0c0,2.7-0.5,5.5-1.6,8.2
				c-1.1,2.8-2.5,5.3-4.2,7.9l-17.9,23.6h24.2V303h-39v-9.7l23.3-30.6c1.3-1.6,2.2-3.1,2.8-4.9c0.6-1.7,0.9-3.3,0.9-4.7v-0.2
				c0-2.2-0.6-3.9-2-5.2c-1.4-1.3-3.3-1.9-5.8-1.9c-2.4,0-4.4,0.8-5.8,2.2c-1.4,1.4-2.4,3.6-2.7,6.3l0,0H24.5l0,0
				c0.5-4.1,1.6-7.4,3.3-10.4c1.7-2.8,3.9-5,6.8-6.6C37.3,236.1,40.6,235.4,44.2,235.4 M44.2,229.2c-4.7,0-9,0.9-12.7,3
				s-6.9,5-9.3,8.8c-2.2,3.6-3.6,8-4.1,12.9v0.3v0.3v6.3h6.3h11.3h6.1l-21.7,28.6l-1.3,1.7v2v9.7v6.3h6.3h38.7h6.3v-6.3v-10.4v-6.3
				h-6.3H52.5l10.2-13.5c2.2-3,3.9-6.1,5.2-9.4c1.3-3.5,1.9-6.9,1.9-10.4c0-4.9-1.1-9.1-3.1-12.6c-2.2-3.8-5.3-6.6-9.3-8.5
				C53.6,229.9,49.2,229.2,44.2,229.2L44.2,229.2z M42,254.9c0.2-1.1,0.5-1.9,0.8-2.4c0.2-0.2,0.3-0.3,1.4-0.3
				c0.9,0,1.4,0.2,1.6,0.2c0,0.2,0,0.3,0,0.6v0.2c0,0.6-0.2,1.4-0.6,2.4c-0.5,1.1-1.1,2.2-1.9,3.3l-1.4,1.9v-5.8H42z"/>
		</g>
	</g>
</g>
</svg>
