<?xml version="1.0" encoding="utf-8"?>
<!-- Generator: Adobe Illustrator 22.0.1, SVG Export Plug-In . SVG Version: 6.00 Build 0)  -->
<svg version="1.1" id="레이어_2_1_" xmlns="http://www.w3.org/2000/svg" xmlns:xlink="http://www.w3.org/1999/xlink" x="0px"
	 y="0px" viewBox="0 0 210 324" style="enable-background:new 0 0 210 324;" xml:space="preserve">
<style type="text/css">
	.st0{fill:#FFFFFF;}
	.st1{fill:#FFC40A;}
	.st2{fill:#EB1A21;}
	.st3{fill:url(#SVGID_1_);}
</style>
<g>
	<g>
		<path class="st0" d="M83,3c42,0,83.9,0,126,0c0,106.3,0,212.7,0,319c-35.8,0-71.5,0-107.3,0c0.3-1.9,1.8-3.1,2.9-4.5
			c4.4-5.7,8.8-11.4,12.7-17.6c1.5-2.4,3-4.9,4.6-7.6c5.6,5.4,11.6,7.6,18.8,4.8c7.1-2.7,9.7-8.8,10.9-15.8c1.2,0.7,0.8,1.2,0.7,1.7
			c-0.1,0.6-0.3,1.3-0.4,1.9c-1,6.6,1.3,12,6.7,15.8c7.1,5,14.8,5.3,22.3,1.2c11.4-6.2,12.1-20.8,1.2-27.8c-4-2.6-7-5.8-9.7-9.5
			c-4.3-6-8.5-12.1-12.4-18.4c-2.9-4.6-2.6-5.7,2.4-8.2c5.8-2.9,12.2-3.8,18.6-4c6.8-0.2,9.9-2.8,10.4-9.5c0.3-4.3,0.8-8.5,1.4-12.7
			c0.4-2.3-0.1-4.6-0.3-6.9c-0.2-2.9-1.7-4.4-4.4-5.1c-4.6-1.1-9.1-2.6-13.4-4.8c-4.7-2.4-9.1-5.2-12.3-9.8c2.5-1.6,5.4-1.9,7.6-3.6
			c2.2-1.8,3.9-3.9,5.2-6.5c0.7-1.5,2.3-1,3.5-1.2c4.7-0.7,8.9-2.4,12-6.1c8.4-10.1,6.2-33-11.8-33.8c-3-0.1-3.3-1.5-2.8-4.2
			c0.9-4.1,0.2-8.2-1.6-12c-2.7-5.5-6.5-10.4-12.9-11c-9.8-0.9-18.2,2.2-23.4,11.2c-1.4,2.5-2.5,2.7-4.8,1.4
			c-6.1-3.5-12.4-4.1-18.7-0.6c-0.8,0.4-1.5,1.3-3.4,0.3c1-8.6,5.9-16.1,8.3-24.7c9.5,10.6,17.6,12.9,26.8,8
			c8.4-4.5,12.8-14.5,10.4-23.9c-2.6-9.9-9.9-14.2-24.2-13.9c1.6-5.2,3.2-10.4,4.8-15.5c2.4-7.5,4.8-15,7.2-22.5
			c0.6-1.8,1.6-3.9-1.2-4.9c-4.7-1.8-8.9,0.5-10.4,5.5c-2.4,8.3-4.7,16.7-8,24.8c-0.3-0.3-0.5-0.3-0.5-0.5c-2-11.7-8.7-18-20.7-18.1
			c-1.4,0-2.4-0.6-3.3-1.8c-4.9-7-11.9-8.6-19.9-8c-2,0.2-4.1,1-6.5,0C77.1,16.8,80,9.9,83,3z"/>
		<path class="st0" d="M70.2,3c-1.3,6.2-4.5,11.6-6.9,17.3c-1.2,2.9-2.7,5.6-3.7,8.6c-1.6,4.8-3.9,8.1-9.7,9.2
			c-6,1.1-9.5,6.1-11.1,12c-0.9,3.5-1.7,7.2-0.9,10.7c0.7,3.4-0.2,5.9-2.3,8.5c-2.5,3.1-4.2,6.6-6.3,10c-4.8,7.7-4.6,15.6-0.4,23.3
			c1.7,3.2,1.2,4.4-1.7,6.5c-10.8,8-11.1,25.2-0.9,34c6.7,5.7,16.4,5.5,22.8-0.7c1.3-1.2,2.4-2.6,4-4.3c1.7,8,3.2,15.4,4.8,22.8
			c-2.1,1-3.9,0-5.7,0.2c-10,1-17.1,8.9-16.5,19c0.2,2.6-0.3,4.2-2.4,5.8c-5.9,4.6-8.3,10.9-7.2,18.3c0.3,2.1,0.3,3.7-1.5,5.2
			c-2.3,2-3.2,4.9-4.4,8c-5-5.3-10.6-9.1-18.1-8.5c0-68.6,0-137.2,0-205.8C25,3,47.6,3,70.2,3z M7.7,35.3
			c-0.1,9.6,6.8,17.2,15.7,17.3c8.8,0.1,16.1-7.5,16.2-17c0.1-9.4-7.1-17.3-15.8-17.5C15.1,18,7.8,25.8,7.7,35.3z"/>
		<path class="st0" d="M2.2,220.6c4.6-0.5,7.3,2.3,9.4,5.8c3.6,5.8,4.9,12.4,6.3,19c1.5,6.9,1.2,14,2.7,20.9
			c2.7,11.7,7,22.5,17.4,29.7c1.1,0.7,1.6,1.6,1.4,2.9c-1.3,9,3.2,14.6,11.2,18.1c-1.2,2.5-4.2,2.8-5.2,5.1
			c-13.5,0-26.9-0.1-40.4,0.1c-2.5,0-3-0.6-3-3C2.3,286.2,2.2,253.4,2.2,220.6z"/>
		<path class="st0" d="M95.3,255.7c4.1,5,4.1,5,1.6,9.8c-6.2,11.7-13.9,22.2-23.1,31.7c-0.6-0.4-1.1-0.6-1.3-1
			c-5.3-8.9-11.8-11.7-21.9-9.2c-2.2,0.6-3.7,0.2-5.4-1.1c-7.9-6.4-12.8-14.6-14.2-24.5c-1-6.9-0.9-14-1.4-21.6
			c3.1,0.5,5.6,1.8,8.4,1.5c1.5-0.1,1.8,1.1,2.3,2.1c5.4,10.6,20.3,9.5,24.6,0c0.6-1.3,1.1-2.4,2.8-1.3c3.6,2.4,7.6,2.8,12.9,1.9
			c-5.1,3.1-8.6,6.2-7.3,11.8c0.9,3.9,4.5,6.8,9,7.3C88.3,263.8,92.7,261.5,95.3,255.7z M73.5,266.2c-0.1-7-5.8-12.8-12.4-12.7
			c-6.7,0.1-12.1,6-12,13c0.1,7.1,5.6,12.6,12.4,12.5C68.3,279,73.6,273.2,73.5,266.2z"/>
		<g>
			<path d="M108,270.3c-1.6-1.9-3.3-3.8-5-5.7l-0.5-0.5l-0.7,0.3c-1.2,0.6-1.7,1.5-2.1,2.2l-0.1,0.2c-6.6,12.3-14.9,23.6-24.7,33.7
				c-1.4,1.4-2.3,3-2.9,5c-1.6,5.6-5.4,9.1-11.2,10.5c-3.8,0.9-6.8,2.7-9.1,5.4l-1.4,1.7h46l0.3-0.4c0.6-0.7,1.2-1.4,1.7-2.1
				c1.3-1.5,2.6-3.1,3.8-4.8c5.7-7.4,12.2-15.7,16.8-25c1.5-3.1,2-7.2-0.5-9.4C114.6,277.9,111.2,274.1,108,270.3z"/>
			<path d="M42.9,287.8l-0.1-0.1c-10.4-8.5-15.5-20.4-15.6-36.3c-0.1-7.5-0.6-15.5-4.3-23.3c-3.9-8.1-9-16.7-20.6-16.4h-1v6.1
				l1.2-0.2c3.7-0.6,6.7,0.8,9.8,4.4c2.6,3,4.1,6.5,5.2,9.6c2.9,7.9,4.6,16.8,5.4,27.1c0.6,8.5,3,16.4,7.2,24.2
				c2.1,3.9,5,7.2,8.7,9.8c0.5,0.4,1.5,1.1,2.6,1.1c0.8,0,1.7-0.4,2.5-1.5C45.6,290,43.8,288.6,42.9,287.8z"/>
			<path d="M79,3.2L79.3,2h-4.9L62.6,30l2.3-1C70,26.7,76.8,13,79,3.2z"/>
			<path d="M183.8,202.1c-8.3-2.5-18.6-6.7-25.2-16.5c-0.8-1.1-1.7-1.8-2.9-2.1c-4.2-1.1-7.4-3.8-10.1-8.4L145,174l-0.9,0.9
				c-3.6,3.4-6.9,5-10.6,5.3c-2.6,0.2-4,0.3-4.7,1.4c-0.7,1.1-0.2,2.4,0.8,5.1c6.3,16.7,13.2,31.6,20.9,45.6c0.3,0.5,0.5,1,0.8,1.5
				c0.9,1.7,1.8,3.5,3.4,5l0.7,0.6l0.7-0.6c5-4.4,11.2-5.9,16.1-6.7c3.2-0.5,6.4-0.9,9.6-1c4.2-0.1,6.6-2.5,6.5-6.5
				c0-3,0.4-5.9,0.9-8.8c0.2-1.5,0.5-3.1,0.6-4.7C190.5,205.5,189.4,203.9,183.8,202.1z"/>
			<path d="M46.8,86.2v-0.4c-0.3-2.8-0.4-4.2,2.1-5l1.5-0.5l-1.1-1.2c-0.5-0.6-1-1.1-1.4-1.6c-1-1.1-1.9-2.1-2.8-3
				c-0.5-0.5-0.9-1.2-1.4-1.9c-0.7-1.1-1.5-2.4-3-3.5L40,68.6l-0.6,0.8c-4.3,5.5-7.3,10.7-9.5,16.2c-2.7,7,0.1,12.9,3.5,18.9
				c0.7,1.2,1.7,1.9,2.9,1.8c3.4-0.1,6.4,1.1,9.8,2.6c0.7,0.3,1.4,0.6,2.1,0.9l1.6,0.6l-1-8.4C48.1,96.6,47.5,91.4,46.8,86.2z"/>
			<path d="M136.2,43.1c1.4-4.4,2.8-8.7,4.2-13.1c0.1-0.2,0.1-0.4,0.2-0.6c0.3-0.8,0.7-1.8,0.3-2.8c-0.2-0.6-0.7-1-1.4-1.2
				c-0.7-0.3-1.4-0.3-2,0c-1,0.5-1.3,1.7-1.5,2.6c0,0.1-0.1,0.3-0.1,0.4c-4.2,14.8-9.1,29.2-15,44.1l-2,5l3.6-3.9
				c0.6-0.7,1.3-1.3,2-1.9c1.8-1.5,3.6-3.1,4.4-5.8C131.4,58.3,133.8,50.6,136.2,43.1z"/>
			<path d="M110,111.1l0.9-2.4c2.1-5.5,3.8-9.7,5-12.7c3.7-9.3,4.1-10.2,2.6-14.7l-0.8-2.2l-1.1,2.1c-0.7,1.4-1.4,2.7-2,4.1
				c-1.5,3-2.9,5.9-4.6,8.6c-3,4.6-3.3,9.2-1,14.9L110,111.1z"/>
		</g>
		<g>
			<path class="st1" d="M81.7,56.6c-3.3-0.1-6,1.2-8,3.8c-0.5,0.7-1.1,1.6-0.9,2.5c0.1,0.8,0.7,1.4,1.7,2.1l0.8,0.6
				c2,1.4,4.1,2.9,6.4,2.9c1.5,0,3.1-0.7,4.9-2.4c0.3-0.3,1.1-0.5,1.7-0.6l0.3-0.1c1.4-0.3,2.3-0.8,2.6-1.6c0.5-1.2-0.3-2.5-1-3.4
				C88.2,57.7,85.4,56.4,81.7,56.6z"/>
			<path class="st1" d="M63,219.2c-2.5,0.4-4.6,1.6-5.9,3.5c-0.6,0.8-1.2,1.9-0.9,2.8c0.2,0.7,0.9,1.3,2,1.7c1,0.4,2,1.1,2.8,1.7
				c0.5,0.4,1.2,0.8,1.9,0.8c0.1,0,0.2,0,0.4,0c0.5-0.1,1-0.5,1.3-1.2c1.5-3,4.3-4.5,7.2-5.9l0.7-0.4l-0.6-0.5
				C69.2,219.6,66,218.7,63,219.2z"/>
			<path class="st1" d="M157,155.8c-3.7-4.7-8.5-4.1-11.8-3.2c-1.9,0.5-2.8,1.1-3.1,2c-0.3,1,0.1,2.1,1.4,3.7
				c0.3,0.4,0.5,0.8,0.8,1.2c0.6,0.9,1.2,2,2.4,2.7l0.3,0.2l0.3-0.3c2.2-2.4,5-4,9.4-5.7l0.6-0.2L157,155.8z"/>
		</g>
		<path class="st0" d="M112.9,81.8c-2,3.9-3.5,6.9-5.2,10.2C105,84.7,105,84.7,112.9,81.8z"/>
		<g>
			<path class="st2" d="M126.4,278.6c1.8-0.3,3.7-0.3,5.7-0.2c1,0,2,0,3,0c9.5-0.2,19.1-0.4,28.7-0.6l12.3-0.3v-1c0-2-0.9-3-1.5-3.8
				c-0.1-0.1-0.2-0.3-0.3-0.4c-30.8-40.3-52-88.9-64.8-148.5c-2.2-10.4-4.7-22.8-6.1-35.2c-0.3-2.6-1.1-5-5.1-5l0,0
				c-14.7,0.1-29.6-0.1-44.8-0.3c-1.2,0-2.7,0.1-3.6,1.1c-0.9,1-0.8,2.6-0.6,3.8c0.6,4.2,1.1,8.4,1.6,12.5c0.5,4.4,1.1,8.9,1.7,13.3
				c5.2,35.8,12.2,64.7,21.7,90.9c10,27.5,22.4,49.5,37.9,67.3c3,3.4,6.5,6.5,11.9,6.5C124.7,278.8,125.6,278.8,126.4,278.6z"/>
			<path class="st2" d="M190.3,144.6c-3.1-6.7-9.4-7.3-15-7.4c-0.2,0-0.5,0-0.7,0h-0.3c-1,0-1.7-0.1-2-0.5s-0.2-1.3-0.1-1.9
				c0.4-1.9,0.9-3.9,1.1-5.9c0.9-8.5-4.7-17.5-11.8-18.8c-7.5-1.4-16.8,3-20.8,9.9c-0.4,0.8-0.7,1.6-0.9,2.5c-0.5,1.8-0.8,2.8-2.1,3
				c-1.2,0.2-2.3-0.6-3.4-1.6c-0.7-0.6-1.4-1.2-2.3-1.6c-6.5-3.2-11.8-3.2-16.8,0.2c-1.5,1-3.1,2.5-2.6,5.1
				c2.2,10.8,4.4,19.6,7,27.6l0.3,1l1.2-0.4c8.2-3,8.2-3,16.9-1c1.6,0.4,2.6-0.3,3.5-0.8l0.3-0.2c6.3-3.9,10.1-3.6,15.6,1.2
				c3.4,3,7.1,3.5,11,1.6c0.2-0.1,0.3-0.2,0.5-0.3c0.1,0,0.1-0.1,0.2-0.1c-0.5,0.7-0.7,1.4-0.6,2.2c0.1,1.1,0.8,2,2.1,2.9
				c1.6,1,2.8,2.8,3.7,5.5c1.2,3.3,1.9,4.5,3.7,4.5c0.9,0,2-0.3,3.6-0.8c3.3-1,5.7-2.7,7.2-5.1C193.1,158.7,193.5,151.8,190.3,144.6
				z"/>
			<path class="st2" d="M56.7,80.2l1.2,0.4l0.2-1.3c1.2-9.7,1.7-10.6,9-14.8l0.8-0.4l-0.4-0.8c-0.5-1-1.3-1.5-2.1-2
				c-0.4-0.2-0.8-0.5-1.1-0.7c0.7,0.2,1.3,0.6,2,1c0.3,0.2,0.6,0.4,0.9,0.5c0.1,0.1,0.3,0.4,0.5,0.6c0.4,0.6,1,1.4,1.9,1.4
				c1,0,1.6-0.8,2.1-1.4c1.9-2.6-0.2-4.3-1.5-5.3c-0.3-0.3-0.7-0.5-1.1-0.8c-0.9-0.6-1.7-1.1-2.1-2c0.6,0.2,1.1,0.7,1.6,1.2
				c2.7,2.8,5.1,3.1,8.7,1c2.5-1.5,5.2-1.8,7.9-1c2.9,0.9,5.3,3,6.8,6c0.1,0.2,0.2,0.4,0.3,0.6c0.7,1.4,1.4,2.9,3.4,3.8
				c6.8,3.1,8.3,5.8,7.8,14.2l-0.1,1.3l1.3-0.3c5.5-1.2,8.6-4.7,10.7-7.6c2.6-3.6,4.5-7.7,5.6-12.4c1.8-7.3,0.9-13.5-2.6-17.9
				c-3.4-4.4-9.1-6.7-16.4-6.7c-1.7,0-2.5-0.5-3.3-2c-2.5-4.9-7-7.5-13.3-7.9c-5-0.3-9.8,0.3-14.4,1.8c-4.9,1.6-8.4,4.3-10.4,8.2
				c-1,1.9-2.1,2.5-4.5,2.7c-6.7,0.4-11.3,3.5-13.5,9.2c-2.3,5.7-2.1,12.4,0.5,18.4C45.7,73.2,50.6,78,56.7,80.2z"/>
			<path class="st2" d="M48.1,227.1l0.9-0.5l-0.5-0.9c-0.4-0.8-1.2-1.1-1.8-1.3c-0.3-0.1-0.4-0.2-0.5-0.2c1-0.3,2.1,0,2.7,0.6
				c1.4,1.2,2.5,1.7,3.6,1.6c1.5-0.2,2.5-1.5,3.5-3.1c1.8-2.7,4.2-4.5,7-5c3-0.6,6.2,0.2,9.1,2.2c0.3,0.2,0.5,0.4,0.8,0.6
				c0.5,0.4,1.1,0.9,1.7,1.2c0.7,0.3,1.8,0.4,2.6-0.1c0.5-0.4,0.7-1,0.6-1.8c-0.5-2.7-1.7-5.1-2.8-6.9l-0.3-0.6L74,213
				c-1.1,0.2-1.7,1-2.1,1.6c-0.2,0.3-0.3,0.4-0.4,0.6c0.2-0.8,0.6-1.6,1.2-2.4c0.7-1,1.4-2.2,0.7-4c-1.5-4.1-2.9-8.2-4.5-12.6
				l-2.2-6.2l-1.1,0.9c-1.7,1.4-2.9,2.3-3.4,2.3s-1.4-1.1-2.5-2.5c-3.3-4-7.1-6-11.5-6.3c-6-0.4-11.2,1.6-14.8,5.6
				c-3.5,4-4.9,9.4-3.9,15.2c0.4,2.3,0.5,3.9-1.2,5.2c-3.1,2.2-4.7,6-4.7,10.6c0,6,2.9,12.3,7,15.3c2.1,1.5,4,2.2,6,2.3
				c0.1,0,0.3,0,0.5,0c1.2,0,3-0.2,3.5-2.6C41.4,232.1,43.7,229.4,48.1,227.1z"/>
			<path class="st2" d="M160,182.1c3.7,0,7.1-1.4,9.5-3.8c2.1-2.1,3.3-4.9,3.3-7.8c-0.1-6.4-5.3-11.1-12.6-11.2c-0.1,0-0.1,0-0.2,0
				c-7.2,0-12.9,4.9-13,11.2c0,2.7,1.1,5.4,3.2,7.6C152.8,180.6,156.3,182.1,160,182.1L160,182.1z"/>
			<path class="st2" d="M124.8,173c0.9,3.5,3,5.3,6.3,5.3c0.2,0,0.5,0,0.8,0c4,0,7.4-1.5,9.7-4c2-2.2,2.9-5.1,2.6-8.3
				c-0.5-4.7-3.3-8-8-9.8c-4.9-1.8-9.3-1.3-13.1,1.5c-2.4,1.8-1.6,4.3-1.3,5.5c0.4,1.2,0.8,2.4,1.2,3.5
				C123.5,168.8,124.2,170.9,124.8,173z"/>
			<path class="st2" d="M122.3,85.3L122.3,85.3L122.3,85.3L122.3,85.3h-1l0,0c0.1,9.3,6.7,16.5,15.3,16.8c0.3,0,0.5,0,0.8,0
				c1.5,0,2.9-0.2,3.8-1.2c1.1-1.1,1-2.9,0.9-4.4c-0.7-6.9-3.5-12.5-8.3-16.5c-0.4-0.3-0.8-0.7-1.2-1.1c-2.1-1.9-4.7-4.4-7.7-2.8
				c-3.4,1.7-3.4,6.2-3.4,9.1L122.3,85.3z"/>
			<path class="st2" d="M37.2,144c0.1,0,0.1,0,0.2,0c3.3,0,6.4-1.1,9-3.2c0.8-0.6,1.8-1.6,1.9-2.9c0.1-1-0.4-2-1.4-3
				c-5.4-5.5-12.3-9-21.1-10.7c-1.3-0.2-2.2-0.1-2.9,0.5c-0.6,0.5-0.9,1.3-0.9,2.4C22.2,135.3,28.1,144,37.2,144z"/>
			<path class="st2" d="M52.7,228.5L52.7,228.5c-2.9,0-5.5,1.1-7.4,3c-1.8,1.8-2.7,4.2-2.7,6.8c0.1,5.6,4.4,9.7,10.1,9.7h0.1
				c5.7-0.1,10.4-4.6,10.4-9.8C63.2,232.9,58.4,228.6,52.7,228.5z"/>
			<path class="st2" d="M186.5,286.5c-0.1-0.6-0.1-1.3-0.3-2.1c-0.5-1.9-1.3-4.1-3-4.6c-1.8-0.5-3.6,0.9-4.9,2.2
				c-4.3,4.1-7.3,9.2-9.1,15.5c-0.2,0.8-0.5,2,0.2,2.9s1.9,1,2.8,1.1c0.1,0,0.2,0,0.3,0c3.5,0,7.1-1.5,9.8-4.2
				c2.8-2.8,4.4-6.5,4.3-10.2V287C186.6,286.8,186.5,286.6,186.5,286.5z"/>
			<path class="st2" d="M83.3,238.5c1.2-1.9,1-4.6-0.5-7.9c-0.1-0.2-0.2-0.5-0.3-0.7c-0.2-0.5-0.5-1-0.7-1.4
				c-1.1-2.9-3.4-4.2-6.9-3.9c-5.2,0.5-9,4.1-8.9,8.7c0.1,4.8,4.2,8.2,9.8,8.2l0,0l0,0C79.6,241.5,82.1,240.5,83.3,238.5z"/>
			<path class="st2" d="M136.2,79.5c1.1,1.1,2.4,1.6,3.8,1.5c4-0.2,8,0.6,12.6,2.4l1.5,0.6l-0.1-1.6c-0.5-6.3-3.5-10.8-9.2-13.2
				c-6-2.6-11.6-1.7-17.1,2.8l-1.1,0.9l1.2,0.7C131.3,75.7,134,77.3,136.2,79.5z"/>
			<path class="st2" d="M72.2,67c-5.1-1.1-9.6,1.4-11.2,6.2c-0.9,2.6-0.8,4.6,0.2,6s2.8,2.2,5.4,2.2c0.8,0,1.6,0,2.4,0h1.1
				c0.5,0,0.9,0,1.4,0c1,0,2,0,2.9,0c0.2,0,0.3,0,0.5,0c1.2,0,2.2-0.3,2.9-1c1.2-1,1.3-2.7,1.4-3.9C79.3,71.7,76.6,67.9,72.2,67z"/>
			<path class="st2" d="M91.9,67.7c-3.6-0.1-6.8,1.3-8.6,3.9c-1.7,2.3-2,5.1-0.8,8c0.9,2.3,3,2.2,4.4,2.1c0.4,0,0.8,0,1.2,0
				c0.8,0.1,1.7,0.1,2.5,0l0,0h1c0.3,0,0.7,0,1,0c0.4,0,0.7,0,1.1,0c0.5,0,0.9,0,1.4,0c0.3,0,0.7,0,1.1,0c1.4,0.1,3.4,0.1,4.5-2.1
				c1.3-2.4,1.1-4.9-0.5-7.5S95.5,67.8,91.9,67.7z"/>
			<path class="st2" d="M44.9,110.7c-0.8-0.6-1.5-0.6-2-0.5c-0.7,0.1-1.4,0.6-1.9,1.4c-2.6,3.8-1.6,14.4,1.6,17.1
				c1.4,1.2,2.9,2.4,4.6,3.7c0.9,0.7,1.8,1.4,2.9,2.3l1.4,1.1l0.2-1.7c0.9-6.7,1.1-13.8-3.4-20.2C47.5,112.6,46.1,111.6,44.9,110.7z
				"/>
			<path class="st2" d="M49.1,305.4c4.7-2.5,8.6-6.3,11.9-11.5c0.5-0.8,1.1-1.8,0.7-2.8c-0.3-0.7-0.9-1.2-2-1.6
				c-3.9-1.2-8.3-0.4-11.9,2.2c-3.4,2.4-5.4,6-5.6,9.8v0.1v0.1c0,0.3,0,0.6,0,1c0,1.2,0,3,1.8,4c0.5,0.2,0.9,0.3,1.4,0.3
				c1.1,0,2.1-0.6,2.9-1.1C48.6,305.7,48.9,305.5,49.1,305.4z"/>
			<path class="st2" d="M52.7,181.1c0.3,2.1,2,2.9,3.3,3.5c0.8,0.4,1.5,0.7,2,1.2c0.4,0.4,0.8,0.8,1.3,1.2c0.2,0.1,0.4,0.4,0.6,0.6
				c0.4,0.5,1.2,1.3,2.3,1.3c0.4,0,0.9-0.1,1.5-0.5c1.6-1.1,2.1-2.9,1.5-5.1c-1.1-3.9-2.2-7.8-3.3-11.9l-1.9-7l-1.2,1.2
				c-2.2,2.2-3.2,4.1-3.9,5.9C53.5,174.5,52.2,177.7,52.7,181.1z"/>
			<path class="st2" d="M23.5,120.5l-0.2,0.9l14.2,3.7v-1.3c0-0.9,0-1.8,0-2.6c0-3.8,0-7.5,1.8-11.1l0.7-1.5l-1.7,0.1
				C29.8,109.2,24.9,113,23.5,120.5z"/>
			<path class="st2" d="M84.2,247.3L84.2,247.3c-4.1,0-8,3.1-8,6.5c0,1.5,0.6,2.9,1.7,4c1.5,1.5,3.8,2.4,6.2,2.4h0.1
				c4.5,0,7.8-2.7,7.8-6.4c0-1.6-0.6-3.1-1.8-4.3C88.8,248.1,86.6,247.3,84.2,247.3z"/>
			<path class="st2" d="M162,279.9h-0.2c-0.8,0-1.5,0-2.3,0.1c-1.2,0.1-2.7,0.5-3.3,1.6c-0.3,0.7-0.2,1.6,0.4,2.5
				c2,3.1,5.3,5,9.7,5.8c0.4,0.1,0.7,0.1,1,0.1c2.5,0,3.6-1.8,4.4-3.2c0.2-0.4,0.4-0.7,0.7-1c0.2-0.2,0.4-0.5,0.5-0.7
				c0.8-1,1.6-2.1,2.2-4l0.3-1.3h-4.5C167.8,279.9,164.9,279.9,162,279.9z"/>
			<path class="st2" d="M142.4,83.3c-0.4,0-0.7,0.3-0.9,0.4c-0.1,0.1-0.2,0.2-0.3,0.3l-0.6,0.5l0.3,0.7c1.5,3.6,2.7,7.6,3.9,13.4
				l0.3,1.5l1.3-1c3.5-2.7,8.2-6.3,6.8-11.2C151.8,83,145.2,83.2,142.4,83.3z"/>
			<path class="st2" d="M144.4,280.4c-4.3-0.3-9.8,5.4-10.4,10.7c-0.2,1.6-0.1,2.8,0.7,3.5c0.4,0.4,0.9,0.5,1.5,0.5s1.2-0.1,2-0.3
				c4.7-1.2,8.7-5.7,9.5-10.5c0.1-0.8,0.2-1.9-0.5-2.8C146.5,280.6,145.3,280.4,144.4,280.4z"/>
			<path class="st2" d="M137.2,280.6h-1.9c-0.9,0-1.7,0-2.4,0c-1.5,0-2.7-0.1-4,0.1c-0.6,0.1-1.3,0-2-0.1c-1.7-0.2-4.1-0.5-5,1.8
				c-1.2,3,0.8,6,2.9,8.5c1.2,1.5,2.7,2.9,5.2,3.3l0.9,0.1l0.2-0.8c1-3.4,2.2-7,5-11.2L137.2,280.6z"/>
			<path class="st2" d="M57.9,303.7c-2-0.9-3.3,0.4-4.3,1.3c-0.4,0.4-0.8,0.7-1.1,0.9c-1.2,0.6-2.3,1.3-3.6,2.1
				c-0.6,0.4-1.3,0.8-2,1.2l-1.2,0.7l1.1,0.9c3.3,2.8,6.5,3.6,9.4,3.6c2,0,3.9-0.4,5.6-0.9c0.4-0.1,1.8-0.5,2.3-1.7
				c0.2-0.5,0.3-1.2-0.3-2.2C62.3,307.4,60.6,304.9,57.9,303.7z"/>
			<path class="st2" d="M65.8,293c-1.9-0.4-2.8,1.3-3.5,2.6c-0.3,0.5-0.6,1.1-0.9,1.4c-0.3,0.3-0.6,0.7-0.8,1
				c-0.1,0.2-0.3,0.4-0.4,0.6c-0.8,1-1.4,2.6,0.3,4.3c1.3,1.3,2.6,2.7,4,4.1c0.6,0.6,1.1,1.2,1.7,1.8l0.7,0.7l0.7-0.7
				c3.1-3,2.7-6.5,2.4-9.6C69.7,295.8,68.1,293.5,65.8,293z"/>
			<path class="st2" d="M165.3,291.9c-2.4-0.5-4.5-1.7-6.8-3c-0.7-0.4-1.4-0.8-2.1-1.1l-1.5-0.8v1.7c0,6,3.7,8.9,7.3,11.1
				c0.8,0.5,1.5,0.7,2.2,0.7c0.4,0,0.7-0.1,1-0.2c0.8-0.4,1.3-1.2,1.5-2.5c0-0.3,0.2-0.7,0.4-1.1c0.4-0.9,0.9-2.1,0.3-3.2
				C167.2,292.7,166.5,292.2,165.3,291.9z"/>
			<path class="st2" d="M53.9,164.5c-5.3-0.7-9.2,1.5-13.3,7.1l-1.2,1.7l2.1-0.1c1.5-0.1,2.9,0.4,4.3,0.8c1.1,0.3,2.2,0.7,3.2,0.7
				c0.5,0,1.1-0.1,1.6-0.3c1.9-0.9,2.6-3.1,3.3-5.2c0.3-0.9,0.5-1.7,0.9-2.4c0.1-0.3,0.1-0.6,0.1-0.9c0-0.1,0-0.2,0-0.4v-0.9
				L53.9,164.5z"/>
			<path class="st2" d="M46.2,175.9c-1.5-0.7-3.2-0.8-5-0.3c-1.5,0.4-2.4,1.5-2.4,3.1c0,0.1,0,0.3,0,0.4c0,0.9-0.1,2.7,1.5,3.2
				c0.6,0.2,1.2,0.2,1.8,0.2c0.4,0,0.8,0,1.3-0.1c0.4,0,0.8,0,1.1,0l1-0.2l0,0c0.1,0,0.2,0,0.3-0.1c0.2-0.1,0.7,0,1.1,0
				c0.8,0.1,1.8,0.2,2.6-0.5c0.5-0.4,0.8-1.1,0.9-2c0.2-2.4-1.9-3.1-3.2-3.4C46.8,176.1,46.4,176,46.2,175.9z"/>
			<path class="st2" d="M24.6,30.6c-0.3,0.4-0.5,0.7-0.8,1c-0.6,0.8-1,1.6-1.4,2.4l-0.1,0.3c-0.4,0.8-0.9,2.1-0.4,3.2
				c0.4,0.9,1.2,1.4,2.6,1.8c2.5,0.6,4.7,1.4,6.8,2.3c0.7,0.3,1.4,0.5,2,0.5c0.4,0,0.8-0.1,1.2-0.3c1.1-0.6,1.5-1.8,1.7-2.7
				c0.2-0.8,0.3-1.6,0.4-2.3c0.1-0.3,0.1-0.6,0.2-0.9v-0.1v-0.2c-0.1-0.4-0.1-0.8-0.1-1.3c-0.3-3.2-0.8-7.1-4.2-8.3
				C28.8,24.8,26.5,28,24.6,30.6z"/>
			<path class="st2" d="M14,38.2c0.5,0.1,1.1,0.1,1.7,0.1c1.5,0,3.1-0.4,3.8-2.4c1.5-4.3,4.2-8,8.5-11.7l1.4-1.2l-1.8-0.5
				c-4.2-1.2-8.3-0.7-11.5,1.5c-3,2.1-4.8,5.5-5.1,9.6c0,0.2,0,0.4-0.1,0.6c-0.1,0.9-0.3,2.1,0.5,3c0.4,0.5,1.1,0.8,2,0.9
				C13.5,38.2,13.7,38.2,14,38.2z"/>
			<path class="st2" d="M29.6,48c0.8-0.5,2.2-1.4,2.1-2.7s-1.5-1.9-2-2.1c-4.8-2.1-10.1-3.8-16.6-2.5L11.7,41l0.8,1.2
				c2.1,3.3,5,5.7,8.1,6.7c1.2,0.4,2.4,0.6,3.5,0.6C26,49.6,27.9,49.1,29.6,48z"/>
			<path class="st2" d="M61.4,256.9C61.3,256.9,61.3,256.9,61.4,256.9c-5.4,0-9.1,3.9-9.2,9.4c0,5.5,3.8,9.6,9,9.6c0,0,0,0,0.1,0
				c2.4,0,4.7-0.9,6.3-2.5c1.8-1.8,2.8-4.2,2.8-7c0-2.7-0.9-5.1-2.5-6.8C66.3,257.8,63.9,256.9,61.4,256.9z"/>
		</g>
		<g>
			<path d="M65.7,206.8c0.2,0.4,0.3,0.8,0.4,1.1c0.3,2.1,1.7,4,0.7,6.2c-0.1,0.2-1.1,0.3-1.3,0c-1.5-1.9-1.5-4.2-1.9-6.5
				c-0.1-0.7,0.3-1.3,1-1.4C64.9,206.2,65.3,206.7,65.7,206.8z"/>
			<path d="M55.8,209.9c0.3,0.3,0.6,0.5,0.8,0.8c1.2,1.7,3.3,2.8,3.3,5.2c0,0.2-0.9,0.7-1.1,0.6c-2.2-1-3.3-3.1-4.6-4.9
				c-0.4-0.6-0.4-1.3,0.3-1.7C54.9,209.7,55.5,209.9,55.8,209.9z"/>
			<path d="M49.8,215.7c0.4,0.2,0.7,0.4,1,0.6c1.6,1.4,3.9,2,4.5,4.2c0.1,0.2-0.7,0.9-0.9,0.9c-2.4-0.4-3.9-2.2-5.6-3.7
				c-0.5-0.5-0.7-1.2-0.1-1.7C48.8,215.8,49.4,215.8,49.8,215.7z"/>
			<path d="M136.3,144.9c0.4,0.2,0.7,0.4,1,0.6c1.6,1.4,3.9,2,4.5,4.2c0.1,0.2-0.7,0.9-0.9,0.9c-2.4-0.4-3.9-2.2-5.6-3.7
				c-0.5-0.5-0.7-1.2-0.1-1.7C135.4,144.9,136,144.9,136.3,144.9z"/>
			<path d="M146.7,139.7c0.2,0.4,0.4,0.7,0.5,1c0.5,2,2,3.8,1.2,6.1c-0.1,0.2-1.1,0.4-1.3,0.2c-1.7-1.7-1.9-4.1-2.5-6.3
				c-0.2-0.7,0.2-1.4,0.9-1.5C145.9,139.2,146.4,139.6,146.7,139.7z"/>
			<path d="M158.2,140.5c-0.1,0.5-0.2,0.8-0.3,1.1c-0.9,1.9-0.9,4.2-2.9,5.5c-0.2,0.1-1.1-0.4-1.1-0.7c-0.2-2.4,1.1-4.4,2.1-6.4
				c0.3-0.7,1-1,1.6-0.6C158,139.6,158.1,140.1,158.2,140.5z"/>
			<path d="M166.6,146.5c-0.3,0.4-0.5,0.7-0.7,0.9c-1.6,1.3-2.6,3.5-4.9,3.7c-0.2,0-0.8-0.8-0.7-1.1c0.8-2.3,2.8-3.5,4.6-5
				c0.5-0.5,1.3-0.5,1.7,0.2C166.7,145.5,166.6,146.1,166.6,146.5z"/>
			<path d="M74.7,48c0.3,0.4,0.5,0.7,0.6,1c0.7,1.9,2.5,3.5,2,5.9c0,0.2-1,0.5-1.2,0.3c-1.9-1.5-2.4-3.8-3.3-5.9
				c-0.3-0.7,0-1.4,0.7-1.6C73.8,47.5,74.3,47.8,74.7,48z"/>
			<path d="M84.6,45.8c0,0.5,0.1,0.8,0.1,1.1c-0.2,2.1,0.6,4.3-0.9,6.1c-0.1,0.2-1.1,0-1.2-0.3c-1-2.2-0.4-4.5-0.2-6.7
				c0.1-0.7,0.6-1.2,1.3-1.1C84.1,45,84.4,45.5,84.6,45.8z"/>
			<path d="M93.8,48.4c-0.1,0.5-0.2,0.8-0.3,1.1c-0.9,1.9-0.9,4.2-3,5.4c-0.2,0.1-1-0.4-1.1-0.7c-0.2-2.4,1.2-4.4,2.1-6.4
				c0.3-0.6,1-0.9,1.6-0.6C93.5,47.5,93.6,48.1,93.8,48.4z"/>
			<path d="M100.1,54.8c-0.3,0.4-0.5,0.6-0.8,0.8c-1.7,1.2-2.7,3.4-5.1,3.5c-0.2,0-0.8-0.8-0.6-1.1c0.9-2.2,3-3.4,4.8-4.8
				c0.6-0.4,1.3-0.4,1.7,0.2C100.2,53.8,100.1,54.4,100.1,54.8z"/>
			<path d="M7.7,35.3c0.1-9.5,7.4-17.3,16.1-17.1c8.7,0.2,15.9,8.1,15.8,17.5c-0.1,9.5-7.3,17.1-16.2,17
				C14.6,52.5,7.6,44.9,7.7,35.3z M35.7,35.7c-0.4-3.4-0.5-7.6-3.6-8.7c-3.4-1.1-5.5,2.6-7.4,5.2c-0.6,0.8-1,1.7-1.4,2.5
				c-0.9,1.8-0.7,3,1.5,3.6c2.4,0.6,4.7,1.4,6.9,2.4s3,0.1,3.5-1.8C35.4,37.8,35.5,36.7,35.7,35.7z M27.3,23.5
				c-8-2.3-14.8,2.3-15.3,10.2c-0.1,1.3-0.7,3.3,1.4,3.5c1.8,0.2,4.3,0.8,5.1-1.6C20.2,30.7,23.3,26.9,27.3,23.5z M13.3,41.8
				c4.1,6.5,10.7,8.6,15.7,5.4c1.4-0.9,2.7-1.9,0.2-3C24.4,42,19.3,40.5,13.3,41.8z"/>
			<path d="M73.5,266.2c0.1,7.1-5.2,12.8-12,12.9s-12.3-5.5-12.4-12.5c-0.1-7,5.4-12.9,12-13C67.7,253.4,73.4,259.2,73.5,266.2z
				 M61.2,274.9c4.7,0,8.2-3.6,8.2-8.5c0-5-3.3-8.5-8.1-8.6c-4.8,0-8.1,3.4-8.2,8.4C53.2,271.3,56.5,274.9,61.2,274.9z"/>
			<path d="M83,3c-2.9,6.9-5.9,13.8-8.9,21c2.4,1,4.5,0.2,6.5,0c8-0.7,15,0.9,19.9,8c0.8,1.2,1.8,1.8,3.3,1.8
				c12.1,0.1,18.8,6.4,20.7,18.1c0,0.1,0.2,0.2,0.5,0.5c3.3-8.1,5.6-16.5,8-24.8c1.4-5,5.6-7.2,10.4-5.5c2.8,1,1.8,3.1,1.2,4.9
				c-2.4,7.5-4.8,15-7.2,22.5c-1.6,5.1-3.2,10.2-4.8,15.5c14.3-0.2,21.6,4,24.2,13.9c2.4,9.3-1.9,19.4-10.4,23.9
				c-9.3,4.9-17.3,2.6-26.8-8c-2.5,8.6-7.3,16.1-8.3,24.7c1.9,1,2.6,0.2,3.4-0.3c6.4-3.5,12.7-2.9,18.7,0.6c2.4,1.4,3.4,1.1,4.8-1.4
				c5.2-9,13.6-12.1,23.4-11.2c6.4,0.6,10.2,5.5,12.9,11c1.8,3.8,2.5,7.9,1.6,12c-0.6,2.6-0.2,4,2.8,4.2c18,0.8,20.2,23.6,11.8,33.8
				c-3.1,3.8-7.3,5.4-12,6.1c-1.2,0.2-2.8-0.3-3.5,1.2c-1.2,2.6-2.9,4.7-5.2,6.5c-2.2,1.8-5.1,2.1-7.6,3.6c3.2,4.7,7.6,7.4,12.3,9.8
				c4.3,2.2,8.8,3.7,13.4,4.8c2.8,0.7,4.2,2.2,4.4,5.1c0.2,2.3,0.6,4.6,0.3,6.9c-0.7,4.2-1.1,8.4-1.4,12.7
				c-0.5,6.7-3.7,9.3-10.4,9.5c-6.4,0.2-12.8,1.1-18.6,4c-5,2.5-5.2,3.6-2.4,8.2c3.9,6.3,8,12.4,12.4,18.4c2.7,3.7,5.6,6.9,9.7,9.5
				c10.9,7,10.2,21.6-1.2,27.8c-7.5,4.1-15.2,3.7-22.3-1.2c-5.4-3.8-7.7-9.2-6.7-15.8c0.1-0.6,0.3-1.3,0.4-1.9
				c0.1-0.5,0.5-0.9-0.7-1.7c-1.2,7-3.8,13.1-10.9,15.8c-7.1,2.7-13.2,0.5-18.8-4.8c-1.6,2.7-3.1,5.2-4.6,7.6
				c-3.8,6.1-8.2,11.9-12.7,17.6c-1.1,1.4-2.6,2.5-2.9,4.5c-2,0-3.9,0-5.9,0c1.9-2.3,3.7-4.5,5.6-6.9c6.1-7.9,12.2-15.8,16.7-24.8
				c1.5-3,1.7-6.5-0.3-8.3c-5.7-5.1-10.3-11.3-15.4-16.8c-1,0.5-1.3,1.2-1.7,2c-6.7,12.5-15,23.8-24.9,33.9
				c-1.3,1.3-2.1,2.8-2.6,4.6c-1.8,6-6,9.7-11.9,11.2c-3.5,0.8-6.3,2.5-8.6,5.1c-2.3,0-4.6,0-6.9,0c1-2.3,4-2.6,5.2-5.1
				c-8-3.6-12.5-9.1-11.2-18.1c0.2-1.3-0.3-2.1-1.4-2.9c-10.5-7.2-14.7-18-17.4-29.7c-1.6-6.9-1.2-14-2.7-20.9
				c-1.4-6.6-2.8-13.2-6.3-19c-2.1-3.5-4.8-6.3-9.4-5.8c0-1.3,0-2.6,0-3.9c4.6-0.7,7.9,1.5,10.7,4.7c2.5,2.9,4.1,6.3,5.4,9.9
				c3.2,8.9,4.8,18.1,5.4,27.4c0.6,8.5,3.1,16.4,7.1,23.8c2.1,3.8,4.9,7,8.4,9.5c1.3,1,2.5,1.5,3.7-0.1s0.1-2.4-0.9-3.2
				c-11.7-9.6-15.9-22.6-16-37.1c-0.1-7.9-0.8-15.6-4.2-22.9c-4.2-8.7-9.2-16.2-19.6-15.9c0-1.3,0-2.6,0-3.9
				c7.5-0.6,13.1,3.2,18.1,8.5c1.2-3.1,2.1-6,4.4-8c1.7-1.5,1.8-3.1,1.5-5.2c-1.1-7.4,1.2-13.7,7.2-18.3c2.1-1.6,2.6-3.2,2.4-5.8
				c-0.6-10.1,6.5-18,16.5-19c1.8-0.2,3.5,0.9,5.7-0.2c-1.5-7.4-3.1-14.8-4.8-22.8c-1.6,1.7-2.8,3.1-4,4.3
				c-6.4,6.1-16.2,6.4-22.8,0.7c-10.2-8.8-10-26,0.9-34c2.9-2.1,3.4-3.3,1.7-6.5c-4.2-7.7-4.4-15.5,0.4-23.3c2.1-3.3,3.8-6.9,6.3-10
				c2.1-2.6,3-5,2.3-8.5c-0.8-3.5,0-7.2,0.9-10.7c1.6-5.9,5-10.9,11.1-12c5.8-1.1,8-4.4,9.7-9.2c1-2.9,2.5-5.7,3.7-8.6
				c2.3-5.7,5.5-11.2,6.9-17.3c1.6,0,3.3,0,4.9,0c-3.5,8.2-6.9,16.4-10.6,25C69,26.1,75.8,13,78,3C79.7,3,81.3,3,83,3z M175.1,276.5
				c0-1.9-1-2.7-1.7-3.6C139.5,228.6,120,178,108.5,124c-2.5-11.7-4.8-23.4-6.2-35.3c-0.3-2.4-0.9-4.1-4.1-4.1
				c-14.9,0.1-29.9-0.1-44.8-0.3c-2.9,0-3.6,0.9-3.2,3.8c1.2,8.6,2.1,17.3,3.3,25.9c4.5,30.9,10.9,61.3,21.7,90.7
				c8.9,24.4,20.5,47.2,37.7,66.9c3.7,4.3,7.5,7,13.4,6c2.9-0.5,5.9-0.1,8.8-0.2C148.4,277.2,161.6,276.8,175.1,276.5z M120.4,154.9
				c8.6-3.1,8.7-3.2,17.7-1.1c1.4,0.3,2.1-0.3,3-0.9c6.7-4.2,11-3.8,16.8,1.3c3,2.6,6.3,3.2,9.9,1.4c0.8-0.4,1.6-1.4,2.8,0.1
				c-1.6,1.6-2,3.1,0.4,4.6c2.1,1.4,3.3,3.6,4.1,6c1.6,4.4,1.8,4.5,6.1,3.1c2.8-0.9,5.1-2.3,6.7-4.7c4-6.3,4.4-13,1.3-19.7
				c-2.8-6-8.4-6.7-14.1-6.8c-0.3,0-0.7,0-1,0c-2.5,0.1-3.7-1-3.1-3.6c0.4-1.9,0.9-3.8,1.1-5.8c0.9-7.9-4.5-16.5-11-17.7
				c-7.2-1.4-16,3-19.7,9.4c-1.2,2-0.8,5.4-3.7,6c-2.6,0.5-4.2-2.2-6.4-3.3c-5.3-2.7-10.6-3.4-15.8,0.1c-1.4,1-2.6,2.1-2.2,4
				C115.3,136.6,117.5,145.8,120.4,154.9z M104.4,80.5c4.7-1,7.6-3.8,10.1-7.2c2.6-3.6,4.4-7.7,5.5-12c3.5-14.1-3.6-23.3-18-23.4
				c-2.2,0-3.3-0.8-4.2-2.6c-2.6-5.1-7.1-7-12.5-7.4c-4.8-0.3-9.5,0.3-14.1,1.8c-4.2,1.4-7.7,3.7-9.8,7.7c-1.2,2.3-2.7,3.1-5.4,3.2
				c-5.7,0.4-10.4,2.8-12.7,8.5C38.7,60.9,45,74.8,57,79.2c1.2-10.1,1.9-11.1,9.5-15.6c-0.8-1.7-3.6-1.5-3.9-4.2
				c2.1-0.3,3.5,1,5,1.8c1,0.6,1.4,3.3,3.2,0.9c1.3-1.8,0.1-2.8-1.3-4c-1.5-1.2-3.7-2-4-4.6c1.9-0.2,2.9,0.8,3.7,1.6
				c2.3,2.4,4.3,2.7,7.5,0.9c6-3.5,13-0.9,16.1,5.4c0.8,1.6,1.3,3,3.2,3.9C103.3,68.6,105,71.8,104.4,80.5z M144.7,175.6
				c-3.4,3.2-6.9,5.2-11.2,5.6c-4.7,0.4-4.7,0.4-3,5.1c5.9,15.6,12.8,30.9,20.9,45.5c1.2,2.1,2,4.5,4,6.2c4.8-4.1,10.5-5.9,16.6-6.9
				c3.2-0.6,6.5-0.9,9.8-1c3.7-0.1,5.6-2.1,5.6-5.5c0-4.6,1-9.1,1.5-13.6c0.6-5.4-0.3-6.4-5.4-8c-10.2-3.1-19.5-7.7-25.8-16.9
				c-0.6-0.8-1.3-1.5-2.3-1.7C150.7,183.2,147.4,180.2,144.7,175.6z M95.3,255.7c-2.6,5.9-6.9,8.2-12.8,7.5c-4.5-0.5-8.1-3.3-9-7.3
				c-1.3-5.6,2.1-8.6,7.3-11.8c-5.3,0.9-9.3,0.5-12.9-1.9c-1.7-1.1-2.2-0.1-2.8,1.3c-4.3,9.5-19.3,10.7-24.6,0
				c-0.5-1-0.8-2.3-2.3-2.1c-2.7,0.2-5.3-1-8.4-1.5c0.5,7.6,0.4,14.6,1.4,21.6c1.4,10,6.3,18.2,14.2,24.5c1.7,1.4,3.2,1.7,5.4,1.1
				c10.1-2.6,16.6,0.2,21.9,9.2c0.2,0.4,0.7,0.6,1.3,1c9.2-9.6,16.9-20.1,23.1-31.7C99.4,260.7,99.4,260.7,95.3,255.7z M66.2,191.4
				c-4.2,3.5-4.2,3.5-7.3-0.3c-2.8-3.4-6.3-5.7-10.8-6c-11.7-0.8-19.7,8.1-17.6,19.6c0.4,2.4,0.6,4.5-1.6,6.1
				c-7.5,5.4-4.3,19.5,2.3,24.2c1.6,1.2,3.4,2,5.4,2.1c1.4,0,2.6-0.1,3-1.8c1.1-4.5,4.2-7.2,8.1-9.3c-0.7-1.2-2.8-0.5-2.7-2.6
				c1.6-0.9,3.4-0.6,4.5,0.4c2.8,2.5,3.9,1.2,5.6-1.3c4.1-6.2,11.3-7.4,17.5-3.2c0.8,0.5,1.5,1.3,2.4,1.7c0.7,0.3,2,0.3,1.8-0.8
				c-0.4-2.4-1.5-4.6-2.7-6.6c-1.6,0.2-1.4,2.9-3.7,2.1c-0.1-1.5,0.6-2.8,1.4-4c0.7-1,1.1-1.9,0.6-3.1
				C70.4,203.2,68.4,197.5,66.2,191.4z M40.2,70c-4,5.1-7.1,10.2-9.3,15.9c-2.6,6.7,0.2,12.4,3.5,18.1c0.4,0.7,1.1,1.3,1.9,1.3
				c4.3-0.2,8,1.8,12.3,3.5c-1-7.9-1.8-15.1-2.7-22.4c-0.3-2.6-0.8-5.3,2.8-6.5c-1.6-1.7-2.9-3.2-4.2-4.6
				C42.9,73.8,42.3,71.6,40.2,70z M160.2,160.3c-6.8-0.1-12.1,4.4-12.2,10.2c-0.1,5.7,5.5,10.6,12,10.6c6.6,0,11.8-4.7,11.8-10.6
				C171.8,164.7,166.9,160.4,160.2,160.3z M131.8,177.2c7.2-0.1,11.9-4.9,11.3-11.1c-0.5-4.6-3.3-7.5-7.4-9
				c-4.2-1.5-8.4-1.4-12.2,1.4c-1.7,1.2-1.4,2.8-0.9,4.4c1,3.3,2.3,6.5,3.1,9.8C126.6,176.3,128.9,177.5,131.8,177.2z M122.3,85.3
				c0.1,8.9,6.3,15.5,14.3,15.9c3.8,0.2,4.8-0.8,4.4-4.5c-0.6-6.3-3.1-11.7-8-15.8c-2.3-1.9-5-5.3-7.9-3.8
				C122.4,78.5,122.3,82.6,122.3,85.3z M37.2,143c3.2,0,6.1-1,8.6-3c1.7-1.4,2.1-2.6,0.4-4.4c-5.7-5.8-12.8-8.9-20.6-10.4
				c-1.5-0.3-2.6,0-2.6,1.9C23.2,134.6,28.7,143,37.2,143z M43.5,238.3c0.1,5,4.1,8.8,9.3,8.7c5.1-0.1,9.4-4.1,9.4-8.8
				s-4.4-8.7-9.5-8.7C47.4,229.5,43.5,233.4,43.5,238.3z M185.6,287.1c-0.1-0.5-0.1-1.5-0.4-2.5c-1.2-4.5-2.9-5.1-6.3-1.9
				c-4.4,4.2-7.2,9.3-8.8,15.1c-0.6,2,0.2,2.6,2.1,2.7C179.2,300.7,185.7,294.4,185.6,287.1z M75.8,240.5c6.7,0,9-3.4,6.1-9.4
				c-0.4-0.7-0.8-1.4-1-2.2c-1-2.8-3.1-3.5-5.8-3.2c-4.7,0.4-8.1,3.6-8,7.6C67.1,237.5,70.8,240.5,75.8,240.5z M128.4,72.8
				c3.4,2,6.1,3.7,8.5,6c0.9,0.9,1.9,1.3,3.1,1.2c4.4-0.2,8.6,0.7,13.1,2.5c-0.4-6.3-3.5-10.2-8.6-12.4
				C139,67.7,133.7,68.5,128.4,72.8z M70,80.5L70,80.5c1.5,0.1,2.9,0,4.4,0.1c2.8,0.2,3.6-1.3,3.7-3.9c0.2-4.5-2.1-7.9-6.1-8.7
				c-4.7-1-8.6,1.2-10.1,5.5c-1.6,4.5,0,6.8,4.7,7C67.7,80.5,68.8,80.5,70,80.5z M91.6,80.6C91.6,80.7,91.6,80.7,91.6,80.6
				c1.1,0.1,2.3,0.1,3.4,0c1.7-0.1,3.6,0.6,4.8-1.6c1.2-2.3,0.8-4.4-0.5-6.5c-3.1-5-11.8-5.3-15.2-0.5c-1.6,2.2-1.6,4.6-0.7,7
				c0.9,2.2,3.1,1.3,4.8,1.5C89.3,80.7,90.5,80.6,91.6,80.6z M50.8,134c1-7.5,0.8-13.8-3.2-19.5c-0.8-1.2-2.1-2.1-3.3-2.9
				c-0.9-0.7-1.8-0.4-2.4,0.6c-2.2,3.4-1.4,13.3,1.4,15.8C45.4,129.8,47.6,131.4,50.8,134z M43.3,301.6c0.2,1.3-0.4,3.3,1.3,4.2
				c1.4,0.8,2.8-0.6,4-1.2c4.9-2.6,8.6-6.5,11.5-11.1c0.7-1.2,1.5-2.2-0.7-2.9C52.1,288.3,43.6,293.9,43.3,301.6z M121.9,73
				c2.1-2.3,5.2-3.9,6.2-7.3c3.7-12,7.6-24,11.4-36c0.4-1.1,1.5-2.7-0.3-3.4c-1.8-0.6-2,1.2-2.3,2.4C132.6,43.7,127.6,58.4,121.9,73
				z M81.7,57.1c-3.2-0.1-5.7,1.1-7.6,3.6c-1.1,1.5-1.3,2.6,0.7,3.9c3.7,2.5,7.1,5.4,11.4,1c0.5-0.5,1.5-0.6,2.3-0.8
				c3.1-0.6,2.7-2.3,1.3-4.2C87.9,58,85.1,56.9,81.7,57.1z M59.3,166.4c-2,2-2.9,3.8-3.7,5.6c-1.2,2.9-2.4,5.9-2,9
				c0.3,2.6,3.6,2.5,5.1,4.2c0.3,0.4,0.7,0.7,1.1,1c1,0.7,1.6,2.5,3.2,1.4c1.4-0.9,1.5-2.5,1.1-4C62.6,178.2,61,172.7,59.3,166.4z
				 M38.4,109.7c-8.3,0.4-12.6,4-14,11c3.9,1,7.8,2.1,12.1,3.2C36.7,119.1,36.2,114.5,38.4,109.7z M84.1,259.2c4,0,6.8-2.2,6.9-5.4
				c0-3.1-2.9-5.6-6.8-5.6c-3.6,0-7,2.6-7,5.5C77.1,256.7,80.2,259.2,84.1,259.2z M174.1,280.9c-4.3,0-8.2,0-12.1,0
				c-0.8,0-1.6,0-2.5,0.1c-1.6,0.2-3.4,0.7-2.1,2.6c2.1,3.1,5.3,4.7,9.1,5.4c3.1,0.6,3.8-1.9,5.1-3.7
				C172.4,284.1,173.5,283,174.1,280.9z M141.8,84.8c1.8,4.2,2.9,8.6,4,13.6c3.8-2.9,7.6-6,6.4-10.1c-1.1-3.7-5.9-4-9.8-3.9
				C142.3,84.3,142.2,84.5,141.8,84.8z M110,108.3c8.4-21.9,9.5-21.2,7.6-26.7c-2.3,4.4-4.1,8.7-6.7,12.7
				C108.1,98.8,107.9,103.2,110,108.3z M135,291.2c-0.3,2.8,0.2,3.3,2.9,2.6c4.4-1.1,8.1-5.3,8.7-9.7c0.3-2-0.4-2.6-2.3-2.7
				C140.7,281.2,135.6,286.4,135,291.2z M135.3,281.6c-2.7,0-4.5-0.2-6.2,0c-2.1,0.3-5.3-1.2-6.2,1c-1,2.6,0.9,5.3,2.7,7.4
				c1.1,1.4,2.4,2.6,4.6,2.9C131.2,289.3,132.5,285.7,135.3,281.6z M47.3,310c4.6,3.9,9.3,3.9,14.1,2.5c1.1-0.3,2.2-1,1.4-2.4
				c-1.3-2.3-2.9-4.4-5.3-5.5c-2-0.9-3.1,1.3-4.6,2.1C51.2,307.6,49.6,308.7,47.3,310z M71.5,222c-4.8-3.7-11-3.2-14,0.9
				c-1.1,1.6-1.5,2.9,0.8,3.7c1.1,0.4,2,1.1,2.9,1.7c1.1,0.8,2.1,1.2,2.8-0.3C65.6,225.1,68.5,223.5,71.5,222z M67,308.2
				c2.8-2.7,2.4-5.8,2.1-8.8c-0.2-2.3-1.2-4.9-3.5-5.4c-1.8-0.4-2.2,2.4-3.4,3.7c-0.4,0.5-0.8,1-1.2,1.5c-0.9,1.1-0.7,2,0.3,3
				C63.2,304.1,65,306.1,67,308.2z M156.6,156.1c-3.2-4-7.2-4.1-11.2-3c-3.3,0.9-3.6,2.2-1.4,5c1,1.2,1.5,2.8,3.1,3.8
				C149.6,159.1,152.9,157.5,156.6,156.1z M155.9,288.7c0,5.3,3.1,8,6.8,10.2c1.5,0.9,2.9,0.9,3.2-1.3c0.2-1.7,2.4-4-0.9-4.7
				C161.8,292.2,159.1,290.4,155.9,288.7z M41.4,172.2c3.6-0.2,6.5,2.2,8.7,1.2s2.5-4.6,3.7-7.1c0.1-0.1,0-0.3,0-0.8
				C48.5,164.8,44.9,167.3,41.4,172.2z M44.4,181.4c0-0.1,0-0.1,0-0.2c0.3,0,0.7,0,1-0.1c1.3-0.4,3.7,1.1,3.9-1.6
				c0.1-2.1-2.1-2.2-3.5-2.8s-2.9-0.6-4.3-0.3c-1.1,0.3-1.7,1-1.7,2.1c0,1-0.2,2.3,0.8,2.6C41.7,181.6,43.1,181.4,44.4,181.4z
				 M112.9,81.8c-7.9,2.9-7.9,2.9-5.2,10.2C109.4,88.7,110.9,85.7,112.9,81.8z"/>
		</g>
		<g>
			
				<linearGradient id="SVGID_1_" gradientUnits="userSpaceOnUse" x1="105" y1="908" x2="105" y2="1232" gradientTransform="matrix(1 0 0 1 0 -908)">
				<stop  offset="0" style="stop-color:#EB1A21"/>
				<stop  offset="1" style="stop-color:#A51A21"/>
			</linearGradient>
			<path class="st3" d="M210,324c-70,0-140,0-210,0C0,216,0,108,0,0c70,0,140,0,210,0C210,108,210,216,210,324z M199.9,162.6
				c0-46.5-0.2-87.6-0.2-134.1c0-9.4-3.5-18.1-13-18.1c-50.8,0-101-0.4-151.8-0.4c-4,0-8.3,0.5-12.3,0.7
				c-5.9,0.2-11.3,6.1-11.3,11.8c0,93.3-0.4,182.4-0.4,275.8c0,1.5,0.2,1.6,0.3,3.1c0.7,6.6,5,12.6,11.3,12.6
				c55.5,0,107.4,0.2,162.9,0.3c1.9,0,3.6-0.7,5.3-1.7c5.5-3,9.5-6,9.5-12.1C200.1,254,199.9,208.9,199.9,162.6z"/>
			<path d="M200.8,161.4c0.1-9.1,0-18.3,0.1-27.6c0.2-36.3,0.1-72.7,0-109c0-9.1-6.8-15.3-16-15.3c-52.8,0-105.7,0-158.5,0
				c-9.4,0-15.6,6.2-15.6,15.8c0,38.4,0.2,76.7,0.1,115.1c0,29.5-0.4,58.9-0.5,88.4c-0.1,23.5-0.1,47-0.1,70.4
				c0,8,6.5,15.3,13.7,15.3c54.3,0.1,108.6,0,162.9,0c2.2,0,4-0.5,5.9-1.8c5.1-3.5,8.1-7.9,8-14.4
				C200.7,252.7,200.8,207.1,200.8,161.4z M186.5,310.2c-3,0-3.7,0-3.7,0s-103.1,0-154.7,0c-8.3,0-13.1-4.5-13-14.9
				c0-22.8,0-45.6,0.1-68.4c0.1-28.6,0.5-57.2,0.5-85.9c0.1-37.3-0.2-75.1-0.1-112.3c0-7.9,2.5-14.8,12.6-14.8
				c50.2,0,105.1,0.2,155.3,0.2c8.7,0,13,5.3,12.6,14.1c0,35.2,0,106.5,0,106.5v27c0,0,0,91.6,0.1,135.9
				C196,304.4,191.2,309.6,186.5,310.2z"/>
		</g>
		<g>
			<path d="M70.9,109.8c0.3-0.6,0.7-0.8,1.3-0.4c0.6,0.4,1.6,1.2,2.8,2.5c1.1,1.2,1.8,2.1,2.1,2.6c0.3,0.5,0.4,1,0.2,1.5
				c-0.3,0.9-0.7,1.5-1.2,1.9s-1.2,1.6-2,3.7c-0.9,2.3-2.2,5.7-3.9,10.5c-1.7,4.7-2.6,7.3-2.6,7.8c-0.1,0.5,1,0.1,3.3-0.9
				c1.7-0.7,2.7-1.4,2.9-1.9c1.1-2.5,1.3-4.2,0.8-5c-0.4-0.7-0.6-1.5-0.6-2.2s0.2-1.2,0.6-1.4c0.4-0.3,1.1,0,2.3,0.8
				c1.2,0.8,1.9,1.5,2.1,2.1s-0.9,3.6-3.4,8.9c-2.5,5.4-4.1,9-4.8,10.8c-0.7,1.8-1.1,2.7-1,2.8s1-0.6,2.6-2.1c4-3.7,6.4-5.1,7.1-4.3
				c0.4,0.5,0.3,1-0.3,1.6c-0.7,0.6-1.1,1.2-1.2,1.8c-0.2,0.6-0.4,0.9-0.7,0.9c-0.3,0-0.8,0.5-1.4,1.3c-0.8,0.7-2,2.1-3.6,4
				l-2.7,2.8l-1.5-0.9c-0.6-0.3-1-0.7-1.3-1.1c-0.3-0.4-0.4-1-0.5-1.8c-0.1-1.4-0.1-2.2,0.1-2.3c0.4-0.3,2-3.7,4.9-10.4
				c0.3-0.6,0.2-0.9-0.1-0.8c-0.4,0-1.1,0.4-2.1,1.1c-1.9,1.2-3.3,2-4,2.3c-0.8,0.3-1.3,0.3-1.7,0c-0.5-0.6-0.8-1.4-0.9-2.4
				c0-1.1,0.2-1.7,0.7-1.9c0.5-0.3,1.6-2.9,3.6-7.9c1.9-5,3.3-9.3,4.3-12.9c0.6-2.3,1.1-3.8,1.5-4.4c0.4-0.5,0.5-1.1,0.4-1.8
				c-0.1-0.7-0.4-1.2-0.9-1.4c-0.5-0.3-0.9-0.9-1.1-1.6C70.6,110.9,70.6,110.3,70.9,109.8z M80.1,158.5c2-1.5,3.1-2,3.4-1.4
				c0,0.4-0.8,1.5-2.5,3.5c-1.7,1.9-3.8,4.6-6.5,7.9c-2.7,3.4-4.1,5.1-4.2,5.1c-0.3,0-1-0.5-2-1.5c-1.1-1-1.7-1.8-1.9-2.2
				c-0.1-0.6-0.1-1.1,0-1.4c0.1-0.3,0.4-0.5,0.8-0.5s0.9,0.1,1.4,0.3c0.6,0.4,1.1,0.5,1.5,0.3s1.1-1,2.2-2.4
				c0.6-0.7,1.1-1.3,1.5-1.8s1-1.1,1.6-1.7c0.6-0.6,1-0.9,1.3-1.2c0.3-0.2,0.8-0.7,1.7-1.5S79.9,158.7,80.1,158.5z M98.2,125.7
				c0-0.4,0-0.9,0.3-1.5c0.2-0.5,0.5-0.8,0.8-0.9c0.6-0.1,1.6,0.2,3.3,0.8c1.6,0.6,2.7,1.1,3.1,1.5c0.5,0.4,0.7,0.8,0.8,1.1
				c0.1,0.3,0,0.8-0.1,1.4c-0.2,0.7-0.5,1.2-0.7,1.3c-0.3,0.1-0.9,0.1-1.9,0c-2.6-0.3-5,0.1-7.3,1.2c-1.7,0.8-2.6,1.2-2.6,1.3
				s0.2,0.3,0.6,0.4c0,0.1,0.2,0.1,0.3,0.1c0.7,0.5,1.9,1.4,3.5,2.8l1.3,1.1l-0.6,5.6c-0.5,3.6-1.1,6.9-1.9,10s-1.1,4.6-1.1,4.7
				c0.1,0.1,1.6-0.3,4.5-1s4.8-1.1,5.8-1.2c0.9-0.1,1.7-0.6,2.2-1.7c0.6-1.1,1.1-1.6,1.5-1.6s1.2,0.5,2.3,1.6
				c1.2,1.2,2.2,2.1,3.2,2.8c0.5,0.4,0.8,0.8,1.1,1.2c0.2,0.4,0.3,1,0.3,1.8c0.1,1.4-0.2,2.2-0.8,2.3c-0.6,0.1-1.6-0.4-2.9-1.4
				l-2.2-1.8l-5.2,0.6c-6.8,0.8-12.5,2.4-16.9,5c-1.7,0.9-2.8,1.5-3.3,1.7s-1.1,0.1-1.7-0.3c-0.7-0.3-1.3-0.8-1.7-1.4
				c-0.4-0.6-0.5-1.1-0.2-1.6c0.1-0.3,0.7-0.5,1.8-0.6c1.1-0.1,2.6-0.7,4.7-1.6c1.5-0.7,2.5-1.3,2.9-1.7s1-1.5,1.7-3.2
				c0.7-1.9,1.3-4.3,1.9-7.1c0.6-2.9,0.8-5.3,0.9-7.4c0.1-0.9,0-1.6-0.1-2c-0.2-0.5-0.6-1.1-1.2-1.9c-1.1-1.3-1.6-2.2-1.5-2.8
				s-0.1-0.9-0.5-0.7c-0.5,0.2-1.7,1-3.4,2.4c-2.3,1.8-3.6,2.8-3.9,2.8s-0.8-0.5-1.6-1.7c-0.8-1.1-1.2-2-1.3-2.4
				c-0.1-0.5,0.6-0.8,1.9-0.6c1.3,0.1,2.7-0.4,4.3-1.7c1.6-1.3,3.6-2.5,6.1-3.6C97,126.6,98.2,125.9,98.2,125.7z"/>
		</g>
		<g>
			<path d="M94.1,206.4c0.2-0.5,0.4-0.8,0.7-0.8c0.3,0,0.6,0.1,0.9,0.5c0.2,0.2,0.9,0.4,2.1,0.5c1.2,0,1.9,0.2,2.3,0.6
				c0.4,0.4,0.6,1.2,0.8,2.6c0.1,1.2,0.4,1.7,0.7,1.6c0.1,0,0.2-0.3,0.3-0.8c0.1-1,1.1-1.4,2.9-1.1c1.9,0.4,2.9,1.2,3.1,2.5
				c0.1,0.4,0,0.9-0.2,1.4s-0.5,0.8-0.7,0.9c-0.3,0.1-0.9,0-1.8-0.1c-0.9-0.2-1.5-0.2-1.9-0.2c-0.4,0.1-0.8,0.4-1.3,0.9
				s-0.9,1.2-1.2,2.3c-0.3,1-0.3,1.9-0.2,2.8c0.1,0.5,0.6,0.9,1.6,1.4s2.3,1.3,4,2.6l2.8,2l-1.5,3.9l-2.7-2.7
				c-2.8-2.5-4.4-3.4-4.6-2.6c0,0.1-0.1,0.1-0.1,0.2c-0.3,3.2-1.1,6.5-2.4,10s-2.6,5.8-3.8,7c-1.1,1-1.7,1.1-1.7,0.4
				c-0.1-0.6,0.3-1.5,1.1-2.7c1.1-1.6,2-3.6,2.7-6.2c0.4-1.8,0.9-4.7,1.4-8.7s0.7-6.1,0.6-6.3c-0.1-0.1-0.6,0.3-1.5,1.2
				c-0.4,0.3-1.3,1-2.6,2.1c-1.4,1.1-2.3,2-2.9,2.7c-1.1,1.1-1.9,1.6-2.4,1.6s-1.3-0.5-2.5-1.7c-1.5-1.3-2-2.2-1.7-2.8
				c0.3-0.5,0.9-0.6,1.6-0.2c0.7,0.4,1.5,0.5,2.3,0.1c0.4-0.2,2.1-1.3,5.2-3.4c3.1-2,4.7-3.2,4.8-3.4c0,0,0-0.6,0-1.9
				c0-1.3-0.3-2.1-0.7-2.5c-0.6-0.4-1-0.8-1.4-1c-0.3-0.2-0.6-0.5-1-0.8s-0.6-0.7-0.8-0.9C94.2,206.9,94.1,206.6,94.1,206.4z
				 M91,186c0.3-0.7,0.7-1.1,1-1c0.3,0,0.8,0.5,1.5,1.3c0.7,0.9,1.4,1.7,1.8,2.2c1,1.1,1.5,1.9,1.7,2.5c0.1,0.5,0.1,1.7-0.2,3.6
				c-0.1,0.7-0.2,1.3-0.2,1.8s-0.1,1-0.1,1.6c0.4-0.1,0.9-0.4,1.4-0.9c0.5-0.6,0.8-1.1,0.8-1.7c0.1-0.7,0.4-1.2,0.8-1.2
				c0.5-0.1,1.3,0.2,2.5,0.7c1.2,0.6,2,0.8,2.4,0.8c0.4-0.1,0.7,0.4,0.8,1.3c0.1,1,0.1,1.8-0.2,2.4c-0.3,0.6-0.5,0.9-0.7,0.9
				s-0.8-0.1-1.6-0.5c-0.8-0.4-1.4-0.6-1.8-0.5s-1.1,0.5-2.2,1.4c-3.2,2.2-4.7,3.6-4.7,4.2c0.1,0.4-0.6,1.8-2,4.3s-2.2,3.5-2.6,3
				c-0.5-0.4-0.5-0.7-0.2-1.1c0.8-1,1.7-3.7,2.8-8c1-4.3,1.4-7.5,1.3-9.5c-0.1-1.2-0.2-2.1-0.3-2.5c-0.1-0.4-0.5-0.9-1-1.4
				c-0.8-0.7-1.3-1.3-1.5-1.9C90.3,187.3,90.5,186.6,91,186z M121.9,216.8c-0.1-0.6,0.2-0.9,0.7-0.9c0.5-0.1,1.5,0.2,2.9,0.9
				s2.2,1.2,2.4,1.5c0.2,0.5-0.1,1.7-0.7,3.4c-0.7,1.8-1.6,3.8-2.8,6c-1.2,2.6-1.9,3.9-1.9,4s1.5-0.1,4.4-0.6
				c2.9-0.4,4.4-0.8,4.3-1.2c-0.1-1,0-1.6,0.6-1.8c0.5-0.2,1.3,0,2.2,0.6c1.1,0.8,1.9,1,2.2,0.7c0.4-0.3,1.1,0.1,2,1
				c0.9,1,1.4,1.9,1.6,2.8s-0.1,1.6-0.7,2.2c-0.4,0.3-0.8,0.5-1.1,0.4s-0.9-0.4-1.7-0.9c-0.9-0.6-1.7-0.9-2.4-1s-2.5,0.1-5.4,0.5
				c-6.8,0.9-12.2,2.8-16.3,5.6c-2.1,1.3-3.7,2-4.7,2.2c-1,0.1-2.1-0.3-3.2-1.4c-0.9-0.7-1.2-1.3-1-1.8s0.9-0.7,2.1-0.7
				c1.1,0,2.9-0.6,5.4-1.7c2.6-1.2,4-1.8,4.3-1.8c2-0.7,3.4-1.5,4.2-2.6c0.7-1.1,1.9-4,3.6-8.9l1.2-3.1l-1.1-1.3
				C122.4,218.1,122,217.4,121.9,216.8z M122.2,197.8c0.8-0.6,1.4-0.9,1.9-0.9s1.2,0.4,2.2,1.1l1.8,1.3l-1,2.3
				c-0.7,1.5-1,2.4-0.9,2.7c0.1,0.4-0.3,2.1-1,5s-1.2,4.6-1.5,5c-0.4,0.5-0.9,0.6-1.5,0.3c-1-0.6-2.4-0.5-4.2,0.3
				c-1.8,0.8-3.1,1.9-4,3.3c-0.6,1-1,1.6-1.3,1.6c-0.4,0.1-0.8-0.4-1.3-1.3c-0.5-0.9-0.7-1.6-0.6-2c0.2-0.3-0.1-1.7-0.8-4.2
				c-0.7-2.4-1.4-4-2.2-4.7c-1.8-1.6-1.8-2.6,0-2.8c1.9-0.3,3.3,1.2,4,4.5c0.6,2.4,1,3.8,1.2,4.3s0.4,0.6,0.7,0.4
				c4-2.3,6.4-3.6,7.1-3.9c0.7-0.3,1.2-0.7,1.3-1c0.2-0.4,0.3-1.5,0.4-3.4c0.3-2.9,0.3-4.3,0.2-4.3c-0.1,0-0.2,0.1-0.4,0.3
				c-0.4,0.3-1.4,0.7-2.9,1.2s-2.6,1.1-3.5,1.8c-0.6,0.6-1.3,0.8-2,0.7s-1.1-0.5-1.2-1.2s2.1-2.1,6.5-4.2
				C120.4,199.3,121.5,198.6,122.2,197.8z M118.5,186.8c0.1-0.8,0.4-1.2,0.9-1.2s1.6,0.2,3.2,0.8c1.4,0.6,2.3,1.2,2.8,1.8
				c0.4,0.5,0.5,1.3,0.3,2.2c-0.2,0.6-0.4,0.9-0.7,1c-0.3,0.1-1.1,0-2.3-0.2c-1.2-0.2-2.1-0.2-2.7-0.2c-0.6,0.1-1.6,0.4-3,1.1
				c-2,1-3.7,2-5.3,3c-1.2,0.7-1.9,1.1-2.2,1.2c-0.3,0.1-0.7-0.1-1.2-0.7c-0.7-0.5-1.1-1.3-1.2-2.3c-0.1-0.6-0.1-1,0-1.2
				s0.5-0.2,1.2-0.2c1.1,0.1,3.1-0.6,5.9-2C117.1,188.4,118.5,187.4,118.5,186.8z M111.3,222.7c-0.1-0.8,0-1.4,0.2-1.7
				c0.3-0.3,0.6-0.3,1.1,0c0.4,0.3,0.8,0.8,1.2,1.5c0.5,1.2,1.4,1,2.5-0.7c1.4-1.8,2.1-2.1,2.3-1c0.1,0.8-0.2,1.9-0.9,3.5
				c-0.7,1.6-1.1,2.8-1,3.4c0,0.7-0.1,1.3-0.4,2c-0.3,0.6-0.5,1-0.9,1c-0.2,0-1-1.1-2.2-3.5C112.1,224.9,111.4,223.3,111.3,222.7z"
				/>
		</g>
	</g>
	<g>
		<g>
			<path class="st0" d="M22,306.2v-14l23.7-31.4c1.1-1.4,1.9-2.7,2.4-4.1c0.5-1.3,0.8-2.5,0.8-3.5c0-1.9-0.6-2.5-0.9-3
				c-0.8-0.6-2-1.1-3.8-1.1c-1.6,0-2.8,0.5-3.6,1.3c-0.9,0.9-1.6,2.4-1.7,4.2v3h-3.1H21.2v-3.3v-0.2c0.5-4.4,1.7-8.3,3.6-11.6
				c2-3.3,4.7-6,8-7.7c3.3-1.7,7.1-2.7,11.3-2.7c4.6,0,8.5,0.8,11.8,2.4c3.5,1.6,6.1,4.1,8,7.2c1.7,3.1,2.7,6.8,2.7,11
				c0,3.1-0.6,6.3-1.7,9.4c-1.1,3-2.7,6-4.7,8.6l-14.1,18.5H67v16.8L22,306.2L22,306.2z"/>
			<path d="M44.2,235.4c4.1,0,7.5,0.6,10.5,2c2.8,1.4,5,3.3,6.6,6c1.6,2.7,2.4,5.8,2.4,9.4l0,0c0,2.7-0.5,5.5-1.6,8.2
				c-1.1,2.8-2.5,5.3-4.2,7.9l-17.9,23.6h24.2V303h-39v-9.7l23.3-30.6c1.3-1.6,2.2-3.1,2.8-4.9c0.6-1.7,0.9-3.3,0.9-4.7v-0.2
				c0-2.2-0.6-3.9-2-5.2c-1.4-1.3-3.3-1.9-5.8-1.9c-2.4,0-4.4,0.8-5.8,2.2c-1.4,1.4-2.4,3.6-2.7,6.3l0,0H24.5l0,0
				c0.5-4.1,1.6-7.4,3.3-10.4c1.7-2.8,3.9-5,6.8-6.6C37.3,236.1,40.6,235.4,44.2,235.4 M44.2,229.1c-4.7,0-9,0.9-12.7,3
				c-3.8,2-6.9,5-9.3,8.8c-2.2,3.6-3.6,8-4.1,12.9v0.3v0.3v6.3h6.3h11.3h6.1l-21.7,28.6l-1.3,1.7v2v9.7v6.3h6.3h38.7h6.3v-6.3v-10.4
				v-6.3h-6.3H52.5l10.2-13.5c2.2-3,3.9-6.1,5.2-9.4c1.3-3.5,1.9-6.9,1.9-10.4c0-4.9-1.1-9.1-3.1-12.6c-2.2-3.8-5.3-6.6-9.3-8.5
				C53.6,229.9,49.2,229.1,44.2,229.1L44.2,229.1z M42,254.9c0.2-1.1,0.5-1.9,0.8-2.4c0.2-0.2,0.3-0.3,1.4-0.3
				c0.9,0,1.4,0.2,1.6,0.2c0,0.2,0,0.3,0,0.6v0.2c0,0.6-0.2,1.4-0.6,2.4c-0.5,1.1-1.1,2.2-1.9,3.3l-1.4,1.9v-5.8H42z"/>
		</g>
	</g>
</g>
</svg>
