<?xml version="1.0" encoding="utf-8"?>
<!-- Generator: Adobe Illustrator 22.0.1, SVG Export Plug-In . SVG Version: 6.00 Build 0)  -->
<svg version="1.1" id="레이어_2_1_" xmlns="http://www.w3.org/2000/svg" xmlns:xlink="http://www.w3.org/1999/xlink" x="0px"
	 y="0px" viewBox="0 0 210 324" style="enable-background:new 0 0 210 324;" xml:space="preserve">
<style type="text/css">
	.st0{fill:#FFFFFF;}
	.st1{fill:#EB1A21;}
	.st2{fill:#F7A084;}
	.st3{fill:url(#SVGID_1_);}
</style>
<g>
	<g>
		<path class="st0" d="M66.7,1c47.8,0,95.5,0,143.3,0c0,107.7,0,215.3,0,323c-43.8,0-87.6,0-131.4,0c-1.5-1.3-2.1-3.1-2.7-4.9
			c-0.8-2.7-2-4.9-4.7-6.3c-3.4-1.7-3.4-5.5-4.2-8.6c-0.8-3.5-4.5-5.9-3-10.4c0.7-2.2,1.3-3.2,3.3-2.9c5.8,0.9,10.9-1.1,16.2-2.9
			c0.6-0.1,1.2,0,1.8,0.2c2.4,1.8,0.8,4.4,1,6.6c0.3,3.9,1.5,3.4,4.1,2c4-2.3,7.3-5.8,8.4-9.8c1.6-5.6,6.4-6.6,10.1-9.1
			c1.9-1.3,4.2,0.6,3.4,3c-1.5,4.7,0.2,10.6-6.1,13.6c-4.2,2-4.9,11.9-1.8,15.5c1.9,2.3,5.4,1.9,7.5-0.8c2.9-3.7,3.1-9.9,0.4-13.9
			c-2-3-1.9-10.3,0.2-12.9c1-1.3,2.3-1.1,3.2-0.3c3.3,2.9,6.2,6.2,11.5,5.5c1.3-0.2,2.2,2.6,3.1,4.1c1.6,2.9,3.8,5.4,6.1,7.7
			c0.8,0.8,2,2,3.4,1.1c1.2-0.8,1-2,0.8-3.4c-0.5-3.3-1-6.6-2.1-9.8c-1.5-4.2-1.1-8.5-0.8-12.7c0.2-2.8,1.8-3.3,4.3-2.6
			c4.5,1.1,9,0.2,13.5-0.2c2.6-0.3,3.6-1.4,2-4.3c-2.4-4.4-5.8-6.9-10.4-8.4c-2.2-0.7-4.4-1.1-2.4-4.5c1.4-2.5-1-4.2-3-5.1
			c-3.3-1.6-3.5-3.2-0.9-5.8c1-1,3.1-2.2,2-4.3s-3.2-1.3-5-1.5c-1.5-0.2-3.1-0.1-4.6-0.3s-2.9,0.1-3.4-1.5c-0.6-1.7,0.7-2.6,2-3.5
			c2.8-1.9,5.7-3.7,8.3-6c3.1-2.8,6-4.4,10.6-1.7c4.8,2.8,13.8-3.1,14.2-8.6c0.2-2.8-2.2-5.3-5.6-5.7c-5.2-0.7-11.1,2.8-12.4,7.9
			c-0.6,2.7-1.9,4.4-3.9,6c-3.4,2.7-6.8,5.3-10.5,7.6c-2.5,1.6-4.2,2.2-4.6-1.9c-0.2-2.2-0.9-4.5-2.1-6.6c-1.9-3.5-3.1-3.6-5.3-0.5
			c-0.1,0.1,0,0.4-0.1,0.4c-1.7,1.1-2.1,4.9-4.8,3.1c-2.2-1.4-4.3-3.4-3.6-7.1c1.1-5.9,3.4-11.4,4.8-17.1c1.4-6.1,2.9-12.1,4.2-18.2
			c0.5-2.3,1.1-5.6,5.1-4.1c2.9,1.1,3.5-1.6,4.2-3.3c1.5-3.3,2.7-6.7,3.5-10.2c0.6-2.5,1.2-4.7,4.6-3.5c1.6,0.6,2.6-0.6,3.6-1.4
			c2.8-2.3,2.6-2.2,5.7,0.4c4.3,3.6,8,8.2,13.5,10.2c1.9,0.7,3.9,2.7,5.9,1c2.1-1.7,0.6-4.1,0.1-6.1c-0.4-1.7-0.8-3.4-2-5
			c-1.3-1.7-1.4-4.1-0.1-5.7c2-2.5,0-4.7-0.3-6.9c-0.6-3.8-0.4-6.2,4.3-5.7c2.8,0.3,3.1-1.2,2.8-3.5c-0.3-3.4-2.2-5.8-4.3-8.1
			c-1.5-1.7-1.6-3.3-1.5-5.5c0.3-8.8,6.1-12,13.4-14c3.9-1.1,7.9-1.9,11.7-3c1.1-0.3,2.9-0.7,3.2-2.4c0.4-2.1-1.5-2.5-2.6-3
			c-4.3-1.9-8.6-3.7-13.4-3.3c-4.6,0.3-9.2-0.4-13.8,0.6c-1.7,0.4-6.5-4.1-6.9-6.5c-0.5-2.8,1.9-2.8,3.6-3.8
			c2.2-1.3,4.7-2.2,6.6-4.2c1-1,2.3-1.6,2-3.3c-0.3-1.6-2-1.2-3-1.9c-0.4-0.3-0.7,0.2-1.2,0c-5.6-1.6-6.7-4.9-2.6-8.9
			c2.2-2.2,5.6-3.6,1.1-7.1c-1.6-1.2,0.6-3.2,1.5-3.8c2.7-1.8,5.2-3.9,7.9-5.7c0.9-0.6,2.3-1.4,1.8-3c-0.5-1.4-1.8-1.3-2.9-1.5
			c-3.9-0.7-7.8,0.1-11.7,0.7c-1.8,0.3-3.9,1.3-4.8-0.8c-0.8-1.9,0.1-3.9,1.8-5.2c2.5-2,4.8-4.2,8.4-4.5c5.6-0.5,9.9-10.3,6.5-14.7
			c-1.9-2.4-4.3-3-6.9-0.8c-3.9,3.3-5.2,7.5-4.2,12.6c0.3,1.2,1,2.4,0.2,3.7c-1.2,2-2.9,3.8-5,3.9c-2.7,0.2-2.5-2.9-3.1-4.6
			c-0.5-1.3-0.9-2.9-1-4.4c0-1.2-0.2-2.8-1.9-2.9c-1.9-0.1-2.5,1.4-2.9,2.9c-0.3,1.4-0.3,2.8-0.6,4.2c-0.7,3.1-0.1,7.1-5.3,7.2
			c-1.6,0-2.2,2.6-3.4,3.9c-1.5,1.6-2.9,2.6-4.6,1c-1.5-1.3-2.7-3.1-1-5.2c0.7-0.8,1.2-1.8,1.6-2.7c2.6-5.3,2.2-6-3.4-7.1
			c-1.2-0.2-2.3-0.5-2.7-1.7c-0.4-1.4,0.3-2.3,1.5-3.2c1.1-0.8,2.8-1.7,2-3.5c-0.8-1.6-2.5-1.6-4.1-1.4c-3.4,0.2-6.6,0.8-9.8,1.9
			c-3.8,1.2-4.6,0.3-5.1-3.8c-0.4-3.6-1-7.2-2.7-10.6c-1.6-3.2-2.8-3.8-5.3-0.8c-0.9,1-1.9,2.1-2.8,3.1c-2.9,3.1-4.1,2.9-6.2-1.1
			c-2.7-5.1-4.2-5.4-7.8-0.8c-2.5,3.3-4.1,2.1-5.8-0.2c-3.6-5.4-8-10.2-14.4-12.8C66.7,3.8,65.6,2.7,66.7,1z"/>
		<path d="M85.4,289.6c-5.7,1.7-11.3,3.6-17.4,3c-2.5-0.2-3.1,1.3-2.5,3c1.5,4.5,3.6,8.9,4.6,13.5c0.1,0.4,0.6,0.9,1,1.1
			c5.5,2.9,7,8,7.5,13.7c-1,0-2,0-3,0c-0.6-0.5-1.6-0.7-2.1-1.2c-4.1-3.9-4.1-3.9-6.8,1.2c-1.3,0-2.7,0-4,0c-6-4.7-1.3-10-0.5-14.9
			c-2.1-1.1-3.2,0.3-4.6,0.7c-1.7,0.5-3.4,0.7-4.6-0.8c-2.5-3.1-5.3-3.3-8.8-1.8c-1.7,0.7-3.7,0.3-5.1-1.1c-2.7-2.7-5.3-2-8,0
			c-3.5,2.6-6.8,5.3-10.2,8c-1.7,1.4-3.5,2.9-5.8,1.6c-2.5-1.4-3.9-3.6-3.7-6.5c0.4-4.5,1.9-8.8,4.1-12.7c1.9-3.2,2.9-6.1,0.6-9.7
			c-1.5-2.3-1.1-5.2,0-7.7c1.1-2.6,0.4-4.3-1.8-6c-3.4-2.7-3.4-4.9-0.7-8.4c2.9-3.7,6.8-5.7,12.2-7.5c-3.7-1.1-6.7-1.9-7.8-5.3
			c-0.4-1.4-1.9-1.5-3.3-1.7c-4.3-0.5-5.7-2.3-5-6.5c0.4-2.6,1.1-5.2,2.4-7.6c1.6-3.1,1.1-5.7-1.4-8.1c-2.8-2.6-4.9-5.8-6.2-9.5
			c-0.7-2.1-1.2-4.2-0.2-6.3c0.7-1.4,0.8-2.9,0.1-4.3c-1.7-3.5-0.2-6,2.4-8.3c1.6-1.4,3.3-2.7,4.6-4.5c2.4-3.3,3.3-6.6,1.7-10.7
			c-2.3-5.7-2.6-11.7-0.8-17.6c1-3.1,2.6-5.8,6.6-5.1c2.1,0.4,3-0.7,3.4-2.6c0.6-3.2,2.4-5,5.9-4.5c0.9,0.1,2.1,0.5,2.5-0.8
			c0.3-1.1-0.6-1.9-1.3-2.6c-1.3-1.3-3-2.1-4.3-3.3c-4.7-4.3-6.5-12-4-17.3c1.8-3.8,5.8-6.3,9.4-5.8c4.9,0.6,9.8,5.1,10.4,10
			c0.4,3.3,0.6,6.6-0.5,9.9c-0.8,2.1-1,4.2-0.5,6.3c1.3,6.7,1.9,6.9,6.9,2.5c4-3.4,5.6-2.9,7.7,1.5c-1.4-2.5-3.1-6-3.3-10.1
			c-0.1-2.5,0.3-4.7,2.7-6c2.3-1.2,3.6,0.3,5,1.9c1.1,1.2,2.6,1.5,4.1,1.9c-5.3-1.7-6.3-3-5.6-8.4c0.4-3.1,0-5.6-2.9-7.2
			c-1-0.6-1.7-1.6-2.2-2.7c-1.2-2.6-3.2-3.7-6.1-2.9c-2.8,0.8-5.1,0.4-7.2-1.9c-1.9-2.1-4.2-1.1-6.4-0.2c-5.2,2.3-10.4,4.4-16.2,4.5
			c-5.5,0.1-7-1.9-5.2-7.1c1.8-5.5,5.2-10,9.3-14c2.5-2.5,3.5-4.9,3.3-8.8s1-7.5-2.6-10.8c-1.6-1.4,0.1-3.8,1.4-5.3
			c2.9-3.3,2.2-6.1-0.6-9.2c-2.7-2.9-5.3-6-7.2-9.5c-2.3-4.3-1.1-6.7,3.6-8.1c6-1.8,11.9-0.6,17.6,1.1c3.6,1.1,6.9,1.8,10.3-0.9
			c3.1-2.4,6,0.1,9.6,1.7c-0.2-0.1-0.8-1.1-0.9-0.4c0,0.1-0.2,0.1-0.4,0c-5-2.9-10-4.4-16-2.1c-5.4,2.1-9.6-1-13-5
			s-5.6-8.5-3.7-13.7c2.5-7.1,10.7-8.5,16.7-3c2.2,2,3.7,4.7,5,7.4c0.9,1.8,2,3.4,4,4.3c1.7,0.7,3.3,0.9,3.7-1.6
			c0.5-3.5,2.8-4.6,6-4.7c2.5-0.1,3.2-1.3,2.4-3.6c-1.1-3.4-0.7-6.1,3.1-7.7c2.3-1,2.1-3.2,1.4-5.2c-1.2-3.5-2.5-6.9-4.1-10.2
			c-1.5-3.1-0.8-5.4,2.4-6.8c1.3,0,2.7,0,4,0c3.9,3,8.6,4.9,11.9,8.7c1.1,1.3,2.2,2.5,3.3,3.7c1.3,1.3,1.7,3.6,3.6,3.9
			c1.7,0.2,2.3-2.1,3.6-3.1c3.6-2.9,5.8-2.3,7.6,2.2c1.5,3.9,1.9,4,4.9,0.9c1.2-1.2,2.3-2.4,3.4-3.6c3-3.2,3.9-3.1,6,0.8
			c1.9,3.5,2.9,7.4,3.3,11.4c0.5,4.5,0.5,4.5,5.1,3.4c5.1-1.3,10.1-1.6,15.3-0.5c1.1,0.2,2.4,0.4,2.7,1.8s-0.9,2-1.9,2.6
			c-1.7,1-3.6,1.7-4.8,3.3c0.8,2,2.6,1.4,3.9,1.7c3.7,0.9,4.4,1.9,3,5.6c-0.8,2-1.8,3.9-2.7,5.9c-0.7,1.3-1.1,2.5,0.5,3.4
			c1.4,0.7,2.1-0.4,2.8-1.3c1.3-1.7,2.4-4.9,3.7-5c4.7-0.3,3.5-3.9,4.1-6.3c0.8-3.4,1.2-6.9,2.8-10c0.5-1.1,1.3-2.1,2.6-1.9
			c1.4,0.2,1.7,1.4,1.9,2.6c0.9,4.9,1.1,9.9,3.3,14.6c3.1-1.4,4.1-3.1,3.3-6.6c-1.2-5,0.7-9.5,4.4-13.1c1.9-1.8,4.3-2.7,6.9-1.8
			c2.6,0.9,3.7,3.2,4.1,5.8c1.2,7.2-3.2,13.3-10.5,14.8c-3.8,0.7-5.6,3.6-7.5,7.2c6.5-1.3,12.6-2.3,18.7-1.2
			c0.8,0.1,1.6,0.2,2.5,0.3c1,0.1,2,0.4,2.3,1.5s-0.5,1.8-1.4,2.4c-3.7,2.5-7.4,5.1-11,7.7c-0.9,0.6-2.1,1.1-2.4,2.3
			c0.1,1,1,1.3,1.6,1.8c2,1.9,2,3.6-0.2,5.3c-1.4,1.1-2.8,2.4-4,3.7c-1.6,1.8-1.3,3.2,1,4.2c1.5,0.6,3.1,1.1,4.8,1.1
			c1.3,0,2.8-0.3,3.5,1.2c0.7,1.6-0.2,2.9-1.1,4.1c-1.9,2.4-4.4,4-7.1,5.3c-1.6,0.8-3.3,1.5-4.9,2.3c2.9,6.4,2.9,6.4,9.5,5.8
			c6-0.5,11.9-0.5,17.8,1.1c3.4,0.9,6.5,2.4,9.3,4.6c1,0.8,2.2,1.6,2,3.2c-0.3,1.7-1.8,1.7-3,2c-2.6,0.6-5.2,1.1-7.7,1.9
			c-3.3,0.9-6.7,1.9-10,3.1c-8,2.9-8.6,4-9.6,12.5c-0.2,1.9,0.8,2.7,1.8,3.8c2.8,3.1,4.3,6.7,4.4,10.8c0.1,2.7-0.7,3.9-3.8,3.6
			c-4.3-0.5-4.6,0-3.6,4.3c0.7,2.9,2.7,5.9-0.3,8.8c-0.7,0.7,0.3,1.9,0.7,2.7c1.3,2.7,2.2,5.6,2.7,8.5c0.8,5.5-0.8,6.8-5.9,4.9
			c-6-2.3-11-6-15.5-10.6c-1.1-1.2-1.9-2.7-3.4-3.2c-3.2,0.9-3,8.6-8.7,3.5c-1.4,3.9-2.5,7.5-3.8,11.1c-0.8,2.2-1.8,4.3-2.9,6.3
			c-2.3,4.1-3.1,4.1-5.6-0.1c-1.4,1.2-1.3,3-1.6,4.6c-2,9.4-4.2,18.8-7.4,27.9c-1.3,3.8-1.3,7.1,1.3,10.5c2.5-0.7,2.9-3.3,4.2-5
			c2.4-3.1,3.8-3.2,5.9,0.2c2.1,3.3,2.9,7,3.5,11.6c5.4-3.3,10-6.6,14.3-10.4c0.9-0.8,0.8-2.1,1.1-3.2c1.8-5.7,7.1-9.7,13.1-9.7
			c3,0,5.7,0.9,7.2,3.5c1.6,2.7,1.2,5.4-0.3,8.1c-3.4,6-10.9,8.5-17.2,5.6c-1.3-0.6-2.2-1.3-3.6-0.3c-4.1,3.1-8.2,6.1-13,9.7
			c4.5,0.5,8.1,0.9,11.6,1.4c1.3,0.2,2.8,0.3,3.4,1.7c0.7,1.8-0.8,2.6-1.8,3.7c-1.3,1.5-3.2,2.4-3.8,4.5c7.4,4.4,7.5,4.7,5,10.5
			c6.1,1,10.8,4.1,13.7,9.7c2.4,4.7,2,5.7-3.1,6.4c-4.6,0.7-9.3,0.7-13.9,0.3c-2.1-0.2-2.8,0.5-3,2.7c-0.7,6.8,1.6,13.1,3,19.6
			c0.5,2.3,1.2,4.5,1.8,6.7c0.3,1,0.4,2.1-0.5,2.8c-1,0.8-1.8,0.1-2.7-0.4c-5.3-3.1-9.2-7.6-12.2-12.8c-0.8-1.4-1.4-3-3.6-1.5
			c-1.1,0.7-2.1-0.5-3-1.3c-2.6-2-5.2-4.1-8.2-6.5c-1,4.5-2.5,8.1,0.4,12.4c3,4.4,2.2,9.6-0.4,14.2c-1.4,2.4-3.4,4.2-6.4,3.9
			c-2.8-0.3-4.4-2.2-5.5-4.6c-2.8-6.2-0.7-13.2,5.3-17.3c1.1-0.7,1.8-1.4,2-2.7c0.4-3.1,1.3-6.1,1-9.6c-3.9,1.6-7.2,3.2-9.1,7.2
			c-2.7,5.6-6.5,10.5-12.2,13.3c-3.4,1.7-4.6,1-4.5-2.8C84.6,294.5,84.5,292,85.4,289.6c-0.6-3-2.9-5.6-1.5-8.8
			C82.1,284.1,84.8,286.7,85.4,289.6z"/>
		<path class="st0" d="M62.7,1c-1.4,1.9-0.8,3.7,0,5.6c2,4.6,3.8,9.2,5.6,13.8c0.6,1.5,1.5,3,1.1,4.7c-1.2,1-2.6,0.5-3.9,0.7
			c-4.4,0.4-5,1.6-2.6,5.2c1.5,2.2,3.2,4.2,3.6,7.1c-3,0.7-5.5,0-8-0.9c-1.3-0.5-2.6-0.6-3.7,0.4c-1.2,1.2-0.3,2.5,0.1,3.7
			c0.6,1.7,1.4,3.3,2,5c-1.3,1.4-2.3,0.2-3.2-0.2c-2.3-0.9-4.6-2.2-7-2.6c-3.3-0.5-4.7-2-5.4-5.3c-0.8-4.3-3.7-7.4-7.7-9.2
			c-4.7-2.1-8.8,0.3-9.4,5.4c-0.7,5.4,4,12.6,9.2,14.1c2.1,0.6,4.4,0.7,6.1-0.9c2-2,4.1-1.6,6.4-1c4.4,1.2,8.3,3.3,12.1,5.7
			c3.9,2.4,3.9,2.4,1.2,7.1c-1.6-1.4-3.1-2.9-4.8-4.2c-3.7-2.9-5.9-2.8-8.7,1c-1.6,2.2-2.8,2.4-5.2,1.1c-6.6-3.8-13.8-4.6-21.2-3.5
			c-3.5,0.5-3.9,1.5-2,4.6c3.1,5,6.8,9.5,11.2,13.3c1.9,1.6,2.8,2.9-0.1,4.3c-0.6,0.3-1.1,0.8-1.5,1.2c-1.5,1.7-3.9,3.3-3.1,5.8
			c0.7,2.4,3.5,1.3,5.3,1.8c0.6,0.2,1.2,0.4,2.1,0.7c-0.2,2.1-2,3.1-3,4.4c-3.1,3.9-3.2,3.9,0.5,7.1c0.4,0.3,0.8,0.6,1.1,0.9
			c-0.4,2.1-2.2,2.6-3.4,3.6c-4.9,4-9.1,8.7-11.8,14.6c-0.7,1.6-2.3,3.3-0.9,5.1c1.2,1.6,3.1,0.4,4.7,0.2c3.8-0.5,7.5-1.5,11-3
			s6.7-3.6,9.7-5.8c2.1,1,1.6,2.9,2.1,4.4c1.1,3,1.9,3.4,4.7,2.1c6.4-3,6.5-3.1,8.7,3.9c1.3,4.1,3.7,1,5.9,1.3
			c1.1,3.8,0.4,7.6-0.5,11.5c-0.3,1.2-1,2.6,0.3,3.7c1.3,1,2.5,0.1,3.7-0.3c1.4-0.5,2.7-1.1,4.4-1.8c0.6,4.7-0.5,8.7-1.4,13.7
			c-3.1-3.2-5.2-6.4-8.5-8.2c-1.2-0.7-2.1-2.6-3.8-1.4c-1.5,1-0.7,2.8-0.5,4.2c0.7,5.8,1.6,11.5,2.4,17.3c0.1,0.6,0.3,1.3-0.5,1.9
			c-1.6-2.2-1.3-4.7-1.5-7.1c-0.2-1.5-0.4-3.1-2-3.8c-1.7-0.7-2.8,0.6-3.9,1.5c-2,1.7-3.5,4-4.9,6.3c-0.7,1.2-1,2.8-3.3,3.4
			c-0.7-6-2.8-11.6-4.4-17.2c-0.4-1.5,1-2.4,1.6-3.5c2.4-4.6,1.7-10.8-1.9-14.4c-2-2-4.4-3.3-7.1-2.6c-2.9,0.7-4.7,2.9-5.5,5.9
			c-1.7,6.2,1.2,12.4,7.1,14.5c2,0.7,3,1.7,3.6,3.6c0.8,2.8,1.7,5.7,2.8,9.4c-3.3-1.4-5.7-2.5-8.3-3.3c-2.6-0.9-3.4-0.2-3.1,2.5
			c0.1,1.3,0.6,2.6,0.8,3.9c0.4,3.5-0.5,4.2-3.9,2.8c-0.5-0.2-0.9-0.4-1.3-0.7c-4.4-2.4-5.3-2-6.3,3.1c-1.2,6.3-0.4,12.3,2.9,17.8
			c1.3,2.2,1.5,3.8-0.5,5.6c-1.2,1.1-2.1,2.6-2.7,4.1c-0.9,2.1-2.2,3.6-4.3,4.4c-1.7,0.7-3.4,1.6-3.6,3.8s1.9,2.4,3.3,3.2
			c0.6,0.3,1.2,0.6,1.7,1c1.4,1.1,1.5,2.1-0.4,2.9c-5.1,2.1-5.2,2.7-2.9,7.8c1.8,3.9,4.5,7,8.2,9.1c2.6,1.5,2.5,2.7,0.8,4.9
			c-2.6,3.2-3.9,7-4.5,10.9c-0.5,3,0.5,3.7,3.3,2.7c2-0.8,3.7-2.2,6-1.8c1,1.2,0.1,2.3-0.1,3.3c-0.9,4.2,0,5.4,4.5,5.5
			c2.6,0,5.2-0.4,7.9-0.6c-0.6,3.6-2.3,5.4-5.7,6.1c-4.6,0.9-8.9,2.8-12.1,6.4c-2.6,2.9-2.1,4.4,1.5,5.7c0.3,0.1,0.6,0.2,1,0.3
			c4.9,1.6,4.9,1.6,1.8,5.9c-3.6,4.9-3.4,6.2,1.6,9.9c1.4,1,1.7,1.8,0.6,3.2c-0.8,1-1.6,2.1-2.3,3.2c-2.8,4.2-4.7,8.7-5.7,13.7
			c-0.4,2-0.5,4.3,1.4,5.4c2,1.2,3.3-1,4.6-2.1c4.6-3.8,9.3-7.5,14.2-10.9c2.2-1.5,3.4-1.7,4.9,1.1c2.5,4.9,3.9,4.9,7.2,0.5
			c2.1-2.7,2.4-2.7,4.6,0.1c0.7,0.9,1.3,1.9,1.9,2.9c2.1,3.5,2.8,3.6,5.9,0.7c1.5-1.5,2.9-3.1,4.3-4.7c3.7,5.3,3.8,7.2,0.7,11.9
			c-2.3,3.5-1.8,7.3-1.3,11.1c-20.6,0-41.1,0-61.7,0C1,216.3,1,108.7,1,1C21.6,1,42.1,1,62.7,1z"/>
		<path class="st0" d="M66.7,324c-1.7-2.4-1.6-5.1-0.8-7.6c1-3.2,3.7-3.8,6.1-1.4c2.6,2.5,2.8,5.9,3.6,9.1
			C72.7,324,69.7,324,66.7,324z"/>
		<path class="st1" d="M33,264.2c0-2.2,1.3-3.6,2.1-5.2c18.2-35,30.4-72,35.9-111.2c3.7-26.1,4.2-52.3,2-78.5c0-0.5-0.1-1-0.2-1.5
			c-0.3-4.1-0.3-4.3,3.8-4.3c14.6,0,29.2,0.2,43.7,0.1c2.6,0,3.5,1,3.6,3.4c0.4,7.1,1.2,14.2,1.5,21.4c0.9,22.6,0.8,45.1-1.7,67.6
			c-4.2,37.2-13.8,72.6-33.1,105c-2.7,4.6-5.5,6.2-11.1,5.7c-13.4-1.2-26.8-1.2-40.2-1.8C37.2,265,35,265.1,33,264.2z"/>
		<g>
			<path class="st2" d="M28.5,80.4c2.3-3.2,5.9-4.1,9.6-4.8c5.8-1,5.8-1,6.2-7c0.2-4,1.7-7.4,3.9-10.6c1.2-1.8,2.6-1.9,4.1-0.5
				c1.7,1.6,3.3,3.3,5.1,4.8c2.8,2.4,4.1,2.1,5.3-1.4c0.9-2.3,1.8-4.6,3.1-6.7c0.8-1.3,1.7-1.4,2.8-0.4c1.6,1.6,3.5,3,4.9,5.2
				c-1.2,1.2-3.5,0.5-4.2,2.3c-0.6,1.5,0,3,0.1,4.4c0.5,8.6,1.6,17.2,1.3,25.8c-1.5,0.7-3.6-1.6-4.3,1c-0.6,2,0.3,3.8,2.4,4.1
				c2.1,0.4,2.1,1.8,2.1,3.3c-0.2,3.3,0.9,6.6-2.9,9.2c-1.7,1.1-2,4.4-3.5,6.4c-1.7,2.2-3.8,4.1-6.4,5.5c-1-1.8-1.7-3.4-2.7-4.9
				c-2.4-3.5-3.2-3.7-7-2.1c-4.4,1.9-4.9,1.6-4.9-3.2c0-3.2,0.2-6.3,1-9.4c0.8-2.7-0.2-4.2-3.2-4.1c-3.4,0.1-6.6-0.6-9.6-2.2
				c-2-1-2.3-2.2-0.6-3.8c1.2-1.2,2.3-2.3,3.5-3.5c2.7-2.6,2.4-3.8-1.1-5.2c-0.9-0.4-1.9-0.5-2.9-0.7C30,81.6,29,81.7,28.5,80.4z"/>
			<path class="st2" d="M168.1,85.1c-3.4,3.6-7.6,4.9-11.9,6.2c-1.3,0.4-3.4-0.5-3.6,1.6c-0.2,1.7,1.7,2.2,2.9,3c3,2,4.9,5,5.6,8.5
				c0.2,1.1,1.1,2.9-1,3.1c-1.8,0.2-1.8-1.4-2-2.8c-0.5-4.1-0.5-4-4.3-3c-4.9,1.3-9.2,3.7-13.1,6.8c-3.3,2.6-3.3,2.6-6.3-0.5
				c-1-1.1-2.1-2.1-3.1-3.2c-2.6-2.8-3-5.5-1.2-9c1.2-2.3,1.7-4.2-0.6-6.2c-1.3-1.1-0.9-2.8-1-4.2c-0.5-6.6-0.9-13.2-1.4-19.9
				c-0.4-5.3-0.3-5.3-5.5-5.7c-0.5,0-0.9-0.3-1.5-0.5c0.4-4,2.3-7.2,4.9-10.1c1.4-1.5,2.7-1.8,3.8,0.4c1.1,2.4,2.8,4.5,4.9,6.2
				c2,1.7,3.7,1.7,5.6-0.4c1.3-1.4,2.1-3.4,4.1-4.5c2.8,3.1,3.2,6.7,2.4,10.6c-0.8,4.3-0.5,4.6,3.8,4.1c5.4-0.6,10.5,0.4,15.7,3.2
				c-1.9,2.6-4.4,4.3-5.8,6.9c-1.4,2.6-0.9,4.2,1.5,5.8C163.1,83.1,165.9,83.2,168.1,85.1z"/>
			<path class="st2" d="M18.9,267.7c1.7-2.2,3.8-3.1,6-4c2.1-0.8,4.2-1.9,4.4,1.9c0.1,1.9,1.8,2.1,3.4,2.2c2.3,0.2,4.6-0.2,6.8,0.5
				c-0.1,0.4-0.1,0.7-0.3,1c-0.5,0.9-1.9,1.8-0.4,2.9c1.1,0.8,2.9,0,3.1-0.7c1.2-4.6,4.6-3,7.4-2.9c8.4,0.3,16.9,0.7,25.3,1.1
				c1.6,0.1,3.3,0,4.7,1.2c2.4,2.2,2.3,3.6-0.6,5c-2,1-3.8,2-5.3,3.6c-1.7,1.9-1.8,3.4,0.6,4.7c1.4,0.8,3,1.5,4,3.3
				c-3.6,2.3-7.5,1.9-11.3,1.3c-3.9-0.5-3.9-0.7-4.4,3.3c-0.4,3.2-1.4,6.1-3.3,8.7c-1.5,1.9-2.8,2.9-4.4,0.1
				c-0.9-1.6-2.2-2.9-3.4-4.3c-2.5-2.6-3.1-2.5-5.3,0.4c-0.8,1.1-1.2,2.4-2.7,3.3c-2.9-2.8-2.6-6.5-2.5-10c0.2-4.7,0.2-4.8-4.4-3.8
				c-4.4,1-8.6,0.1-12.6-1.7c-3.1-1.4-3.2-2.1-1.4-4.8c0.8-1.2,1.9-2.3,2.8-3.5c2.2-2.9,1.9-4.4-1.3-6.3
				C22.3,269.5,20.3,269.6,18.9,267.7z"/>
			<path class="st2" d="M18.4,168.6c9.6,3.4,10.8,2.6,10.9-6.9c3.6,0.1,5.8,2.7,8.3,4.7c4.5,3.6,5.3,3.5,8.1-1.5
				c1.3-2.3,2.4-4.7,4.8-6.4c1.8,2.2,1.2,4.9,1.8,7.2c1.1,3.7,2.3,4.3,5.7,2.5c1.6-0.8,3.2-1.7,4.8-2.5c0.3-0.1,0.6,0,1.1,0
				c1.2,1.3,0.3,2.8,0,4.1c-1,4.9-2.1,9.7-3.4,14.5c-0.7,2.6-0.6,5.8-4.6,6.1c-1,0.1-1.9,1.4-0.7,2.7c2.3,2.6,2.3,2.6,0.2,6.1
				c-1.3-3.1-1.8-6.2-3.6-8.8c-2.3-3.5-3.1-3.6-5.8-0.6c-4.9,5.4-4.9,5.4-7.8-1.7c-1.3-3.2-2.3-3.5-5.1-1.4c-3.4,2.5-5.3,5.9-6,10
				c-0.4,2.2-1.3,2.7-3.4,2.3c-2-0.4-4.2-0.5-6.3-0.7c-0.1-2.6,1.6-3.9,3.1-5.1c2.4-1.9,2.3-3.5,0.7-5.9c-3.1-4.5-4.7-9.5-4.1-15
				C17.2,170.9,17.3,169.7,18.4,168.6z"/>
		</g>
		<g>
			<path class="st1" d="M130,31.6c-0.7,2.1-2.2,2.6-3.1,3.7c-1.8,2.5-1.3,4.3,1.7,5.2c0.3,0.1,0.7,0.1,1,0.1
				c5.1,0.1,6.5,0.8,2.6,6.6c-1.1,0.2-1.4-0.7-1.7-1.4c-1.2-2.6-2.9-2.2-4.9-1.1c-4.8,2.7-6.9,7.4-8.8,12.2c-1.3,3.1-4.5,3.9-7,1.6
				c-0.6-0.6-1-1.3-1.6-1.9c-2.4-2-3.7-1.6-4.4,1.5c-0.3,1.5-1.1,1.5-2,1.5c-4.3,0-8.6,0-12.9,0c-1.2,0-2-0.2-2.6-1.6
				c-1.4-3.1-2.1-3.3-4.2-0.6c-1.7,2.2-2.8,1.6-4.3,0.2c-2.7-2.7-5.5-5.3-8.2-7.9c-1.2-1.2-2.4-2.1-3.8-0.6
				c-1.6,1.6-2.5,0.7-3.4-0.7c-1.3-2.1-2.7-4.1-3.5-6.8c2.3-0.7,4.4,0.2,6.4,0.1c4.4-0.4,5.6-2.2,4.1-6.2c-0.8-2-1.9-3.8-3.1-6.3
				c4.9-0.3,9.1,0.7,13.3,1.9c1.3,0.4,2.4,1.1,3.7,1.4c1.9,0.6,3.2,0.3,3-2.3c-0.4-4.5,1.1-8.5,3.7-12.1c2-2.7,2.7-2.6,4.2,0.4
				c0.5,1,1.1,2.1,1.8,3c2.2,2.8,3.4,2.8,6,0.3c2-1.9,3.6-4.3,6.1-5.9c2.7,4,3.1,8.3,3.6,12.6c0.6,5.7,1.3,6.1,6.9,4.5
				C122,31.8,125.7,31,130,31.6z"/>
			<path class="st1" d="M141.3,240c-1.4,2.7-3.4,4-5,5.6c-2.2,2.2-2,2.9,1,4c0.3,0.1,0.6,0.2,1,0.3c2,0.7,4.8,0.7,5,3.2
				c0.1,2-2.5,2.9-4.1,3.9c-1.5,1-3.3,1.4-5.1,2c-4,1.2-4.6,3.2-1.8,6.4c2.3,2.6,3.4,5.7,3.9,9c0.6,3.6-0.2,4.2-3.6,3.3
				c-0.6-0.2-1.3-0.4-1.9-0.5c-4.3-1.2-4.8-0.9-5.9,3.4c-0.4,1.7-0.3,3.6-1.9,5.1c-3.5-2-6.2-4.8-8.4-8.2c-2.2-3.3-2.5-3.4-5.9-1.3
				c-3.8,2.3-7.4,4.8-11.7,6c-0.2-0.6-0.4-1-0.3-1.2c1.6-7.1,1.6-7.1-5.1-9.5c-2-0.7-2.2-1.8-1.3-3.4c2.7-4.6,5.4-9.1,8.1-13.7
				c0.7-1.2,1.8-1.1,3-1.4c3.5-0.7,3.9-1.5,2-4.4c-1.8-2.7,0.4-4.1,1.2-5.9c0.5,0.1,0.7,0,0.7,0.1c0.8,1,0.7,3.6,2.8,2.3
				c1.5-1,1.3-3.7,0-4.3c-3-1.4-1.6-3-0.9-4.7c1.4-3.3,2.8-6.7,4.3-10.4c1.6,0.9,1.8,2.3,2.4,3.3c1.9,3.1,2.6,3.2,4.8,0.2
				c1.5-2,2.4-4.3,4.4-6.3c2.1,1.5,2.3,3.8,2.8,5.9c0.5,2.1,0.6,4.3,0.6,6.4c-0.1,4.9-0.1,4.8,5,4.2
				C134.5,238.8,137.6,238.8,141.3,240z"/>
			<path class="st1" d="M45.7,228.6c-1.4-0.6-1-3.3-3-2.1c-1.4,0.8-1.2,2.7-0.3,3.5c2.2,2.2,1.1,4.2,0.1,6.3
				c-1.2,2.7-2.4,5.5-3.7,8.2c-2,4.2-7.8,7.2-12.3,6.5c-1.5-0.2-2.1-0.9-1.7-2.4c0.4-1.3,0.9-2.5,1.4-3.7c1-2.8,0.6-3.6-2.5-3.4
				c-2.3,0.1-4.5,0.7-7.4,1.2c0.5-3.8,2.5-6.5,4.6-9.2c2.9-3.6,2.8-4.1-1.1-6.3c-3.9-2.1-7.1-4.8-9-8.9c-0.8-1.6-0.5-2.5,1.3-3.4
				c6.2-3.3,6.2-4.4,0.7-8.7c-0.5-0.4-1-0.8-2.3-1.9c3.9-1.6,7.2-3.2,11-2.6c1.3,0.2,2.6,0.6,3.9,0.9c3.6,1,4,0.9,4.5-2.8
				c0.5-3,1-5.9,2.9-8.4c1.3-1.7,2.5-2.2,3.4,0.4c0.3,0.9,0.8,1.8,1.3,2.7c2.3,3.6,4.3,3.8,7.6,0.8c4.2-3.8,5.1-3.8,6.2,1.9
				c0.9,4.6,3.3,9.1,1.1,14c-0.8,1.7-0.8,3.9-3.7,3.8c-1.1-0.1-2.1,1-2.5,2.2c-0.5,1.6,0.7,1.8,1.9,2.2c1.5,0.5,0.7,1.6,0.4,2.4
				C47.6,223.9,46.7,226,45.7,228.6z"/>
			<path class="st1" d="M164.3,155.3c-5.5,0.7-9.8-1.4-13.8-4.1c-1-0.7-1.8-1.5-2.7-2.2c-2.5-1.7-3.4-1.3-3.7,1.8
				c-0.4,4.1-1.5,7.7-4.3,11c-2.6-1.5-3.6-4.8-6.7-5.1c-3.4-0.3-2.9,4.1-5.5,4.9c-1.7-1.2-1-2.7-0.8-4.1c0.4-4.3,0.9-8.6,1.2-12.9
				c0.2-2.6,0-5,3.5-6.1c2.7-0.9,2.3-3.6-0.7-4.8c-1.2-0.5-2-0.8-2-2.2c0-7.6,0-15.2,0-23.1c2.8,0.7,3.7,2.4,5,3.7
				c3.6,3.4,3.6,3.5,7.2,0.3c3.1-2.8,6.6-5.1,10.4-6.6c2.1-0.9,3.6-0.7,3.3,2.2c-0.1,0.5-0.1,1-0.1,1.5c-0.1,7.3-0.1,7.3,7,6.4
				c4.1-0.5,4.3-0.3,4.2,3.7c-0.1,2.7-0.1,5.4-1.5,7.8c-1.5,2.7-0.7,4.1,1.6,5.7c2.4,1.6,3.7,4.2,4.3,7c0.3,1.5,0,2.4-1.9,2.7
				c-6.4,1-6.4,1.2-5.2,7.6C163.6,151.8,163.9,153.2,164.3,155.3z"/>
			<path class="st1" d="M157.4,212c2.6,0,4.3,0.3,5.3,2.2s0.3,3.6-0.8,5.1c-2.1,3-5.1,4.6-8.8,4.8c-1.9,0.1-3.7-0.4-4.6-2.2
				c-1-1.8-0.3-3.6,0.8-5.1C151.4,213.8,154.4,212.2,157.4,212z"/>
			<path class="st1" d="M35.9,138.9c-0.1,2.2-0.7,4.7-3.5,5.5c-3,0.8-4.5-1.4-5.7-3.7c-1.6-3.1-1.3-7,0.6-8.9c1.1-1.2,2.4-1.7,4-1.1
				C33.9,131.6,35.9,135.1,35.9,138.9z"/>
			<path class="st1" d="M38.9,40.9c0.1,3.9-2.3,5.5-5.5,4s-6.1-6.3-5.8-9.8c0.2-3.1,2.4-4.5,5.2-3.1C36.4,33.9,38.3,37.2,38.9,40.9z
				"/>
			<path class="st1" d="M112.7,300.6c0.1,3-0.3,4.9-1.2,6.7c-0.8,1.5-1.8,3-3.7,2.8c-1.9-0.2-2.7-1.8-3.1-3.4
				c-0.9-3.1-0.7-6.2,0.7-9.1c0.7-1.5,1.7-2.9,3.7-2.7c2,0.2,2.6,1.8,3.2,3.4C112.6,299.3,112.7,300.5,112.7,300.6z"/>
			<path class="st1" d="M172.4,31.5c-0.1,3.2-1.1,5.8-3.1,7.9c-1.2,1.3-2.6,2.2-4.4,1.5c-1.6-0.6-1.9-2.1-2-3.7
				c-0.2-3.1,0.7-5.9,2.8-8.2c1.1-1.3,2.4-2.4,4.3-1.8C172,28.1,172.2,30,172.4,31.5z"/>
		</g>
		<path class="st0" d="M85.4,289.6c-2.3-3.2-6-5-8.8-7.8c1-2.2,3-2.6,4.8-3.3c1.3-0.6,2.9-0.8,3.7-2.3c0.4-0.8,0.3-2.3,1.8-1.7
			c1.5,0.6,0.7,2,0.5,3C86.4,281.5,85.3,285.4,85.4,289.6L85.4,289.6z"/>
		<g>
			<path d="M192.4,107.7c-3.1,0.8-6.3,1.7-9.4,2.6c-3.7,1-7.3,2.3-10.7,3.9c-1.5,0.7-2.6,1.1-3.6-0.8c-1.1-2.1-3.2-1.1-5-1
				s-3.7,1.1-5.6-0.5c2.2-2.1,4.9,1.3,6.5-1c1.4-2-0.1-4.2,0-6.3c0-0.8,0.7-1.1,1.4-1.2c9.1-1.3,18.1-1.9,26.3,3.6
				C192.3,107,192.3,107.2,192.4,107.7z"/>
			<path d="M20.7,57c7-1,12.9,0,18.4,2.9c2.1,1.1,3.4,2.5,2.5,5.1c-0.3,0.9-0.4,1.9-0.5,2.9c-0.5,4.2-4,6.2-7.3,3.8
				C28.6,67.9,24.3,63.3,20.7,57z"/>
			<path d="M17.9,117.4c0.8-3.9,3.5-6.6,5.9-9.4c2.4-2.7,5.4-4.8,8.4-6.9c2.5-1.8,5.1-0.7,7.6-0.5c1.1,0.1,1.2,1,1.1,1.9
				c-0.2,1.8-0.4,3.6-1.5,5.2C36.1,112.4,24.6,117.7,17.9,117.4z"/>
			<path d="M67.4,5.6c7.2,3.4,12.2,9,16.1,15.8c1.1,2,0,4.4-1.1,6.1s-3-0.1-4.5-0.2c-3-0.3-4.5-2-5.5-4.8c-1.8-5.4-4-10.7-6.1-16
				C66.7,6.1,67,5.8,67.4,5.6z"/>
			<path d="M166.3,172.9c-8.4-2.8-14.1-7.9-19.1-14c-1.5-1.8-0.5-3.4,0.4-5.3c4.1,2.1,8,4.5,12.6,5.3c1.4,0.2,2.2,1.5,2.8,2.7
				C164.8,164.8,166.6,168.2,166.3,172.9z"/>
			<path d="M134.9,262.6c7.4-3.8,15.5-2.5,19.9,3.3c0.8,1,2,2.1,1.5,3.5c-0.5,1.7-2.2,0.9-3.4,1.1c-1.5,0.2-3,0.1-4.5,0.2
				C141.9,271.4,136.7,269.9,134.9,262.6z"/>
			<path d="M18.3,308.3c0.5-6.9,3.9-12.3,8.2-17.1c0.7-0.8,9.3-1.3,10-0.5c1.4,1.6,1.4,3.7-0.2,4.8
				C30.1,299.4,24.2,303.9,18.3,308.3z"/>
			<path d="M173.7,54.8c-3.7,2.6-7.4,5.3-11.2,7.9c-1.2,0.8-2.5,0.5-3.9,0.3c-2.5-0.3-4.9-0.6-7.4-0.9
				C152.7,55.9,162,52.5,173.7,54.8z"/>
			<path d="M139.4,299.2c-2.9-0.9-4.2-3.1-5.5-5.1c-2-3-3.7-6.2-5.7-9.3c-0.9-1.5-0.8-2.9,0.2-4.1c0.9-1.1,2.1-0.1,3.2,0.1
				c3.2,0.5,4.8,2.2,5.2,5.6C137.4,290.5,139,294.5,139.4,299.2z"/>
			<path d="M63.7,134.8c0.7-4.2,0.8-8.3,0.4-12.4c-0.2-2.8,2.3-4.2,3.9-6c0.7-0.8,1.5,0,1.9,0.8c1,1.7,0.2,14.1-1.2,15.4
				C67.6,134,66.1,135,63.7,134.8z"/>
			<path d="M97,286.4c-1.9,4.7-4.1,7.2-9.1,9.7c0.1-7,1-13.6,3.1-20c0.4-1.1,1.3-1.4,2.4-1c1,0.4,0.8,1.3,0.6,2.1
				c-0.6,1.9-1.4,3.7-2,5.6c-1.1,3.4-0.5,4,3.2,3.5C95.8,286.2,96.4,285.9,97,286.4z"/>
			<path d="M57.5,146.4c4.7,2.9,6.5,6.6,8.1,10.1c1.5,3.3-0.2,4.9-5.6,5.9C58.5,157.5,58.4,152.4,57.5,146.4z"/>
			<path d="M150.8,37.6c1.1,3.6,2.2,7,3,10.5c0.9,3.6-2.6,4.9-3.7,7.9C147.5,51.2,147.9,42.6,150.8,37.6z"/>
			<path d="M133.6,160.6c-1.6,6.9-3,12.5-6.2,17.5c-1.7-3.1-2.4-6.1-2-9.4c0.1-0.8,0.2-2,1.1-2C130.3,167,130.7,163.1,133.6,160.6z"
				/>
		</g>
		<g>
			<path d="M79,48.3c1.7,0.7,4.4,0.4,4.5,3.3c0.1,1.4-1,1.9-2.3,1.8c-1.7-0.1-4.5-2.8-4.2-4.1C77.2,48.3,78,48.2,79,48.3z"/>
			<path d="M89.2,44.4c-0.2,1.2-1.1,1.7-2.1,1.6c-2.2-0.3-3.6-1.7-3.9-3.8c-0.2-1.2,1-1.7,2.1-1.4C87.2,41.2,88.9,42.2,89.2,44.4z"
				/>
			<path d="M97.8,40c-0.1,1.5-0.1,3-1.9,3c-2.1-0.1-2.1-1.8-1.9-3.3c0.2-1.4,0.1-3.5,1.9-3.5C98.1,36.3,97.3,38.7,97.8,40z"/>
			<path d="M102.9,258.1c1.7,0.4,2.3,1.3,2,2.5c-0.5,1.7-1.2,3.6-3.5,3.4c-1.4-0.1-1.9-1.2-1.7-2.5
				C100,259.5,101.3,258.5,102.9,258.1z"/>
			<path d="M111,259.4c1.4,0.1,2.3,0.8,2.1,1.8c-0.4,1.8,0.1,4.3-2.4,4.8c-1.4,0.3-1.8-1.2-1.9-2.4
				C108.8,261.8,109.2,260.1,111,259.4z"/>
			<path d="M120.6,261.2c0,1.3-0.2,2.5-1.6,2.7c-1.6,0.2-1.6-1.2-1.7-2.3c0-0.2,0-0.3,0-0.5c0.3-1.5-0.7-4,1.4-4.1
				C121,257,120,259.8,120.6,261.2z"/>
			<path d="M125.1,244.9c-0.1,1.3-3,3.4-4.5,3.3c-0.8-0.1-1.2-0.6-1.2-1.3c0-1.4,2.9-3.5,4.4-3.3C124.6,243.7,125,244.2,125.1,244.9
				z"/>
			<path d="M114.2,238.8c1.9,0.9,2,2.3,1.6,3.8c-0.3,1.1-0.5,2.6-2.1,2c-1.8-0.7-1.1-2.5-1.1-3.9
				C112.6,239.7,113.4,239.1,114.2,238.8z"/>
			<path d="M49.8,87.3c1.6-2.2,3.8-2.1,5.8-2c1,0,1.9,0.6,2,1.8c0.1,1.6-1.1,2-2.3,2C53.4,89,51.4,88.9,49.8,87.3z"/>
			<path d="M59.2,92.6c1.3,0,2.1,0.6,2.1,1.7c0,1.9-0.7,3.6-2.8,4.1c-1.2,0.3-1.9-0.6-1.9-1.7C56.4,94.7,57.3,93.2,59.2,92.6z"/>
			<path d="M103.5,45.4c-0.9,0-1.6-0.5-1.7-1.7c-0.1-1.7,2.2-4.4,3.9-4.5c1.4-0.1,2.2,0.6,2.3,2C108.1,42.7,105.5,45.2,103.5,45.4z"
				/>
			<path d="M55.1,75.3c1.6,0.7,3.3,1.4,3.4,3.6c0.1,1.2-0.7,1.8-1.8,1.8c-1.6,0-3.8-2.6-3.5-4.1C53.4,75.7,54.1,75.2,55.1,75.3z"/>
			<path d="M66.3,75c0,1.3-0.4,2.3-1.5,2.3c-2,0.1-2.3-1.5-2.4-3c0-1.1,0-2.7,1.4-2.8C66,71.4,65.7,73.7,66.3,75z"/>
			<path d="M155.1,130.5c-0.2,2-1.7,2.6-3.4,2.8c-1.3,0.2-3,0.1-3-1.6c0-2.3,2.2-2.5,3.9-2.9C153.7,128.5,154.8,129,155.1,130.5z"/>
			<path d="M147.6,135.7c2,0.6,2.7,2.3,2.9,4.1c0.1,1.3-0.6,2.4-2,2.3c-2.1-0.2-2.3-2.1-2.5-3.7C146,137.2,146,136,147.6,135.7z"/>
			<path d="M140.3,140.7c-0.1,1.5-0.5,2.8-2.1,2.9c-1.9,0.1-2.4-1.4-2.4-3c0-1.4,0.6-2.8,2.1-2.9
				C139.8,137.5,140.1,139.1,140.3,140.7z"/>
			<path d="M146.5,124.2c-0.3,1.8-0.8,3.6-2.9,4c-1.3,0.3-1.6-1-1.5-2c0.1-1.8,0.1-3.8,2.4-4.3C145.9,121.7,146.3,123,146.5,124.2z"
				/>
			<path d="M136.5,126.2c-0.1,0.9-0.5,1.9-1.7,1.7c-2.2-0.5-2.2-2.5-2.5-4.3c-0.1-0.8,0-1.7,1-1.9
				C134.6,121.5,136.6,124.2,136.5,126.2z"/>
			<path d="M129.2,72.9c0.4-1.4-0.3-4.1,1.6-4c2.1,0.1,2,3,2.3,4.8c0.3,1.4-0.2,2.8-2,2.6C129.3,76.2,129.2,74.5,129.2,72.9z"/>
			<path d="M143.7,75.7c-0.3,2.1-1.9,2.8-3.7,3c-1.3,0.2-2.4-0.4-2.3-1.8c0.2-1.9,1.9-2.5,3.5-2.9C142.4,73.7,143.4,74.1,143.7,75.7
				z"/>
			<path d="M139.5,94.3c0,1-0.1,2.4-1.7,2.2c-2.3-0.3-2.3-2.4-2.7-4.1c-0.2-1.1,0.5-1.9,1.7-1.8C138.8,90.9,139.3,92.4,139.5,94.3z"
				/>
			<path d="M142,87.6c-1.4-0.1-2.9-0.3-2.7-2.1c0.2-2.1,2-1.7,3.4-1.7s2.8,0.4,2.6,2.1C145.1,88.2,143.3,87.5,142,87.6z"/>
			<path d="M52,277.9c0.1-1.2-0.1-2.9,1.4-2.7c2,0.3,2.1,2.3,2.1,4c0.1,1.2-0.3,2.7-1.7,2.4C51.9,281.1,52.1,279.2,52,277.9z"/>
			<path d="M47.6,276.8c-0.3,1.4-0.3,3.2-2.4,3c-1.1-0.1-1.5-1.3-1.2-2.3c0.4-1.5,0.2-3.7,2.4-3.6C47.9,273.9,47.6,275.6,47.6,276.8
				z"/>
			<path d="M125.7,254.5c-0.8,1-4.4,1.1-5.5,0.1c-0.6-0.5-0.6-1.2-0.2-1.7c0.8-1.1,4.3-1.2,5.5-0.1
				C126.1,253.2,126.1,253.8,125.7,254.5z"/>
			<path d="M59.1,274.9c-0.8-0.9-2.2-2-1-2.9c1.6-1.2,3.1,0.1,4.4,1.2c0.9,0.8,1.7,2,0.5,2.9C61.4,277.2,60.2,275.7,59.1,274.9z"/>
			<path d="M42.4,207.1c1.2,0.6,2,4,1.3,5.4c-0.4,0.7-1,0.9-1.6,0.6c-1.3-0.5-2.1-4-1.3-5.3C41.1,207,41.7,206.9,42.4,207.1z"/>
			<path d="M33.5,211.4c1.3-0.3,4.1,1.8,4.5,3.3c0.2,0.8-0.2,1.3-0.9,1.5c-1.3,0.4-4.2-1.7-4.5-3.2
				C32.5,212.2,32.9,211.7,33.5,211.4z"/>
			<path d="M31.5,220.7c0.7-1.1,4.2-1.6,5.5-0.8c0.7,0.4,0.8,1.1,0.4,1.7c-0.7,1.2-4.1,1.7-5.4,0.8C31.3,222,31.3,221.4,31.5,220.7z
				"/>
			<path d="M34.6,228.3c-0.2-1.3,2.2-3.9,3.7-4.1c0.8-0.1,1.3,0.3,1.4,1c0.3,1.4-2.1,4-3.7,4.1C35.3,229.4,34.8,229,34.6,228.3z"/>
			<path d="M43.3,176.7c1.2,0.6,2,4,1.3,5.4c-0.4,0.7-1,0.9-1.6,0.6c-1.3-0.5-2.1-4-1.3-5.3C42,176.7,42.6,176.5,43.3,176.7z"/>
			<path d="M53,178c0.5,1.2-1.1,4.4-2.5,4.9c-0.8,0.3-1.3,0-1.6-0.6c-0.6-1.2,1-4.4,2.5-4.9C52,177.2,52.6,177.4,53,178z"/>
			<path d="M59.1,183.6c0.1,1.3-2.5,3.8-4,3.8c-0.8,0-1.2-0.4-1.3-1.1c-0.2-1.4,2.4-3.8,4-3.8C58.5,182.4,58.9,182.9,59.1,183.6z"/>
			<path d="M34.6,181.2c1.3-0.4,4.3,1.4,4.7,2.9c0.2,0.8-0.1,1.3-0.7,1.6c-1.3,0.5-4.3-1.3-4.7-2.8C33.7,182.1,34,181.6,34.6,181.2z
				"/>
			<path d="M108,52.4c-1.4,0.2-3,0.5-3.3-1.2c-0.4-2,1.3-2.4,2.8-2.6c1.4-0.2,3.5-0.7,3.8,1.1C111.7,51.9,109.2,51.7,108,52.4z"/>
		</g>
		<g>
			
				<linearGradient id="SVGID_1_" gradientUnits="userSpaceOnUse" x1="105" y1="908" x2="105" y2="1232" gradientTransform="matrix(1 0 0 1 0 -908)">
				<stop  offset="0" style="stop-color:#EB1A21"/>
				<stop  offset="1" style="stop-color:#A51A21"/>
			</linearGradient>
			<path class="st3" d="M210,324c-70,0-140,0-210,0C0,216,0,108,0,0c70,0,140,0,210,0C210,108,210,216,210,324z M199.9,162.6
				c0-46.5-0.2-87.6-0.2-134.1c0-9.4-3.5-18.1-13-18.1c-50.8,0-101-0.4-151.8-0.4c-4,0-8.3,0.5-12.3,0.7
				c-5.9,0.2-11.3,6.1-11.3,11.8c0,93.3-0.4,182.4-0.4,275.8c0,1.5,0.2,1.6,0.3,3.1c0.7,6.6,5,12.6,11.3,12.6
				c55.5,0,107.4,0.2,162.9,0.3c1.9,0,3.6-0.7,5.3-1.7c5.5-3,9.5-6,9.5-12.1C200.1,254,199.9,208.9,199.9,162.6z"/>
			<path d="M200.8,161.4c0.1-9.1,0-18.3,0.1-27.6c0.2-36.3,0.1-72.7,0-109c0-9.1-6.8-15.3-16-15.3c-52.8,0-105.7,0-158.5,0
				c-9.4,0-15.6,6.2-15.6,15.8c0,38.4,0.2,76.7,0.1,115.1c0,29.5-0.4,58.9-0.5,88.4c-0.1,23.5-0.1,47-0.1,70.4
				c0,8,6.5,15.3,13.7,15.3c54.3,0.1,108.6,0,162.9,0c2.2,0,4-0.5,5.9-1.8c5.1-3.5,8.1-7.9,8-14.4
				C200.7,252.7,200.8,207.1,200.8,161.4z M186.5,310.2c-3,0-3.7,0-3.7,0s-103.1,0-154.7,0c-8.3,0-13.1-4.5-13-14.9
				c0-22.8,0-45.6,0.1-68.4c0.1-28.6,0.5-57.2,0.5-85.9c0.1-37.3-0.2-75.1-0.1-112.3c0-7.9,2.5-14.8,12.6-14.8
				c50.2,0,105.1,0.2,155.3,0.2c8.7,0,13,5.3,12.6,14.1c0,35.2,0,106.5,0,106.5v27c0,0,0,91.6,0.1,135.9
				C196,304.4,191.2,309.6,186.5,310.2z"/>
		</g>
		<g>
			<path d="M90.3,92.8c0.4-0.6,0.9-0.6,1.4-0.1s1.2,1.5,2.1,3.1c0.8,1.4,1.2,2.4,1.4,3c0.2,0.6,0.1,1.1-0.2,1.5
				c-0.5,0.8-1,1.3-1.6,1.5c-0.6,0.3-1.6,1.3-2.9,3.1c-1.4,2-3.5,5-6.3,9.2s-4.3,6.5-4.4,7c-0.2,0.4,0.9,0.4,3.5-0.1
				c1.8-0.3,2.9-0.7,3.2-1.1c1.6-2.2,2.3-3.8,1.9-4.7c-0.2-0.8-0.2-1.6,0-2.3c0.1-0.7,0.4-1.1,0.9-1.2c0.4-0.2,1.1,0.3,2.1,1.3
				c0.9,1,1.5,1.9,1.5,2.6c0.1,0.6-1.7,3.2-5.4,7.8c-3.7,4.7-6.1,7.8-7.2,9.3s-1.7,2.4-1.6,2.5s1.1-0.3,3-1.4
				c4.8-2.6,7.4-3.4,7.9-2.5c0.3,0.5,0.1,1-0.7,1.5c-0.8,0.4-1.3,0.9-1.6,1.4c-0.3,0.5-0.6,0.8-0.9,0.7c-0.3,0-0.9,0.3-1.7,0.9
				c-0.9,0.5-2.4,1.6-4.5,3l-3.3,2l-1.3-1.3c-0.5-0.5-0.8-0.9-1-1.4c-0.2-0.4-0.2-1.1-0.1-1.9c0.2-1.4,0.4-2.1,0.7-2.2
				c0.4-0.2,2.8-3.1,7.2-8.9c0.4-0.6,0.4-0.8,0.1-0.8c-0.4-0.1-1.2,0.1-2.3,0.6c-2.2,0.8-3.7,1.2-4.5,1.3c-0.8,0.1-1.4,0-1.7-0.4
				c-0.4-0.7-0.5-1.5-0.3-2.6s0.6-1.6,1.2-1.6c0.5-0.2,2.3-2.4,5.4-6.9c3.1-4.4,5.5-8.3,7.2-11.5c1.1-2.1,2-3.4,2.5-3.9
				c0.5-0.4,0.8-1,0.8-1.7c0.1-0.7-0.1-1.2-0.6-1.6c-0.4-0.4-0.6-1.1-0.7-1.8C89.8,93.8,89.9,93.2,90.3,92.8z M87.7,142.3
				c2.3-1,3.5-1.2,3.6-0.6c-0.1,0.4-1.1,1.3-3.2,2.8s-4.8,3.5-8.2,6.2c-3.4,2.6-5.1,4-5.3,3.9c-0.3,0-0.8-0.7-1.6-1.9
				c-0.8-1.3-1.2-2.1-1.3-2.6c0-0.6,0.1-1.1,0.3-1.3c0.2-0.3,0.5-0.4,0.9-0.3c0.4,0.1,0.8,0.3,1.3,0.6c0.5,0.5,1,0.7,1.4,0.6
				c0.4-0.1,1.3-0.7,2.7-1.8c0.7-0.5,1.4-1,1.9-1.4c0.6-0.4,1.2-0.8,1.9-1.2c0.7-0.4,1.2-0.7,1.5-0.8c0.3-0.2,1-0.5,2-1
				C86.7,142.8,87.4,142.5,87.7,142.3z M113.1,114.7c0.1-0.4,0.3-0.9,0.6-1.4c0.3-0.5,0.7-0.7,0.9-0.7c0.6,0.1,1.6,0.6,3,1.5
				s2.3,1.7,2.7,2.2c0.4,0.5,0.5,1,0.5,1.3s-0.2,0.8-0.4,1.4c-0.4,0.7-0.7,1-1,1.1s-0.9-0.1-1.8-0.4c-2.4-0.9-4.9-1.1-7.4-0.6
				c-1.9,0.4-2.8,0.6-2.9,0.7c0,0.1,0.1,0.3,0.5,0.6c0,0.1,0.1,0.1,0.3,0.2c0.6,0.6,1.5,1.8,2.8,3.6l1,1.4l-1.9,5.2
				c-1.3,3.4-2.7,6.5-4.2,9.3s-2.2,4.2-2.2,4.3c0.1,0.1,1.6,0.1,4.6,0.1s5,0,5.9,0.2s1.8-0.2,2.6-1.1c0.8-0.9,1.4-1.3,1.8-1.2
				s1,0.8,1.9,2.1c0.8,1.5,1.7,2.6,2.4,3.4c0.4,0.5,0.6,1,0.7,1.4s0.1,1-0.1,1.8c-0.3,1.4-0.7,2.1-1.3,2c-0.6-0.1-1.4-0.7-2.5-2.1
				l-1.7-2.2l-5.2-0.6c-6.8-0.9-12.7-0.6-17.6,0.8c-1.9,0.5-3.1,0.8-3.6,0.8c-0.6,0-1.1-0.2-1.6-0.7c-0.6-0.5-1.1-1.1-1.3-1.8
				c-0.2-0.7-0.2-1.2,0.2-1.6c0.2-0.3,0.8-0.3,1.9-0.2s2.7,0,4.9-0.4c1.6-0.3,2.7-0.7,3.2-1s1.3-1.2,2.4-2.8
				c1.1-1.7,2.3-3.8,3.5-6.5c1.2-2.6,2.1-5,2.6-6.9c0.3-0.9,0.4-1.5,0.3-2s-0.3-1.2-0.7-2.1c-0.8-1.5-1-2.5-0.8-3
				c0.2-0.6,0.1-0.8-0.3-0.8c-0.6,0-1.9,0.5-3.9,1.5c-2.6,1.2-4.1,1.8-4.4,1.8s-0.7-0.7-1.2-2s-0.7-2.2-0.7-2.7
				c0.1-0.5,0.7-0.6,2-0.1c1.2,0.5,2.8,0.2,4.6-0.6c1.8-0.9,4.1-1.6,6.8-2.1C111.7,115.4,113,115,113.1,114.7z"/>
		</g>
		<g>
			<path d="M71.9,189.1c0.3-0.4,0.6-0.6,0.9-0.6s0.5,0.3,0.7,0.7c0.1,0.3,0.7,0.6,1.9,1.1c1.1,0.4,1.8,0.8,2,1.2
				c0.2,0.5,0.3,1.3,0.1,2.7c-0.2,1.2-0.2,1.8,0.2,1.8c0.1,0,0.3-0.2,0.5-0.6c0.4-0.9,1.5-1,3.1-0.2c1.7,0.9,2.5,2,2.2,3.3
				c-0.1,0.4-0.3,0.8-0.6,1.2c-0.3,0.4-0.7,0.6-0.9,0.6c-0.3,0-0.8-0.2-1.7-0.6c-0.8-0.4-1.4-0.7-1.8-0.7s-0.9,0.1-1.5,0.5
				c-0.7,0.3-1.3,0.9-1.8,1.8c-0.5,0.9-0.9,1.8-1,2.6c-0.1,0.5,0.3,1.1,1.1,1.8c0.8,0.7,1.8,1.9,3.1,3.6l2.1,2.7l-2.6,3.3L76,212
				c-2-3.2-3.2-4.5-3.6-3.8c0,0-0.1,0.1-0.2,0.2c-1.2,3-2.9,5.9-5.2,8.9c-2.3,2.9-4.2,4.8-5.7,5.6c-1.4,0.6-2,0.6-1.7-0.1
				c0.1-0.6,0.7-1.3,1.8-2.3c1.5-1.2,2.9-2.9,4.3-5.2c0.9-1.6,2.2-4.2,3.9-8c1.7-3.7,2.5-5.7,2.4-5.9c-0.1-0.1-0.7,0.1-1.8,0.7
				c-0.5,0.2-1.5,0.6-3.1,1.3s-2.8,1.2-3.6,1.8c-1.4,0.7-2.3,1-2.8,0.9s-1.1-0.9-1.9-2.3c-1-1.7-1.3-2.7-0.8-3.2
				c0.5-0.4,1-0.3,1.6,0.3s1.3,0.9,2.1,0.8c0.5-0.1,2.4-0.7,6-1.7c3.5-1.1,5.4-1.7,5.6-1.9c0,0,0.2-0.6,0.6-1.8
				c0.3-1.2,0.4-2.1,0-2.6c-0.4-0.6-0.8-1-1-1.3s-0.5-0.7-0.7-1.1c-0.2-0.4-0.4-0.8-0.5-1.1C71.8,189.6,71.8,189.3,71.9,189.1z
				 M74.6,168.7c0.5-0.6,1-0.8,1.3-0.7s0.7,0.7,1.1,1.7c0.4,1.1,0.8,2,1.1,2.6c0.6,1.3,0.9,2.3,0.9,2.8s-0.4,1.7-1.3,3.4
				c-0.3,0.6-0.5,1.2-0.7,1.7s-0.4,1-0.5,1.5c0.4,0.1,1-0.1,1.6-0.5s1.1-0.9,1.3-1.3c0.3-0.7,0.7-1,1.1-0.9c0.5,0.1,1.2,0.5,2.2,1.4
				s1.7,1.3,2.1,1.4c0.4,0.1,0.6,0.6,0.4,1.5c-0.1,1-0.4,1.7-0.9,2.3c-0.4,0.5-0.8,0.7-1,0.6c-0.2,0-0.7-0.3-1.4-0.9
				c-0.7-0.6-1.2-1-1.6-1s-1.2,0.2-2.5,0.7c-3.7,1.2-5.6,2.1-5.7,2.7c-0.1,0.4-1.1,1.6-3.1,3.5c-2,2-3.1,2.7-3.4,2.2
				s-0.3-0.9,0.1-1.2c1.1-0.7,2.7-3,4.9-6.9c2.2-3.8,3.5-6.8,3.9-8.7c0.3-1.2,0.4-2,0.4-2.5c0-0.4-0.2-1-0.5-1.7
				c-0.6-0.9-0.9-1.6-0.9-2.2C73.7,169.7,74,169.1,74.6,168.7z M95.5,207c0.1-0.6,0.4-0.8,1-0.7c0.5,0.1,1.3,0.6,2.5,1.7
				c1.2,1.1,1.8,1.8,1.9,2.1c0,0.5-0.6,1.6-1.7,3.1s-2.6,3.2-4.4,5c-1.9,2.1-2.9,3.2-2.9,3.3s1.5,0.3,4.4,0.7s4.4,0.4,4.5,0
				c0.2-1,0.5-1.5,1.1-1.6c0.5,0,1.2,0.4,2,1.2c0.9,1.1,1.5,1.5,1.9,1.3c0.5-0.1,1.1,0.4,1.6,1.6c0.6,1.2,0.8,2.2,0.7,3.1
				c-0.1,0.9-0.6,1.5-1.3,1.9c-0.5,0.2-0.9,0.2-1.2,0.1c-0.3-0.2-0.8-0.6-1.4-1.4c-0.7-0.8-1.4-1.3-2-1.6s-2.4-0.6-5.4-1.1
				c-6.8-1.1-12.5-0.8-17.2,0.7c-2.4,0.6-4.1,0.9-5.1,0.7s-1.9-0.9-2.6-2.2c-0.6-0.9-0.8-1.6-0.4-2s1.1-0.4,2.2,0
				c1,0.3,2.9,0.3,5.7-0.1c2.8-0.4,4.3-0.5,4.7-0.5c2.1,0,3.7-0.5,4.7-1.3s3-3.3,6-7.5l2-2.6l-0.7-1.5
				C95.5,208.4,95.4,207.6,95.5,207z M101.2,189c0.9-0.4,1.6-0.5,2.1-0.4s1,0.7,1.8,1.6l1.3,1.8l-1.6,1.9c-1.1,1.3-1.6,2-1.7,2.3
				c-0.1,0.4-0.9,1.9-2.4,4.5s-2.5,4.1-2.9,4.4c-0.5,0.4-1,0.3-1.6-0.2c-0.8-0.8-2.1-1.1-4.1-0.9c-2,0.3-3.5,0.9-4.8,2
				c-0.8,0.8-1.4,1.2-1.7,1.2c-0.4-0.1-0.6-0.6-0.9-1.6c-0.2-1-0.2-1.7,0-2.1c0.2-0.3,0.4-1.7,0.4-4.2s-0.2-4.3-0.8-5.2
				c-1.2-2.1-1-3,0.8-2.7c1.9,0.3,2.8,2.1,2.6,5.5c-0.1,2.5-0.1,3.9-0.1,4.4s0.2,0.7,0.6,0.6c4.5-1.1,7.1-1.6,8-1.7
				c0.8-0.1,1.3-0.3,1.6-0.6c0.3-0.3,0.7-1.3,1.4-3.1c1.1-2.7,1.5-4,1.4-4s-0.2,0-0.5,0.2c-0.5,0.2-1.6,0.3-3.1,0.4
				c-1.6,0.1-2.8,0.3-3.8,0.7c-0.7,0.4-1.4,0.4-2.1,0.1c-0.7-0.3-0.9-0.8-0.8-1.5s2.6-1.4,7.4-2.2C99.1,189.8,100.3,189.5,101.2,189
				z M100.8,177.3c0.3-0.7,0.7-1,1.3-0.9c0.5,0.1,1.5,0.7,2.9,1.7c1.2,1,1.9,1.8,2.1,2.5c0.2,0.6,0.1,1.4-0.4,2.2
				c-0.3,0.5-0.6,0.8-1,0.8c-0.3,0-1-0.3-2.2-0.9c-1.1-0.5-1.9-0.8-2.6-0.9c-0.6-0.1-1.7,0-3.1,0.2c-2.2,0.4-4.1,0.8-5.9,1.3
				c-1.3,0.3-2.1,0.5-2.5,0.5c-0.3,0-0.7-0.3-1-1c-0.5-0.7-0.7-1.6-0.5-2.6c0.1-0.6,0.2-1,0.4-1.1c0.2-0.1,0.6-0.1,1.2,0.2
				c1,0.4,3.1,0.3,6.2-0.2C99,178.4,100.6,177.9,100.8,177.3z M83.7,209.6c0.1-0.8,0.4-1.3,0.7-1.5c0.4-0.2,0.7-0.1,1,0.3
				c0.3,0.4,0.6,1,0.7,1.8c0.2,1.3,1,1.3,2.6,0.1c1.8-1.4,2.7-1.4,2.5-0.3c-0.1,0.8-0.7,1.8-1.9,3.1c-1.2,1.3-1.8,2.4-2,3
				c-0.2,0.7-0.5,1.3-0.9,1.8s-0.8,0.8-1.1,0.7c-0.2,0-0.6-1.4-1.1-4C83.8,212,83.6,210.3,83.7,209.6z"/>
		</g>
	</g>
	<g>
		<g>
			<path class="st0" d="M38.9,305.7l-5.1-2.3c-3.4-1.7-6.4-4-8.4-7.1s-3.3-6.8-3.7-11l-0.3-3.4h17.4l0.5,2.6c0.2,1.1,0.5,2,0.9,2.8
				c0.5,0.6,0.9,1.1,1.7,1.4c0.8,0.3,1.9,0.6,2.9,0.6c1.9,0,3.3-0.5,4.2-1.2c0.9-0.9,1.2-2.2,1.2-4v-1.7c0-2.2-0.5-3.7-1.2-4.8
				c-0.5-0.5-1.2-1.2-3.3-1.2h-8.2v-16.9h8.2c1.6,0,2-0.5,2.5-0.9c0.6-0.8,0.9-2,0.9-3.9V253c0-1.6-0.3-2.6-0.9-3.3
				c-0.2-0.3-0.9-0.9-2.9-0.9c-0.8,0-1.6,0.2-2.2,0.5c-0.6,0.3-1.1,0.8-1.6,1.6c-0.5,0.8-0.9,1.9-1.2,3.3l-0.5,2.5H22.4l0.5-3.6
				c0.5-4.2,1.9-8.1,3.7-11.2c2-3.3,4.7-5.7,7.9-7.4c3.1-1.7,6.8-2.5,10.7-2.5c6.5,0,11.8,1.9,15.5,5.3c3.7,3.6,5.7,8.7,5.7,14.9
				v1.6c0,3.9-1.1,7.3-3.1,10.1c-0.8,1.1-1.7,2.2-2.8,3.1c1.4,1.1,2.6,2.3,3.6,3.7c2.2,3.3,3.4,7.3,3.4,11.9v1.6
				c0,4.3-0.9,8.2-2.6,11.3c-1.9,3.3-4.5,5.7-7.9,7.4c-3.3,1.7-7.3,2.5-11.8,2.5h-6.4C38.9,305.3,38.9,305.7,38.9,305.7z"/>
			<path d="M45.4,235.4c5.7,0,10.2,1.6,13.3,4.5c3.1,2.9,4.8,7.3,4.8,12.7v1.6c0,3.3-0.8,5.9-2.5,8.4c-1.7,2.3-4,4-7.1,5.3
				c3.4,0.8,6,2.5,7.9,5.1c1.9,2.6,2.8,6,2.8,10.2v1.6c0,3.9-0.8,7.1-2.3,9.9c-1.6,2.8-3.7,4.8-6.5,6.2c-2.9,1.4-6.4,2.2-10.4,2.2
				c-3.9,0-5.7,0-5.7,0s-1.6-0.6-4.5-2c-2.9-1.4-5.3-3.4-7.1-6c-1.7-2.6-2.8-5.9-3.1-9.6h11.2c0.3,1.7,0.8,2.9,1.6,4
				c0.8,1.1,1.7,1.9,2.9,2.5c1.2,0.6,2.6,0.8,4.2,0.8c2.8,0,4.8-0.8,6.4-2.2c1.6-1.4,2.2-3.6,2.2-6.2v-1.7c0-2.9-0.6-5.1-2-6.8
				c-1.2-1.6-3.3-2.3-5.6-2.3h-5.1v-10.9h5.1c2,0,3.7-0.6,4.8-2c1.1-1.4,1.7-3.3,1.7-5.7v-1.6c0-2.3-0.6-4.2-1.9-5.4
				s-2.9-1.9-5.3-1.9c-1.4,0-2.6,0.3-3.7,0.9s-2,1.4-2.8,2.6c-0.8,1.2-1.2,2.6-1.7,4.3h-11c0.5-3.9,1.6-7.1,3.4-9.9
				c1.7-2.8,4-4.8,6.7-6.2C38.9,236,42,235.4,45.4,235.4 M45.4,229.1c-4.5,0-8.5,0.9-12.1,2.8c-3.7,1.9-6.8,4.8-9.1,8.5
				c-2.2,3.6-3.7,7.8-4.2,12.4l-0.9,7h7h8.2v2.8V273v5.9h-9.3h-6.8l0.6,6.8c0.5,4.8,1.9,9,4.2,12.4c2.3,3.6,5.6,6.4,9.6,8.4l4.5,2
				l1.2,0.6h1.4h5.7c5,0,9.3-0.9,13.2-2.8c4-2,7.1-5,9.3-8.8c2-3.6,2.9-7.9,2.9-12.9v-1.6c0-5.4-1.2-10.1-3.9-13.8
				c-0.5-0.8-1.1-1.4-1.7-2.2c0.3-0.3,0.6-0.8,0.9-1.1c2.5-3.4,3.6-7.4,3.6-11.9v-1.6c0-7.1-2.3-13-6.7-17.2
				C58.7,231.2,52.7,229.1,45.4,229.1L45.4,229.1z M42.9,256.3l0.3-1.6c0.2-1.1,0.5-1.7,0.8-2.2c0.2-0.3,0.3-0.5,0.5-0.5
				c0.2-0.2,0.5-0.2,0.8-0.2c0.3,0,0.6,0,0.8,0c0,0.2,0.2,0.5,0.2,0.9v1.6c0,0.9-0.2,1.4-0.2,1.7h-0.2L42.9,256.3L42.9,256.3z
				 M41.5,279.1h4.2c0.6,0,0.9,0.2,0.9,0.2c0.3,0.3,0.6,1.2,0.6,2.8v1.7c0,0.9-0.2,1.6-0.5,1.9c-0.2,0.2-0.8,0.5-2,0.5
				c-0.8,0-1.2-0.2-1.7-0.3c-0.2-0.2-0.3-0.2-0.5-0.3c0-0.2-0.3-0.5-0.5-1.4L41.5,279.1L41.5,279.1z"/>
		</g>
	</g>
</g>
</svg>
