<?xml version="1.0" encoding="utf-8"?>
<!-- Generator: Adobe Illustrator 22.0.1, SVG Export Plug-In . SVG Version: 6.00 Build 0)  -->
<svg version="1.1" id="레이어_1" xmlns="http://www.w3.org/2000/svg" xmlns:xlink="http://www.w3.org/1999/xlink" x="0px"
	 y="0px" viewBox="0 0 210 324" style="enable-background:new 0 0 210 324;" xml:space="preserve">
<style type="text/css">
	.st0{fill:#FFFFFF;}
	.st1{fill:#00707A;}
	.st2{fill:#004C34;}
	.st3{fill:#EB1A21;}
	.st4{fill:#FFC40A;}
	.st5{fill:url(#SVGID_1_);}
</style>
<g>
	<path class="st0" d="M23.9,321c-6.8,0-13.6,0-20.4,0c0-55.7,0-111.3,0-167c1.2,2.8,3.3,3.5,6.2,2.8c4.8-1.1,9.1-3,12.8-6.4
		c2-1.9,2.5-3.8,1.4-6.4c-6-13.5-9.5-27.7-12.9-42C8.4,90.9,6,79.7,3.5,68.6c0-20.6,0-41.3,0-62.1c27.5,0,55,0,82.5,0
		c-4.4,10.1-8.4,20.3-11.3,30.9c-1.8,6.4-3.5,12.8-5.4,19.2c-1.2,4.1-1.7,4.2-5.1,1.5c-4.2-3.4-7.6-7.4-10.7-11.8
		c-6.2-8.8-10.4-18.6-14.1-28.7C39,16.4,38.7,15.1,38,14c-1.1-1.7-2.3-1.6-3.2,0.2C34.3,15,34.2,16,34,17c-1.4,8.5-2.3,17-2.1,25.6
		c0.4,21.1,6.5,39.8,22.7,54.3c2,1.8,1.9,3.3,0.8,5.5c-2.3,4.5-4,9.2-5.2,14.1c-0.9,3.6-2.4,5.8-6,7.3c-6.1,2.5-9.3,7.8-11,14
		c-0.3,0.9-0.5,2,0.5,2.7s1.8,0.1,2.6-0.6c1.6-1.4,3.1-2.8,4.8-4.1c1.1-0.9,2.5-1.9,4-1c1.7,1.1,0.8,2.7,0.2,3.9
		c-1.2,2.7,0.2,3.8,2.4,4.8c4.2,2,8.6,2.8,13.2,2.9c2.1,0.1,3.9,0,4.6-2.5c0.5-1.8,1.9-2.1,3.5-1.6c3,0.9,6,1.1,9.1,1.6
		c3.5,0.6,4,2.1,1.8,4.9c-0.9,1.1-2,2.1-3,3.2c-1.9,2-3.7,4.1-4.7,6.7c-2.4,6.2,0.6,12.4,6.7,14.9c6.3,2.6,12.8,3.2,19.5,2.3
		c4.1-0.5,4.3-0.4,4.5,3.9c0.2,4,0.5,8.1,0.5,12.1c0.2,11.8,1.5,23.6,0.8,35.4c-0.2,2.4,1.4,2.7,3,2.9c4.5,0.6,9,0.6,13.6,0.3
		c4.8-0.3,5.1-0.6,5.1-5.6c-0.1-18.4-0.1-36.9-0.3-55.3c0-3.1,0.9-5,3.6-6.7c11.4-6.9,21.7-15.2,31.8-23.8c1-0.8,2-1.6,2.9-2.6
		c1.7-1.9,1.3-3.2-1.2-3.7c-2.9-0.6-5.8,0-8.6,0.8c-1.4,0.4-3.1,1.3-4.2,0.8c-5.8-2.7-10.7,0.5-15.8,2.2c-2.6,0.8-4.8,2.6-7.6,2.8
		c-0.9-6.4-0.1-11.8,6.4-14.9c2-1,3.6-2.8,5.2-4.3c1.5-1.4,3.1-2.3,5-2.9c9.1-2.6,17.6-6.4,25.7-11.3c3.5-2.1,4-1.7,4,2.4
		c0,7.9-0.3,15.9-1.3,23.7c-0.3,2.3,0.1,3.3,2.4,3.7c6.3,0.9,12.6,0.7,18.8-1c1.9-0.5,2.9-1.3,2.9-3.7c-0.3-14.7-0.3-29.4-0.5-44.2
		c0-3.7,0-7.3,0-11c1.4,1.2-0.1,2.7,1.6,4.1c2-2.2,3.6-4.8,5.2-7.3c0.5-0.9,1-1.9,0.4-2.7c-0.9-1.2-2-0.4-3,0
		c-4.3,1.7-4.3,1.7-4.4-3.1c-0.4-9.7-0.5-19.4-1.2-29.1c-0.7-10.5-1-21-3.4-31.3c5.8,0,11.6,0,17.5,0c0,104.8,0,209.7,0,314.5
		c-6.8,0-13.6,0-20.4,0c-0.4-1.3-0.2-2.6,0-3.8c1.7-13.8,3.4-27.6,5.1-41.4c0.5-4,0.2-4.5-3.6-3.9c-7.1,1.2-14.1,0.7-21.2-0.9
		c-4.1-0.9-5.3-0.2-6.1,4c-0.7,3.6-1.1,7.3-1.6,11c-1.5,11.7-3.7,23.3-4.7,35.1c-8.4,0-16.8,0-25.2,0c0-1,0.1-1.9,0.1-2.9
		c-0.5-22.6-1.1-45.3-1.5-67.9c0-1.8-0.7-3.8,0.7-5.5c1.6,0.5,2.4,1.8,3.5,2.7c3.2,2.7,6.7,5.1,10.4,7.1c1.8,1,3.3,0.8,3.4-1.6
		c0.2-6.2-0.1-12.4-3.4-17.8c-2.7-4.4-8.3-6.5-12.7-4.1c-7.2,3.8-14.7,4.3-22.6,3c-4.8-0.7-5.8,0.2-5.6,5.1
		c0.3,6.5,0.8,12.9,1.2,19.4c1,18.1,2.1,36.2,2.4,54.3c0,1.8,0.4,3.8-0.5,5.4c-1.1,0.2-1.5-0.3-1.8-0.9c-2.2-3.9-4.5-7.8-6.7-11.8
		c-6-11.3-11.3-22.9-16.3-34.7c-1.9-4.6-3.4-5.2-7.8-3c-5.1,2.5-10.4,3.4-16,3.1c-7.9-0.5-9.4,0.4-12.7,7.4c-0.6,1.4-1.2,2-2.8,1.8
		c-5-0.5-9.9-0.9-14.4-3.6c-3.2-1.9-4.2-1.4-4.3,2.6C21.9,292.9,22,307,23.9,321z M50.1,263.9c1.9,0.7,2.6,3.2,5.2,3.1
		c4.9-0.3,9.7-0.6,14.2-2.7c5.2-2.4,5.7-3.9,3-8.9C66.2,244,61,232.2,55.1,220.7c-3.9-7.5-4.6-14.7-2.7-22.8
		c3.3-14.3,6.7-28.6,10.3-42.9c1.3-5.1,1.1-5.3-4-5.3c-3.8,0-7.5-0.3-10.8-2.2c-2.8-1.6-3.7-0.6-4.4,1.9c-2.1,7.1-4.3,14.2-6.5,21.3
		c-0.3,1-0.1,2.4-2,2.4c-2.7-5.7-5.1-11.7-7.3-17.7c-0.9-2.4-1.9-2.9-3.7-0.9c-2.9,3.3-6.8,4.9-10.8,6.1c-6.7,2-7.1,2.6-4.8,9.3
		c0.3,0.9,0.6,1.8,1,2.7c4.9,13.5,10,27,15.6,40.2c0.7,1.8,1.5,3.4,1.1,5.6c-2.1,11.5-2.8,23.1-3,34.7c0,1.8,0,3.5-0.5,5.3
		c-1.2,4.7,1.5,8.9,2.2,13.3c0.1,0.4,0.7,0.7,1.1,0.9c4.6,2.2,9.4,3.5,14.4,4.1c1.4,0.2,3-0.2,3-1.7c0.1-3,2.2-4,4.3-5.3
		C49.6,268.3,50.3,266.2,50.1,263.9L50.1,263.9z M196.2,196c0.3-18.5,0.1-35.6-0.5-52.8c-0.2-4.8-0.6-5.1-5.2-4.1
		c-5.3,1.1-10.5,1.6-15.9,1.1c-5.2-0.5-6.2,0.4-5.6,5.6c0.8,6.4,0.9,12.9,0.9,19.4c0.2,31.9-2.7,63.6-5.6,95.3
		c-0.4,4.4-0.4,4.7,3.6,5.9c6.3,1.8,12.7,2.4,19.2,1.2c5-0.9,5.1-0.9,5.6-6.2C195.2,239.3,195.6,217,196.2,196z M134.4,226.6
		c9.3,0,14.7-5.6,13.5-14c-0.2-1.8-0.9-3.3-3-2.9c-5.8,1.1-11.4,2.8-15,7.9c-1.4,2-2.3,4.4-1.2,6.9
		C129.8,227.1,132.5,226.3,134.4,226.6z"/>
	<g>
		<path class="st1" d="M57.9,281.8c-0.5-2.1-1.3-4.3-2.4-6.5c-0.6-1.2-1.5-2.7-3.1-3c-1.5-0.3-3,0.7-4,1.5
			c-3.3,2.8-3.6,6.7-3.5,10.5c0,0.6,0,1.3,0.2,2.2c0.1,0.5,0.1,1,0.1,1.5c0.1,2,0.2,4.2,2.3,5.7c0.3,0.2,0.7,0.3,1.2,0.3
			c0.2,0,0.5,0,0.7-0.1c2.3-0.4,5.7-2.8,7.1-4.8C57.9,286.9,58.4,284.5,57.9,281.8z"/>
		<path class="st1" d="M48.2,266.2c0.2-1.4-0.7-2.5-1.4-3.3c-3.2-3.5-7.2-5.2-12.2-5.2c-0.7,0-1.9,0-2.8,0.3c-0.5,0.1-1,0.2-1.6,0.2
			c-1.9,0.2-4.4,0.5-5,2.9c-0.5,2.4,1.6,3.9,3.3,5.2c0.4,0.3,0.7,0.5,1.1,0.8c3.1,2.5,6.5,3.8,9.7,3.8c2.3,0,4.6-0.6,6.7-1.9
			C46.8,268.4,48,267.5,48.2,266.2z"/>
	</g>
	<g>
		<path class="st1" d="M141.3,235.4c-1.3-1.9-3.5-3.2-5.9-3.6c-1.7-0.3-3.3,0-4.4,0.9c-2.7,2-2.9,6.5-0.5,10.1
			c0.4,0.5,0.8,1.1,1.3,1.6c2.1,2.4,4.8,4.5,8.1,6.5c1.1,0.6,2,1.1,2.9,1.1c0.3,0,0.6-0.1,0.9-0.2c1.1-0.6,1.2-2.2,1.2-4.3v-0.1
			C144.5,243.6,144,239.2,141.3,235.4z"/>
		<path class="st1" d="M134,225.1c0.3,0,0.5,0,0.8,0h0.1l0,0c3.7,0,6.9-1.2,8.9-3.3c1.7-1.8,2.6-4.1,2.6-6.6c0-1.4-0.4-2.4-1.1-3
			c-0.7-0.5-1.6-0.7-2.7-0.4c-3.9,0.9-8.2,2.3-11.3,6.3c-1.4,1.8-1.7,3.5-1.1,5C131.1,225.1,132.9,225.1,134,225.1z"/>
	</g>
	<g>
		<path class="st2" d="M167.8,7.8c0.2,0.7,0.3,1.5,0.4,2.2c2.1,19.1,3.7,36.3,4.6,52.6c1.1,18.4,2,40.1,0.7,61.5
			c-0.3,5.4-0.3,8.1,1.3,9.6c1,1,2.5,1.3,4.7,1.3c1.4,0,3-0.1,4.9-0.3c8.8-0.8,9.2-1.3,9.2-9.9c0-3.7,0-7.4,0-11.1
			C193.5,78.4,193.4,42,189,6.4l-0.1-0.9h-21.5l0.2,1.2C167.7,7,167.7,7.4,167.8,7.8z"/>
		<path class="st2" d="M128.2,316.2c-0.6-22.3-1.2-48.7-1.9-75c-0.1-2.8-0.1-4.3-1.1-5.1c-1-0.9-2.5-0.6-5.3-0.2
			c-3.6,0.5-7.1,0.5-10.8,0c-2.1-0.3-3.6-0.4-4.5,0.4c-0.9,0.9-0.9,2.3-0.8,4.6c0.3,6.1,0.6,12.3,1,18.4c0.6,12,1.3,24.5,1.9,36.7
			c0.3,5.8,0.4,11.6,0.5,17.3c0.1,2.6,0.1,5.2,0.2,7.8v1h20.1l0.3-0.6c0.7-1.5,0.6-3,0.5-4.4C128.3,316.8,128.2,316.5,128.2,316.2z"
			/>
		<path class="st2" d="M184.1,274c-4.8,0.3-9.7,0-15.2-1.1c-2.5-0.5-3.9-0.7-4.9,0s-1.2,2.1-1.6,4.8l-1.4,10.1
			c-1.4,10.1-2.9,20.2-4.4,30.2c-0.1,0.6-0.2,1.2-0.4,1.8c-0.1,0.3-0.2,0.6-0.2,0.9l-0.3,1.2H185l4.7-38.9c0-0.4,0.1-0.8,0.2-1.2
			c0.1-0.6,0.2-1.1,0.2-1.7c0.3-2.9,0.5-4.5-0.5-5.5C188.6,273.7,187,273.8,184.1,274z"/>
		<path class="st2" d="M79.4,272.1c-0.9-2.1-1.4-3.3-2.5-3.7c-1.1-0.4-2.3,0.1-4.4,1c-3.5,1.6-6.9,2.5-10.4,2.8
			c-2.4,0.2-3.8,0.4-4.4,1.4c-0.6,1.1-0.1,2.4,0.9,4.6c5.9,13.1,13.1,28.5,21.8,43.3l0.3,0.5h23.7l-0.9-1.5
			C94.5,305.3,86.4,289,79.4,272.1z"/>
		<path class="st2" d="M17,152.7c6.2-3.3,6.8-4.9,4.2-11.4c-6.4-16-10.3-32.9-14-49.3l-0.5-2.1c-0.2-0.7-0.3-1.4-0.4-2.1
			c-0.4-2-0.7-4.2-1.9-6.1l-1.9-3.1v66l0.2,0.3c0.8,1.2,1.2,2.6,1.6,4.1c0.2,0.8,0.4,1.6,0.7,2.4c1,2.8,1.7,4,3.6,4
			c0.7,0,1.6-0.2,2.8-0.5C13.4,154.3,15.3,153.6,17,152.7z"/>
		<path class="st2" d="M41.9,314.2c-0.8-9.6-1.6-19.5-0.9-29.2c0.1-1.1-0.2-2-0.7-2.6c-0.6-0.7-1.5-1.1-2.8-1.2
			c-2.6-0.2-5.2-0.7-7.8-1.6c-2.4-0.9-3.9-1.4-5-0.6c-1,0.7-1.1,2.1-1.1,4.6v0.6c-0.1,6.2-0.1,12.5,0.2,18.8
			c0.1,1.1,0.1,2.2,0.1,3.3c0.2,5,0.4,10.1,1.9,15.1l0.2,0.7h16.4l-0.1-1.1C42.2,318.7,42.1,316.4,41.9,314.2z"/>
		<path class="st2" d="M73.4,64.6l0.3,0.1c0.4,0.1,0.7,0.2,1.1,0.2c0.5,0,0.9-0.1,1.3-0.4c0.8-0.5,1.2-1.4,1.4-2.7
			c0.6-4.2,1.9-8.3,3.7-12.2c2.1-4.4,5-8.6,8.9-12.9c2.1-2.3,2.9-4.6,2.7-8c-0.3-5.3-0.2-10.6-0.1-15.8c0-2,0.1-4,0.1-6
			c0.6,3.8,0.5,7.7,0.4,11.7c-0.1,3.9-0.1,8,0.4,12.3l0.2,1.8l1.4-1.1c4.7-3.8,9.3-7.1,14.3-10.3c1.2-0.8,1.8-2,1.9-3.7
			c0.2-2.5,0.3-5,0.5-7.6l0.3-4.6H92.9h-0.2h-3.2l-0.3,0.4c-3.2,4.2-5.2,9-6.9,13.6C77.6,32,74,45.1,70.6,57.8l-0.3,1
			c-0.2,0.6-0.3,1.2-0.4,1.8C69.7,63.5,72,64.2,73.4,64.6z"/>
		<path class="st2" d="M104.2,178.9c0.4,7.3,0.7,14.8,0.9,22c0.2,5.7,0.4,11.4,0.7,17.1c0.2,5.4,0.4,8.4,2.1,10c1.1,1,2.6,1.3,5,1.3
			c1.5,0,3.2-0.1,5.4-0.2c5-0.3,5.8-1.2,5.9-6.2c0-6,0-12.1,0-18.1v-7.5v-1v-0.1c0-0.8,0-1.6,0-2.4c0-2.1,0-4.3,0-6.4
			c0-5.4-0.1-10.9-0.2-16.3c0-1.8-0.2-3.3-1.2-4s-2.4-0.2-4.3,0.6c-1.1,0.5-2.1,1-3.2,1.4c-2.1,1-4.3,2-6.5,2.7
			C104.5,173.2,104.1,176,104.2,178.9z"/>
		<path class="st2" d="M49.9,142.6L49.9,142.6c2.8,1.1,5.7,1.8,8.7,2h0.5c0.2,0,0.4,0,0.6,0c1.7,0,3.7-0.2,4.5-2.7
			c0.6-2-0.8-3-1.6-3.6c-0.3-0.2-0.6-0.4-0.8-0.6c-3.4-4-7.8-3.1-11.1-2.4c-2.1,0.4-3.3,1.7-3.6,3.7
			C46.8,141.3,48.8,142.1,49.9,142.6z"/>
		<path class="st2" d="M65.9,105.9l3.5,1.9l-3.4-4.6l-0.3,0.3c-0.2-0.1-0.4-0.2-0.6-0.3c-1-0.5-1.9-1-2.8-1.6
			c-1.2-0.8-2.2-1.1-3.2-0.8c-0.9,0.3-1.6,1-2.2,2.1c-2.1,4.4-4.3,9.7-5,15.9l-0.5,4.3l2.3-3.6C56.6,114.9,60.5,110.5,65.9,105.9z"
			/>
		<path class="st2" d="M68.6,262.9c1.9-0.9,3.2-1.5,3.6-2.8c0.4-1.2-0.3-2.6-1.2-4.4c-10.5-19-19.2-38.5-26.3-55.1
			c-3.6-8.4-7.2-17-10.6-25.3c-2-4.9-4-9.7-6.1-14.5c-0.9-2.1-1.4-3.3-2.5-3.7s-2.2,0.3-4,1.4c-2.5,1.5-5.3,2.7-8.7,3.7
			c-2.2,0.7-3.5,1-4,2.1s-0.1,2.3,0.7,4.4c5.8,16.3,13.8,37.6,23.4,58.6c4.3,9.4,10.3,21.8,17.9,33.5c1.3,1.9,3.3,4.3,6.5,4.3
			c0.4,0,0.8,0,1.3-0.1C62.1,265.2,65.3,264.5,68.6,262.9z"/>
		<path class="st2" d="M43.4,196.4c0.9,2.4,1.9,4.9,3.6,7.1l0.4,0.5l2.4-0.4l0.1-0.7c0.3-1.4,0.6-2.8,0.9-4.3c0.6-3.1,1.3-6.2,2-9.3
			c1.4-5.9,2.8-11.7,4.2-17.5c1.2-5,2.4-10,3.6-15c0.5-1.9,0.8-3.2,0.1-4.1c-0.6-0.9-1.9-1.1-3.9-1.4c-0.5-0.1-0.9-0.1-1.4-0.2
			c-2-0.3-3.8-0.5-5.6-1.1c-1.6-0.6-2.9-0.6-3.9-0.1s-1.7,1.5-2.1,3.1c-0.5,1.9-1.2,3.9-1.8,5.8c-0.5,1.6-1,3.2-1.5,4.9
			C36,179,36,179.3,42.3,193.9C42.7,194.7,43,195.6,43.4,196.4z"/>
		<path class="st2" d="M27.4,258.2c0.6,0,1.2-0.1,1.7-0.3c1.3-0.4,2.7-0.5,4.1-0.6c0.7-0.1,1.3-0.1,2-0.2c0.4,0,1,0.1,1.6,0.2
			c1.5,0.3,4.2,0.8,4.9-2.6l0.1-0.6c0.4-2,0.9-4.4,0.1-6.7c-0.3-0.9-0.7-1.7-1.1-2.4c-0.1-0.2-0.3-0.5-0.4-0.7l-1.4-2.9
			c-1.5-3-3-6.2-4.6-9.3c-0.4-0.8-0.8-1.6-1.1-2.4c-1.1-2.4-2.2-4.9-4.3-7.2l-1.4-1.5l-0.3,2c-1.8,10.5-2.8,21.1-2.7,31.5
			c0,1.5,0.4,2.6,1.2,3.2C26.2,258,26.8,258.2,27.4,258.2z"/>
		<path class="st2" d="M194.3,145.8c-0.1-2.4-0.1-3.7-1.1-4.5s-2.4-0.6-4.6-0.2c-4.9,0.8-9.4,1-13.8,0.7c-1-0.1-2.4-0.1-3.3,0.9
			c-0.9,1-0.9,2.4-0.8,3.6c2,22.6,0.7,44.7-1,69.1c-0.9,13-2,27-3.6,43.9c-0.3,3.6,1,5.5,4.4,6.2c3.1,0.6,6.5,1.2,10.2,1.2
			c1.5,0,3.1-0.1,4.6-0.3c5.2-0.8,5.7-1.3,6.2-6.6c2.3-21.7,2.8-43.4,3.2-64.5l0,0C194.9,178.8,194.8,162.1,194.3,145.8z"/>
	</g>
	<g>
		<path class="st3" d="M84.5,88.9c-0.2-0.5-0.5-1-0.8-1.5c-3.2-4.5-5.2-10-6-16.7c-0.4-2.8-1.6-4.5-4.1-5.4
			c-6.9-2.7-13-7.6-18.7-14.9C49.5,43.5,45,35.3,40.4,24c-0.1-0.4-0.3-0.7-0.4-1.1c-0.4-1.3-0.9-2.8-2.4-3.8L37,18.7l-0.5,0.4
			c-1.4,1-1.6,2.3-1.7,3.3v0.2c-1.4,10.5-1.7,19.2-0.9,27.3c2.1,22.7,11.6,39.5,28.9,51.3c1.3,0.9,2,1.7,2.2,2.8l-0.5,0.3l2.6,3.4
			v-2.6c4.8-2.7,9.2-5,14.1-6.6c2.7-0.9,4.6-1.6,5.2-3.1s-0.1-3.3-1.5-6.1L84.5,88.9z"/>
		<path class="st3" d="M173.6,90.5c-0.2-2-0.4-3.5-1.5-4.1s-2.5,0.2-4,1.1c-3.7,2.4-7.8,4.8-12,7l-0.2,0.1c-1,0.5-2.3,1.1-2.9,2.5
			c-2.4,5.5-5.2,10.3-8.8,15.2l-1,1.4l1.7,0.2c0.5,0.1,1,0.1,1.5,0.1c1.8,0,3-0.5,4.1-0.9l0.4-0.2c5-1.9,9.9-4.2,14.5-6.9
			C174,101.1,174.3,100.3,173.6,90.5z"/>
	</g>
	<g>
		<path class="st4" d="M79.6,68.9c0.6,0.2,1.1,0.3,1.7,0.3c2,0,3.6-1.4,4.2-2c1.1-0.9,1.8-2.2,2.2-3.8c0.5-2.1,1.7-3.8,3-5.7
			c4.5-6.6,10-12.8,16.8-19c10.8-9.8,24-18.8,41.3-28.2c0.4-0.2,0.8-0.4,1.2-0.6c1.4-0.6,3-1.3,3.9-3.1l0.7-1.5H145l-0.2,0.1
			c-2.1,0.9-4.2,1.7-6.3,2.6c-4.6,1.9-9.3,3.8-13.9,5.9c-10.4,4.8-23.7,11.8-34.2,23.2C82.6,45.8,78.5,54.6,77.9,64
			c0,0.2,0,0.4-0.1,0.7C77.7,66,77.5,68.1,79.6,68.9z"/>
		<path class="st4" d="M79.7,142.3c22.5-0.1,41.9-8.4,59.2-25.4c4.4-4.3,7.5-8.2,9.8-12.4c0.1-0.2,0.3-0.5,0.4-0.7
			c0.7-1.2,1.7-2.6,1-4.8l-0.2-0.8l-0.8,0.1c-3.7,0.3-7.1,1.8-9.8,3c-1.9,0.8-1.7,2.5-1.6,3.7c0.1,0.6,0.1,1.1,0,1.4
			c-0.6-2.1-2.2-5.5-7-5.4c-0.1,0-0.1,0-0.1-0.1c-0.1-0.1-0.2-0.5,0-0.9c0.1-0.4,0.3-0.8,0.4-1.2c0.3-0.7,0.5-1.3,0.7-2.1
			c0.2-1.1,0.4-2.6-0.6-3.6s-2.5-0.9-3.6-0.7c-1.4,0.2-2.8,0.5-4.2,0.8c-1.7,0.3-3.5,0.7-5.3,1c-3.3,0.5-6.2,0.3-8.7-0.5
			c-0.1,0-0.6-0.2-0.7-0.2c0,0,0,0,0-0.1c0,0,0.1-0.1,0.7,0c0.5,0,1,0.2,1.6,0.3c1.5,0.3,3.4,0.8,4.9-0.6c1-1,2.3-1.8,3.6-2.6
			c1.7-1,3.6-2.2,5.3-4.1l1.2-1.2l-1.7-0.5c-3-0.9-4.6-1.4-5.4-3.2c-0.5-1.2-1.2-2-2.1-2.3c-0.5-0.2-1.1-0.2-1.6-0.1
			c1-0.8,2.1-2,1.7-4.2v-0.2c0-0.1-0.1-0.5-0.1-0.7c-0.1-0.8-0.1-1.9-1-2.5c-0.5-0.4-1.2-0.4-2-0.1c0,0,0.1,0,0.1-0.1
			c3.1-1.5,4.2-4,3.6-8l-0.2-1.2l-0.5,0.2c1.9-1.1,3.6-2.5,5-4.4c0.5-0.7,1-1,1.6-1c7,0.4,11.8-4,16-7.9l0.3-0.3
			c7-6.5,12.5-12.2,17.3-17.8l0.2-0.3c3.3-3.9,8.3-9.8,4-17.4l-0.6-1.1l-0.9,0.8c-0.2,0.2-0.4,0.5-0.7,0.9c-0.6,0.8-1.6,2.3-4.1,4.8
			c-4,4.1-8.3,8-13.2,12c-10.2,8.4-21,16.7-33.2,25.1c-3.5,2.4-5.4,5.9-5.8,10.6l-0.1,1.7l1.5-0.7c1.3-0.6,2.7-1.1,4.1-1.6
			c-2,0.9-4,1.9-5.9,2.9c-1.5,0.8-1.9,2.4-2.1,3.5c0,0.1-0.1,0.3-0.1,0.4c-0.2,0.9-0.6,2.2,0.5,3.3c0.5,0.5,1.1,0.7,1.6,0.7
			c0.1,0,0.2,0,0.3,0c-0.5,0.3-1.1,0.7-1.6,1.1c-2.1,1.5-2,4.5-0.8,6.7c0.4,0.8,1,1.3,1.7,1.4c0.2,0,0.4,0.1,0.5,0.1h0.1
			c-1.5,1.2-2.6,3.1-1.9,6c0,0.2,0,0.3,0,0.3l0,0c-0.2-0.2-0.3-0.5-0.5-1.2c-1.5-6.2-1.6-12.7-0.2-19.8c1.6-8.4,5.3-14.2,11.7-18.3
			c8.7-5.6,16.6-11.9,25.3-18.9c8.1-6.6,14.8-12.2,20.7-19.2l0.3-0.4c1.4-1.7,3-3.6,3.2-6.4l0.1-0.8l-0.7-0.2
			c-2-0.7-3.4,0.2-4.5,0.7c-0.2,0.1-0.4,0.2-0.6,0.3c-15.1,7.6-27.6,15.4-38.5,23.8C106,40.1,97.8,48.5,91.5,57.6
			c-1.3,1.9-2.7,3.8-3.3,6.2c-0.9,3.2-2.8,5.2-5.8,5.8c-1.6,0.3-2.6,1-3.2,2c-0.8,1.3-0.5,3-0.1,4.3c1.1,3.8,2.4,6.9,4.1,9.6
			c2.5,4.1,4.8,8.7,4.5,14c-0.1,2.1-0.3,4.2-1.8,5.5c0-0.4,0.1-0.8,0.4-1.4c0.2-0.4,0.4-0.8,0.5-1.3c0.3-1.5,0.1-2.6-0.6-3.3
			c-0.7-0.7-1.8-0.8-3.2-0.4c-2.2,0.6-4.4,1.4-6.5,2.3c-9.2,3.9-16,9.5-20.6,17.2c-2.9,4.8-2.9,11.2-0.1,14c7,6.9,14.9,10.2,24,10.2
			C79.7,142.3,79.7,142.3,79.7,142.3z"/>
		<path class="st4" d="M149.4,136.7l-1,0.4c-8.6,3.8-17.1,8.9-27.5,16.7c-3.7,2.8-7.8,3.8-13,3.1c-4.4-0.6-6.9-2.9-8.2-7.5
			c-0.2-0.7-0.2-1.7-0.2-2.6c0-1.9,0.1-4-1.9-5.2c-1.8-1.1-3.8-0.5-5.7,0c-1,0.3-2,0.5-2.9,0.6c-1,0-1.9,0.2-2.9,0.4l-0.6,0.1
			c-2.3,0.4-2.7,1.8-2.7,2.8c0,2.7-1.7,4.3-3.7,6.1c-0.2,0.2-0.5,0.4-0.7,0.7c-2.1,2-3.7,4-4.6,6.1c-2.5,5.4-0.5,10.8,5,13.4
			c4.3,2,8.7,3,13.4,3c2,0,4.1-0.2,6.2-0.5c7.4-1.3,14.8-4.1,23.4-8.8c11-6.1,22.3-14,35.3-25.1c0.2-0.2,0.4-0.4,0.7-0.5
			c1.1-0.8,2.4-1.8,3.1-3.9l0.4-1.1l-1.2-0.2C155.8,133.8,152.6,135.3,149.4,136.7z"/>
		<path class="st4" d="M121.4,90.5l-2.4,1.6l2.8,0.2c0.4,0,0.9,0.1,1.3,0.1c2.8,0,5.6-0.8,8.6-2.4c12.6-6.8,24.5-16.4,37.4-30.2
			c3.8-4,2.7-8.2,1.1-12.6l-0.6-1.6l-1.1,1.2C154,63,139.3,78.5,121.4,90.5z"/>
		<path class="st4" d="M171.4,60.5l-0.8,0.1c-1.7,0.2-2.4,1-3,1.6l-0.1,0.1c-11.2,11.6-21.5,20-32.3,26.3c-0.4,0.2-0.8,0.5-1.3,0.8
			c-1.3,0.9-1.7,2-1.3,3.1c0.3,0.8,1,1.7,2.7,1.7c0.1,0,0.2,0,0.3,0c3.2-0.2,6.2-1.3,8.7-2.4c9.3-4,16.8-10.3,25-18.5
			c3.4-3.4,4.2-7.2,2.4-12.2L171.4,60.5z"/>
		<path class="st4" d="M172.1,73.6l-0.4-1.7l-1.3,1.2c-0.8,0.7-1.5,1.4-2.2,2.1c-1.4,1.3-2.6,2.5-3.8,3.6
			c-6.3,5.8-15,12.8-26.3,15.7c-0.4,0.1-0.8,0.1-1.3,0.2c-1.4,0.2-3.1,0.4-3.9,1.6c-0.5,0.7-0.5,1.6-0.2,2.7
			c0.3,0.9,0.7,1.5,1.4,1.9c0.5,0.3,1,0.4,1.6,0.4c1.1,0,2.3-0.4,3.4-0.7c0.3-0.1,0.5-0.2,0.8-0.2c9.8-2.9,19.1-7.3,27.7-13.1
			C173.7,83.1,174,82,172.1,73.6z"/>
		<path class="st4" d="M111.7,156.9c2.3,0,4.4-0.6,6.2-1.8c2.4-1.6,4.8-3.2,7.2-4.8c6.3-4.3,12.8-8.7,19.6-12.5l3.1-1.8l-3.6-0.1
			c-0.1,0-0.1,0-0.2,0c-7.7,0-34.4,13.2-38.6,18.2l-0.9,1.1l1.3,0.5C107.9,156.5,109.9,156.9,111.7,156.9z"/>
		<path class="st4" d="M100.5,147.7c-0.3,0.9-0.2,2,0.4,3.4c0.4,0.9,1,1.4,1.7,1.6c0.3,0.1,0.5,0.1,0.8,0.1c0.8,0,1.6-0.4,2.2-0.7
			l2.6-1.5c3.4-1.9,7-3.9,10.4-6c2-1.2,3.9-2.7,4.2-6.5l0.1-1.5c1.1-0.6,1.8-1.7,1.7-3.2v-0.3c-0.3-1-0.9-1.7-1.6-1.9
			c-1.1-0.3-2.1,0.2-2.9,0.9c-5,3.6-10.8,5.5-16.4,7.1c-1.1,0.3-2.3,0.7-3,1.9c-0.6,1-0.7,2.3-0.2,3.3c0.3,0.7,1,1.3,2,1.3
			c0.2,0,0.3,0,0.5-0.1c-0.2,0.1-0.5,0.2-0.7,0.3C101.3,146.3,100.8,146.9,100.5,147.7z"/>
		<path class="st4" d="M53.2,127l-0.2-1.3c-0.2-1-0.6-1.7-1.2-2.1c-0.6-0.4-1.4-0.5-2.4-0.3c-5.9,1.4-9.9,4.6-12,9.5l-0.9,2.1
			l2.1-0.8c4.7-1.8,4.7-1.8,10.2-0.1c0.6,0.2,1.4,0.4,2.2,0.4c1.2,0,2.1-0.4,2.6-1.1c0.5-0.6,0.6-1.5,0.3-2.6
			C53.6,129.6,53.4,128.3,53.2,127z"/>
	</g>
	<polyline class="st0" points="160.9,14.1 161.3,13.6 167.5,13.6 170.1,40.3 168.6,45.2 165.5,48.9 148,67.1 131.9,81.9 128.3,83.4 
		123.8,83.6 120.4,82 117.6,75.6 118,66.7 120.5,61.3 123,58.4 127.7,57.3 131.4,56.1 135.8,53.8 139,51.1 142.8,47.6 146.2,43.2 
		149,40 151.5,38 158,31.8 161,26.3 163.8,21.1 162.5,15.9 160.9,14.1 160.9,14.1 160.9,14.1 	"/>
	<path d="M189.9,6.5c2.5,10.3,2.7,20.8,3.4,31.3c0.6,9.7,0.8,19.4,1.2,29.1c0.2,4.8,0.2,4.8,4.4,3.1c1-0.4,2.2-1.2,3,0
		c0.6,0.8,0.2,1.9-0.4,2.7c-1.6,2.5-3.2,5.1-5.2,7.3c-1.7-1.4-0.2-2.9-1.6-4.1c0,3.7,0,7.3,0,11c0.1,14.7,0.2,29.4,0.5,44.2
		c0,2.3-0.9,3.2-2.9,3.7c-6.2,1.6-12.4,1.9-18.8,1c-2.3-0.3-2.7-1.4-2.4-3.7c1-7.9,1.3-15.8,1.3-23.7c0-4.2-0.5-4.5-4-2.4
		c-8.1,4.8-16.7,8.6-25.7,11.3c-1.9,0.6-3.5,1.5-5,2.9c-1.6,1.6-3.2,3.4-5.2,4.3c-6.5,3.1-7.3,8.5-6.4,14.9c2.8-0.2,5-2,7.6-2.8
		c5.1-1.7,10-4.9,15.8-2.2c1,0.5,2.8-0.5,4.2-0.8c2.8-0.7,5.7-1.3,8.6-0.8c2.5,0.5,2.9,1.8,1.2,3.7c-0.9,1-1.9,1.8-2.9,2.6
		c-10.1,8.6-20.4,16.9-31.8,23.8c-2.7,1.6-3.6,3.5-3.6,6.7c0.2,18.4,0.2,36.9,0.3,55.3c0,4.9-0.3,5.2-5.1,5.6
		c-4.5,0.3-9.1,0.3-13.6-0.3c-1.6-0.2-3.2-0.5-3-2.9c0.7-11.8-0.6-23.6-0.8-35.4c-0.1-4-0.3-8.1-0.5-12.1c-0.2-4.3-0.4-4.5-4.5-3.9
		c-6.7,0.9-13.2,0.3-19.5-2.3c-6.2-2.6-9.1-8.7-6.7-14.9c1-2.6,2.7-4.7,4.7-6.7c1-1,2.1-2,3-3.2c2.2-2.8,1.7-4.3-1.8-4.9
		c-3-0.5-6.1-0.7-9.1-1.6c-1.6-0.5-2.9-0.2-3.5,1.6c-0.7,2.4-2.5,2.5-4.6,2.5c-4.6-0.1-9-1-13.2-2.9c-2.2-1-3.6-2.1-2.4-4.8
		c0.5-1.2,1.5-2.8-0.2-3.9c-1.5-0.9-2.8,0.1-4,1c-1.6,1.3-3.2,2.8-4.8,4.1c-0.8,0.7-1.6,1.2-2.6,0.6c-1-0.7-0.8-1.7-0.5-2.7
		c1.7-6.2,4.9-11.5,11-14c3.6-1.5,5.1-3.7,6-7.3c1.2-4.9,2.9-9.6,5.2-14.1c1.1-2.2,1.2-3.7-0.8-5.5C38.4,82.4,32.3,63.7,31.9,42.6
		C31.8,33.9,32.6,25.4,34,17c0.2-1,0.3-1.9,0.7-2.8c0.9-1.8,2.2-1.9,3.2-0.2c0.7,1.1,1,2.4,1.4,3.6c3.7,10,7.9,19.8,14.1,28.7
		c3.1,4.4,6.5,8.5,10.7,11.8c3.4,2.7,4,2.5,5.1-1.5c1.8-6.4,3.6-12.8,5.4-19.2c2.9-10.6,6.9-20.8,11.3-30.9c1.3,0,2.6,0,3.9,0
		c-3.1,4-5,8.7-6.8,13.4c-4.8,12.7-8.3,25.9-11.8,39c-0.2,0.6-0.4,1.3-0.4,1.9c-0.2,2.2,1.6,2.6,3.1,3.1c1.7,0.5,2.3-0.7,2.5-2.1
		c0.6-4.4,1.9-8.5,3.8-12.5c2.3-4.8,5.5-9.2,9.1-13.1c2-2.2,2.6-4.3,2.5-7.3c-0.4-7.4,0-14.9,0-22.3c0.6,0,1.3,0,1.9,0
		c1.2,7.7-0.2,15.6,0.8,24.4c5.1-4.1,9.7-7.4,14.4-10.4c1-0.7,1.4-1.7,1.5-2.9c0.2-3.7,0.5-7.4,0.8-11.1c1,0,1.9,0,2.9,0
		c-0.3,2.7-0.7,5.4-0.9,8.1c-0.2,2.3,0.8,2.9,2.9,1.9c7.1-3.4,14.2-6.7,21.3-10.1c2.6,0,5.2,0,7.8,0c-6.7,2.8-13.5,5.4-20.1,8.5
		c-12.5,5.8-24.4,12.7-33.9,22.9c-6.9,7.4-11.7,15.8-12.4,26.2c-0.1,1.4-0.6,3.2,1,3.9c1.8,0.7,3.5-0.2,4.9-1.5c1-0.9,1.6-2,1.9-3.3
		c0.6-2.2,1.9-4.1,3.1-6c4.9-7.1,10.6-13.4,17-19.2c12.5-11.4,26.7-20.3,41.5-28.4c1.7-0.9,3.7-1.3,4.7-3.2c3.6,0,7.1,0,10.7,0
		c-1.7,5-4.8,9.1-8.5,12.8c-4.2,4.3-8.6,8.3-13.2,12.1c-10.7,8.9-21.8,17.2-33.3,25.2c-3.5,2.4-5,5.7-5.4,9.8
		c6.2-2.7,13.1-3.5,17.4-9.3c0.6-0.8,1.4-1.5,2.4-1.4c6.7,0.4,11.2-3.9,15.5-7.9c6.1-5.6,11.9-11.4,17.2-17.7
		c3.3-4,8.2-9.4,4.1-16.5c4,1.6,5.9,5,4.7,8.1c-1.3,3.3-3,6.4-5.6,9c-6.1,6.2-12.1,12.6-18.3,18.7c-4.1,4-8.7,7.8-14.3,8.6
		c-4.3,0.6-5.7,2.9-6.8,6.3c-1.3,3.9-1.9,7.8-1.1,11.9c1.3,6.1,4.1,7.9,10.1,6.2c1.9-0.5,3.3-2,4.8-3.2
		c11.9-9.6,22.3-20.6,32.5-31.9c2.9-3.2,3.9-6.3,3.4-10.5c-1.2-10.1-1.9-20.3-2.8-30.4c0.6,0,1.3,0,1.9,0c0.2,1.1,0.5,2.2,0.6,3.3
		c2,17.5,3.6,35.1,4.6,52.7c1.2,20.5,2,41,0.7,61.6c-0.6,9.9-0.1,10.5,9.8,9.6c8.3-0.8,8.3-0.8,8.3-8.9c-0.2-39.5,0.2-79-4.6-118.2
		C188.6,6.5,189.3,6.5,189.9,6.5z M65.8,104.6c4.8-2.7,9.6-5.3,14.9-7c5.5-1.8,5.7-2.5,3.1-7.9c-0.3-0.6-0.5-1.2-0.9-1.7
		c-3.6-5.1-5.4-11-6.2-17.1c-0.3-2.3-1.2-3.8-3.5-4.6c-7.9-3.1-14-8.6-19.1-15.2C47.7,43,43.2,33.9,39.3,24.4
		C38.7,22.9,38.5,21,37,20c-1.1,0.8-1.2,1.8-1.3,2.7c-1.2,9-1.8,18-0.9,27.1c2,21.1,10.6,38.4,28.4,50.6c1.6,1.1,2.7,2.3,2.7,4.3
		c-1.4-0.8-2.9-1.4-4.2-2.3c-1.7-1.1-3-1-3.9,0.9c-2.3,4.9-4.2,10-4.9,15.5C56.4,113.4,60.9,108.8,65.8,104.6z M123.9,85.7
		c-2.9-0.8-5.2-1.5-6.1-3.8s-2.4-2.2-4.3-1.1c-2.8,1.6-5.6,3.2-8.6,4.5c-2.9,1.3-4.5,3-3.7,6.3c0.2,0.8-0.1,1.6-1.2,1.6
		c-0.8-0.4-1-1.2-1.2-2c-1.6-6.7-1.5-13.5-0.2-20.2c1.5-7.9,5-14.3,12.1-18.9c8.8-5.7,17.1-12.3,25.2-18.9
		c7.3-5.9,14.5-11.9,20.6-19.1c1.5-1.8,3.2-3.6,3.3-6.2c-1.9-0.6-3.1,0.4-4.3,1c-13.5,6.8-26.4,14.4-38.3,23.7
		c-9.5,7.4-18.1,15.6-25,25.6C91,60,89.7,61.8,89.1,64c-0.9,3.4-3.1,5.8-6.5,6.5c-3.1,0.7-3.3,2.5-2.6,5c0.9,3.3,2.2,6.4,4,9.3
		c2.7,4.4,5,9.1,4.6,14.5c-0.2,2.6-0.3,5.4-3.3,6.9c-1.3-1.8,0.1-3,0.4-4.3c0.5-2.4-0.5-3.1-2.6-2.5c-2.2,0.6-4.3,1.4-6.4,2.3
		c-8.4,3.6-15.4,8.9-20.2,16.8c-2.6,4.3-2.8,10.2-0.2,12.8c6.5,6.4,14.1,10,23.4,10c23.1-0.1,42.3-9.1,58.5-25.1
		c3.7-3.6,7.1-7.6,9.6-12.1c0.7-1.3,2-2.6,1.4-4.8c-3.4,0.3-6.5,1.6-9.5,2.9c-2.2,1,0,3.8-1.5,5.2c-0.2,0.2-0.6,0.2-1.2,0.3
		c-0.7-3.3-2.2-5.9-6.3-5.7c-1.1,0-1.5-1.1-1.2-2.2s0.9-2.1,1.1-3.2c0.5-2.7-0.3-3.6-3.1-3.1c-3.2,0.5-6.3,1.3-9.5,1.7
		c-3.1,0.4-6.1,0.4-9.1-0.5c-0.8-0.2-1.7-0.6-1.3-1.6c0.3-0.7,1-0.7,1.6-0.7c1.9,0.2,4.2,1.3,5.6-0.1
		C117.4,89.9,120.8,88.9,123.9,85.7z M159.8,135.5c-4.3-0.7-7.6,1.1-11,2.5c-9.8,4.3-18.8,10.2-27.3,16.6c-4.2,3.2-8.8,3.9-13.7,3.3
		c-5-0.7-7.7-3.4-9-8.2c-0.7-2.4,0.6-5.9-1.6-7.2c-2.3-1.4-5.3,0.7-8,0.7c-1.1,0-2.2,0.3-3.4,0.5c-1,0.2-1.9,0.6-1.9,1.8
		c0,3.5-2.5,5.4-4.8,7.5c-1.8,1.6-3.4,3.5-4.4,5.7c-2.3,5-0.5,9.7,4.5,12c6.1,2.9,12.4,3.5,18.9,2.4c8.2-1.4,15.8-4.7,23.1-8.7
		c12.7-7,24.1-15.7,35.1-25C157.5,138.5,159,137.8,159.8,135.5z M123.3,197.2L123.3,197.2c0-1.1,0-2.3,0-3.4
		c-0.1-7.6,0-15.2-0.2-22.8c-0.1-3.7-0.6-3.9-4.1-2.4c-3.3,1.4-6.4,3.1-9.8,4.2c-3.3,1-4.1,2.9-3.9,6.1c0.7,13.1,1,26.1,1.6,39.2
		c0.5,10.7,0.6,10.7,11.5,10c4.4-0.3,4.9-0.7,4.9-5.2C123.3,214.3,123.3,205.8,123.3,197.2z M121.9,91.3c3.5,0.3,6.5-0.7,9.3-2.2
		c14.2-7.7,26.2-18.3,37.2-30c3.2-3.4,2.6-6.8,0.9-11.6C154.5,63.9,139.9,79.3,121.9,91.3z M145,112.8c2.6,0.4,4.1-0.4,5.5-0.9
		c5-1.9,9.8-4.2,14.4-6.8c8.2-4.7,8.4-5.1,7.6-14.5c-0.3-3.8-0.8-4.2-3.9-2.2c-3.9,2.5-7.9,4.9-12.1,7c-1,0.5-2.1,1-2.6,2.1
		C151.7,102.8,148.8,107.7,145,112.8z M170.7,61.6c-1.5,0.2-2,0.9-2.5,1.4c-9.8,10.1-20.3,19.3-32.5,26.4c-0.4,0.2-0.8,0.5-1.2,0.8
		c-0.7,0.5-1.2,1.1-0.9,2s1.1,1.1,2,1c2.9-0.1,5.7-1.2,8.3-2.3c9.7-4.1,17.3-11,24.7-18.3C171.9,69.4,172.3,65.9,170.7,61.6z
		 M171.1,73.8c-2.3,2.2-4.1,4-6,5.8c-7.8,7.2-16.2,13.3-26.7,16c-1.9,0.5-5.6,0-4.7,3.2c0.8,2.6,3.9,1.2,6,0.6
		c9.8-2.9,19-7.2,27.5-13C172.7,82.5,173,81.8,171.1,73.8z M144.2,136.8c-6.9-0.2-33.7,12.7-38,17.9c3.9,1.5,7.9,1.6,11.2-0.5
		C126.3,148.3,134.9,142.1,144.2,136.8z M115.7,75c-0.4-1,0.3-3.5-2-2.7c-4.4,1.5-8.7,3.4-12.5,6.1c-1.8,1.3-1.4,3.8-0.6,5.4
		c1.2,2.1,2.8,0.2,4.1-0.4c2.9-1.4,5.7-3,8.5-4.5C114.9,78.1,116.1,77.2,115.7,75z M121.8,138.1c-6.8,3.1-13,5.8-19.2,8.7
		c-1.7,0.8-1.4,2.3-0.8,3.8c0.8,1.6,2,1.3,3.2,0.6c4.3-2.4,8.7-4.8,13-7.4C119.7,142.8,121.5,141.6,121.8,138.1z M116.3,63.4
		c-4.9,1.9-9.4,3.9-13.8,6.2c-1.1,0.6-1.4,1.7-1.6,2.9c-0.2,0.9-0.6,2,0.1,2.7c0.9,0.9,1.8,0.2,2.6-0.2c3.2-1.5,6.4-3.1,9.6-4.6
		C116,69,116.8,66.9,116.3,63.4z M58.7,143.6c1.9,0,3.9,0.2,4.5-2c0.6-1.9-1.3-2.3-2.2-3.3c-2.9-3.4-6.4-2.9-10.1-2.1
		c-1.7,0.3-2.6,1.2-2.8,2.8s1.1,2.2,2.3,2.7C53.1,142.9,55.9,143.5,58.7,143.6z M38.3,133.3c5-1.9,5-1.9,10.8-0.1
		c0.6,0.2,1.3,0.4,1.9,0.4c1.5-0.1,2.4-0.6,2-2.4c-0.4-1.7-0.7-3.4-1-5.2c-0.3-1.4-1.1-1.9-2.4-1.6
		C44.3,125.5,40.3,128.3,38.3,133.3z M123.6,133.5c-0.6-2-1.9-1.3-3-0.5c-5,3.7-10.8,5.6-16.7,7.2c-0.9,0.3-1.9,0.6-2.4,1.5
		c-0.4,0.7-0.5,1.6-0.2,2.3c0.4,0.9,1.3,0.8,2.1,0.5c6.3-2.8,12.6-5.7,18.9-8.5C123.2,135.4,123.7,134.6,123.6,133.5z"/>
	<path d="M126.8,321c0.7-1.5,0.4-3.2,0.4-4.8c-0.6-25-1.2-50-1.9-75c-0.1-5.1-0.2-5.2-5.3-4.4c-3.7,0.5-7.4,0.5-11.1,0
		c-4.1-0.6-4.4-0.3-4.2,4c0.9,18.4,2,36.8,2.8,55.1c0.4,8.4,0.5,16.8,0.7,25.2c-1.9,0-3.9,0-5.8,0c-9.2-15.6-17.2-31.8-24.1-48.5
		c-1.6-3.9-1.7-3.9-5.6-2.2c-3.4,1.5-6.9,2.5-10.7,2.9c-4.3,0.4-4.5,0.6-2.7,4.6c6.6,14.7,13.5,29.3,21.7,43.2c-1,0-1.9,0-2.9,0
		c-6.6-11.1-12-22.9-18.3-35.4c-2.3,5.3-5.3,8.1-9.5,9.4c-4,1.3-5,0.7-6.3-3.3c-0.3-0.9-0.3-2.1-1.8-3c-0.7,11.2,0.4,21.8,1.9,32.3
		c-1,0-1.9,0-2.9,0c-0.9-12-2.4-24-1.4-36.1c0.1-1.8-0.9-2.6-2.6-2.8c-2.7-0.2-5.4-0.8-8-1.7c-4.5-1.6-4.7-1.5-4.7,3.1
		c-0.1,6.4-0.1,12.9,0.2,19.3c0.3,6.1,0.2,12.2,2,18.2c-1,0-1.9,0-2.9,0c-1.9-14-2.1-28.1-1.6-42.1c0.1-3.9,1-4.5,4.3-2.6
		c4.5,2.7,9.4,3.1,14.4,3.6c1.6,0.2,2.2-0.4,2.8-1.8c3.3-7,4.8-7.9,12.7-7.4c5.6,0.3,10.9-0.5,16-3.1c4.4-2.2,5.8-1.6,7.8,3
		c5,11.8,10.3,23.4,16.3,34.7c2.1,4,4.4,7.9,6.7,11.8c0.3,0.6,0.7,1.1,1.8,0.9c1-1.6,0.6-3.6,0.5-5.4c-0.4-18.1-1.4-36.2-2.4-54.3
		c-0.4-6.5-0.8-12.9-1.2-19.4c-0.2-4.8,0.8-5.8,5.6-5.1c7.8,1.2,15.3,0.8,22.6-3c4.4-2.3,10-0.3,12.7,4.1c3.4,5.5,3.6,11.7,3.4,17.8
		c-0.1,2.4-1.6,2.5-3.4,1.6c-3.7-2-7.2-4.3-10.4-7.1c-1.1-0.9-1.9-2.3-3.5-2.7c-1.4,1.7-0.8,3.7-0.7,5.5c0.5,22.6,1,45.3,1.5,67.9
		c0,1-0.1,1.9-0.1,2.9C128.8,321,127.8,321,126.8,321z M143.8,247.5c-0.3-3.9-0.8-8-3.3-11.6c-2.1-3-6.6-4.2-8.9-2.5
		c-2.3,1.7-2.4,5.6-0.3,8.8c0.4,0.5,0.8,1,1.2,1.5c2.3,2.5,5,4.6,7.9,6.3C143.3,251.8,143.8,251.4,143.8,247.5z M45.9,284.2
		c0,0.6-0.1,1.3,0,1.9c0.3,2.3-0.2,5,2,6.6c1.3,0.9,6.1-1.9,7.6-4.3c1.3-2,1.7-4.2,1.2-6.5c-0.4-2.2-1.3-4.3-2.3-6.3
		c-1.5-3-3-3.3-5.5-1.2C46.1,277,45.8,280.5,45.9,284.2z"/>
	<path class="st0" d="M44.3,321c-1.4-10.6-2.6-21.1-1.9-32.3c1.4,0.9,1.5,2,1.8,3c1.3,4,2.3,4.6,6.3,3.3c4.2-1.3,7.2-4.1,9.5-9.4
		c6.3,12.5,11.7,24.3,18.3,35.4C67,321,55.6,321,44.3,321z"/>
	<path d="M184.1,321c1.5-12.7,3.1-25.4,4.6-38c0.1-1,0.3-1.9,0.4-2.9c0.6-5.4,0.5-5.5-4.9-5.1c-5.2,0.3-10.3-0.1-15.4-1.1
		c-4.7-0.9-4.7-0.9-5.4,4c-1.9,13.4-3.9,26.9-5.8,40.3c-0.1,1-0.4,1.9-0.6,2.8c-0.6,0-1.3,0-1.9,0c0.9-11.8,3.2-23.4,4.7-35.1
		c0.5-3.7,0.9-7.4,1.6-11c0.8-4.1,2-4.9,6.1-4c7,1.6,14,2.1,21.2,0.9c3.7-0.6,4.1-0.1,3.6,3.9c-1.7,13.8-3.4,27.6-5.1,41.4
		c-0.2,1.3-0.4,2.6,0,3.8C186.1,321,185.1,321,184.1,321z"/>
	<path d="M3.6,144.3c1.4,2,1.6,4.5,2.4,6.8c1.2,3.5,1.6,3.8,5.2,2.8c1.8-0.5,3.7-1.2,5.4-2.1c5.8-3.1,6.1-4.2,3.7-10.2
		C13.7,124.9,9.8,107.5,5.9,90c-0.6-2.7-0.7-5.4-2.2-7.9c0-4.5,0-9.1,0-13.6c2.5,11.1,4.9,22.3,7.5,33.4c3.4,14.3,6.9,28.5,12.9,42
		c1.2,2.7,0.7,4.5-1.4,6.4c-3.7,3.4-8,5.3-12.8,6.4c-3,0.7-5,0-6.2-2.8C3.6,150.8,3.6,147.6,3.6,144.3z"/>
	<path class="st0" d="M137.5,6.5c-7.1,3.4-14.2,6.7-21.3,10.1c-2.1,1-3.1,0.4-2.9-1.9c0.2-2.7,0.6-5.4,0.9-8.1
		C122,6.5,129.7,6.5,137.5,6.5z"/>
	<path d="M50.2,263.8c0.1,2.4-0.6,4.5-2.7,5.9c-2,1.3-4.1,2.4-4.3,5.3c-0.1,1.5-1.7,1.9-3,1.7c-5-0.6-9.8-1.9-14.4-4.1
		c-0.4-0.2-1-0.5-1.1-0.9c-0.7-4.4-3.4-8.6-2.2-13.3c0.4-1.8,0.5-3.5,0.5-5.3c0.2-11.6,0.9-23.2,3-34.7c0.4-2.1-0.4-3.8-1.1-5.6
		c-5.5-13.3-10.7-26.7-15.6-40.2c-0.3-0.9-0.7-1.8-1-2.7c-2.2-6.7-1.9-7.3,4.8-9.3c4.1-1.2,7.9-2.8,10.8-6.1c1.8-2,2.9-1.4,3.7,0.9
		c2.2,6.1,4.5,12,7.3,17.7c2,0,1.7-1.4,2-2.4c2.2-7.1,4.4-14.2,6.5-21.3c0.7-2.5,1.7-3.6,4.4-1.9c3.3,1.9,7,2.2,10.8,2.2
		c5.1,0,5.2,0.2,4,5.3c-3.6,14.3-7,28.6-10.3,42.9c-1.9,8.1-1.2,15.3,2.7,22.8c5.9,11.5,11.1,23.3,17.4,34.6c2.8,5,2.2,6.5-3,8.9
		c-4.5,2.1-9.3,2.4-14.2,2.7C52.7,267.1,52,264.6,50.2,263.8c-1.3-3.4-3.1-6.5-5.9-9.4c-1.4,2.3-0.5,3.6,0.9,4.9
		C46.9,260.7,48.5,262.3,50.2,263.8z M58.5,264.1c3.6,0,6.7-0.8,9.7-2.1c3.7-1.7,3.9-2.2,1.9-5.8c-9.8-17.9-18.3-36.4-26.3-55.1
		c-5.7-13.2-11.1-26.6-16.7-39.8c-1.6-3.8-1.7-3.8-5.1-1.8c-2.8,1.7-5.8,2.8-8.9,3.8c-4.1,1.2-4.1,1.3-2.7,5.3
		c7.1,19.8,14.6,39.4,23.3,58.6c5.2,11.5,10.9,22.7,17.9,33.3C53.4,263.1,55.5,264.7,58.5,264.1z M47.7,202.9
		c0.4-0.1,0.8-0.1,1.2-0.2c1-4.5,1.8-9.1,2.9-13.6c2.6-10.8,5.3-21.7,7.9-32.5c0.9-3.7,0.8-3.8-3-4.3c-2.4-0.3-4.8-0.5-7.1-1.4
		c-2.4-0.9-4-0.4-4.7,2.3c-1,3.6-2.3,7.1-3.3,10.6C37,179,37,179,43.2,193.5C44.6,196.7,45.6,200.1,47.7,202.9z M28.2,223.1
		c-1.8,10.4-2.7,20.8-2.7,31.3c0,2.5,1.2,3.1,3.4,2.5c2-0.6,4.2-0.6,6.2-0.8c1.9-0.2,4.9,1.8,5.6-1.6c0.4-2.1,1-4.5,0.3-6.7
		c-0.4-1.1-0.9-2.1-1.4-3.1c-2-4.1-4-8.1-6-12.2C31.9,229.4,30.9,226,28.2,223.1z M34.6,258.6c-0.6,0.1-1.6,0-2.5,0.2
		c-2.1,0.6-5.4,0.2-5.9,2.4c-0.6,2.2,2.2,3.7,4,5c5.1,4.1,10.5,4.6,15.3,1.8c2.3-1.4,2.4-2.7,0.7-4.6
		C43.1,260.2,39.4,258.6,34.6,258.6z M39.3,273.3c-2.2-0.9-4.5-1.4-6.7-2.2c-2-0.7-3.3-3.3-6.8-2.4C30,272.8,34.6,273.1,39.3,273.3z
		"/>
	<path d="M196.2,196c-0.6,20.9-1,43.2-3.4,65.4c-0.6,5.2-0.6,5.2-5.6,6.2c-6.5,1.2-12.9,0.6-19.2-1.2c-4-1.2-4-1.4-3.6-5.9
		c2.9-31.7,5.9-63.4,5.6-95.3c-0.1-6.5-0.1-12.9-0.9-19.4c-0.7-5.1,0.3-6,5.6-5.6c5.4,0.5,10.6,0,15.9-1.1c4.6-1,5-0.7,5.2,4.1
		C196.3,160.4,196.5,177.5,196.2,196z M193.7,195.3c0.2-16.5,0.1-33-0.4-49.4c-0.1-4.3-0.2-4.4-4.5-3.7c-4.7,0.8-9.3,1.1-14,0.7
		c-2.6-0.2-3.3,0.8-3.1,3.4c2,23.1,0.6,46.2-1,69.2c-1,14.7-2.3,29.3-3.6,44c-0.3,3,0.6,4.5,3.6,5.1c4.8,1,9.6,1.6,14.4,0.8
		c4.7-0.7,4.9-0.8,5.4-5.7C192.7,238.3,193.2,216.8,193.7,195.3z"/>
	<path d="M134.4,226.6c-1.9-0.3-4.5,0.5-5.7-2.1c-1.1-2.5-0.2-4.9,1.2-6.9c3.7-5.1,9.2-6.8,15-7.9c2.1-0.4,2.7,1.1,3,2.9
		C149,221,143.7,226.6,134.4,226.6z M134.9,224.1c6.4,0,10.6-3.7,10.6-8.9c0-1.8-0.6-2.9-2.6-2.4c-4.1,0.9-8,2.4-10.7,5.9
		c-0.9,1.2-1.5,2.6-0.9,4C131.9,224.5,133.6,224,134.9,224.1z"/>
	<path class="st2" d="M39.3,273.3c-4.7-0.1-9.3-0.4-13.5-4.6c3.5-0.9,4.9,1.6,6.8,2.4C34.8,271.9,37.1,272.4,39.3,273.3z"/>
	<path class="st0" d="M50.2,263.8c-1.7-1.5-3.3-3.1-5-4.6c-1.4-1.2-2.3-2.5-0.9-4.9C47.1,257.3,48.9,260.4,50.2,263.8L50.2,263.8z"
		/>
	<circle cx="65" cy="118.7" r="2.7"/>
	
		<linearGradient id="SVGID_1_" gradientUnits="userSpaceOnUse" x1="105" y1="910" x2="105" y2="1234" gradientTransform="matrix(1 0 0 1 0 -910)">
		<stop  offset="0" style="stop-color:#EB1A21"/>
		<stop  offset="1" style="stop-color:#A51A21"/>
	</linearGradient>
	<path class="st5" d="M210,324c-70,0-140,0-210,0C0,216,0,108,0,0c70,0,140,0,210,0C210,108,210,216,210,324z M199.9,162.6
		c0-46.5-0.2-87.6-0.2-134.1c0-9.4-3.5-18.1-13-18.1c-50.8,0-101-0.4-151.8-0.4c-4,0-8.3,0.5-12.3,0.7c-5.9,0.2-11.3,6.1-11.3,11.8
		c0,93.3-0.4,182.4-0.4,275.8c0,1.5,0.2,1.6,0.3,3.1c0.7,6.6,5.6,12.6,11.9,12.6c55.5,0,106.8,0.2,162.3,0.3c1.9,0,3.6-0.7,5.3-1.7
		c5.5-3,9.5-6,9.5-12.1C200.1,254,199.9,208.9,199.9,162.6z"/>
	<path d="M200.8,161.4c0.1-9.1,0-18.3,0.1-27.6c0.2-36.3,0.1-72.7,0-109c0-9.1-6.8-15.3-16-15.3c-52.8,0-105.7,0-158.5,0
		c-9.4,0-15.6,6.2-15.6,15.8c0,38.4,0.2,76.7,0.1,115.1c0,29.5-0.4,58.9-0.5,88.4c-0.1,23.5-0.1,47-0.1,70.4c0,8,6.5,15.3,13.7,15.3
		c54.3,0.1,108.6,0,162.9,0c2.2,0,4-0.5,5.9-1.8c5.1-3.5,8.1-7.9,8-14.4C200.7,252.7,200.8,207.1,200.8,161.4z M186.5,310.2
		c-3,0-3.7,0-3.7,0s-103.1,0-154.7,0c-8.3,0-13.1-4.5-13-14.9c0-22.8,0-45.6,0.1-68.4c0.1-28.6,0.5-57.2,0.5-85.9
		c0.1-37.3-0.2-75.1-0.1-112.3c0-7.9,2.5-14.8,12.6-14.8c50.2,0,105.1,0.2,155.3,0.2c8.7,0,13,5.3,12.6,14.1c0,35.2,0,106.5,0,106.5
		v27c0,0,0,91.6,0.1,135.9C196,304.4,191.2,309.6,186.5,310.2z"/>
	<g>
		<g>
			<g>
				<path class="st0" d="M49.3,305.8v-10.4H21.3v-13.7L44,232.3h18.9l-12.6,27.6h16.1v18.8h5.2v16.7h-5.2v10.4H49.3z M49.3,278.7
					v-16.4l-7.4,16.4H49.3z"/>
				<path d="M58,235.5l-21.1,46.4h15.5v10.4H24.4v-9.9l21.6-47h12 M63.4,263.1v18.8H52.5v-18.8H63.4 M68.6,281.9v10.4h-5.2v-10.4
					H68.6 M63.4,292.3v10.4H52.5v-10.4H63.4 M67.8,229.1H58H46h-4.1l-1.7,3.6l-21.5,47l-0.6,1.3v1.4v9.9v6.3h6.3h21.8v4.1v6.3h6.3
					h10.9h6.3v-6.3v-4.1h5.2v-6.3V282v-6.3h-5.2v-12.5v-6.3h-6.3h-8l8.5-18.8L67.8,229.1L67.8,229.1z"/>
			</g>
		</g>
		<path class="st0" d="M63.4,292.3H52.5v-10.4h10.9V292.3z"/>
	</g>
</g>
</svg>
