<?xml version="1.0" encoding="utf-8"?>
<!-- Generator: Adobe Illustrator 22.0.1, SVG Export Plug-In . SVG Version: 6.00 Build 0)  -->
<svg version="1.1" id="레이어_1" xmlns="http://www.w3.org/2000/svg" xmlns:xlink="http://www.w3.org/1999/xlink" x="0px"
	 y="0px" viewBox="0 0 210 324" style="enable-background:new 0 0 210 324;" xml:space="preserve">
<style type="text/css">
	.st0{fill:#FFFFFF;}
	.st1{fill:#004C34;}
	.st2{fill:#EB1A21;}
	.st3{fill:#00707A;}
	.st4{fill:url(#SVGID_1_);}
</style>
<g>
	<g>
		<path class="st0" d="M2,138.3C2,92.9,2,47.4,2,2c16.3,0,32.7,0,49,0c1.4,2.5-0.1,4.5-0.9,6.6c-5.3,13.5-9.9,27.1-10.8,41.8
			c-0.1,2.1-1.3,3.2-3.3,4.1c-5.7,2.6-11.6,4.6-17.3,7.1c-5.3,2.4-5.5,3.8-1.5,8c4.5,4.7,9.3,9.3,13.8,14.1c2.2,2.3,2.7,4.8,1.9,8
			c-1.9,8.2-1.7,16.6-1.5,25c0.1,3.1,1.7,3.9,4.4,3.8c0.7,0,1.5-0.2,2.2-0.3c6.2-0.4,6.2-0.4,5.2-6.7c-0.1-0.8,0-1.5-0.1-2.3
			c-0.1-1.9-0.3-4,1.9-4.8c2.4-0.8,3.3,1,4.4,2.7c6.5,10.2,12.4,20.7,17.1,31.8c1.8,4.3,5.1,8.5,4.1,13.3
			c-1.2,6.1-1.1,12.2-1.3,18.2c-0.3,10.5,0.1,21,1.5,31.5c0.6,4.6,2.8,6.5,7.5,6.5c2,0,4.1-0.1,6.2-0.4c1.5-0.3,3,0.4,3.2,2.3
			c0.2,1.8-1,2.9-2.6,3c-3.1,0.1-6.2,0.3-9.2-0.3c-2.2-0.4-4.5-1-6.8-0.4c-2.7,0.6-3.9-0.8-4.9-3.3c-2.1-5.4-3.5-11.1-5.2-16.6
			c-1-3.2-2.2-4.3-5.5-2.9c-1.6,0.7-3.6,0.8-5.5,0.8c-3.4,0-4.5,2-3.4,5.2c0.2,0.7,0.4,1.4,0.7,2.1c2,4.9,3.4,9.4-3.2,12.5
			c-2.7,1.3-4.3,4.8-6.6,7.1c-1.6,1.6-1.3,3.4-0.3,5.3c6.9,13.9,13.5,28.1,21.2,41.5c4.2,7.3,8.8,14.5,13.2,21.7
			c1.2,1.9,2.3,4.1,1.6,6.6c-2,7.2-1.8,14.7-1.7,22.1c0,2-0.2,3.9-2,5.2c-21.9,0-43.8,0-65.7,0c0-53.3,0-106.7,0-160
			c3-0.7,3.6,1.9,4.7,3.7c7.8,12.6,14.2,25.9,20.2,39.4c1,2.1,2,4.3,3.2,6.3c1.1,1.9,2.2,2.2,3.9,1.1c4.3-2.8,5.8-8.4,3.5-13.1
			c-8.4-17-16.7-34-26.7-50.2C8.3,145.2,5.5,141.5,2,138.3z"/>
		<polygon class="st1" points="167.7,145.4 166.5,152 171.5,151.7 176,174.3 179,169.7 184.9,137.7 173.5,136.4 168.4,136.4 		"/>
		<polygon class="st1" points="168.6,228.5 168.6,234.6 164,235.7 162.6,274.4 157.7,305.6 151.5,305.6 141.1,300.9 143,292.6 
			150.6,245.5 152.6,241.7 152.2,224.2 160.1,225.1 		"/>
		<path d="M67.7,322c0.1-9.5,0-19.1,1.4-28.6c0.3-1.9-0.5-3.5-1.4-5.1c-2.3-4.2-4.7-8.3-6.9-12.5c-2.7-5.2-6.4-8.6-12.8-8.2
			c1.1-2.8,3.6-1.3,5.1-2.1c0.1-2-1.1-3.4-1.9-5c-5.8-11.6-11.7-23.1-17.6-34.7c-2.4-4.8-2.4-4.8,1.4-8.1c2.3-2.1,4.4-4.4,6-7.2
			c1.1-2,2.3-3.5,5.1-3c-1.4-4.2-2.7-7.9-3.8-11.7c-1.2-4.1-0.4-5.2,3.8-5c3.3,0.1,6.5,0.1,9.4-2c2.6-1.9,3.8-0.4,4.6,2
			c1.6,5.2,3.1,10.4,4.7,15.6c0.7,2.2,1.4,4.4,2.4,7.2c2.8-2.4,5.4-1.3,8.2-0.6c4,1,8.2,1.3,12-1c-2.8-0.6-5.4,0.5-8.1,0.4
			c-6.9-0.4-9.1-2.1-9.9-8.8c-1.8-15.9-2.2-31.8-0.6-47.8c0.4-3.6-0.1-6.8-1.5-10C61.9,133.8,56,122.1,49,111
			c-0.8-1.3-1.8-2.6-3.1-4.4c-1.1,4.7,0.1,8.5,0.6,12.3c0.6,4.7,0.3,5-4,3.6c-2.4-0.8-4.5-0.3-6.7,0.3c-3.8,0.9-4.6,0.6-5.3-3.3
			c-1.1-5.9-0.6-11.8-0.3-17.7c0.2-3.3,0.4-6.6,1.2-9.8c0.9-3.4-0.3-5.6-2.4-7.9c-4.9-5.3-9.9-10.5-15.3-15.3
			c-3.4-3.1-3.3-4.2,0.9-6.3c6.6-3.3,13.4-6.2,20.3-8.7c2.1-0.8,3-1.8,3.2-4.2C39,32.6,44.5,17.1,51,2c1.3,0,2.6,0,3.9,0
			c2,2.6,0.4,5.1-0.5,7.4c-3.5,8.7-6.5,17.5-8.6,26.7c-0.3,1.3-0.7,2.5-0.9,3.8c-0.2,1.7-1.3,4.3,0.7,4.8c2.2,0.6,2.4-2.2,2.8-3.8
			C50.8,30.3,54.2,20,58.3,10c1.3-3.1,2.8-5.9,5.5-8c1.6,0,3.3,0,4.9,0c1.7,2,0.7,4-0.2,6c-3.8,9-7.5,18.1-9.8,27.7
			c-1.6,6.6-0.8,7.6,5.6,6.3c3-0.6,6.7,0.8,8.8-1.5c2.1-2.3,1-6,1.5-9c1.1-7.6,2.1-15.2,3.2-22.9c0.4-2.8,1.4-4.9,3.6-6.6
			c1.3,0,2.6,0,3.9,0c2.3,2,1.6,4.6,1.2,6.9c-1.9,10.7-3,21.5-4.3,32.3c-1,8-0.3,11.4,3.9,15.1c1.2-3.4,1.6-6.8,1.6-10.1
			c0.2-12.5,2.3-24.9,4-37.2c0.5-2.8,1.3-5.2,3.5-7c1.3,0,2.6,0,3.9,0c2,1.5,2,3.5,1.7,5.7c-1.4,9.1-2.7,18.2-3.7,27.3
			c-0.5,4.9-0.7,9.8,0.5,14.7c1.3,5.6,1.2,11-2,16.1c-1.3,2.1-1.4,4.6,0.6,6.5c1.5,1.5,2.2,3.5,3.5,5c0.3,0.4,0.6,0.9,0.8,1.3
			c6.1,8.5,10.8,17.9,16.1,26.9c1.1,1.9,2.8,2.8,5,2.3c4.4-0.9,7,0.6,7.3,5.4c0.2,2.8,1.9,3.6,4.4,2.9c1.1-0.3,2.2-0.6,3.4-0.6
			c3.7,0,5.8,2.3,5.1,6c-0.7,3.9-2.3,7.5-4.3,11c-1.3,2.2-1.8,3.7,0.9,5.6c3.9,2.7,4.3,6.2,1,9.6c-3,3.1-2.9,6.2-1.7,9.9
			c4.8,15.2,9.1,30.5,12.5,46.2c1,4.7-0.1,9.5,0.7,13.2c-0.6-5.6-0.5-12.2,1.3-18.5c3.5-13,3.2-25.9,1.2-39.1c-1-6.1-0.2-7,5.9-8.2
			c3.2-0.6,6.5-0.2,9.5-1.5c4.1-0.9,5.3,1.9,5.3,1.9l0.8,6.5l0.4,3.3c0,0,0.3,2.3,0.4,3c1.2,9.8,1.5,9.4,3,2.3
			c1-4.9,3.2-15.6,3.9-20.4c0.6-5.8,3.7-7.3-6.2-8.4c-6.3-0.7-5.2,3.3-5.9,5.4c-0.4,1.4-0.8,4.5-1,5.9c-0.5,3-8.3,1.9-13.1,2.7
			c-3.7,0.7-5.8-0.8-6.4-4.6c-1.4-8.4-2.3-16.9-3.6-25.4c-2-12.5-4.2-25-6.6-37.4c-1.3-6.8-0.2-8.4,6.6-10.1c2.4-0.6,4.7-1.5,7-2.2
			c4.9-1.6,7.2-0.5,8.5,4.3c2.9,10.1,5.2,20.4,6.3,29.4c1.7-11.6,4.7-24.5,5.4-37.7c0.2-3.5-0.3-6.6-2.4-9.3c-1.6-2.1-1.9-3.9,0.9-5
			c2.5-0.9,2.9-2.9,3.2-5.1c1.7-13,3.2-26.1,3-39.3c0-2.8-0.2-5.7,2.4-7.6c1.3,0,2.6,0,3.9,0c2.4,1.8,2.4,4.5,2.4,7.2
			c0.1,12.2-1.1,24.3-2.5,36.4c-0.2,2.1-0.6,4.2-0.5,6.4c0,2,0.8,3.6,2.9,4c2.3,0.4,3.7-0.9,4.5-2.9c0.7-1.7,0.7-3.6,0.6-5.4
			c-0.6-13,1.3-26,1.1-39c-0.1-2.5,0.1-5,2.4-6.7c1.3,0,2.6,0,3.9,0c1.7,1.3,2.3,3.1,2.1,5.2c-1.3,13.1-0.3,26.3-0.6,39.5
			c-0.1,2.3,0.1,4.6-0.1,6.9c-0.6,9.3-1.7,10.4-11.1,10.6c0.7,0,1.4,0,2.1,0c7-0.5,8.4,0.8,7.8,7.8c-1.6,18.4-3.8,36.6-8.6,54.5
			c-2.5,9.1-1.1,7.8-10.3,7.9c1.1,0,2.2,0,3.3,0c4,0.2,5.3,1.4,4.5,5.6c-2,10.2-2.1,20.9-5.4,30.8c-3.3,9.7-2.2,19.4-1.3,29.2
			c0.8,8.5,0.8,16.9-0.3,25.4c-0.2,1.9-1,2.9-2.7,3.6c-4.5,1.9-12.4,0.3-14.6-0.1c-6.5-1.1-8.7,0.7-9.4,7.5
			c-0.4,3.6-0.8,8.9-1.7,12.4c-1.1,4.3-1.4,8.8-2.1,13.1c-1.6,9.4-3.3,19.4-5.2,28.8c-0.4,2.1-2.1,6.1-2,8.3
			c0.1,1.8,6.9,4.8,8.8,5.2c2.1,0.5,2.5-4.2,3-6.1c0.5-1.7,0.5-3.3,0.7-4.7c2.3-15.1,3.6-30.3,3.5-45.7c0-3.8-0.2-7.6,0.2-11.3
			c0.4-4.5,1.4-5.1,5.9-4.8c3.8,0.2,7.6-0.4,11.2-1.7c4.2-1.5,5.8-0.4,6.2,3.8c2.5,27.1,0.5,54-4.9,80.6c-0.6,3-0.9,6.3-4.4,7.8
			c-1.3,0-2.6,0-3.9,0c-1.5-2.1-1.2-4.4-0.7-6.6c4.7-20.6,5.8-41.6,7-62.7c0.2-3,0.3-5.9-0.5-8.8c-0.5-1.8-1.1-3.7-3.4-3.6
			c-2.4,0.1-3.2,1.9-3.6,4c-0.3,1.3-0.2,2.6-0.3,3.9c-0.4,21.3-2.7,42.3-7.1,63.1c-0.8,3.9-1,8.3-5.1,10.7c-1.3,0-2.6,0-3.9,0
			c-1-0.9-1.4-2.1-2-3.3c-2.1-4.3-6.5-4.4-8.8-0.3c-1,1.7-2.4,2.6-3.9,3.6c-1.3,0-2.6,0-3.9,0c-1.2-1.6-1.3-3.3-0.7-5.1
			c1.5-4,0.6-7.6-1.7-11.1c-2-3-2.1-7-4.8-9.7c-1.7-1.5-2-2.8,0.7-3.2c2.1-0.3,3.9,0.6,5,2.4c3.7,5.7,7.9,10.7,14.9,12.4
			c-1.7-0.5-2.9-1.7-4.3-2.4c-5.8-2.8-5.9-2.9-4.7-9.1c2.4-12.3,4.6-24.6,6.3-36.9c0.2-1.1,0.4-2.3,0.5-3.4c0.3-4.9-0.9-6-5.6-5.2
			c-10.5,1.7-21,3.2-31.4,5.1c-2.6,0.5-5.2,0.9-7.7,1.2c-4.7,0.5-6.3-0.6-7.2-5.2c-1.6-8.7-3.4-17.5-3.8-26.4
			c0.7,6.6,0,13.2-0.8,19.7c-0.5,4.2-0.5,8.3,1.3,12.1c4.9,10.2,9.6,20.5,15.3,30.4c0.7,1.3,1.4,2.6,2.7,3.4
			c0.9,0.5,1.9,0.6,2.7-0.1c0.8-0.6,0.4-1.4,0.2-2.2c-1.2-4.9,0.2-7.5,4.4-8.3c5.2-1,7.6,0.9,8.2,6.2c-0.3-6,1.6-9.4,6.3-11.1
			c3-1.1,5.4,0,6.1,3.1c1.1,4.8-0.2,9.1-3.2,12.9c-1.3,1.6-3.1,1.4-4.9,1.5c-3.3,0.3-2.4,1.8-0.7,3.3c4,5.9,5.1,12,0.2,17.7
			c-2.1,2.4-0.9,5.8-3.1,8c-1.3,0-2.6,0-3.9,0c-3.1-1.3-5.4-3.4-7.4-6.2c-10.8-15-19.4-31.2-27.3-47.8c-1-2-1.5-5.9-4.6-4.1
			c-2.6,1.5,0,4.1,1.2,5.9c9.1,13.7,16.5,28.4,23.5,43.2c1.3,2.7,4,5.7,0.9,9c-1.3,0-2.6,0-3.9,0c-3.3-1.7-4.8-4.8-6.2-8
			C90,300.6,82.7,287.9,75,275.5c-1.3-2.1-2.5-6.2-6-4c-3.3,2-0.6,5.1,0.6,7.4c6.6,12.7,13.8,25,20.3,37.7c0.9,1.8,1.9,3.5,0.3,5.4
			c-1.6,0-3.3,0-4.9,0c-5.6-3.7-7-10.4-11.1-16.1c-0.3,3.7-0.2,6.8-0.2,10c0,2.4-0.3,4.6-2.4,6.1C70.3,322,69,322,67.7,322z"/>
		<path class="st0" d="M99.1,79c-2.7-1.8-4-4.7-5.3-7.4c-1-2-1.5-4.7,0.2-6.5c2.9-3.1,3-6.8,2-10.1c-3.7-12.3-0.8-24.4,0.6-36.5
			c0.6-5.5,1.6-11,2.5-16.5c6.2,0,12.4,0,18.6,0c4,1.4,4.9,5.3,6.2,8.5c7.1,18.1,12.2,36.7,15.2,55.9c1.1,6.7,1.5,7,8,5.6
			c4.8-1,9.1-3.5,13.9-4.4c1.4-0.3,2.6-1.4,3.4-2.7c1-1.5,1.5-3,0.2-4.5c-1.1-1.4-2.6-1-4-0.4c-6.1,2.3-6.1,2.3-7.7-4
			c-4.1-16.4-8.5-32.8-14-48.8c-0.6-1.8-1.4-3.5,0.3-5.1c13.7,0,27.5,0,41.2,0c0.7,18.5-1,36.7-4.2,54.8c-2.3,0.8-3.1-2.3-5.1-1.3
			c-0.7,0.4-0.3,0.9,0,1.2c4.3,3,5.5,6.8,4.9,12.3c-1.6,14.7-4,29.3-7.2,43.8c-0.2,0.8-0.1,1.6-1,2.2c-1.4-0.5-1-1.8-1.2-2.8
			c-1.9-11.5-4.1-23-7-34.3c-1.3-5.1-2.1-5.5-6.7-3.4c-2.4,1.1-4.9,1.7-7.5,2.2c-4,0.7-4.6,1.6-3.9,5.7c1.5,8.2,3.2,16.5,4.6,24.7
			c2.3,12.9,4,26,5.8,39c0.5,3.9,1.2,4.5,5.1,3.8c3.4-0.6,5.4-1.5,8.8-2.4c1.4-0.4-0.1,3.7-0.1,3.7c-3.7,0.5-3.8,1.1-7.9,2.2
			c-2.5,0.6-2.8,1.7-2.5,3.8c0.7,5.4,1.1,10.8,2,16.1c0.8,5,0.3,9.8-0.6,14.7c-1.6,8.4-3.2,16.8-4.8,25.2c-0.9,4.9-0.2,6,4.7,7.3
			c0.5,0.1,1,0.2,1.4,0.3c0.8,0.2,1.8,0.2,1.7,1.3s-1,1.1-1.9,1c-1.9-0.2-3.6-1.3-5.7-1c-1.6,0.2-1.1-1.7-1.3-2.6
			c-2.5-12.2-5.2-24.4-8.4-36.5c-2.7-10.2-5.7-20.2-9.2-30.2c-0.8-2.3-0.8-3.8,1.7-4.5c0.2,0,0.3-0.1,0.4-0.2
			c1.7-1.5,4.8-2.2,3.9-5.5c-0.7-2.5-3.7-3.9-7.3-3.6c-0.9,0.1-1.9,0.7-2.9,0.2c6.5-4.4,8.5-11.4,10.9-18.2c0.8-2.2-0.4-3.2-3.1-2.8
			c-4,0.6-7.3,2.7-11,4.8c0.1-3.8,1-7.1,0.9-10.6c-0.1-2.4-1-2.7-3.1-2.1s-3.8,1.9-5.2,3.4c-1-0.1-1.4-0.9-1.7-1.6
			c-5.1-10.5-10.7-20.7-16.9-30.6c-0.4-0.7-0.9-1.4-0.8-2.3c3-1,5.1,1.5,7.8,1.8c2.3,0.3,4.5,0.7,6.5-0.9c0.6-0.5,0.5-1.2,0.1-1.8
			c-1.4-2.3-3.8-2.9-6.3-3C103.7,74.8,101.4,77,99.1,79z"/>
		<path class="st0" d="M173.6,322c3.5-13.1,5.3-26.4,6.6-39.8c1.6-15.6,1.6-31.2,1.2-46.8c-0.2-5.2,0-4.3-5.3-3.5
			c-3.1,0.5-7.4-0.3-9.9-0.3c-1.6,0-0.4-1.7-0.3-3.1c8.3,0.2,5.6,0.5,11.7-0.8c2-0.4,1.9-2.4,1.9-4.1c0.3-11.9-0.2-23.7-1.6-35.5
			c-0.5-4-0.3-7.8,0.8-11.7c3.2-11.6,5.5-23.3,7.8-35.1c1-5.5,0.5-6.1-4.9-6c-3.7,0.1-7.2-0.1-10.4-2c-0.9-0.5-1.6-1.1-1-2.8
			c3.5,0.8,6.9,2.3,10.6,2.7c5.7,0.6,5.4,0.6,6.9-4.9c5-18,7.5-36.4,9-54.9c0.1-1,0.2-2,0.3-2.9c0.3-5.1-0.1-5.4-5-5.2
			c-4.5,0.2-9,0.1-13.5-2.3c1.3-1.2,2.4-0.7,3.4-0.5c1.5,0.2,2.9,0.5,4.4,0.6c10.5,0.5,11.4-0.3,11.7-10.8c0.3-15,0.6-29.9,0.9-44.9
			c0-1.8-0.3-3.6,0.5-5.4c2.9,0,5.9,0,8.8,0c0,106.7,0,213.3,0,320C196.5,322,185.1,322,173.6,322z"/>
		<path class="st0" d="M81.4,2c-2.4,15.1-4.7,30.1-5.8,45.3c-1.5,0.4-2-0.7-2.5-1.4c-1.5-1.9-3.3-2.4-5.6-1.8
			c-3.3,0.8-6.7,1.4-10.1,2.1c-3.6,0.7-3.8,0.5-3.2-3c1-5.2,2.3-10.2,4-15.2c2.9-8.9,6.1-17.7,10.4-26C72.9,2,77.2,2,81.4,2z"/>
		<path d="M122.6,2c0.1,0.6,0,1.3,0.3,1.9c9.2,20,14.3,41.2,18.2,62.8c0.8,4.6,0.8,4.6,5.3,3.7c7.7-1.7,7.7-1.6,6-9.2
			c-4.6-20-10.2-39.8-17-59.2c1.3,0,2.6,0,3.9,0c6.5,19.3,12.1,38.8,16.7,58.7c1.8,0.3,2.3-1.2,3.3-1.9c1.6-1.2,3.2-2.2,5.2-2.5
			c4.6-0.7,5.7,0.6,4.2,5c-1.8,4.9-4.7,8.2-10.4,9.1c-4.6,0.7-8.8,3.4-13.5,4.1c-5.4,0.8-5.7,0.7-6.7-4.8
			c-3.2-17.6-7.1-35.1-13.3-51.9c-2-5.4-4.1-10.8-7-15.7C119.4,2,121,2,122.6,2z"/>
		<path d="M2,138.3c2.3-0.1,3.9,1.1,5.3,2.8c2.8,3.6,5.3,7.5,7.6,11.4c9.5,16.1,17.5,33,26.1,49.6c0.8,1.5,0.9,2.7-0.1,4.1
			c-2.4,3.1-4.6,6.4-7.1,9.4c-2,2.4-3.1,2.2-4.4-0.9c-4.6-10.2-9.2-20.3-14.3-30.2c-4-7.7-7.8-15.6-13-22.5c0-2,0-4,0-5.9
			c2.7-1.5,3.8,0.7,5.1,2.4c4.1,5.6,7.4,11.6,10.5,17.7c4.3,8.5,8.5,17,12.7,25.5c0.6,1.2,0.9,3.5,2.7,2.7c1.5-0.7,0.6-2.7,0-4
			C28,190.1,23,179.8,17.7,169.6c-5-9.6-11.5-18.3-15.6-28.3C2,140.3,2,139.3,2,138.3z"/>
		<path class="st0" d="M123.6,322c0.2-2.6-2.4-3.7-3.2-6c4.2-1.1,5.7-4.6,6.9-8.2c1.3-3.8,0.3-7.7-0.6-11.5l-0.1,0.1
			c4.5,3.5,6.9,8.5,9.4,13.5c0.9,1.8,0.3,3.5-0.2,5.2c-0.7,2.3-1.2,4.8-2.4,6.9C130.1,322,126.9,322,123.6,322z"/>
		<path class="st0" d="M137.3,322c1.2-3.7,2.3-7.4,3.6-11.5c4,2.5,8.2,3.5,12.6,4c0.1,2.8-0.8,5.1-1.5,7.4
			C147.1,322,142.2,322,137.3,322z"/>
		<path d="M29.5,127.4c4.8-4,10.4-3.7,15.7-1.8c5.9,2.1,7.8,7.5,8.9,13.2c0.4,2.2-0.7,2.3-2.5,2.4c-5.1,0.3-5.2,0.3-4.3,5.5
			c1.9,10.9,4.2,21.6,8.3,31.9c2.2,5.5,0.9,7.8-4.9,9.3c-1.4,0.3-2.9,0.5-4.4,0.6c-2.7,0.2-4.4-0.8-5.7-3.5
			c-4.2-8.7-6.2-18-8.1-27.3c-0.2-0.8-0.3-1.6-0.5-2.5c-2.3,0.2-1.9,3-4,3.8c-3-4.3-3.1-9.3-3-14.2c0.1-4.3,1.1-8.4,2.9-12.4
			C28.6,130.8,29.7,129.2,29.5,127.4L29.5,127.4z"/>
		<path d="M44.8,269.8c2.6-0.5,4.7-0.1,4.5,3.4c1.8-0.7,0.7-3.4,2.7-3.5c1.8-0.1,3,1.3,4.1,2.4c4.2,3.9,4.7,8.8,3.2,14
			c-0.8,2.7-1.7,2.8-3.6,0.8c-2.8-2.9-4.3-6.5-5-10.7c-1.5,1.6-1.3,3.4-1.6,4.9c-1.1,4.9-4,8.1-8.5,10.1c-2,0.9-3,0.6-3.1-1.9
			c-0.2-5.9,1.1-11.4,4.9-16.1c0.8-1,1.9-1.8,2.1-3.2L44.8,269.8z"/>
		<path d="M44.8,269.8l-0.3,0.3c-5.3,2.8-10.5,5.8-16.4,7.5c-1.2,0.3-2.4,1.4-3.6,0.1c-1-1.2-0.5-2.4-0.1-3.7
			c2.7-9.3,12.1-13.4,20.7-8.9C48.6,266.8,45.9,268.2,44.8,269.8z"/>
		<path d="M29.6,127.2c-2.8,3-3.8,7.1-6.7,10.1c-1.9,2-3.9,3.8-7,4c-2.2,0.1-2.8-0.7-3.1-2.7c-1.2-8.7,6.1-15.8,14.7-14.5
			c2.3,0.4,1.7,1.9,1.9,3.2L29.6,127.2z"/>
		<path class="st2" d="M15.7,65.4C32.4,57.3,49.3,51.2,67,47.8c2.8-0.5,3.9,1.1,5.2,2.7C81.9,61.3,90.4,73,98,85.3
			c19.9,32.1,33,67.1,42.3,103.7c4.2,16.4,7.5,33,10.2,49.7c0.5,3.1-0.4,3.9-3.3,4.4c-14.9,2.3-29.7,4.8-44.5,7.2
			c-4.2,0.7-4.2,0.7-4.8-3.6c-4.9-32.3-12.2-63.9-24.3-94.3C60.6,120,42.9,90.7,17,67C16.6,66.6,16.4,66.2,15.7,65.4z"/>
		<path class="st0" d="M126.7,296.2c-1.4-0.5-2.3,0.8-3.8,1.1c0.9-2.8,2.6-4.5,4.9-5.8c4.6-2.6,5.8-6.9,5.3-11.8
			c-0.3-3.2-1.3-3.6-4.1-1.7c-3,2-4.7,4.9-5.2,8.6c-0.2,1.6-0.2,3.2-0.7,4.8c-0.3-1.4-0.4-2.9-0.8-4.3c-0.8-2.5-2.2-4.4-5.1-4.6
			c-2.4-0.2-5,0.4-5.7,2.8c-0.7,2.3,1.7,3.2,3.4,4.2c0.9,0.6,2.2,0.5,3.1,2c-3.8,1-7.9,1.6-9.6,5.7c-1.9-0.4-2.2-2-2.9-3.2
			c-6.9-11.8-12.9-24-18.6-36.4c-0.8-1.8-1.5-3.6-1.4-5.7c0.5-11.2,1.3-22.3,3.3-33.4c2.3,7.2,3.2,14.6,4.5,22
			c0.6,3.6,1.1,7.2,1.7,10.7c0.7,4,0.7,4.1,4.7,3.4c14.7-2.5,29.3-4.9,44-7.3c4.9-0.8,5-0.7,4.3,4.3c-2.3,15.8-4.6,31.6-7.9,47.2
			c-0.5,2.1,0,3.4,1.6,4.6c3.3,2.5,6.9,4.3,11.3,4.1c1.1-0.1,2.5-0.3,2.3,1.6c-0.1,1.6-1.3,1.6-2.5,1.5c-3.3-0.3-6.5-0.9-9.1-3.2
			c-1.1-1-2.4-2.2-3.8-0.9c-2.2,2-2.9,0.7-3.9-1.1c-2.6-4.5-5.3-9-9.6-12.2c-1.2,1.5,0.2,2.2,0.4,3.2L126.7,296.2z"/>
		<path class="st0" d="M81.1,250.7c-0.2,4.2-3,6.6-6.2,7.7c-3.6,1.2-6.1,3.3-8.5,6.1c-1.9,2.2-3.7,4.8-7.3,4.9
			c3.5-3.8,6.9-7.5,9.9-11.6c0.2-0.2,0.5-0.5,0.8-0.5C74.2,256.4,77.7,253.8,81.1,250.7z"/>
		<path class="st0" d="M112,304.6c3.4-1.5,6.6-2.7,9.3-5.2c-1.5,4.2-3.4,8.3-2.4,14C115.5,310.5,114.1,307.5,112,304.6z"/>
		<path d="M100.5,71c-3.7,0-4.1-0.6-3.6-4.3c1.2-7.9,9.6-13.1,16.7-10.5c0.9,0.3,1.2,0.9,1.1,1.8C114.3,63.8,106.3,71,100.5,71z"/>
		<path d="M99.1,79c-0.5-2.2-0.1-3.8,2.4-4.8c6.5-2.7,12.6-0.6,17.1,6.6c-6.9,2.7-13.5,3.1-19.6-1.9L99.1,79z"/>
		<path d="M160.5,38.2c6.6,0.9,10.7,4.1,11.7,9.2c0.4,2.1,0.7,4.5-1.3,5.9c-1.9,1.3-4.1,0.4-6-0.6c-2.5-1.3-3.6-3.6-4.3-6.3
			C159.8,43.4,159.8,42.2,160.5,38.2z"/>
		<path d="M190.7,227.2c-1.9-0.2-3.9-0.2-5.8-0.6c-1.3-0.3-2.5-1-1.8-2.8c2.5-6.3,12.4-8.3,17.4-3.4c2.3,2.2,2.1,3.7-0.8,5.1
			C196.9,226.9,193.8,227.2,190.7,227.2z"/>
		<path d="M195.1,239.4c0.1,3.7-1.3,4.9-4.6,4.1c-4.7-1.1-6.4-4.7-7.3-8.9c-0.4-1.9-1.6-4.5-0.1-5.6c1.8-1.4,3.9,0.6,5.6,1.6
			C192.3,232.5,194.8,235.4,195.1,239.4z"/>
		<path d="M197.5,157.5c0,1.1,0.1,2.1,0,3.1c-0.1,1.5-1.1,1.9-2.4,1.4c-5-1.8-8.8-10.3-6.8-15.3c1.2-3,2.5-3.4,5-1.3
			c2.2,1.9,3.2,4.6,3.7,7.3C197.3,154.3,197.4,156,197.5,157.5z"/>
		<path d="M201,144.9c-2.9-0.6-6.2-0.8-9.1-2.5c-2.3-1.3-3.2-3.2-2.4-5.8c0.6-2.3,3.3-3.7,5.8-3.4c2.9,0.4,9.2,6.3,9.5,9.2
			C205.1,145.3,203.1,145.1,201,144.9z"/>
		<path d="M192.3,228.7c2.9-1,5.5-1.1,8.1-0.4c2.6,0.6,4.3,2.2,4.8,4.9c0.4,2-0.9,3-2.4,3.8c-2.5,1.4-4.7,0.8-6.7-1.1
			C194.2,234,193.1,231.6,192.3,228.7z"/>
		<g>
			<path class="st1" d="M156,322c6.7-26.4,8.2-53.5,8.1-80.8c0-4.3-0.8-5.2,3.6-5.5c0.2,0,2.8,0.2,3,0.2c2.2,0.1,4.9-1.1,6.5,0.3
				c1.7,1.6,0.8,4.7,0.9,7.1c0.5,25.4-1.6,50.6-7.2,75.5c-0.3,1.1-0.4,2.3-1.1,3.2C165.1,322,160.6,322,156,322z"/>
			<path class="st1" d="M122.6,2c4.3,0,8.5,0,12.8,0c3.7,2.4,3.5,6.7,4.7,10.3c5.5,16.5,9.5,33.6,13.9,50.4c0.6,2.1,1.7,5.4-1.7,6.9
				c-3.9,1.8-5.1,2-9.9,2.8c-1.7,0.3-1.9-2.7-2.2-4.2c-3.6-21.1-8.5-41.9-17.4-61.5C122.1,5.2,121.1,3.5,122.6,2z"/>
			<path class="st1" d="M90.3,322c-8.5-15.6-17-31.1-25.6-46.6c-1-1.8-1.2-3.1,0.5-4.7c1.8-1.7,3.2-3.7,5-5.4
				c1.8,0.4,2.2,1.7,2.8,2.6c11.3,16.6,20.4,34.4,28.8,52.7c0.2,0.4,0.2,1,0.2,1.4C98.1,322,94.2,322,90.3,322z"/>
			<path class="st1" d="M195.2,2c-0.3,16.9-0.7,33.9-1.1,50.8c-0.2,6.8-0.3,6.8-7,6.7c-1.1,0-2.3-0.1-3.4-0.2
				c-3.9-0.6-4.1-0.8-3.4-4.7c3-17.4,4-34.9,4.1-52.6C188,2,191.6,2,195.2,2z"/>
			<path class="st1" d="M95.2,2c-1,7.6-2,15.3-3,22.9c-1.6,12.2-2.5,24.5-2.7,36.8c0,0.9,0.4,2-0.9,3c-2.8-3.5-5.6-7.1-8.4-10.6
				c-1.2-1.6-0.9-3.4-0.8-5.2c0.9-15.7,3.1-31.3,6-46.8C88.6,2,91.9,2,95.2,2z"/>
			<path class="st1" d="M105.9,322c0.1-1.4-0.7-2.5-1.2-3.7c-8.4-18.3-17.6-36.2-29-52.9c-0.5-0.7-0.8-1.4-1.3-2.3
				c2.6-1.8,5.6-2.9,7.6-5.5c1.9,1.3,2.3,3.1,3,4.7c7.2,15.3,14.8,30.4,24,44.5c3.4,5.2,7.1,10.2,10.6,15.2
				C115.1,322,110.5,322,105.9,322z"/>
			<path class="st1" d="M2,141.2c2.3,1.2,3.5,3.4,4.9,5.4c11.5,17.6,20.5,36.5,29.9,55.3c0.8,1.7,0.8,3.1-0.4,4.5
				c-1.3,1.6-2.2,3.6-4.1,4.7c-1.6-1.6-2.1-3.5-2.9-5.3c-6.3-13.5-12.6-27-20.3-39.8C7,162.5,5,158.9,2,156C2,151.1,2,146.2,2,141.2
				z"/>
			<path class="st1" d="M63.8,2c0.5,1.6-0.6,2.9-1.1,4.2c-5.4,12.7-10.1,25.6-12.4,39.3c-0.3,1.8-0.9,3-2.8,3.5
				c-1.9,0.4-3.6,1.5-6.3,1.4c1.2-17.3,7.1-33,13.7-48.4C57.9,2,60.8,2,63.8,2z"/>
			<path class="st1" d="M71.6,322c-0.3-7.7-0.5-15.4,1.2-23.2c4.5,7.6,9.5,14.8,12.5,23.2C80.8,322,76.2,322,71.6,322z"/>
			<path class="st1" d="M193.1,73c-1.4,17.7-3.7,35.3-8.5,52.5c-1.2,4.4-1.7,4.7-6.2,3.7c-8.9-1.9-9.1-2.1-7-11.2
				c3.5-15.4,6.6-30.9,8-46.6c0.3-2.9,1.1-3.7,3.9-2.9c2,0.5,4.2,0.5,6.3,0.6C193.3,69.3,193.3,69.3,193.1,73z"/>
			<path class="st1" d="M170,153.5c1.1,8.6,2.3,16.5,3.2,24.5c1.6,13.9,3,27.7,2.6,41.7c0,1.8,0.8,4.3-1.7,5.1
				c-3.1,1-6.4,1.8-9.6,0.9c-1.3-0.3-1-1.9-0.9-3c0.6-14-0.6-27.9-1.9-41.8c-0.7-6.9-1.3-13.7-2.3-20.5c-0.4-3,0.4-4.1,3.3-4.6
				C165,155.5,167.1,154.5,170,153.5z"/>
			<path class="st1" d="M155.8,77.4c3.6,13.4,6,26.7,8.1,40c1.1,6.8,2,13.7,2.9,20.5c0.6,4.9,0.4,5.2-4.1,6.8
				c-0.9,0.3-1.9,0.6-2.8,0.8c-3.9,0.9-4.1,0.8-4.6-3.2c-2.4-19.7-5.6-39.4-9.6-58.8c-0.4-2.2-0.2-3.3,2.3-3.7
				C150.4,79.3,152.8,78.3,155.8,77.4z"/>
			<path class="st1" d="M46.1,194.9c3-0.7,6.2-0.4,9-1.8c1.3-0.6,1.7,0.3,2,1.3c0.5,1.7,1.1,3.4,1.6,5.2
				c4.8,15.9,9.7,31.7,17.3,46.5c1.4,2.7,0.4,4.4-3.2,6.2c-2.2,1.1-3.8,1.3-5.1-1.4c-8.7-17.5-15.6-35.7-21.5-54.3
				C46.1,196.1,46.2,195.5,46.1,194.9z"/>
			<path class="st1" d="M43.9,213.2c0.5,0.3,0.9,0.4,1,0.6c7.4,12.8,14.2,25.9,20,39.4c0.5,1.3,0.8,2.4-0.1,3.7
				c-2,2.8-4.1,5.4-6.7,7.4c-1.6-0.9-1.9-2.3-2.5-3.4c-6-11.8-12-23.7-18.1-35.5c-1.3-2.5-1.7-4.3,0.9-6.3
				C40.5,217.5,42.1,215.2,43.9,213.2z"/>
			<path class="st1" d="M71.7,159.8c1.7,1.1,1.8,2.5,2.2,3.6c4.8,13.1,8.7,26.4,11.9,40c0.9,3.9,0.5,4.5-3.5,5
				c-1.4,0.2-2.9,0.2-4.4,0.1c-4.1-0.4-4.8-1-5.2-5C71.1,189.1,70.7,174.7,71.7,159.8z"/>
			<path class="st1" d="M81.4,247c-4.8-8.6-10.5-16.8-10.4-27.2c0-3.9,0.1-3.8,3.9-3.2c1.8,0.3,3.6,0.6,5.3,0.6
				c4.6,0.2,4.7,0.2,4.1,4.6C83.2,230.2,82.4,238.5,81.4,247z"/>
			<path class="st1" d="M34.6,91.7c4.2,4.5,7.8,8.2,6.8,14.5c-0.4,2.4,0.1,4.9,0.2,7.3c0,1.4,1.2,3.6,0,4.1c-2.2,0.9-4.8,1-7.1,0.8
				c-1.6-0.1-1.2-2.1-1.3-3.3C32.8,107.6,33.2,100.1,34.6,91.7z"/>
			<path class="st1" d="M160.1,198.1c0,5.4,0,10.8,0,16.2c0,1.4-0.1,2.8-2.1,2.4c-1.4-0.3-3.2-0.3-2.7-2.5
				c1.1-5.4,1.8-10.9,3.3-16.2C159.1,198,159.6,198.1,160.1,198.1z"/>
			<path class="st1" d="M35.7,128.8c3.8,4.6,6.9,9.2,7.6,15.2c1.4,12.3,4.2,24.3,8.8,35.8c1.3,3.2,0.9,3.8-2.5,4.6
				c-4.2,1.1-5.3,0.5-6.9-3.6c-4.2-10.4-6.3-21.4-8-32.4c0-0.3-0.2-0.7-0.1-1C35.5,141.3,36.7,135.2,35.7,128.8z"/>
		</g>
		<g>
			<path class="st3" d="M138.1,119.7c-1.7,5.5-3.5,10.4-6.8,14.5c-2.4,3-3.5,2.8-5.1-0.6c-2.9-6.3-2.6-7.2,3.3-11
				C131.9,121.1,134.5,120.1,138.1,119.7z"/>
			<path class="st3" d="M121.8,294.5c-1.9,4-4.9,6.4-8.8,7.5c-2.6,0.7-3.7-0.5-3-3.1c0.6-2.4,2.1-4.1,4.5-4.6
				S119.3,293.5,121.8,294.5z"/>
			<path class="st3" d="M125.2,298.9c1.8,6.2,0.4,10.8-4,15.1C119.6,308.1,121,303.6,125.2,298.9z"/>
			<path class="st3" d="M131,279.9c0.6,5.8-0.5,8-5,10C125.4,284.1,126.6,281.7,131,279.9z"/>
			<path class="st3" d="M122.5,123.7c-4.3-7.6-3.9-9.7,1.8-11.6C125.1,115.9,124.2,119.4,122.5,123.7z"/>
			<path class="st3" d="M132.6,140.3c2.2,0.3,4.6,0.4,4.5,2.9c-0.1,2-2.5,3.3-4.2,3.4c-2.3,0.1-2.9-2.4-3.2-4.2
				C129.4,140.1,131.8,141.2,132.6,140.3z"/>
			<path class="st3" d="M120.6,289.6c-3-1-5.6-1.3-7.2-3.7C118,283.4,119.2,284,120.6,289.6z"/>
			<path class="st3" d="M167.5,58.4c-1.1,4-2.4,7.5-6.2,9.2c-1.2,0.5-2.5,1.2-3.5-0.2c-0.7-1.1-1-2.3-0.4-3.7
				C159,60.4,162.6,58.3,167.5,58.4z"/>
			<path class="st3" d="M32.4,129.1c3,9.2,0.8,17.5-3.8,25.4C25.5,145.3,27.1,136.9,32.4,129.1z"/>
			<path class="st3" d="M38.4,126.8c7.1-0.8,12.8,3.9,13.4,10.6c0.2,1.6-0.6,2-1.9,2c-2.1,0.1-3.8-0.9-5.2-2.3
				C41.8,134.2,39.6,130.8,38.4,126.8z"/>
			<path class="st3" d="M46.9,271.9c2,8.7-0.2,14.1-6.8,17.1C38.5,282.7,40.9,276.6,46.9,271.9z"/>
			<path class="st3" d="M57.4,285.5c-4.1-3.8-4.9-8.2-5.1-12.9C57.5,274.5,58.8,277.7,57.4,285.5z"/>
			<path class="st3" d="M44.4,267.2c-5.8,4.4-11.6,7.1-18.2,8.8C26.9,267.4,34.7,262.9,44.4,267.2z"/>
			<path class="st3" d="M27.1,126.3c-1.9,4.7-4.1,8.7-7.6,11.8c-1.1,1-2.6,1.8-4,1c-1.3-0.8-0.8-2.4-0.7-3.6
				C15.2,129.5,19,126.5,27.1,126.3z"/>
			<path class="st3" d="M112.6,58.5c-2.3,5.2-5.1,9.3-10.5,10.6c-2.9,0.7-3.6-0.1-3.1-3C99.8,60.2,104.3,57.6,112.6,58.5z"/>
			<path class="st3" d="M115.2,79.7c-4,1.5-8,1.7-11.9-0.1c-1-0.5-2.1-1.2-1.9-2.6c0.2-1.1,1.4-1.3,2.3-1.7
				C107.7,73.9,111.5,75.3,115.2,79.7z"/>
			<path class="st3" d="M162.2,40.7c5.4,1.3,8.3,4.3,8.3,8.5c0,2.2-0.9,2.9-3,2.5c-2.7-0.6-4.1-2.4-4.9-4.9
				C162.1,44.8,161.4,42.8,162.2,40.7z"/>
			<path class="st3" d="M185.5,224.4c4.7-5.5,8.7-6.5,12.7-3.5c0.7,0.5,1.8,1,1.4,2.2c-0.3,0.8-1.2,1-1.9,1.3
				C194.6,225.4,190.3,225.4,185.5,224.4z"/>
			<path class="st3" d="M184.7,231c4.5,1.3,7.4,3.6,8.4,7.8c0.6,2.5-0.6,3.5-3,2.5C185.5,239.6,185.2,235.5,184.7,231z"/>
			<path class="st3" d="M195.6,160c-6.6-5.9-7.4-8.4-4.7-13.9C195.6,149.5,195.4,154.4,195.6,160z"/>
			<path class="st3" d="M203.3,143.3c-4-0.6-6.8-0.8-9.6-2c-2-0.9-3.4-2.3-2.1-4.5c1.2-2.1,3.1-2.1,5-1
				C199.5,137.4,201.1,140,203.3,143.3z"/>
			<path class="st3" d="M195.3,230.4c2.2-1,4.2-0.8,6.1,0.3c1.3,0.8,2.5,2,1.5,3.6c-0.9,1.4-2.5,2.1-4.2,1.1
				C196.7,234.3,195.6,232.7,195.3,230.4z"/>
		</g>
		<polygon points="165.7,227.8 164.9,232.5 170.2,232.7 170.8,227.8 		"/>
		<path class="st1" d="M67.4,258.1c-0.7,1.3-0.5,5.8-0.5,5.8s9-5.7,10-6.2c0.8-0.4,3.5-2.2,3.5-2.2s1.2-4.9,0.7-4.7
			c-0.7,0.2-3.8,3-7,4.7C70.9,257,67.6,257.7,67.4,258.1z"/>
		<path d="M67.8,257.3c0,0-0.7,2.4-0.8,3.2c-0.1,1,0,4.2,0,4.2l-2.6,2.6l0.2-5.7L67.8,257.3z"/>
		
			<linearGradient id="SVGID_1_" gradientUnits="userSpaceOnUse" x1="105" y1="-128" x2="105" y2="-452" gradientTransform="matrix(1 0 0 -1 0 -128)">
			<stop  offset="0" style="stop-color:#EB1A21"/>
			<stop  offset="1" style="stop-color:#A51A21"/>
		</linearGradient>
		<path class="st4" d="M210,324c-70,0-140,0-210,0C0,216,0,108,0,0c70,0,140,0,210,0C210,108,210,216,210,324z M199.9,162.6
			c0-46.5-0.2-87.6-0.2-134.1c0-9.4-3.5-18.1-13-18.1c-50.8,0-101-0.4-151.8-0.4c-4,0-8.3,0.5-12.3,0.7c-5.9,0.2-11.3,6.1-11.3,11.7
			c0,93.3-0.4,182.4-0.4,275.8c0,1.5,0.2,1.6,0.3,3.1c0.7,6.6,5,12.6,11.3,12.6c55.5,0,107.4,0.2,162.9,0.3c1.9,0,3.6-0.7,5.3-1.7
			c5.5-3,9.5-6,9.5-12.1C200.1,254,199.9,208.9,199.9,162.6z"/>
		<path d="M200.8,161.4c0.1-9.1,0-18.3,0.1-27.6c0.2-36.3,0.1-72.7,0-109c0-9.1-6.8-15.3-16-15.3c-52.8,0-105.7,0-158.5,0
			c-9.4,0-15.6,6.2-15.6,15.8c0,38.4,0.2,76.7,0.1,115.1c0,29.5-0.4,58.9-0.5,88.4c-0.1,23.5-0.1,47-0.1,70.4
			c0,8,6.5,15.3,13.7,15.3c54.3,0.1,108.6,0,162.9,0c2.2,0,4-0.5,5.9-1.8c5.1-3.5,8.1-7.9,8-14.4
			C200.7,252.7,200.8,207.1,200.8,161.4z M186.5,310.2c-3,0-3.7,0-3.7,0s-103.1,0-154.7,0c-8.3,0-13.1-4.5-13-14.9
			c0-22.8,0-45.6,0.1-68.4c0.1-28.6,0.5-57.2,0.5-85.9c0.1-37.3-0.2-75.1-0.1-112.3c0-7.9,2.5-14.8,12.6-14.8
			c50.2,0,105.1,0.2,155.3,0.2c8.7,0,13,5.3,12.6,14.1c0,35.2,0,106.5,0,106.5v27c0,0,0,91.6,0.1,135.9
			C196,304.4,191.2,309.6,186.5,310.2z"/>
	</g>
	<g>
		<g>
			<g>
				<path class="st0" d="M49.3,305.8v-10.4H21.3v-13.7L44,232.3h18.9l-12.6,27.6h16.1v18.8h5.2v16.7h-5.2v10.4H49.3z M49.3,278.7
					v-16.4l-7.4,16.4H49.3z"/>
				<path d="M58,235.5l-21.1,46.4h15.5v10.4H24.4v-9.9l21.6-47h12 M63.4,263.1v18.8H52.5v-18.8H63.4 M68.6,281.9v10.4h-5.2v-10.4
					H68.6 M63.4,292.3v10.4H52.5v-10.4H63.4 M67.8,229.1H58H46h-4.1l-1.7,3.6l-21.5,47l-0.6,1.3v1.4v9.9v6.3h6.3h21.8v4.1v6.3h6.3
					h10.9h6.3v-6.3v-4.1h5.2v-6.3V282v-6.3h-5.2v-12.5v-6.3h-6.3h-8l8.5-18.8L67.8,229.1L67.8,229.1z"/>
			</g>
		</g>
		<path class="st0" d="M63.4,292.3H52.5v-10.4h10.9V292.3z"/>
	</g>
</g>
</svg>
