<?xml version="1.0" encoding="utf-8"?>
<!-- Generator: Adobe Illustrator 22.0.1, SVG Export Plug-In . SVG Version: 6.00 Build 0)  -->
<svg version="1.1" id="레이어_2_1_" xmlns="http://www.w3.org/2000/svg" xmlns:xlink="http://www.w3.org/1999/xlink" x="0px"
	 y="0px" viewBox="0 0 210 324" style="enable-background:new 0 0 210 324;" xml:space="preserve">
<style type="text/css">
	.st0{fill:#FFFFFF;}
	.st1{fill:#005CA9;}
	.st2{fill:#FFC40A;}
	.st3{fill:#EB1A21;}
	.st4{fill:url(#SVGID_1_);}
</style>
<g>
	<g>
		<path class="st0" d="M3,134.9C3,91.3,3,47.6,3,4c1,0,1.9,0,2.9,0c0.9,5.3,4.2,8.7,9.1,10.3c2.1,0.7,2.3,1.9,3,3.7
			c5,13.3,11.9,19.6,24.5,13.5c2.2-1.1,2.8,0.5,3.7,1.8c3.6,5.2,8.5,7.6,14.9,7.4c4.7-0.1,9.2-0.6,13.4-3
			c2.3,9.1,4.6,11.6,12.7,13.8c1.5,0.4,2,1.1,2.3,2.5c0.9,4,3.3,7.4,7.1,8.6c6.6,2.1,13.4,2.9,19.5-1.7c2.3-1.8,3.6-1.8,6,0.1
			c7.6,5.7,17,3.9,21.5-4.1c1.2-2.1,2.3-1.9,4.2-1.5c8.5,1.9,15.8-1.4,19.7-8.6c3.7-6.9,2.2-14.8-3.9-17.2c-4.2-1.7-4.3-4.5-4.8-8.1
			c6.1,0.5,10.8-2.2,15.7-6.1c1.8,6.8,6.3,10.3,12.4,12.2c0.9,0.3,1.8,0.6,2.8,0.8c2.1,0.4,3.5,0.9,2.8,3.7c-0.9,3.3,0.5,6.3,2.6,9
			c3,3.9,6.8,6.3,11.6,7.5c0,60.4,0,120.9,0,181.3c-12.3,0.6-24.5,0.1-36.8,0.3c-2.4,0-3-1-3.1-3.2c-0.2-4.8-0.6-9.7-1-14.5
			c-0.8-10.5-1.5-20.9-3.8-31.2c-1-4.6-2.8-9-6.1-12.5c-7.4-7.8-20.4-5.1-23.7,5c-1.7,5.2-2.4,10.7-2.9,16.2
			c-1,11.6-1.1,23.2-0.7,34.9c0.1,3.1-0.6,5.3-4.4,6.1c-0.3-4-0.7-7.8-0.8-11.7c-0.7-17,0-33.9,2-50.8c0.6-4.8,0.6-4.9-4.3-6
			c-5.3-1.2-10.2-3.1-14.6-6.2c-2.9-2.1-3.7-1.8-4.5,1.6c-1.6,6.4-4.7,12-9.3,16.7c-1.5,1.5-2,3.1-1.7,5.2c2,11.3,2.5,22.8,2.9,34.3
			c0.1,1.8,0.1,3.4-1.6,4.7c-2.5,1.9-3,4.7-2.8,7.8c0.3,3.8,0.1,7.6,0.1,11.5c-2.7-11.4-3-23-3.6-34.6c-0.1-1.1,0-2.2,0.8-3.2
			c4.7-5.6,3.9-11.8,0.9-17.6c-1.2-2.5-1.3-4.3-0.3-6.7c2.8-6.8,6.5-13,11.1-18.7c2.1-2.6,2.7-5.4,2.3-8.6c-0.1-1.1-0.8-2.2-0.1-3.4
			c1.9,0.4,2.8,2.1,4.1,3.2c13.7,11.7,29.8,10.7,44.1,4.5c2.6-1.1,2.7-2.8,0.3-4.2s-4.7-2.8-6.8-4.6c-5.7-5.2-9.4-11.9-12.3-18.9
			c-1.7-4-3.7-7.9-6.4-11.4c-6.4-8.3-20.4-10.2-28.2-5.5c-3.5,2.1-6.9,4.5-10.4,7c-0.6-1.2-1-1.9-1.3-2.6c-1.8-4.3-4.2-8.4-7-12.2
			c-0.8-1.1-1.3-3-3.1-2.5c-2,0.5-1.2,2.3-1.2,3.7c0,1.1,0,2.3,0,3.4c0,2-0.5,2.7-2.9,2.4c-5.8-0.9-8,1-8.9,6.7
			c-0.5,3.3-0.2,6.6,0.4,10.6c-2.7-2.4-4.8-4.3-7-6.2c-3.7-3.2-7.5-6.2-12-8.2c-8.5-3.8-14.4-1.2-17.2,7.7c-0.5,1.5-0.8,3.1-1.1,4.7
			c-1.2,7-0.3,13.9,0.9,20.7c0.6,3.4,0,6.4-2.1,9.1c-1.2,1.6-2.3,2.2-3.7,0.1c-0.8-1.2-1.7-2.4-2.6-3.5
			C11.9,144.2,8.3,138.8,3,134.9z M189.5,47.7c-0.6,0.1-1.8,0.2-2.9,0.4c-10.8,1.8-20.7,6-29.9,11.9c-14.7,9.5-26.5,22-37.2,35.6
			c-3.3,4.2-2.9,6.1,1.6,8.9c4.6,2.8,8.6,6.3,11.1,11.2c0.6,1.1,1,2.6,2.6,2.5c1.8,0,2.3-1.5,2.8-2.9c7.6-19,20.4-34.2,35.1-48
			c5.9-5.5,12.1-10.7,18.5-15.6c0.9-0.7,1.9-1.5,1.5-2.8C192.4,47.7,191.2,47.6,189.5,47.7z M38.4,35.5c-1,0.2-1.6,1.1-1.5,2.4
			c0.2,2.4,0.4,4.8,0.7,7.2c2.8,21,10.3,40.6,18.5,60c1.2,2.8,2,3,4,0.7c1.5-1.8,3-3.2,5.5-3.4c4.6-0.4,4.9-0.9,2.5-4.7
			c-7.4-11.8-13.3-24.4-18.6-37.2c-3-7.3-5.8-14.7-8.6-22.1C40.5,37.2,40.3,35.8,38.4,35.5z M108.2,97.6c-0.1-0.3-0.2-0.6-0.3-0.9
			C104.2,83,99.1,70,89.7,59.1c-1.7-2-3.5-3.8-5.3-5.6c-0.7-0.8-1.6-1.1-2.6-0.5c-0.9,0.6-1,1.6-0.6,2.6c0.2,0.4,0.4,0.9,0.5,1.4
			c4.9,15.9,8.3,31.9,4.2,48.5c-0.3,1.1-0.4,2.3,0.8,3.1c1.1,0.8,2.3,0.5,3.2-0.2c4.8-4,10.3-6.5,16.4-8
			C107.4,100,108.4,99.2,108.2,97.6z M15.3,66.5c-1.2-0.1-2,0.2-2.5,0.9c-0.7,0.9-0.4,1.9,0.3,2.7c0.9,1.1,2,2.1,3,3.2
			c7.3,8,14.4,16.1,17.9,26.7c0.7,2,2.1,2.5,3.9,3.1c5.6,1.8,10.9,4,14.7,8.7c0.8,1,1.7,2.3,3.2,1.1c1.2-1,0.6-2.4,0-3.5
			c-4.6-10-9.8-19.6-17.1-27.9c-5.3-6-11.3-11-19-13.6C18,67.2,16.5,66.8,15.3,66.5z"/>
		<g>
			<path class="st1" d="M192,300.5c-0.2,0.8-0.4,1.6-0.6,2.5c-1.3,4.9-2.6,9.9-2.2,15.3l0.1,0.9h18.4v-53.5l-1.8,2.5
				C198.1,278.8,194.4,291,192,300.5z"/>
			<path class="st1" d="M120.1,303.7c0-1.1-0.1-4.1-3.6-4.1h-0.1c-4.2,0.1-8.5,0-12.6-0.1h-1.3c0,0,0,0-0.1,0
				c-1.4,0-2.4,0.7-3.2,1.4c-2.3,2-4.8,4-7.2,5.9c-4.1,3.3-8.4,6.8-12.2,10.6l-1.7,1.7h42.2l-0.1-4.9
				C120.2,310.7,120.2,307.2,120.1,303.7z"/>
			<path class="st1" d="M26.8,299.6c-0.2,0-0.5,0.1-0.7,0.1c-5.9,0-11.8,0-17.6,0H1.9v19.5H11l0.8-0.7c0.3-0.3,0.6-0.5,0.9-0.8
				c4.2-3.2,8.4-6.4,12.7-9.6l2.7-2c1.2-0.9,3-2.3,2.2-4.6C29.7,299.3,27.8,299.5,26.8,299.6z"/>
			<path class="st1" d="M206.3,231.9c-0.1,0-0.5,0-0.7-0.1c-0.7-0.1-1.6-0.2-2.3,0.5s-0.5,1.8-0.4,2.5c0.2,1.1-0.4,2-1.1,3
				c-0.3,0.4-0.5,0.7-0.7,1.1c-6.8,11.9-11.9,22.8-15.4,33.5c-0.1,0.2-0.1,0.4-0.2,0.6c-0.4,1.1-0.9,2.4-0.5,4.3l0.4,2.2l2.8-3.9
				c3.3-4.6,6.5-8.9,10.3-12.6c0.4-0.4,0.9-0.8,1.3-1.3c2.1-2.1,4.1-4.2,7.1-4.8l0.8-0.2v-24.1v-1.5L206.3,231.9z"/>
			<path class="st1" d="M30.7,292c0-0.3,0-0.6,0-0.9c0.1-1.5-0.2-2.5-0.9-3.3c-0.7-0.7-1.7-1.1-3.2-1c-3.2,0.1-6.4,0.1-9.5,0
				c-4.7,0-9.5-0.1-14.2,0.3L2,287.2v11.5l0.9,0.1c3.1,0.3,6.2,0.3,9.2,0.3c1.7,0,3.4,0,5,0c2.3,0,4.7-0.1,7.1,0
				c2.9,0,4.5,0.1,5.5-0.9s1-2.6,1-5.7V292z"/>
			<path class="st1" d="M30.7,271.6c0.1-1.4-0.2-2.4-0.8-3.2c-0.7-0.7-1.8-1.1-3.3-1c-3.1,0.1-6.3,0.1-9.3,0
				c-4.7,0-9.6-0.1-14.3,0.3l-1,0.1v10.6h1c2.2,0,4.4,0,6.6,0c5.4,0,11.1,0,16.6,0.1c0.1,0,0.2,0,0.3,0c1.6,0,2.7-0.4,3.5-1.2
				c0.7-0.8,1-2,0.8-3.6C30.7,273.1,30.6,272.4,30.7,271.6z"/>
			<path class="st1" d="M8.7,266.8c5.2,0,10.6,0.1,16,0c0.3,0,0.7,0.1,1.1,0.1c0.4,0.1,1,0.2,1.5,0.2c1.3,0,2.6-0.5,3.1-2.6
				c0.6-2.8-1.5-4-3-4.9c-0.3-0.2-0.7-0.4-1-0.6c-1.1-0.8-2.5-1.2-4.3-1.1c-2.2,0-4.4,0-6.5,0c-4.2-0.1-8.5-0.1-12.8,0.3L2,258.1
				v8.7h1C4.9,266.8,6.8,266.8,8.7,266.8z"/>
			<path class="st1" d="M26.7,286.3h0.1c1.1,0,2.2-0.1,3-0.9c0.6-0.6,0.9-1.5,0.9-2.7s-0.3-2.1-0.9-2.7c-0.8-0.8-2.1-0.9-3.2-0.9
				c-3,0.1-6,0-9,0c-4.8,0-9.8-0.1-14.7,0.3H2v6.8h7.4C15.1,286.2,20.9,286.2,26.7,286.3z"/>
			<path class="st1" d="M156,299c-0.7,0.1-1.2,0.1-1.7,0c-1.2-0.1-2.8-0.2-4,0.9c-0.9,0.8-1.2,2.1-1.1,3.9c0.2,3.4,0.2,6.8,0.2,10.1
				c0,1.4,0,2.9,0,4.3v1h6.8l0.1-0.9c0.3-4.2,1.4-8.4,2.5-12.5c0.2-0.8,0.4-1.6,0.7-2.4c0.3-1.1,0.5-2.5-0.3-3.5
				C158.3,298.9,156.9,298.9,156,299z"/>
			<path class="st1" d="M20.2,254.7l-0.7-0.4c-1.9-1.1-3.7-2.4-5.4-3.6c-3.3-2.3-6.7-4.7-10.7-6.2L2,244v13.1h17.3L20.2,254.7z"/>
			<path class="st1" d="M151.8,239.1c0.2,0.1,0.4,0.2,0.6,0.3c1.7,1,3.4,1.9,5,2.8c3.1,1.6,6.2,3.3,9,5.4c1.3,1,2.7,1,3.9,1h0.4
				c1.8,0,3.7,0,5.5,0c1.2,0,2.4,0,3.5,0h3.5c1.6,0,3.6,0,5.2-1.8c2.3-2.6,4.6-5,7.1-7.6c1.8-1.9,3.7-3.8,5.5-5.8l1.5-1.7h-10.7
				c-6.8,0-13.7,0-20.5,0c-2.3,0-3.6,0-4.4,0.9c-0.8,0.9-0.8,2.2-0.6,4.8c0.1,1,0.1,2.2,0.1,3.3c0,0.9-0.4,1.1-0.8,1.2
				c-0.4,0.1-0.7-0.1-1-0.5c-0.4-0.5-0.7-0.9-1.1-1.4c-1.1-1.3-2.1-2.5-2.7-3.9c-2-4.6-5.7-4.8-9.4-4.5c-1.5,0.2-2.5,0.7-3,1.6
				c-0.5,0.9-0.3,2.1,0.5,3.4C149.8,237.9,150.9,238.5,151.8,239.1z"/>
			<path class="st1" d="M172.7,267.6l-0.1-0.9h-5.5c-4.8,0-9.5,0-14.2,0h-0.3c-0.8,0-2.4-0.1-2.8,1.4c-0.9,3.1-1,6-0.2,8.6
				c0.5,1.6,1.7,1.9,2.8,1.9c0.4,0,0.8,0,1.1-0.1c0.4,0,0.9-0.1,1.2-0.1c0.9,0.1,1.9,0.1,2.8,0.1c0.4,0,0.8,0,1.2,0
				c9.9,0,10.3-0.3,14.1-9.2c0.1-0.3,0.1-0.6,0.1-0.9C172.7,268.2,172.7,268,172.7,267.6z"/>
			<path class="st1" d="M172.8,257c-3.6,0.1-7,0.1-10.3-0.2c-6.2-0.5-9.5,3.2-13.3,7.5l-1.5,1.7h2.2c2.1,0,4.1,0,6-0.1
				c4.2-0.1,8.2-0.1,12.1,0.2c0.5,0,0.9,0.1,1.3,0.1c4.9,0,7.8-2.5,9.4-8l0.4-1.3h-1.3C176.1,257,174.4,257,172.8,257z"/>
			<path class="st1" d="M157.7,286.8c-0.5,0-0.9,0-1.4,0c-3.6,0-5.3,0-6.4,1.1c-1.1,1.1-1,2.9-0.8,6.5v0.2c0.1,2.2,0.8,3.7,3.6,4
				c1.3,0.1,2.4,0.2,3.3,0.2c4.2,0,5.1-1.4,6.9-7c0.2-0.6,0.4-1.2,0.6-1.9l0.6-2l-0.9-0.3C161.2,286.7,159.4,286.7,157.7,286.8z"/>
			<path class="st1" d="M183.5,249.2c-1.4,0-2.8,0-4.2,0c-3,0-5.8,0.1-8.6-0.1c-4.1-0.3-7.2,1.3-10.3,5.7l-1.2,1.6h2
				c1.8,0,3.6,0,5.3,0c3.7,0,7.2-0.1,10.6,0.1c0.1,0,0.2,0,0.4,0c4.3,0,5.9-2.8,7.1-5.9l0.5-1.3h-1.6V249.2z"/>
			<path class="st1" d="M108.9,299.1h0.4c2.1-0.1,3.7,0,5,0c0.6,0,1.1,0,1.6,0c1.4,0,2.3-0.1,3-0.8c1-1,0.9-2.6,0.7-6.6
				c-0.1-1.1-0.1-2.3-0.2-3.7c-0.1-1.6-1.7-1.6-2.3-1.6h-0.4l-13.4,11.1l1.3,0.7C106.6,299.2,107.9,299.1,108.9,299.1z"/>
			<path class="st1" d="M152.5,279.1c-1.1,0-1.9,0.3-2.5,0.8c-0.6,0.6-0.8,1.4-0.8,2.5s0.1,2.3,0.9,3.1c0.6,0.5,1.3,0.8,2.3,0.8
				c0.5,0,1.1,0,1.6,0c2.1,0,4.3-0.1,6.4,0.1c0.3,0,0.6,0,0.9,0c1.5,0,2.6-0.4,3.5-1.1c1.2-1,1.8-2.6,1.9-5l0.1-1.1h-5
				C158.6,279.1,155.5,279.1,152.5,279.1z"/>
		</g>
		<g>
			<path class="st2" d="M143.8,236.3c-1-0.6-2-1.1-2.9-1.6c-1.8-1-3.4-1.9-4.9-2.9c-3.7-2.5-6.4-1.2-8.8,0.7
				c-15.1,11.6-30.6,23.3-45.5,34.7c-8.1,6.1-16.1,12.3-24.2,18.4c-9.5,7.3-19.1,14.6-28.6,21.9c-4.3,3.3-8.6,6.6-12.9,9.9l-2.3,1.8
				h26.6L145.1,237L143.8,236.3z"/>
			<path class="st2" d="M163.3,248.2c-0.1-1.2-1.2-1.9-2.3-2.5l-1.6-0.9c-2.7-1.4-5.5-2.8-8-4.5c-3.2-2.2-5.9-2-9.3,0.7
				c-13,10.3-26.3,20.7-39.2,30.7c-7.1,5.6-14.3,11.2-21.4,16.8c-8.4,6.6-16.9,13.3-25.1,19.8c-3.8,3-7.6,6-11.4,9l-2.3,1.8H75
				l0.3-0.2c3.5-2.9,6.9-5.8,10.4-8.8c8.2-7,16.7-14.2,25.5-20.8c7-5.3,9.4-10.8,8.1-18.3c-0.7-4.1,1.2-7.2,5.7-9.2
				c6.1-2.7,12.3-2.7,18.4,0.1c1.7,0.8,3.6,1.7,5.9-0.3c4-3.6,8-7,12.4-10.7C162.5,250.3,163.4,249.4,163.3,248.2z"/>
			<path class="st2" d="M5.9,226.8c0.4,0.3,0.7,0.5,1.1,0.8l3.1,2c8.3,5.4,16.8,11,25.2,16.5c2.2,1.5,4.9,2.9,8.8,2.4
				c4-0.5,7.8,0.4,11.3,2.7c2.1,1.4,4.6,3.6,4.4,6.5c-0.4,5.6,3.3,7.6,6.4,9.2c2,1,3.9,2.2,5.3,3.2c0.7,0.5,1.4,0.7,2.1,0.7
				s1.5-0.3,2.2-0.8c1.2-1,2.4-1.9,3.7-2.8c2.4-1.7,4.8-3.5,6.9-5.7l0.5-0.5l-0.4-0.6c-0.8-1.5-2-2.1-3.1-2.7
				c-0.2-0.1-0.5-0.3-0.7-0.4c-27-17-51.6-32.5-75.3-47.4c-0.3-0.2-0.5-0.4-0.8-0.5c-0.9-0.7-2-1.4-3.5-1.5L2,207.5v17.4l0.8,0.2
				C3.9,225.3,4.9,226,5.9,226.8z"/>
			<path class="st2" d="M122.5,275.2l-1.4-0.7v1.6c0,1,0,1.9,0,2.8c0,1.8,0,3.4,0,5c0.1,3.6,0.1,7.4,0.2,11c0.1,7.7,0.1,15.6,1,23.4
				l0.1,0.9h25.2v-45.1l-1.5,0.8C138.4,279,131,279.1,122.5,275.2z"/>
			<path class="st2" d="M28.8,258c0.3,0,0.5,0,0.8-0.1c1.2-0.4,1.7-1.7,2-2.7c0.4-1.4,1.5-2.4,2.8-3.5c0.6-0.6,1.3-1.2,2-1.9
				l0.8-0.9L2,226.1v15l0.5,0.3c2.1,1.4,4.2,2.8,6.4,4.2c5.6,3.7,11.4,7.4,17.1,11.2C26.8,257.4,27.8,258,28.8,258z"/>
			<path class="st2" d="M58,265.8l-0.3-1.4l-1.2,0.7c-7.4,4.4-14.6,4.4-22.6,0l-1.5-0.8V301l1.1-0.1c0.2,0,0.4,0,0.5,0
				c0.4,0,0.8,0,1.2-0.3c6.8-5.1,13.7-10.3,20.5-15.5l1.1-0.8c0.8-0.5,1.9-1.4,1.8-2.9c-0.1-1.9-0.1-3.9-0.1-5.9
				C58.6,272.4,58.6,269.1,58,265.8z"/>
			<path class="st2" d="M93,230.1l-1.2-0.2v27.9l5.7-4.3c3.6-2.7,6.8-5.2,10.1-7.7c0.9-0.7,2-1.7,2-3.6c0-2.5,0-5.1,0-7.8v-4.7
				l-1.3,0.3c-0.8,0.2-1.5,0.4-2.1,0.6c-2.2,0.7-3.9,1.2-5.7,0.9c-1.7-0.2-3.3-0.6-5-1C94.6,230.4,93.8,230.2,93,230.1z"/>
			<path class="st2" d="M77.4,138.4c0.5,0.1,1,0.1,1.6,0.1c1,0,2-0.1,3-0.3c0.5-0.1,1-0.1,1.5-0.2c2.4-0.3,3.9-1.5,4.6-3.9
				c1.8-6.4,4.4-12.4,7.2-18.7l2.1-4.9l-2.4,1.2c-7.6,3.8-14.2,9.8-20.6,19c-1.5,2.1-2.4,3.8-1.8,5.2
				C73.1,137.4,74.8,137.9,77.4,138.4z"/>
			<path class="st2" d="M79.7,210.8c-0.6,13.1,0.3,26.5,1.1,38.3c0.3,4.9,2.5,7.6,7.4,8.8l1.6,0.4l-0.3-1.6
				c-3.7-17.1-5.7-34.9-6.3-54.2l-0.1-4.5c0.2,0,0.4,0.1,0.6,0.1c0.1,0,0.2,0,0.3,0c2.5,0,3.2-2.2,3.6-3.4
				c1.7-5.4-0.2-10.6-5.4-14.3l-1.3-1l-0.2,1.6c-0.6,3.9-1.1,8.4-0.5,13.2c0.3,2,1.2,3.2,2.7,3.7l-1.6,4.2
				C80,205.3,79.8,208.2,79.7,210.8z"/>
			<path class="st2" d="M66.7,128.4l0.6-1.4c2-4.9,3.1-8.5,3.9-12.1c0.1-0.3,0.1-0.5,0.2-0.8c0.4-1.1,1.1-3.3-1.7-4.4
				c-1.7-0.6-3.5-0.6-4.9,0.1c-1.1,0.5-1.8,1.4-2.1,2.5c-1.3,4.5-2.2,9.8,2.8,15.1L66.7,128.4z"/>
			<path class="st2" d="M61.3,279.8l0.6,0.5l0.6-0.5c0.7-0.5,1.4-1,2.2-1.5c2.2-1.5,4.5-3.1,6.2-5.7l0.6-0.9l-0.9-0.5
				c-0.8-0.5-1.5-0.9-2.2-1.4c-2.1-1.3-4.3-2.7-7.1-3.7l-1.3-0.5v4.1c0,2.2,0,4.3,0,6.3c0,0.1,0,0.3,0,0.4
				C59.9,277.3,59.9,278.6,61.3,279.8z"/>
		</g>
		<g>
			<path class="st1" d="M60.9,128.8c-5.7-5.7-11.5-11.5-18.8-15.5c-4-2.2-7.5-2.6-10.2-1.4c-2.8,1.3-4.7,4.3-5.8,8.9
				c-1.5,6.8-1.3,14,0.6,22c1,4.2-0.2,7.4-2.4,11c-0.2,0.3-0.5,0.6-0.8,0.9c-0.7,0.7-1.6,1.6-1.8,3.1l-0.1,0.8l0.8,0.3
				c1.2,0.4,2.4,0.6,3.6,0.6c2,0,3.9-0.4,5.8-0.9H32c6.1-1.4,11.5-4.6,16.6-7.7l0.6-0.4c7.3-4.3,10.9-10.9,13.5-16.7
				c0.5-1.2,0.9-2.7-0.6-4.1L60.9,128.8z"/>
			<path class="st1" d="M144.6,150.6c-0.1-0.2-0.1-0.4-0.2-0.6c-0.1-0.4-0.2-0.8-0.6-1.2c-7.4-5.5-12.8-13.2-17-24.1
				c-2-5-4.5-8.8-7.7-11.6c-5.2-4.5-11-5.7-18.5-3.9l-1.6,0.4l1.1,1.2c2.3,2.6,4.8,3.5,7,4.4c0.3,0.1,0.6,0.2,0.9,0.3l0.3,0.1
				c1.4,0.5,1.5,0.7,1.4,1.3c-0.1,0.4-0.3,0.5-1.5,0.7l-0.3,0.1c-0.6,0.1-1.1,0.2-1.7,0.2c-2.5,0.3-5.1,0.7-7.8,1.9l-1.2,0.5
				l2.9,3.7c1.6,2.1,3.2,4.2,4.8,6.3c0.8,1.1,0.9,1.4,0.5,1.8c-0.3,0.4-0.8,0.6-2,0.1c-2-0.7-4.1-1.4-6.1-2.1l-3.2-1.1l-1.7,2.3
				l0.5,0.6c1.1,1.2,2.1,2.5,3.2,3.8c5.9,7.1,11.9,14.3,21.6,17.5c3.6,1.2,7.2,1.8,10.9,1.8c5,0,10.2-1.1,15.5-3.2l0.9-0.4
				L144.6,150.6z"/>
			<path class="st1" d="M91.8,132.7l-1.2-2.1l-0.7,2.4c-0.8,2.8-1.2,4.2-2.6,5.1c-3.7,2.5-11.9,2.3-15.5-0.4
				c-2.3-1.7-2.4-2.3-0.8-4.7c3.1-4.8,6.2-8.8,9.7-12.5c0.1-0.1,0.2-0.2,0.3-0.3c0.8-0.8,2-2,1.1-4.1c-0.4-0.9-0.8-1.8-1.1-2.7
				c-1-2.5-2.1-5.1-4-7.3l-0.5-0.5l-0.7,0.3c-1.6,0.7-1.8,2-1.9,2.9c-1,7.3-3.4,15-7.4,24.2c-3.7,8.5-3.7,17.2,0.2,26.6
				c2.8,6.7,7.3,12.4,15.2,19.1l1.1,0.9l0.5-1.4c3.3-9.4,8.5-17.1,13.1-23.5c1.2-1.6,1.7-3.2,1.5-4.8
				C97.4,144.1,94.9,138.9,91.8,132.7z"/>
		</g>
		<g>
			<path class="st3" d="M55.5,253c-2.6-2.2-5.8-3.2-10.1-3.2h-0.1c-4.2,0-7.4,1-10.1,3.1c-1.8,1.4-2.8,3.3-2.9,5.2
				c-0.1,2,0.8,3.9,2.5,5.4c2.5,2.3,6.4,3.4,10.4,3.4c3.9,0,7.8-1.1,10.3-3.3c1.8-1.6,2.7-3.4,2.7-5.3
				C58.3,256.4,57.4,254.6,55.5,253z"/>
			<path class="st3" d="M144.8,264.4c-2.8-2.1-6.2-3-10.8-2.9c-3.9-0.2-7.2,0.7-10,2.6c-2.4,1.6-2.9,3.4-3,4.7
				c-0.1,1.8,0.9,3.4,2.7,4.8c2.6,2,6.6,3,10.5,3c4.1,0,8.1-1.1,10.7-3.2c2.2-1.8,2.6-3.5,2.6-4.6
				C147.5,267.8,147,266.1,144.8,264.4z"/>
			<path class="st3" d="M105.9,219.1c-1.6-0.7-3.3-1-5.1-1c-5.1,0.1-8.7,2.5-8.7,5.9c0,3.5,3.7,6,9.2,6.1c0.1,0,0.1,0,0.2,0
				c1.2,0,2.8-0.4,4.3-1c2.5-1,3.8-2.7,3.8-5.3C109.7,220.8,107.3,219.7,105.9,219.1z"/>
		</g>
		<g>
			<path class="st3" d="M83.5,3l2.3,1.8c7.6,6,8.3,9.3,3.7,18.7l-0.4,0.9l1.5,0.8c2.1,1.1,4,2.1,4.9,4l0.2,0.5l0.5,0.1
				c1.2,0.1,2.1-0.3,2.7-1.2c3.9-5.7,9.4-7.3,17.9-5.3c2.2,0.5,4,0.8,6.1-0.9c3.1-2.5,6.9-1.9,10.3-1.2c0.2,0,0.5,0.1,0.7,0.2
				c1,0.3,2.4,0.8,3.8-0.8c3.1-3.6,7.5-4.4,13.3-2.6c8.6,2.7,15.5,1.4,21.6-4c1.4-1.2,1.9-1.4,2.1-1.3c0.1,0,0.6,0.3,1.3,2
				c3.3,8.1,10.3,10.3,16.7,11.4c0.5,0.1,1,0.1,1.4,0.1c0.5,0,1,0,1.4,0.1c0.6,0.1,1,0.4,1.2,0.7c0.2,0.3,0,0.8-0.2,1.1
				c-1.5,2.9-2.8,5.9-0.6,9.2c3,4.5,6.3,6.9,10.5,7.5l1.1,0.2V3H83.5z"/>
			<path class="st3" d="M83.9,25.2c5.6-1.3,6.5-5.6,6.9-9.6c0.4-4.1-1.6-7.2-6-9.3s-8.6-2.9-12.7-2.6c-6.9,0.5-10.4,4.2-10.4,10.8
				c0,1.4,0.1,3.1,1.2,4.1c1.1,1.1,2.8,1.1,4.2,1c1.3-0.1,2.8-0.3,3.7-1.4c0.9-1,1.1-2.4,0.9-5c0-0.2,0-0.4-0.1-0.5
				c0-0.3-0.1-0.8,0-1c0,0,0.1-0.1,0.3-0.1c0.9-0.2,1.3,0.7,1.4,1.1c0.9,2.5,0.5,4.8-1.2,6.7c-1.6,1.9-6,2.6-8.8,1.4
				c-2.1-0.9-3.1-2.4-3-4.8c0.2-4.8,0.6-8.7,4.2-11.4L67.1,3H8.7l0.1,1.1c0.6,6,5.5,7.6,9.1,8.3c2.1,0.4,2.6,0.9,2.5,2.2
				c-0.1,4.2,2,7.3,4.1,10.3c4.7,6.8,9.7,8,17.1,4.2c1.9-1,3-1.5,3.6-1.4s1.4,1.2,2.6,2.8c2.3,3,5.2,6.3,9.9,6.9
				c2,0.3,3.9,0.4,5.7,0.4s3.6-0.1,5.2-0.4c4.3-0.7,7.1-2.6,8.7-6.1C78.9,27.9,81.1,25.9,83.9,25.2z"/>
			<path class="st3" d="M160.1,31.2c-2.1-0.8-3.1-2.1-3.6-4.6c-0.7-3.4-3-5.7-6.5-6.6c-4.2-1.1-7.9-0.4-11.2,2l-0.8,0.6l0.6,0.8
				c3.6,5.2,4.6,9.1,3.7,14.1c-0.6,3.2-2.2,5.1-4.9,5.8c-3.1,0.8-6,1-8.7,0.5c-4.3-0.7-6.8-4.2-6.2-8.8c0.5-3.3,4-5.9,7.8-5.7
				c2,0.1,2.2,0.4,2.2,1.1c0,0.4,0,0.6-1.6,0.6l0,0h-0.4c-0.5,0-1.1,0-1.7,0.2c-1.4,0.4-4.5,1.4-4.4,4.8c0,3.2,1.7,5.3,4.7,5.8
				c2.3,0.4,4.9,0.4,7.6,0c1.6-0.3,2.9-1.2,3.7-2.8c1.8-3.7,0.4-11-2.6-13.8c-4.1-3.7-9.1-4-14.1-0.8l-0.4,0.2
				c-1.5,1-2.6,1.7-4.4,0.9c-8.8-3.5-13.1-2.4-19.7,5.2c-0.4,0.5-1.6,1.8-2.1,1.8l0,0c-0.3,0-0.9-0.6-1.8-1.7c-3-3.8-7-3.6-9.7-3
				c-3.2,0.6-5.4,3-6.3,6.9c-1.6,6.8,1.5,11.7,8.3,13.5l0.6,0.2c2.1,0.5,3.1,0.8,3.2,3.2c0.1,4.1,2.9,7.6,7,8.8
				c8.8,2.6,15.2,1.1,19.6-4.6c1-1.4,1.4-1.4,1.4-1.4s0.4,0.1,1.1,1.4c2.9,5.3,8,6,11.8,6c0.2,0,0.4,0,0.6,0
				c4.5-0.1,7.8-2.7,9.4-7.4c0.4-1.1,0.8-1.7,1.2-1.9c0.5-0.2,1.3-0.1,2.5,0.3c7.2,2.6,15.1-0.2,18.9-6.7c1.8-3.1,2.3-6.4,1.3-9.1
				C165.1,34.3,163.1,32.3,160.1,31.2z"/>
		</g>
		<path d="M3,134.9c5.3,3.9,8.9,9.3,13,14.3c0.9,1.1,1.8,2.3,2.6,3.5c1.3,2.1,2.5,1.5,3.7-0.1c2.1-2.7,2.7-5.7,2.1-9.1
			c-1.3-6.8-2.1-13.7-0.9-20.7c0.3-1.6,0.6-3.2,1.1-4.7c2.9-8.9,8.7-11.5,17.2-7.7c4.5,2,8.3,5,12,8.2c2.2,1.9,4.3,3.8,7,6.2
			c-0.6-4-0.9-7.3-0.4-10.6c0.9-5.8,3.1-7.6,8.9-6.7c2.4,0.4,2.9-0.4,2.9-2.4c0-1.1,0-2.3,0-3.4c0-1.4-0.7-3.2,1.2-3.7
			c1.8-0.5,2.3,1.4,3.1,2.5c2.8,3.8,5.2,7.8,7,12.2c0.3,0.7,0.7,1.4,1.3,2.6c3.5-2.5,6.9-4.9,10.4-7c7.8-4.6,21.8-2.7,28.2,5.5
			c2.7,3.5,4.7,7.3,6.4,11.4c2.9,7.1,6.6,13.7,12.3,18.9c2,1.9,4.4,3.3,6.8,4.6c2.4,1.4,2.3,3.1-0.3,4.2
			c-14.4,6.2-30.5,7.3-44.1-4.5c-1.3-1.1-2.2-2.7-4.1-3.2c-0.7,1.2,0,2.3,0.1,3.4c0.4,3.2-0.3,5.9-2.3,8.6
			c-4.5,5.7-8.3,11.9-11.1,18.7c-1,2.4-0.9,4.3,0.3,6.7c2.9,5.9,3.7,12-0.9,17.6c-0.8,1-0.8,2.1-0.8,3.2c0.6,11.6,0.9,23.2,3.6,34.6
			c0-3.8,0.2-7.7-0.1-11.5c-0.2-3.1,0.4-5.9,2.8-7.8c1.7-1.3,1.7-2.9,1.6-4.7c-0.3-11.5-0.8-22.9-2.9-34.3c-0.4-2.2,0.2-3.7,1.7-5.2
			c4.7-4.7,7.7-10.3,9.3-16.7c0.9-3.4,1.6-3.7,4.5-1.6c4.4,3.1,9.3,5.1,14.6,6.2c4.9,1.1,4.9,1.2,4.3,6c-2,16.9-2.7,33.8-2,50.8
			c0.1,3.8,0.5,7.7,0.8,11.7c3.8-0.8,4.5-3,4.4-6.1c-0.4-11.6-0.3-23.3,0.7-34.9c0.5-5.5,1.2-10.9,2.9-16.2c3.3-10,16.4-12.8,23.7-5
			c3.3,3.5,5.1,7.8,6.1,12.5c2.2,10.3,3,20.8,3.8,31.2c0.4,4.8,0.8,9.7,1,14.5c0.1,2.2,0.8,3.2,3.1,3.2c12.3-0.2,24.5,0.3,36.8-0.3
			c0,1,0,1.9,0,2.9c-1,0.4-3.3-1.2-2.7,1.8c0.4,1.9-1.1,3.3-2,4.8c-6.1,10.7-11.4,21.7-15.3,33.3c-0.4,1.2-1.1,2.4-0.7,4.5
			c4-5.4,7.4-10.5,11.8-14.8c2.6-2.5,5-5.5,8.9-6.4c0,1.3,0,2.6,0,3.9c-3.8,1.4-6.2,4.5-8.7,7.4c-5.3,5.9-9.6,12.5-13.8,19.3
			c-0.8,1.2-1.5,2.9-3.2,2.4c-2.1-0.7-1.5-2.6-1.2-4.1c0.1-0.8,0.4-1.6,0.6-2.3c2.8-11.5,7.2-22.4,12.4-33c0.6-1.2,1.9-2.3,1.1-4
			c-2,0.7-3,2.5-4.2,3.9c-12.9,14.9-21.3,32.2-26.8,51c-1.7,5.9-3.1,11.8-4.6,17.7c-1,0-1.9,0-2.9,0c0.3-5.2,1.9-10.1,3.2-15.1
			c0.7-2.5,0-3.3-2.4-3.1c-0.6,0.1-1.3,0.1-1.9,0c-2.8-0.3-4.2,0.6-4,3.7c0.3,4.8,0.2,9.7,0.3,14.5c-1.3,0-2.6,0-3.9,0
			c0-13.9,0-27.9,0-42.4c-8.2,4.5-16.1,4.2-24.4,0.3c0,3.1-0.1,5.5,0,7.8c0.4,11.4-0.1,22.9,1.2,34.2c-1.3,0-2.6,0-3.9,0
			c-0.1-4.8-0.2-9.6-0.2-14.4c0-1.8-0.4-3.1-2.6-3.1c-4.6,0.1-9.3,0-14-0.1c-1.1,0-1.8,0.5-2.6,1.1c-6.4,5.6-13.4,10.5-19.4,16.5
			c-1.9,0-3.9,0-5.8,0c11.9-9.9,23.6-20.2,35.9-29.6c6.2-4.7,9.1-9.6,7.7-17.3c-0.9-5,1.9-8.3,6.3-10.3c6.4-2.8,12.9-2.8,19.2,0.1
			c1.7,0.8,3.1,1.4,4.8-0.2c4.1-3.7,8.3-7.2,12.5-10.8c1.9-1.6,1.2-2.5-0.6-3.5c-3.3-1.7-6.6-3.4-9.7-5.5c-3-2.1-5.3-1.6-8.1,0.6
			c-20.1,15.9-40.4,31.7-60.6,47.5c-12.2,9.6-24.3,19.2-36.5,28.8c-1.9,0-3.9,0-5.8,0c34.3-26.9,68.7-53.8,103.4-81
			c-3.1-1.8-5.6-2.9-7.8-4.5c-2.8-1.9-5-1.4-7.7,0.6C104.5,250.7,81.2,268.3,58,286c-13.9,10.6-27.7,21.2-41.5,31.8
			c-1.9,0-3.9,0-5.8,0c0.5-0.4,1-0.9,1.5-1.2c5.1-3.9,10.2-7.8,15.3-11.7c1.2-0.9,2.4-1.9,1.9-3.5c-0.6-1.7-2.2-1-3.3-1
			c-7.7,0-15.4,0-23.1,0c0-1,0-1.9,0-2.9c7.1,0.6,14.2,0.2,21.3,0.3c5.5,0.1,5.5,0,5.4-5.6c0-0.5,0-1,0-1.5c0.2-2.2-0.6-3.3-3-3.2
			c-7.9,0.2-15.8-0.3-23.7,0.3c0-1,0-1.9,0-2.9c7.9,0,15.8,0,23.7,0.1c1.9,0,3-0.4,3.1-2.6c0-2.3-1.2-2.6-3.1-2.6
			c-7.9,0.2-15.8-0.3-23.6,0.3c0-1,0-1.9,0-2.9c7.7,0,15.5-0.1,23.2,0.1c2.8,0.1,3.8-1,3.5-3.6c-0.1-0.8-0.1-1.6,0-2.4
			c0.2-2.3-0.8-3.2-3.1-3.1c-7.9,0.2-15.8-0.3-23.6,0.3c0-1,0-1.9,0-2.9c7.2,0,14.5,0.1,21.7,0c1.6,0,4.2,1.4,4.8-1.5
			c0.6-2.6-1.9-3.4-3.6-4.5c-1.1-0.8-2.4-1-3.7-1c-6.4,0.1-12.9-0.3-19.3,0.2c0-1,0-1.9,0-2.9c5.2,0,10.4,0,15.6,0
			c0.1-0.3,0.2-0.6,0.3-0.9c-5.4-3.2-9.9-7.6-16-9.7c0-1.6,0-3.2,0-4.8c7.8,5.1,15.6,10.2,23.4,15.4c2,1.3,3.3,1.8,4.2-1.1
			c0.7-2.4,3-3.6,5-5.8c-11-7.1-21.7-14.1-32.5-21c0-1.3,0-2.6,0-3.9c1.8,0.4,3.1,1.7,4.6,2.6c9.5,6.2,18.9,12.3,28.3,18.5
			c2.5,1.7,4.9,2.6,8.1,2.2c4.2-0.5,8.3,0.4,12,2.8c2.7,1.8,5.1,4.3,4.8,7.4c-0.4,4.8,2.5,6.5,5.8,8.2c1.9,1,3.6,2.1,5.4,3.2
			c1.1,0.7,2.1,0.7,3.1-0.1c3.5-2.8,7.4-5.1,10.5-8.4c-0.8-1.5-2.3-2.1-3.5-2.8C57,241.9,31.9,226.1,6.8,210.3
			c-1.2-0.8-2.3-1.8-3.8-1.9c0-1.3,0-2.6,0-3.9c1.8,0,2.9,1.2,4.3,2.1c8.2,5.1,16.4,10.3,24.6,15.4c1.1,0.7,2.2,1.7,4.1,1.7
			c-5.6-17.8-15.2-32-30.7-41.9c-0.7-0.4-1.4-0.9-2.2-0.6c0-1.6,0-3.2,0-4.8c18.8,10.7,30.6,26.9,36.6,47.4c0.8,2.7,2.1,4.5,4.5,5.9
			c10.2,6.3,20.2,12.7,30.4,19c1.2,0.7,2.2,1.9,4,1.7c0-0.8,0.1-1.6,0-2.4c-1.3-14.5-2.1-29-0.6-43.5c0.6-5.7-0.3-11.2-0.3-16.8
			c0-1.4-0.3-2.4-1.8-3.1c-7.6-3.3-11.9-9.7-15.6-16.6c-1.7-3.1-2.9-6.5-4.4-10c-4.1,3-8.5,5.4-12.9,7.7
			c10.9,15.7,14.4,23.7,17.8,40.5c1.5,7.4,2.1,15,2.8,22.6c0.1,1.4,0.3,2.8-1.2,3.3c-2,0.7-2.3-1.2-2.9-2.5
			c-10.1-20.4-21.1-40.3-33.2-59.6c-2.5-4-4.5-8.6-10-9.5c-0.3,0-0.5-0.4-0.7-0.6l0.2,0.2c0.1-1.8,1.7-3.5,0.1-5.5
			c-4.1-5.1-7.6-10.8-12.8-14.9C3,138.1,3,136.5,3,134.9z M112.1,240.4c8.7-5.2,8.8-5.2,8.1-14c-1-13.7-1-27.4,0-41.1
			c0.4-5.3,0.9-10.6,1.4-15.9c0.1-1.4,0.6-3.1-1.5-3.5c-5.3-1.1-10.3-3.3-15.3-6.1c-2,6.7-5,12.1-9.5,16.7c-1.3,1.4-1.2,2.8-1,4.5
			c1.6,9.9,2.2,19.9,2.5,29.9c0.1,4.5,0.1,4.5,4.7,4.8c8.2,0.6,11.2,4.4,10.6,12.6C111.9,232,112.1,235.9,112.1,240.4z M145.6,234.4
			c-1.9-9.7-3.5-18.3-3.7-27c-0.1-5.1-0.9-9.9-2.6-14.6c-0.6-1.7-2.7-4.5,0.2-5.3c2.4-0.7,2.4,2.5,2.9,4.2
			c4.6,14.2,10.5,27.7,18.6,40.3c0.6,1,0.9,2.5,2.8,2.5c-0.7-9.5-1.3-19-2-28.5c-0.6-8.2-1.5-16.4-3.3-24.4c-0.9-3.8-2.3-7.4-5-10.3
			c-5.7-6.1-15.5-4-18.2,3.8c-0.6,1.8-1.1,3.7-1.4,5.6c-2.5,14.4-2.2,28.9-2,43.4c0,1.9,0.8,3.1,2.3,3.9
			C137.7,230,141.2,232,145.6,234.4z M22.6,158.1c3.1,1,6,0.3,9-0.4c6.2-1.5,11.5-4.7,17-7.9c6.5-3.9,10.2-9.7,13.1-16.3
			c0.5-1.2,0.6-2.1-0.4-3c-6-6-12-12.2-19.6-16.3c-7.6-4.1-12.6-1.7-14.5,6.9c-1.6,7.2-1.1,14.5,0.6,21.6c1.1,4.7-0.3,8.2-2.6,11.8
			C24.4,155.6,22.9,156.3,22.6,158.1z M94.4,130.3c-0.3,0.4-0.5,0.7-0.8,1.1c7,8.2,13.2,17.3,24.3,20.9c8.8,2.8,17.3,1.9,25.8-1.5
			c-0.2-0.7-0.2-1.1-0.4-1.3c-8.4-6.3-13.6-14.9-17.4-24.6c-1.7-4.2-3.9-8.2-7.4-11.2c-5-4.3-10.6-5.4-17.6-3.7
			c2.4,2.7,5,3.5,7.5,4.4c1.3,0.5,2.6,0.9,2.3,2.5c-0.2,1.4-1.5,1.4-2.7,1.6c-3,0.5-6,0.6-9.2,2.1c2.4,3.2,4.7,6.1,6.9,9
			c0.7,0.9,1.4,1.9,0.5,3c-0.8,1-1.9,0.9-3.1,0.4C100.1,132.2,97.2,131.3,94.4,130.3z M76.2,106.9c-1.1,0.5-1.2,1.3-1.3,2.1
			c-1.2,8.6-4.1,16.6-7.5,24.5c-3.8,8.7-3.3,17.3,0.2,25.9c3.1,7.5,8.4,13.3,14.9,18.8c3.1-8.8,7.9-16.4,13.2-23.8
			c0.8-1.1,1.5-2.5,1.3-4.1c-0.6-5.8-3.1-10.9-6.2-17c-0.9,2.9-1.4,4.6-3,5.7c-4,2.7-12.7,2.6-16.6-0.4c-2.7-2.1-3-3.1-1.1-6
			c2.9-4.5,6.1-8.7,9.8-12.6c0.9-0.9,2-1.7,1.2-3.3C79.7,113.2,78.7,109.6,76.2,106.9z M58.7,219.3c-1.8-18.3-5.9-35.7-18-50.3
			c-2.9-3.5-2.5-4.8,1.7-6.9c3.5-1.7,6.8-3.7,10-5.9c4.6-3.3,5.7-3,7.4,2.5c2.3,7.2,5.8,13.6,11.3,19c1.8,1.8,3.8,3.2,6.3,3.7
			c1.2-3.1-1.2-4.1-2.5-5.5c-6.8-7-11.8-14.9-13.3-24.7c-0.4-2.5-0.4-5-0.7-8.2c-9.3,11.7-21.4,17-35.6,19.6
			C37.6,181.1,48,200.3,58.7,219.3z M33.4,265.9c0,11.6,0,22.8,0,33.9c0.6,0,1,0,1.2-0.1c7.1-5.3,14.2-10.7,21.3-16
			c0.8-0.6,1.8-1.1,1.7-2.2c-0.4-5,0.4-10.1-0.6-15.6C49,270.7,41.3,270.4,33.4,265.9z M200.4,232.8c-9.7,0-19.3,0-29,0
			c-4.3,0-4.3,0.1-4,4.6c0.1,1.1,0.1,2.3,0.1,3.4c0,1-0.4,1.9-1.5,2.2c-0.9,0.3-1.6-0.2-2.1-0.8c-1.4-1.8-3-3.5-3.9-5.5
			c-1.8-3.9-4.8-4.2-8.4-3.9c-2.3,0.2-2.9,1.5-1.7,3.5c0.7,1.2,1.9,1.7,3,2.3c4.7,2.8,9.8,5,14.2,8.3c1.1,0.9,2.4,0.8,3.7,0.8
			c4.2,0,8.4,0,12.6,0c1.6,0,3.2,0,4.4-1.4C191.8,241.6,196.1,237.4,200.4,232.8z M92.8,255.6c5.3-4,9.7-7.4,14.2-10.8
			c0.9-0.7,1.6-1.5,1.6-2.8c0-3.6,0-7.2,0-11.1c-3.2,0.9-5.7,1.9-8.3,1.6c-2.5-0.3-4.9-1-7.5-1.5C92.8,239.1,92.8,246.7,92.8,255.6z
			 M45.4,250.8c-3.5,0-6.7,0.6-9.5,2.8c-3.2,2.6-3.3,6.4-0.3,9.1c4.6,4.2,14.6,4.2,19.4,0c3.2-2.8,3.1-6.3-0.1-9.1
			C52.2,251.5,48.9,250.8,45.4,250.8z M134,262.5c-3.3-0.2-6.6,0.4-9.4,2.4c-3.3,2.3-3.4,5.5-0.3,7.9c4.8,3.8,15.3,3.7,20-0.1
			c3-2.4,3-5.2-0.1-7.5C141.2,263,137.8,262.4,134,262.5z M95.4,112.6c-8.6,4.3-14.9,11-20.3,18.7c-2.9,4.1-2.4,5.2,2.5,6.1
			c2,0.3,3.8-0.2,5.7-0.4c2-0.2,3.2-1.2,3.7-3.1C89.2,126.6,92.3,119.7,95.4,112.6z M171.7,267.7c-6.4,0-12.6,0-18.8,0
			c-0.8,0-1.9-0.2-2.1,0.7c-0.7,2.6-1,5.4-0.2,8c0.6,2,2.8,0.9,4.2,1.1c1.3,0.1,2.6,0,3.8,0c9.5,0,9.5,0,13.2-8.6
			C171.8,268.7,171.8,268.6,171.7,267.7z M82,202.6c-1,2.7-1.2,5.5-1.4,8.2c-0.6,12.8,0.2,25.5,1.1,38.2c0.3,4.4,2.1,6.7,6.6,7.9
			C84.5,238.9,82.6,220.8,82,202.6z M177.8,258c-5.4,0-10.4,0.3-15.4-0.1c-5.7-0.5-8.7,2.9-12.5,7.2c6.7,0,12.5-0.4,18.2,0.1
			C173.4,265.6,176.2,263.4,177.8,258z M101.3,229.1c1.1,0,2.6-0.3,4.1-0.9c2-0.8,3.1-2.1,3.2-4.4c0.1-2.2-1.4-3.1-3.1-3.8
			c-1.5-0.7-3.1-0.9-4.7-0.9c-4.5,0.1-7.7,2.1-7.7,4.9C93,226.9,96.2,229,101.3,229.1z M162.9,288.4c-2.5-0.9-4.6-0.5-6.6-0.6
			c-6.6-0.1-6.6,0-6.2,6.7c0.1,1.9,0.6,2.8,2.7,3c6.6,0.5,7.1,0.3,9.2-6.1C162.3,290.5,162.6,289.6,162.9,288.4z M161.2,255.4
			c5.9,0,10.9-0.1,15.9,0c3.5,0.1,5.2-1.7,6.4-5.2c-4.6,0-8.7,0.2-12.9-0.1C166.6,249.9,164,251.6,161.2,255.4z M66.4,126.6
			c1.8-4.4,3-8.1,3.9-12c0.3-1.4,1.6-3.1-0.8-4s-5-0.3-5.6,1.9C62.5,117.2,61.8,121.9,66.4,126.6z M81.4,181.3
			c-0.7,4.5-1,8.7-0.5,12.9c0.2,1.4,0.8,2.8,2.6,3c1.9,0.1,2.4-1.3,2.8-2.7C88,189.6,86.3,184.8,81.4,181.3z M105.2,297.3
			c1.8,1,3,0.8,4.1,0.7c11-0.4,9.7,2.6,9.2-10c0-0.4-0.2-0.6-1.3-0.6C113.6,290.4,109.6,293.7,105.2,297.3z M165.8,280.1
			c-4.7,0-9,0-13.3,0c-1.6,0-2.3,0.7-2.3,2.3c0,1.6,0.2,2.9,2.2,2.8c2.7,0,5.4-0.2,8.1,0.1C164.1,285.6,165.5,284,165.8,280.1z
			 M146.5,212.6c-0.3,0-0.6,0.1-0.9,0.1c0.7,4.8,1.4,9.5,2.1,14.3c0.3,2.3,1.3,3.5,3.8,3.2c1.2-0.2,2.5,0.2,3.7-0.7
			C152.2,223.7,149.3,218.2,146.5,212.6z M61.9,279c2.7-2.1,6-3.7,8.1-7c-3-1.8-5.5-3.7-9.1-5c0,3.3,0,6.1,0,9
			C61,277,60.7,278,61.9,279z"/>
		<path d="M86.4,4c8,6.3,8.8,10.1,4,19.9c2.3,1.3,4.8,2.4,6,4.8c0.9,0.1,1.4-0.3,1.8-0.8c4.8-7,11.6-7.4,18.9-5.7
			c2,0.5,3.5,0.7,5.3-0.7c3.3-2.6,7.2-2.2,11.1-1.4c1.2,0.2,2.3,1.1,3.5-0.3c4-4.6,9.4-4.4,14.3-2.9c7.8,2.4,14.5,1.7,20.7-3.8
			c2.6-2.3,3.7-2.2,5,1.1c2.9,7.3,9,9.6,15.9,10.8c0.9,0.2,1.9,0.1,2.9,0.3c1.8,0.4,2.5,1.6,1.6,3.3c-1.4,2.7-2.6,5.3-0.7,8.2
			c2.4,3.6,5.4,6.4,9.8,7.1c0,1.6,0,3.2,0,4.8c-4.7-1.1-8.6-3.6-11.6-7.5c-2.1-2.7-3.5-5.7-2.6-9c0.7-2.8-0.7-3.3-2.8-3.7
			c-0.9-0.2-1.9-0.5-2.8-0.8c-6-1.9-10.6-5.4-12.4-12.2c-4.9,3.9-9.6,6.7-15.7,6.1c0.5,3.7,0.6,6.5,4.8,8.1
			c6.2,2.5,7.6,10.4,3.9,17.2c-3.9,7.2-11.2,10.5-19.7,8.6c-1.9-0.4-3-0.6-4.2,1.5c-4.6,8-13.9,9.8-21.5,4.1c-2.4-1.8-3.7-1.8-6-0.1
			c-6,4.5-12.9,3.8-19.5,1.7c-3.8-1.2-6.2-4.6-7.1-8.6C89,52.7,88.5,52,87,51.6c-8.2-2.3-10.4-4.7-12.7-13.8
			c-4.2,2.4-8.7,2.8-13.4,3C54.5,41,49.6,38.6,46,33.4c-0.9-1.3-1.5-2.9-3.7-1.8C29.9,37.6,23,31.3,18,18c-0.7-1.8-0.9-3-3-3.7
			c-4.9-1.6-8.2-5-9.1-10.3c1.3,0,2.6,0,3.9,0c0.5,5,4.1,6.6,8.3,7.4c2,0.4,3.4,1,3.3,3.3c-0.1,3.8,1.9,6.8,4,9.7
			c4.4,6.4,8.9,7.5,15.8,3.9c4.4-2.3,4.5-2.3,7.5,1.6c2.4,3.1,5,6,9.2,6.5c3.5,0.4,7.1,0.5,10.6,0s6.3-2,8-5.5
			c1.5-3.2,3.8-5.8,7.3-6.6c4.8-1.1,5.7-4.6,6.1-8.7c0.4-4.2-2-6.7-5.4-8.3c-3.8-1.8-7.8-2.9-12.2-2.5c-6.3,0.5-9.5,3.6-9.5,9.8
			c0,3.3,1,4.3,4.4,4.1c3.2-0.2,4-1.3,3.7-5.3c-0.1-1.2-0.5-2.4,1-2.7c1.3-0.3,2.2,0.6,2.6,1.7c1,2.8,0.6,5.4-1.4,7.7
			c-1.9,2.2-6.7,3-9.9,1.7c-2.5-1-3.7-3-3.6-5.7c0-4.5,0.4-9,4.5-12.1C71.5,4,78.9,4,86.4,4z M139.3,22.8c3.7,5.4,4.8,9.7,3.9,14.8
			c-0.6,3.3-2.3,5.8-5.6,6.6c-3,0.7-6.1,1-9.1,0.5c-4.9-0.8-7.7-4.8-7-9.9c0.5-3.9,4.5-6.8,8.9-6.6c1.5,0.1,3.2,0.2,3.2,2.2
			c-0.1,1.7-1.7,1.5-3,1.6c-0.5,0-1,0-1.4,0.2c-1.9,0.6-3.7,1.4-3.7,3.8c0,2.6,1.3,4.4,3.9,4.8c2.4,0.4,4.8,0.3,7.2,0
			c1.4-0.2,2.3-1.1,2.9-2.3c1.6-3.3,0.3-10.1-2.4-12.6c-3.7-3.4-8.2-3.7-12.9-0.7c-1.8,1.1-3.2,2.2-5.7,1.2
			c-8.5-3.4-12.3-2.2-18.6,4.9c-2.5,2.8-3.3,2.9-5.5,0.1c-2.3-3-5.4-3.3-8.7-2.7c-3.2,0.6-4.8,3.1-5.5,6.1
			c-1.4,6.3,1.2,10.7,7.6,12.3c2.4,0.6,4.5,0.8,4.5,4.4c0.1,3.8,2.7,6.8,6.3,7.9c6.8,2,13.8,1.9,18.5-4.2c1.6-2.1,2.7-2.6,4.2,0.1
			c2.5,4.5,6.9,5.6,11.6,5.5c4.4-0.1,7.1-2.8,8.5-6.8c0.9-2.6,2-3.3,5-2.2c6.9,2.5,14.3-0.4,17.7-6.3c3.2-5.6,1.6-11.2-4.2-13.3
			c-2.7-1-3.8-3-4.3-5.4c-0.7-3.3-2.8-5.1-5.8-5.8C146.2,20.1,142.7,20.4,139.3,22.8z"/>
		<path class="st0" d="M3,181.4c0.9-0.3,1.6,0.1,2.2,0.6c15.5,9.9,25.2,24.1,30.7,41.9c-1.9,0-3-1-4.1-1.7
			c-8.2-5.1-16.4-10.3-24.6-15.4c-1.3-0.8-2.5-2.1-4.3-2.1C3,196.9,3,189.2,3,181.4z"/>
		<path d="M15.5,160c2.3,6.5,6.2,12.3,8.3,18.9c0.6,1.8,2.8,4,0.5,5.6c-2,1.4-3.4-1.1-4.8-2.1c-5.2-3.4-10.4-7-16.4-8.8
			c0-1.3,0-2.6,0-3.9c5.6,1.9,10.6,4.9,15.9,7.5c-3.8-10.2-8.9-19.6-16-27.8c0-1.6,0-3.2,0-4.8c3.3,2.3,5.1,5.9,7.6,8.9
			c1.8,2.2,2.5,5.1,5,6.7L15.5,160z"/>
		<path d="M206.6,268.7c-7,9.6-10.8,20.7-13.6,32c-1.4,5.7-3.2,11.4-2.9,17.4c-1.3,0-2.6,0-3.9,0c2.3-18,7.1-35.2,16.9-50.8
			c1-1.6,1.8-3.4,3.5-4.5C206.6,264.8,206.6,266.8,206.6,268.7z"/>
		<path class="st0" d="M3,149.4c7.1,8.2,12.2,17.5,15.9,27.9c-5.3-2.6-10.4-5.7-15.9-7.5C3,163,3,156.2,3,149.4z"/>
		<path d="M189.5,47.7c1.7-0.1,2.9-0.1,3.3,1.3c0.4,1.3-0.6,2-1.5,2.8c-6.4,4.9-12.6,10.1-18.5,15.6c-14.7,13.8-27.5,29-35.1,48
			c-0.5,1.3-1,2.9-2.8,2.9c-1.6,0-2-1.4-2.6-2.5c-2.6-4.9-6.5-8.3-11.1-11.2c-4.5-2.8-4.9-4.7-1.6-8.9
			c10.7-13.7,22.5-26.2,37.2-35.6c9.2-5.9,19.1-10.1,29.9-11.9C187.8,48,188.9,47.8,189.5,47.7z M183.5,52.8
			c-9.4,1.5-17.6,5.4-25.4,10.4c-11.9,7.7-21.8,17.5-30.9,28.3c-1.9,2.2-3.6,4.5-5.4,6.8c-0.8,1.1-1,2,0.3,2.8
			c5,2.7,9,6.6,12.8,11.6C145.9,88,163.9,69.8,183.5,52.8z"/>
		<path d="M38.4,35.5c1.9,0.3,2.1,1.6,2.6,2.9c2.8,7.4,5.6,14.8,8.6,22.1c5.3,12.8,11.2,25.4,18.6,37.2c2.4,3.8,2.1,4.3-2.5,4.7
			c-2.5,0.2-4,1.7-5.5,3.4c-2,2.2-2.8,2.1-4-0.7c-8.2-19.4-15.7-38.9-18.5-60c-0.3-2.4-0.5-4.8-0.7-7.2
			C36.8,36.6,37.3,35.8,38.4,35.5z M43.3,55.5c3.1,16.1,8.7,31.1,15.3,46.4c1.8-1.7,3.8-2.4,5.9-3.5C56.2,84.6,49.7,70,43.3,55.5z"
			/>
		<path d="M108.2,97.6c0.3,1.7-0.7,2.4-2.1,2.7c-6,1.5-11.6,4-16.4,8c-0.9,0.7-2.1,1-3.2,0.2s-1-1.9-0.8-3.1
			c4.3-16.6,0.8-32.6-4-48.4c-0.1-0.5-0.4-0.9-0.5-1.4c-0.4-1-0.3-1.9,0.6-2.6c1-0.7,1.8-0.3,2.6,0.5c1.8,1.9,3.7,3.7,5.3,5.6
			C99.1,70,104.2,83,107.9,96.7C108,97,108.1,97.3,108.2,97.6z M87.6,62.9c2.8,13.3,4.8,26.4,2.5,40.5c4.2-2.3,7.5-4.3,11.3-5.3
			c2.9-0.7,2.9-2.3,2.2-4.7C101,85.2,98,77.2,93.5,69.9C91.8,67.4,90.1,64.8,87.6,62.9z"/>
		<path d="M15.3,66.5c1.2,0.3,2.8,0.7,4.3,1.2c7.7,2.6,13.8,7.6,19,13.6c7.3,8.3,12.5,18,17.1,27.9c0.5,1.2,1.2,2.5,0,3.5
			c-1.4,1.2-2.4-0.1-3.2-1.1c-3.8-4.7-9.2-7-14.7-8.7c-1.8-0.6-3.2-1.1-3.9-3.1C30.4,89.3,23.3,81.1,16,73.2c-1-1.1-2-2.1-3-3.2
			c-0.6-0.8-0.9-1.7-0.3-2.7C13.3,66.6,14,66.4,15.3,66.5z M48,103.1C41.7,90,34.3,78.3,20.7,71.8c-0.4,1.3,0.2,1.6,0.6,2.1
			c6.2,7.2,12.2,14.6,15.4,23.7c0.4,1.2,1.3,1.8,2.4,2.2C42.1,100.9,45,102,48,103.1z"/>
		<path class="st0" d="M58.7,219.3c-10.7-19-21.1-38.2-33.3-56.8c14.2-2.6,26.3-7.9,35.6-19.6c0.3,3.2,0.3,5.7,0.7,8.2
			c1.5,9.8,6.4,17.8,13.3,24.7c1.3,1.4,3.7,2.4,2.5,5.5c-2.6-0.5-4.5-1.9-6.3-3.7c-5.4-5.3-8.9-11.8-11.3-19
			c-1.7-5.4-2.8-5.7-7.4-2.5c-3.2,2.2-6.5,4.2-10,5.9c-4.3,2.1-4.7,3.4-1.7,6.9C52.8,183.6,56.9,201,58.7,219.3z"/>
		<path class="st0" d="M146.5,212.6c2.9,5.5,5.7,11.1,8.7,16.8c-1.2,0.9-2.5,0.5-3.7,0.7c-2.5,0.4-3.5-0.9-3.8-3.2
			c-0.7-4.8-1.4-9.5-2.1-14.3C145.9,212.7,146.2,212.7,146.5,212.6z"/>
		<g>
			<path d="M78.8,204.8c0.4-3.6,0.2-7.1,0-10.6c-0.1-2.1-0.2-4.2-0.2-6.3c0-1.4-0.3-3.1-2.4-4c-7.4-3.2-11.6-9.6-15.1-16.1
				c-1.1-2.1-2-4.3-3-6.6c-0.5-1.1-0.9-2.2-1.4-3.4l-0.5-1.1l-1,0.7c-4.3,3.1-8.8,5.5-12.7,7.6l-1,0.5l0.6,0.9
				c10.8,15.5,14.2,23.4,17.6,40.1c1.3,6.4,1.9,13,2.5,19.4l0.3,3c0.2,1.6,0.1,2.1-0.5,2.3s-0.8,0.2-1.3-1.2
				c-0.1-0.3-0.2-0.5-0.3-0.8c-10.2-20.6-21.4-40.7-33.3-59.7c-0.3-0.5-0.6-1-1-1.6c-2.2-3.6-4.4-7.4-9.4-8.3c0.1-0.3,0.2-0.7,0.3-1
				c0.4-1.2,0.9-2.9-0.4-4.7c-1-1.3-2.1-2.7-3-4c-2.9-3.9-5.9-7.9-9.9-11.1L2,137.7v7.4l0.4,0.3c2.1,1.5,3.6,3.6,5.2,5.8
				c0.7,1,1.4,2,2.2,3c0.6,0.7,1.1,1.6,1.6,2.4c0.8,1.5,1.7,3,3.3,4.1c1.1,2.9,2.5,5.8,3.8,8.5c1.6,3.2,3.2,6.5,4.3,10
				c0.2,0.6,0.5,1.1,0.7,1.7c0.9,1.7,1,2.2,0.2,2.9c-0.6,0.5-1,0.3-2.4-1c-0.4-0.4-0.8-0.8-1.3-1.1l-1.1-0.7
				c-4.8-3.2-9.8-6.5-15.6-8.2L2,172.3v4.8l0.5,0.3c17.9,10.1,30,25.9,36.1,46.8c0.9,2.9,2.4,4.9,4.9,6.5
				c6.3,3.9,12.7,7.9,18.9,11.8c3.8,2.4,7.6,4.8,11.5,7.2c0.2,0.2,0.5,0.3,0.7,0.5c0.9,0.6,1.9,1.4,3.3,1.4c0.2,0,0.4,0,0.6,0
				l0.9-0.1v-0.9c0-0.2,0-0.5,0-0.7c0-0.6,0-1.1,0-1.7C78.1,234.4,77.2,219.7,78.8,204.8z"/>
			<path d="M206.3,259c-3.5,1.3-5.8,3.9-8.1,6.4c-0.4,0.4-0.7,0.8-1.1,1.2c-5.4,6-9.6,12.6-13.9,19.4c-0.1,0.1-0.2,0.3-0.3,0.5
				c-0.8,1.4-1.2,1.7-1.8,1.5c-0.8-0.3-0.9-0.7-0.6-2.4c0-0.2,0.1-0.4,0.1-0.6c0.1-0.5,0.2-0.9,0.3-1.4c0.1-0.3,0.2-0.6,0.2-0.9
				c2.5-10.3,6.4-20.8,12.3-32.8c0.1-0.3,0.3-0.5,0.5-0.8c0.6-1,1.5-2.3,0.7-4.1l-0.4-0.8l-0.9,0.3c-1.8,0.7-2.9,2-3.8,3.3
				c-0.3,0.3-0.5,0.6-0.8,0.9c-12.1,14-20.9,30.8-27,51.4c-1.2,4-2.2,8.2-3.2,12.2c-0.5,1.9-0.9,3.7-1.4,5.6l-0.3,1.3h30.3l0.1-0.9
				c2.5-20,8-36.4,16.7-50.3c0.2-0.3,0.4-0.7,0.6-1c0.7-1.3,1.4-2.4,2.6-3.2l0.5-0.3v-4.9L206.3,259z"/>
			<path d="M120.4,164.9c-4.7-1-9.4-2.9-15-6l-1.1-0.6l-0.4,1.2c-1.9,6.6-5,11.9-9.2,16.3c-1.6,1.7-1.5,3.5-1.2,5.3
				c1.7,10.8,2.2,21.6,2.5,29.8c0.2,5,0.6,5.4,5.6,5.8c7.5,0.6,10.2,3.8,9.7,11.6c-0.2,2.6-0.1,5.3-0.1,8.1c0,1.3,0,2.7,0,4.2
				l0.1,1.7l1.5-0.9c9-5.4,9.2-5.8,8.5-14.9c-1-13.8-1-27.6,0-41c0.3-3.7,0.6-7.3,0.9-11c0.1-1.6,0.3-3.3,0.4-4.9
				c0-0.2,0-0.3,0.1-0.5C122.8,167.8,123.1,165.5,120.4,164.9z"/>
			<path d="M142.9,207.4c-0.2-5.5-1-10.4-2.7-14.9c-0.1-0.3-0.3-0.7-0.5-1.2c-0.4-0.8-0.9-1.9-0.7-2.4c0.1-0.2,0.5-0.4,0.8-0.5
				c0.2,0,0.4-0.1,0.5,0c0.4,0.2,0.7,1.4,0.8,2.2c0.1,0.5,0.2,0.9,0.3,1.3c5,15.6,11.2,28.8,18.7,40.5c0.1,0.2,0.2,0.4,0.3,0.6
				c0.5,0.9,1.2,2.3,3.3,2.4h1.1l-0.1-1.1c-0.2-2.9-0.4-5.8-0.6-8.7c-0.4-6.5-0.9-13.2-1.4-19.8c-0.6-7.9-1.5-16.4-3.4-24.6
				c-1.1-4.7-2.7-8.1-5.2-10.8c-2.9-3.1-7.1-4.5-11.2-3.6c-4.1,0.9-7.3,3.8-8.6,7.8c-0.7,2-1.2,3.9-1.5,5.8
				c-2.4,13.7-2.2,27.8-2,41.3v2.3c0,2.2,0.9,3.7,2.8,4.8c2.4,1.4,4.9,2.8,7.7,4.3l5.7,3.1l-0.4-2.1
				C144.8,225.1,143.1,216.2,142.9,207.4z"/>
			<path d="M135.2,114.7l0.7-1.5c11.1-25.3,29.8-43.6,48.3-59.6l2.7-2.3l-3.5,0.5c-8.5,1.3-16.7,4.7-25.8,10.6
				c-10.7,7-20.6,16-31.1,28.5c-1.2,1.4-2.4,2.9-3.5,4.3c-0.6,0.8-1.3,1.6-2,2.5s-1,1.7-0.8,2.5c0.1,0.7,0.6,1.3,1.5,1.8
				c4.5,2.5,8.5,6.1,12.5,11.3L135.2,114.7z"/>
			<path d="M57.7,102.3l0.6,1.3l1-0.9c1.3-1.1,2.6-1.8,4.1-2.6c0.5-0.3,1.1-0.5,1.6-0.8l0.9-0.5l-0.5-0.9
				c-8-13.3-14.3-27.5-20.5-41.2l-4.3-9.6l1.7,8.6C45.8,73.6,52.4,90,57.7,102.3z"/>
			<path d="M104.5,97.3c0.7-1.2,0.4-2.7-0.1-4.1c-3.1-9.9-6.3-17.3-10.2-23.7c-1.8-2.9-3.4-5.4-6-7.3l-2.1-1.6l0.6,2.6
				c3.1,14.4,4.7,26.7,2.5,40.2l-0.3,2.1l2.5-1.4c3.9-2.2,6.9-3.9,10.3-4.8C103.1,98.8,104,98.2,104.5,97.3z"/>
			<path d="M20.5,74.5c5.9,6.8,12,14.3,15.3,23.4c0.6,1.7,1.9,2.4,2.9,2.8c2.1,0.8,4.3,1.6,6.4,2.4l4.8,1.8l-1.1-2.2
				c-6-12.5-13.5-25-27.8-31.8l-1.1-0.5l-0.3,1.1c-0.5,1.7,0.3,2.5,0.7,2.9L20.5,74.5z"/>
		</g>
		
			<linearGradient id="SVGID_1_" gradientUnits="userSpaceOnUse" x1="105" y1="454" x2="105" y2="778" gradientTransform="matrix(1 0 0 1 0 -454)">
			<stop  offset="0" style="stop-color:#EB1A21"/>
			<stop  offset="1" style="stop-color:#A51A21"/>
		</linearGradient>
		<path class="st4" d="M210,324c-70,0-140,0-210,0C0,216,0,108,0,0c70,0,140,0,210,0C210,108,210,216,210,324z M199.9,162.6
			c0-46.5-0.2-87.6-0.2-134.1c0-9.4-3.5-18.1-13-18.1c-50.8,0-101-0.4-151.8-0.4c-4,0-8.3,0.5-12.3,0.7c-5.9,0.2-11.3,6.1-11.3,11.8
			c0,93.3-0.4,182.4-0.4,275.8c0,1.5,0.2,1.6,0.3,3.1c0.7,6.6,5,12.6,11.3,12.6c55.5,0,107.4,0.2,162.9,0.3c1.9,0,3.6-0.7,5.3-1.7
			c5.5-3,9.5-6,9.5-12.1C200.1,254,199.9,208.9,199.9,162.6z"/>
		<path d="M200.8,161.4c0.1-9.1,0-18.3,0.1-27.6c0.2-36.3,0.1-72.7,0-109c0-9.1-6.8-15.3-16-15.3c-52.8,0-105.7,0-158.5,0
			c-9.4,0-15.6,6.2-15.6,15.8c0,38.4,0.2,76.7,0.1,115.1c0,29.5-0.4,58.9-0.5,88.4c-0.1,23.5-0.1,47-0.1,70.4
			c0,8,6.5,15.3,13.7,15.3c54.3,0.1,108.6,0,162.9,0c2.2,0,4-0.5,5.9-1.8c5.1-3.5,8.1-7.9,8-14.4
			C200.7,252.7,200.8,207.1,200.8,161.4z M186.5,310.2c-3,0-3.7,0-3.7,0s-103.1,0-154.7,0c-8.3,0-13.1-4.5-13-14.9
			c0-22.8,0-45.6,0.1-68.4c0.1-28.6,0.5-57.2,0.5-85.9c0.1-37.3-0.2-75.1-0.1-112.3c0-7.9,2.5-14.8,12.6-14.8
			c50.2,0,105.1,0.2,155.3,0.2c8.7,0,13,5.3,12.6,14.1c0,35.2,0,106.5,0,106.5v27c0,0,0,91.6,0.1,135.9
			C196,304.4,191.2,309.6,186.5,310.2z"/>
	</g>
	<g>
		<g>
			<path class="st0" d="M43.5,306c-3.9,0-7.5-0.8-10.8-2.5c-3.3-1.7-6-4.2-7.8-7.5c-1.9-3.1-3.1-6.9-3.6-11.1v-0.2v-3.3h3.1h14.1v3
				c0.2,1.6,0.8,2.8,1.6,3.6c0.8,0.8,2,1.3,3.5,1.3c2.2,0,3.1-0.8,3.6-1.4c0.9-1.1,1.4-3,1.4-5.3v-5.6c0-2.4-0.5-4.2-1.4-5.3
				c-0.5-0.6-1.4-1.4-3.3-1.4c-1.1,0-2,0.3-3,0.8c-0.9,0.6-1.6,1.4-2.2,2.7l-0.8,1.7H22.6v-43.1h41.3v16.8h-24v5
				c1.7-0.6,3.6-0.8,5.3-0.8c4.2,0,7.8,0.9,11,2.8c3.1,1.9,5.5,4.7,7.2,8.3c1.6,3.5,2.4,7.7,2.4,12.4v5.6c0,4.9-0.9,8.9-2.7,12.4
				c-1.7,3.6-4.4,6.4-7.8,8.3C52.1,305.1,48.1,306,43.5,306z"/>
			<path d="M60.8,235.4v10.5h-24v13.5c1.1-0.9,2.4-1.7,3.9-2.2c1.6-0.5,3.1-0.8,4.7-0.8c3.6,0,6.7,0.8,9.4,2.4
				c2.7,1.6,4.5,3.9,6,7.1c1.4,3.1,2,6.7,2,11.1v5.6c0,4.4-0.8,8-2.4,11.1c-1.6,3.1-3.8,5.3-6.6,7.1c-2.8,1.6-6.3,2.4-10.4,2.4
				c-3.5,0-6.6-0.8-9.3-2.2c-2.7-1.4-5-3.6-6.6-6.3c-1.7-2.8-2.7-6.1-3.1-9.9l0,0h11l0,0c0.3,2.5,1.1,4.4,2.5,5.6
				c1.4,1.4,3.3,2,5.6,2c2.7,0,4.5-0.8,6.1-2.5c1.4-1.7,2.2-4.1,2.2-7.4V277c0-3.1-0.6-5.5-2-7.2c-1.4-1.7-3.3-2.5-5.8-2.5
				c-1.7,0-3.3,0.5-4.7,1.4c-1.4,0.9-2.5,2.2-3.3,3.9H25.8v-36.9h35 M67,229.1h-6.3h-35h-6.3v6.3v36.9v6h-1.4v6.3v0.3v0.5
				c0.5,4.7,1.9,8.9,4.1,12.4c2.4,3.8,5.3,6.6,9.1,8.6c3.6,1.9,7.7,2.8,12.2,2.8c5.2,0,9.6-1.1,13.5-3.1c3.9-2.2,7.1-5.5,9.1-9.7
				c1.9-3.9,3-8.6,3-13.8v-5.6c0-5.2-0.9-9.7-2.5-13.6c-1.9-4.2-4.7-7.5-8.5-9.7c-0.8-0.5-1.4-0.8-2.2-1.3h5h6.3v-6.3v-10.5v-6.3H67
				z M40.1,278.2l1.6-3.3c0.5-0.8,0.8-1.1,1.1-1.4c0.3-0.3,0.8-0.3,1.3-0.3c0.6,0,0.8,0.2,0.8,0.2c0.2,0.2,0.6,1.1,0.6,3.3v5.6
				c0,2.4-0.5,3.1-0.6,3.3c0,0.2-0.3,0.3-1.3,0.3c-0.9,0-1.3-0.3-1.4-0.3c-0.3-0.3-0.5-1.1-0.6-1.6v-5.8H40.1L40.1,278.2z"/>
		</g>
	</g>
</g>
</svg>
