<?xml version="1.0" encoding="utf-8"?>
<!-- Generator: Adobe Illustrator 22.0.1, SVG Export Plug-In . SVG Version: 6.00 Build 0)  -->
<svg version="1.1" id="레이어_2_1_" xmlns="http://www.w3.org/2000/svg" xmlns:xlink="http://www.w3.org/1999/xlink" x="0px"
	 y="0px" viewBox="0 0 210 324" style="enable-background:new 0 0 210 324;" xml:space="preserve">
<style type="text/css">
	.st0{fill:#FFFFFF;}
	.st1{fill:#EB1A21;}
	.st2{fill:#FFC40A;}
	.st3{fill:#005CA9;}
	.st4{fill:url(#SVGID_1_);}
</style>
<g>
	<g>
		<path class="st0" d="M5,155C5,104.7,5,54.4,5,4.1c68.1,0,136.2,0,204.4,0c0,105.1,0,210.3,0,315.5c-18.1,0-36.3,0-54.4,0
			c-0.7-2,0-3.9,0.3-5.7c2.3-11.4,6.8-21.9,13-31.8c8.2-13.2,18.6-24.5,30.1-34.9c0.8-0.8,1.7-1.5,2.5-2.3c0.6-0.6,0.9-1.4,0.5-2.2
			s-1.2-1-2.1-0.9c-1,0.1-1.9,0.3-2.9,0.5c-10.4,2.4-20,6.5-28.7,12.8c-1.1,0.8-2.1,2-3.9,2.3c-0.2-3.1,1.2-5.7,2.1-8.4
			c7.5-22.2,16.7-43.6,25.9-65.1c0.7-1.5,2.3-3.5,0.2-4.7c-2.1-1.3-3,1.2-4.1,2.4c-8.5,10.3-16.4,21-23.6,32.2
			c-0.9,1.3-1.4,2.9-2.9,3.8c-3.6-3.2-3.6-3.2-0.4-6.6c12.3-13.1,20.6-28.2,24.7-45.7c1.7-7.3,2.6-14.7,2.6-22.2
			c0-1.3-0.1-2.8-1.8-3c-1.4-0.2-1.9,1-2.3,2.1c-0.3,0.8-0.6,1.5-0.8,2.3c-2.1,5.6-4.6,11.1-8,16.1c-1.8,2.7-3.8,5.4-6.7,7
			c-4.9,2.8-10,5.4-15,8.1c-1.2,0.7-2.3,0.8-2.5-0.9c-0.5-4.3-1.7-8.6,0.2-13c3.3-7.7,4.6-15.9,5.2-24.2c0.3-4.9,0.3-9.7,0.2-14.6
			c0-2.8-1.5-3.7-3.1-2c-2.9,3.2-6,1.6-9.5,1.5c0.4-1.2,0.7-2,1-2.7c5.6-13,11-26,16-39.2c6-16.1,11.7-32.3,14.6-49.4
			c1-5.8,1.5-11.6,0.5-17.4c-0.2-1.3-0.4-2.7-2-3s-2.1,1.2-2.7,2.3c-3,5-5.9,10.1-8.9,15.1c-6,10-12.1,20-18.7,29.7
			c-1.6,2.4-3.9,4.3-5.2,7c-8.8,18.6-16.7,37.7-24.4,56.8c-0.5,1.3-0.7,2.8-1.9,3.8c-1.3-0.8-1.3-2.2-1.7-3.4
			c-4-13.2-7.1-26.6-9.5-40.2c-2.9-16.3-5-32.7-6.1-49.3c-0.3-3.8-0.6-4.1-4.4-4.1c-20.1,0-40.3,0-60.4,0c-5.1,0-5.9,1.1-5.3,6.1
			c1.9,15.8,4.3,31.5,7.3,47.1C33,84.9,34.2,88.1,34,92c-6.3-3.2-11.7-7.1-17.1-10.8c-1.7-1.2-3.3-4.1-5.7-2.1
			C9,81,11,83.4,11.9,85.4c3.7,8.4,8.1,16.3,14.5,22.9c1.6,1.7,1.6,2.7,0,4.4c-2.1,2.3-3.7,4.9-5.1,7.7c-5.6,10.3-4.8,20.3,4.8,27.8
			c1.3,1,2.1,2,1.7,3.7c-0.3,1.5,0.8,3.1,0,4.9c-3.3-4-7.4-4.8-12.3-3.9C12,153.5,8.5,154.3,5,155z"/>
		<g>
			<path d="M192.7,246.1c-1.7-0.2-3.1,0.4-4.4,0.8c-0.3,0.1-0.5,0.2-0.8,0.3c-7.8,2.7-15.2,6.9-21.8,12.4c-0.3,0.3-0.7,0.6-1,0.9
				c-0.7,0.6-1.3,1.1-1.9,1.6c-1.3,0.9-2,0.7-2.4,0.3c-0.4-0.3-0.6-0.8-0.3-2.1l0.3-1c1-3.5,1.9-7.1,3.1-10.6
				c5.1-15.5,11.4-30.8,17.5-45.6l1.6-3.8c0.1-0.3,0.3-0.6,0.4-0.9c0.6-1.2,1.4-2.8,0.8-5l-0.5-1.9L182,193
				c-0.5,0.6-0.9,1.1-1.3,1.6c-0.9,1.1-1.6,2-2.3,2.9c-5.4,7.4-10.7,15.3-16.2,24.3c-7.6,12.3-14,24.9-18.9,37.5
				c-0.9,2.4-2.1,5.1-3.7,7.7c-3.6,5.7-8.3,11-14.2,16.2c-1.2,1.1-1.9,1.3-2.9,0.8s-1.4-1.3-1.4-2.7c0-0.4,0-0.8,0-1.2
				c0-1.1,0-2.1,0.1-3.1c0.7-7.2,2.4-14.2,5.2-20.9c3.8-9.3,9.3-18.4,16.8-28c0.2-0.3,0.5-0.6,0.7-0.8c0.9-1.1,2-2.3,2.4-4.2
				l0.3-1.1l-1.2-0.1c-0.5,0-0.9-0.1-1.3-0.1c-0.9-0.1-1.6-0.2-2.4-0.2c-2.6,0-5.2,0-7.8,0c-5.3,0-10.7,0-16-0.1
				c-3.2-0.1-5.3,1.1-7,4.2c-1.9,3.3-4,6.6-6.1,9.8c-0.6,1-1.3,1.9-1.9,2.9c-0.7,1.1-1,1.4-1.7,1.3c-0.7-0.1-1.1-0.5-1.2-2v-0.2
				c-0.2-3.3-0.4-6.6-0.4-9.9v-0.2c0-2.7,0-5.7-4.1-6.8c-0.7-0.2-1.4-1-2.1-1.8c-0.2-0.2-0.4-0.5-0.7-0.7
				c-4.2-4.5-8.3-9.4-12.6-15.3c-1.2-1.7-2.7-3.4-4.4-3.2c-1.7,0.2-2.8,2.1-3.6,3.9c-2.5,5.5-5.5,11.8-9.1,17.6
				c-1.7,2.7-1.1,4.9-0.1,6.8c5.2,10.5,9.8,22,14.6,36.4c7.2,21.4,12.3,39.1,16.1,55.5l0.2,0.8H152l0.1-0.9c0.8-9,3.5-18.3,8.4-28.4
				c6.4-13.4,15.7-25.9,29.3-39.4c0.3-0.3,0.6-0.6,0.9-0.9c1-0.9,2.2-1.9,2.8-3.6l0.5-1.2L192.7,246.1z"/>
			<path d="M72.9,318.5c-0.2-0.5-0.3-1-0.4-1.5c-5-22.7-12.5-44.7-22.2-65.3c-10.9-23-24.8-44.4-41.3-63.6c-0.2-0.2-0.4-0.5-0.5-0.7
				c-0.7-0.9-1.6-2.2-3.4-2.3h-1v17.1l0.3,0.3c9.4,8.2,17.1,18.7,24.3,33.1l0.1,0.2c0.8,1.6,0.8,2,0.2,2.5c-0.8,0.6-1.3,0.6-2.7-1.1
				l-1.2-1.4c-4.1-4.8-8.3-9.7-12.9-14.1c-0.4-0.4-0.8-0.8-1.2-1.2c-1.6-1.6-3.2-3.3-5.5-4.2L4,215.8v27.4l0.6,0.3
				c7.2,3.5,12.8,9.1,17.3,14.1c6.7,7.4,12.9,15.9,20.1,27.8c6.6,11,12.9,22.6,18.6,34.6l0.3,0.6h12.7l-0.4-1.3
				C73.1,319,73,318.8,72.9,318.5z"/>
			<path d="M17.5,268.9c-0.5-0.6-1-1.1-1.5-1.7c-3.1-3.6-6.3-7.2-10.5-9.8l-1.5-1v18.8l0.4,0.3c10.4,8.8,18.3,19.7,25.9,30.3
				c2.3,3.2,4.6,6.6,6.8,9.8c1,1.5,2,3,3.1,4.5l0.3,0.4h10.9l-0.7-1.5C40.1,298.3,29.5,282.4,17.5,268.9z"/>
			<path d="M116.8,143c1,2.7,2,5.5,3.1,8.2c0.2,0.4,0.3,0.9,0.5,1.3c0.7,1.9,1.4,3.8,2.9,5.4l0.7,0.7l0.7-0.7c1-1,1.5-2.1,1.9-3
				c0.1-0.3,0.2-0.5,0.3-0.8c8.6-18.4,16-35.3,22.8-51.6c9.2-22.3,16.4-41.3,21.4-61.1c1.8-7.1,3.4-14.8,3.2-23.2v-1.5l-1.4,0.6
				c-1.8,0.8-2.5,2.1-3,3.1c-0.1,0.2-0.2,0.4-0.3,0.6l-2.8,4.6c-7.7,12.8-15.6,26.1-24.5,38.4c-1.4,2-2.4,4.1-3.4,6.2l-0.4,0.8
				c-8.5,18-16,36.7-23.3,54.9l-1,2.5c-1,2.6-1,5.1,0,7.7C115.1,138.4,116,140.7,116.8,143z"/>
			<path d="M164.6,172.5c-8.4,3.5-15.6,8.4-21.6,14.6c-1.8,1.9-3.2,4-0.8,7.1c2,2.7,4,5.5,5.9,8.2c1.6,2.3,3.2,4.6,4.9,6.9
				c1,1.4,1.7,2.3,2.8,2.4h0.1c1,0,1.9-0.9,3-2.1c15.1-15.9,23.7-34.7,25.6-55.7l0.4-4.4l-2.2,3.8c-0.5,0.8-0.9,1.6-1.4,2.4
				c-1,1.7-2,3.4-3.1,5.1C174.2,166.4,169.9,170.2,164.6,172.5z"/>
		</g>
		<path class="st1" d="M158.3,218.6c-1.1-1.4-2.1-2.8-3.1-4c-2-2.6-3.8-4.9-5.5-7.2c-20-26.8-34.5-58.1-44.4-95.7
			c-5.9-22.5-10-47.4-12.4-76.1c-0.4-4.4-0.9-4.9-5.3-4.9c-20.1,0-38.3,0-55.5,0c-2.1,0-3.4,0-4.1,0.9c-0.7,0.8-0.6,2-0.3,4.1
			c2.8,22.6,6.2,42.7,10.5,61.4c6.5,28.5,14.2,51.5,24.2,72.5c8.9,18.6,19.1,34.1,31.1,47.2c2.2,2.4,4.5,3.5,7.4,3.5
			c0.2,0,0.4,0,0.5,0c3.7-0.2,7.4-0.1,11.1-0.1c1.7,0,3.3,0,5,0c9,0,18,0,27.4,0h14.7L158.3,218.6z"/>
		<g>
			<path class="st2" d="M75.7,303.1c-0.1-0.1-0.3-0.1-0.4-0.2c-0.8-0.5-2.2-1.3-3.9-0.1l-0.5,0.3l0.1,0.6c0.3,2.4,0.9,4.7,1.5,6.9
				c0.8,2.9,1.6,5.9,1.6,9v1h17.3l0.2-0.7c0.7-2.4-0.6-4.2-1.7-5.4C85,309.2,80.5,305.6,75.7,303.1z"/>
			<path class="st2" d="M87,309.3l1.9,1.5l-0.2-2.4c-0.9-8.5-12.1-19.2-20.5-19.5h-1.1l0.1,1.1c0.1,1.8,0.7,3.5,1.2,5.1
				c0.2,0.7,0.5,1.4,0.6,2.1c0.4,1.3,1.2,2.2,2.6,2.6C77.2,301.5,81.9,305.1,87,309.3z"/>
			<path class="st2" d="M46.1,210.8l-0.7,2.2c-0.8,2.6-0.6,4.4-0.4,6c0,0.2,0.1,0.5,0.1,0.7c0.7,5.6,0.8,9.9,0.4,13.8
				c-0.6,5.7,2.2,9.9,4.9,13.4l1.7,2.2l0.1-3.2c0.4-10.9,0.8-22.1-5.1-33.1L46.1,210.8z"/>
			<path class="st2" d="M53.6,229.2l0.3,3c0.4,5,0.8,10.9-0.1,16.9c-0.8,5.8,1.4,10.5,4.4,16.1l1.5,2.7l0.4-3
				c2.1-14.9,0.3-28-4.5-33.4L53.6,229.2z"/>
			<path class="st2" d="M141.8,252.6c-1.2-3.4-2.5-6.9-4.6-10.4l-0.8-1.3l-0.9,1.3c-0.3,0.4-0.6,0.8-0.9,1.1
				c-1.2,1.5-2.5,3.1-1.6,5.6c1.1,3,2.2,6,3.4,9.2c0.5,1.4,1.1,2.9,1.6,4.4l0.8,2l1.1-1.9c0.3-0.5,0.6-1.1,0.9-1.5
				c1.3-2.2,2.6-4.3,1.7-6.7L141.8,252.6z"/>
			<path class="st2" d="M59.9,170.4c-2.4-0.5-4.6-1.4-6.8-2.5c-1.6-0.7-3.2-1.5-4.9-2l-3-1l1.9,2.6c3.1,4.1,7.1,6.9,11.8,8.3
				c0.3,0.1,0.6,0.1,0.9,0.1c0.5,0,1.1-0.1,1.5-0.4c0.5-0.3,0.8-0.7,1-1.2c0.2-0.9,0.1-1.8-0.4-2.5C61.4,171,60.7,170.5,59.9,170.4z
				"/>
			<path class="st2" d="M140.7,134.3c0.4,0.2,0.8,0.3,1.1,0.3c0.7,0,1.4-0.3,1.9-1c0.5-0.6,1-1.2,1.5-1.7c1.3-1.5,2.6-3,3.6-5
				l0.7-1.4h-1.6c-5.4-0.1-8.3,1.8-8.7,5.8C139.1,132.7,139.6,133.7,140.7,134.3z"/>
			<path class="st2" d="M146.8,169.2l-1.1,0.9c-3.8,3.1-2.9,6.9-2.2,10.2l0.5,2.1l1.1-0.6c5.1-2.5,5-4.1,2.1-11.3L146.8,169.2z"/>
			<path class="st2" d="M45.4,177.3c-0.3-0.8-0.6-1.6-0.8-2.4c-0.7-2.4-1.5-4.9-3.7-6.8l-1.6-1.3l-0.1,2.1c-0.1,2.8,0.7,5.2,1.4,7.6
				c0.2,0.7,0.4,1.4,0.6,2.1c0.2,0.6,0.6,1.1,1.2,1.4c0.2,0.1,0.5,0.1,0.7,0.1c0.4,0,0.7-0.1,1.1-0.3
				C44.8,179.3,45.7,178.2,45.4,177.3z"/>
		</g>
		<g>
			<path class="st3" d="M26.8,161.5c-1.3-5.2-4.7-7.4-9.7-6.6l-1.2,0.2c-3.7,0.6-7.6,1.3-11.3,2.8L4,158.2v22.6l0.3,0.3
				c2.8,2.4,5.1,5.3,7.5,8.2c2,2.5,4.2,5.1,6.6,7.5l1.1,1.1l0.6-1.4c3.8-9.5,6.1-18.3,7.1-26.8C27.5,166.7,27.4,164,26.8,161.5z"/>
			<path class="st3" d="M72.9,191.7c-2.3-4-4.8-8-7-12.1c-0.9-1.6-2.1-3.1-4.9-2.5c-9.2,1.9-17.4,3.8-25.2,8
				c-2.5,1.3-4.3,2.7-5.7,4.3c-3.7,4.2-3.7,9.1,0.1,13.1c3.3,3.5,7.4,5.1,13.3,5.1c0.4,0,0.9,0,1.3,0c5.6-0.1,21.9-4.9,28.6-8.4
				c1-0.5,1.6-1.1,1.8-1.9c0.3-1-0.2-1.9-0.7-2.6L72.9,191.7z"/>
			<path class="st3" d="M33.5,141.6c-0.1-0.2,0-0.7,0.8-1.6c2.3-2.9,3-6.1,2.3-10.4c-0.8-4.9-2.6-9.6-5.8-15.9l-0.7-1.3l-1,1.1
				c-4.5,4.9-7.2,9.8-8.4,15.2c-1.5,6.6,0.6,12.3,6.2,17l0.2,0.2c1.8,1.5,3.3,2.7,3.2,4.9c-0.3,9.2,6.2,12.7,13.1,16.4l1.2,0.6
				l0.3-1.3c1.2-6.3,1.4-10.9,0.6-15.4c-1.2-6.6-2.9-8.2-9.7-8.8C34.1,142.1,33.6,141.8,33.5,141.6z"/>
			<path class="st3" d="M154,127.9c0-0.5-0.4-0.8-0.7-1c-0.1-0.1-0.2-0.2-0.4-0.3l-0.8-0.6l-0.6,0.7c-0.6,0.8-1.3,1.5-1.9,2.3
				c-1.4,1.6-2.9,3.3-4.2,5.1c-5.2,6.8-10.9,15-13.4,25c-1.7,7.1-1.4,12.6,0.9,17.8l0.4,0.9l0.9-0.4c5.2-2.5,9.1-6.1,11.9-11
				C152.4,155.7,154.8,143.5,154,127.9z"/>
			<path class="st3" d="M39.3,115.4l2,1.2l-1.6-6.7c-1-4.2-1.9-8.1-2.9-11.9c-0.3-1-1-1.9-2-2.5c-4.2-2.3-8.4-4.9-12.5-7.3
				c-1.9-1.2-3.8-2.3-5.7-3.5L14,83.1l1.2,2.9C19.7,96.1,26,107.5,39.3,115.4z"/>
		</g>
		<path d="M5,155c3.5-0.6,7-1.4,10.5-2.1c4.9-1,9-0.1,12.3,3.9c0.9-1.8-0.3-3.3,0-4.9c0.3-1.6-0.5-2.7-1.7-3.7
			c-9.6-7.5-10.3-17.5-4.8-27.8c1.5-2.7,3-5.4,5.1-7.7c1.5-1.7,1.6-2.7,0-4.4c-6.4-6.6-10.9-14.5-14.5-22.9c-0.9-2-2.8-4.4-0.7-6.2
			c2.4-2,4,0.9,5.7,2.1C22.4,85,27.8,88.8,34,92c0.2-4-1-7.2-1.6-10.5c-2.9-15.6-5.4-31.3-7.3-47.1c-0.6-5.1,0.2-6.1,5.3-6.1
			c20.1,0,40.3,0,60.4,0c3.8,0,4.1,0.3,4.4,4.1c1.1,16.5,3.1,32.9,6.1,49.3c2.4,13.6,5.5,27,9.5,40.2c0.4,1.2,0.4,2.6,1.7,3.4
			c1.2-1,1.4-2.5,1.9-3.8c7.6-19.1,15.5-38.2,24.4-56.8c1.3-2.7,3.6-4.6,5.2-7c6.6-9.7,12.7-19.6,18.7-29.7c3-5,5.9-10.1,8.9-15.1
			c0.6-1.1,1.1-2.6,2.7-2.3c1.6,0.3,1.8,1.7,2,3c1,5.8,0.5,11.7-0.5,17.4c-2.9,17-8.7,33.3-14.6,49.4c-4.9,13.2-10.4,26.3-16,39.2
			c-0.3,0.7-0.6,1.5-1,2.7c3.5,0.1,6.6,1.7,9.5-1.5c1.6-1.8,3.1-0.8,3.1,2c0,4.9,0.1,9.8-0.2,14.6c-0.6,8.3-1.9,16.5-5.2,24.2
			c-1.9,4.3-0.7,8.6-0.2,13c0.2,1.6,1.3,1.5,2.5,0.9c5-2.7,10.1-5.2,15-8.1c2.8-1.6,4.8-4.3,6.7-7c3.4-5,5.9-10.4,8-16.1
			c0.3-0.8,0.6-1.5,0.8-2.3c0.4-1.1,0.9-2.3,2.3-2.1c1.7,0.2,1.8,1.7,1.8,3c0,7.5-1,14.9-2.6,22.2c-4,17.5-12.4,32.7-24.7,45.7
			c-3.2,3.4-3.1,3.4,0.4,6.6c1.5-0.8,2.1-2.4,2.9-3.8c7.2-11.2,15.2-21.9,23.6-32.2c1.1-1.3,2-3.7,4.1-2.4s0.5,3.2-0.2,4.7
			c-9.2,21.5-18.5,42.9-25.9,65.1c-0.9,2.7-2.3,5.3-2.1,8.4c1.8-0.3,2.8-1.4,3.9-2.3c8.6-6.3,18.3-10.5,28.7-12.8
			c0.9-0.2,1.9-0.4,2.9-0.5c0.8-0.1,1.6,0.1,2.1,0.9c0.4,0.8,0.1,1.6-0.5,2.2c-0.8,0.8-1.7,1.5-2.5,2.3
			c-11.5,10.4-21.9,21.7-30.1,34.9c-6.1,9.9-10.7,20.4-13,31.8c-0.4,1.9-1,3.8-0.3,5.7c-1.3,0-2.6,0-3.9,0
			c0.9-10.2,4.1-19.7,8.5-28.8c7.3-15.1,17.7-27.9,29.5-39.7c1.2-1.2,2.8-2.2,3.5-4.1c-1.7-0.2-3.2,0.5-4.7,1.1
			c-7.9,2.8-15,6.9-21.5,12.2c-1,0.8-1.9,1.7-3,2.5s-2.4,1.2-3.6,0.3c-1.1-0.8-0.9-2-0.7-3.1c1.1-3.9,2.1-7.8,3.4-11.7
			c5.5-16.8,12.4-33.1,19.1-49.5c0.6-1.5,1.8-2.9,1.2-5.2c-1.4,1.8-2.5,3.1-3.6,4.5c-5.7,7.9-11.1,16-16.2,24.3
			c-7.4,11.9-13.7,24.3-18.8,37.3c-1.1,2.7-2.2,5.4-3.8,7.8c-4,6.2-8.9,11.6-14.4,16.4c-1.1,1-2.3,1.8-3.9,1c-1.6-0.7-2-2-1.9-3.6
			c0-1.5,0-2.9,0.2-4.4c0.7-7.3,2.5-14.4,5.2-21.2c4.2-10.3,10.1-19.6,17-28.3c1-1.3,2.4-2.5,3-4.6c-1.4-0.1-2.5-0.3-3.6-0.3
			c-8,0-15.9,0.1-23.9-0.1c-3-0.1-4.7,1.1-6.1,3.7c-2.5,4.4-5.3,8.6-8,12.8c-0.6,0.9-1.3,2-2.7,1.7c-1.6-0.3-1.9-1.7-2-3
			c-0.2-3.4-0.5-6.8-0.5-10.2c0-2.7,0.1-5.1-3.4-6c-1.3-0.3-2.3-1.8-3.3-2.8c-4.6-4.8-8.8-10-12.7-15.4c-2.8-3.9-4.4-3.8-6.4,0.6
			c-2.8,6.1-5.7,12.1-9.2,17.7c-1.3,2.1-1.1,3.7-0.1,5.8c5.8,11.8,10.5,24.1,14.7,36.6c6.1,18.3,11.8,36.8,16.1,55.6
			c-1.3,0-2.6,0-3.9,0c0.5-1.8-0.4-3.2-1.5-4.4c-4.1-4.4-8.6-8.4-13.9-11.2c-0.9-0.5-1.8-1.4-3.3-0.4c0.6,5.4,3.1,10.5,3.1,16
			c-1,0-1.9,0-2.9,0c-0.2-0.8-0.5-1.5-0.7-2.3c-4.9-22.5-12.3-44.3-22.2-65.1c-10.9-23-24.6-44.1-41.2-63.3c-0.9-1-1.5-2.6-3.2-2.6
			c0-1.9,0-3.9,0-5.8c5.2,4.6,8.9,10.6,14.1,15.8c3.5-8.9,6-17.5,7.1-26.5c0.3-2.6,0.3-5.2-0.4-7.7c-1.2-4.6-4-6.6-8.5-5.8
			c-4.1,0.7-8.3,1.3-12.3,2.9C5,157.6,5,156.3,5,155z M157.5,219.2c-3.3-4.3-6-7.7-8.6-11.2c-21.5-28.9-35.4-61.4-44.5-96
			c-6.6-25-10.3-50.5-12.5-76.2c-0.3-3.9-0.4-4-4.3-4c-18.5,0-37,0-55.5,0c-3.9,0-3.9,0.1-3.5,3.8c2.5,20.6,5.8,41.1,10.5,61.3
			c5.7,24.9,13.1,49.2,24.1,72.3c8.1,17.1,18.1,33,31,46.9c2,2.2,4.1,3.3,7.2,3.1c5.3-0.2,10.7,0,16.1,0
			C130.4,219.2,143.4,219.2,157.5,219.2z M173.4,18.4c-1.9,0.9-2.2,2.2-2.9,3.3c-8.7,14.6-17.3,29.3-27.3,43.1
			c-1.5,2.1-2.6,4.5-3.7,6.8c-8.9,18.7-16.6,38-24.3,57.3c-1,2.5-0.9,4.6,0,7c1.9,5,3.7,10,5.7,15c0.9,2.2,1.5,4.6,3.2,6.5
			c1.1-1.1,1.5-2.3,2-3.5c8-17,15.6-34.2,22.8-51.5c8.2-19.9,16.1-40,21.3-61C172,33.9,173.6,26.4,173.4,18.4z M44.8,206.5
			c5.3-0.1,21.4-4.8,28.2-8.3c2.1-1.1,1.3-2.1,0.5-3.4c-2.9-4.9-5.8-9.8-8.6-14.7c-0.9-1.6-1.8-2.4-3.8-2
			c-8.6,1.8-17.1,3.7-24.9,7.9c-2,1.1-3.9,2.3-5.4,4.1c-3.4,3.8-3.3,8.1,0.1,11.7C34.3,205.2,38.4,206.7,44.8,206.5z M183.4,153.7
			c-1.5,2.5-2.9,5.1-4.5,7.5c-3.5,5.3-7.8,9.6-14,12.2c-7.9,3.3-15.2,8-21.2,14.3c-1.8,1.9-2.5,3.4-0.7,5.8
			c3.7,4.9,7.1,10.1,10.7,15c1.9,2.6,2.1,2.6,4.4,0.2C172.7,193.3,181.5,175.1,183.4,153.7z M83.7,294.4c0-1.3,0.1-1.8,0-2.2
			c-6.3-21.5-13-42.8-23-62.9c-1.9-3.9-1.8-6.7,0.6-10.2c3.1-4.6,5.5-9.6,8.1-15.7c-7.5,2.9-14.1,4.8-21.4,6.4
			c4.3,5.7,5.1,12.6,9.3,17.9c2.2,2.7,3.2,6.3,4.2,9.8c2.6,9.4,2.9,19,1,28.4c-1.4,6.5,1.4,11.7,3.3,17.3c0.3,1,1.1,1.5,2.1,1.9
			C73.5,286.9,78.5,290.2,83.7,294.4z M29.8,114.2c-4.2,4.6-6.9,9.3-8.2,14.8c-1.5,6.5,0.8,11.8,5.8,16c1.9,1.6,3.9,3.1,3.8,5.9
			c-0.3,8.6,5.8,11.9,12.5,15.4c1.1-5.4,1.5-10.2,0.6-15c-1.1-6.2-2.5-7.4-8.9-8c-3.1-0.3-3.9-1.6-2-3.9c2.3-3,2.6-6.1,2.1-9.6
			C34.7,124.4,32.6,119.5,29.8,114.2z M152.3,127.3c-2,2.4-4.2,4.8-6.1,7.3c-5.8,7.5-10.9,15.3-13.2,24.7
			c-1.4,5.7-1.7,11.4,0.8,17.2c5.1-2.5,8.8-6,11.5-10.6c6.8-11.8,8.4-24.6,7.7-37.9C153,127.8,152.8,127.7,152.3,127.3z M42.8,230.6
			c0.8-5.8-0.5-11.3-0.7-16.9c-0.1-2.8-1.3-4-4.1-4.3c-3.3-0.4-6-2.3-8.5-4.4c-6-5-6.3-12.2-0.8-17.8c1-1,2.3-1.8,3.3-2.8
			c2.1-1.9,6.4-1.7,6.7-4.8c0.3-2.7-1.4-5.6-2.3-8.3c-0.2-0.6-0.4-1.2-0.5-1.9c-0.6-4.1-3.3-6.7-6.8-9.6c0.9,6.9,0.3,13.2-1.2,19.3
			c-1.4,5.7-2.9,11.3-5.1,16.7c-1.1,2.7-0.9,4.7,0.9,7c6,7.8,11.4,16.1,16.4,24.6C40.9,228.6,41.2,229.9,42.8,230.6z M35.6,116.5
			c-0.1,0.4-0.3,0.7-0.2,0.9c2.5,6.7,5.3,13.3,3,20.7c-0.4,1.3,0.7,1.6,1.6,1.9c5.1,1.5,7,5.5,7.7,10.2c0.4,2.7,0.4,5.5,0.5,8.2
			c0.1,1.3-0.2,2.7,1,3.6c2.4,2,5,3.8,8.1,4.7c0.7-1.9-0.3-3-0.8-4.1C51,149.9,46.3,137,42.7,123.7
			C41.6,119.8,39.6,117.4,35.6,116.5z M39.8,114.5c-1.5-6.1-2.7-11.2-4-16.3c-0.2-0.8-0.8-1.4-1.5-1.8c-6.2-3.4-12.1-7.2-18.2-10.8
			C21.2,97.1,27.7,107.4,39.8,114.5z M144.1,250.7c4.3-9.6,9-18.5,14.1-27.3c-6.2-1.4-6.8-1.3-10.1,2.6c-0.9,1.1-1.9,2.2-2.8,3.4
			c-8.3,11.3-7.3,6.8-2.4,19.5C143.2,249.3,143.5,249.7,144.1,250.7z M123.6,281.3c5.3-4.5,9.1-8.7,12.4-13.5
			c0.5-0.7,0.8-1.5,0.5-2.3c-1.8-4.3-2.9-8.9-5.6-13.6C126.6,261.4,123.8,270.4,123.6,281.3z M87.6,308.5
			c-0.8-8.1-11.9-18.4-19.5-18.6c0.2,2.4,1.2,4.7,1.8,6.9c0.3,1.1,1,1.6,1.9,1.9C77.7,300.6,82.4,304.2,87.6,308.5z M51.3,246.4
			c0.4-11.1,0.9-22.1-5-33c-0.9,2.8-0.4,4.5-0.2,6.3c0.6,4.7,0.9,9.4,0.4,14C46,238.8,48.4,242.6,51.3,246.4z M59.1,264.8
			c2-14.7,0.3-27.5-4.3-32.6c0.5,5.8,0.7,11.5-0.1,17.1C54,254.9,56.2,259.4,59.1,264.8z M136.3,242.7c-1.5,2-3.2,3.4-2.4,5.8
			c1.5,4.3,3.2,8.6,5,13.6c1.6-2.9,3.4-5,2.5-7.4C140,250.7,138.7,246.7,136.3,242.7z M102.2,233.1c0.4,0,0.7,0.1,1.1,0.1
			c2.2-3.2,4.7-6.3,6-10.4c-1.2-0.1-2-0.3-2.8-0.3c-4.3-0.1-4.3,0-4.3,4.2C102.2,228.9,102.2,231,102.2,233.1z M47.8,166.8
			c2.9,3.9,6.6,6.6,11.3,7.9c0.7,0.2,1.9,0,2.1-0.8c0.3-1.2-0.3-2.4-1.6-2.6C55.5,170.6,52,168.2,47.8,166.8z M140.1,177.2
			c-6.7,3-4.9,3.2-2.6,7.4c0.5,0.9,0.8,2.6,2.2,2s2.2-1.8,1.8-3.5C141.2,181.2,140.7,179.3,140.1,177.2z M147.9,126.5
			c-4.9-0.1-7.4,1.5-7.7,4.9c-0.1,0.9,0.2,1.5,1,2c0.7,0.4,1.3,0.1,1.7-0.4C144.6,131,146.6,129.1,147.9,126.5z M144.8,180.9
			c4.3-2.1,4.4-2.9,1.6-10.1C142.8,173.8,144,177.3,144.8,180.9z M40.2,168.8c-0.1,3.4,1.2,6.3,2,9.3c0.2,0.7,0.9,1,1.5,0.6
			c0.3-0.2,0.8-0.9,0.7-1.1C43.2,174.6,43,171.2,40.2,168.8z"/>
		<path class="st0" d="M36.2,319.6c-10.4,0-20.8,0-31.2,0c0-13.3,0-26.6,0-39.9c0.5,0.4,1.1,0.7,1.6,1.1
			c11.4,11.4,20.6,24.5,29.5,37.9C36.2,318.9,36.1,319.2,36.2,319.6z"/>
		<path class="st0" d="M5,253.3c0-2.3,0-4.5,0-6.8c8.3,4.7,14.7,11.6,20.4,19c13,16.7,23.1,35,32.2,54c-1.3,0-2.6,0-3.9,0
			c-6.7-13.3-14.2-26.1-23-38.1C23.2,271.1,15.1,261.3,5,253.3z"/>
		<path d="M57.6,319.6c-9.1-19-19.2-37.3-32.2-54c-5.8-7.4-12.1-14.3-20.4-19c0-1.3,0-2.6,0-3.9c7,3.4,12.5,8.6,17.7,14.3
			c7.8,8.6,14.2,18.1,20.2,28c6.8,11.2,13,22.8,18.7,34.7C60.2,319.6,58.9,319.6,57.6,319.6z"/>
		<path d="M5,253.3c10.1,8,18.2,17.8,25.7,28.1c8.8,12,16.2,24.9,23,38.1c-1.3,0-2.6,0-3.9,0c-9.2-17.9-19.6-34.9-33-50
			c-3.6-4.1-7-8.4-11.8-11.3C5,256.6,5,255,5,253.3z"/>
		<path d="M5,201.7c10.7,9.3,18.3,20.9,24.5,33.4c0.7,1.3,1.5,2.8,0,3.9c-1.7,1.3-3,0.1-4.1-1.2c-4.5-5.3-9-10.6-14-15.4
			c-2-1.9-3.7-4.1-6.3-5.1c0-1.3,0-2.6,0-3.9c3.2,0.6,5.1,3.3,7.3,5.2c2,1.7,3.8,3.6,5.7,5.5c0.3-0.3,0.6-0.5,0.9-0.8
			c-4-6.1-8.3-12-13.9-16.8C5,205,5,203.3,5,201.7z"/>
		<path d="M5,274.8c10.3,8.7,18.2,19.6,26.1,30.5c3.4,4.7,6.6,9.6,9.9,14.3c-1.6,0-3.2,0-4.9,0c0-0.3,0.1-0.7-0.1-0.9
			c-8.9-13.4-18.1-26.5-29.5-37.9c-0.4-0.4-1-0.7-1.6-1.1C5,278,5,276.4,5,274.8z"/>
		<path class="st0" d="M5,206.6c5.6,4.8,9.9,10.7,13.9,16.8c-0.3,0.3-0.6,0.5-0.9,0.8c-1.9-1.8-3.7-3.8-5.7-5.5
			c-2.3-2-4.1-4.6-7.3-5.2C5,211.1,5,208.9,5,206.6z"/>
		<path class="st0" d="M83.7,294.4c-5.2-4.2-10.2-7.5-16-9.4c-1-0.3-1.8-0.9-2.1-1.9c-1.8-5.6-4.6-10.8-3.3-17.3
			c2-9.4,1.6-19-1-28.4c-1-3.5-1.9-7-4.2-9.8c-4.3-5.3-5-12.2-9.3-17.9c7.3-1.6,14-3.5,21.4-6.4c-2.5,6.1-4.9,11.2-8.1,15.7
			c-2.4,3.5-2.5,6.3-0.6,10.2c10,20.1,16.6,41.5,23,62.9C83.8,292.6,83.7,293.1,83.7,294.4z"/>
		<path class="st0" d="M42.8,230.6c-1.7-0.7-2-2.1-2.6-3.1c-5-8.5-10.4-16.8-16.4-24.6c-1.8-2.4-2-4.3-0.9-7
			c2.2-5.4,3.8-11,5.1-16.7c1.5-6.2,2.1-12.4,1.2-19.3c3.5,2.8,6.2,5.4,6.8,9.6c0.1,0.6,0.3,1.3,0.5,1.9c0.8,2.8,2.6,5.7,2.3,8.3
			c-0.4,3.1-4.6,2.9-6.7,4.8c-1.1,1-2.3,1.8-3.3,2.8c-5.5,5.6-5.2,12.8,0.8,17.8c2.5,2.1,5.2,4,8.5,4.4c2.8,0.3,4,1.5,4.1,4.3
			C42.4,219.3,43.7,224.8,42.8,230.6z"/>
		<path class="st0" d="M35.6,116.5c4,0.9,6,3.2,7.1,7.3c3.6,13.3,8.3,26.3,13.8,38.9c0.5,1.1,1.5,2.2,0.8,4.1
			c-3.1-0.9-5.7-2.7-8.1-4.7c-1.2-0.9-0.9-2.3-1-3.6c-0.1-2.8-0.1-5.5-0.5-8.2c-0.7-4.7-2.5-8.7-7.7-10.2c-0.9-0.3-2-0.6-1.6-1.9
			c2.3-7.4-0.5-14-3-20.7C35.3,117.3,35.5,116.9,35.6,116.5z"/>
		<path class="st0" d="M144.1,250.7c-0.6-1-1-1.3-1.1-1.7c-4.9-12.7-5.9-8.3,2.4-19.5c0.9-1.2,1.8-2.3,2.8-3.4
			c3.3-3.9,3.9-4.1,10.1-2.6C153.1,232.2,148.5,241.1,144.1,250.7z"/>
		<path class="st0" d="M123.6,281.3c0.2-10.9,2.9-19.9,7.4-29.4c2.6,4.7,3.8,9.3,5.6,13.6c0.3,0.8,0,1.6-0.5,2.3
			C132.8,272.5,129,276.8,123.6,281.3z"/>
		<path class="st0" d="M102.2,233.1c0-2.1,0-4.2,0-6.3c0-4.3,0-4.3,4.3-4.2c0.8,0,1.6,0.2,2.8,0.3c-1.3,4.1-3.8,7.1-6,10.4
			C103,233.2,102.6,233.2,102.2,233.1z"/>
		<path class="st0" d="M140.1,177.2c0.5,2.1,1,4,1.5,5.9c0.4,1.7-0.4,3-1.8,3.5c-1.5,0.6-1.8-1.1-2.2-2
			C135.2,180.3,133.5,180.2,140.1,177.2z"/>
		<g>
			
				<linearGradient id="SVGID_1_" gradientUnits="userSpaceOnUse" x1="105" y1="454" x2="105" y2="778" gradientTransform="matrix(1 0 0 1 0 -454)">
				<stop  offset="0" style="stop-color:#EB1A21"/>
				<stop  offset="1" style="stop-color:#A51A21"/>
			</linearGradient>
			<path class="st4" d="M210,324c-70,0-140,0-210,0C0,216,0,108,0,0c70,0,140,0,210,0C210,108,210,216,210,324z M199.9,162.6
				c0-46.5-0.2-87.6-0.2-134.1c0-9.4-3.5-18.1-13-18.1c-50.8,0-101-0.4-151.8-0.4c-4,0-8.3,0.5-12.3,0.7
				c-5.9,0.2-11.3,6.1-11.3,11.7c0,93.3-0.4,182.4-0.4,275.8c0,1.5,0.2,1.6,0.3,3.1c0.7,6.6,5,12.6,11.3,12.6
				c55.5,0,107.4,0.2,162.9,0.3c1.9,0,3.6-0.7,5.3-1.7c5.5-3,9.5-6,9.5-12.1C200.1,254,199.9,208.9,199.9,162.6z"/>
			<path d="M200.8,161.4c0.1-9.1,0-18.3,0.1-27.6c0.2-36.3,0.1-72.7,0-109c0-9.1-6.8-15.3-16-15.3c-52.8,0-105.7,0-158.5,0
				c-9.4,0-15.6,6.2-15.6,15.8c0,38.4,0.2,76.7,0.1,115.1c0,29.5-0.4,58.9-0.5,88.4c-0.1,23.5-0.1,47-0.1,70.4
				c0,8,6.5,15.3,13.7,15.3c54.3,0.1,108.6,0,162.9,0c2.2,0,4-0.5,5.9-1.8c5.1-3.5,8.1-7.9,8-14.4
				C200.7,252.7,200.8,207.1,200.8,161.4z M186.5,310.2c-3,0-3.7,0-3.7,0s-103.1,0-154.7,0c-8.3,0-13.1-4.5-13-14.9
				c0-22.8,0-45.6,0.1-68.4c0.1-28.6,0.5-57.2,0.5-85.9c0.1-37.3-0.2-75.1-0.1-112.3c0-7.9,2.5-14.8,12.6-14.8
				c50.2,0,105.1,0.2,155.3,0.2c8.7,0,13,5.3,12.6,14.1c0,35.2,0,106.5,0,106.5v27c0,0,0,91.6,0.1,135.9
				C196,304.4,191.2,309.6,186.5,310.2z"/>
		</g>
	</g>
	<g>
		<g>
			<path class="st0" d="M43.5,306c-3.9,0-7.5-0.8-10.8-2.5c-3.3-1.7-6-4.2-7.8-7.5c-1.9-3.1-3.1-6.9-3.6-11.1v-0.2v-3.3h3.1h14.1v3
				c0.2,1.6,0.8,2.8,1.6,3.6c0.8,0.8,2,1.3,3.5,1.3c2.2,0,3.1-0.8,3.6-1.4c0.9-1.1,1.4-3,1.4-5.3v-5.6c0-2.4-0.5-4.2-1.4-5.3
				c-0.5-0.6-1.4-1.4-3.3-1.4c-1.1,0-2,0.3-3,0.8c-0.9,0.6-1.6,1.4-2.2,2.7l-0.8,1.7H22.6v-43.1h41.3v16.8h-24v5
				c1.7-0.6,3.6-0.8,5.3-0.8c4.2,0,7.8,0.9,11,2.8c3.1,1.9,5.5,4.7,7.2,8.3c1.6,3.5,2.4,7.7,2.4,12.4v5.6c0,4.9-0.9,8.9-2.7,12.4
				c-1.7,3.6-4.4,6.4-7.8,8.3C52.1,305.1,48.1,306,43.5,306z"/>
			<path d="M60.8,235.4v10.5h-24v13.5c1.1-0.9,2.4-1.7,3.9-2.2c1.6-0.5,3.1-0.8,4.7-0.8c3.6,0,6.7,0.8,9.4,2.4
				c2.7,1.6,4.5,3.9,6,7.1c1.4,3.1,2,6.7,2,11.1v5.6c0,4.4-0.8,8-2.4,11.1c-1.6,3.1-3.8,5.3-6.6,7.1c-2.8,1.6-6.3,2.4-10.4,2.4
				c-3.5,0-6.6-0.8-9.3-2.2c-2.7-1.4-5-3.6-6.6-6.3c-1.7-2.8-2.7-6.1-3.1-9.9l0,0h11l0,0c0.3,2.5,1.1,4.4,2.5,5.6
				c1.4,1.4,3.3,2,5.6,2c2.7,0,4.5-0.8,6.1-2.5c1.4-1.7,2.2-4.1,2.2-7.4V277c0-3.1-0.6-5.5-2-7.2c-1.4-1.7-3.3-2.5-5.8-2.5
				c-1.7,0-3.3,0.5-4.7,1.4c-1.4,0.9-2.5,2.2-3.3,3.9H25.8v-36.9h35 M67,229.1h-6.3h-35h-6.3v6.3v36.9v6h-1.4v6.3v0.3v0.5
				c0.5,4.7,1.9,8.9,4.1,12.4c2.4,3.8,5.3,6.6,9.1,8.6c3.6,1.9,7.7,2.8,12.2,2.8c5.2,0,9.6-1.1,13.5-3.1c3.9-2.2,7.1-5.5,9.1-9.7
				c1.9-3.9,3-8.6,3-13.8v-5.6c0-5.2-0.9-9.7-2.5-13.6c-1.9-4.2-4.7-7.5-8.5-9.7c-0.8-0.5-1.4-0.8-2.2-1.3h5h6.3v-6.3v-10.5v-6.3H67
				z M40.1,278.2l1.6-3.3c0.5-0.8,0.8-1.1,1.1-1.4c0.3-0.3,0.8-0.3,1.3-0.3c0.6,0,0.8,0.2,0.8,0.2c0.2,0.2,0.6,1.1,0.6,3.3v5.6
				c0,2.4-0.5,3.1-0.6,3.3c0,0.2-0.3,0.3-1.3,0.3c-0.9,0-1.3-0.3-1.4-0.3c-0.3-0.3-0.5-1.1-0.6-1.6v-5.8H40.1L40.1,278.2z"/>
		</g>
	</g>
</g>
</svg>
