<?xml version="1.0" encoding="utf-8"?>
<!-- Generator: Adobe Illustrator 22.0.1, SVG Export Plug-In . SVG Version: 6.00 Build 0)  -->
<svg version="1.1" id="레이어_2_1_" xmlns="http://www.w3.org/2000/svg" xmlns:xlink="http://www.w3.org/1999/xlink" x="0px"
	 y="0px" viewBox="0 0 210 324" style="enable-background:new 0 0 210 324;" xml:space="preserve">
<style type="text/css">
	.st0{fill:#FFFFFF;}
	.st1{fill:#FFC40A;}
	.st2{fill:#EB1A21;}
	.st3{fill:url(#SVGID_1_);}
</style>
<g>
	<g>
		<path class="st0" d="M205.3,217.1c0,31.6,0,63.1,0,94.7c-1.9-0.2-3.2-1.4-4.8-2.3c-4.2-2.2-8.6-2.8-13.2-2
			c-3.9,0.6-7.6,1.9-10.7,4.4c-1.6,1.4-2.9,1.8-4.1-0.6c-2.5-4.9-6.8-6.9-12.1-6.5c-2.5,0.2-3.7-0.7-4.8-3
			c-4.3-8.8-12.2-11.5-20.6-6.9c-2.1,1.1-3.3,1-5.1-0.6c-3.5-3.3-7.8-4.6-12.5-4.3c-2.1,0.1-4.2,0.3-6.3,0.4c-1.3,0.1-2.6,0.4-3.4-1
			c-1.8-3.3-4.9-4.7-8.3-5.5c-1.5-0.4-2.6-1.3-3.7-2.3c-8-7.2-12.8-7.8-21.9-2.7c-2,1.2-3.4,1.3-5.1-0.4c-3.4-3.6-7.4-6.3-11.7-8.7
			c-1.9-1-2.7-2.5-3.1-4.6c-2-9.3-6.3-13.2-15.5-14.1c-2.8-0.3-4.8-1.2-6.7-3.3c-5.2-5.6-11.9-7.7-19.4-7.3
			c-3.9,0.2-7.7,1.1-11.4,2.2C1,161.9,1,81.1,1,0.1c68.1,0,136.2,0,204.3,0c0,5.8,0,11.7,0,17.6c-7.9-0.4-14.5,3.5-21.6,7.9
			c0-5.6-0.9-10.1-2.5-14.4c-0.8-2.1-1.8-3.4-4.3-2.9c-9.1,1.6-17.7,4.1-24.6,10.8c-0.9,0.9-1.6,2.2-3.4,1.8
			c-1.2-5.7-3.2-11.2-6.4-16.3c-1.6-2.6-2.2-2.7-4.3-0.5c-2.5,2.6-5,5.2-7.3,7.9c-8.5,10-15.5,20.8-15.3,34.7c0,2.2-1.2,3.5-3.2,3.6
			c-2.3,0.1-1.5-2-1.8-3.3c-0.1-0.5-0.1-1-0.1-1.5c-1.1-13.2-6.5-24.3-15.6-33.6c-2.6-2.6-3.1-2.6-5,0.6c-2.5,4.3-4.4,8.8-5.2,13.7
			c-0.6,3.8-0.9,3.9-4.4,2.3C69.4,23.4,57.8,21.4,46,20c-4.7-0.5-5.6,0.1-5.7,4.9c-0.2,10.5,0.4,21,3.2,31.3c1,3.7,0.8,3.9-3,4
			c-3.4,0-6.8,0.1-9.9,1.8c-1.2,0.6-2.3,1.4-2.2,2.9c0.1,1.4,1.2,1.9,2.3,2.2c10.3,3.7,17.5,11,23.5,19.5
			c5.3,7.3,11.7,11.6,20.9,11.3c1.2,0,2.8-0.7,3.4,1c0.5,1.4-0.4,2.5-1.3,3.5c-2.4,2.6-4.4,5.4-4.9,8.9c-0.5,2.7-2,3-4.2,2.3
			c-3.4-1-6.8-0.4-10.1,0.4c-7.9,2.1-14.9,6.4-21.7,10.9c-2,1.4-2.2,2.9-1.1,5c1.7,3,3.6,5.9,6.2,8.2c2,1.8,1.5,2.9-0.6,4
			c-1.9,1-3.7,2.1-5.4,3.3c-3.6,2.6-6.8,5.7-8.5,9.9c-0.7,1.8-2.2,3.8-0.8,5.5c1.4,1.8,3.3,0,4.9-0.4c5.4-1.4,10.4-1.4,15.1,2.5
			c3,2.5,6.8,3.9,10.6,4.7c2.1,0.4,4.2,0.6,6.2,1c1.8,0.3,4.2-0.8,5.1,1.6c0.5,1.3,0,3.1-1,4.2c-1.6,1.7-3.3-0.2-4.9-0.5
			c-1.3-0.2-2.5-0.8-3.7-1c-0.9-0.2-2-0.4-2.3,1.3c1.4,1.5,3.4,1.6,5.2,2.1c3.4,1.1,6.2,2.3,6.4,6.8c0.1,2.4,1.8,3.6,4.1,1.8
			c2.1-1.6,3.5-0.7,5,0.8c5,5.1,8,11.1,9,18.1c0.1,0.9,0.5,2-1,2.8c-4.1-6.4-9.9-11-16.8-14.2c-6.8-3.2-14.1-5-21.5-6.2
			c-4-0.6-5,0.1-5.2,4.2c-0.3,5.4,0.2,10.9,1,16.2c0.4,2.8,0,5.1-1.2,7.6c-2.4,5.2-4.3,10.6-4.2,16.6c0.1,6.7,3.2,11.1,9.4,13.4
			c3.1,1.1,6.3,1.4,9.6,1.6c3.7,0.2,6.3,1.7,8.2,5.1c5.4,9.6,12.8,12,22,6.4c5.9-3.6,11.6-7.1,18.8-6.3c0.4,0.1,0.9-0.3,1.4-0.4
			c8.3-1.8,16.2-4.6,23.9-8.1c4.1-1.9,4.1-1.8,1.4-5.7c-0.5-0.7-1-1.3-0.4-2.2c8.7-0.8,19.6,4.1,23.6,10.6
			c-16.7,5.3-17.1,5.5-26.2,13.7c-5,4.5-7.2,4.6-12.9,0.9c-2.8-1.9-4.2-1.3-4.2,2.2c-0.1,8.3,2.3,17,13.9,18.7
			c2.4,0.3,4.2,0.9,5.6,3.2c1.7,2.8,4.5,4.5,7.7,4.4c4.4-0.1,8.1,1.7,11.8,3.6c5.3,2.7,10.8,3,15.7-0.7c4.1-3.1,8.2-4.5,13.4-4.4
			c6.5,0.1,10.4-3.2,12.5-9.6c0.5-1.4,0.6-2.9,1.8-4c3.5-3,3-6.3,0.7-9.6c-1.3-1.9-1-3.1,0.6-4.6c3.5-3,5.2-7.1,5.9-11.6
			c1.2-7.8,0.2-15.4-1.5-23c-0.7-3.1-1.4-3.5-4.5-2.3c-4.7,1.7-9.4,3.6-14,5.6c-7.8,3.5-15.1,7.5-20.1,14.9c-0.1,0.1-0.6,0-0.9-0.1
			c-1-1.5-0.5-3.2-0.3-4.8c0.9-7.1,4-13.1,8.1-18.7c3.1-4.1,3.5-4.1,6.4,0.4c0.4,0.7,0.8,1.4,1.3,2.1c0.4,0.5,0.9,1,1.6,0.9
			c0.9-0.2,1.2-0.9,1.3-1.8c0.3-2.1,0.5-4.2,0.9-6.3c0.9-4.1,2-4.8,6.1-4.5c1.4,0.1,3,1.5,4.5-0.4c-1.6-2-3.8-2-5.8-2.3
			c-1.4-0.2-2.7-0.5-2.1-2.4c0.9-2.8,1.7-5.6,4.4-8.2C190.9,205.7,196.6,212.9,205.3,217.1z"/>
		<g>
			<path class="st1" d="M62.9,218.7c-2.5-1-4.8-1.9-6.6-3.7c-1.1-1.2-2.7-0.6-3.3-0.4c-1.2,0.4-2.5,0.8-3.7,1.2l-2.5,0.8l0.3,1
				c1.9,5.9,5.1,10.1,9.6,12.5c1.4,0.8,2.6,1.3,3.7,1.3c0.3,0,0.6,0,0.9-0.1c1.2-0.4,2-1.6,3.1-3.7c0.3-0.5,0.6-1.1,0.9-1.6
				c0.8-1.3,1.6-2.7,2-4.5l0.1-0.7l-0.7-0.3C65.4,219.7,64.1,219.2,62.9,218.7z"/>
			<path class="st1" d="M99.3,248.7c-0.5-4.2-1.7-8.7-7.5-9.6c-1.5-0.2-2.8-1.5-4.2-2.9c-0.3-0.3-0.5-0.7-0.8-1.2
				c-0.6-1.1-1.3-2.6-3.1-2.5c-1.8,0.1-2.6,1.6-3.2,2.7c-0.3,0.5-0.6,1.1-0.9,1.4c-0.2,0.3-0.4,0.5-0.6,0.8
				c-0.1,0.1-0.2,0.3-0.3,0.4c-1.5,1.7-1.4,3.6,0.3,5.2c4.7,4.6,10.4,6.8,17.8,6.8c0.5,0,1,0,1.5,0h1.1L99.3,248.7z"/>
		</g>
		<g>
			<path class="st1" d="M159.1,252.8c0-2.1-0.1-3.4-0.9-4.2c-0.9-0.9-2.4-1-4.3-1c-3.2,0-6.5,0.8-9.8,2.3
				c-5.9,2.6-10.9,6.2-14.8,10.8c-2.8,3.2-5.9,4-10.8,2.7c-0.2-0.1-0.5-0.2-0.8-0.3c-0.7-0.4-1.7-0.8-3-0.4l-0.5,0.2l-0.1,0.6
				c-0.8,3.9-0.2,7.4,1.8,10.2c2,2.8,5.1,4.7,9,5.3c3.6,0.6,6.1,1.2,8,4.5c1.4,2.4,3.9,3.6,6.9,3.6c1.1,0,2.2-0.1,3.4-0.5
				c3.7-0.9,4.2-4.2,4.7-6.8l0.1-0.6c0.1-0.4,0.1-0.8,0.1-1.2c0-1.8,0.6-2.4,2.7-2.6c3.4-0.4,5.8-1.6,7.4-3.5c1.6-2,2.1-4.8,1.6-8.4
				C159.3,260.1,159.1,256.6,159.1,252.8z"/>
			<path class="st1" d="M130.4,239.6c0.3-1.1-0.4-2.2-1.1-3c-6.4-8.2-14.5-17.3-25.8-22.6c-3.3-1.6-6.9-2.5-10.6-2.9
				c-2.6-0.3-4.2,0.8-4.7,3.1c-0.9,3.6-1.9,7.2-2.8,10.8l-0.5,2c-0.3,1.1,0,2.1,0.2,3l0.1,0.4c1.5,5.6,5.3,8.8,10.8,9.4
				c2,0.2,2.7,0.6,2.7,3c0.1,4.1,2.5,6.2,7.3,6.3h0.1h0.1c7.1-1.2,14.7-3.7,22.5-7.6C129.7,240.9,130.3,240.4,130.4,239.6z"/>
			<path class="st1" d="M200.4,240.9c-0.2-4.5-0.5-8.8-1.5-13.1c-0.4-1.9-0.8-3.1-1.8-3.6s-2.2-0.2-3.7,0.3
				c-9,3.1-16.1,6.4-22.2,10.4c-3.1,2.1-5.4,4.1-7,6.5c-2.1,3-2,5.7,0.2,8.3c2.5,2.9,4.3,6.4,5.7,9.4c1.1,2.4,2.8,3.9,4.7,4.4
				c0.5,0.1,1.1,0.2,1.6,0.2c1.4,0,2.8-0.5,4.1-1.4l0.5-0.3c2.1-1.4,2.9-1.8,4.4-0.2c0.7,0.8,1.9,0.9,3.1,0.1
				c5.8-3.6,11.1-8.2,11.5-16.4c0-1.1,0.2-2.2,0.3-3.3C200.3,241.7,200.4,241.3,200.4,240.9L200.4,240.9L200.4,240.9z"/>
			<path class="st1" d="M71.7,217.6c3.3-2.4,6.4-4.2,9.5-5.4c1.4-0.5,2.2-1.3,2.5-2.2c0.3-1,0.1-2.1-0.7-3.4c-2.2-3.5-5.1-6.4-8.7-9
				c-5.6-3.9-12.3-6.6-20.9-8.6c-4.8-1.1-7.4-1.7-8.9-0.3c-1.7,1.4-1.5,4.5-1.1,10.6c0.1,2.5,0.3,6.7,1.3,10.9
				c0.5,2.1,1.8,3.7,3.4,4.4c1.3,0.5,2.6,0.3,3.8-0.5c2.7-1.8,3.9-1,6.1,1.2c2.3,2.3,5.9,3.7,9,3.7C68.7,219,70.4,218.6,71.7,217.6z
				"/>
			<path class="st1" d="M135.8,127.8c0.6,0.5,1.4,0.6,2.2,0.6c1.3,0,2.7-0.5,3.8-1c6.8-2.8,8.7-8.8,9.7-13.7
				c0.9-4.9-0.1-8.5-2.9-9.9c-2.8-1.4-7.3,0.2-10.1,3.8c-1.3,1.6-2.3,3.6-3.1,6c-0.9,2.9-1.4,5.7-1.5,7.8
				C133.8,124.8,134.3,126.8,135.8,127.8z"/>
			<path class="st1" d="M76.2,217.1c-2.6-0.2-7.2,2.9-7.9,5.4c-0.2,0.8-0.3,2.2,1.6,3c3.2,1.4,5.7,3.4,7.8,6.3
				c0.6,0.8,1.4,1.3,2.2,1.3H80c0.4,0,1.2-0.2,1.8-1.2c0.2-0.3,0.3-0.6,0.5-0.8c1.3-2.1,2.8-4.5,2.1-7.6
				C83.6,220.5,79.8,217.5,76.2,217.1z"/>
			<path class="st1" d="M78.5,234.5c-0.2-0.4-0.4-1-0.8-1.5c-1.8-3-4.2-5.1-7.2-6.5c-2.1-1-4.5-1.5-6,1.8c-1.7,3.5-2.1,5.3,1.2,7.4
				c1.8,1.1,3,2.4,3.9,4.2l0.1,0.3c0.4,0.8,0.9,2,2.5,2c0.1,0,0.2,0,0.4,0c1.9-0.2,6.1-4.4,6.2-6.7v-0.3l-0.1-0.2
				C78.6,234.8,78.6,234.7,78.5,234.5z"/>
			<path class="st1" d="M167.6,266.3L167.6,266.3c-1.8,0-3.4,0.7-4.4,1.8c-0.8,0.9-1.2,2.1-1,3.3l0.1,0.5c0.2,1.7,0.6,4.5,3.7,4.7
				c0.1,0,0.3,0,0.4,0c1.8,0,3.5-0.7,4.7-1.8c1-0.9,1.5-2.1,1.5-3.2C172.6,268.2,170.8,266.3,167.6,266.3z"/>
			<path class="st1" d="M163.4,266.7c2,0,5.2-1.3,6.4-2.2c0.2-0.1,0.8-0.6,0.8-1.3c0.1-1.4-0.5-3.1-1.7-4.4c-1-1.1-2.2-1.8-3.3-1.9
				c-1.7-0.1-3,0.3-4,1.1c-0.9,0.9-1.4,2.1-1.5,3.8v0.2l0.1,0.2c0.1,0.2,0.1,0.6,0.1,1c0,1.1,0,3.1,2.5,3.5
				C163,266.6,163.2,266.7,163.4,266.7z"/>
			<path class="st1" d="M64.3,236.2c-2.7,0.2-2.9,2.4-3.1,3.6c0,0.4-0.1,0.7-0.2,1l-0.1,0.5c0,1.2-0.1,2.6,0.9,3.4
				c0.5,0.4,1.1,0.6,1.8,0.6c0.1,0,0.3,0,0.4,0c0.3,0,0.6,0,0.9,0c1.5,0,4.1-0.1,4.6-3.2c0.3-1.7-1.3-3.6-1.8-4.1
				C67.2,237.4,65.8,236.1,64.3,236.2z"/>
			<path class="st1" d="M81.6,212.7c-1.1,0.3-2.3,0.8-3.2,2.6L78,216l2,1.5c1,0.8,2,1.6,3,2.3c0.5,0.4,1,0.6,1.6,0.6
				c0.2,0,0.4,0,0.6-0.1c0.6-0.2,1.1-0.7,1.4-1.3c0.1-0.2,0.2-0.4,0.2-0.6c0.7-1.6,1.5-3.7,0.4-5.4c-1.3-2.1-3.3-1.2-4.6-0.6
				C82.2,212.5,81.9,212.6,81.6,212.7z"/>
			<path class="st1" d="M170.1,276.5c-1.1-0.1-2.1,0.2-2.8,0.8c-0.6,0.6-1,1.3-1,2.2c-0.1,2.3,1.3,4.3,3.3,4.7
				c0.2,0,0.4,0.1,0.6,0.1c0.4,0,0.8-0.1,1.2-0.4c0.8-0.6,0.9-1.6,1-2.4c0-0.3,0.1-0.6,0.1-0.7l0.1-0.7
				C172.5,279,172.6,276.8,170.1,276.5z"/>
			<path class="st1" d="M162.3,256.4C162.4,256.4,162.4,256.4,162.3,256.4c1.3,0,2.3-0.4,3-1.2c0.4-0.5,1-1.5,0-3
				c-0.1-0.2-0.2-0.4-0.3-0.5c-0.6-1-1.4-2.3-3.3-2.4h-0.5l-0.3,0.4c-1.1,1.5-1,3.2-0.9,4.4C160.2,256.1,161.6,256.4,162.3,256.4z"
				/>
		</g>
		<g>
			<path class="st2" d="M193.8,265.1c-0.6-0.9-2.3-3.6-5.7-1.9c-0.8,0.4-1.7,0.4-2.4,0c-1.8-1-3.6-0.9-5.5,0.3
				c-0.9,0.6-2,0.8-3.1,0.7c-1.6-0.1-2.7,0.2-3.4,0.9c-1,1.1-0.9,2.7-0.7,4.1c0.6,4.2,0.7,7.4,0.2,10.2v0.1
				c-0.2,4.7,0.5,5.6,4.8,5.8c0.4,0,0.7,0,1,0c6,0,9.9-2.9,11.8-8.7l0.1-0.4c0.6-1.8,1.1-3.5,2.5-4.8
				C195.3,269.9,195.4,267.6,193.8,265.1z"/>
			<path class="st2" d="M57.8,231.2c-4.4-1.8-7.7-5.2-10.5-10.7c-0.2-0.4-0.3-0.7-0.5-1.1c-0.5-1.2-1-2.5-2.4-3.7l-0.8-0.7l-0.6,0.9
				c-2.1,3.1-3.1,5.5-4,9.5c-1.1,5.4-0.5,9.8,1.7,12.9c2.2,3.1,6,5,11.4,5.7c0.8,0.1,1.6,0.2,2.4,0.2c0.5,0,1,0.1,1.5,0.1
				c0.2,0,0.4,0,0.6,0c2.4,0,3.8-1.4,4-4c0.1-0.9,0.2-1.8,0.4-2.6C62.1,234.6,61,232.5,57.8,231.2z"/>
			<path class="st2" d="M163.3,276.4c-0.7-1.4-1.5-2.9-2.3-4.3l-0.6-1l-1.8,1.4c-2.4,1.9-4.5,3.5-7.3,3.7c-0.8,0-1.4,0.8-1.8,1.6
				c-1,1.8-3.5,8.2-2.7,9.8c0.2,0.4,0.4,0.6,0.7,0.8l0.2,0.2c2.4,2.5,6.2,3.7,9.9,3.7c3.3,0,6.7-1,9-3.1l0.1-0.1
				c1-0.9,2.8-2.4,1.2-4.6C166.1,282.1,164.7,279.3,163.3,276.4z"/>
			<path class="st2" d="M88.1,249.2l-0.8-0.2c-1.8-0.6-3.7-1.2-4.9-2.4c-4.2-4.7-8.9-5.1-14.3-1.3c-0.1,0.1-0.3,0.1-0.6,0.2
				c-0.2,0-0.4,0.1-0.6,0.2c-1,0.3-1.6,0.9-1.9,1.6c-0.4,0.8-0.3,1.7,0.1,2.8c1.9,4.9,7,8.6,12.2,8.7l0,0l0,0
				c3.7-0.2,7.5-1.7,11.6-4.8c0.4-0.3,1.7-1.3,1.5-2.6C90.4,249.9,88.7,249.4,88.1,249.2z"/>
		</g>
		<g>
			<path class="st2" d="M3.9,282.3c0.3,0.3,0.5,1.4,0.9,2.9c1.5,7.1,5.8,11.3,11.6,11.3c0.3,0,0.6,0,0.9,0c3.7-0.3,6-2.6,8-4.6
				c1.5-1.5,2.4-2.4,3.1-2.5c0.6-0.1,1.7,0.4,3.6,1.4l0.9,0.5c1.2,0.6,2.3,1.3,3.6,1.8c4.9,1.9,10.3,0.8,13.6-2.9
				c3.7-4,4.2-8.7,1.7-13.8c-0.9-1.8-1-3.1-0.4-4.8c1.6-4.5,1.3-8.9-0.7-12.3c-1.9-3.1-5-5.1-9-5.7c-5.9-0.9-9.9-2.9-13.5-6.7
				c-3.3-3.4-8.1-5-14.8-4.7c-4.9,0.2-9.1,1.1-12.6,2.8H0v13.1l1.4-0.7c3.8-1.9,8-2.7,12.7-2.6c6.2,0.2,10.7,2.5,13.7,7.1
				c1.5,2.2,3.3,2.9,5.5,3.1c4.6,0.5,6.7,3.2,6.2,8.1c-0.1,1.3-0.5,3-1.9,3.8c-0.9,0.5-2,0.7-3.4,0.4c0.2,0,0.3-0.1,0.5-0.2
				c3.4-1.5,4.5-3.3,3.9-6.7c-0.6-3.2-2.7-4.9-5.8-4.7c-2.3,0.1-3.5-0.5-4.8-2.3c-2.9-4.3-7-7.3-11.7-8.2c-4.8-1-9.9,0.1-14.3,3.1
				c-0.4,0.3-0.8,0.5-1.1,0.8L0,260v22.3h1C2.5,282.1,3.6,282.1,3.9,282.3z"/>
			<path class="st2" d="M51.5,309.7c0,0,0.3,0,0.8,0.4l0.5,0.4c0.6,0.5,1.3,1,2,1.4c3.8,2.2,8.2,2.8,12.6,1.7
				c4.4-1.1,8.2-4,10.4-7.9c1.1-1.9,1.4-3.9,0.9-6.4c-0.7-3.2,0.6-5.6,3.8-7.6c2.6-1.6,5.7-1.7,8.3-0.2c-0.1,0-0.3,0-0.4,0
				c-0.3,0-0.5,0-0.8,0l0,0c-0.3,0-0.6,0-0.9,0c-0.8,0-1.7,0-2.6,0.1c-3.3,0.3-5.5,2.1-6.2,5c-0.9,3.7,2,6.2,2.9,7
				c2.6,2.2,5.8,3.1,9.9,2.8c6.5-0.5,10.9-3.7,13.1-9.5c1.1-2.9,1.2-5.3,0.2-7.2c-0.9-1.8-2.7-3-5.2-3.6c-3-0.8-5.1-2-7.1-4.3
				c-4.2-4.8-10.1-5.8-16.3-2.9c-1.5,0.7-2.6,1.4-3.5,2.1c-2,1.6-3.5,1.4-5.4-0.7c-2.8-3-6.3-5.7-10.6-8.2c-0.2-0.1-0.3-0.2-0.5-0.3
				c-1.1-0.7-2.8-1.7-4.7-0.1c-2.1,1.8-1.2,3.6-0.5,4.9c0.1,0.2,0.2,0.4,0.3,0.5c2.8,5.8,1,12-4.4,15.5c-2.8,1.8-4.2,4.1-5.4,6.5
				c-3.2,6.2-7.4,9.3-13,9.4c-3,0.1-4.8,1.4-5.7,4.4c0.6-3.6,2.2-4.9,5.9-4.8c6.4,0.1,10.1-4.6,12.6-8.8c0.9-1.5,0.7-2.5,0.4-3.1
				s-1-1.3-2.6-1.5c-3.3-0.3-6.2-1.9-8.6-3.3c-2.4-1.5-4.6-1.1-6.4,1.2c-0.5,0.6-1,1.1-1.6,1.6c-2.8,2.5-6.2,3.5-9.5,2.9
				s-6.1-2.8-7.8-6.1c-0.7-1.4-1.2-3-1.7-4.5l-0.3-0.8c-0.8-2.5-2.4-2.6-3.7-2.2L0,283.4v37.3h20l0.8-1.3c0.6-0.9,1.2-1.9,1.8-2.9
				c-0.1,0.3-0.2,0.6-0.4,0.8c-0.3,0.7-0.6,1.3-0.8,2l-0.5,1.4h23.4l0.3-0.4c0.6-0.7,1.2-1.4,1.8-2.1c2-2.3,4.1-4.6,4.8-7.9
				C51.4,309.9,51.5,309.7,51.5,309.7z"/>
			<path class="st2" d="M163.9,305.9c-1.3-0.3-2.8-0.6-4.3-0.3c-2.7,0.5-4-0.4-5.4-3.6c-1.5-3.5-4.3-6.1-7.7-7.3
				c-3.4-1.2-7.1-0.9-10.4,0.9c-2.7,1.5-4.9,3.4-6.4,5.8c0.2-0.6,0.5-1.1,0.7-1.5c1.9-2.6-0.4-4.4-1.7-5.4c-0.1-0.1-0.3-0.2-0.4-0.3
				c-4.6-3.7-9.9-3.7-15-3.3c-3.4,0.2-5.3,1.7-6.7,5.2c-2,5-6.2,9-11,10.6c-2.9,1-7.4,1.5-12.2-1.4c-3.4-2.1-4.8-0.2-6.2,1.6
				c-5,6.7-12.7,9.2-19.9,6.6c-5.5-2-6.1-1.8-8.6,3.3c-0.3,0.6-0.5,1.1-0.6,1.7c-0.1,0.2-0.1,0.5-0.2,0.7l-0.5,1.3h61.7l0.1-0.9
				c0.7-7.9,3.1-11.8,8.6-13.3c-1.6,0.5-3.1,1.4-4.3,2.5c-2.7,2.6-3.9,6.4-3.5,10.8l0.1,0.9H171l0.3-0.6c1.3-3.2,1.3-6.4-0.1-9
				C169.8,308.5,167.2,306.6,163.9,305.9z M123.8,305.7c0.1,0,0.2,0,0.4,0c1.6,0.2,2.6-0.2,3.4-0.9c-0.9,1.1-2.1,1.3-4.1,1
				c-0.7-0.1-1.4-0.1-2.1-0.1C122.2,305.8,123,305.7,123.8,305.7z"/>
			<path class="st2" d="M74.3,122.8c3.3,12.2,11.4,20.8,25.5,27c1.1,0.5,2.3,0.7,3.4,0.9l0.6,0.1c0.5,0.1,1,0.1,1.5,0.1
				c1.2,0,2.4-0.2,3.8-0.7c1.3-0.5,2.9-1.2,3.3-2.6c0.4-1.5-0.6-2.9-1.6-4.2c-3.7-4.6-6.9-8.7-8.9-13.7c-2.2-5.5-2.1-9.6,0.3-13.2
				c1.3-1.9,1-3.7,0.5-5.5c-1.1-4.3-0.2-8.3,2.4-11.7c1.7-2.3,2.3-4.6,2.1-7.9c0-0.6-0.1-1.2-0.2-1.8c-0.4-4.3-0.9-8.3,3.3-11.1
				c2-1.3,0.8-3.3,0.2-4.2l-0.1-0.2c-2.1-3.5-4.8-5.5-7.7-5.8c-3-0.3-6.2,1.2-9.1,4.3c-7.6,8-10.9,18.2-13.1,27.1
				c-0.5,1.8-0.9,3-2.2,4c-3.4,2.8-5.2,6.9-5.1,11.5l0,0C73.5,118.1,73.7,120.5,74.3,122.8z"/>
			<path class="st2" d="M147.4,73.3c-2.3,0.3-4.1,0-6-0.9c-3.4-1.6-7.1-1.3-9.9,0.7c-2.9,2.1-6,2.7-9,2.9c-2.5,0.2-5,0.8-7.3,1.4
				c-6.3,1.7-7.7,3.5-7.8,10.3c-0.1,7.5,3.4,11.8,10.8,13.3c1.4,0.3,2.4,0.5,3.2,0.5c2,0,2.7-1.1,4-4.3c2-4.8,4.6-6.1,9.6-4.6
				c2.9,0.8,5.7,2.3,9.2,4.7c2.5,1.7,4.4,1.5,6.3-0.7c2-2.3,4.2-3.6,6.8-3.8c1.4-0.1,2.4-1,2.9-2.5c0.3-0.8,0.5-1.6,0.6-2.4
				c-0.6,5.9,2.9,9.7,5.6,12c2.3,2,3.5,4,3.9,6.3c0.4,2.9,2.1,4.5,4.7,4.5c0.2,0,0.5,0,0.8,0c0,0,0,0,0.1,0c3.3,0,5.8-1,7.2-2.9
				s1.7-4.6,0.7-7.7c-1.2-3.9-3.5-7.3-5.3-9.7c-0.4-0.5-0.8-1.1-1.2-1.6c-2.1-2.7-4-5.3-5.3-8.3c-0.7-1.5-1.9-2.8-3-3.7
				c-2-1.8-4.5-1.9-7-0.5c-2.2,1.2-1.8,3.3-1.6,4.6c0,0.3,0.1,0.5,0.1,0.8c0,0.1,0,0.2,0,0.3c-0.5-1.5-1.2-3-2.2-4.3
				C155.9,74.4,151.8,72.8,147.4,73.3z"/>
			<path class="st2" d="M196.7,71.5c-5.4-6.2-12.2-10.9-20.3-13.9c-2-0.7-3.9-0.8-5.6-0.8c-8.1-0.1-12.6,5.3-15.8,10.6
				c-0.1,0.1-0.2,0.3-0.3,0.4c-0.8,1.2-2.2,3.3-0.3,4.9c0.4,0.3,0.7,0.7,1.1,1c1.3,1.3,3,3,5.9,2.3c6.9-1.7,8.5-1,11.8,5.2
				c1.4,2.6,3.1,5,4.8,7.2c1.6,2.1,3.2,4.3,4.5,6.6c0.7,1.4,1.8,2.1,3.2,2.1c0.4,0,0.8-0.1,1.2-0.2c5.3-1.4,10.7-3.3,12.9-9.3
				C201.9,81.9,200.8,76.3,196.7,71.5z"/>
			<path class="st2" d="M113.8,76.4c0.3,0.1,0.9,0.3,1.4,0.3c0.2,0,0.4,0,0.6-0.1c1.4-0.3,3-0.5,4.5-0.7c2.9-0.3,5.9-0.6,8.5-2.2
				c4.8-2.8,9.3-3.3,14.5-1.6c5.9,1.9,8.5-0.3,11-4.8c0.2-0.3,0.3-0.6,0.5-0.8c1.1-1.9,2.6-4.3,0.8-7s-5.1-2.3-7.2-2
				c-6.7,0.9-13-0.5-19.4-4.2c-3.2-1.8-6.2-2.7-8.9-2.5c-7.7,0.1-12.3,4.6-13.2,13.2C106.4,67.4,110.8,75.2,113.8,76.4z"/>
			<path class="st2" d="M188,141.9c-0.2-1-0.7-3.2-2.6-2.8c-1.1,0.2-2.3,0.1-3.6-0.1c-2.7-0.3-5.9-0.7-8.3,2.5
				c-1.6,2-3.8,2.9-7.1,2.8c-1.6-0.3-3.8-0.4-5.5,2c-1.6,2.3-4,4.1-7.3,5.4c-2.3,0.9-3.3,2.6-3.2,5.2c0.3,4.8-0.8,8.8-3.3,12.4
				c-0.7,1.1-0.9,2-0.6,2.9c0.4,0.9,1.2,1.5,2.6,1.8c0.8,0.2,1.7,0.3,2.6,0.3c2.5,0,5.2-0.8,7.9-2.3c4.5-2.5,8.6-5.9,12.6-10.5
				c1.7-2,3.4-3,5.8-3.4c3.8-0.7,6.8-2.6,8.6-5.3c1.9-2.9,2.3-6.5,1.4-10.5L188,141.9z"/>
			<path class="st2" d="M152.3,112.2c-0.4,1.7-0.7,3.3-1.1,4.7c-1.2,4.6-0.7,6.4,2.8,8.6c1.3,0.8,2.6,1.3,3.9,1.3
				c1.8,0,3.5-0.8,5.2-2.5c3.2-3.1,5.5-6.9,6.6-11.4c1.4-5.7,0.1-9.9-4.1-12.8c-0.6-0.4-1.1-1.1-1.6-1.7l-0.1-0.2
				c-2.3-3-4.4-4.4-6.6-4.4c-2.2,0-4.3,1.3-6.6,4.1c-1.4,1.6-2.6,3.8-0.2,6.4c1.5,1.6,2.1,3.6,2.1,6.4c0,0.1,0,0.2,0,0.3
				C152.4,111.4,152.4,111.8,152.3,112.2z"/>
			<path class="st2" d="M136,174.7c1.8,0,3.8-0.6,5.9-1.8c5.1-3,7.7-7.5,8.2-13.7l0,0c0.1-2.2-0.1-3.9-1.2-4.8
				c-1.2-0.9-2.9-0.7-4.4-0.3c-4.1,1-7.7,0.1-11.3-2.9c-1.3-1.1-2.7-2-4-3c-1.4-0.9-2.4-0.7-2.9-0.5c-0.8,0.4-1.4,1.2-1.5,2.4
				c-0.8,6.5-1.3,13.3,2.8,19.2C130,173,132.8,174.7,136,174.7z"/>
			<path class="st2" d="M190.8,100.8l-0.1-0.2c-0.3-1.1-0.9-3.4-3.5-2.8s-2.3,3-2.1,4.3c0.7,4.8-0.9,7.6-4.9,9
				c-2.5,0.8-3.5,2.5-3.1,5.2c1,7,0.9,12.6,0,17.8c-0.3,1.3-0.1,2.4,0.6,3.2c0.7,0.8,1.7,1.3,3.3,1.3c0.2,0,0.3,0,0.5,0
				c3.9,0,6.9-2.1,8.8-6.2c2.2-4.8,3.2-10,2.9-15.7C193.3,111.9,192.5,107,190.8,100.8z"/>
			<path class="st2" d="M144.6,126.2c-1.2,0.9-2.3,1.8-3.5,2.1c-5,1.3-5.2,3.1-5.2,6.3c0,0.4,0,0.9,0,1.4l0,0
				c0.1,3.8,0.6,6.1,1.7,8.1c1.2,2.1,3.3,3.6,5.5,4c0.4,0.1,0.8,0.1,1.2,0.1c1.4,0,2.8-0.5,3.9-1.4c4.8-3.9,8.2-9.1,11.5-14.1
				l1.1-1.7c0.7-1,0.5-1.8,0.3-2.2c-0.3-0.7-1.1-1.2-2.1-1.3l-0.6-0.1c-0.6-0.1-1.3-0.2-2-0.2c-1,0-2-0.8-2.9-1.6
				c-1.3-1.1-2.9-2.4-5.1-1.7C146.9,124.3,145.7,125.3,144.6,126.2z"/>
			<path class="st2" d="M102.8,117.1c-1.8,2.5-2.3,5.5-1.3,8.9c1.8,6.3,5.4,12.1,11.5,18.4c2,2.1,4.7,3.2,7.8,3.2c0.5,0,1,0,1.5-0.1
				c1.4-0.2,2.3-0.6,2.7-1.4c0.4-0.8,0.3-1.7-0.2-2.9c-1-2-1.4-4-1.4-6.2c0.1-5.2-0.2-5.6-5.2-7.5c-4.6-1.7-7.5-4.2-9.1-7.9
				c-1-2.3-2.7-3.9-5.1-4.8l-0.7-0.3L102.8,117.1z"/>
			<path class="st2" d="M164.4,143c0.9,0.5,1.9,0.7,2.8,0.7c2.8,0,5.7-1.8,7.4-5c0.6-1.2,1.1-2.3,1.4-3.3c1-3.2,1.4-6.6,1.2-10.6
				c0.1-2.9-0.4-6-0.8-9l-0.1-0.8c-0.4-2.8-2.2-3.4-3.3-3.5c-2.2-0.2-2.8,1.6-3.1,2.7l-0.2,0.5c-0.7,1.9-1.4,4-2.7,5.4
				c-2.5,2.6-3.6,5.7-4.8,8.8c-0.4,1.1-0.8,2.2-1.2,3.2C159.6,135.7,161.4,141.4,164.4,143z"/>
			<path class="st2" d="M119.3,101.9c-3.2-0.4-5.9-1.5-7.9-3.2c-1-0.9-2-1.3-2.9-1.1c-1.3,0.2-2.2,1.2-2.9,2.2
				c-3.4,4.7-3.4,11.3,0,16c1.7,2.4,4.5,3.7,7.6,3.7c1.3,0,2.7-0.2,4.1-0.7c5.1-1.8,8-5.4,7.9-9.6v-0.6
				C124.7,103.7,124.5,102.5,119.3,101.9z"/>
			<path class="st2" d="M104.1,153.2c-0.3,0.7-0.2,1.5,0.2,2.4c2.3,4.3,4.7,8.8,8.9,12c2.3,1.7,4.5,2.5,6.8,2.5h0.1
				c1.5,0,3.2-0.2,4.1-1.3s0.7-2.8,0.3-4.3c-0.6-2.4-0.8-5-0.8-8v-1.3c0-1,0-2.1,0-3.1c0-0.9,0-2-1.1-2.9c-1.5-1.3-7.9-2-9.5-0.7
				c-2.4,1.9-4.6,3-6.9,3.4C105.2,152,104.4,152.5,104.1,153.2z"/>
			<path class="st2" d="M133.7,92.9c-2.1-0.3-3.9,0-5.3,1.1c-1.3,1-2.1,2.6-2.3,4.6v0.5c-0.2,2.4-0.5,5-0.5,7.5
				c0.1,4.3,0.9,9.1,6.3,12.6l1.2,0.8l0.3-1.4c1.8-7.5,4.1-14.3,12.9-16.3l1.8-0.4l-1.3-1.3C142.5,96.5,137.4,93.5,133.7,92.9z"/>
			<path class="st2" d="M123,115.7c-3.1,2.7-6.4,4.1-9.9,4.4c-1.2,0.1-2,0.5-2.3,1.3c-0.4,0.8-0.1,1.9,0.8,3c1.7,2.2,4,3.7,6.6,4.3
				c3,0.7,5.2,2.7,7.2,4.6l0.3,0.3c0.9,0.8,1.8,1.7,2.8,2.4c0.2,0.1,0.4,0.3,0.6,0.4c0.8,0.6,1.9,1.4,3.2,1.4c0.5,0,1.1-0.1,1.7-0.5
				c1.4-0.9,1.5-2.4,1.6-3.7c0-0.5,0.1-1.1,0.2-1.6v-0.1v-0.1c-0.2-2-1-3.8-1.8-5.8c-0.6-1.5-1.3-3.1-1.7-4.7
				c-0.4-1.8-2-3.1-3.5-4.4c-0.6-0.5-1.1-0.9-1.6-1.4C125.2,113.8,123.5,115.2,123,115.7z"/>
			<path class="st2" d="M155.3,150.2c1.9-1,3.5-2.3,4.8-3.8c1.8-2.1,2-4.4,0.6-7c-0.4-0.8-1.1-1.8-2.2-1.9c-1.2-0.1-2.1,0.9-2.4,1.2
				c-0.7,0.8-1.3,1.6-2,2.4c-1.2,1.4-2.4,2.9-3.7,4.3c-2.5,2.6-5.2,3.8-7.8,3.4c-2.6-0.4-4.9-2.5-6.5-5.9c-0.1-0.3-0.2-0.6-0.3-0.8
				c-0.4-1.1-1-2.7-2.8-3.1c-1.7-0.4-3.3-1.3-5-2.3c-0.7-0.4-1.4-0.8-2.1-1.2l-1-0.5l-0.4,1.1c-1.1,2.9-0.7,5.5,1.4,7.9
				c5.5,6.4,9.8,10,15.9,10c2.1,0,4.3-0.4,6.9-1.3c0.6-0.2,1.2-0.4,1.8-0.6C152.2,151.5,153.8,151,155.3,150.2z"/>
		</g>
		<path d="M205.3,217.1c-8.8-4.2-14.4-11.4-18.6-20.4c-2.7,2.6-3.6,5.4-4.4,8.2c-0.6,1.9,0.7,2.2,2.1,2.4c2,0.3,4.2,0.3,5.8,2.3
			c-1.5,1.9-3.1,0.5-4.5,0.4c-4.1-0.3-5.2,0.4-6.1,4.5c-0.4,2.1-0.6,4.2-0.9,6.3c-0.1,0.9-0.4,1.6-1.3,1.8c-0.7,0.1-1.2-0.4-1.6-0.9
			c-0.5-0.7-0.8-1.4-1.3-2.1c-2.9-4.4-3.4-4.5-6.4-0.4c-4.2,5.6-7.3,11.7-8.1,18.7c-0.2,1.6-0.7,3.2,0.3,4.8c0.3,0,0.8,0.2,0.9,0.1
			c5-7.4,12.3-11.5,20.1-14.9c4.6-2,9.3-3.9,14-5.6c3.1-1.1,3.7-0.8,4.5,2.3c1.7,7.6,2.7,15.2,1.5,23c-0.7,4.5-2.4,8.6-5.9,11.6
			c-1.7,1.4-2,2.7-0.6,4.6c2.3,3.3,2.8,6.6-0.7,9.6c-1.2,1-1.3,2.6-1.8,4c-2.1,6.4-6,9.7-12.5,9.6c-5.1-0.1-9.3,1.3-13.4,4.4
			c-4.9,3.7-10.4,3.4-15.7,0.7c-3.8-1.9-7.4-3.7-11.8-3.6c-3.2,0.1-6-1.6-7.7-4.4c-1.4-2.3-3.2-2.8-5.6-3.2
			c-11.7-1.7-14-10.4-13.9-18.7c0-3.5,1.4-4.1,4.2-2.2c5.7,3.8,7.9,3.6,12.9-0.9c9.1-8.2,9.5-8.4,26.2-13.7
			c-4.1-6.5-15-11.3-23.6-10.6c-0.6,0.9,0,1.5,0.4,2.2c2.7,3.9,2.7,3.9-1.4,5.7c-7.7,3.5-15.6,6.4-23.9,8.1c-0.5,0.1-1,0.4-1.4,0.4
			c-7.2-0.8-12.9,2.7-18.8,6.3c-9.2,5.6-16.6,3.2-22-6.4c-1.9-3.4-4.5-4.9-8.2-5.1c-3.2-0.2-6.5-0.5-9.6-1.6
			c-6.2-2.3-9.3-6.7-9.4-13.4c-0.1-5.9,1.8-11.3,4.2-16.6c1.2-2.5,1.6-4.8,1.2-7.6c-0.7-5.4-1.2-10.8-1-16.2
			c0.2-4.2,1.2-4.9,5.2-4.2c7.4,1.2,14.6,3,21.5,6.2c6.9,3.2,12.6,7.8,16.8,14.2c1.5-0.9,1.1-2,1-2.8c-1-7.1-4.1-13.1-9-18.1
			c-1.5-1.6-3-2.4-5-0.8c-2.3,1.8-4,0.6-4.1-1.8c-0.2-4.4-3-5.7-6.4-6.8c-1.8-0.6-3.8-0.6-5.2-2.1c0.4-1.6,1.4-1.4,2.3-1.3
			c1.3,0.2,2.5,0.8,3.7,1c1.6,0.3,3.3,2.2,4.9,0.5c1-1,1.5-2.8,1-4.2c-0.9-2.4-3.3-1.3-5.1-1.6c-2.1-0.4-4.2-0.5-6.2-1
			c-3.9-0.8-7.6-2.1-10.6-4.7c-4.7-3.9-9.7-3.9-15.1-2.5c-1.6,0.4-3.5,2.2-4.9,0.4c-1.4-1.7,0.1-3.8,0.8-5.5
			c1.7-4.3,4.8-7.4,8.5-9.9c1.7-1.2,3.6-2.3,5.4-3.3c2.1-1.1,2.7-2.2,0.6-4c-2.6-2.3-4.5-5.1-6.2-8.2c-1.2-2.1-1-3.7,1.1-5
			c6.8-4.6,13.7-8.8,21.7-10.9c3.3-0.9,6.7-1.4,10.1-0.4c2.2,0.6,3.8,0.4,4.2-2.3c0.6-3.5,2.6-6.3,4.9-8.9c0.9-1,1.8-2.2,1.3-3.5
			c-0.6-1.7-2.2-1-3.4-1c-9.1,0.4-15.6-4-20.9-11.3c-6.2-8.7-13.4-16-23.6-19.5c-1.1-0.4-2.2-0.8-2.3-2.2c-0.1-1.6,1.1-2.3,2.2-2.9
			c3.1-1.7,6.5-1.7,9.9-1.8c3.8-0.1,4-0.2,3-4c-2.7-10.3-3.4-20.7-3.2-31.3c0.1-4.8,1-5.4,5.7-4.9c11.8,1.4,23.4,3.3,34.3,8.5
			c3.5,1.7,3.7,1.5,4.4-2.3c0.8-4.9,2.7-9.5,5.2-13.7c1.9-3.2,2.4-3.3,5-0.6c9.1,9.3,14.5,20.5,15.6,33.6c0,0.5,0,1,0.1,1.5
			c0.3,1.3-0.5,3.4,1.8,3.3c2-0.1,3.2-1.4,3.2-3.6c-0.2-14,6.8-24.7,15.3-34.7c2.3-2.7,4.8-5.3,7.3-7.9c2.1-2.2,2.7-2.1,4.3,0.5
			c3.1,5,5.1,10.6,6.4,16.3c1.9,0.4,2.6-1,3.4-1.8c6.9-6.7,15.5-9.3,24.6-10.8c2.5-0.4,3.5,0.9,4.3,2.9c1.6,4.3,2.6,8.8,2.5,14.4
			c7.1-4.4,13.7-8.3,21.6-7.9c0,0.7,0,1.3,0,2c-8.4,1.1-16,4.2-21.9,10.6c-0.8,0.8-1.8,1.8-2.9,0.9c-1.1-0.9-0.5-2.1-0.2-3.2
			c1.5-4.6,0.7-9.1-0.6-13.5c-0.7-2.4-1.9-3.6-4.6-3.1c-9.7,1.7-18.4,5.3-24.4,13.8c-0.6,0.8-1.1,1.7-1.8,2.3
			c-1.4,1.2-2.4,0.8-2.7-1c-0.1-0.8,0-1.6,0-2.5c0.1-5.3-1.6-10-4-14.5c-1.5-2.8-2.2-3-4.3-0.9c-7.3,7.3-13.7,15.3-17.4,25.2
			c-1.4,3.7-2.1,7.5-2.2,11.6c0,2.6,1,4,3.6,4.2c3.5,0.2,6.5,1.5,9.5,3.3c4.7,2.8,9.8,4,15.4,3.1c3.4-0.6,7-0.5,9.7,2
			c1.7,1.6,2.8,1.5,4.5,0.3c6.4-4.4,13.3-3.9,19.9-0.6c3.8,1.9,6.8,1.5,10-0.6c4.2-2.7,6.9-6.8,9.2-11.2c2.2-4.2,3.2-8.9,5.3-13.2
			c0,3,0,5.9,0,8.9c-4.5,7.2-8,15.6-16.5,19.3c0.3,1.8,1.4,2.3,2.2,3c3.4,2.8,6.7,5.7,8.9,9.7c3.6,6.5,2.5,14.7-2.3,19.6
			c-1.9,1.9-5.8,2.1-6.1,5.1c-0.2,2.6,1.2,5.4,1.9,8.1c0.1,0.3,0.2,0.6,0.2,1c1.2,9.9,1.8,19.7-4.1,28.5c-1,1.5-0.7,3.1-0.4,4.7
			c0.7,4.1,0.9,8.2-1,12.1c-0.9,1.7-0.5,2.9,1.3,3.3c5.7,1.5,10.7,4.6,15.6,7.7c0,1.3,0,2.6,0,3.9c-4.8-4.3-10.1-7.5-16.4-9.2
			c-6.2-1.7-11.4,0.3-16,4.4c-3,2.7-5.6,6-9.1,8c-3.4,1.9-4.4,4.5-3.6,8.1c0.2,1.1,0.2,2.3,0.5,3.4c2.2,11.8,7.4,22.3,13.9,32.3
			c0.3,0.5,0.8,1.1,2,0.5c0.8-2.9,1.7-6.2,2.7-9.5c1.2-4.1,2.8-8.1,5.3-11.6c1.5-2.1,2.7-2,4,0.3c0.7,1.1,1.1,2.4,1.7,3.5
			c3.4,6.9,8.1,12.7,15.1,16.1C205.3,215.1,205.3,216.1,205.3,217.1z M32.1,64.7c5.1,2.5,9.2,4.8,12.7,7.8c5,4.2,9.3,9.2,13.2,14.4
			c4.7,6.3,10.6,8.6,18.1,8.4c3.2-0.1,4.6-1.1,5.4-4.1c1.2-4.3,2.7-8.5,5.3-12.1c4.2-6,7.8-12.8,16.5-12.8c0.9,0,1.5-0.7,1.6-1.6
			c0.5-4.1,3-7.7,3.2-11.8c0.8-14.1-3.6-26.5-13-37c-2-2.3-2.8-2.1-4.3,0.7c-2.3,4.4-3.7,9.1-3.7,14.1c0,3.3-1.1,3.9-3.9,2.3
			c-10.8-6.1-22.7-8.5-34.8-9.9c-5.2-0.6-5.5-0.4-5.5,5.1c0,10,0.9,20,3.8,29.7c1.5,5,1.2,5.3-4,5.1C39.5,62.9,36.3,62.5,32.1,64.7z
			 M141.2,225.3c-2.3,0-3.4-1.5-4.8-2.6c-5.3-4.1-10.8-7.9-16.8-10.7c-5.8-2.7-11.8-4.5-18.3-4.1c-1.5,0.1-3.3-0.3-4.4,1.3
			c0,0.7,0.4,1,0.9,1.1c10.8,2.9,19,9.7,26.4,17.8c2.1,2.4,4.4,3.6,7.5,3.7c8.2,0.3,15.5,3,22,8.1c0.8,0.6,1.6,1.8,3.4,0.9
			c0.6-9.8,4.9-18.3,11.2-25.9c1.4-1.7,1.3-3.1,0.3-4.9c-5.6-9.9-9.9-20.3-11-31.9c-0.1-1-0.3-1.9-1.4-2.4c-2.5-1.1-7.1,0.8-8.1,3.5
			c-2,5.6-2.2,11.2-0.8,17c1.1,4.7,3.3,8.9,6,12.8c0.5,0.8,1.2,1.7,0.4,2.7c-0.6,0.7-1.5,0.4-2.3,0.3c-7.8-1.2-14-4.8-18-12
			c-2-3.6-2.2-3.7-5.3-1.6c-9.5,6.3-19.5,6.3-29.9,2.9c-1.4-0.4-3.1-0.7-3.3-2.4c-0.2-1.9,1.7-2.2,2.9-2.8c1.9-0.9,3.9-1.7,5.7-2.8
			c7-4,12.1-9.8,14.8-17.6c0.8-2.2,0.7-3.7-1.9-4.5c-3.2-1-5.5-3.3-7.8-5.8c-0.7-0.8-1.2-2.1-2.6-1.8c-0.3,0.2-0.6,0.4-0.7,0.7
			c-3,9-9.3,13.3-18.5,14.3c-3.1,0.3-6.4,1.2-8.9,3.4c0.1,0.5,0.1,0.9,0.3,1.1c5.9,6.5,9.8,13.8,10.6,22.8c0.2,2.5,1.8,2.2,3.5,1.6
			c8.9-3.4,17.5-2.2,26,1.4c7.9,3.3,14.8,8.1,21.4,13.5C140.5,222.8,141.6,223.5,141.2,225.3z M29.4,157.1c1.4,1,2.7,0.3,3.9,0.2
			c5.2-0.6,10.3-0.8,14.4,3.6c1.6,1.8,4.1,2.5,6.5,3.3c3.4,1.2,6.9,1.8,10.5,1.9c7.4,0.1,7.3,0.2,5.8,7.2c-0.3,1.4-0.6,2.9-0.6,4.4
			c-0.1,4,0.6,4.5,4,2.7c4.9-2.6,10.2-4.6,15.6-5.3c6.8-0.9,10.8-4.7,13-11c2.3-6.7,0.3-10.7-5.8-14c-11.6-6.1-21.2-14.2-23.9-28
			c-1-5.1-3.7-6.2-8.2-6.5c-2.3-0.1-4.5,0.3-6.7,1c-6.6,2-12.5,5.4-18.3,9.1c-2.2,1.4-2.3,2.9-1,4.9c2,3.1,4.3,5.7,7.5,7.6
			C49,140,49,141,46,142.4c-3.8,1.8-7.7,3.6-10.9,6.4C32.5,151.1,29.8,153.4,29.4,157.1z M74.4,115c0.2,3,0.3,5.3,0.9,7.5
			c3.6,13.4,13,21.1,24.9,26.3c1.2,0.5,2.5,0.7,3.8,0.9c1.6,0.3,3.3,0,4.8-0.5c3.3-1.1,3.6-2.5,1.3-5.2c-3.5-4.3-6.9-8.7-9-14
			c-1.9-4.8-2.6-9.6,0.4-14.2c1-1.6,0.8-3,0.4-4.7c-1.1-4.6-0.2-8.9,2.6-12.6c1.7-2.3,2.1-4.4,1.9-7.3c-0.4-4.9-1.7-10.3,3.6-13.9
			c1.2-0.8,0.4-2-0.2-3c-4.1-6.7-9.9-7-15.2-1.3c-7.2,7.7-10.5,17-13,26.8c-0.5,1.8-1,3.3-2.5,4.5C75.6,107.2,74.3,111.2,74.4,115z
			 M108.6,87.8c-0.1,7,3.1,10.9,10,12.3c4.2,0.9,4.5,0.8,6.1-3.2c2.2-5.3,5.3-6.8,10.8-5.2c3.5,1,6.6,2.8,9.5,4.9
			c2,1.4,3.4,1.4,5-0.5c2-2.3,4.4-3.8,7.5-4.2c1.1-0.1,1.7-0.7,2.1-1.8c3-8.5-3.2-16.9-12-15.9c-2.4,0.3-4.4,0-6.5-0.9
			c-3-1.4-6.3-1.3-8.8,0.6c-2.9,2.1-6,2.8-9.5,3.1c-2.4,0.2-4.8,0.8-7.1,1.4C109.7,80,108.6,81.5,108.6,87.8z M115,263.6
			c-1.5,7.3,2.4,13.1,10,14.4c3.7,0.6,6.6,1.3,8.7,4.9c1.9,3.2,5.7,3.6,9.2,2.7c3.3-0.8,3.6-3.9,4-6.6c0.1-0.3,0-0.7,0-1
			c0-2.4,1.1-3.4,3.5-3.6c6.3-0.8,9-4.3,8.1-10.8c-0.5-3.6-0.6-7.2-0.6-10.8c0.1-3.7-0.4-4.2-4.2-4.1c-3.3,0-6.4,0.8-9.4,2.2
			c-5.6,2.5-10.5,6-14.5,10.5c-3.5,3.9-7.4,4.2-11.8,3C117.1,264.1,116.2,263.1,115,263.6z M106.2,248c7.4-1.2,15-3.9,22.3-7.6
			c1.7-0.9,1-2.2,0.1-3.3c-7.1-9.1-14.8-17.4-25.4-22.4c-3.3-1.5-6.7-2.5-10.3-2.8c-1.8-0.2-3.1,0.3-3.7,2.3
			c-1.1,4.3-2.2,8.6-3.3,12.8c-0.3,1,0.1,1.9,0.3,2.9c1.4,5.2,4.7,8.1,10,8.6c2.6,0.2,3.6,1.2,3.6,4C99.9,246.3,102,247.9,106.2,248
			z M170.8,57.8c-7.3-0.1-11.5,4.5-15,10.1c-0.7,1.2-2.1,2.9-0.8,4c1.8,1.4,3.1,3.9,6.1,3.2c7.3-1.8,9.4-0.9,12.9,5.7
			c2.6,5,6.6,9,9.2,13.9c0.7,1.4,1.8,1.8,3.3,1.4c5.1-1.4,10.1-3.1,12.2-8.6c2.1-5.5,1-10.7-2.8-15.2c-5.4-6.3-12.2-10.8-19.9-13.6
			C174.3,57.9,172.6,57.8,170.8,57.8z M199.4,241c-0.2-4.5-0.5-8.8-1.5-13c-0.8-3.4-1.1-3.6-4.2-2.6c-7.7,2.7-15.1,5.8-22,10.3
			c-2.6,1.7-5,3.7-6.8,6.3c-1.7,2.4-2,4.6,0.1,7.1c2.4,2.9,4.2,6.2,5.8,9.6c1.9,4,5.4,5.3,9,2.9c2.2-1.4,3.9-3,6.2-0.3
			c0.5,0.5,1.3,0.3,1.8-0.1c5.8-3.7,10.7-8,11-15.6C199,244,199.3,242.4,199.4,241z M149,208.5c-0.3-1.5-0.3-2.1-0.5-2.5
			c-4.8-9.2-6-18.6-2.6-28.5c0.3-0.9,0.6-2-0.3-2.7c-1.3-1.2-2.8-0.6-4.1,0.1c-5,2.8-9.3,1.3-13.4-2.1c-3.5-2.9-5.5-2.3-7,2.3
			c-3.1,9.6-9.1,16.5-17.8,21.2c-1.1,0.6-2.6,0.8-2.6,2.5c0.1,0.2,0.2,0.3,0.3,0.4c0.4,0.2,0.9,0.5,1.3,0.6
			c9.9,2.5,18.9,1.2,26.9-5.7c2.9-2.5,3.2-2.3,4.7,1.1c0.5,1,0.9,2.1,1.4,3.1C138.2,203.5,142.4,206.9,149,208.5z M44.3,199.3
			c0.1,2.6,0.3,6.7,1.3,10.7c0.8,3.1,3.3,4.9,5.7,3.3c3.3-2.2,5-1.1,7.4,1.3c3.4,3.4,9.6,4.4,12.5,2.2c3-2.3,6.2-4.2,9.7-5.5
			c2.2-0.9,2.6-2.1,1.3-4.1c-2.2-3.5-5.1-6.4-8.5-8.7c-6.3-4.3-13.3-6.7-20.6-8.4C43.6,187.9,43.5,188,44.3,199.3z M120,51.9
			c-7.3,0.1-11.4,4.3-12.3,12.3c-0.3,2.8,3.9,10.2,6.4,11.3c0.4,0.2,1,0.3,1.4,0.2c4.2-1,8.9-0.5,12.7-2.7c5-2.9,9.8-3.5,15.3-1.7
			c4.9,1.6,7.3,0.3,9.8-4.3c1.2-2.1,3-4.3,1.3-6.8c-1.5-2.2-4-1.9-6.3-1.6c-7.2,1-13.8-0.7-20-4.3C125.7,52.7,122.8,51.7,120,51.9z
			 M166.3,145.3c-1.6-0.3-3.3-0.3-4.5,1.5c-1.9,2.8-4.7,4.5-7.7,5.7c-1.9,0.8-2.7,2.1-2.6,4.2c0.2,4.7-0.8,9.1-3.5,13
			c-1.2,1.8-0.4,2.7,1.4,3.1c3.5,0.7,6.8-0.2,9.8-1.9c4.8-2.6,8.8-6.2,12.3-10.3c1.8-2.1,3.6-3.2,6.4-3.8c7.5-1.4,10.9-7.2,9.2-14.6
			c-0.2-1-0.5-2.4-1.5-2.3c-3.8,0.7-8.1-2-11.3,2.1C172.4,144.6,169.6,145.4,166.3,145.3z M176,109.9c6.2,0,8.9-3.6,7.1-9.4
			c-1.1-3.5-3-6.5-5.1-9.4c-2.4-3.2-5.1-6.3-6.7-10.1c-0.6-1.3-1.7-2.4-2.7-3.4c-1.8-1.6-3.8-1.5-5.9-0.4c-1.9,1.1-1.1,2.8-0.9,4.4
			c0.2,1.9,0.7,4,0.4,5.8c-0.8,5.2,1.5,8.8,5.2,11.9c2.2,1.9,3.8,4.1,4.2,6.9C172,109.3,173.7,110.1,176,109.9z M153.4,110.8
			c0,0.3,0,1-0.1,1.6c-0.3,1.6-0.7,3.2-1.1,4.8c-1.1,4.2-0.7,5.5,2.4,7.5c2.7,1.7,5.3,1.5,7.9-1.1c3.1-3,5.2-6.6,6.3-10.9
			c1.2-4.7,0.6-8.8-3.7-11.7c-0.8-0.5-1.4-1.4-2-2.1c-4.1-5.3-7.5-5.4-11.7-0.3c-1.4,1.7-2,3.2-0.2,5.1
			C152.8,105.5,153.5,107.8,153.4,110.8z M149,159.2c0.1-4-0.6-5-4.4-4.1c-4.7,1.2-8.6-0.1-12.1-3.1c-1.3-1-2.6-2-3.9-2.9
			c-1.5-1-2.7-0.4-2.9,1.2c-0.8,6.4-1.3,12.9,2.7,18.5c3.3,4.7,7.4,6.5,13,3.2C146.3,169.1,148.6,164.8,149,159.2z M192.1,116.5
			c0.2-5.3-0.8-10.4-2.2-15.5c-0.3-1.2-0.6-2.8-2.4-2.4c-1.7,0.4-1.5,1.8-1.3,3.2c0.7,4.8-0.7,8.4-5.5,10.1c-2,0.7-2.8,2-2.5,4.1
			c0.8,6,1.1,12.1,0,18.1c-0.5,2.4,0.8,3.3,2.9,3.4c4.1,0.2,6.7-2.1,8.3-5.6C191.5,127,192.3,121.9,192.1,116.5z M136.8,136
			c0.1,3.6,0.5,5.8,1.5,7.6c2,3.4,6.3,4.8,9.1,2.4c5.2-4.3,8.7-10,12.4-15.6c0.7-1.1,0.1-1.8-1.1-2c-0.8-0.1-1.6-0.3-2.4-0.3
			c-3-0.1-4.6-4.2-7.7-3.3c-2.7,0.8-4.5,3.7-7.4,4.4C136.1,130.6,136.9,132.3,136.8,136z M174.1,279.6c-0.2,4.2,0.2,4.6,3.9,4.8
			c6.1,0.3,10-2.2,11.9-7.9c0.7-2,1.2-4,2.9-5.6s1.5-3.4,0.3-5.3c-1.1-1.7-2.4-2.6-4.4-1.5c-1,0.5-2.3,0.6-3.3,0
			c-1.6-0.9-3-0.6-4.5,0.3c-1.1,0.7-2.4,1-3.7,0.9c-3.1-0.3-3.5,1.3-3.1,3.9C174.4,272.7,174.6,276.3,174.1,279.6z M43.8,216.5
			c-2.1,3-3,5.3-3.8,9.1c-2.1,10.2,2,16.1,12.2,17.4c1.3,0.2,2.6,0.2,3.9,0.3c2.2,0.2,3.3-0.8,3.5-3c0.1-1,0.2-2,0.5-2.9
			c0.9-2.7,0-4.2-2.6-5.2c-5.2-2.1-8.5-6.2-11-11.2C45.7,219.5,45.4,217.8,43.8,216.5z M103.6,117.7c-1.8,2.5-2,5.3-1.2,8
			c2,7.1,6.3,12.8,11.3,18c2.2,2.3,5.2,3.1,8.5,2.8c1.9-0.2,2.6-1,1.7-2.9c-1-2.1-1.5-4.3-1.5-6.6c0.1-4.8,0.1-4.8-4.6-6.6
			c-4.3-1.6-7.7-4.1-9.6-8.4C107.3,119.9,105.8,118.5,103.6,117.7z M176.3,124.8c0.1-3.1-0.4-6.4-0.9-9.6c-0.2-1.4-0.9-2.5-2.4-2.6
			s-1.8,1.1-2.2,2.2c-0.7,2.2-1.5,4.4-3.1,6.1c-3.2,3.3-4.1,7.7-5.8,11.7c-1.4,3.1,0.4,8.3,2.9,9.6c2.9,1.5,6.9-0.1,8.9-3.8
			c0.5-1,1-2.1,1.3-3.1C176.1,131.9,176.4,128.4,176.3,124.8z M124.1,109c-0.3-5-0.1-5.5-4.9-6.1c-3.1-0.4-6-1.4-8.5-3.5
			c-1.9-1.6-3.1-0.9-4.3,0.8c-3.1,4.4-3.2,10.5,0,14.8c2.2,3.1,6.4,4.1,10.6,2.6C121.5,116,124.2,112.8,124.1,109z M122.8,156.5
			c0-1.5,0-2.9,0-4.4c0-0.8,0-1.6-0.7-2.2c-1.1-1-7-1.6-8.3-0.7c-2.2,1.7-4.6,3.1-7.3,3.6c-1.5,0.3-2,1-1.3,2.4
			c2.3,4.3,4.6,8.6,8.6,11.6c1.9,1.4,3.9,2.3,6.2,2.3c3.5,0,4.3-0.9,3.5-4.4C123,162,122.8,159.2,122.8,156.5z M134.9,121.4
			c-0.3,5.9,1.7,7.1,6.4,5.1c5.8-2.4,8-7.3,9.1-13c0.9-4.4,0-7.6-2.3-8.9c-2.4-1.2-6.3,0.3-8.9,3.5c-1.3,1.7-2.2,3.6-2.9,5.7
			C135.5,116.6,134.9,119.3,134.9,121.4z M146.1,101.3c-4.3-4.2-9.2-6.9-12.6-7.4c-3.6-0.6-6.1,1.2-6.4,4.8
			c-0.3,2.6-0.6,5.2-0.5,7.8c0.1,4.5,1,8.7,5.9,11.8C134.3,110.5,136.9,103.4,146.1,101.3z M134.5,131.8c-0.3-3.3-2.6-6.6-3.5-10.3
			c-0.5-2-3.1-3.6-4.9-5.3c-0.9-0.9-1.8-0.3-2.5,0.3c-3,2.6-6.4,4.3-10.5,4.6c-2.1,0.2-1.7,1.5-0.8,2.7c1.5,2,3.6,3.4,6,3.9
			c3.2,0.7,5.4,2.7,7.7,4.9c0.9,0.9,1.9,1.8,2.9,2.6c1.3,0.9,2.7,2.3,4.3,1.3C134.6,135.6,134.1,133.8,134.5,131.8z M160.2,272.6
			c-2.8,2.2-5.3,4.4-8.7,4.6c-1.2,0.1-4.3,8.8-3.6,9.9c0.1,0.3,0.4,0.5,0.7,0.7c4.2,4.3,13,4.6,17.5,0.6c1-0.9,2.2-1.9,1.2-3.3
			C164.3,281.3,162.6,276.9,160.2,272.6z M77.5,257.7c3.9-0.2,7.6-2,11-4.6c1.9-1.4,1.2-2.3-0.7-2.9c-2.2-0.7-4.6-1.3-6.1-3
			c-4.1-4.6-8.3-4.5-13-1.1c-0.4,0.3-0.9,0.3-1.4,0.5c-1.6,0.6-1.8,1.6-1.2,3.1C67.9,254,72.6,257.6,77.5,257.7z M125.6,136.3
			c-1.2,3-0.2,5.2,1.2,6.9c7.1,8.2,11.9,11.6,21.7,8.4c2.1-0.7,4.4-1.2,6.4-2.3c1.7-0.9,3.3-2.1,4.5-3.6c1.6-1.9,1.6-3.7,0.5-5.9
			c-0.8-1.5-1.7-1.9-2.9-0.5c-1.9,2.2-3.7,4.6-5.7,6.7c-5.7,5.9-12.3,4.8-15.8-2.7c-0.6-1.3-0.8-3-2.5-3.4
			C130.4,139.3,128.3,137.8,125.6,136.3z M66.1,221.2c-3.5-1.8-7.7-2.5-10.6-5.5c-0.6-0.6-1.5-0.4-2.3-0.1c-1.8,0.6-3.5,1.1-5.3,1.7
			c1.8,5.8,4.9,9.7,9.1,11.9c3.6,2,4.4,1.8,6.3-2.1C64.3,225.2,65.7,223.6,66.1,221.2z M98.4,248.8c-0.5-4.8-2-8-6.7-8.7
			c-1.9-0.3-3.4-1.8-4.8-3.2c-1.1-1.1-1.3-3.5-3.1-3.4c-1.9,0.1-2.2,2.6-3.4,3.8c-0.3,0.3-0.6,0.8-0.9,1.2c-1.2,1.4-1,2.6,0.2,3.8
			C85,247.4,91.2,249.1,98.4,248.8z M76.1,218.1c-2.1-0.2-6.3,2.6-6.8,4.7c-0.3,1,0.3,1.5,1.1,1.9c3.3,1.5,6,3.7,8.2,6.6
			c0.6,0.9,1.6,1.4,2.3,0.2c1.4-2.3,3.2-4.7,2.5-7.7C82.7,221,79.2,218.4,76.1,218.1z M77.8,235.4c-0.2-0.4-0.5-1.2-0.9-1.8
			c-1.6-2.7-3.8-4.8-6.8-6.1c-2-0.9-3.6-1.1-4.7,1.3c-1.6,3.4-1.7,4.5,0.8,6.1c1.9,1.2,3.3,2.6,4.3,4.6c0.4,0.9,0.7,1.9,2,1.7
			C74,241,77.7,237.2,77.8,235.4z M171.6,271.6c0-2.9-1.3-4.4-4-4.4s-4.7,1.7-4.4,4c0.3,1.8,0.3,4.2,2.9,4.4
			C169,275.8,171.6,273.8,171.6,271.6z M161.1,261.8c0.4,1.3-0.5,3.4,1.8,3.8c1.8,0.3,6.6-1.6,6.7-2.6c0.2-2.3-2-5.1-4.1-5.2
			C162.7,257.7,161.2,259,161.1,261.8z M62,241.1c0,1.7-0.2,3.5,2,3.3c1.7-0.2,4.2,0.3,4.6-2.4c0.3-1.7-2.6-4.9-4.2-4.8
			C61.9,237.4,62.5,239.7,62,241.1z M79.3,215.8c1.5,1.2,2.9,2.2,4.3,3.3c0.8,0.6,1.6,0.5,2-0.4c0.6-1.7,1.7-3.6,0.7-5.1
			c-1.1-1.7-2.9-0.3-4.4,0.2C81,214,80,214.3,79.3,215.8z M171.5,280.5c0-1.3,0.3-2.8-1.5-3c-1.4-0.2-2.7,0.5-2.7,2
			c-0.1,1.7,0.9,3.4,2.5,3.7C171.5,283.6,171.2,281.6,171.5,280.5z M161.5,250.2c-0.8,1.1-0.9,2.3-0.7,3.6c0.1,0.9,0.5,1.6,1.5,1.5
			c0.8,0,1.6-0.2,2.2-0.9c0.6-0.6,0.2-1.3-0.1-1.8C163.7,251.7,163.3,250.3,161.5,250.2z"/>
		<path d="M43.8,319.7c2.4-3,5.5-5.6,6.5-9.6c0.4-1.5,1.4-1.6,2.6-0.7c0.8,0.6,1.6,1.2,2.4,1.7c7.4,4.4,17.3,1.7,21.6-5.8
			c1.1-1.8,1.2-3.6,0.7-5.7c-0.8-3.9,1-6.7,4.2-8.6c3.5-2.1,7.5-1.8,10.6,0.6c-0.6,1.4-1.9,0.9-3,0.9s-2.3-0.1-3.4,0
			c-2.6,0.3-4.7,1.6-5.4,4.2c-0.6,2.5,0.8,4.4,2.6,6c2.6,2.3,5.8,2.8,9.1,2.5c5.8-0.5,10.1-3.1,12.3-8.8c1.9-4.8,0.5-8.2-4.4-9.5
			c-3.1-0.8-5.4-2.1-7.6-4.6c-4.1-4.6-9.5-5.3-15.1-2.7c-1.2,0.6-2.3,1.2-3.3,2c-2.6,2-4.6,1.5-6.7-0.8c-3-3.3-6.6-5.8-10.4-8
			c-1.2-0.7-2.4-1.8-4-0.5c-1.7,1.5-0.7,2.8,0,4.3c3,6.2,1.2,13-4.7,16.8c-2.5,1.6-3.7,3.6-5,6.1c-2.9,5.6-7.2,9.8-13.9,10
			c-2.8,0-4,1.2-4.8,3.8c-0.6,2.2-1.6,4.3-2.5,6.4c-1,0-1.9,0-2.9,0c1.4-2.2,3-4.3,3.5-7c0.7-4,2.6-5.7,6.9-5.6
			c5.6,0.1,9-3.8,11.7-8.3c0.9-1.5,0.7-2.9-1.5-3.1c-3.3-0.3-6.2-1.8-9-3.5c-2.1-1.2-3.6-0.9-5.1,0.9c-0.5,0.6-1.1,1.2-1.7,1.7
			c-6.3,5.5-14.9,3.9-18.8-3.6c-0.9-1.7-1.4-3.6-2-5.5c-0.4-1.3-1.1-2-2.5-1.6c0-1,0-2,0-3c4-0.1,4-0.1,4.8,3.8
			c1.5,7,5.7,10.8,11.4,10.4c3.2-0.2,5.3-2.2,7.4-4.3c3.5-3.6,3.5-3.5,7.8-1.3c1.4,0.8,2.9,1.6,4.4,2.2c4.6,1.8,9.5,0.7,12.5-2.7
			c3.3-3.7,4-7.9,1.6-12.7c-0.9-1.9-1.2-3.5-0.4-5.6c2.8-8.1-0.7-15.4-9-16.7c-5.7-0.9-10.1-2.8-14.1-7c-3.6-3.8-8.9-4.6-14-4.4
			c-4.2,0.2-8.4,0.9-12.3,2.7c0-1,0-2,0-3c3.7-1.1,7.5-2,11.4-2.2c7.5-0.4,14.1,1.7,19.4,7.3c1.9,2,3.9,3,6.7,3.3
			c9.3,0.9,13.5,4.9,15.5,14.1c0.5,2.1,1.2,3.6,3.1,4.6c4.3,2.3,8.3,5.1,11.7,8.7c1.7,1.7,3,1.6,5.1,0.4c9.1-5.1,13.9-4.5,21.9,2.7
			c1.1,1,2.2,1.9,3.7,2.3c3.4,0.9,6.4,2.2,8.3,5.5c0.8,1.4,2.1,1.2,3.4,1c2.1-0.2,4.2-0.3,6.3-0.4c4.7-0.3,9,1,12.5,4.3
			c1.7,1.6,3,1.7,5.1,0.6c8.4-4.5,16.3-1.9,20.6,6.9c1.1,2.3,2.3,3.2,4.8,3c5.3-0.4,9.6,1.5,12.1,6.5c1.2,2.5,2.5,2,4.1,0.6
			c3.1-2.6,6.8-3.8,10.7-4.4c4.6-0.7,9-0.2,13.2,2c1.6,0.8,2.9,2.1,4.8,2.3c0,1.3,0,2.6,0,3.9c-1.4-0.9-2.7-1.7-4.1-2.6
			c-6.9-4.6-14-4.3-21.1-0.8c-3.5,1.7-6.4,4.3-8.9,7.4c-0.3,0-0.6,0-1,0c2.5-6.1-0.2-11.4-6.7-12.8c-1.2-0.3-2.6-0.5-3.9-0.3
			c-3.5,0.6-5.1-0.9-6.5-4.1c-2.9-6.8-10.5-9.3-16.7-5.9c-3.1,1.7-5.6,4.1-7.1,7.3c-1.4,2.9-3,3.6-6.1,3.2
			c-7.9-1-13.3,4.7-12.5,12.7c-1,0-1.9,0-2.9,0c0.9-10.8,5.3-14.9,15.8-14.9c0.2,0,0.3,0,0.5,0c3.9,0.4,3.9-3.4,5.3-5.4
			c1.5-2.1-0.6-3.3-1.9-4.3c-4.2-3.4-9.3-3.5-14.3-3.1c-3,0.2-4.6,1.5-5.9,4.6c-3.9,9.6-15,15.5-24.6,9.7c-2.6-1.6-3.4-0.6-4.9,1.4
			c-5.4,7.2-13.4,9.7-21.1,6.9c-5-1.8-5-1.8-7.4,2.8c-0.4,0.7-0.6,1.5-0.8,2.3C47.1,319.7,45.4,319.7,43.8,319.7z"/>
		<path class="st0" d="M205.3,163.8c-4.9-3.1-9.9-6.3-15.6-7.7c-1.8-0.5-2.2-1.6-1.3-3.3c1.9-3.9,1.7-8,1-12.1
			c-0.3-1.6-0.6-3.2,0.4-4.7c5.9-8.8,5.3-18.6,4.1-28.5c0-0.3-0.1-0.6-0.2-1c-0.7-2.7-2.2-5.5-1.9-8.1c0.3-3,4.1-3.1,6.1-5.1
			c4.8-4.8,5.9-13,2.3-19.6c-2.2-3.9-5.5-6.9-8.9-9.7c-0.9-0.7-2-1.2-2.2-3c8.5-3.7,12-12.1,16.3-19.7
			C205.3,82.2,205.3,123,205.3,163.8z"/>
		<path class="st0" d="M171.3,319.7c2.5-3.1,5.4-5.7,8.9-7.4c7.1-3.5,14.2-3.8,21.1,0.8c1.3,0.9,2.7,1.8,4.1,2.6c0,1.3,0,2.6,0,3.9
			C194,319.7,182.6,319.7,171.3,319.7z"/>
		<path d="M1,256.5c4.2-2,8.5-2.8,13.2-2.7c6.1,0.2,11.1,2.3,14.5,7.5c1.2,1.9,2.6,2.4,4.8,2.7c5.3,0.6,7.6,3.9,7.1,9.2
			c-0.4,4.6-3.5,6.4-8.2,4.7c0-1.4,1.2-1.2,2-1.6c3-1.3,3.8-2.7,3.3-5.6c-0.5-2.7-2.2-4-4.8-3.9c-2.5,0.2-4.2-0.5-5.7-2.8
			c-5.7-8.6-16-10.6-24.6-4.8c-0.5,0.4-1.1,0.8-1.6,1.1C1,259.2,1,257.8,1,256.5z"/>
		<path class="st0" d="M141.2,225.3c0.5-1.8-0.7-2.5-1.5-3.2c-6.6-5.4-13.5-10.2-21.4-13.5c-8.5-3.6-17.2-4.8-26-1.4
			c-1.7,0.7-3.3,0.9-3.5-1.6c-0.7-8.9-4.7-16.3-10.6-22.8c-0.2-0.2-0.2-0.6-0.3-1.1c2.5-2.2,5.8-3.1,8.9-3.4
			c9.2-1,15.5-5.3,18.5-14.3c0.1-0.3,0.4-0.4,0.7-0.7c1.4-0.3,1.9,1,2.6,1.8c2.2,2.5,4.6,4.8,7.8,5.8c2.6,0.8,2.7,2.3,1.9,4.5
			c-2.7,7.8-7.7,13.6-14.8,17.6c-1.8,1-3.8,1.8-5.7,2.8c-1.3,0.6-3.1,0.9-2.9,2.8c0.2,1.7,2,2,3.3,2.4c10.4,3.4,20.4,3.4,29.9-2.9
			c3.1-2.1,3.2-2,5.3,1.6c4,7.1,10.3,10.7,18,12c0.8,0.1,1.7,0.4,2.3-0.3c0.8-1,0.1-1.9-0.4-2.7c-2.7-4-4.9-8.1-6-12.8
			c-1.4-5.7-1.1-11.4,0.8-17c1-2.7,5.5-4.6,8.1-3.5c1.1,0.5,1.3,1.5,1.4,2.4c1.1,11.5,5.5,21.9,11,31.9c1,1.8,1.1,3.3-0.3,4.9
			c-6.3,7.6-10.6,16.1-11.2,25.9c-1.8,0.9-2.6-0.2-3.4-0.9c-6.5-5.1-13.9-7.8-22-8.1c-3.2-0.1-5.4-1.3-7.5-3.7
			c-7.3-8.1-15.6-14.9-26.4-17.8c-0.5-0.1-0.9-0.4-0.9-1.1c1.1-1.6,2.8-1.2,4.4-1.3c6.5-0.5,12.5,1.4,18.3,4.1
			c6.1,2.8,11.6,6.6,16.8,10.7C137.7,223.7,138.9,225.3,141.2,225.3z"/>
		<g>
			<path d="M205.2,18.7c-9.5,1.3-16.9,4.8-22.5,10.9c-1,1.1-1.3,1-1.6,0.8c-0.4-0.3-0.4-0.6,0-1.7l0.1-0.3c1.7-5.1,0.6-10-0.6-14.1
				c-0.6-2-1.8-4.5-5.7-3.8c-11.6,2-19.6,6.5-25,14.2c-0.1,0.2-0.3,0.4-0.4,0.6c-0.4,0.6-0.8,1.1-1.2,1.5s-0.7,0.4-0.7,0.4l0,0
				c-0.1,0-0.2-0.3-0.3-0.9c-0.1-0.4,0-1,0-1.5c0-0.3,0-0.5,0-0.8c0.1-4.9-1.2-9.6-4.1-15c-0.9-1.7-1.6-2.7-2.8-2.8
				c-1.1-0.2-2,0.5-3.2,1.7c-8.9,9-14.4,16.9-17.7,25.6c-1.4,3.8-2.2,7.8-2.2,11.9c0,3.3,1.4,4.9,4.5,5.2c3,0.2,5.8,1.2,9,3.2
				c5.1,3.1,10.5,4.2,16.1,3.3c4.1-0.7,6.8-0.1,8.8,1.7c1.1,1.1,2.1,1.5,3,1.5s1.8-0.4,2.8-1.1c5.6-3.8,12-4,18.9-0.6
				c3.9,1.9,7.3,1.7,11-0.7c4.6-3,7.3-7.3,9.6-11.6c1.2-2.3,2.1-4.8,2.9-7.1c0.7-2,1.4-4.1,2.4-6.1l0.1-0.2V18.6L205.2,18.7z"/>
			<path d="M189.2,157.6c-6.1-1.6-11.6-0.1-16.9,4.6c-1,0.9-1.9,1.8-2.9,2.8c-2,2-3.8,3.9-6.1,5.1c-3.7,2.1-5,5-4.1,9.2
				c0.1,0.5,0.2,1.1,0.2,1.7c0.1,0.6,0.1,1.1,0.2,1.7c2,10.6,6.5,21,14,32.6c0.5,0.8,1.2,1.2,1.9,1.2c0.4,0,0.9-0.1,1.4-0.4l0.4-0.2
				l0.1-0.4c0.2-0.9,0.5-1.8,0.8-2.7c0.6-2.2,1.2-4.5,1.9-6.7c1.5-4.8,3.1-8.3,5.2-11.3c0.8-1.1,1.1-1.1,1.2-1.1c0,0,0.4,0,1.2,1.3
				c0.4,0.7,0.7,1.4,1.1,2.1c0.2,0.4,0.4,0.9,0.6,1.3c3.9,7.9,9,13.3,15.5,16.6l1.4,0.7v-48.4L206,167
				C200.7,162.3,195.2,159.2,189.2,157.6z"/>
			<path d="M44.2,73.3c4.4,3.8,8.6,8.3,13,14.3c4.5,6,10.2,8.8,18,8.8c0.3,0,0.6,0,0.9,0c3.7-0.1,5.4-1.4,6.3-4.8
				c1.1-3.8,2.5-8.1,5.1-11.8c0.4-0.6,0.8-1.2,1.3-1.8c3.7-5.4,7.2-10.5,14.5-10.6c1.4,0,2.5-1,2.6-2.4c0.2-1.8,0.9-3.6,1.5-5.4
				c0.8-2.1,1.6-4.2,1.7-6.5c0.8-14.3-3.7-27-13.3-37.7c-1.1-1.3-2.1-2-3.2-1.9s-1.9,1.2-2.7,2.8c-2.5,4.7-3.8,9.5-3.8,14.6
				c0,1.9-0.4,2.1-0.4,2.1s-0.4,0.2-2-0.7c-11.8-6.6-24.4-8.8-35.2-10c-2.8-0.3-4.4-0.4-5.4,0.5c-1.1,1-1.1,2.8-1.1,5.6
				c0,11.9,1.3,21.4,3.9,30c0.3,1,1,3.2,0.7,3.6c-0.3,0.4-2.6,0.3-3.7,0.3h-1c-2.9-0.1-6.1-0.2-10.1,1.8L30,65l1.8,0.9
				C36.6,68,40.6,70.2,44.2,73.3z"/>
			<path d="M97,149.3C83.1,142,75.9,133.6,73.7,122c-1.1-5.7-4.5-7-9.1-7.3c-2.1-0.1-4.3,0.2-7,1c-7,2.1-13.3,5.8-18.5,9.2
				c-2.5,1.6-2.9,3.7-1.3,6.3c2.2,3.4,4.7,6,7.8,7.9c1.5,1,1.7,1.4,1.7,1.3c0,0-0.2,0.4-1.7,1.1c-3.8,1.8-7.8,3.6-11.1,6.6
				c-2.5,2.2-5.4,4.7-5.9,8.8l-0.1,0.6l0.5,0.3c1.4,1.1,2.8,0.8,3.8,0.5c0.3-0.1,0.5-0.1,0.8-0.1c5.4-0.6,9.8-0.7,13.5,3.3
				c1.7,1.8,4.2,2.7,6.5,3.5l0.4,0.1c3.6,1.2,7.2,1.9,10.8,2c2.9,0.1,5.1,0.1,5.5,0.6s0,2.5-0.6,5.3c-0.4,1.8-0.6,3.2-0.6,4.6
				c-0.1,2.3,0.1,3.8,1.2,4.4c0.3,0.2,0.7,0.3,1.1,0.3c0.9,0,1.9-0.4,3.2-1.1c5.5-2.8,10.4-4.5,15.3-5.2c6.9-0.9,11.4-4.8,13.8-11.6
				C105.8,157.5,103.8,152.8,97,149.3z"/>
			<path d="M149.7,207c-0.1-0.6-0.2-1-0.4-1.4c-4.9-9.3-5.7-18.4-2.5-27.8c0.3-0.8,0.9-2.5-0.5-3.8c-2-1.9-4.4-0.5-5.2,0
				c-4.1,2.3-7.8,1.7-12.2-2c-2-1.7-3.7-2.3-5.1-1.9c-1.5,0.4-2.6,1.9-3.5,4.6c-3,9.3-8.7,16-17.3,20.6c-0.2,0.1-0.4,0.2-0.6,0.3
				c-0.9,0.4-2.5,1.1-2.5,3.1v0.3l0.3,0.4c0.1,0.2,0.3,0.4,0.6,0.6l0.2,0.1c0.4,0.2,0.8,0.4,1.3,0.6c10.8,2.8,19.9,0.9,27.8-5.9
				c0.4-0.4,1.6-1.4,1.9-1.5c0.3,0.2,0.9,1.6,1.2,2.2c0.1,0.3,0.3,0.6,0.4,1c0.3,0.7,0.6,1.5,1,2.2c3.1,5.7,7.6,9.2,14.2,10.8
				l1.5,0.4l-0.3-1.5C149.8,207.7,149.7,207.3,149.7,207z"/>
		</g>
		<g>
			<g>
				<circle class="st2" cx="53.1" cy="198.4" r="5.1"/>
				<path d="M53.1,204c-3.1,0-5.6-2.5-5.6-5.6s2.5-5.6,5.6-5.6s5.6,2.5,5.6,5.6C58.7,201.5,56.2,204,53.1,204z M53.1,193.8
					c-2.6,0-4.6,2.1-4.6,4.6s2.1,4.6,4.6,4.6s4.6-2.1,4.6-4.6S55.7,193.8,53.1,193.8z"/>
			</g>
			<g>
				<circle class="st2" cx="65.6" cy="210.1" r="3.6"/>
				<path d="M65.6,214.2c-2.3,0-4.1-1.8-4.1-4.1s1.8-4.1,4.1-4.1c2.3,0,4.1,1.8,4.1,4.1S67.9,214.2,65.6,214.2z M65.6,207
					c-1.7,0-3.1,1.4-3.1,3.1s1.4,3.1,3.1,3.1s3.1-1.4,3.1-3.1S67.3,207,65.6,207z"/>
			</g>
			<g>
				<circle class="st2" cx="117.3" cy="237.2" r="5.8"/>
				<path d="M117.3,243.4c-3.5,0-6.3-2.8-6.3-6.3s2.8-6.3,6.3-6.3s6.3,2.8,6.3,6.3S120.8,243.4,117.3,243.4z M117.3,231.9
					c-2.9,0-5.3,2.4-5.3,5.3s2.4,5.3,5.3,5.3s5.3-2.4,5.3-5.3S120.2,231.9,117.3,231.9z"/>
			</g>
			<g>
				<circle class="st2" cx="95.1" cy="231.8" r="3.3"/>
				<path d="M95.1,235.6c-2.1,0-3.8-1.7-3.8-3.8s1.7-3.8,3.8-3.8s3.8,1.7,3.8,3.8S97.1,235.6,95.1,235.6z M95.1,229
					c-1.5,0-2.8,1.3-2.8,2.8s1.3,2.8,2.8,2.8s2.8-1.3,2.8-2.8S96.6,229,95.1,229z"/>
			</g>
			<g>
				<circle class="st2" cx="129.4" cy="271.1" r="5.5"/>
				<path d="M129.4,277.1c-3.3,0-6-2.7-6-6s2.7-6,6-6s6,2.7,6,6C135.4,274.5,132.7,277.1,129.4,277.1z M129.4,266.2
					c-2.8,0-5,2.2-5,5s2.2,5,5,5s5-2.2,5-5S132.2,266.2,129.4,266.2z"/>
			</g>
			<g>
				<circle class="st2" cx="139.3" cy="279.1" r="3.5"/>
				<path d="M139.3,283.1c-2.2,0-4-1.8-4-4s1.8-4,4-4s4,1.8,4,4S141.5,283.1,139.3,283.1z M139.3,276.1c-1.7,0-3,1.3-3,3s1.3,3,3,3
					s3-1.3,3-3S141,276.1,139.3,276.1z"/>
			</g>
			<g>
				<circle class="st2" cx="198.4" cy="235.9" r="6.2"/>
				<path d="M198.4,242.6c-3.7,0-6.7-3-6.7-6.7s3-6.7,6.7-6.7s6.7,3,6.7,6.7S202.1,242.6,198.4,242.6z M198.4,230.2
					c-3.2,0-5.7,2.6-5.7,5.7c0,3.2,2.6,5.7,5.7,5.7c3.2,0,5.7-2.6,5.7-5.7C204.1,232.7,201.5,230.2,198.4,230.2z"/>
			</g>
			<g>
				<circle class="st2" cx="188.7" cy="254.3" r="3.7"/>
				<path d="M188.8,258.5c-2.3,0-4.2-1.9-4.2-4.2s1.9-4.2,4.2-4.2s4.2,1.9,4.2,4.2S191.1,258.5,188.8,258.5z M188.8,251.1
					c-1.8,0-3.2,1.4-3.2,3.2s1.4,3.2,3.2,3.2s3.2-1.4,3.2-3.2S190.5,251.1,188.8,251.1z"/>
			</g>
		</g>
		<g>
			
				<linearGradient id="SVGID_1_" gradientUnits="userSpaceOnUse" x1="105" y1="454" x2="105" y2="778" gradientTransform="matrix(1 0 0 1 0 -454)">
				<stop  offset="0" style="stop-color:#EB1A21"/>
				<stop  offset="1" style="stop-color:#A51A21"/>
			</linearGradient>
			<path class="st3" d="M210,324c-70,0-140,0-210,0C0,216,0,108,0,0c70,0,140,0,210,0C210,108,210,216,210,324z M199.9,162.6
				c0-46.5-0.2-87.6-0.2-134.1c0-9.4-3.5-18.1-13-18.1c-50.8,0-101-0.4-151.8-0.4c-4,0-8.3,0.5-12.3,0.7
				c-5.9,0.2-11.3,6.1-11.3,11.7c0,93.3-0.4,182.4-0.4,275.8c0,1.5,0.2,1.6,0.3,3.1c0.7,6.6,5,12.6,11.3,12.6
				c55.5,0,107.4,0.2,162.9,0.3c1.9,0,3.6-0.7,5.3-1.7c5.5-3,9.5-6,9.5-12.1C200.1,254,199.9,208.9,199.9,162.6z"/>
			<path d="M200.8,161.4c0.1-9.1,0-18.3,0.1-27.6c0.2-36.3,0.1-72.7,0-109c0-9.1-6.8-15.3-16-15.3c-52.8,0-105.7,0-158.5,0
				c-9.4,0-15.6,6.2-15.6,15.8c0,38.4,0.2,76.7,0.1,115.1c0,29.5-0.4,58.9-0.5,88.4c-0.1,23.5-0.1,47-0.1,70.4
				c0,8,6.5,15.3,13.7,15.3c54.3,0.1,108.6,0,162.9,0c2.2,0,4-0.5,5.9-1.8c5.1-3.5,8.1-7.9,8-14.4
				C200.7,252.7,200.8,207.1,200.8,161.4z M186.5,310.2c-3,0-3.7,0-3.7,0s-103.1,0-154.7,0c-8.3,0-13.1-4.5-13-14.9
				c0-22.8,0-45.6,0.1-68.4c0.1-28.6,0.5-57.2,0.5-85.9c0.1-37.3-0.2-75.1-0.1-112.3c0-7.9,2.5-14.8,12.6-14.8
				c50.2,0,105.1,0.2,155.3,0.2c8.7,0,13,5.3,12.6,14.1c0,35.2,0,106.5,0,106.5v27c0,0,0,91.6,0.1,135.9
				C196,304.4,191.2,309.6,186.5,310.2z"/>
		</g>
	</g>
	<g>
		<g>
			<path class="st0" d="M43.7,306c-4.5,0-8.5-0.9-11.8-2.8c-3.5-1.9-6-4.7-7.8-8.3c-1.7-3.5-2.5-7.5-2.5-12.2c0-2.7,0.3-5.5,0.9-8.5
				c0.6-2.8,1.6-5.8,2.7-8.6c0.2-0.5,0.5-0.9,0.6-1.4c0.2-0.5,0.5-0.9,0.6-1.4l14.9-30.4h19.5l-2.7,4.7c-4.5,8.2-9.4,17.1-12.2,22.4
				c4.1,0,7.7,0.9,10.7,2.8c3.1,1.9,5.5,4.7,7.1,8.2c1.6,3.5,2.2,7.4,2.2,12.1c0,4.9-0.9,8.9-2.5,12.4c-1.7,3.6-4.4,6.4-7.8,8.3
				C52.1,305.1,48.1,306,43.7,306z M43.4,276.2c-2,0-2.8,0.8-3.3,1.4c-0.9,1.3-1.4,3.1-1.4,5.6c0,2.2,0.5,3.6,1.3,4.5
				c0.3,0.3,1.3,1.3,3.6,1.3c2.5,0,3.5-0.9,3.8-1.3c0.9-0.9,1.3-2.5,1.3-4.5c0-2.5-0.5-4.4-1.4-5.6C46.6,277,45.7,276.2,43.4,276.2z
				"/>
			<path d="M55.4,235.4c0,0-15.8,28.4-14.7,28.4l0,0c1.4-0.8,3.1-1.3,5.2-1.3c3.6,0,6.6,0.8,9.1,2.4c2.5,1.6,4.5,3.8,5.8,6.9
				c1.3,3,2,6.6,2,10.8l0,0c0,4.2-0.8,8-2.2,11c-1.6,3.1-3.6,5.3-6.6,7.1c-2.8,1.6-6.3,2.4-10.4,2.4s-7.4-0.8-10.4-2.4
				c-2.8-1.6-5-3.9-6.6-6.9c-1.6-3-2.2-6.6-2.2-11l0,0c0-2.5,0.3-5,0.9-7.7c0.6-2.7,1.4-5.5,2.5-8.2c0.2-0.5,0.3-0.9,0.6-1.4
				c0.2-0.5,0.5-0.9,0.6-1.3l14.1-28.7h12.1 M43.7,292.4c2.7,0,4.5-0.8,6-2.4c1.4-1.6,2-3.8,2-6.7l0,0c0-3.3-0.8-5.8-2.2-7.5
				c-1.4-1.7-3.5-2.7-6.3-2.7c-2.5,0-4.4,0.9-5.8,2.7s-2,4.2-2,7.5l0,0c0,3,0.6,5.2,2,6.7C39,291.6,41,292.4,43.7,292.4 M55.4,229.1
				H43.2h-3.9l-1.7,3.5l-14.1,28.7c-0.2,0.5-0.5,0.9-0.8,1.6c-0.2,0.5-0.5,1.1-0.6,1.6c-1.3,3-2.2,6.1-2.8,9.1
				c-0.6,3.1-1.1,6.3-1.1,9.1c0,5.3,0.9,9.9,3,13.8c2,4.2,5.2,7.4,9.1,9.6c3.8,2,8.3,3.1,13.3,3.1s9.6-1.1,13.3-3.1
				c3.9-2.2,7.1-5.5,9.1-9.7c1.9-3.9,2.8-8.6,2.8-13.8s-0.8-9.6-2.5-13.3c-1.9-4.1-4.7-7.4-8.3-9.6c-2.2-1.4-4.7-2.4-7.4-2.8
				c2.8-5.2,6.4-11.9,10-18.2l5.2-9.3L55.4,229.1L55.4,229.1z M43.7,286.1c-0.5,0-1.1,0-1.4-0.3c-0.2-0.2-0.5-0.9-0.5-2.5
				c0-2.7,0.6-3.6,0.8-3.8c0-0.2,0.2-0.2,0.8-0.2c1.1,0,1.3,0.3,1.4,0.3c0.2,0.2,0.8,1.1,0.8,3.6c0,1.4-0.3,2.4-0.5,2.5
				C44.8,285.9,44.3,286.1,43.7,286.1L43.7,286.1z"/>
		</g>
	</g>
</g>
</svg>
