<?xml version="1.0" encoding="utf-8"?>
<!-- Generator: Adobe Illustrator 22.0.1, SVG Export Plug-In . SVG Version: 6.00 Build 0)  -->
<svg version="1.1" id="레이어_2_1_" xmlns="http://www.w3.org/2000/svg" xmlns:xlink="http://www.w3.org/1999/xlink" x="0px"
	 y="0px" viewBox="0 0 210 324" style="enable-background:new 0 0 210 324;" xml:space="preserve">
<style type="text/css">
	.st0{fill:#FFFFFF;}
	.st1{fill:#FFC40A;}
	.st2{fill:#EB1A21;}
	.st3{fill:url(#SVGID_1_);}
</style>
<g>
	<g>
		<path class="st0" d="M209.2,245.7c0,24.2,0,48.4-0.1,72.5c0,1,1.6,2.9-0.9,3.5c0-2-1.5-3.2-2.6-4.6c-7.1-9.4-15.7-17.2-25-24.3
			c-1.3-1-3.3-1.8-3.5-3.4c-0.8-6.3-3.1-12.6-0.2-18.9c1.1-2.6,2.5-4.1,5.9-3.9c5.8,0.5,9.2-2.2,11.1-7.7c0.6-1.7,1.1-3.5,1.2-5.3
			c0.2-3,1.9-7-0.7-8.8c-2.8-1.9-6.2,0.8-9.1,2.1c-4.7,2.3-8.5,5.8-7.7,11.4c0.7,4.7-1.8,7.2-4.4,10.6c-1.5-3.9-3.3-7,0-10.7
			c2.3-2.6,1.7-6.2,0.5-9.4c-1.5-3.9-4.1-7.1-7-10.1c-1.2-1.2-2.3-3.3-4.4-2.4c-1.9,0.8-1.7,3-2,4.8c-0.6,4.3,0.3,8.7,0.4,13.6
			c-3.5-2.7-4.3-6-4.9-9.4c-0.2-1.3-0.4-3-2.2-2.6c-1.6,0.3-1.4,2-1.2,3.3c0.6,3.6,1.6,7.1,4.2,9.9c0.9,1,2,2.5,3.2,1.9
			c2.3-1.1,2.7,0.8,3.9,1.7c4.9,3.5,5.7,9,7.1,14.2c1,4,2.5,8,1.7,12.8c-4.4-2.9-8.3-5.6-12.4-8.1c-2.2-1.3-3.3-2.7-3.3-5.4
			c0.1-3.9-1.6-7.4-5.1-9c-4.1-1.9-5-5.7-7-8.9c-0.5-0.8-1.1-2,0-2.6c1.3-0.7,2.1,0.3,2.6,1.5c1.2,2.8,2.9,5.1,5.5,6.8
			c1,0.7,2.2,1.2,3.1,0c0.7-1,0-1.9-0.8-2.5c-3.1-2.2-4.8-5.3-5.5-9c-0.3-1.2-1-3.1-2.5-1.9c-2.3,1.9-4.1,0.4-5.8-0.4
			c-8.8-3.7-14.8-10.1-18.9-18.6c-0.8-1.7-0.7-5.2-3.6-4.2c-2.5,0.9,0.4,3.5-0.4,5.4c-1.7,0.5-3.5,0.1-5.3,0
			c-10.5-0.9-21-1.8-31.4-2.7c-18.6-1.6-32.3-10.2-39.7-27.8c-0.9-2.2-2.2-3.3-4.5-4c-3.8-1.2-7.2-3.1-9.9-6.2
			c-2-2.3-3.3-4.9-2.7-8.8c4.6,3.2,9,4.8,13.8,5.6c1.5,0.3,2.8,0.9,3.7,2.2c0.9,1.2,1.5,3.7,3.5,2c1.6-1.4-0.1-3-0.9-4.3
			c-0.8-1.3-2-2.2-3.4-2.7c-1.2-0.5-1.9-1.2-1.9-2.5c-0.1-6-1.8-11.5-5.7-16.6c3.6-0.5,6,2.1,9.1,1.6c8.5-1.2,17-2.4,24.9-5.7
			c8.3-3.5,16.5-6.7,25.7-5c0.3,0.1,0.7,0,1,0c0.9,0,1.7-0.4,1.9-1.3c0.2-0.9-0.5-1.6-1.4-1.8c-1.1-0.3-2.2-0.4-3.4-0.6
			c-7-0.8-13.8,0.4-20.2,3.4c-8.3,3.9-17.1,5.9-26.1,7.1c-2.1,0.3-4.2,0.3-6.3-0.4c-6.9-2.2-13.6-5-19.9-8.5
			c-3.6-1.9-4.6-1.7-5.9,2.1c-0.7,2.2-0.9,4.5-0.4,6.8c1.1,4.7,3.1,9,6.1,12.8c1.1,1.4,2.2,2.7,2,4.8c-0.7,8.4,3.6,14.3,10.8,17
			c6.8,2.6,8.6,8.2,11.6,13.9c-2,0.4-3.6,0.7-5.2,1c-10.9,2-13,6.8-6.3,15.4c2.3,3,1.9,5,0.5,7.8c-2.8,5.6-5.7,11.2-7.6,17.1
			c-1.2,3.7-0.3,4.9,3.6,4.6c2.6-0.2,5.2-0.7,7.8-0.9c3.2-0.3,5.5-1.4,6-5.2c0.3-2.2,1.1-4.4,3-6.1c0.4,0.6,0.9,1.1,1.2,1.6
			c7.7,12.2,5.8,9.1,16.4,4c2.6-1.3,2.9-2.7,1.3-5c-1.6-2.4-3.7-4.5-4.6-7.7c5.8,0,11.2,0,16.6,0c4.5,0,9.4,0.3,13-2.2
			c4.7-3.2,9.3-2.4,14.1-2c4.3,0.3,8.5,1,12.8,0.8c4.5-0.2,7,1.9,8.5,6.1c-2.7,1.7-5.6,3.3-8.3,5.1c-4,2.6-7.9,5.4-10.8,9.2
			c-1.9,2.4-3,5.1-2.4,8.3c0.3,1.3,0.6,2.8,2.4,2.6c1.6-0.2,1.3-1.6,1.2-2.8c-0.1-1.4-0.6-2.9,1.3-4.1c0.9,4.7,2.1,9.1,4.5,13.1
			c0.6,1,1.4,2.1,2.7,1.5c1.3-0.7,0.9-2,0.3-3c-1.5-2.8-2.9-5.6-3.4-8.7s-1.3-6.3,1.1-9.2c1.1,1.2,0.7,2.4,0.9,3.5
			c0.6,3.1,1.4,6.1,3,8.8c0.7,1.2,1.3,3.2,3.1,2.4c2.1-0.9,0.6-2.5,0.1-3.8c-0.4-1.1-1.1-2-1.4-3.1c-1.2-3.6-2-7.3-0.8-11.6
			c1.8,1.8,1.4,3.5,1.6,5.1c1,6.2,3.8,11.5,7.5,16.4c0.7,0.9,1.7,1.9,2.9,1.1c1.2-0.9,0.6-2-0.1-3c-0.9-1.4-1.9-2.7-2.7-4.1
			c-2.9-4.9-4.6-10.1-4.5-15.9c0-3,2.3-4.4,4.3-4.5c3-0.2,2,2.6,2,4.4c0,1.8,0.1,3.6,0.5,5.4c0.6,2.7,2.2,5.3,2.3,8
			c0.3,7.9,4.7,13.5,9.7,18.7c3.2,3.3,7.5,4.2,11.8,2c2.1-1.1,3.6-0.8,5.4,0.5c4.8,3.4,9.8,6.6,14.6,10.1c2.5,1.9,5.6,3.2,7.5,6.5
			c-5.5-0.1-10.4,0.2-14.5-4c-2.7-2.8-6.8-3.1-10.7-2.1c-4.1,1-7.6,3.1-10.8,5.7c-2.3,1.9-4.3,1.7-5.6-1c-2-4.4-6.9-7.7-4.9-13.6
			c0.3-1-0.5-2.6-1.2-3.6c-2.7-4.2-6.8-6.6-11.2-8.5c-2-0.8-3.3,0.1-3.3,2.2c0,4.8,0.5,9.5,3.1,13.8c1.5,2.4,3.6,4.1,6.4,4.1
			c4.1,0,5.5,2.6,7.2,6.4c-4.4-0.8-8.3-1.6-12.1-2.3c-0.5-0.1-1.1-0.2-1.4-0.5c-1.4-2-2.6-4.1-4.1-6c-1.2-1.5-2.7-2.9-4.2-4.2
			c-1.1-0.9-1.6-1.6-1.5-3.2c0.6-8.4-6.3-16-14.6-16.4c-1.9-0.1-3.1,0.5-3.3,2.7c-0.8,7.6,5.5,16.4,13,17.9c4.3,0.8,7.4,3.8,8.6,8.3
			c-5.9-1.1-11.8-1.9-17.5-3.3c-5.5-1.4-9.2-7.6-8.4-13c0.3-2,0.1-3.9-0.8-5.8c-2.8-5.7-7.9-9.2-13.1-12.3c-1.8-1.1-3.2-0.2-3.3,2
			c-0.2,5.1,0,10.2,2.3,15c1.3,2.6,3.3,4.9,6.2,5.1c4.7,0.2,6,3.5,7.9,7.1c-4.6,0-8.5-1-12.6-1.7c-5.8-1-9.8-5.7-9.1-11.4
			c1.2-9.7-4.9-14-11.3-16.9c-2.3-1.1-3.5-0.3-3.6,2.1c-0.2,4.6,0,9.2,2.1,13.5c1.3,2.7,3.3,4.8,6.3,5.1c3.9,0.3,4.4,3,5.4,6.1
			c-2.6-0.3-4.7-0.5-6.8-0.7c-7.2-1-8.2-1.9-9.3-9.4c-0.9-6.5-5.5-9.8-10.7-12.6c-1.6-0.9-2.8-0.3-3.4,1.5
			c-2.3,7.2,1.9,14.6,9.3,16.3c1.2,0.3,2.8,0,2.6,2.3c-4.3,0-8.7,0.8-11.4-4.2c-1.7-3.1-5.1-4-8.6-3.9c-4,0.1-7.7,1.5-11.3,3.2
			c-3.2,1.4-3.5,3.4-1.9,6.3c4.5,8.3,12.9,10.6,20.8,4.6c5.1-3.8,9.6-2.2,14.9-1.6c-1.2,2.5-2.8,2.3-4.7,2c-2.5-0.5-4.9,0.1-7,1.7
			c-4.6,3.5-6.4,8.6-7.6,14c-0.4,1.5,0.4,2.4,2,2.8c8.3,2,17.7-4.4,18.1-12.9c0.2-4.5,3.8-6.2,6.2-6.3c5.5-0.4,11.1,0.8,17,2.3
			c-1.8,2-3.2,2.7-5.2,2.7c-7.9-0.2-12.7,3.8-14.5,11.8c-0.8,3.6-0.2,4.4,3.6,4.5c2,0.1,4-0.1,5.9-0.3c7.6-1.1,10.6-4.3,10.7-12
			c0-2.1,1-2.8,2.6-3.6c5.6-2.9,11.1-1.2,17.4,0.3c-3.6,2.1-5.2,5.8-9.2,6.1c-7,0.6-10.1,2.9-11.9,9.6c-0.7,2.4-2.2,5.4,0.2,7.4
			c2.1,1.8,4.7,0.1,7-0.5c1.3-0.3,2.5-0.8,3.7-1.4c4.5-2.2,7.5-5.5,6.5-10.9c-0.4-2.2,0.6-3.4,2.1-4.6c6-5.2,17.7-5.5,25.5-0.5
			c-6.1,3.9-6.1,3.9-8.6,3.7c-7.9-0.7-14.5,3.9-16.7,11.6c-0.9,3,0.3,4.8,3.4,5.3c3,0.5,5.9,0.3,8.8-0.3c6.9-1.3,9.6-4.3,9.8-11.4
			c0.1-2.2,0.9-3.4,2.6-4.3c2-1.2,4.1-2.2,6.4-2.5c8.1-1.2,15.9,0,23.2,3.8c3.8,2,7.6,3.9,12,4.3c4.3,0.4,8-0.9,10-4.8
			c1.4-2.8,3.4-3.2,6-2.8c2.6,0.4,5.3,0.5,7.8,1.2c10.3,2.8,15.7,11.2,21.4,19.3c-66.1,0-132.2,0-198.3,0.1c-3.4,0-4-0.7-4-4
			C2,225.7,2,133.6,2,41.5c8.2,3.6,15.4,1.4,22.1-3.7c2.3-1.7,4.6-1.5,7-1.3c3.8,0.3,8.5-2,10.9-0.4c2.7,1.7,3,6.9,4.7,10.4
			c2.3,4.6,5.5,8.2,11.4,7.8c1.7-0.1,2.7,0.9,3.1,2.8c-3.4,0.5-6.4-1.2-9.6-1.4c-2.2-0.2-3-1.1-3.6-3.2c-1.2-4.5-4.5-6.7-9.1-6.9
			c-4.2-0.3-8.2,0.7-12.1,2c-2.8,1-3.1,2.6-1.5,4.9c2.4,3.4,5,6.5,8.7,8.6c3.6,2.1,7.4,2.4,10.6-0.3c2.4-2,4.6-2.1,7.3-1.6
			c11.5,2.3,22.4,6.3,32.9,11.5c2,1,2.9,2.3,3.2,4.5c0.7,5.5,3.1,9.7,9.1,10.8c0.8,0.1,1.7,0.5,2.1,1.1c2.9,4.1,5.9,8.1,7.8,13.5
			c-7.3-1.9-13.9-3.7-20.5-5.4c-1.5-0.4-2.2-1.2-2.7-2.5c-1.4-3.6-4-6.4-7.2-8.6c-2.2-1.5-2.9-3.1-2.6-5.7c0.6-5.1-1.9-8.8-6-11.6
			c-4.2-2.8-9-3.9-13.8-5c-2.1-0.5-3.3,0.5-2.9,2.6c1.3,6.3,2.9,12.5,7.4,17.5c2.5,2.7,5.6,4,9.3,3.7c5.7-0.4,9.6,2.2,11.6,8
			c-8.4-1.3-16.6-3-24.9-3.7c-0.3,0-0.7-0.1-1-0.1c-1-0.1-1.8-0.6-2.7-1.2c-9.2-5.9-18.7-5.2-27.2,1.7c-2.5,2-2.4,3.8,0,5.5
			c2.9,2.1,6.2,3.7,9.7,4.8c7.2,2.3,13.7,1.7,18.4-5c0.9-1.3,1.9-2.2,3.6-2.1c7.3,0.7,14.4,1.8,21.5,3.8c-2.9,1.6-5.6,3.3-9.2,2.4
			c-7.8-2-16.2,2.2-19.8,9.4c-1.1,2.2-0.9,4,1.8,4.3c5.9,0.7,11.8,1.1,17.6-0.6c3.6-1.1,6-3.3,6.2-7.3c0.1-1-0.4-2.2,0.7-2.7
			c3.5-1.4,6.8-4.4,10.5-4c7.4,0.8,14.6,3.2,22,5.8c-2.9,3.1-5.4,3.5-8.9,2.4c-8.4-2.5-15.5,1.1-18.5,8.7c-0.9,2.3-0.7,3.9,2.1,4.3
			c4.7,0.6,9.4,1.6,14.2,0.8c4.1-0.7,6.9-2.6,7.6-7.2c0.4-3,7.2-7.7,10.1-6.8c6.2,2,12.4,4.2,18.7,7.3c-3.2,1.5-5.9,2.4-9,1.9
			c-9.2-1.7-15.8,2-19.5,10.9c-1.2,2.8-0.5,4.1,2.5,4.2c5.3,0.2,10.5-0.3,15.5-2.3c3.1-1.2,5.3-3.4,5.4-6.9c0-1.5,0.5-2.2,2-2.9
			c5.3-2.3,10.3-3.3,15.6,0.4c3.3,2.3,7.3,3.8,10.9,5.7c0.9,0.5,2.2,0.6,2.1,1.9c-4.3,1.9-8.4,1.9-12.9,0.6
			c-5.9-1.7-11.1,1-14.1,6.3c-2,3.5-0.9,5.7,3.1,6.1c4.1,0.4,8.2,0,12.2-1c2.8-0.7,5.4-1.8,6-5.1c0.2-1.4,1.2-2,2.3-2.3
			c5.1-1.1,10.2-2.3,15.2,1.1c5.1,3.5,10.6,6.5,15.7,10.1c8.1,5.6,16,11.4,24.1,17.2c0,26.6,0,53.3,0,79.9
			c-9-12.1-18.1-24.2-28.1-35.6c-1.9-2.1-3-4.7-3.5-7.5c-0.9-4.7-1.3-9.4-1.1-14.2c0.1-4.5,0.9-8.5,4.3-12.1
			c4.6-5,3.5-12.6-1.7-17.2c-2.2-2-4.3-2-6.4,0.2c-4.4,4.5-5.1,10.5-1.6,16.3c0.9,1.5,2.8,2.7,2.6,4.6c-0.7,6.7-1.2,13.4-0.5,20.3
			c-2.5-2-4.4-4.3-6.6-6.2c-6.1-5-7.2-11.8-7.1-19c0-2,0.6-3.7,1.9-5.4c6.1-8.1,5.7-17.4-0.8-25.4c-2.5-3.1-4.3-3-6.3,0.6
			c-1.9,3.3-3.3,6.8-4,10.6c-0.7,4.2-1,8.8,2.4,11.6c5.4,4.6,2.4,10,2.9,15.1c-8.3-6.8-16.1-13.8-24-20.7c-0.7-0.7-1.1-1.6-1.4-2.5
			c-3.1-10.3-7.8-13.8-18-13.5c-5.7,0.1-6.6,1.6-4.5,7c1.1,2.9,2.6,5.7,4.7,8c3.3,3.7,7.7,6.2,12.2,4.7c4.7-1.6,7,0.8,9.7,3.2
			c4.7,4.2,9.3,8.3,13.9,12.6c1.1,1.1,2.7,1.9,3,3.7c-4.8,0.1-9.5-0.2-13.6-3.1c-1.9-1.3-5.4-0.8-6.1-2.7c-1.7-4.7-5.8-4.2-9.2-5.2
			c-1.3-0.4-2.7,0.2-4-1.2c-5-5.8-18.6-7.6-25.1-3.6c-0.7,0.5-1.4,1-1.1,1.9c0.2,0.9,1,1.3,1.9,1.2c2.1-0.3,4.2-0.9,6.3-1.2
			c4.8-0.7,9.5-0.4,14,2.1c-1.5,1.5-2.9,1.3-4.1,1.8c-1.7,0.7-4.9,0.4-4.2,3c0.7,2.7,3.4,0.7,5.1,0.3c5.5-1.1,10.8-1.7,16.2,0.8
			c-1,1.7-2.7,1.8-3.8,2.7c-4.5,3.6-4.6,7.2-0.4,11.1c4.9,4.5,10,4.5,16.1,0.2c1.4-1,2.3-2.5,4.7-2c6.1,1.3,15.8,7.8,19.1,13.3
			c-1.7-0.2-2.3-1.8-3.3-2.7c-6.2-5.5-14.8-5.3-20.4,0.7c-1.5,1.6-2.3,3.3-4.7,1.6c-0.7-0.5-1.7-0.4-2.1,0.5c-0.5,1,0.4,1.4,1.1,1.8
			c2.2,0.9,3.8,2.5,5.3,4.3c0.7,0.8,1.3,2.3,2.7,1.4c1.5-0.9-0.9-2.3,0.3-3.5c5.7,4.5,13.9,4.7,18.1,12.4c1.5-4-1.6-5.2-2-6.8
			c1.4-1.6,2.5-2.8,3.5-4.1c1.7-2.1,3.7-2.1,5.6-0.5c4.2,3.4,7.5,7.6,9.1,13.7c-1.3-1-1.8-1.6-2.5-2c-1.4-0.9-2.7-3.4-4.4-1.5
			c-1.5,1.7,1,2.7,2,3.8c1.7,1.9,3.8,3.4,4.4,6.9c-1.6-1.1-2.5-1.8-3.4-2.4c-1.2-0.8-2.7-2.1-3.9-0.6c-1.4,1.7,0.7,2.5,1.8,3.3
			c3.8,2.8,5.9,6.4,6.4,12.2c-2.9-4-5.4-7-9-8.8c-0.9-0.5-2-0.7-2.7,0.2c-0.7,1-0.1,1.9,0.8,2.5c4.5,2.9,7.9,6.5,7.9,12.3
			c0,0.9,0.6,1.6,1.5,1.6s1.3-0.8,1.6-1.6c0.3-1.1-0.4-2.9,0.6-3.2c4.6-1.4,2.4-4.5,2.2-7.2c-0.1-1.4-0.4-2.6,0.1-4.2
			c2-5.5,2-11.1-1.2-16.4c-1.5-2.5-3-5.2-4.6-8c3.3,0,4.4,2.3,5.9,3.9C190.4,220,199.7,233,209.2,245.7z M56.2,178.5
			c0.7-0.1,1.7-0.1,2.7-0.2c0.8-0.1,1.6-0.4,2.4-0.6c3.5-1.3,3.9-2.8,1.6-5.8c-3.8-4.9-9.7-6.2-15.3-3.4c-3.4,1.7-3.6,2.6-1.4,5.5
			C48.7,177.1,52,178.4,56.2,178.5z M97.1,159.9c2.1,0,4.2,0,6.4,0c1.2,0,2.5,0,2.6-1.5c0-1.5-1.4-1.7-2.5-1.8
			c-6-0.6-12.1-0.7-18,0.5c-1.4,0.3-2.8,0.9-4.1,1.5c-1.1,0.5-2,1.5-1.3,2.7c0.5,1,1.7,0.8,2.6,0.4
			C87.3,159.6,92.2,159.7,97.1,159.9z M105.7,200.3c-1.4-4.9-8.1-10.7-12.6-11.3c-0.7-0.1-1.4-0.1-1.8,0.5c-0.5,0.9,0.1,1.5,0.9,1.8
			c3.7,1.5,7,3.4,9.7,6.4C102.8,198.8,103.4,200.4,105.7,200.3z M77.4,196.8c0-2.4-5.6-10.3-7.9-11c-0.4-0.1-1-0.1-1.3,0.2
			c-0.6,0.5-0.5,1.3,0,1.7c3,2.9,5.5,6.1,7.1,9.9c0.1,0.3,0.8,0.6,1.2,0.6C77.3,198.2,77.4,197.5,77.4,196.8z M158.5,222.8
			c0.2-5-5.3-12.2-8.7-12.5c-0.4,0-1.1,0.2-1.3,0.5s-0.1,1.1,0.1,1.3C152.7,214.5,155.1,218.7,158.5,222.8z M131.9,202.8
			c-0.8,0.5-1.4,1.3-0.6,1.9c3.1,2.6,5.4,5.7,7.7,8.9c0.4,0.5,1.1,0.8,1.7,0.1c0.6-0.6,0.4-1.3,0.1-1.8c-1.9-3.3-4.1-6.3-7.3-8.5
			C133,203.1,132.5,203,131.9,202.8z M94,182.6c-0.4,0.2-1,0.3-1.2,0.7c-0.3,0.6,0,1.3,0.6,1.7c3.3,1.8,6.4,3.8,9.3,6.2
			c0.5,0.4,1.3,0.6,1.7-0.1c0.2-0.3,0.2-1,0-1.3C101.6,186.4,97.9,184.4,94,182.6z M100,203.6c-0.3-2.9-5.9-7.7-8.9-7.8
			c-0.7,0-1.4,0.1-1.5,0.9c0,0.4,0.2,1.1,0.5,1.2c3.6,1.2,6.1,3.6,8.1,6.6c0.1,0.2,1,0.3,1.3,0.1C99.9,204.4,99.9,203.8,100,203.6z
			 M112.7,191.9c-0.4,0.2-0.9,0.3-1.2,0.6c-0.5,0.6-0.2,1.3,0.4,1.6c3.2,1.6,6.2,3.4,9,5.8c0.3,0.2,1,0.2,1.3,0
			c0.6-0.4,0.7-1.1,0.2-1.7C119.8,195.2,116.5,193.3,112.7,191.9z M155,226.5c0.8-0.2,0.9-0.8,0.8-1.5c-0.3-1.8-5.4-7.2-7.3-7.6
			c-0.4-0.1-1.1,0-1.3,0.2c-0.8,0.8-0.2,1.6,0.4,2c2.3,1.6,4.2,3.6,5.8,5.9C153.8,226.1,154.3,226.6,155,226.5z M121.1,206
			c0.3-2.5-6.7-8-9-7.1c-0.3,0.1-0.6,0.4-0.7,0.6c-0.3,0.8,0.2,1.3,0.8,1.6c2.8,1.1,5.2,2.8,6.8,5.4c0.2,0.3,0.8,0.5,1.2,0.5
			C120.8,207,121.1,206.6,121.1,206z M81.4,168.2c-0.7-0.1-1.3,0.1-1.5,0.9c-0.2,0.8,0.3,1.3,0.9,1.5c2.8,0.9,4.9,2.5,6.7,4.8
			c0.4,0.6,1.1,1.3,2,0.5c0.5-0.5,0.3-1.2,0.1-1.8C88.6,171.7,83.7,168.2,81.4,168.2z M74.6,202.4c0.2-2.3-5.6-9.1-7.4-9.3
			c-0.4,0-1,0.2-1.2,0.5s-0.1,1,0.2,1.3c2.2,2.3,4.5,4.6,6.3,7.3c0.2,0.3,0.8,0.5,1.2,0.5C74.2,202.8,74.6,202.4,74.6,202.4z
			 M137,217.6c0-2.3-4.7-7.1-6.9-7.3c-0.4,0-1.1,0.2-1.3,0.5s-0.1,1.1,0.1,1.3c2.5,1.7,4.7,3.6,6.1,6.2c0.1,0.3,0.9,0.4,1.3,0.3
			C136.7,218.5,136.8,217.9,137,217.6z M120.4,211.5c0.1-2.4-6.4-7.5-8.4-6.6c-0.9,0.4-1,1.5-0.2,1.9c2.7,1.4,4.8,3.2,6.9,5.4
			C119.4,213,120.2,212.3,120.4,211.5z M85.5,181c-0.3-3.8-4.3-7.9-7.4-7.8c-0.4,0-1,0.3-1.2,0.6s0,1.1,0.2,1.3
			C80.3,176.4,82.5,179.1,85.5,181z M73.9,180.1c-0.2,0.1-0.8,0.3-1,0.6c-0.4,0.7,0,1.3,0.6,1.6c2.4,1.3,4.2,3,5.4,5.4
			c0.3,0.6,1,0.9,1.6,0.5c0.3-0.2,0.5-0.8,0.5-1.3C81,184.7,76.4,180.2,73.9,180.1z M117.9,217.8c-0.5-2.3-1.8-3.9-3.5-5.2
			c-1.1-0.9-2.5-2.6-3.6-1.5c-1.6,1.6,0.9,2.2,1.7,3.1c1.1,1.4,2.2,2.7,3.4,4.1c0.3,0.4,0.8,0.7,1.2,0.4
			C117.4,218.5,117.7,218.1,117.9,217.8z M107.2,185.4c0-4.6-3.9-8.3-7.3-7.7c-0.4,0.1-1,0.3-1.2,0.7c-0.3,0.7,0.1,1.4,0.8,1.5
			C102.6,180.5,104.6,182.6,107.2,185.4z M134.2,223.8c-0.8-2.1-1.8-3.9-3.4-5.4c-0.9-0.8-2-2.4-3.2-1.4c-1.6,1.4,0.5,2.1,1.2,3
			c1,1.5,2,2.9,3.1,4.4c0.4,0.6,1,0.9,1.7,0.6C133.9,224.8,134,224.2,134.2,223.8z M90,201.6c-0.5,0.3-1,0.5-1.2,0.8
			c-0.4,0.5-0.1,1,0.3,1.3c1.1,0.8,2.2,1.5,3.3,2.1c1.3,0.6,2.2,3.7,3.7,1.7c1.2-1.6-1.3-3-2.6-4C92.4,202.7,91.2,202.3,90,201.6z
			 M123,192.1c0.2-2.5-4.9-6-7-5.1c-0.4,0.2-0.7,0.8-0.7,1.1c0,0.4,0.5,0.9,0.9,1c2,0.6,3.6,1.6,4.8,3.3c0.2,0.3,0.9,0.5,1.2,0.5
			C122.6,192.8,122.8,192.3,123,192.1z M95,211.6c-0.6-1.7-2.4-1.4-3.6-1.6c-1.7-0.3-4-3.2-4.9-0.7c-0.7,2.1,2.8,2.4,4.7,3.2
			c0.7,0.3,1.6,0.4,2.4,0.4C94.2,212.9,94.8,212.5,95,211.6z M65.9,201.5c-0.8,0.1-1.3,0.9-0.6,1.6c2,1.9,4.1,3.6,6.2,5.4
			c0.4,0.3,0.9,0.4,1.3,0c0.2-0.3,0.4-0.9,0.3-1.3C72.7,205.3,67.9,201.4,65.9,201.5z M147.5,224.5c-0.7-0.1-1.3,0.1-1.6,0.8
			c-0.2,0.8,0.3,1.2,0.9,1.5c1.1,0.7,2.1,1.5,3.2,2.2c0.9,0.7,1.5,2.9,2.9,1.6c1.3-1.3-0.4-2.6-1.3-3.7
			C150.5,225.8,149.1,225,147.5,224.5z"/>
		<path class="st0" d="M118.4,2c29.1,0,58.1,0.1,87.2-0.1c3.2,0,3.7,0.9,3.7,3.8c-0.1,49.7-0.1,99.5-0.1,149.2
			c-9.5-5.5-17.8-12.8-27.1-18.5c-1.1-0.7-1.2-1.8-1.1-3c0.5-3.9,2.8-6.9,6.7-8c1.6-0.5,3.1-1.2,4.1-2.6c4-5.6,5-12,4.9-18.7
			c0-1.7-0.9-2.7-2.8-2.6c-9.5,0.3-16.9,10.3-13.6,19.2c1.4,3.9,0,5.9-2.3,8.6c-2.4-5.6-4.1-10.8-3.5-16.6c0.7-6,3.2-8.7,9-9.7
			c2.6-0.4,4.7-1.5,6.2-3.7c3-4.5,3.3-9.5,2.8-14.7c-0.2-1.8-1.3-2.9-3.4-2.8c-6.3,0.3-13.5,7.4-12.4,13.6c1,5.6-2.4,8.1-5,11.7
			c-1.4-1.9-1.4-3.8-1.8-5.5c-0.7-2.7-1.4-5.4-1.7-8.2c-0.5-4.5,2.5-7.6,4.8-10.9c2.1-3,4.6-1.5,7.1-1.2c2,0.2,4-0.2,5.7-1.2
			c4.8-2.9,7-7.7,8.6-12.8c0.6-1.9-0.6-3.2-2.3-3.9c-5.5-2.3-17.3,3.5-17.9,9.5c-0.6,5.3-4.5,7.4-7.2,11.1
			c-1.6-4.4-2.7-10.8-2.4-13.9c0.3-3.3,2.2-5.7,4.7-7.8c2.4-2.1,4.2-0.1,6.3,0.6c3.6,1.2,6.8,0.2,9.4-2.5c2.8-2.9,4.5-6.5,5.8-10.2
			c0.6-1.6,0.5-2.8-1.1-3.8c-5-2.9-16.2,0.5-17.3,6c-1.1,5.7-5.5,6.9-9.2,10c-1-5.3,0.3-9.7,2.2-13.9c1.1-2.4,2.5-3.4,5.3-3.1
			c5.2,0.6,8.7-2.2,11-6.7c2.1-4.2,2.6-8.8,3-13.4c0.2-2.2-0.9-2.9-3-2.5c-7.8,1.6-14.4,8.1-15.5,16c-0.4,3.1-1.9,5.2-4.5,7.8
			c-0.2-3.8-2.4-6.8,0.7-9.9c7.1-7.2,6.8-14.3-0.7-21.1c-2.5-2.3-4.4-2.1-6.5,0.7c-4,5.4-4.1,12.4-0.2,17.9c0.8,1.2,2.2,2.1,2.2,3.7
			c0,1,0.9,2.6-0.7,2.9c-1.6,0.3-1.6-1.2-1.8-2.4c-0.6-4.1-2.5-7.5-6.3-9.4c-4.6-2.3-9.5-2.5-14.5-1.9c-2.5,0.3-2.9,1.8-1.8,3.9
			c1.5,3,3.1,5.8,5.2,8.4c4,4.8,8.6,7.6,15.1,5.2c3.4-1.2,5.2,1,5.6,3.8c0.9,5,1.2,10.2,1.7,15.7c-2.8-1.2-5-2.1-5.7-4.9
			c-2.5-9-11.1-10.3-17.3-9.5c-2.9,0.3-4.1,2-3.2,4.8c1.3,3.9,3.2,7.6,6.3,10.4c2.8,2.6,6.1,3.3,9.6,1.9c2.4-1,4.6-2.5,7.1-0.1
			c1.9,1.9,4,3.6,4.5,6.3c0.7,3.7,1.2,7.4,1.8,11.1c-2.6-2.3-6.7-1.7-8.1-5.9c-2.4-7.1-8.9-10-16.3-8.4c-2.7,0.6-3.7,2-2.5,4.6
			c1.7,3.7,3.9,7.3,7.1,9.9c2.6,2.1,5.5,2.9,8.8,1.7c4.8-1.6,6.6-1.1,9.5,2.9c2,2.8,3.7,5.7,4.4,9.2c2.2,10.9,5.2,21.6,9.1,33.1
			c-6.1-3.4-12.7-4.8-13-12.7c0-0.8-0.4-1.6-0.8-2.3c-1.6-2.9-2.5-5.7-1.2-9.2c1.1-3-0.6-5.8-2.7-8c-3.4-3.7-7.8-6-12.3-8
			c-2.1-0.9-3.6-0.3-3.7,2.2c-0.1,5.6,0.1,11.2,2.5,16.4c1.6,3.4,4.2,5.5,8.1,5.5c5.9,0,6.2,0.4,6.8,6.9
			c-7.6-3.6-15.2-7.2-22.7-10.7c-1.3-0.6-2-1.6-2.3-3c-1.1-5.2-3.2-10-5.8-14.6c-0.8-1.4-1.1-2.5-0.1-4c3.1-4.5,2.2-9.1-0.4-13.4
			c-2.6-4.4-6.3-8-10.3-11.2c-2.8-2.2-4.1-1.7-4.5,1.7c-0.8,6.1-0.5,12.1,1.3,18.1c0.9,2.9,2.5,5.3,5.5,6.6
			c5.5,2.3,10.3,10.5,9.8,16.9c-5-1.8-9.9-3.7-14.8-5.4c-1.5-0.5-2.6-1.2-3.1-2.8c-1.4-4.4-4.1-8.2-6.6-12.1c-1.3-2-1.9-3.4,0-5.5
			c3-3.4,2.5-7.3,0.1-10.9c-2-3.1-4.8-5.4-7.8-7.5c-7.2-5.3-7.3-5.3-9.2,3.3c-2.9-0.2-4.4-1.6-4.5-4.6c-0.1-1.6-0.4-3.3-1-4.8
			c-0.9-2.3-0.8-4.2,0.8-6.3c2-2.6,1.5-5.6,0.2-8.4c-2.2-4.4-5.6-7.6-9.5-10.6c-1.8-1.4-3.5-1.2-4.2,1.2c-1.4,5.1-1.9,10.4-0.5,15.6
			c0.8,2.8,2.6,5.2,5.6,5.8c4.9,1,4.7,4.6,5.1,8.7c-3.2-1.2-6-2.3-8.7-3.3c-4.2-1.6-8.9-8.2-9-12.8c0-4.8-1.7-8.6-5.7-11.4
			C54,35,51.5,34.1,49,33.3c-0.8-0.3-2.3-0.3-1.7-1.8c0.5-1.1,1-2.7,2.8-2.1c1.1,0.3,2.1,0.9,3.2,1.2c6.5,2.2,12.4,1.5,17.1-3.9
			c1.8-2.2,3.8-2,6.1-2c12.3,0.4,23.1-3,30.7-13.4c0.9-1.2,1.9-1.7,3.2-2C114.4,8.3,117.1,5.9,118.4,2z"/>
		<polygon class="st1" points="177.3,227.2 179.5,218.8 176.4,209 167.6,197.4 153.2,186 145.3,179.3 130.6,174 129.4,169.9 
			117.8,168 117,165.6 104.3,161.4 106,157.5 94.1,156.3 96.7,152.9 90.7,151.3 83,152.5 71.9,156.2 58,160.3 47.1,162.5 
			41.2,162.5 35,161 29.4,161.1 35,171.2 37.5,180.2 37,183.3 35.1,183.3 30.3,181.3 21.9,175.9 20.7,183.4 23.9,190.6 30.5,195.1 
			38.2,198.7 44.5,209.3 49.5,216.3 57.5,222.7 68.6,227.5 85.4,229.7 101.8,231.2 117.7,232.1 122.4,234.3 125.6,239.1 
			120.7,241.9 115.3,244.9 110.6,249.2 103.5,256.5 104,263.2 114.3,272.1 119.3,265.5 128.7,268.4 148.9,262.8 155.9,261 
			154.4,258.2 160.6,259 161.1,256.6 174.2,248.7 176.4,239.9 179.6,236.6 		"/>
		<g>
			<path class="st1" d="M28.4,166.2c0.4-6.2-3.5-7.9-7-9.4c-0.5-0.2-1-0.4-1.5-0.7c-1.2-0.6-2.9-1.2-4.1-0.3s-1,2.6-0.8,3.8
				c1.2,7.8,5.1,14,11.8,18.9l1.3,0.9l0.3-1.5c0.6-3,0.4-5.6,0.2-7.9C28.4,168.7,28.3,167.4,28.4,166.2z"/>
			<path class="st1" d="M144,260c-0.5-1.2-0.9-2.4-1.4-3.6c-1.6-4.6-3.3-9.4-10-10.1l-1-0.1l-0.1,1c-0.4,5.4,0.4,9,2.5,11.3
				c1.8,2,4.7,2.9,8.7,2.9c0.1,0,0.2,0,0.2,0h1.5L144,260z"/>
			<path class="st1" d="M30.9,166.4l-0.1,2.4c0,0.8,0,1.6-0.1,2.3c0,1.7,0,3.3-0.4,4.7c-0.6,2-0.6,3.5,0.2,4.5c1,1.5,3,1.8,5,2
				l1,0.1l0.1-1c0.6-5.2-0.7-9.6-4-13.3L30.9,166.4z"/>
			<path class="st1" d="M51.4,168.7l-0.3,0.1c-0.2,0.1-0.5,0.2-0.9,0.2c-1,0.2-3,0.7-2.9,2.8c0.1,2.3,2.3,3.7,4.4,3.9
				c0.1,0,0.2,0,0.2,0c0.8,0,1.5-0.3,2-0.8c0.7-0.7,1.1-1.7,1-2.9c0-1.2-0.4-2.1-1-2.7C53.4,168.8,52.5,168.6,51.4,168.7z"/>
		</g>
		<g>
			<path class="st1" d="M85.6,230.1c-7.3-0.6-15-1.4-21.8-4.8c-6.2-3-12.3-2.5-17.9-1.5c-3.3,0.6-5.6,1.9-6.9,4
				c-3.1,4.7-5.8,9.1-7.5,14.5l-0.4,1.2l1.2,0.1c1,0.1,2.1,0.2,3.2,0.2c3.8,0,7.5-1,9.6-5.6c0.2-0.4,0.6-0.9,1-1.3
				c0.4-0.4,0.7-0.8,1-1.2c1.5-2.3,3.3-2.9,6.6-2.5c9.3,1.4,18.8,1.1,26.8,0.7c2.5-0.1,2.8-0.3,5.1-1.8l2.9-1.8L85.6,230.1z"/>
			<path class="st1" d="M35.5,227c0.2,0.1,0.5,0.2,0.7,0.2c0.7,0,1.5-0.4,1.8-0.8c2.9-3,6.7-3.9,10.7-4.8c1.1-0.2,2.2-0.5,3.4-0.8
				l2.1-0.6l-1.8-1.2c-0.9-0.6-1.6-1.6-2.3-2.6c-1.2-1.7-2.6-3.6-5.2-3.6c-3.8,0-7.6,0.6-10.9,2c-1.4,0.6-4.1,1.6-3.2,4.7
				C31.6,222.3,32.7,225.1,35.5,227z"/>
			<path class="st1" d="M38.6,245.4c-1.7-0.8-3.8-0.7-5.9,0.3c-2.6,1.3-4.6,3.9-5.2,6.7l-0.3,1.4l1.4-0.2c0.8-0.1,1.6-0.2,2.4-0.3
				c1.8-0.2,3.6-0.4,5.3-0.7c2.5-0.4,3-2.6,3.3-4.2l0.1-0.2C40.2,246.5,39.2,245.7,38.6,245.4z"/>
			<path class="st1" d="M60.4,243.8c-0.5-0.8-1.4-2.1-3.3-2h-0.2l-1.4,0.7c-1,0.5-2,1-3.1,1.5l-0.2,0.1c-0.7,0.4-1.7,0.9-1.9,1.9
				c-0.2,0.6,0,1.3,0.5,2c0.1,0.2,0.2,0.4,0.3,0.6c0.5,0.8,1.3,2.2,2.8,2.2c0.4,0,0.8-0.1,1.3-0.3c1.1-0.5,2.2-1.1,3.2-1.7
				c0.4-0.2,0.8-0.5,1.2-0.7c1-0.6,1.3-1.3,1.4-1.8c0.1-0.5,0.1-1.2-0.5-2.1C60.6,244.1,60.5,244,60.4,243.8z"/>
			<path class="st1" d="M56.4,239.5c0.2-0.7,0.1-1.3-0.3-2.1c-1.2-2.2-3.2-3.1-5.2-2.4c-2.6,0.9-4.1,2.7-4.2,5
				c-0.1,1.5,0.9,3.2,3.1,3.5h0.3L55,241C55.6,240.7,56.2,240.2,56.4,239.5z"/>
		</g>
		<g>
			<path class="st2" d="M36.1,59.3c1.1,0.5,2.2,0.8,3.2,0.8c1.6,0,3.1-0.6,4.6-1.8c1.2-1,2.7-2.6,1.7-5.3c-1.1-3-3.2-4.6-6.3-4.9
				c-4-0.3-7.4,0.2-11.1,1.8l-1.1,0.5l0.7,1C29.9,54.4,32.4,57.4,36.1,59.3z"/>
			<path class="st2" d="M143.2,41.7c1.7,1.1,3.3,1.7,4.7,1.7c1.3,0,2.4-0.5,3.3-1.4c2.4-2.7,0.2-6.1-0.9-7.9c-1-1.6-2.7-2.7-4.9-3.4
				c-3.3-1-6.1-1.5-9.7-0.6l-1.2,0.3l0.5,1.1C136.8,35,139.1,39,143.2,41.7z"/>
			<path class="st2" d="M143.5,64.5c0.9,0.5,1.9,0.7,2.8,0.7c1.7,0,3.4-0.7,4.7-2.2c1.8-1.9,0.4-4-0.5-5.4c-0.1-0.2-0.3-0.4-0.4-0.6
				c-2.3-3.8-6.3-4.6-9.5-4.8L140,52l-0.2,0.4c-0.2,0-0.4-0.1-0.6-0.1c-0.7-0.1-1.7-0.3-2.4,0.4c-0.6,0.7-0.5,1.7-0.3,2.3
				C137.5,59.4,140,62.7,143.5,64.5z"/>
			<path class="st2" d="M178.1,39.9c2.7-4,3.8-7.9,3.5-12.2l-0.1-1.2l-1.1,0.3c-6.4,1.7-10.8,6.1-11.6,11.6c-0.2,1.4-0.3,3,0.7,3.9
				c0.6,0.5,1.3,0.7,2.2,0.7c0.6,0,1.2-0.1,1.8-0.2C175.4,42.4,177,41.4,178.1,39.9z"/>
			<path class="st2" d="M73.1,35.9L72,35.1l-0.4,1.3c-1.4,4.4-1.6,8.2-0.5,12c0.9,3.1,2.7,4.8,5.3,4.8c0.3,0,0.7,0,1.1-0.1
				c1.4-0.2,2.5-1.1,3.2-2.4c0.9-1.7,1-3.9,0.2-5.8C79.4,41.6,77,38.8,73.1,35.9z"/>
			<path class="st2" d="M159.2,17l-0.8-0.8l-0.7,0.9c-3.2,4.4-4,8.6-2.3,12.8l0.1,0.3c0.6,1.7,1.7,4.4,4.2,4.4c0.1,0,0.3,0,0.4,0
				c3-0.4,4.5-3.3,4.8-5.9C165.6,23.6,162.6,20.1,159.2,17z"/>
			<path class="st2" d="M57.6,51.1c2.7-1.5,1.9-4.5,1.4-6.3v-0.2c-1.5-5.6-5.8-7.7-11.8-9.1l-1.5-0.4l0.3,1.5
				c1.1,5.3,2.7,9,5.4,12.2c0.8,0.9,2.3,2.8,4.4,2.8C56.3,51.6,56.9,51.5,57.6,51.1z"/>
			<path class="st2" d="M190.6,65.8c-4.9,0.3-9.6,1-12.8,5.1c-1.8,2.3-2,4.9-0.4,6.7c0.8,0.9,2,1.4,3.4,1.4c0.9,0,1.9-0.2,2.8-0.7
				c5-2.3,6.9-6.8,8.1-11.3l0.4-1.4L190.6,65.8z"/>
			<path class="st2" d="M181.4,60.1c2.8-1.7,4.2-4.4,5.5-7l0.1-0.3c0.3-0.6,1.2-2.3,0.3-3.6c-0.8-1.2-2.5-1-3.2-0.9
				c-0.1,0-0.1,0-0.2,0c-5.2,0-8.6,2.2-9.7,6.1l-0.1,0.2c-0.4,1.5-1,3.8,1.1,5.3c0.9,0.7,2,1.1,3,1.1
				C179.3,61,180.4,60.7,181.4,60.1z"/>
			<path class="st2" d="M152,78.3c-1.3-3.4-4.6-7-12.7-5.5l-1.2,0.2l0.4,1.1c1.9,4.7,4.2,7.6,7.7,9.4c0.9,0.5,1.7,0.7,2.6,0.7
				c1.2,0,2.3-0.4,3.2-1.3c1.5-1.4,0.7-3.1,0.2-4.2C152.2,78.6,152.1,78.5,152,78.3z"/>
			<path class="st2" d="M35.9,282.8c-0.5-3.5-3.3-5.9-7.1-6.2c-3.8-0.3-7.2,1-10.4,2.5c-0.9,0.4-1.5,1-1.7,1.7
				c-0.2,0.8,0,1.6,0.6,2.5c2.4,3.8,5.4,5.6,9.5,5.7h0.1H27c0.3-0.1,0.5-0.1,0.9-0.2c0.8-0.2,1.9-0.4,2.8-0.9
				c0.4-0.2,0.9-0.4,1.5-0.6C33.8,286.7,36.3,285.8,35.9,282.8z"/>
			<path class="st2" d="M38.9,293.1c-2.6,2.5-4.1,5.6-5,9.8l-0.2,1.1l1.1,0.1c0.5,0,1,0,1.5,0c4.3,0,7.5-1.3,9.9-4
				c3.7-4.2,2.3-6.8,1.1-8C45,290,41.7,290.3,38.9,293.1z"/>
			<path class="st2" d="M65.7,295.1c-4.5,0.6-6.6,4-8,7.2c-0.2,0.5-1,2.2-0.1,3.3c0.6,0.7,1.5,0.9,2.2,0.9c0.4,0,0.8,0,1-0.1
				l0.6-0.1c2.6-0.3,5.4-0.6,7.8-2.3c2.6-1.9,3.6-4.3,2.7-6.6C70.7,294.5,67.3,294.9,65.7,295.1z"/>
			<path class="st2" d="M61.5,276.5c0.5,0,1-0.1,1.5-0.3c1.7-0.8,1.6-2.6,1.6-3.6v-0.4c-0.1-4.9-2.7-8.2-8.7-11l-1.5-0.7l0.1,1.7
				c0,0.6,0.1,1.1,0.1,1.6c0.3,4.2,0.6,8.1,3.7,11.1C59.3,276,60.5,276.5,61.5,276.5z"/>
			<path class="st2" d="M122.7,274.3l-1.2-0.5l-0.1,1.3c-0.4,3.9,0.3,7.2,2.2,10.3c1.5,2.3,3,3,4.2,3c0.8,0,1.5-0.3,2-0.5
				c2.2-1.2,2.7-3.7,1.3-6.6C129.2,277.5,125.8,275.7,122.7,274.3z"/>
			<path class="st2" d="M40.1,265.9l-1.2-0.5l-0.2,1.3c-0.7,5.4,0.8,8.8,4.5,10.2l0.1,0.1c0.4,0.2,1,0.4,1.6,0.4
				c0.5,0,1-0.1,1.5-0.5c1.3-1,0.8-2.4,0.6-3.2v-0.1C45.8,269.8,43.6,267.3,40.1,265.9z"/>
		</g>
		<g>
			<path class="st2" d="M62.9,20.6c-1.1-0.5-2.2-0.9-3.1-1.5C54,15.4,52.9,10.7,56.4,5c0.3-0.5,0.7-1.1,1.1-1.6
				c0.2-0.3,0.4-0.5,0.6-0.8L59.2,1H45C31.8,1,18.2,1,4.8,0.9c-1.2,0-2.3,0-3.1,0.8C1,2.5,0.9,3.6,0.9,4.7C1.1,12.4,1,20.3,1,28
				c0,2.8,0,5.7,0,8.5v0.6l0.5,0.3c3.5,2.2,6.6,3.3,9.5,3.3c3.5,0,6.7-1.5,10.3-4.6l0.6-0.5l-0.4-0.7c-0.6-1.2-1.6-1.7-2.5-2.2
				c-0.4-0.2-0.8-0.4-1.2-0.7c-3.4-2.8-4.9-5.6-4.9-8.8c0-5.7,2.3-10.4,6.3-13.2c4.2-2.9,9.8-3.2,15.6-0.9c3.2,1.2,5.1,3.9,5.1,7
				c0,2.9-1.7,5.6-4.5,7.1c-3.2,1.7-6.6,1.5-10.3-0.6c-0.9-0.5-1.5-1.4-1.7-2.5s0-2.2,0.5-3c0.5-0.7,0.7-0.7,1-0.7
				c0.2,0,0.5,0.1,0.4,0.8c0,0.2-0.1,0.5-0.1,0.7c-0.2,1-0.6,2.8,1.3,3.8c3.1,1.5,5.7,1.6,8,0.3c2.5-1.4,3.8-3.7,3.6-6.2
				c-0.3-2.7-2.1-4.8-5-5.7c-2.8-0.9-5.9-1-9.3-0.3c-5.4,1.1-9.4,6.5-9.5,12.6c0,5.3,3.5,9.4,9,10.6c4.4,0.9,8.3,1.3,12,1.1
				c3.8-0.2,8.5-1.1,11-6.2c0.4-0.8,0.8-1.3,1.4-1.5c0.6-0.2,1.5-0.1,2.6,0.5c2.1,1,4.6,2.1,7.3,2.5c4.5,0.5,7.9-0.8,10.6-4.1
				l0.6-0.7L68.1,24C66.6,22.2,64.7,21.4,62.9,20.6z"/>
			<path class="st2" d="M91.6,1l0.2,1.2c0.8,4.1-0.6,6.9-4.6,9.4c-3.3,2.1-8.6,2.4-11,0.6c-1.2-0.9-1.9-2-2.1-3.4
				c-0.2-1.5,0-1.6,0.4-1.7c0.2,0,0.2-0.1,0.6,0.7c0.1,0.2,0.2,0.4,0.3,0.5c2.2,3.7,5.5,4.5,9.9,2.5c4.2-1.9,5.8-5.2,4.4-9.2L89.5,1
				H60.4l-0.1,0.8c-0.2,0.9-0.8,1.6-1.4,2.5c-0.5,0.5-0.9,1.1-1.3,1.8c-2.7,4.8-1.9,8.4,2.6,11.4c4.9,3.4,11.4,5,17.9,5
				c9.2,0,18.7-3.2,24.4-9.3c0.5-0.6,1.1-1.2,1.6-1.7c2.2-2.5,4.3-4.8,7.7-5.4c1.6-0.3,3-1.6,3.7-3.7l0.5-1.3L91.6,1L91.6,1z"/>
		</g>
		<path d="M118.4,2c-1.3,3.9-4.1,6.3-8,7.3c-1.3,0.4-2.4,0.9-3.2,2c-7.7,10.4-18.4,13.8-30.7,13.4c-2.3-0.1-4.3-0.2-6.1,2
			c-4.6,5.4-10.6,6.1-17.1,3.9c-1.1-0.4-2.1-0.9-3.2-1.2c-1.8-0.6-2.3,1-2.8,2.1c-0.6,1.4,0.9,1.5,1.7,1.8c2.5,0.8,5,1.7,7.1,3.3
			c3.9,2.8,5.6,6.7,5.7,11.4c0,4.6,4.7,11.2,9,12.8c2.7,1,5.4,2.1,8.7,3.3c-0.4-4.2-0.2-7.7-5.1-8.7c-2.9-0.6-4.8-2.9-5.6-5.8
			c-1.5-5.2-0.9-10.4,0.5-15.6c0.7-2.4,2.4-2.6,4.2-1.2c3.8,2.9,7.3,6.2,9.5,10.6c1.4,2.8,1.8,5.8-0.2,8.4c-1.6,2.1-1.7,4-0.8,6.3
			c0.6,1.5,1,3.2,1,4.8c0.1,3,1.6,4.5,4.5,4.6c1.9-8.6,2-8.6,9.2-3.3c2.9,2.1,5.8,4.4,7.8,7.5c2.4,3.7,2.9,7.5-0.1,10.9
			c-1.9,2.1-1.3,3.6,0,5.5c2.5,3.8,5.2,7.6,6.6,12.1c0.5,1.7,1.6,2.3,3.1,2.8c4.9,1.8,9.9,3.6,14.8,5.4c0.5-6.4-4.3-14.6-9.8-16.9
			c-3-1.3-4.6-3.7-5.5-6.6c-1.8-5.9-2.1-12-1.3-18.1c0.4-3.4,1.8-3.9,4.5-1.7c4,3.2,7.6,6.8,10.3,11.2c2.6,4.4,3.5,8.9,0.4,13.4
			c-1,1.5-0.7,2.7,0.1,4c2.6,4.6,4.7,9.4,5.8,14.6c0.3,1.4,1,2.4,2.3,3c7.5,3.5,15.1,7.1,22.7,10.7c-0.6-6.5-0.9-6.9-6.8-6.9
			c-3.9,0-6.5-2.1-8.1-5.5c-2.4-5.2-2.6-10.8-2.5-16.4c0.1-2.5,1.6-3.1,3.7-2.2c4.5,2,8.9,4.3,12.3,8c2.1,2.3,3.8,5.1,2.7,8
			c-1.3,3.5-0.4,6.3,1.2,9.2c0.4,0.7,0.8,1.5,0.8,2.3c0.3,7.9,6.9,9.2,13,12.7c-3.9-11.5-6.9-22.2-9.1-33.1
			c-0.7-3.5-2.4-6.4-4.4-9.2c-2.9-4-4.7-4.5-9.5-2.9c-3.3,1.1-6.2,0.4-8.8-1.7c-3.3-2.7-5.4-6.2-7.1-9.9c-1.2-2.6-0.1-3.9,2.5-4.6
			c7.3-1.7,13.9,1.3,16.3,8.4c1.4,4.2,5.5,3.6,8.1,5.9c-0.6-3.7-1.1-7.4-1.8-11.1c-0.5-2.7-2.6-4.5-4.5-6.3
			c-2.5-2.5-4.7-0.9-7.1,0.1c-3.5,1.4-6.8,0.7-9.6-1.9c-3.1-2.8-5-6.5-6.3-10.4c-0.9-2.8,0.3-4.5,3.2-4.8c6.2-0.7,14.8,0.5,17.3,9.5
			c0.8,2.8,2.9,3.7,5.7,4.9c-0.6-5.5-0.9-10.6-1.7-15.7c-0.5-2.7-2.2-5-5.6-3.8c-6.5,2.4-11.1-0.4-15.1-5.2
			c-2.1-2.6-3.7-5.4-5.2-8.4c-1.1-2.1-0.7-3.6,1.8-3.9c5-0.6,9.9-0.4,14.5,1.9c3.9,1.9,5.7,5.3,6.3,9.4c0.2,1.1,0.2,2.7,1.8,2.4
			s0.7-1.9,0.7-2.9c0-1.7-1.4-2.5-2.2-3.7c-3.9-5.5-3.8-12.6,0.2-17.9c2.1-2.8,4-3,6.5-0.7c7.5,6.8,7.8,14,0.7,21.1
			c-3,3-0.8,6-0.7,9.9c2.6-2.6,4-4.6,4.5-7.8c1.1-7.9,7.7-14.4,15.5-16c2.1-0.4,3.3,0.3,3,2.5c-0.5,4.6-0.9,9.2-3,13.4
			c-2.3,4.5-5.8,7.3-11,6.7c-2.8-0.3-4.3,0.7-5.3,3.1c-1.9,4.3-3.1,8.6-2.2,13.9c3.7-3.1,8.1-4.3,9.2-10c1-5.6,12.2-8.9,17.3-6
			c1.6,0.9,1.7,2.2,1.1,3.8c-1.4,3.7-3,7.3-5.8,10.2c-2.6,2.7-5.8,3.7-9.4,2.5c-2.1-0.7-3.8-2.6-6.3-0.6c-2.5,2.1-4.3,4.4-4.7,7.8
			c-0.3,3.1,0.7,9.5,2.4,13.9c2.7-3.7,6.7-5.8,7.2-11.1c0.7-6,12.4-11.8,17.9-9.5c1.6,0.7,2.9,1.9,2.3,3.9
			c-1.6,5.1-3.8,9.8-8.6,12.8c-1.7,1.1-3.7,1.5-5.7,1.2c-2.5-0.3-5-1.8-7.1,1.2c-2.4,3.4-5.4,6.4-4.8,10.9c0.3,2.8,1,5.5,1.7,8.2
			c0.4,1.7,0.5,3.6,1.8,5.5c2.6-3.7,6-6.2,5-11.7c-1.1-6.2,6.1-13.3,12.4-13.6c2.1-0.1,3.2,1,3.4,2.8c0.5,5.1,0.2,10.2-2.8,14.7
			c-1.5,2.2-3.6,3.2-6.2,3.7c-5.8,1-8.4,3.8-9,9.7c-0.6,5.8,1.1,11,3.5,16.6c2.3-2.7,3.8-4.7,2.3-8.6c-3.3-8.9,4.1-18.9,13.6-19.2
			c1.9-0.1,2.8,0.9,2.8,2.6c0.1,6.7-1,13.1-4.9,18.7c-1,1.4-2.4,2.1-4.1,2.6c-3.9,1.1-6.2,4.1-6.7,8c-0.2,1.3,0,2.4,1.1,3
			c9.4,5.7,17.6,13,27.1,18.5c0,1.6,0,3.3,0,4.9c-8-5.7-16-11.6-24.1-17.2c-5.1-3.5-10.6-6.5-15.7-10.1c-4.9-3.4-10-2.2-15.2-1.1
			c-1.1,0.2-2.1,0.9-2.3,2.3c-0.6,3.3-3.2,4.4-6,5.1c-4,1-8.1,1.4-12.2,1c-4-0.3-5-2.6-3.1-6.1c3-5.3,8.2-8.1,14.1-6.3
			c4.5,1.3,8.6,1.3,12.9-0.6c0-1.3-1.3-1.5-2.1-1.9c-3.6-1.9-7.6-3.4-10.9-5.7c-5.3-3.7-10.3-2.7-15.6-0.4c-1.5,0.7-1.9,1.4-2,2.9
			c-0.1,3.6-2.3,5.7-5.4,6.9c-5,2-10.2,2.5-15.5,2.3c-2.9-0.1-3.7-1.4-2.5-4.2c3.7-8.8,10.3-12.6,19.5-10.9c3.1,0.6,5.8-0.4,9-1.9
			c-6.3-3.2-12.5-5.4-18.7-7.3c-2.9-0.9-9.7,3.8-10.1,6.8c-0.6,4.5-3.4,6.4-7.6,7.2c-4.8,0.9-9.5-0.1-14.2-0.8c-2.8-0.4-3-2-2.1-4.3
			c3-7.6,10.1-11.2,18.5-8.7c3.4,1,6,0.7,8.9-2.4c-7.4-2.5-14.6-5-22-5.8c-3.6-0.4-7,2.6-10.5,4c-1.1,0.4-0.7,1.7-0.7,2.7
			c-0.2,4-2.6,6.2-6.2,7.3c-5.8,1.7-11.7,1.4-17.6,0.6c-2.8-0.3-3-2.1-1.8-4.3c3.6-7.2,12-11.4,19.8-9.4c3.7,0.9,6.3-0.8,9.2-2.4
			c-7.1-2-14.2-3.1-21.5-3.8c-1.7-0.2-2.7,0.8-3.6,2.1c-4.8,6.7-11.2,7.3-18.4,5c-3.5-1.1-6.7-2.6-9.7-4.8c-2.4-1.8-2.5-3.5,0-5.5
			c8.6-6.9,18-7.6,27.2-1.7c0.8,0.5,1.6,1.1,2.7,1.2c0.3,0,0.7,0.1,1,0.1c8.3,0.7,16.5,2.4,24.9,3.7c-2-5.8-5.9-8.4-11.6-8
			c-3.7,0.3-6.8-1-9.3-3.7c-4.5-4.9-6.1-11.2-7.4-17.5c-0.5-2.1,0.7-3.1,2.9-2.6c4.8,1.1,9.6,2.2,13.8,5c4.2,2.7,6.6,6.5,6,11.6
			c-0.3,2.7,0.5,4.2,2.6,5.7c3.1,2.2,5.8,4.9,7.2,8.6c0.5,1.3,1.2,2.2,2.7,2.5c6.6,1.7,13.2,3.5,20.5,5.4C105,95,102,91,99.1,86.9
			c-0.4-0.6-1.3-1-2.1-1.1c-6-1.1-8.4-5.3-9.1-10.8c-0.3-2.2-1.2-3.5-3.2-4.5c-10.3-5.1-21.2-9-32.7-11.3c-2.7-0.5-5-0.4-7.3,1.6
			c-3.2,2.7-7,2.4-10.6,0.3c-3.6-2.1-6.3-5.3-8.7-8.6c-1.6-2.3-1.3-4,1.5-4.9c3.9-1.4,7.9-2.3,12.1-2c4.6,0.3,7.9,2.4,9.1,6.9
			c0.6,2.1,1.4,3.1,3.6,3.2c3.2,0.2,6.2,1.9,9.6,1.4c-0.4-1.9-1.4-2.9-3.1-2.8c-5.9,0.4-9.1-3.2-11.4-7.8c-1.7-3.5-2-8.7-4.7-10.4
			c-2.4-1.5-7.1,0.8-10.9,0.4c-2.4-0.2-4.8-0.4-7,1.3c-6.8,5-14,7.2-22.2,3.7c0-1.6,0-3.3,0-4.9c7.3,4.5,12.3,4.2,18.7-1.2
			c-0.7-1.4-2.3-1.6-3.4-2.5c-3-2.5-5.3-5.5-5.3-9.6C12,10.5,22.5,3.2,35.2,8.1C38.7,9.5,41,12.4,41,16c0,3.3-1.9,6.3-5,8
			c-3.8,2.1-7.7,1.4-11.3-0.7c-2.4-1.4-3-4.9-1.5-7c0.5-0.7,1.1-1.3,2-1.1c1,0.2,1.3,1,1.2,1.9c-0.1,1.3-0.9,2.7,0.7,3.5
			c2.3,1.1,4.7,1.7,7.1,0.3c2-1.1,3.3-2.9,3.1-5.2c-0.2-2.5-2-4.1-4.3-4.9c-2.9-0.9-5.8-0.9-8.8-0.3c-5,1-8.6,6-8.7,11.7
			c0,4.7,3.1,8.5,8.2,9.6c3.8,0.8,7.8,1.3,11.7,1c4.3-0.3,8.1-1.4,10.2-5.7c1.2-2.5,3.1-2.5,5.3-1.4s4.5,2.1,7,2.4
			c3.8,0.4,7.1-0.5,9.7-3.8c-2.5-2.4-5.7-2.9-8.3-4.5c-6.3-4-7.6-9.2-3.7-15.5c0.5-0.8,1.1-1.6,1.7-2.4c1.3,0,2.6,0,3.9,0
			c-0.3,1.9-2,3-2.8,4.5c-2.4,4.3-1.8,7.4,2.3,10.1c11.4,7.8,31.5,5.9,41-4.1c2.9-3,5.2-6.6,9.8-7.4c1.5-0.3,2.4-1.6,2.9-3.1
			C115.8,2,117.1,2,118.4,2z M26.7,93.3c3.8,2.8,7.9,4.5,12.6,4.9c2.7,0.3,5.2-0.3,7.4-2c3.7-2.9,3.6-4.6-0.5-6.8
			C40.4,86.3,32.6,87.8,26.7,93.3z M55.4,66c1.1,5.3,2.6,9.8,6,13.5c2.1,2.3,5.3,3.9,7.9,1.8c2.5-2,1.6-5.3,0.4-8.1
			c-0.3-0.6-0.7-1.1-1.1-1.6C65,68.3,60.7,66.6,55.4,66z M115.7,68.9c-0.4,6.1-0.3,11,1.5,15.7c1,2.7,3,4.7,6,3.8
			c3.2-1,3.1-4,2.4-6.6C124.2,76.6,120.4,73,115.7,68.9z M91.9,65.4c-0.9,4.8-1.2,9.2,0.7,13.3c1.4,3.2,4.8,4.5,7.2,3.3
			c2.8-1.4,3.7-5,1.7-8.1C99.3,70.3,96,67.8,91.9,65.4z M144.5,98.3c0.3,3.1,0.5,6.2,1.7,9.1c0.9,2.2,2.2,4,4.9,4.3
			c2.4,0.2,3.6-1.4,4.6-3.1c1.2-2.2,0.8-4.4-0.7-6.4c-2-2.5-4.6-4.1-7.3-5.7C145.4,95.2,144.2,95.4,144.5,98.3z M193.2,105.8
			c-7.8,1.9-11.3,6.3-10.1,12.2c0.4,1.8,0.6,3.8,2.9,4c2.1,0.2,3.3-1.3,4.2-2.9C192.2,114.9,193.1,110.5,193.2,105.8z M28.7,50.8
			c2.3,3.3,4.6,5.9,7.9,7.6c2.5,1.2,4.7,0.8,6.8-0.9c1.4-1.1,2.1-2.3,1.4-4.2c-0.9-2.6-2.7-4-5.4-4.2C35.9,48.8,32.5,49.1,28.7,50.8
			z M136,31c1.9,4,4.1,7.5,7.7,9.9c2.1,1.4,5,2.4,6.8,0.4s0.3-4.6-1-6.7c-1-1.6-2.6-2.5-4.3-3C142.3,30.7,139.5,30.1,136,31z
			 M52.5,109.8c5,1.2,9.7,0.8,14.4-0.6c1.8-0.5,3.4-1.7,3.1-3.9c-0.3-2-2.2-2.2-3.7-2.6C60.9,101.4,55.8,103.9,52.5,109.8z
			 M91,117.5c2.1,0.1,4.3-0.1,6.3-0.9c1.5-0.6,2.4-1.7,2.4-3.4c0-1.8-1.1-2.5-2.7-3c-3.1-1-6.2-1.1-9,0.6c-2,1.2-4.5,2.7-4.1,5
			c0.4,1.9,3.4,1.1,5.2,1.6C89.7,117.5,90.4,117.5,91,117.5z M140.6,53.1c-0.6,1.2-3.8-1.4-3.1,1.7c0.9,3.6,2.9,7,6.5,8.8
			c2.4,1.2,4.7,0.5,6.3-1.3c1.5-1.6-0.1-3.4-1-4.8C147.4,54.4,144.3,53.4,140.6,53.1z M180.6,27.8c-6.1,1.6-10.1,5.7-10.9,10.8
			c-0.4,3.1,0.4,3.9,3.5,3.3c1.7-0.3,3.1-1.2,4.1-2.6C179.6,35.8,181,32.1,180.6,27.8z M72.5,36.7c-1.3,4.1-1.5,7.8-0.5,11.4
			c0.7,2.5,2.3,4.5,5.2,4c2.6-0.4,3.9-3.8,2.6-6.8C78.4,41.8,75.8,39.2,72.5,36.7z M108.1,127.2c4.7,0.5,9.1-0.2,13.3-2.3
			c1.4-0.7,2.2-1.9,2.1-3.6c-0.2-2-1.8-2.2-3.2-2.5C115.5,117.6,110.7,120.8,108.1,127.2z M158.5,17.8c-2.9,3.9-3.8,7.7-2.2,11.9
			c0.7,1.8,1.5,4.3,3.7,4c2.4-0.3,3.6-2.7,3.9-5C164.5,24.1,162,21,158.5,17.8z M46.9,36.5c1,4.8,2.5,8.6,5.2,11.7
			c1.3,1.5,2.9,3.2,5,2c2.1-1.1,1.3-3.5,0.9-5.3C56.5,39.7,52.4,37.8,46.9,36.5z M190.6,66.8c-4.9,0.3-9.2,1-12.1,4.8
			c-1.2,1.6-1.9,3.7-0.5,5.4c1.3,1.4,3.3,1.3,5,0.5C187.4,75.5,189.3,71.7,190.6,66.8z M189,86.1c-5.5,1.1-8.9,4.1-9,8.3
			c-0.1,1.8-0.5,4.3,2,5c2.1,0.5,3.9-0.6,5-2.4C189,93.7,189.5,90,189,86.1z M184.2,49.3c-4.9-0.1-8,1.8-9,5.4
			c-0.4,1.6-1,3.3,0.6,4.5s3.4,1,5.1,0c2.6-1.6,3.9-4.3,5.3-6.9C187.4,49.9,186.6,49,184.2,49.3z M139.6,73.8c1.5,3.8,3.6,7,7.2,8.9
			c1.5,0.8,3.3,0.8,4.6-0.4c1.2-1.2,0.2-2.5-0.2-3.6C149.4,74.3,145.5,72.6,139.6,73.8z M134.1,136.1c4.2,0.7,8.2,0.2,12.1-0.9
			c0.9-0.3,1.9-0.8,2-1.9c0.1-1.2-1-1.6-1.9-2C141.3,129.1,136.7,130.8,134.1,136.1z"/>
		<path d="M204.3,321.7c-5.7-8.1-11.1-16.5-21.4-19.3c-2.5-0.7-5.2-0.8-7.8-1.2c-2.6-0.4-4.6,0-6,2.8c-2,3.9-5.7,5.2-10,4.8
			c-4.4-0.4-8.2-2.3-12-4.3c-7.3-3.8-15-5.1-23.2-3.8c-2.3,0.3-4.4,1.4-6.4,2.5c-1.7,1-2.5,2.1-2.6,4.3c-0.2,7.1-2.9,10.1-9.8,11.4
			c-2.9,0.6-5.9,0.7-8.8,0.3c-3.1-0.5-4.2-2.2-3.4-5.3c2.2-7.7,8.7-12.3,16.7-11.6c2.6,0.2,2.6,0.2,8.6-3.7
			c-7.8-5-19.4-4.7-25.5,0.5c-1.4,1.2-2.4,2.4-2.1,4.6c1,5.4-1.9,8.7-6.5,10.9c-1.2,0.6-2.4,1.1-3.7,1.4c-2.3,0.6-4.9,2.3-7,0.5
			c-2.4-2-0.9-5-0.2-7.4c1.8-6.6,4.9-9,11.9-9.6c4-0.3,5.6-4,9.2-6.1c-6.3-1.5-11.8-3.1-17.4-0.3c-1.5,0.8-2.6,1.4-2.6,3.6
			c-0.1,7.7-3.1,10.9-10.7,12c-1.9,0.3-3.9,0.4-5.9,0.3c-3.8-0.1-4.4-0.9-3.6-4.5c1.8-8,6.6-12,14.5-11.8c2.1,0.1,3.4-0.7,5.2-2.7
			c-5.8-1.5-11.5-2.7-17-2.3c-2.4,0.2-6,1.9-6.2,6.3c-0.4,8.5-9.8,14.9-18.1,12.9c-1.6-0.4-2.3-1.3-2-2.8c1.3-5.3,3.1-10.5,7.6-14
			c2-1.6,4.4-2.1,7-1.7c1.8,0.4,3.5,0.6,4.7-2c-5.3-0.6-9.8-2.2-14.9,1.6c-8,6-16.3,3.6-20.8-4.6c-1.6-2.9-1.2-4.9,1.9-6.3
			c3.6-1.6,7.3-3.1,11.3-3.2c3.5-0.1,6.9,0.8,8.6,3.9c2.8,5,7.1,4.2,11.4,4.2c0.2-2.3-1.4-2-2.6-2.3c-7.4-1.7-11.5-9.1-9.3-16.3
			c0.6-1.8,1.8-2.4,3.4-1.5c5.2,2.8,9.8,6.1,10.7,12.6c1.1,7.6,2,8.5,9.3,9.4c2.1,0.3,4.2,0.5,6.8,0.7c-1-3.1-1.5-5.7-5.4-6.1
			c-2.9-0.2-5-2.4-6.3-5.1c-2.1-4.3-2.3-8.9-2.1-13.5c0.1-2.4,1.3-3.1,3.6-2.1c6.4,2.9,12.5,7.2,11.3,16.9
			c-0.7,5.7,3.3,10.4,9.1,11.4c4,0.7,8,1.7,12.6,1.7c-1.8-3.6-3.2-6.9-7.9-7.1c-3-0.1-5-2.5-6.2-5.1c-2.3-4.7-2.5-9.8-2.3-15
			c0.1-2.2,1.5-3.1,3.3-2c5.2,3.1,10.3,6.6,13.1,12.3c0.9,1.8,1.1,3.8,0.8,5.8c-0.8,5.4,2.9,11.6,8.4,13c5.7,1.4,11.6,2.2,17.5,3.3
			c-1.2-4.5-4.3-7.5-8.6-8.3c-7.5-1.5-13.8-10.2-13-17.9c0.2-2.1,1.4-2.8,3.3-2.7c8.3,0.4,15.2,8,14.6,16.4
			c-0.1,1.6,0.5,2.3,1.5,3.2c1.5,1.3,3,2.6,4.2,4.2c1.5,1.9,2.7,4.1,4.1,6c0.2,0.3,0.9,0.4,1.4,0.5c3.8,0.7,7.7,1.5,12.1,2.3
			c-1.7-3.7-3-6.4-7.2-6.4c-2.8,0-4.9-1.7-6.4-4.1c-2.6-4.2-3.1-8.9-3.1-13.8c0-2.1,1.3-3.1,3.3-2.2c4.4,1.9,8.6,4.3,11.2,8.5
			c0.7,1.1,1.5,2.7,1.2,3.6c-2,5.9,2.9,9.2,4.9,13.6c1.2,2.7,3.2,2.9,5.6,1c3.2-2.6,6.7-4.7,10.8-5.7c3.9-1,8-0.7,10.7,2.1
			c4.1,4.3,9,3.9,14.5,4c-1.9-3.3-5-4.6-7.5-6.5c-4.8-3.5-9.7-6.7-14.6-10.1c-1.8-1.3-3.3-1.6-5.4-0.5c-4.3,2.2-8.6,1.4-11.8-2
			c-5-5.2-9.4-10.8-9.7-18.7c-0.1-2.7-1.6-5.3-2.3-8c-0.4-1.7-0.5-3.6-0.5-5.4c0-1.9,0.9-4.6-2-4.4c-2.1,0.1-4.3,1.5-4.3,4.5
			c0,5.8,1.6,11,4.5,15.9c0.8,1.4,1.8,2.7,2.7,4.1c0.6,1,1.3,2.2,0.1,3s-2.2-0.2-2.9-1.1c-3.7-4.9-6.5-10.3-7.5-16.4
			c-0.3-1.5,0.1-3.3-1.6-5.1c-1.2,4.3-0.4,8,0.8,11.6c0.4,1.1,1,2.1,1.4,3.1c0.5,1.3,2,2.9-0.1,3.8c-1.8,0.8-2.4-1.2-3.1-2.4
			c-1.6-2.7-2.4-5.7-3-8.8c-0.2-1.1,0.1-2.3-0.9-3.5c-2.4,2.9-1.5,6.2-1.1,9.2c0.5,3.1,1.9,5.9,3.4,8.7c0.5,1,1,2.3-0.3,3
			s-2.1-0.5-2.7-1.5c-2.5-4-3.7-8.4-4.5-13.1c-1.9,1.2-1.4,2.7-1.3,4.1c0.1,1.2,0.4,2.5-1.2,2.8c-1.7,0.2-2.1-1.2-2.4-2.6
			c-0.6-3.1,0.5-5.8,2.4-8.3c2.9-3.8,6.8-6.7,10.8-9.2c2.8-1.8,5.6-3.4,8.3-5.1c-1.5-4.2-3.9-6.3-8.5-6.1c-4.2,0.2-8.5-0.5-12.8-0.8
			c-4.9-0.4-9.4-1.2-14.1,2c-3.6,2.4-8.5,2.1-13,2.2c-5.4,0.1-10.8,0-16.6,0c0.9,3.2,3,5.4,4.6,7.7s1.3,3.8-1.3,5
			c-10.6,5.1-8.7,8.2-16.4-4c-0.3-0.5-0.8-1-1.2-1.6c-1.9,1.7-2.7,3.9-3,6.1c-0.4,3.8-2.8,4.8-6,5.2c-2.6,0.3-5.2,0.7-7.8,0.9
			c-3.9,0.3-4.8-0.8-3.6-4.6c1.9-6,4.7-11.6,7.6-17.1c1.4-2.9,1.8-4.9-0.5-7.8c-6.7-8.6-4.5-13.5,6.3-15.4c1.6-0.3,3.2-0.6,5.2-1
			c-3-5.7-4.8-11.3-11.6-13.9c-7.2-2.8-11.5-8.7-10.8-17c0.2-2.1-0.9-3.3-2-4.8c-2.9-3.8-5-8.1-6.1-12.8c-0.5-2.3-0.4-4.6,0.4-6.8
			c1.3-3.8,2.3-4.1,5.9-2.1c6.4,3.4,13,6.3,19.9,8.5c2.1,0.7,4.2,0.7,6.3,0.4c9-1.2,17.8-3.2,26.1-7.1c6.4-3,13.1-4.2,20.2-3.4
			c1.1,0.1,2.3,0.3,3.4,0.6c0.8,0.2,1.5,0.9,1.4,1.8c-0.2,0.9-0.9,1.3-1.9,1.3c-0.3,0-0.7,0-1,0c-9.2-1.6-17.5,1.5-25.7,5
			c-7.9,3.3-16.4,4.5-24.9,5.7c-3.1,0.5-5.5-2.1-9.1-1.6c3.9,5.1,5.6,10.6,5.7,16.6c0,1.4,0.7,2,1.9,2.5c1.4,0.6,2.6,1.5,3.4,2.7
			c0.8,1.3,2.5,3,0.9,4.3c-2,1.7-2.6-0.8-3.5-2c-0.9-1.3-2.2-1.9-3.7-2.2c-4.7-0.9-9.2-2.5-13.8-5.6c-0.6,3.8,0.7,6.4,2.7,8.8
			c2.7,3.1,6.1,5,9.9,6.2c2.3,0.7,3.6,1.9,4.5,4c7.4,17.5,21.1,26.2,39.7,27.8c10.5,0.9,21,1.8,31.4,2.7c1.8,0.1,3.6,0.5,5.3,0
			c0.8-2-2.1-4.6,0.4-5.4c3-1,2.8,2.5,3.6,4.2c4.1,8.5,10.1,14.9,18.9,18.6c1.8,0.7,3.5,2.3,5.8,0.4c1.5-1.2,2.3,0.6,2.5,1.9
			c0.8,3.7,2.4,6.8,5.5,9c0.8,0.6,1.5,1.6,0.8,2.5c-0.9,1.2-2,0.7-3.1,0c-2.6-1.7-4.3-4-5.5-6.8c-0.5-1.2-1.3-2.2-2.6-1.5
			c-1.1,0.6-0.5,1.8,0,2.6c2,3.2,2.9,7,7,8.9c3.5,1.6,5.2,5.1,5.1,9c0,2.7,1.1,4.1,3.3,5.4c4,2.4,7.9,5.2,12.4,8.1
			c0.8-4.8-0.7-8.8-1.7-12.8c-1.3-5.2-2.2-10.7-7.1-14.2c-1.2-0.9-1.6-2.8-3.9-1.7c-1.2,0.6-2.3-0.9-3.2-1.9
			c-2.5-2.8-3.6-6.2-4.2-9.9c-0.2-1.3-0.4-3,1.2-3.3c1.8-0.4,1.9,1.3,2.2,2.6c0.6,3.4,1.4,6.7,4.9,9.4c-0.1-5-0.9-9.3-0.4-13.6
			c0.2-1.8,0-3.9,2-4.8c2.1-0.9,3.2,1.2,4.4,2.4c2.9,2.9,5.5,6.1,7,10.1c1.2,3.2,1.8,6.8-0.5,9.4c-3.3,3.7-1.5,6.8,0,10.7
			c2.6-3.3,5.1-5.9,4.4-10.6c-0.8-5.6,3-9.1,7.7-11.4c2.9-1.4,6.3-4,9.1-2.1c2.7,1.8,0.9,5.8,0.7,8.8c-0.1,1.8-0.6,3.6-1.2,5.3
			c-2,5.5-5.4,8.2-11.1,7.7c-3.4-0.3-4.7,1.3-5.9,3.9c-2.9,6.3-0.6,12.6,0.2,18.9c0.2,1.6,2.2,2.4,3.5,3.4c9.3,7.2,17.9,15,25,24.3
			c1.1,1.4,2.6,2.6,2.6,4.6C206.9,321.7,205.6,321.7,204.3,321.7z M32.4,242.7c5.3,0.5,9.5,0.1,11.7-4.8c0.5-1,1.5-1.7,2.1-2.7
			c1.9-2.8,4.2-3.4,7.6-2.9c8.8,1.3,17.7,1.1,26.6,0.6c2.4-0.1,2.4-0.2,5-1.8c-7.7-0.6-15.3-1.5-22.1-4.9
			c-5.7-2.8-11.4-2.4-17.3-1.4c-2.5,0.5-4.9,1.4-6.3,3.6C36.9,232.8,34.1,237.2,32.4,242.7z M139.2,263.8c-3.3-0.2-3.7,0.3-2.2,3.4
			c1.6,3.4,3.5,6.7,6.4,9.1c2.9,2.5,7,2.9,9,1c1.8-1.7,1.2-7-1.3-9.4c-0.9-0.9-2.1-1.6-3.2-2.2C145.2,264.4,142.3,264.2,139.2,263.8
			z M27.4,177.8c0.9-4.7-0.2-8.2,0-11.7c0.4-6.3-4-7.2-7.9-9.1c-2.9-1.4-4-0.7-3.5,2.5C17.1,166.8,20.6,172.8,27.4,177.8z
			 M51.8,219.8c-2.7-1.8-3.5-5.9-6.9-6c-3.5,0-7.2,0.5-10.6,1.9c-1.6,0.6-3.2,1.3-2.6,3.5c0.8,2.7,1.7,5.3,4.3,6.9
			c0.2,0.2,1-0.1,1.3-0.4C41.2,221.6,46.5,221.2,51.8,219.8z M159.9,305.4c0.3,0,1.1,0,1.9-0.2c2.5-0.4,4.2-1.9,4.9-4.3
			c0.7-2.7-1.6-3.7-3.4-4.7c-4-2.4-11.6-0.8-14.9,2.8c-0.8,0.9-1.1,1.5,0.1,2.2C151.9,303.3,155.4,305,159.9,305.4z M26.8,288
			c0.9-0.3,2.3-0.3,3.4-1c1.8-1,5.1-1.1,4.7-4.1c-0.5-3.2-2.9-5.1-6.2-5.4c-3.5-0.3-6.8,1-9.9,2.4c-1.4,0.7-1.4,1.6-0.7,2.8
			C20,285.9,22.6,287.9,26.8,288z M192,251.5c-0.1-1,0.9-2.7-1.3-2.9c-4.1-0.4-10,5.7-9.7,9.9c0.1,1.7,0,3.9,2.1,4.6
			c2,0.7,3.9-0.2,5.3-1.6C191.2,258.8,191.6,255.2,192,251.5z M101,315.9c3.4-0.3,6.9-0.4,9.4-3.3c1.2-1.4,1.7-3.3,1.1-5.1
			c-0.7-1.9-2.6-1.7-4.2-1.8c-4.1-0.1-6.7,2.2-8.7,5.4c-0.8,1.2-2.1,2.5-1.5,3.9C97.7,316.6,99.6,315.6,101,315.9z M34.9,303.1
			c4.3,0.3,7.9-0.6,10.6-3.6c1.6-1.8,3.3-4.5,1.2-6.6s-5-1.1-7.1,0.9C37,296.3,35.6,299.3,34.9,303.1z M76.2,263.7
			c-0.6,5.1-0.1,9.4,3.1,12.8c1.5,1.6,3.9,2.5,5.8,1.2s1.1-3.6,0.1-5.4C83.3,268.7,80.2,266.1,76.2,263.7z M60.7,305.5
			c2.8-0.3,5.6-0.5,7.9-2.2c1.9-1.3,3.1-3.3,2.3-5.5c-0.8-2.2-3.2-2-5.1-1.7c-3.9,0.5-5.8,3.4-7.2,6.6
			C57.6,304.9,58.3,305.9,60.7,305.5z M143.1,260.4c-2.5-5.5-2.8-12.3-10.5-13.1C131.9,256.5,134.8,260.4,143.1,260.4z M97.7,268.6
			c0.7,4.5,1.7,8.2,4.6,11c1.4,1.4,3.4,2.7,5.2,1.5c2.1-1.4,1.3-3.7,0.5-5.7c-0.6-1.6-1.8-2.7-3.2-3.6
			C102.8,270.3,100.7,269.1,97.7,268.6z M164.1,241.5c-0.6,5.2-0.4,9.5,1,13.5c0.6,1.6,1.2,3.9,3.5,3.3c1.9-0.5,2.5-2.5,2.5-4.4
			C171,248.8,168.1,245.3,164.1,241.5z M76.2,313.3c3.9-0.4,7.1-1.5,9.6-3.9c1.5-1.4,2.5-3.4,1.2-5.3c-1.2-1.7-3.3-1.4-5-0.7
			C77.8,305.1,76.8,308.8,76.2,313.3z M55.4,262.1c0.4,4.9,0.3,9,3.6,12.1c1,0.9,2.3,1.6,3.6,1c1.2-0.6,1-1.9,1-3
			C63.5,267.3,60.7,264.5,55.4,262.1z M122.3,275.2c-0.4,4,0.4,6.9,2,9.6c1.1,1.7,2.7,3.3,4.9,2.1c2.1-1.2,1.7-3.5,0.9-5.3
			C128.7,278.6,125.9,276.8,122.3,275.2z M28.6,252.6c2.7-0.4,5.2-0.6,7.7-1c2-0.3,2.2-2.1,2.6-3.7c0.2-0.7,0-1.2-0.7-1.6
			C34.8,244.6,29.5,247.8,28.6,252.6z M31.7,168.9c-0.1,2.4,0.2,5-0.5,7.2c-1.3,4.1,0.8,5,4.3,5.2C36,176.7,35.1,172.6,31.7,168.9z
			 M39.7,266.9c-0.7,5,0.6,7.9,3.8,9.1c0.8,0.3,1.6,0.6,2.3,0.1c0.8-0.6,0.5-1.5,0.2-2.2C45,270.5,43,268.2,39.7,266.9z M57.2,242.8
			c-1.3,0.6-2.8,1.3-4.2,2.1c-1,0.5-2.3,1.1-1.2,2.5c0.8,1.2,1.3,2.9,3.3,2.1c1.5-0.6,2.9-1.5,4.3-2.3c1-0.6,1.3-1.4,0.6-2.4
			C59.3,243.9,58.8,242.7,57.2,242.8z M49.7,242.6c1.4-0.7,3-1.5,4.6-2.3c1-0.5,1.4-1.3,0.8-2.3c-0.9-1.6-2.3-2.5-4-1.9
			c-1.9,0.7-3.5,2-3.6,4.2C47.5,241.1,48.1,242.4,49.7,242.6z"/>
		<path d="M209.2,245.7c-9.5-12.8-18.8-25.7-29.4-37.7c-1.4-1.6-2.5-4-5.9-3.9c1.6,2.9,3.1,5.5,4.6,8c3.2,5.3,3.2,10.8,1.2,16.4
			c-0.6,1.6-0.3,2.8-0.1,4.2c0.3,2.7,2.5,5.8-2.2,7.2c-1,0.3-0.2,2.1-0.6,3.2c-0.3,0.9-0.7,1.6-1.6,1.6c-1,0-1.5-0.7-1.5-1.6
			c0-5.8-3.4-9.3-7.9-12.3c-0.9-0.6-1.5-1.5-0.8-2.5s1.8-0.7,2.7-0.2c3.6,1.8,6.1,4.8,9,8.8c-0.5-5.8-2.6-9.4-6.4-12.2
			c-1.1-0.8-3.1-1.6-1.8-3.3c1.2-1.5,2.7-0.1,3.9,0.6c0.9,0.6,1.8,1.3,3.4,2.4c-0.6-3.5-2.7-5.1-4.4-6.9c-1-1.1-3.5-2.1-2-3.8
			c1.7-1.9,3.1,0.5,4.4,1.5c0.7,0.5,1.3,1,2.5,2c-1.6-6.1-4.8-10.3-9.1-13.7c-1.9-1.5-3.9-1.5-5.6,0.5c-1,1.3-2.1,2.5-3.5,4.1
			c0.5,1.6,3.6,2.8,2,6.8c-4.2-7.7-12.4-7.9-18.1-12.4c-1.3,1.2,1.1,2.6-0.3,3.5c-1.4,0.8-2-0.7-2.7-1.4c-1.5-1.8-3.1-3.4-5.3-4.3
			c-0.8-0.3-1.6-0.7-1.1-1.8c0.4-0.9,1.4-1,2.1-0.5c2.4,1.7,3.3-0.1,4.7-1.6c5.6-6,14.2-6.2,20.4-0.7c1.1,0.9,1.6,2.5,3.3,2.7
			c-3.3-5.5-13-12-19.1-13.3c-2.3-0.5-3.3,1-4.7,2c-6,4.4-11.2,4.3-16.1-0.2c-4.2-3.9-4.1-7.5,0.4-11.1c1.1-0.9,2.8-1,3.8-2.7
			c-5.4-2.6-10.7-1.9-16.2-0.8c-1.7,0.3-4.4,2.3-5.1-0.3c-0.7-2.5,2.5-2.3,4.2-3c1.2-0.5,2.6-0.3,4.1-1.8c-4.6-2.6-9.2-2.8-14-2.1
			c-2.1,0.3-4.2,0.8-6.3,1.2c-0.9,0.1-1.7-0.2-1.9-1.2c-0.3-0.9,0.4-1.5,1.1-1.9c6.4-4,20-2.2,25.1,3.6c1.2,1.4,2.7,0.9,4,1.2
			c3.4,1,7.4,0.5,9.2,5.2c0.7,1.9,4.2,1.4,6.1,2.7c4.1,2.9,8.8,3.2,13.6,3.1c-0.3-1.9-1.9-2.7-3-3.7c-4.6-4.2-9.2-8.4-13.9-12.6
			c-2.7-2.4-5-4.8-9.7-3.2c-4.5,1.5-9-1-12.2-4.7c-2.1-2.4-3.6-5.1-4.7-8c-2.1-5.4-1.2-6.9,4.5-7c10.2-0.3,14.9,3.3,18,13.5
			c0.3,1,0.7,1.9,1.4,2.5c7.8,7,15.7,13.9,24,20.7c-0.6-5.1,2.5-10.5-2.9-15.1c-3.4-2.8-3.2-7.4-2.4-11.6c0.7-3.7,2.1-7.3,4-10.6
			c2-3.6,3.8-3.7,6.3-0.6c6.5,8,6.9,17.3,0.8,25.4c-1.3,1.7-1.9,3.4-1.9,5.4c-0.2,7.3,1,14,7.1,19c2.2,1.9,4.1,4.2,6.6,6.2
			c-0.7-6.9-0.2-13.6,0.5-20.3c0.2-1.9-1.7-3.1-2.6-4.6c-3.4-5.8-2.8-11.8,1.6-16.3c2.2-2.2,4.2-2.2,6.4-0.2
			c5.1,4.6,6.3,12.3,1.7,17.2c-3.4,3.6-4.1,7.6-4.3,12.1c-0.1,4.8,0.2,9.5,1.1,14.2c0.6,2.8,1.7,5.4,3.5,7.5
			c10,11.4,19,23.5,28.1,35.6C209.2,241.8,209.2,243.8,209.2,245.7z M110.9,143.6c1.7,8,6.6,12.7,12.8,12.5c2.5-0.1,3.5-0.8,3-3.6
			C125.6,145.8,119.5,142.2,110.9,143.6z M157.7,141.4c-3,4.2-4.4,8.9-4.1,13.2c0.2,2.1,1,3.8,2.3,5.3c1.7,1.9,3,2,4.4-0.5
			C163.6,153.9,162.7,146.7,157.7,141.4z M131.3,186.7c3.2-0.1,5.5-1.9,7.6-4c0.6-0.6,1-1.2,0.3-2.1c-2-2.6-10.1-4.2-12.9-2.3
			c-1.6,1.1-3.5,2.5-1.7,4.7C126.3,185.2,128.4,186.8,131.3,186.7z M154.4,204.2c2-0.1,3.7-0.7,4.6-2.5c0.9-2-0.9-3-2.1-3.9
			c-3.6-3.1-8.7-3.3-12.3-0.8c-1.3,0.9-1.6,1.6-0.2,2.6C147.4,201.9,150.6,203.7,154.4,204.2z M180.1,162.7c-0.2-2.7-1.2-5.5-3.9-7
			c-1.5-0.8-4,4.4-3.7,7.6c0,0.2,0,0.3,0.1,0.5c0.6,2.4,1.2,4.9,3.7,5.9C177.5,170.3,180.1,165.8,180.1,162.7z M150.4,183.3
			c8.2,3.7,13.8,10.5,20.6,15.8C165.4,192.2,160,185,150.4,183.3z"/>
		<path d="M92.8,2c0.9,4.5-0.7,7.7-5.1,10.5c-3.7,2.3-9.4,2.6-12.1,0.6c-1.4-1-2.3-2.4-2.5-4.1c-0.1-1.2-0.2-2.5,1.2-2.8
			c1.2-0.3,1.5,0.9,2,1.7c2,3.3,4.7,3.9,8.7,2.1c3.7-1.7,5.1-4.4,3.9-8C90.2,2,91.5,2,92.8,2z"/>
		<path d="M56.2,178.5c-4.2,0-7.6-1.4-10.1-4.6c-2.2-2.9-2-3.8,1.4-5.5c5.6-2.8,11.4-1.5,15.3,3.4c2.3,3,1.9,4.5-1.6,5.8
			c-0.8,0.3-1.6,0.5-2.4,0.6C57.9,178.4,57,178.4,56.2,178.5z M51.5,169.7c-1.1,0.5-3.3,0.3-3.2,2.1c0.1,1.7,1.7,2.8,3.5,2.9
			c1.6,0.1,2.2-1.2,2.2-2.7C54,170.7,53.5,169.5,51.5,169.7z"/>
		<path d="M97.1,159.9c-4.9-0.2-9.8-0.3-14.4,1.8c-0.9,0.4-2.1,0.6-2.6-0.4c-0.7-1.3,0.2-2.2,1.3-2.7c1.3-0.6,2.7-1.2,4.1-1.5
			c6-1.2,12-1.2,18-0.5c1.1,0.1,2.5,0.3,2.5,1.8s-1.4,1.5-2.6,1.5C101.4,160,99.2,159.9,97.1,159.9z"/>
		<path d="M105.7,200.3c-2.3,0.1-2.8-1.5-3.8-2.5c-2.7-3-6-4.9-9.7-6.4c-0.8-0.3-1.5-0.9-0.9-1.8c0.3-0.6,1.1-0.6,1.8-0.5
			C97.6,189.6,104.3,195.4,105.7,200.3z"/>
		<path d="M77.4,196.8c0,0.7-0.1,1.4-0.9,1.4c-0.4,0-1-0.3-1.2-0.6c-1.6-3.9-4.1-7.1-7.1-9.9c-0.5-0.5-0.7-1.2,0-1.7
			c0.3-0.2,0.9-0.3,1.3-0.2C71.8,186.6,77.4,194.4,77.4,196.8z"/>
		<path d="M158.5,222.8c-3.4-4.1-5.7-8.3-9.8-10.7c-0.2-0.1-0.3-1-0.1-1.3s0.8-0.5,1.3-0.5C153.2,210.6,158.6,217.8,158.5,222.8z"/>
		<path d="M131.9,202.8c0.6,0.2,1.1,0.3,1.5,0.6c3.2,2.2,5.4,5.2,7.3,8.5c0.3,0.6,0.5,1.2-0.1,1.8s-1.3,0.4-1.7-0.1
			c-2.3-3.2-4.6-6.3-7.7-8.9C130.5,204,131.2,203.2,131.9,202.8z"/>
		<path d="M94,182.6c3.9,1.8,7.6,3.8,10.4,7.2c0.2,0.3,0.2,1,0,1.3c-0.4,0.7-1.2,0.5-1.7,0.1c-2.9-2.4-6-4.4-9.3-6.2
			c-0.6-0.3-0.9-1-0.6-1.7C93,182.9,93.6,182.8,94,182.6z"/>
		<path d="M100,203.6c-0.1,0.2-0.1,0.8-0.5,1c-0.3,0.2-1.1,0.2-1.3-0.1c-2-3.1-4.5-5.5-8.1-6.6c-0.3-0.1-0.6-0.8-0.5-1.2
			c0.1-0.8,0.7-0.9,1.5-0.9C94.1,195.9,99.7,200.7,100,203.6z"/>
		<path d="M112.7,191.9c3.8,1.4,7.1,3.3,9.7,6.3c0.5,0.5,0.4,1.3-0.2,1.7c-0.3,0.2-1.1,0.2-1.3,0c-2.7-2.4-5.8-4.2-9-5.8
			c-0.6-0.3-0.9-1-0.4-1.6C111.8,192.2,112.3,192.1,112.7,191.9z"/>
		<path d="M155,226.5c-0.7,0.1-1.2-0.4-1.6-0.9c-1.6-2.3-3.5-4.3-5.8-5.9c-0.6-0.5-1.2-1.3-0.4-2c0.2-0.3,0.9-0.3,1.3-0.2
			c1.9,0.4,7,5.8,7.3,7.6C155.9,225.7,155.8,226.3,155,226.5z"/>
		<path d="M121.1,206c0,0.6-0.4,1-0.9,1c-0.4,0-1-0.2-1.2-0.5c-1.7-2.6-4-4.3-6.8-5.4c-0.6-0.2-1.1-0.8-0.8-1.6
			c0.1-0.3,0.4-0.5,0.7-0.6C114.4,198,121.4,203.5,121.1,206z"/>
		<path d="M81.4,168.2c2.4,0,7.2,3.5,8.2,5.8c0.2,0.6,0.5,1.3-0.1,1.8c-0.9,0.9-1.6,0.1-2-0.5c-1.7-2.3-3.9-3.9-6.7-4.8
			c-0.7-0.2-1.1-0.7-0.9-1.5C80,168.3,80.6,168.1,81.4,168.2z"/>
		<path d="M74.6,202.4c0.1,0-0.4,0.3-0.8,0.3s-1-0.2-1.2-0.5c-1.8-2.7-4.1-5-6.3-7.3c-0.3-0.3-0.4-1-0.2-1.3
			c0.2-0.3,0.8-0.5,1.2-0.5C69,193.4,74.8,200.1,74.6,202.4z"/>
		<path d="M137,217.6c-0.2,0.3-0.3,0.8-0.7,1c-0.3,0.2-1.1,0-1.3-0.3c-1.5-2.7-3.7-4.6-6.1-6.2c-0.2-0.2-0.3-1-0.1-1.3
			s0.8-0.5,1.3-0.5C132.3,210.5,137,215.3,137,217.6z"/>
		<path d="M120.4,211.5c-0.2,0.9-1,1.5-1.7,0.8c-2-2.2-4.2-4.1-6.9-5.4c-0.9-0.5-0.8-1.5,0.2-1.9C114,204,120.5,209.1,120.4,211.5z"
			/>
		<path d="M85.5,181c-3-1.9-5.2-4.6-8.3-5.9c-0.2-0.1-0.4-0.9-0.2-1.3c0.2-0.3,0.8-0.6,1.2-0.6C81.2,173.1,85.2,177.2,85.5,181z"/>
		<path d="M73.9,180.1c2.5,0,7.1,4.6,7.2,6.9c0,0.4-0.2,1.1-0.5,1.3c-0.6,0.4-1.3,0.1-1.6-0.5c-1.3-2.4-3.1-4.1-5.4-5.4
			c-0.6-0.3-1-0.9-0.6-1.6C73.2,180.4,73.7,180.3,73.9,180.1z"/>
		<path d="M117.9,217.8c-0.3,0.3-0.5,0.7-0.9,0.9c-0.5,0.3-0.9,0-1.2-0.4c-1.1-1.4-2.3-2.7-3.4-4.1c-0.8-1-3.3-1.5-1.7-3.1
			c1.2-1.2,2.6,0.6,3.6,1.5C116.1,213.9,117.5,215.5,117.9,217.8z"/>
		<path d="M107.2,185.4c-2.7-2.8-4.7-4.9-7.7-5.6c-0.7-0.1-1.1-0.8-0.8-1.5c0.2-0.3,0.7-0.6,1.2-0.7
			C103.4,177.1,107.2,180.7,107.2,185.4z"/>
		<path d="M134.2,223.8c-0.2,0.4-0.3,1-0.7,1.2c-0.6,0.3-1.3,0-1.7-0.6c-1-1.4-2.1-2.9-3.1-4.4c-0.7-0.9-2.8-1.6-1.2-3
			c1.2-1,2.3,0.5,3.2,1.4C132.4,219.8,133.4,221.7,134.2,223.8z"/>
		<path d="M90,201.6c1.2,0.6,2.5,1.1,3.5,1.9c1.4,1,3.8,2.4,2.6,4c-1.5,2-2.4-1-3.7-1.7c-1.2-0.6-2.3-1.3-3.3-2.1
			c-0.4-0.3-0.7-0.8-0.3-1.3C89,202.1,89.5,202,90,201.6z"/>
		<path d="M123,192.1c-0.2,0.2-0.5,0.7-0.8,0.8c-0.4,0.1-1-0.1-1.2-0.5c-1.2-1.7-2.8-2.7-4.8-3.3c-0.4-0.1-0.8-0.7-0.9-1
			c0-0.4,0.4-0.9,0.7-1.1C118.1,186.1,123.2,189.7,123,192.1z"/>
		<path d="M95,211.6c-0.2,1-0.7,1.3-1.4,1.3c-0.8,0-1.7-0.1-2.4-0.4c-1.8-0.8-5.4-1-4.7-3.2c0.8-2.5,3.2,0.4,4.9,0.7
			C92.6,210.2,94.4,209.9,95,211.6z"/>
		<path d="M65.9,201.5c2-0.1,6.8,3.8,7.2,5.6c0.1,0.4-0.1,1-0.3,1.3c-0.3,0.5-0.9,0.4-1.3,0c-2.1-1.8-4.3-3.5-6.2-5.4
			C64.6,202.4,65.1,201.6,65.9,201.5z"/>
		<path d="M147.5,224.5c1.6,0.5,3,1.3,4.1,2.5c0.9,1.1,2.6,2.4,1.3,3.7c-1.4,1.3-2-0.9-2.9-1.6c-1.1-0.8-2.1-1.5-3.2-2.2
			c-0.6-0.4-1.1-0.8-0.9-1.5C146.2,224.6,146.8,224.4,147.5,224.5z"/>
		<g>
			<path d="M153.1,278.1c0.9-0.8,1.3-2.2,1.3-3.9c0-2.6-1-5.3-2.6-6.9c-0.9-0.9-2.1-1.7-3.5-2.4c-2.5-1.2-5.1-1.6-7.9-1.9l-1.2-0.2
				h-0.1c-1.7-0.1-3.1-0.1-3.8,0.9s-0.1,2.4,0.6,4c1.5,3.1,3.5,6.7,6.7,9.5c1.8,1.6,4.2,2.4,6.3,2.4
				C150.6,279.5,152.1,279.1,153.1,278.1z"/>
			<path d="M164.3,295.7l-0.5-0.3c-4.3-2.5-12.4-1.1-16.2,2.9c-0.5,0.6-1.1,1.3-1,2.2c0.1,1,1,1.5,1.3,1.6c3.5,2,7.1,3.9,11.8,4.3
				h0.1h0.4c0.4,0,1.1-0.1,1.7-0.1c2.9-0.4,5-2.2,5.7-5C168.5,298.1,166,296.7,164.3,295.7z"/>
			<path d="M192.6,248.5c-0.4-0.5-1-0.8-1.9-0.9c-2.1-0.2-4.8,1-7.1,3.3c-1.9,1.9-3.9,4.9-3.7,7.7v0.5c0.1,1.6,0.3,4.1,2.7,4.9
				c0.6,0.2,1.1,0.3,1.7,0.3c1.6,0,3.2-0.7,4.7-2.2c3.1-3,3.5-7,3.8-10.6v-0.1v-0.1c0-0.1,0-0.4,0.1-0.6
				C193.1,250.1,193.2,249.2,192.6,248.5z"/>
			<path d="M107.7,304.7h-0.5c-0.1,0-0.2,0-0.3,0c-5,0-7.7,3.3-9.3,5.8c-0.1,0.2-0.3,0.5-0.5,0.7c-0.8,1.1-1.8,2.5-1.1,4.2
				c0.6,1.3,1.7,1.5,2.6,1.5c0.3,0,0.6,0,0.9,0c0.5,0,0.9-0.1,1.2,0h0.1l0.7-0.1c3.2-0.3,6.9-0.5,9.5-3.7c1.5-1.8,2-4,1.2-6.1
				C111.5,304.8,109.2,304.7,107.7,304.7z"/>
			<path d="M83.1,279.3c0.9,0,1.8-0.2,2.6-0.8c1.3-0.9,2.5-2.8,0.4-6.7c-1.9-3.4-4.7-6.1-9.4-9l-1.3-0.8l-0.2,1.5
				c-0.8,6.1,0.3,10.3,3.4,13.6C79.7,278.4,81.4,279.3,83.1,279.3z"/>
			<path d="M101.6,280.3c1.7,1.7,3.2,2.2,4.4,2.2c0.9,0,1.6-0.3,2.1-0.7c2.9-1.9,1.6-5.2,0.9-6.9c-0.8-2-2.4-3.3-3.5-4.1
				c-1.8-1.3-4.1-2.7-7.6-3.3l-1.4-0.2l0.2,1.4C97.3,272.8,98.3,277,101.6,280.3z"/>
			<path d="M164.7,240.8l-1.4-1.4l-0.2,2c-0.7,5.7-0.3,10,1.1,14l0.1,0.2c0.5,1.4,1.3,3.9,3.6,3.9c0.3,0,0.6,0,0.9-0.1
				c2-0.5,3.2-2.5,3.2-5.3C172.1,248.1,168.4,244.2,164.7,240.8z"/>
			<path d="M81.7,302.5c-4.8,1.9-5.8,6.2-6.4,10.7l-0.2,1.3l1.3-0.1c4.4-0.5,7.7-1.8,10.2-4.2c2.2-2.1,2.7-4.6,1.3-6.6
				C87,302.3,85.2,301.1,81.7,302.5z"/>
		</g>
		<g>
			<path d="M46.6,88.5c-6.1-3.3-14.4-1.7-20.6,4l-0.9,0.8l1,0.7c4,3,8.4,4.7,13.1,5.1c0.4,0,0.9,0.1,1.3,0.1c2.6,0,4.9-0.8,6.8-2.3
				c1.6-1.2,3.2-2.8,3-4.5C50.1,90.7,48.3,89.5,46.6,88.5z"/>
			<path d="M69.2,70.9c-3.6-3.4-7.9-5.3-13.7-5.9l-1.3-0.1l0.3,1.3c0.9,4.6,2.4,9.8,6.3,14c1.9,2,4,3.1,5.9,3.1
				c1.2,0,2.3-0.4,3.3-1.1c3.6-2.9,1.4-7.7,0.6-9.3C70.2,72.1,69.7,71.5,69.2,70.9z"/>
			<path d="M121.8,89.7c0.5,0,1.1-0.1,1.7-0.3c2.2-0.6,4.5-2.5,3.1-7.8c-1.5-5.5-5.3-9.2-10.2-13.5l-1.5-1.3l-0.1,2
				c-0.4,5.2-0.4,10.8,1.6,16.2C117.4,88,119.4,89.7,121.8,89.7z"/>
			<path d="M92.4,64.6l-1.2-0.7l-0.3,1.4c-0.8,4.2-1.4,9.2,0.8,13.9c0.9,1.9,2.4,3.3,4.2,4c0.7,0.2,1.3,0.3,2,0.3
				c0.8,0,1.7-0.2,2.4-0.6c1.5-0.8,2.6-2.1,3.1-3.8c0.5-1.9,0.2-3.9-1-5.7C100.4,70,97.4,67.4,92.4,64.6z"/>
			<path d="M143.6,99.3c0.3,2.8,0.5,5.8,1.7,8.5c1,2.2,2.4,4.6,5.7,4.9c0.2,0,0.3,0,0.5,0c3,0,4.4-2.5,5-3.6c1.3-2.5,1-5.1-0.8-7.5
				c-2-2.6-4.6-4.2-7.6-5.9c-1-0.6-2.5-1.3-3.6-0.6c-1.1,0.7-1.1,2.3-1,3.4L143.6,99.3z"/>
			<path d="M192.9,104.8c-8.2,2.1-12.2,6.9-10.8,13.4l0.1,0.4c0.3,1.6,0.8,4.1,3.7,4.4c0.1,0,0.3,0,0.4,0c2,0,3.6-1.2,4.7-3.5
				c2.1-4.1,3.1-8.6,3.1-13.7v-1.3L192.9,104.8z"/>
			<path d="M67,101.8l-0.5-0.1c-5.8-1.4-11.4,1.4-14.9,7.6l-0.7,1.1l1.3,0.3c2,0.5,4.1,0.7,6.1,0.7c2.8,0,5.8-0.5,8.8-1.4
				c2.7-0.8,4.1-2.6,3.8-5C70.7,102.7,68.5,102.2,67,101.8z"/>
			<path d="M97.3,109.2c-3.8-1.2-7-1-9.8,0.7c-1.9,1.1-5.1,3-4.6,6.1c0.4,2.1,2.6,2.1,4.1,2.2c0.6,0,1.3,0,1.8,0.2
				c0.5,0.1,1.1,0.1,1.6,0.1c0.2,0,0.4,0,0.6,0l0,0c0.3,0,0.7,0,1,0c2.2,0,4-0.3,5.7-1c2-0.8,3-2.3,3-4.3
				C100.7,110.7,98.9,109.7,97.3,109.2z"/>
			<path d="M121.8,125.8c1.8-0.9,2.8-2.6,2.7-4.6c-0.2-2.5-2.2-3-3.6-3.3l-0.3-0.1c-5.4-1.3-10.6,2.2-13.4,9l-0.5,1.2l1.3,0.1
				c1,0.1,1.9,0.1,2.9,0.1C114.8,128.3,118.4,127.5,121.8,125.8z"/>
			<path d="M187.8,97.5c2-3.3,2.7-7,2.2-11.5l-0.1-1.1l-1.1,0.2c-6.1,1.2-9.6,4.6-9.8,9.2v0.5c-0.1,1.7-0.2,4.7,2.8,5.5
				c0.4,0.1,0.8,0.2,1.3,0.2C184.9,100.5,186.7,99.4,187.8,97.5z"/>
			<path d="M138,137.4c2.6,0,5.4-0.4,8.4-1.3c2.1-0.6,2.6-1.9,2.7-2.8c0.1-1.8-1.4-2.5-2.3-2.8l-0.2-0.1c-5.5-2.5-10.6-0.5-13.5,5.3
				l-0.6,1.2l1.3,0.2C135.2,137.3,136.6,137.4,138,137.4z"/>
			<path d="M123.7,157.2c1.2,0,2.6-0.2,3.4-1.2s0.7-2.5,0.6-3.5c-1.2-7.4-7.9-11.3-17-9.8l-1,0.2l0.2,1c1.8,8.2,6.9,13.3,13.4,13.3
				C123.5,157.2,123.6,157.2,123.7,157.2z"/>
			<path d="M157.6,139.9l-0.7,1c-3.1,4.4-4.7,9.3-4.3,13.8c0.2,2.2,1,4.2,2.6,5.9c0.7,0.8,1.7,1.8,3,1.8c0.1,0,0.2,0,0.2,0
				c1.4-0.1,2.3-1.4,2.8-2.4c3.5-6,2.3-13.7-2.8-19.2L157.6,139.9z"/>
			<path d="M125.8,177.6c-1.1,0.8-2.6,1.8-2.9,3.4c-0.1,0.9,0.2,1.9,0.9,2.8c2.1,2.7,4.5,4,7.2,4c0.1,0,0.2,0,0.2,0l0,0
				c3.6-0.1,6.2-2.2,8.3-4.3c1.1-1.1,1.3-2.3,0.4-3.4C137.7,177,128.9,175.4,125.8,177.6z"/>
			<path d="M158.1,197.5c-0.2-0.1-0.4-0.3-0.6-0.4c-3.9-3.4-9.5-3.7-13.5-0.9c-0.7,0.5-1.5,1.2-1.5,2.2c0,1.1,0.9,1.8,1.3,2
				c3.8,2.8,7.1,4.4,10.5,4.9h0.1h0.1c2.7-0.1,4.5-1.1,5.4-3.1C161,199.7,159.2,198.3,158.1,197.5z"/>
			<path d="M176.6,154.8c-0.3-0.2-1.1-0.4-1.9,0.2c-1.8,1.2-3.5,5.6-3.2,8.4v0.1c0,0.2,0,0.3,0.1,0.5c0.6,2.4,1.3,5.4,4.3,6.6
				c0.2,0.1,0.4,0.1,0.6,0.1c0.3,0,0.7-0.1,1.2-0.4c1.7-1.2,3.4-5,3.4-7.7v-0.1C180.8,158.9,179.3,156.2,176.6,154.8z"/>
		</g>
		<path class="st0" d="M150.4,183.3c9.5,1.7,15,8.9,20.6,15.8C164.3,193.8,158.6,187,150.4,183.3z"/>
		<g>
			
				<linearGradient id="SVGID_1_" gradientUnits="userSpaceOnUse" x1="105" y1="454" x2="105" y2="778" gradientTransform="matrix(1 0 0 1 0 -454)">
				<stop  offset="0" style="stop-color:#EB1A21"/>
				<stop  offset="1" style="stop-color:#A51A21"/>
			</linearGradient>
			<path class="st3" d="M210,324c-70,0-140,0-210,0C0,216,0,108,0,0c70,0,140,0,210,0C210,108,210,216,210,324z M199.9,162.6
				c0-46.5-0.2-87.6-0.2-134.1c0-9.4-3.5-18.1-13-18.1c-50.8,0-101-0.4-151.8-0.4c-4,0-8.3,0.5-12.3,0.7
				c-5.9,0.2-11.3,6.1-11.3,11.7c0,93.3-0.4,182.4-0.4,275.8c0,1.5,0.2,1.6,0.3,3.1c0.7,6.6,5,12.6,11.3,12.6
				c55.5,0,107.4,0.2,162.9,0.3c1.9,0,3.6-0.7,5.3-1.7c5.5-3,9.5-6,9.5-12.1C200.1,254,199.9,208.9,199.9,162.6z"/>
			<path d="M200.8,161.4c0.1-9.1,0-18.3,0.1-27.6c0.2-36.3,0.1-72.7,0-109c0-9.1-6.8-15.3-16-15.3c-52.8,0-105.7,0-158.5,0
				c-9.4,0-15.6,6.2-15.6,15.8c0,38.4,0.2,76.7,0.1,115.1c0,29.5-0.4,58.9-0.5,88.4c-0.1,23.5-0.1,47-0.1,70.4
				c0,8,6.5,15.3,13.7,15.3c54.3,0.1,108.6,0,162.9,0c2.2,0,4-0.5,5.9-1.8c5.1-3.5,8.1-7.9,8-14.4
				C200.7,252.7,200.8,207.1,200.8,161.4z M186.5,310.2c-3,0-3.7,0-3.7,0s-103.1,0-154.7,0c-8.3,0-13.1-4.5-13-14.9
				c0-22.8,0-45.6,0.1-68.4c0.1-28.6,0.5-57.2,0.5-85.9c0.1-37.3-0.2-75.1-0.1-112.3c0-7.9,2.5-14.8,12.6-14.8
				c50.2,0,105.1,0.2,155.3,0.2c8.7,0,13,5.3,12.6,14.1c0,35.2,0,106.5,0,106.5v27c0,0,0,91.6,0.1,135.9
				C196,304.4,191.2,309.6,186.5,310.2z"/>
		</g>
	</g>
	<g>
		<g>
			<polygon class="st0" points="29.6,306 45.6,249.2 38.7,249.2 38.7,259.2 21.3,259.2 21.3,232.3 65.2,232.3 65.2,244.3 48.1,306 
							"/>
			<path d="M62.1,235.5v8.4l-16.3,59h-12l16-56.8H35.3v10H24.3v-20.6L62.1,235.5 M68.4,229.1h-6.3H24.4h-6.3v6.3V256v6.3h6.3h11.1
				h3.2l-10.9,38.7l-2.2,8.1h8.2h11.9h4.7l1.3-4.6l16.3-59l0.2-0.8V244v-8.4v-6.5H68.4z"/>
		</g>
	</g>
</g>
</svg>
