<?xml version="1.0" encoding="utf-8"?>
<!-- Generator: Adobe Illustrator 22.0.1, SVG Export Plug-In . SVG Version: 6.00 Build 0)  -->
<svg version="1.1" id="레이어_2_1_" xmlns="http://www.w3.org/2000/svg" xmlns:xlink="http://www.w3.org/1999/xlink" x="0px"
	 y="0px" viewBox="0 0 210 324" style="enable-background:new 0 0 210 324;" xml:space="preserve">
<style type="text/css">
	.st0{fill:#FFFFFF;}
	.st1{fill:#EB1A21;}
	.st2{fill:url(#SVGID_1_);}
</style>
<g>
	<g>
		<path class="st0" d="M165.4,320.1c-54.5,0-108.9,0-163.4,0C2,214.4,2,108.7,2,3c68.5,0,137,0,205.5,0c0,87.1,0,174.2,0,261.3
			c-16.7-12.2-29-27.9-38.4-46.1c-3.1-6-2.2-11.6,1.6-17c1.5-2.1,3-3.3,6-2.8c5.2,0.9,8.3-1.4,9.7-6.6c0.7-2.5,1-5.1,1.1-7.7
			c0-2.8,1.1-6.6-1.8-8.1c-2.8-1.5-5.4,1.4-7.8,2.9c-5.5,3.5-8.9,8.1-7.1,15.1c0.3,1,0.3,1.9-0.6,2.6c-2.9,2.6-4.6,6-6.3,10.3
			c-3.7-8.6-6.4-16.4-8.2-24.5c-1.1-5,0.4-9.7,2.8-14.1c1-1.8,2.2-2.7,4.3-1.2c4.1,2.9,8,1.7,11.7-1c3.2-2.3,5.8-5.3,8-8.5
			s1.5-4.9-2.2-5.4c-4.4-0.5-8.8-0.5-13.1,0.9c-2.9,0.9-5.7,2.4-6.5,5.4c-1.4,4.8-6,7.3-7.6,11.9c-1.1-3.6-1.7-6.9-2.3-10.3
			c-0.6-3.5,0.2-6.8,2-9.8c1.5-2.4,3.2-3.9,6.4-3.1c3.3,0.9,6.2-0.4,8.3-2.9c4-4.9,5.4-10.7,5.7-16.8c0.1-2.7-1.5-3.4-3.9-2.5
			c-4.1,1.6-8,3.7-11,7c-2,2.2-3.6,4.8-3.4,7.9c0.2,4.1-2.6,5.7-5.7,8c-0.5-5.7-0.9-10.7-1.3-15.7c-0.1-1.5,0.2-2.9,0.8-4.3
			c1.5-3.2,2.5-3.6,5.4-1.7c2.2,1.4,4.3,2.2,6.8,1c3.9-1.9,9.9-12,9.7-16.3c-0.1-1.5-0.5-2.5-2.1-2.7c-5.6-0.7-14.4,4.2-16.3,9.6
			c-0.8,2.3-1.8,4-5.1,4.3c0-3.7,0-7,0-10.4c0-1.8-0.2-3.6,0.1-5.4c0.2-1.6,0.9-3.1,1.6-4.6c1-2.4,2.2-3.2,4.6-1.1
			c3,2.7,5.6,2.7,8.4,0.6c3.7-2.8,6.1-6.7,7.7-11.1c0.6-1.8,0.4-3.5-1.9-4.3c-6.1-2-14.2,1.4-16.9,7.2c-0.5,1-0.6,2.3-2.6,2.7
			c-1-6.5-0.9-12.8,1.4-18.9c0.6-1.6,1.8-1.6,3.2-0.6c1.8,1.3,3.8,1.8,6,1.5c5-0.7,12.7-9,12.9-14.1c0.1-1.7-0.2-3.1-2.3-3.6
			c-8.3-1.9-16.4,2.6-19.3,10.8c-0.1,0.2-0.5,0.2-1,0.3c-0.2-7.7,0.2-15.1,6.7-20.5c2.1-1.8,3.9-3.1,6.8-1.1
			c3.3,2.2,6.5,1.2,9.4-1.3c1.8-1.5,3.2-3.3,4.3-5.3c1.3-2.6,4.5-5.3,2.3-8.4c-1.9-2.7-5.5-1.2-8.3-0.8c-4.7,0.6-9.4,2.1-11,7
			c-1.4,4.4-4.7,6.2-8.1,9.3c-0.4-3.6,0.7-6.4,0.7-9.2c0-2.6,1.2-4,3.6-5.1c7.8-3.7,9.6-10.9,4.8-18.3c-1.8-2.8-3.2-3.1-6-1.1
			c-4.6,3.4-6.8,8.1-5.6,13.7c1,4.8-0.1,9.2-0.9,14.7c-2.1-3-5.5-3.9-5.4-7.4c0.3-6.4-3.9-9.7-8.6-12.5c-3.8-2.3-6-0.9-5.8,3.4
			c0.2,5.1,1.6,9.9,4.4,14.2l0.1-0.1c-2.1-0.5-4.2-0.5-6.3-0.5c-13.9,0-27.7,0-41.6,0c-9.5,0-9.6,0-9.5,9.4c0.1,3.5-0.7,5.5-4.3,7
			c-6,2.5-9.9,6.9-8.7,14.1c0.1,0.6,0.1,1.3-1.1,1.8c-3.3-4.6-5.9-9.4-4.9-15.4c0.4-2.4,1.4-4.1,4.5-4.1c4.9,0,6.6-1.8,7.5-6.6
			c0.5-2.4,0.2-4.9-0.1-7.3c-0.3-2.6-0.4-5.8-3-6.8s-4.7,1.7-6.7,3.3c-3.7,3.1-6.6,7-4.4,11.9c1.5,3.4,0,5.4-1.6,8.7
			c-1.2-2.3-1.9-4.1-2.9-5.7c-3.5-5.7-2.3-11.6-0.6-17.5c0.5-1.6,1.4-2.3,3-2.7c4.1-0.9,5.8-3.9,6.2-7.8c0.4-4.1-0.1-8.2-1.2-12.1
			c-1-3.8-3.1-4.5-6-1.9c-2.3,2.1-4.3,4.5-5.7,7.3c-1.6,3.2-2.2,6.4-0.7,9.9c2,4.6,1.8,6.2-1,11.2c-4.2-6.7-4.9-9-4.8-16.3
			c0.1-5.6-3.9-11.4-9.1-13.3c-2.2-0.8-3.9-0.2-5,1.7c-4.1,6.8-0.1,16.9,7.5,19.1c1.3,0.4,3.1-0.1,3.9,1.6c1.3,2.9,2.6,5.7,4.3,9.6
			c-3.3-1.4-6.2-1.5-7.2-3.9c-3.4-8.3-10.6-8.2-17.6-8.2c-3,0-4.1,1.9-2.7,4.7c1.9,3.6,4.3,7,7.5,9.5c3.6,2.8,6.4,3.1,10.3,0.4
			c2.2-1.5,3.7-0.9,5.8-0.2c8.7,3.2,10.1,11.5,14,18.6c-2.7,0.3-4.3-0.1-5.7-1.9c-4.8-6.1-12.5-8.1-19.7-5.4c-2,0.8-4,1.9-3.3,4.6
			c2.6,9.7,14,13.7,22.1,7.5c1.9-1.4,3.5-1.5,5.4-0.6c2.2,1.1,4.2,2.5,5.5,4.7c3.4,5.9,6.6,11.9,10.4,18.5c-4.2-1.4-7.8-1.9-8.6-6.7
			c-0.5-2.8-3.1-4.5-5.9-5.3c-4-1.1-8.1-0.8-12.1,0.2c-2.5,0.6-3.1,2.2-2.3,4.4c1.1,3.1,2.8,5.9,5.1,8.3c3.5,3.5,7.8,4.5,12,1.9
			c3.1-1.9,5.7-1.6,8.6-0.1c2,1.1,4.1,1.9,6.1,3.1c4.5,2.7,4.8,3.9,2.6,9.2c-0.7,0-1.3-0.3-1.6-0.9c-3.1-5.2-7.9-5.9-13.2-4.4
			c-2.3,0.6-5.3,0.7-6,3.5c-0.6,2.6,2,3.9,3.6,5.4c2.3,2.3,4.9,4.3,8.3,4.9c3.7,0.8,5.9-1.7,8.5-3.8c-2.4,18.7-6.4,36.8-13,54.2
			c-0.8-2.6-1.1-5.2-1.8-7.7c-1-3.2-3.6-3.8-6-1.6c-2.9,2.7-5.3,5.7-7.1,9.3c-1.7,3.4-2.2,6.8,0.4,10.1c1.3,1.6,1.5,3.1-0.4,4.9
			c-3.2-3.3-5.3-7.2-7.4-11c-1.1-2-0.7-4.5-0.1-6.7c0.5-2.1,2.7-1.4,4.2-1.8c3.6-1.2,5.1-3.9,5.3-7.4c0.3-4.5-1-8.7-2.5-12.9
			c-1.3-3.5-2.2-3.7-5.3-1.7c-5.4,3.7-7.5,9.5-5.8,16.3c0.7,2.7,1.7,5.3-0.5,8.2c-2.6-3.8-4.9-7.4-7.5-11c-1.2-1.7-1.5-3.3-0.8-5.4
			c2.3-7.9-2.6-15.7-10.6-17.4c-2.3-0.5-4,0.1-4.3,2.6c-0.7,4.8-0.4,9.5,1.6,13.9c1.1,2.3,2.9,4.3,5.5,4.5c5.7,0.5,6.3,5.2,8.5,8.8
			c-4.8-4.2-10-3.9-15.3-1.4c-4.4,2-4.7,4.2-1.7,7.9c1.9,2.2,4,4.3,6.7,5.6c3.1,1.5,6,1.3,8.8-0.6c4.1-2.7,5.6-2.8,9.2,0.5
			c4.9,4.3,7.7,10.2,12.2,15.6c-3.2,0.1-4.9-0.6-6.6-2.2c-5.5-5.3-11.7-6-18.3-2.4c-3.1,1.7-3.6,4.3-1.4,7.2c5.8,7.5,12.8,8.2,20,2
			c2-1.8,4.9-1.4,7.9,0.7c2.4,1.6,1.3,3.3,0.4,5c-6.1,12.5-13.3,24.3-21.5,35.5c-0.7,1-2.2,1.8-1.6,3.3c0.7,1.8,2.4,1.3,3.8,1.3
			c16.6,0.8,33.2,1.6,49.8,2.3c3.3,0.1,6.8,1.4,9.7-1.5c0.7-0.7,1.9,0,2.8,0.2c8.5,1.8,16.9,3.7,25.1,6.3c1,0.3,2.4,0.2,2.8,1.9
			c-5.6,2-11.4,3.8-16.4,7.2c-2.2,1.6-4.1,1.6-6.7,0.8c-7.7-2.5-14.9,1.5-17.4,9.2c-0.7,2.2-0.5,4,2.1,4.5c5.2,1,10.4,1.4,15.5-0.2
			c3.2-1,5.7-3,5.5-6.6c-0.1-2.8,1.4-4,3.4-5.3c5.9-3.6,12.5-5.5,19.1-7.4c2-0.6,3.7-0.6,5.6,0.1c30.5,10.8,58,26.6,81.6,48.9
			c0,8.2,0,16.3,0,24.5c-12.7,0-25.4,0-38.2,0c-0.1-2.5-1.4-4.6-2.2-6.9c-0.5-1.6-1.1-3-0.6-4.7c1.6-5.5,1.3-11,0.4-16.5
			c-0.3-1.9-0.1-3,1.6-4c2.6-1.4,4.1-3.8,4.2-6.8c0.1-4.6-2-8.5-4.8-12c-0.9-1.2-2.2-1.3-3.5-0.8c-6.8,2.8-8.8,13.7-3.4,19
			c3,2.9,4.2,11,2,15.4c-4.7-10.7-10.1-20.7-16.4-30.1c-0.4-0.6-0.6-1.5-0.7-2.3c-1.6-10.2-5.9-14.7-15.7-16.5c-4-0.7-4.8,0-4.3,3.8
			c0.3,2.1,0.7,4.2,1.3,6.2c2.4,7.9,5.5,10.1,13.7,10.1c1.2,0,2.3,0.1,3,1.1c2,3,4.1,5.9,5.9,9.9c-5.8-1.6-10.6-3.2-15.6-3.9
			c-1.5-0.2-2.1-1.1-2.8-2.3c-4.4-8.2-11.1-10.8-20.1-8.1c-2.3,0.7-3,1.8-2.9,4.2c0.7,9.8,10.2,15.8,19,11.3c3.4-1.7,6.4-1.9,9.8-1
			c3,0.8,5.9,1.8,9,2.4c7,1.3,9.2,6.6,11.3,12.8c-3.9-0.7-7.1-1.9-10.5-2c-1.2-0.1-2.1-0.8-2.8-1.8c-6.2-8.8-15.4-6.2-21.8-2.5
			c-2.3,1.3-2.8,3-1.2,5.2c5.8,8.1,13.7,11.1,22,4.3c1.7-1.4,3.3-1.8,5.4-1.5c3.1,0.5,6,1.3,8.9,2.4c1.2,0.4,2.5,1,3,2.3
			C162.4,311.2,165.1,315.2,165.4,320.1z"/>
		<g>
			<path d="M138.1,191.1c-3.5-0.8-7-0.8-11.3-0.1l-1.6,0.3l1,1.3c3.3,4.3,6.2,7.8,10.3,10c1.5,0.8,2.7,1.1,3.8,1.1
				c1.8,0,3.2-0.9,4.1-1.9c2-2.1,0.8-6.2-1.5-8.4C141.7,192.4,140,191.6,138.1,191.1z"/>
			<path d="M184.5,179.7l-0.2-1l-1,0.3c-2.6,0.7-4.3,1.9-5.9,3.2c-2.1,1.7-4.9,4.4-4.6,8.7c0.1,1.7,0.3,4.5,3.4,5.1
				c0.6,0.1,1.4,0.2,2.1,0.2c1.6,0,3.4-0.5,4.6-2.4c0.6-1,1.1-2,1.3-3C184.9,187.5,185.5,183.9,184.5,179.7z"/>
			<path d="M91.9,254.8c-2.8-0.8-7-1.6-10.6,1.5l-0.2,0.2c-1.7,1.4-4,3.4-3.2,5.9c0.7,2.1,2.8,2,4.4,1.9c0.6,0,1.2,0,1.7,0
				c0.2,0,0.4,0,0.5,0s0.3,0,0.4,0h0.2c2.1,0,4.9-0.1,7.5-1.3c1.8-0.8,2.7-2.3,2.7-4.4C95.4,255.8,92.9,255.1,91.9,254.8z"/>
			<path d="M180.2,156.5l0.9-1.3l-1.6-0.2c-4.1-0.6-8.8-1-13.3,1.3c-1.4,0.7-2.6,1.9-3.3,3.2c-0.7,1.4-0.7,2.9-0.2,4
				c0.6,1.1,1.6,1.9,3,2.4c0.7,0.2,1.3,0.3,2,0.3c1.1,0,2.2-0.3,3.2-0.8C175,163.3,177.8,159.9,180.2,156.5z"/>
			<path d="M158.7,144.5c0.7,0.4,1.4,0.6,2.1,0.6c1.2,0,2.4-0.5,3.5-1.3c0.9-0.7,1.7-1.5,2.2-2.4c2.2-3.5,3.4-7.4,3.7-11.9l0.1-1.4
				l-1.3,0.3c-6.5,1.6-11.3,6-11.9,11.1v0.3C157.1,141.2,156.8,143.4,158.7,144.5z"/>
			<path d="M163.6,241.1c0.6,0,1.2-0.2,1.9-0.5c2.1-1.2,3.1-3.7,2.6-6.6c-0.3-1.5-1-3-2.2-4.3c-1.7-1.9-3.7-3.9-6.7-5.2l-1-0.4
				l-0.3,1.1c-1.5,5.3-1,10,1.2,12.8C159.9,239.1,161.5,241.1,163.6,241.1z"/>
			<path d="M124.8,159.9c1.1,1.2,2.3,1.8,3.6,1.8c0.9,0,1.9-0.3,2.9-1c2.9-1.9,1.7-4.6,1.1-5.9c-2.1-4.9-5.4-6.6-11.6-5.9l-1.2,0.1
				l0.3,1.1C121,153.8,122.2,157.2,124.8,159.9z"/>
			<path d="M126.8,226.2c0.7,0,1.4-0.2,1.9-0.7c2.2-1.9,2.5-4.6,0.9-7.5c-1.5-2.8-3.9-4.9-8-7.1l-1.2-0.6l-0.2,1.4
				c-0.8,4.6-0.4,8,1.3,11c1,1.7,2.8,3.1,4.6,3.4C126.3,226.2,126.5,226.2,126.8,226.2z"/>
			<path d="M101.9,211.8c-1.1-0.7-2.2-0.8-3-0.4c-0.5,0.3-1.2,0.9-1.3,2.3c-0.2,2.9-0.1,5.9,1.6,8.6c1.2,1.8,2.7,2.8,4.3,2.8
				c0.4,0,0.9-0.1,1.4-0.2c2-0.6,2-2.5,2.1-3.6c0-0.3,0-0.6,0.1-0.8v-0.1C107.1,216.7,105.5,214,101.9,211.8z"/>
			<path d="M129.3,130.6c0.9,0,1.9-0.2,2.8-0.7c2.5-1.3,1.5-3.6,1.1-4.7c-0.1-0.3-0.2-0.5-0.3-0.8c-0.4-1.4-1.3-2.7-2-3.7
				c-1.9-2.6-3.9-2.8-5.2-2.4c-2.2,0.6-2.3,2.4-2.3,3.7c0,0.4,0,0.8-0.1,1.1v0.3c0,2.4,1.2,4.1,2.4,5.5
				C126.6,130,127.9,130.6,129.3,130.6z"/>
			<path d="M140.3,295.8c-2.8-2.5-7.9-4.5-16,0.6l-0.8,0.5l0.5,0.8c2,3.7,4.7,6.1,7.8,6.9c0.8,0.2,1.6,0.3,2.3,0.3
				c1.9,0,3.8-0.6,5.6-1.7c1.5-0.9,2.9-1.9,3-3.4C142.9,298.3,141.7,297,140.3,295.8z"/>
			<path d="M129.6,256.4l-1.3-0.3l0.1,1.3c0.2,3.7,1.1,6.8,2.8,9.8c1.6,2.9,4,4.5,7.1,4.6c0.2,0,0.4,0,0.6,0c1.3,0,2.8-0.2,3.6-1.3
				c1-1.3,0.6-3.1,0.2-4.4C140.7,259.7,135.2,257.6,129.6,256.4z"/>
			<path d="M165.6,271.5c-0.5-0.1-1.1,0.2-1.7,0.7c-1.7,1.4-3.9,5.2-4.1,7.6c0,0.6,0,1.2,0.1,1.7c0.3,1.6,1.6,3.4,3.2,4.4
				c0.7,0.4,1.4,0.6,2,0.6c0.2,0,0.5,0,0.7-0.1c2.7-0.8,4.4-2.8,4.6-5.5l0,0C170.3,278.4,167.8,271.7,165.6,271.5z"/>
		</g>
		<g>
			<path class="st1" d="M24.6,57.1l-1.1,0.3l0.5,1c1.3,2.9,3.1,5.1,5.8,7.1c1.8,1.4,3.6,2.1,5.3,2.1c0.6,0,1.3-0.1,1.9-0.3l0.3-0.1
				c2-0.6,4.9-1.4,5.2-4.2c0.3-2.2-1.1-4.2-4.2-5.8C34.4,55.4,30.1,55.3,24.6,57.1z"/>
			<path class="st1" d="M48,90.8c1.4,0,2.9-0.4,4.5-1.3s2.3-2.3,1.9-4.3c-0.6-3-2.4-5-5.4-5.8c-0.7-0.2-1.5-0.3-2.1-0.3
				c-2.2-0.1-4.9-0.3-7.8,0.8l-0.8,0.3l0.2,0.9c0.9,3.7,2.9,6.7,6.1,8.7C45.6,90.4,46.7,90.8,48,90.8z"/>
			<path class="st1" d="M155.3,65.5c-2.7,2-3.6,4.9-2.4,7.7c0.4,1,1.3,1.7,2.5,2c0.5,0.1,1,0.2,1.5,0.2c1.5,0,3.2-0.5,4.5-1.5
				c3.6-2.5,5.6-6.2,7.4-9.7l0.6-1.3l-1.5-0.1C162.3,62.2,158.5,63,155.3,65.5z"/>
			<path class="st1" d="M30.7,181.6l-0.4-0.2c-1.4-0.8-3-1.1-5-1.1h-0.1c-2.3,0.2-4.3,0.8-6.2,1.6c-0.5,0.3-1.5,0.7-1.8,1.6
				c-0.2,0.6-0.1,1.2,0.3,2c1.6,3,6.6,5.7,10.1,5.7c0.5,0,1-0.1,1.5-0.2c4-1.2,5-3.3,5.1-4.9C34.5,183.6,32.3,182.5,30.7,181.6z"/>
			<path class="st1" d="M15.5,146.1c0.4,0,0.9-0.1,1.3-0.2c2.6-0.6,2.8-2.9,2.9-4.5v-0.3c0.4-5.1-2.6-8.6-9.3-10.9l-1.2-0.4L9.1,131
				c-0.6,5.4,0,9.8,1.7,12.3C12.1,145.2,13.7,146.1,15.5,146.1z"/>
			<path class="st1" d="M52.2,154.6l-1.3,1.1c-3.3,2.8-5.6,5.7-7.2,9.2c-0.9,2.1-1.1,4-0.5,5.4c0.5,1.2,1.4,2,2.7,2.5
				c0.6,0.2,1.2,0.3,1.8,0.3c0.8,0,1.5-0.2,2.2-0.6c1.5-0.8,2.7-2.4,3.2-4.6c1-3.8,0.2-7.5-0.8-11.7L52.2,154.6z"/>
			<path class="st1" d="M28.4,25.4c0.9,0.7,2.4,2,4.1,2c0.4,0,0.8-0.1,1.2-0.2c1.8-0.7,2-2.4,2-3.6c0-0.4,0.1-0.9,0.2-1.1l0.1-0.3
				c0.1-4.1-3.1-9-6.7-10.4c-0.9-0.3-2.2-0.6-3.1,1.1C24.3,16.2,25.5,23,28.4,25.4z"/>
			<path class="st1" d="M174.9,35.9c-6.4-0.1-10.3,1-12.5,3.6c-1.1,1.3-3.2,3.7-1.3,6c1.3,1.7,2.9,2.5,4.6,2.5
				c0.9,0,1.8-0.3,2.7-0.8c1.1-0.7,2.1-1.5,2.9-2.3c2.1-2.4,3.6-4.8,4.6-7.7l0.5-1.3H174.9z"/>
			<path class="st1" d="M21.3,164.5c1.1-2.3-0.8-5.7-3.8-7.1c-4.1-1.9-7.8-0.4-11.1,1.5l-0.9,0.5l0.6,0.9c2,3.1,4.1,5.2,6.7,6.5
				c1,0.5,2.2,0.8,3.3,0.8c0.7,0,1.5-0.1,2.2-0.4C19.6,166.7,20.7,165.7,21.3,164.5z"/>
			<path class="st1" d="M38.4,138.5l-1,0.7c-4.9,3.5-6.4,7.5-4.9,12.9c0.1,0.2,0.1,0.4,0.2,0.7c0.3,1.3,0.8,3.6,3.4,3.6
				c0.2,0,0.4,0,0.7-0.1c2.6-0.4,4.2-2.1,4.4-4.9c0.3-4-0.5-7.9-2.3-11.8L38.4,138.5z"/>
			<path class="st1" d="M74.8,59.3l-1,0.3c-4,1.2-8.2,3.2-9.5,8.3c-0.4,1.5-1.2,5,2.6,5.9c0.8,0.2,1.5,0.3,2.2,0.3
				c2.3,0,4-1.1,4.6-3.3v-0.1c1-3.2,2.1-6.5,1.3-10.4L74.8,59.3z"/>
			<path class="st1" d="M154.5,118.2c-1.6,3.4,0,5.3,1.5,6.3c0.8,0.6,1.6,0.8,2.3,0.8c1.8,0,3-1.4,3.6-2.1c2.6-2.9,4.4-6.2,5.8-10.7
				l0.5-1.5l-1.6,0.2C161,111.9,156.8,113.4,154.5,118.2z"/>
			<path class="st1" d="M50.3,29.5C50.4,29.5,50.4,29.5,50.3,29.5c2.4,0,4.2-1.6,4.6-4.2c0.6-3.6,0.9-8-1.3-12.6L53,11.5l-1,0.9
				c-3.5,3.1-7.1,6.9-6.1,12.7C46.7,28.9,49,29.5,50.3,29.5z"/>
			<path class="st1" d="M60.7,52.1L60.7,52.1c3.8,0,4.4-3.2,4.7-4.5c0.6-3.3,0-6.4-0.8-9.9l-0.3-1.2l-1.1,0.6
				c-5.8,3-8.2,6.2-7.5,10.2C56.2,50.5,57.9,52.1,60.7,52.1z"/>
			<path class="st1" d="M157.7,100.1c1.1,0,2.4-0.5,3.7-1.9c2.5-2.6,4.2-5.3,5.2-8.6l0.4-1.2l-1.2-0.1c-3.8-0.3-7.8-0.2-11,2.5
				c-1.2,1-1.9,2.4-2,3.8c-0.1,1.5,0.6,2.9,1.7,4.1C155.2,99.3,156.3,100.1,157.7,100.1z"/>
			<path class="st1" d="M22,41.4c1.2,0.8,2.4,1.2,3.5,1.2c1.3,0,2.5-0.6,3.5-1.8c0.8-0.9,1.2-2.2,1-3.4c-0.2-1.5-1.2-2.9-2.8-3.9
				c-3.4-2.1-7.1-2.8-11.4-2l-1.4,0.2L15,33C17.2,37,19.3,39.5,22,41.4z"/>
			<path class="st1" d="M153.8,33.3c2.1,0,3.7-2,4.8-3.3c0.2-0.3,0.5-0.6,0.6-1c1.3-2.6,0.6-7.9-1.2-9.9c-1.3-1.4-2.4-1-2.9-0.6
				c-2.6,1.8-4.1,4.3-4.5,7.5c0,0.4,0,0.7,0,1.2c0,0.3,0,0.6,0,0.9v0.1c0,0.2,0,0.5,0,0.8c0,1.2,0,3.6,2.3,4.1
				C153.2,33.3,153.5,33.3,153.8,33.3z"/>
			<path class="st1" d="M62.9,101.2c-3-1.1-6.1-0.8-9.6,1l-1.1,0.6l0.7,1c2.6,3.3,4.1,4.7,6.2,5.7c0.6,0.3,1.8,0.9,3.2,0.9
				c1.2,0,2.6-0.5,3.7-2.2c0.6-0.9,0.7-2.1,0.3-3.3C65.9,103.2,64.6,101.9,62.9,101.2z"/>
			<path class="st1" d="M131.7,26.7l-1.4-0.7l-0.1,1.5c-0.2,3.3,0.3,6.1,1.5,9.1c1,2.6,2.5,3.3,3.8,3.3c0.6,0,1.1-0.1,1.5-0.3
				c1.1-0.4,1.9-1.1,2.3-2c0.6-1.5,0.1-3.1-0.4-4.2C137.8,30.7,135.7,28.7,131.7,26.7z"/>
			<path class="st1" d="M129.8,98.6c-3.3,0-3.5,2.4-3.6,3.8c0,0.4-0.1,0.8-0.1,1.1v0.1v0.1c0,3.1,2.5,5.3,5.8,5.3l0,0h0.1
				c1.2,0,3.6,0,3.7-2.8c0.1-2-1.2-4.3-2.6-5.7C132.4,99.6,131.2,98.6,129.8,98.6z"/>
			<path class="st1" d="M132.9,56l-0.8-0.4l-0.5,0.8c-1,1.8-1.1,3.7-1.1,5.5v0.7c0,2.4,0.9,4.3,2.8,5.5c0.7,0.4,1.4,0.7,2.1,0.7
				c0.4,0,0.9-0.1,1.3-0.3c1-0.4,1.7-1.3,1.9-2.4C139.4,62.1,136.9,57.8,132.9,56z"/>
			<path class="st1" d="M132.3,88.4L132.3,88.4c1.1,0,1.8-0.3,2.4-0.8c0.5-0.5,0.8-1.3,0.7-2.3c0-1.8-1.1-4.1-2.4-5.1
				c-0.8-0.7-1.6-0.7-2-0.6c-2.2,0.4-2.3,2.2-2.4,3.2c0,0.3-0.1,0.6-0.1,0.8v0.2c-0.1,1.5,0.1,2.7,0.9,3.5
				C129.9,88.1,130.9,88.4,132.3,88.4z"/>
			<path class="st1" d="M123.7,273.5c-3.6-1.6-7.5-1.6-12.2,0l-0.7,0.2v0.8c0.1,1.9,1,3.4,1.7,4.7l0.1,0.2c1.4,2.5,3.4,5.2,7.1,5.9
				c0.4,0.1,0.9,0.1,1.4,0.1c3.1,0,7.2-1.5,8-3.6C130.1,279.3,126.8,274.9,123.7,273.5z"/>
		</g>
		<path class="st1" d="M129.3,45.2c-1-1-2.5-1.2-3.9-1.1c-9.9,0.1-19.9,0.1-29.6,0.1c-4.1,0-8.3,0-12.4,0c-5.7,0-6.2,0.5-6.3,6.3
			c-0.3,26.2-2.5,49.6-6.7,71.8C62.6,163.4,48.6,198,27.5,228c-0.1,0.1-0.1,0.2-0.2,0.3c-0.5,0.7-1.3,1.7-1.1,3.6l0.1,0.9l13.1,0.6
			c12.7,0.6,25.8,1.1,38.6,1.8c0.1,0,0.3,0,0.4,0c2.7,0,4.2-1.5,5.4-2.9c3.3-4.2,6-8.1,8.4-12.2c7.5-12.8,13.4-27.3,18.6-45.9
			c12-42.7,16.4-87,19.5-125.1C130.3,47.2,130.1,46,129.3,45.2z"/>
		<path d="M207.5,295.6c-23.6-22.3-51.1-38.1-81.6-48.9c-1.9-0.7-3.6-0.6-5.6-0.1c-6.6,1.9-13.1,3.8-19.1,7.4
			c-2.1,1.2-3.5,2.4-3.4,5.3c0.1,3.6-2.4,5.6-5.5,6.6c-5.1,1.6-10.3,1.1-15.5,0.2c-2.6-0.5-2.8-2.3-2.1-4.5
			c2.6-7.7,9.7-11.7,17.4-9.2c2.6,0.8,4.5,0.7,6.7-0.8c5-3.5,10.7-5.3,16.4-7.2c-0.4-1.7-1.7-1.6-2.8-1.9
			c-8.3-2.5-16.7-4.5-25.1-6.3c-0.9-0.2-2.2-0.8-2.8-0.2c-2.9,2.8-6.5,1.6-9.7,1.5c-16.6-0.7-33.2-1.5-49.8-2.3
			c-1.4-0.1-3.2,0.4-3.8-1.3c-0.6-1.5,0.9-2.3,1.6-3.3c8.3-11.2,15.4-23,21.5-35.5c0.9-1.8,2-3.4-0.4-5c-3-2.1-5.9-2.4-7.9-0.7
			c-7.2,6.2-14.2,5.5-20-2c-2.2-2.9-1.7-5.5,1.4-7.2c6.6-3.6,12.9-2.9,18.3,2.4c1.7,1.6,3.4,2.3,6.6,2.2
			c-4.4-5.5-7.3-11.3-12.2-15.6c-3.6-3.2-5.2-3.2-9.2-0.5c-2.8,1.9-5.7,2.1-8.8,0.6c-2.7-1.3-4.8-3.3-6.7-5.6
			c-3.1-3.6-2.7-5.9,1.7-7.9c5.2-2.4,10.4-2.7,15.3,1.4c-2.1-3.6-2.8-8.3-8.5-8.8c-2.5-0.2-4.4-2.2-5.5-4.5c-2-4.4-2.3-9.1-1.6-13.9
			c0.4-2.5,2.1-3.1,4.3-2.6c8,1.7,12.9,9.5,10.6,17.4c-0.6,2.1-0.4,3.7,0.8,5.4c2.5,3.6,4.9,7.2,7.5,11c2.2-2.9,1.1-5.5,0.5-8.2
			c-1.7-6.8,0.4-12.7,5.8-16.3c3.1-2.1,4-1.8,5.3,1.7c1.5,4.2,2.8,8.4,2.5,12.9c-0.2,3.5-1.6,6.3-5.3,7.4c-1.5,0.5-3.6-0.2-4.2,1.8
			c-0.6,2.2-0.9,4.7,0.1,6.7c2,3.8,4.2,7.7,7.4,11c1.8-1.7,1.6-3.3,0.4-4.9c-2.6-3.3-2.1-6.7-0.4-10.1c1.8-3.5,4.2-6.6,7.1-9.3
			c2.4-2.2,5-1.6,6,1.6c0.8,2.4,1,5.1,1.8,7.7c6.6-17.4,10.5-35.5,13-54.2c-2.6,2.1-4.8,4.6-8.5,3.8c-3.4-0.7-5.9-2.7-8.3-4.9
			c-1.6-1.5-4.2-2.8-3.6-5.4c0.7-2.8,3.7-2.9,6-3.5c5.3-1.5,10-0.9,13.2,4.4c0.4,0.6,0.9,0.9,1.6,0.9c2.2-5.2,1.9-6.5-2.6-9.2
			c-1.9-1.2-4.1-2-6.1-3.1c-2.9-1.6-5.4-1.9-8.6,0.1c-4.2,2.6-8.5,1.6-12-1.9c-2.3-2.3-4-5.2-5.1-8.3c-0.8-2.2-0.2-3.8,2.3-4.4
			c4-0.9,8.1-1.3,12.1-0.2c2.8,0.8,5.4,2.5,5.9,5.3c0.8,4.8,4.4,5.3,8.6,6.7c-3.7-6.7-7-12.6-10.4-18.5c-1.2-2.2-3.3-3.6-5.5-4.7
			c-1.9-0.9-3.5-0.8-5.4,0.6c-8.1,6.2-19.6,2.2-22.1-7.5c-0.7-2.7,1.3-3.9,3.3-4.6C32,51.9,39.6,54,44.5,60c1.4,1.8,3,2.3,5.7,1.9
			c-3.9-7-5.2-15.4-14-18.6c-2.1-0.8-3.7-1.3-5.8,0.2c-3.8,2.7-6.6,2.4-10.3-0.4c-3.3-2.5-5.7-5.9-7.5-9.5c-1.4-2.7-0.4-4.7,2.7-4.7
			c7.1,0,14.2-0.1,17.6,8.2c1,2.4,3.9,2.5,7.2,3.9c-1.7-3.8-3-6.7-4.3-9.6c-0.8-1.7-2.5-1.2-3.9-1.6c-7.6-2.2-11.6-12.3-7.5-19.1
			c1.1-1.9,2.9-2.5,5-1.7c5.2,1.9,9.2,7.7,9.1,13.3c-0.1,7.3,0.5,9.6,4.8,16.3c2.8-5.1,2.9-6.6,1-11.2c-1.5-3.4-0.9-6.7,0.7-9.9
			c1.4-2.8,3.4-5.2,5.7-7.3c2.8-2.5,4.9-1.9,6,1.9c1.1,4,1.6,8,1.2,12.1c-0.4,3.9-2.1,6.9-6.2,7.8c-1.6,0.3-2.5,1-3,2.7
			c-1.7,5.9-2.9,11.7,0.6,17.5c1,1.6,1.7,3.4,2.9,5.7c1.6-3.3,3.1-5.3,1.6-8.7c-2.1-4.9,0.7-8.8,4.4-11.9c2-1.6,4-4.2,6.7-3.3
			c2.6,1,2.7,4.2,3,6.8c0.3,2.4,0.6,4.9,0.1,7.3c-0.9,4.7-2.6,6.5-7.5,6.6c-3.1,0-4.1,1.7-4.5,4.1c-1,6,1.5,10.8,4.9,15.4
			c1.2-0.5,1.2-1.3,1.1-1.8c-1.2-7.2,2.7-11.6,8.7-14.1c3.6-1.5,4.3-3.6,4.3-7c-0.1-9.4,0-9.4,9.5-9.4c13.9,0,27.7,0,41.6,0
			c2.1,0,4.2,0,6.3,0.5c1.1,2.5,0.6,5.1,0.4,7.7c-0.2,1.5-0.5,2.9,1.5,3.5c5.1,1.7,6.6,5.9,7,10.7c0.2,2.5,1,4.3,3.7,5.3
			c1.4-5.5,1.2-11.1,1.7-16.5c0.3-3.4-2-6.4-4.2-9.1c-1.9-2.3-4.4-1.6-6.8-1.5c-1.1,0.1-2.3-0.1-3.4-0.1c-2.8-4.3-4.2-9.1-4.4-14.2
			c-0.1-4.3,2-5.7,5.8-3.4c4.7,2.8,8.9,6.1,8.6,12.5c-0.2,3.5,3.3,4.3,5.4,7.4c0.7-5.5,1.9-9.9,0.9-14.7c-1.2-5.6,1-10.3,5.6-13.7
			c2.8-2,4.2-1.7,6,1.1c4.8,7.3,3,14.5-4.8,18.3c-2.4,1.1-3.6,2.5-3.6,5.1c0,2.8-1.1,5.6-0.7,9.2c3.4-3.1,6.7-4.9,8.1-9.3
			c1.5-4.8,6.3-6.4,11-7c2.8-0.3,6.3-1.9,8.3,0.8c2.2,3.1-1,5.7-2.3,8.4c-1,2-2.5,3.8-4.3,5.3c-2.9,2.4-6.1,3.5-9.4,1.3
			c-2.9-2-4.7-0.6-6.8,1.1c-6.5,5.5-6.9,12.8-6.7,20.5c0.5-0.1,0.9-0.2,1-0.3c2.9-8.2,11-12.6,19.3-10.8c2.2,0.5,2.4,1.9,2.3,3.6
			c-0.2,5-7.9,13.4-12.9,14.1c-2.2,0.3-4.2-0.2-6-1.5c-1.4-0.9-2.6-0.9-3.2,0.6c-2.3,6.1-2.4,12.4-1.4,18.9c1.9-0.4,2.1-1.7,2.6-2.7
			c2.7-5.8,10.9-9.2,16.9-7.2c2.3,0.8,2.5,2.5,1.9,4.3c-1.6,4.3-4,8.3-7.7,11.1c-2.8,2.1-5.3,2.1-8.4-0.6c-2.5-2.2-3.6-1.4-4.6,1.1
			c-0.6,1.5-1.3,3-1.6,4.6c-0.3,1.8-0.1,3.6-0.1,5.4c0,3.4,0,6.8,0,10.4c3.4-0.3,4.3-2,5.1-4.3c1.9-5.4,10.7-10.4,16.3-9.6
			c1.7,0.2,2.1,1.2,2.1,2.7c0.2,4.3-5.7,14.4-9.7,16.3c-2.6,1.2-4.7,0.4-6.8-1c-2.9-1.9-3.9-1.5-5.4,1.7c-0.6,1.4-0.9,2.8-0.8,4.3
			c0.4,5,0.8,10,1.3,15.7c3.2-2.3,5.9-3.9,5.7-8c-0.1-3.1,1.4-5.6,3.4-7.9c3-3.3,6.9-5.4,11-7c2.4-1,4-0.2,3.9,2.5
			c-0.3,6.1-1.7,12-5.7,16.8c-2.1,2.6-5,3.8-8.3,2.9c-3.2-0.9-4.9,0.6-6.4,3.1c-1.8,3.1-2.6,6.3-2,9.8c0.6,3.4,1.3,6.7,2.3,10.3
			c1.6-4.6,6.2-7.1,7.6-11.9c0.9-3,3.6-4.5,6.5-5.4c4.3-1.3,8.7-1.4,13.1-0.9c3.7,0.4,4.4,2.2,2.2,5.4s-4.8,6.2-8,8.5
			c-3.7,2.7-7.6,3.9-11.7,1c-2.1-1.5-3.3-0.6-4.3,1.2c-2.5,4.4-3.9,9.1-2.8,14.1c1.8,8.1,4.5,15.9,8.2,24.5
			c1.6-4.3,3.3-7.8,6.3-10.3c0.9-0.8,0.9-1.6,0.6-2.6c-1.9-7,1.6-11.6,7.1-15.1c2.4-1.5,5-4.4,7.8-2.9s1.8,5.3,1.8,8.1
			c0,2.6-0.4,5.2-1.1,7.7c-1.4,5.2-4.5,7.5-9.7,6.6c-3-0.5-4.6,0.6-6,2.8c-3.7,5.4-4.7,11-1.6,17c9.4,18.2,21.8,34,38.4,46.1
			c0,1.3,0,2.6,0,3.9c-2.3-0.6-3.9-2.3-5.6-3.7c-16.4-13.2-28.8-29.6-37.8-48.6c-2.6-5.6-7-9.3-12.2-12.3c-2.1-1.2-4.1-1.5-6.2,0.5
			c-2.9,2.8-6.5,2.8-10,1c-5-2.7-8.7-6.9-11.8-11.5c-1.8-2.6-0.7-4.7,2.5-5.2c3.4-0.5,6.8-0.6,10.2,0c5.1,0.8,9.3,3,10.9,8.5
			c0.3,1,0.5,1.9,1.7,2.2c3.1,0.6,5.8,2.4,9.1,4.3c-2.7-9.2-6-17.2-7.6-25.7c-0.1-0.6-0.4-1.3-0.9-1.7c-4.6-3.9-8.4-8.7-13.1-12.4
			c-1.4-1.1-2.5-1.4-4.4-0.5c-4.8,2.3-7.8,1.2-10.9-3.1c-1-1.4-1.4-3.2-2.8-4.3c-0.9,0.2-1,0.9-1.2,1.5
			c-3.9,16.7-8.6,33.1-15.6,48.8c-1.1,2.3,0.1,3.1,1.8,4.2c4.2,2.7,6.7,6.5,5.6,11.5c-0.6,3,0,5.3,1.7,7.6c0.8,1,1.5,2.2,1.8,3.5
			c1.4,6,5.5,8.5,11.2,9.8c5.1,1.2,10,3.4,15.7,5.5c-2.4-6.3-5.7-11.1-8.7-16.1c-1.2-1.9-2.5-3-4.9-3.3c-4.3-0.5-6.9-3.4-8-7.6
			c-1-3.5-0.9-7.1-0.4-10.7c0.3-2.7,1.6-3.4,4-2.2c2.9,1.4,5.6,3.4,7.9,5.7c2.9,3,4.6,6.5,2.9,10.6c-0.8,2.1,0.1,3.4,1.1,4.9
			c3.9,6,7.6,12.2,10.3,18.8c0.8,1.9,2.2,2.7,3.8,3.4c7.3,3.3,14.4,6.9,21.3,10.9c1,0.6,2,1.8,3.7,1.2c-0.7-6.1-3.5-11.4-6.4-16.7
			c-1.1-1.9-2.3-3.4-4.6-4.1c-2.7-0.9-4.7-2.9-5.9-5.6c-2.2-5-1.4-10.3-0.7-15.4c0.3-1.9,1.8-2.1,3.4-1.2c3.4,2,6.6,4.1,9.2,7.2
			c3.1,3.7,4,7.9,1.4,12.2c-1.2,2-1,3.5,0.2,5.3c3.6,5.9,6.2,12.2,7.2,19.1c0.3,2.1,1.3,3.5,3.1,4.6c9.9,6.3,19,13.7,27.9,21.5
			C207.5,292.3,207.5,294,207.5,295.6z M27.1,231.8c17,0.8,34,1.5,50.9,2.3c2.2,0.1,3.6-0.8,4.9-2.5c3-3.9,5.8-7.9,8.3-12.1
			c8.4-14.3,14-29.8,18.5-45.7c11.5-40.9,16-82.8,19.5-124.9c0.3-3.1-0.8-3.9-3.7-3.9c-14,0.1-28,0.1-42.1,0.1c-5.2,0-5.2,0-5.3,5.4
			c-0.3,24.2-2.2,48.2-6.7,72c-7.3,38.3-20.6,74-43.1,106.1C27.8,229.3,27,230,27.1,231.8z M148.3,168.9c-0.4-6.4-2.1-12.6-2.4-18.9
			c-0.3-6.2-3.7-11-7.1-15.7c-1.2-1.6-2.8-3-5-2.1c-3.7,1.4-7.2,1.1-10.8-1.5c-1,4.9-1.8,9.1-2.6,13.2c-0.4,1.9,0.6,2.2,2.2,2.2
			c7-0.2,10.7,3.9,12.8,9.9c0.5,1.4,0.8,2.8,2.1,3.8C141.2,162.5,144.5,165.9,148.3,168.9z M126.8,110.1c-1.4,4.4-1.4,4.5,2.5,6.3
			c3,1.4,5.1,3.9,5.7,6.9c1,5.2,5.5,7.2,8.5,10.9c0-6.2,0-11.8,0-17.4c0-2-0.9-3.8-2.4-5.1c-1.2-1.1-2.4-2.6-4.2-1.5
			C133.5,112.3,130.1,111.7,126.8,110.1z M95.3,219.8c-3,4.7-5.5,8.6-8.1,12.7c8.4,2,16,3.8,24.1,5.7c-1.1-3.5-2.5-5.9-3.9-8.3
			c-0.7-1.1-1.4-2-3-2.1C99.8,227.6,97,224.9,95.3,219.8z M143.5,108c0-4.2,0.2-7.7,0-11.2c-0.2-3.9-3.9-7.9-6.5-7
			c-2.2,0.8-4.2,1.4-6.6,1.2c-1.9-0.2-2,1.2-2.1,2.5c-0.1,1.2,0,2.2,1.6,2.4c4.2,0.4,6.2,3.3,7.4,6.8
			C138.2,105.5,139.9,107,143.5,108z M143.6,88.4c0.7-3.3,0.3-6.4,0.6-9.5c0.3-3.3-1.3-5.9-3.7-7.5c-2.6-1.6-6,0.5-8.9-0.8
			c-0.1,0-0.5,0.4-0.6,0.6c-1.3,1.9-0.5,5,1.6,5.9s3.8,2.2,4.3,4.4C137.6,85.1,140,86.9,143.6,88.4z M127,192
			c3.3,4.2,6.1,7.6,10,9.8c2.3,1.3,4.7,1.6,6.7-0.5c1.5-1.5,0.6-5-1.5-7c-1.2-1.2-2.7-1.8-4.3-2.2C134.6,191.4,131.2,191.3,127,192z
			 M24.9,58.1c1.4,3.1,3.3,5.1,5.5,6.7c1.9,1.4,3.9,2.4,6.3,1.7c2-0.6,4.5-1.2,4.8-3.5c0.3-2.2-1.7-3.8-3.6-4.7
			C33.8,56.2,29.5,56.6,24.9,58.1z M183.6,179.9c-2.4,0.6-4,1.8-5.5,3c-2.5,2-4.4,4.4-4.2,7.8c0.1,1.8,0.3,3.7,2.6,4.2
			c2.2,0.4,4.3,0.4,5.6-1.8c0.5-0.8,0.9-1.7,1.2-2.7C184,187.1,184.5,183.8,183.6,179.9z M72.2,93.1c0.4-4.4,0.8-7.8,1.1-11.1
			c0.5-5.6,0.5-5.5-4.8-5.5c-0.6,0-1.3-0.1-1.9-0.1c-2.7-0.3-2.9,0.9-2.2,3.2C65.7,84.3,68.2,88.4,72.2,93.1z M39.4,80.7
			c0.8,3.5,2.8,6.2,5.7,8.1c2.3,1.5,4.6,0.9,6.9-0.3c1.3-0.7,1.7-1.8,1.4-3.3c-0.5-2.7-2.1-4.3-4.7-5c-0.6-0.2-1.3-0.2-1.9-0.3
			C44.4,79.9,42,79.8,39.4,80.7z M85,263.4c2.5,0,4.9-0.2,7.1-1.2c1.4-0.7,2.1-1.9,2.2-3.5c0-1.9-1.3-2.5-2.7-2.9
			c-3.4-1-6.7-1.2-9.6,1.3c-1.6,1.4-3.8,3.1-3.1,5.1c0.6,1.9,3.4,1,5.3,1.3C84.4,263.4,84.7,263.4,85,263.4z M179.4,155.9
			c-4.8-0.7-8.9-0.7-12.7,1.2c-2.6,1.3-3.9,4.1-3,5.9c1,2,4.2,2.8,6.8,1.5C174.1,162.6,176.7,159.6,179.4,155.9z M167.9,63.7
			c-4.9-0.4-8.7,0.1-12,2.6c-2.1,1.6-3.2,3.9-2,6.5c0.9,2,4.4,2.1,7,0.3C164,70.8,166,67.7,167.9,63.7z M169.3,129.4
			c-6.2,1.5-10.6,5.6-11.1,10.2c-0.2,1.4-0.5,3.2,1,4s3.2,0.3,4.6-0.7c0.8-0.6,1.5-1.3,2-2.1C167.9,137.4,169.1,133.6,169.3,129.4z
			 M158.8,225.4c-1.4,5-1,9.3,1,11.9c1.3,1.7,2.9,3.6,5.2,2.3c1.9-1,2.5-3.3,2.1-5.5c-0.3-1.5-1-2.7-2-3.8
			C163.4,228.4,161.6,226.5,158.8,225.4z M25.3,181.3c-1.9,0.2-3.9,0.6-5.8,1.5c-1,0.5-1.7,0.9-1,2.2c1.5,2.9,7.4,5.9,10.5,5
			c2.1-0.6,4.2-1.7,4.4-4c0.2-1.9-1.9-2.8-3.5-3.7C28.5,181.6,27.1,181.3,25.3,181.3z M10.2,131.2c-0.6,5.2,0,9.4,1.5,11.6
			c1.2,1.7,2.9,2.7,5,2.2c2-0.5,2-2.3,2.1-3.9C19.2,136.5,16.4,133.3,10.2,131.2z M51.6,156.4c-3.3,2.8-5.4,5.6-6.9,8.9
			c-1.5,3.3-0.8,5.7,1.7,6.6c2.6,1,5.1-0.7,6-4.1C53.3,164.2,52.5,160.7,51.6,156.4z M35,22.1c0.1-3.7-2.9-8.3-6-9.4
			c-0.9-0.3-1.4-0.2-1.9,0.7c-1.6,2.9-0.6,9.2,2,11.3c1.2,1,2.8,2.2,4.4,1.6C35.2,25.5,34.5,23.4,35,22.1z M174.9,36.9
			c-6.1-0.1-9.7,0.9-11.7,3.3c-1.2,1.3-2.6,3.1-1.3,4.7c1.4,1.8,3.6,3,6,1.5c1-0.6,1.9-1.3,2.6-2.1C172.4,42.3,173.9,40,174.9,36.9z
			 M6.9,159.7c1.7,2.7,3.7,4.8,6.3,6.1c2.8,1.4,6.1,0.5,7.2-1.8c0.8-1.7-0.7-4.6-3.3-5.8C13.5,156.6,10.3,157.8,6.9,159.7z M38,140
			c-4.5,3.2-5.9,6.8-4.5,11.8c0.4,1.6,0.5,3.9,3.2,3.5c2.2-0.3,3.4-1.8,3.6-4C40.6,147.4,39.8,143.6,38,140z M74,60.5
			c-4.3,1.3-7.7,3.2-8.8,7.6c-0.4,1.8-0.8,4.1,1.8,4.7c2.4,0.6,4.8,0.3,5.7-2.3C73.7,67.5,74.8,64.2,74,60.5z M166.8,112.1
			c-5.2,0.7-9.2,2-11.4,6.5c-0.9,1.9-0.9,3.7,1.2,5.1c2,1.3,3.4,0.2,4.6-1.2C163.7,119.7,165.4,116.5,166.8,112.1z M52.7,13.1
			c-3.7,3.4-6.6,6.7-5.7,11.8c0.3,1.7,1.1,3.6,3.4,3.6c2.1,0,3.3-1.4,3.6-3.3C54.6,21.2,54.6,17.2,52.7,13.1z M120.9,150
			c1.1,3.6,2.2,6.7,4.6,9.3c1.5,1.6,3.3,2,5.2,0.7s1.5-2.9,0.8-4.7C129.5,150.8,126.8,149.3,120.9,150z M63.6,38
			c-5.4,2.8-7.6,5.7-7,9.2c0.4,2.3,1.5,3.9,4.1,3.9c2.5,0,3.3-1.6,3.7-3.6C65,44.4,64.4,41.4,63.6,38z M165.7,89.3
			c-4.1-0.4-7.5-0.1-10.3,2.2c-2.2,1.8-2.1,4.5-0.2,6.4c2,1.9,3.9,1.3,5.5-0.4C162.8,95.3,164.6,92.8,165.7,89.3z M121.2,212
			c-0.7,4-0.5,7.3,1.2,10.3c1.3,2.3,4.3,3.7,5.6,2.5c2-1.8,1.9-4.1,0.7-6.2C127.1,215.7,124.6,213.8,121.2,212z M15.9,32.5
			c1.8,3.4,3.8,6.1,6.6,8c1.9,1.3,4,1.6,5.7-0.3c1.4-1.7,0.8-4.3-1.6-5.8C23.6,32.5,20.1,31.8,15.9,32.5z M151.6,28.1
			c0.2,1.1-0.4,3.6,1.5,4.1s3.4-1.3,4.7-2.9c0.2-0.2,0.4-0.5,0.5-0.8c1.1-2.2,0.5-7.1-1-8.8c-0.5-0.5-1-0.9-1.6-0.4
			c-2.4,1.6-3.7,3.9-4,6.8C151.5,26.6,151.6,27.1,151.6,28.1z M106,220.4c0.2-3.7-1.7-6-4.6-7.7c-1.4-0.9-2.7-0.6-2.8,1.2
			c-0.2,2.8-0.1,5.6,1.4,8c1,1.6,2.6,2.8,4.5,2.1C106.2,223.4,105.8,221.6,106,220.4z M124.2,123.4c0,2,1,3.5,2.2,4.8
			c1.5,1.7,3.6,1.7,5.4,0.8c2.1-1,0.7-2.9,0.2-4.3c-0.4-1.2-1.1-2.3-1.9-3.4c-1-1.4-2.4-2.5-4.1-2
			C123.9,119.9,124.6,122,124.2,123.4z M53.8,103.1c2.5,3.2,4,4.5,5.9,5.4c2.1,1,4.1,1.3,5.6-1c1.1-1.7-0.2-4.5-2.7-5.4
			C59.7,101.1,56.9,101.6,53.8,103.1z M131.3,27.6c-0.2,3.5,0.4,6.1,1.4,8.7c0.7,1.8,1.9,3.2,4.1,2.4c2.5-1,2.1-3.1,1.3-4.9
			C136.9,31,134.6,29.3,131.3,27.6z M127.1,103.6c0,2.5,2.1,4.3,4.9,4.3c1.3,0,2.7,0.1,2.8-1.9c0.1-2.6-2.8-6.5-4.9-6.5
			C126.7,99.5,127.5,102.1,127.1,103.6z M132.5,56.9c-1,1.8-0.9,3.8-0.9,5.6c0,1.8,0.6,3.6,2.3,4.6c1.7,1.1,3.5,0.4,3.8-1.4
			C138.3,62.4,136.1,58.5,132.5,56.9z M52.8,174.8c-7.4,1.5-9.2,5.6-4.8,11.1C50.3,182.4,51.6,178.8,52.8,174.8z M129.3,84
			c-0.2,2.3,0.7,3.5,3,3.5c1.3,0,2.1-0.6,2-2.1c-0.1-2.2-1.8-5.1-3.3-4.8C129.2,80.9,129.7,82.8,129.3,84z"/>
		<path class="st0" d="M207.5,290.7c-8.8-7.7-17.9-15.1-27.9-21.5c-1.8-1.1-2.8-2.5-3.1-4.6c-1-6.9-3.6-13.2-7.2-19.1
			c-1.1-1.9-1.4-3.3-0.2-5.3c2.6-4.3,1.7-8.4-1.4-12.2c-2.5-3.1-5.8-5.3-9.2-7.2c-1.5-0.9-3.1-0.7-3.4,1.2
			c-0.7,5.2-1.5,10.4,0.7,15.4c1.2,2.7,3.1,4.7,5.9,5.6c2.3,0.7,3.5,2.2,4.6,4.1c2.9,5.2,5.6,10.6,6.4,16.7
			c-1.8,0.6-2.7-0.6-3.7-1.2c-6.9-4-14-7.6-21.3-10.9c-1.7-0.7-3-1.5-3.8-3.4c-2.8-6.6-6.4-12.8-10.3-18.8c-1-1.5-1.9-2.9-1.1-4.9
			c1.7-4.2,0-7.6-2.9-10.6c-2.3-2.4-4.9-4.3-7.9-5.7c-2.4-1.2-3.7-0.5-4,2.2c-0.5,3.6-0.5,7.2,0.4,10.7c1.1,4.1,3.7,7,8,7.6
			c2.4,0.3,3.8,1.4,4.9,3.3c3,5,6.2,9.8,8.7,16.1c-5.7-2-10.6-4.2-15.7-5.5c-5.7-1.4-9.7-3.9-11.2-9.8c-0.3-1.2-1-2.4-1.8-3.5
			c-1.7-2.3-2.3-4.6-1.7-7.6c1.1-5-1.4-8.8-5.6-11.5c-1.6-1-2.8-1.8-1.8-4.2c7-15.7,11.8-32.1,15.6-48.8c0.1-0.6,0.3-1.3,1.2-1.5
			c1.4,1.1,1.8,2.9,2.8,4.3c3.1,4.3,6,5.3,10.9,3.1c1.8-0.9,3-0.6,4.4,0.5c4.8,3.7,8.5,8.5,13.1,12.4c0.4,0.4,0.7,1.1,0.9,1.7
			c1.6,8.5,4.9,16.5,7.6,25.7c-3.4-1.9-6-3.7-9.1-4.3c-1.2-0.2-1.4-1.2-1.7-2.2c-1.6-5.4-5.7-7.7-10.9-8.5c-3.4-0.5-6.8-0.5-10.2,0
			c-3.2,0.5-4.3,2.6-2.5,5.2c3.1,4.6,6.8,8.8,11.8,11.5c3.5,1.8,7,1.9,10-1c2.1-2,4.1-1.7,6.2-0.5c5.2,3,9.5,6.7,12.2,12.3
			c9,19,21.4,35.4,37.8,48.6c1.7,1.4,3.3,3.2,5.6,3.7C207.5,275.7,207.5,283.2,207.5,290.7z"/>
		<path d="M165.4,320.1c-0.3-4.8-3-8.8-4.7-13.2c-0.5-1.3-1.8-1.9-3-2.3c-2.9-1-5.9-1.9-8.9-2.4c-2.1-0.3-3.7,0.1-5.4,1.5
			c-8.3,6.9-16.2,3.9-22-4.3c-1.6-2.2-1.1-3.9,1.2-5.2c6.3-3.7,15.6-6.2,21.8,2.5c0.7,1,1.5,1.7,2.8,1.8c3.4,0.2,6.6,1.4,10.5,2
			c-2.1-6.3-4.3-11.5-11.3-12.8c-3-0.6-6-1.6-9-2.4c-3.4-0.9-6.5-0.7-9.8,1c-8.8,4.4-18.4-1.5-19-11.3c-0.2-2.4,0.6-3.5,2.9-4.2
			c9-2.7,15.7,0,20.1,8.1c0.7,1.2,1.2,2.1,2.8,2.3c5,0.7,9.8,2.3,15.6,3.9c-1.8-4-3.9-6.9-5.9-9.9c-0.7-1.1-1.8-1.1-3-1.1
			c-8.3,0-11.3-2.3-13.7-10.1c-0.6-2-1.1-4.1-1.3-6.2c-0.5-3.9,0.3-4.6,4.3-3.8c9.7,1.8,14,6.3,15.7,16.5c0.1,0.8,0.3,1.6,0.7,2.3
			c6.3,9.5,11.7,19.5,16.4,30.1c2.2-4.4,1-12.5-2-15.4c-5.4-5.2-3.4-16.2,3.4-19c1.4-0.6,2.6-0.4,3.5,0.8c2.7,3.5,4.9,7.4,4.8,12
			c-0.1,3-1.6,5.3-4.2,6.8c-1.8,1-2,2.1-1.6,4c0.9,5.5,1.2,11-0.4,16.5c-0.5,1.7,0.1,3.2,0.6,4.7c0.8,2.3,2.1,4.4,2.2,6.9
			C168,320.1,166.7,320.1,165.4,320.1z M111.8,274.4c0.1,1.7,0.9,3.1,1.7,4.5c1.5,2.6,3.3,4.8,6.4,5.4c2.8,0.5,7.6-1.1,8.3-2.8
			c0.7-1.8-1.9-5.8-4.9-7.1C119.5,272.8,115.7,273.1,111.8,274.4z M124.9,297.2c3.6,6.5,9,8.4,14.4,5.1c3.3-2,3.4-3.2,0.4-5.8
			C135.9,293.3,130.9,293.5,124.9,297.2z M129.4,257.4c0.2,3.8,1.1,6.7,2.6,9.4c1.4,2.4,3.4,4,6.2,4.1c3.4,0.2,4.5-1.1,3.5-4.4
			C139.9,260.7,135.3,258.7,129.4,257.4z M169.3,280.9c0-2.7-2.5-8.2-3.7-8.4c-1.4-0.1-4.6,4.8-4.8,7.4c0,0.5,0,1,0.1,1.4
			c0.4,2.2,3,4.6,4.6,4.2C167.9,284.8,169.2,283.1,169.3,280.9z"/>
		<path class="st0" d="M148.3,168.9c-3.8-3.1-7.1-6.4-10.8-9.3c-1.3-1-1.6-2.4-2.1-3.8c-2.2-6-5.9-10.1-12.8-9.9
			c-1.6,0.1-2.5-0.3-2.2-2.2c0.8-4.1,1.6-8.2,2.6-13.2c3.6,2.7,7.1,2.9,10.8,1.5c2.2-0.8,3.8,0.5,5,2.1c3.5,4.7,6.8,9.5,7.1,15.7
			C146.3,156.3,147.9,162.5,148.3,168.9z"/>
		<path class="st0" d="M126.8,110.1c3.3,1.7,6.7,2.2,10.1,0.1c1.8-1.1,3,0.5,4.2,1.5c1.5,1.4,2.4,3.1,2.4,5.1c0.1,5.6,0,11.2,0,17.4
			c-3.1-3.8-7.5-5.7-8.5-10.9c-0.6-3-2.7-5.5-5.7-6.9C125.3,114.5,125.3,114.5,126.8,110.1z"/>
		<path class="st0" d="M132,42.3c1.1,0,2.3,0.2,3.4,0.1c2.4-0.1,4.8-0.8,6.8,1.5c2.3,2.7,4.6,5.7,4.2,9.1c-0.5,5.4-0.4,11-1.7,16.5
			c-2.7-1-3.5-2.8-3.7-5.3c-0.4-4.8-1.8-9-7-10.7c-2-0.7-1.7-2.1-1.5-3.5c0.3-2.6,0.8-5.2-0.4-7.7L132,42.3z"/>
		<path class="st0" d="M95.3,219.8c1.7,5.1,4.5,7.8,9.2,8c1.6,0,2.3,0.9,3,2.1c1.4,2.4,2.7,4.8,3.9,8.3c-8.2-1.9-15.8-3.7-24.1-5.7
			C89.8,228.3,92.2,224.5,95.3,219.8z"/>
		<path class="st0" d="M143.5,108c-3.6-1-5.3-2.5-6.2-5.3c-1.2-3.5-3.2-6.4-7.4-6.8c-1.6-0.1-1.7-1.2-1.6-2.4
			c0.1-1.3,0.2-2.7,2.1-2.5c2.3,0.2,4.4-0.4,6.6-1.2c2.6-0.9,6.3,3.1,6.5,7C143.7,100.3,143.5,103.8,143.5,108z"/>
		<path class="st0" d="M143.6,88.4c-3.6-1.4-6-3.2-6.8-6.8c-0.5-2.1-2.2-3.5-4.3-4.4s-2.9-4.1-1.6-5.9c0.2-0.3,0.5-0.7,0.6-0.6
			c2.9,1.3,6.3-0.9,8.9,0.8c2.5,1.6,4.1,4.2,3.7,7.5C143.9,81.9,144.3,85,143.6,88.4z"/>
		<path class="st0" d="M72.2,93.1c-3.9-4.7-6.4-8.8-7.8-13.5c-0.7-2.3-0.5-3.5,2.2-3.2c0.6,0.1,1.3,0.1,1.9,0.1
			c5.3-0.1,5.3-0.1,4.8,5.5C73,85.3,72.6,88.7,72.2,93.1z"/>
		<path class="st0" d="M52.8,174.8c-1.2,4-2.5,7.6-4.8,11.1C43.6,180.4,45.3,176.3,52.8,174.8z"/>
		
			<linearGradient id="SVGID_1_" gradientUnits="userSpaceOnUse" x1="105" y1="-130" x2="105" y2="-454" gradientTransform="matrix(1 0 0 -1 0 -130)">
			<stop  offset="0" style="stop-color:#EB1A21"/>
			<stop  offset="1" style="stop-color:#A51A21"/>
		</linearGradient>
		<path class="st2" d="M210,324c-70,0-140,0-210,0C0,216,0,108,0,0c70,0,140,0,210,0C210,108,210,216,210,324z M199.9,162.6
			c0-46.5-0.2-87.6-0.2-134.1c0-9.4-3.5-18.1-13-18.1c-50.8,0-101-0.4-151.8-0.4c-4,0-8.3,0.5-12.3,0.7c-5.9,0.2-11.3,6.1-11.3,11.8
			c0,93.3-0.4,182.4-0.4,275.8c0,1.5,0.2,1.6,0.3,3.1c0.7,6.6,5,12.6,11.3,12.6c55.5,0,107.4,0.2,162.9,0.3c1.9,0,3.6-0.7,5.3-1.7
			c5.5-3,9.5-6,9.5-12.1C200.1,254,199.9,208.9,199.9,162.6z"/>
		<path d="M200.8,161.4c0.1-9.1,0-18.3,0.1-27.6c0.2-36.3,0.1-72.7,0-109c0-9.1-6.8-15.3-16-15.3c-52.8,0-105.7,0-158.5,0
			c-9.4,0-15.6,6.2-15.6,15.8c0,38.4,0.2,76.7,0.1,115.1c0,29.5-0.4,58.9-0.5,88.4c-0.1,23.5-0.1,47-0.1,70.4
			c0,8,6.5,15.3,13.7,15.3c54.3,0.1,108.6,0,162.9,0c2.2,0,4-0.5,5.9-1.8c5.1-3.5,8.1-7.9,8-14.4
			C200.7,252.7,200.8,207.1,200.8,161.4z M186.5,310.2c-3,0-3.7,0-3.7,0s-103.1,0-154.7,0c-8.3,0-13.1-4.5-13-14.9
			c0-22.8,0-45.6,0.1-68.4c0.1-28.6,0.5-57.2,0.5-85.9c0.1-37.3-0.2-75.1-0.1-112.3c0-7.9,2.5-14.8,12.6-14.8
			c50.2,0,105.1,0.2,155.3,0.2c8.7,0,13,5.3,12.6,14.1c0,35.2,0,106.5,0,106.5v27c0,0,0,91.6,0.1,135.9
			C196,304.4,191.2,309.6,186.5,310.2z"/>
	</g>
	<g>
		<g>
			<polygon class="st0" points="29.6,306 45.6,249.2 38.7,249.2 38.7,259.2 21.3,259.2 21.3,232.3 65.2,232.3 65.2,244.3 48.1,306 
							"/>
			<path d="M62.1,235.5v8.4l-16.3,59h-12l16-56.8H35.3v10H24.3v-20.6L62.1,235.5 M68.4,229.1h-6.3H24.4h-6.3v6.3V256v6.3h6.3h11.1
				h3.2l-10.9,38.7l-2.2,8.1h8.2h11.9h4.7l1.3-4.6l16.3-59l0.2-0.8V244v-8.4v-6.5H68.4z"/>
		</g>
	</g>
</g>
</svg>
