<?xml version="1.0" encoding="utf-8"?>
<!-- Generator: Adobe Illustrator 22.0.1, SVG Export Plug-In . SVG Version: 6.00 Build 0)  -->
<svg version="1.1" id="레이어_2_1_" xmlns="http://www.w3.org/2000/svg" xmlns:xlink="http://www.w3.org/1999/xlink" x="0px"
	 y="0px" viewBox="0 0 210 324" style="enable-background:new 0 0 210 324;" xml:space="preserve">
<style type="text/css">
	.st0{fill:#EB1A21;}
	.st1{fill:#FFFFFF;}
	.st2{fill:#FFFDFD;}
	.st3{fill:url(#SVGID_1_);}
</style>
<g>
	<path class="st0" d="M2,3v192.2l1.5-0.9c1.2-0.7,2.8-1.6,4.5-2.3c8-3,16.4-5.1,24.5-7.1l0.8-0.2c6.9-1.7,14-3,21.1-3.8
		c2.8-0.3,5.6-0.4,8.4-0.6c3.1-0.1,6.3-0.3,9.4-0.7c9.3-1.3,18.8-0.6,27.9,0.1c2.1,0.2,4.2,0.3,6.2,0.4c10.3,0.7,21.3,2.5,33.4,5.6
		c28.8,7.3,48.8,17,64.8,31.2c0.7,0.6,1.3,0.8,1.9,0.8c0.3,0,0.6,0,0.8-0.1l0.7-0.2V3H2z M154.5,78.8l-1,0.4l1.7,3.1
		c0.9,1.7,1.8,3.3,2.7,4.9l0.2,0.4c0.4,0.8,0.9,1.6,0.7,2c-0.1,0.3-0.5,0.6-1.1,0.9c-1.5,0.7-1.2,2.2-1,2.9c0,0.1,0,0.2,0.1,0.3
		c0.1,0.3,0.1,0.6,0.2,1c0.2,0.8,0.3,1.5,0.3,2.1c-0.8,11.2,1,20.7,5.3,29c0.5,0.9,0.6,1.7,0.4,2.1c-0.2,0.4-1.1,0.6-1.5,0.6
		c-2.4,0.2-2.8,2.2-3,3.1c-0.1,0.3-0.1,0.7-0.2,1c-0.1,0.3-0.1,0.6-0.2,0.9c-2.6,13.8-10.9,22.6-24.6,26.3
		c-5.3,1.4-10.6,3.5-16.7,6.6c-10.3,5.2-21,4.7-32-1.4c-3.8-2.1-7-3.8-10.8-4.7c-8.2-2-14.6-5.6-19.5-10.9
		c-3.1-3.4-5.5-7.5-6.9-12.2c-0.1-0.3-0.2-0.7-0.3-1.1c-0.2-1.2-0.5-2.5-1.5-3c-3.5-2-3-4.6-2.4-7.8c0.1-0.8,0.3-1.6,0.4-2.4
		c0.1-1.1,0.3-2.4,0.8-3.4c2.5-4.6,2-9.1,1.1-13.3c-1.6-7.5-1.1-15,1.6-22.4c1-2.7,1.5-5.1-2.1-7.5c-4.4-2.9-5.2-7.5-5.2-10.9
		c0-4.3,1.2-8.5,3.6-13c0.5-1,1.1-2,2.1-2.5c5-2.7,9.6-4,13.8-4c5.4,0,10.2,2.2,14.3,6.5c2.5,2.6,5,3.9,9,2
		c3.2-1.5,6.9-2.7,11.8-3.6l0.4-0.1c2-0.4,2.8-0.4,3.4,1c0.9,2.2,2.9,1.7,3.8,1.4c0.2-0.1,0.4-0.1,0.7-0.2
		c4.9-0.8,10.2-0.8,16.2-0.1l0.5,0.1c1.8,0.2,2.2,0.3,2.2,1.8c0,1.2,0.3,2.1,1.1,2.6c0.8,0.5,2,0.4,3.4-0.4c0.9-0.5,1.6-1.4,2.2-2.2
		c0.2-0.3,0.4-0.6,0.7-0.9c6.4-7.5,17-10,25.2-6.1c3.4,1.7,6.4,4.9,8,9c0.4,1,0.7,2,0.9,3.1l0.1,0.5
		C166.2,70.7,164.4,74.3,154.5,78.8z"/>
	<path d="M207,216.7c0,34,0,68,0,102c-68,0-136,0-204,0c0-41.8,0-83.5,0-125.3c1.5-0.9,3-1.7,4.7-2.3c8.3-3.1,16.8-5.2,25.4-7.3
		c7-1.7,14.1-3,21.2-3.8c5.9-0.7,11.9-0.4,17.8-1.2c11.5-1.6,22.9-0.2,34.3,0.5c11.3,0.7,22.6,2.8,33.6,5.6
		c23.9,6.1,46.5,14.8,65.3,31.5C205.8,216.8,206.3,216.9,207,216.7z"/>
	<ellipse class="st1" cx="124.7" cy="117.3" rx="9.3" ry="5.7"/>
	<ellipse class="st1" cx="79.6" cy="117.3" rx="9.3" ry="6.1"/>
	<path d="M154.9,79.7c1.4,2.6,2.7,4.9,3.9,7.1c1,1.7,2.2,3.4-0.6,4.7c-0.9,0.4-0.5,1.4-0.4,2.2c0.2,1.1,0.5,2.3,0.5,3.4
		c-0.7,9.9,0.5,19.5,5.2,28.5c1,1.9,1.1,3.9-1.9,4.1c-1.5,0.1-1.8,1.1-2.1,2.2c-0.1,0.6-0.2,1.3-0.3,1.9
		c-2.7,14.4-11.3,23.4-25.3,27.1c-5.8,1.5-11.2,3.8-16.5,6.5c-11.2,5.6-22.3,4.5-33-1.5c-3.4-1.9-6.7-3.7-10.5-4.6
		c-7.7-1.9-14.6-5.3-20-11.2c-3.4-3.6-5.7-7.8-7.1-12.6c-0.4-1.2-0.4-3.1-1.3-3.6c-5-2.9-2.9-7.2-2.5-11.2c0.1-1.3,0.3-2.6,0.9-3.7
		c2.3-4.1,2-8.2,1-12.6c-1.7-7.7-1.1-15.5,1.6-22.9c1-2.7,1.2-4.4-1.8-6.3c-4-2.6-5.7-6.9-5.7-11.7s1.5-9.2,3.7-13.4
		c0.6-1.2,1.3-2.3,2.5-2.9c9.1-5,20.2-7,29.4,2.6c2.5,2.6,4.6,3.3,7.9,1.7c3.8-1.8,7.9-2.9,12-3.7c1.9-0.4,3.9-1,4.9,1.5
		c0.7,1.8,2.2,0.8,3.4,0.6c5.5-0.9,11-0.8,16.5-0.1c1.8,0.2,3.6,0.2,3.5,2.9c-0.1,2.6,1.9,1.9,3,1.3c1.1-0.6,1.7-1.9,2.6-2.8
		c6.5-7.6,17.6-10.6,26.4-6.3c3.8,1.8,6.8,5.3,8.5,9.5c0.5,1.2,0.8,2.5,1.1,3.7C167.3,70.9,165.3,75,154.9,79.7z M75.3,158.6
		c-1.2-4.5-1.3-8.3-0.3-12.1c0.5-2.2,0.1-3.3-2.2-3.8c-4.2-0.9-7.6-3.3-10.8-6.2c-7.3-6.5-7.3-15.6,0.2-21.6c2-1.6,3.2-3.1,3.4-5.9
		c0.3-4.8,3.4-7.5,7.9-7.4c6.4,0.2,13,1.7,16.1,7.4c3.6,6.5,8.4,7.4,14.6,6.5c0.8-0.1,1.6-0.1,2.4,0c2.4,0.3,3.8-0.5,5-2.8
		c3-6.3,8.3-9.6,15.1-10.9c6.7-1.3,9.9,0.5,12.1,7.1c0.7,2.1,1.5,3.7,3.5,5c5.2,3.3,7.9,8.4,7.1,14.4c-0.8,6-4.7,10.1-10.3,12.5
		c-2.4,1-4.9,1.7-7.5,2c-1.4,0.2-2.2,0.9-1.5,2.3c2.1,4.3,2.3,8.6-0.1,12.6c1.2,1,2,0.6,2.7,0.4c13.4-3.6,21.3-12.2,23.7-25.9
		c0.3-1.6-0.2-3.7,1.3-4.5c3.4-1.8,2.1-4.1,1.1-6.5c-0.7-1.6-1.3-3.4-2.3-4.8c-1.6-2.1-1.9-4.3-1.5-6.8c1-5.8,1-11.6-0.7-17.3
		c-0.4-1.1-0.6-2.3,0.2-3.2c1.5-1.6,0.6-3-0.2-4.3c-3.5-5.9-7.4-11.4-13.9-14.4c-1.2-0.6-2.9-1.5-2.2-2.7c1.8-3.6-1-4.1-3-5.1
		c-4.4-2.2-9.2-3.1-14.1-3.3c-1.6-0.1-3.7,0.1-3.7-2.1c0.1-2.9-1.7-2.6-3.5-2.7c-4.9-0.3-9.7,0.1-14.4,1.7c-1.5,0.5-3.5,1.3-4.3-0.7
		c-1.1-2.7-2.7-2.1-4.7-1.5c-7.7,2.2-14.8,5.5-21.6,9.6c-1.1,0.7-2,1.6-3.5,1.6c-1.8,0-1.5-2.3-3.1-2.6C58,67.1,54.7,72.2,52,77.8
		c-4.6,9.5-6.1,19.4-3.8,29.7c0.9,3.9,0.9,7.2-0.7,11.1c-1.8,4.1-4.4,9,0.7,13.1c0.6,0.5,0.7,1.8,0.9,2.7
		C52.4,147.9,61.7,154.9,75.3,158.6z M103,118.6c-2.2,0-3.6,0.1-5.1,0c-4.5-0.3-7.3,1.7-9.8,5.6c-4.6,7.1-6.5,15.4-10,23
		c-2.4,5.2,0,10.7,4.2,13.8c3.4,2.5,12.3,2.6,15.8,0.3c3-2,2.9-3.5-0.5-5.1c-1.8-0.9-3.4-1.9-4.4-3.6c-0.8-1.3-1.4-2.6-0.7-4.1
		c0.9-1.6,2.4-1.2,3.9-1c3.4,0.6,6.7,0.6,10.1,0.4c1.7-0.1,3.9-1,4.8,1c1.1,2.3-1,3.8-2.3,5.4c-0.4,0.5-1,0.8-1.5,1.2
		c-3,2.1-3,3.6,0.3,5.3c2.9,1.5,6.2,1.8,9.4,1.6c4.6-0.3,8.4-1.9,10.4-6.6c2-4.6,0.7-8.5-2.3-12.1c-1.2-1.4-2-2.8-2.4-4.6
		c-0.8-3.6-2.5-7-4-10.4C115.6,121.5,111.1,116.4,103,118.6z M113.9,117.1c4-6.2,9-7,14.6-5.9c3.5,0.7,6.1,3.4,6.2,6
		c0.1,2.4-2.1,4.8-5.3,6.2c-2.8,1.2-5.7,0.5-8.9,1.2c1.4,3.3,2.7,6.4,3.9,9.5c2.7,6.9,2.8,7,10.1,5c1.7-0.5,3.4-1.1,4.9-1.9
		c8.7-4.8,9.2-15.5,0.9-20.9c-2.4-1.5-3.8-3.1-4.3-5.9c-0.5-2.5-1.5-5-4.6-5.6C126,103.8,115.1,108,113.9,117.1z M87,111.7
		c-3.2-5.1-8-6.7-13.3-6.9c-3.4-0.1-5.3,1.5-5.1,5c0.3,3.7-1.6,5.5-4.3,7.3c-4.7,3.3-6.3,8-3.8,12.6c3.1,5.8,8.2,9.4,14.9,10.4
		c1.2,0.2,2.3,0.1,2.8-1.2c1.9-4.8,3.7-9.7,5.7-14.9c-3.8,0.4-7.2,0.6-10.4-1c-2.3-1.2-4-2.9-4.2-5.5c-0.1-2.9,1.7-4.8,4.1-6.1
		c3-1.6,6.2-1.8,9.4-1C84.4,110.8,85.7,111.3,87,111.7z M78.9,111.5c-1.1-0.1-2.8,0.2-4.5,1c-2,1-3.6,2.4-3.6,4.8
		c0,2.2,1.5,3.4,3.3,4.4c1.9,1.1,4,1.3,6.1,1.2c4.5-0.2,8.3-3.1,8.1-6.1c-0.2-2.8-3.9-5.2-8.3-5.3C79.9,111.5,79.8,111.5,78.9,111.5
		z M112.5,165.7c-2.8-1-5.7-1.5-8.1-3.3c-0.7-0.5-1.6-0.9-2.2-0.2c-2,2-4.9,2.7-7.8,4.6C101,168.5,106.8,168.4,112.5,165.7z
		 M124.2,122.8c2.3,0.1,4.5-0.2,6.5-1.6c1.5-1,2.8-2.3,2.6-4.3s-1.6-3.1-3.3-3.9c-2.9-1.2-5.9-1.4-9-0.4c-3.2,1-5.3,3.2-4.8,5.2
		c0.7,2.7,2.7,4.3,5.5,4.7C122.6,122.8,123.4,122.8,124.2,122.8z"/>
	<path class="st1" d="M75.3,158.6c-13.6-3.7-22.9-10.7-26.2-24.1c-0.2-0.9-0.3-2.2-0.9-2.7c-5.1-4.1-2.5-9-0.7-13.1
		c1.7-3.9,1.6-7.2,0.7-11.1c-2.3-10.3-0.8-20.2,3.8-29.7c2.7-5.6,6-10.7,10.4-15.2c1.6,0.3,1.3,2.7,3.1,2.6c1.4,0,2.4-1,3.5-1.6
		c6.8-4.2,14-7.5,21.6-9.6c1.9-0.5,3.6-1.2,4.7,1.5c0.8,1.9,2.8,1.2,4.3,0.7c4.7-1.6,9.5-1.9,14.4-1.7c1.8,0.1,3.5-0.1,3.5,2.7
		c0,2.3,2.1,2,3.7,2.1c4.9,0.2,9.7,1.1,14.1,3.3c2,1,4.8,1.6,3,5.1c-0.7,1.3,1,2.2,2.2,2.7c6.5,3,10.4,8.5,13.9,14.4
		c0.8,1.4,1.8,2.7,0.2,4.3c-0.9,0.9-0.6,2.1-0.2,3.2c1.8,5.7,1.7,11.5,0.7,17.3c-0.4,2.5-0.1,4.7,1.5,6.8c1,1.4,1.6,3.1,2.3,4.8
		c1,2.3,2.3,4.6-1.1,6.5c-1.5,0.8-1,2.9-1.3,4.5c-2.3,13.7-10.2,22.3-23.7,25.9c-0.8,0.2-1.5,0.6-2.7-0.4c2.3-4,2.2-8.3,0.1-12.6
		c-0.7-1.4,0.1-2.1,1.5-2.3c2.6-0.3,5.1-1,7.5-2c5.6-2.4,9.5-6.5,10.3-12.5c0.8-6.1-1.8-11.1-7.1-14.4c-2-1.2-2.8-2.9-3.5-5
		c-2.2-6.6-5.4-8.4-12.1-7.1c-6.8,1.3-12.1,4.7-15.1,10.9c-1.1,2.3-2.6,3.1-5,2.8c-0.8-0.1-1.6-0.2-2.4,0c-6.2,0.9-11,0-14.6-6.5
		c-3.1-5.7-9.7-7.2-16.1-7.4c-4.6-0.1-7.6,2.6-7.9,7.4c-0.2,2.8-1.3,4.3-3.4,5.9c-7.5,6-7.5,15.2-0.2,21.6c3.2,2.9,6.6,5.3,10.8,6.2
		c2.4,0.5,2.8,1.6,2.2,3.8C74,150.2,74.1,154.1,75.3,158.6z"/>
	<path class="st1" d="M103,118.6c8.1-2.2,12.5,2.9,15.8,10c1.6,3.4,3.2,6.7,4,10.4c0.4,1.8,1.2,3.2,2.4,4.6c3,3.5,4.3,7.4,2.3,12.1
		c-2,4.6-5.7,6.3-10.4,6.6c-3.3,0.2-6.5-0.1-9.4-1.6c-3.3-1.7-3.3-3.2-0.3-5.3c0.5-0.4,1.1-0.7,1.5-1.2c1.4-1.5,3.4-3.1,2.3-5.4
		c-0.9-2-3.2-1-4.8-1c-3.4,0.2-6.8,0.2-10.1-0.4c-1.4-0.3-3-0.7-3.9,1c-0.8,1.4-0.1,2.8,0.7,4.1c1,1.7,2.7,2.7,4.4,3.6
		c3.4,1.7,3.5,3.1,0.5,5.1c-3.5,2.3-12.4,2.2-15.8-0.3c-4.2-3.1-6.6-8.6-4.2-13.8c3.5-7.6,5.4-15.8,10-23c2.5-3.8,5.3-5.8,9.8-5.6
		C99.4,118.7,100.8,118.6,103,118.6z"/>
	<g>
		<path d="M140.6,115.9c-2.1-1.3-3.6-2.8-4.1-5.6c-0.4-2.3-1.4-5.3-5-6c-3.5-0.7-8.6,0.8-12.2,3.4c-2.3,1.7-5.2,4.7-5.9,9.4
			l-0.3,2.2l1.2-1.9c3.3-5.2,7.7-7,14.1-5.7c3.1,0.6,5.7,3.1,5.8,5.5c0.1,2.1-1.9,4.3-5,5.8c-1.5,0.7-3.2,0.7-4.9,0.8
			c-1.3,0-2.5,0.1-3.9,0.4l-0.6,0.1l0.2,0.6c0.4,1,0.9,2.1,1.3,3.1c0.9,2.2,1.8,4.3,2.6,6.4c1.8,4.8,2.6,6.4,5.2,6.4
			c1.3,0,3-0.4,5.5-1.1c1.9-0.5,3.6-1.2,5-2c4.3-2.4,6.9-6.4,7.1-10.8C146.9,122.5,144.7,118.5,140.6,115.9z"/>
		<path d="M73.8,104.3c-1.9-0.1-3.4,0.4-4.4,1.4c-0.9,1-1.3,2.3-1.2,4.1c0.2,3.6-1.6,5.2-4,6.9c-5,3.5-6.5,8.5-4,13.3
			c3.2,6,8.5,9.7,15.2,10.7c0.2,0,0.5,0.1,0.9,0.1c0.9,0,1.9-0.3,2.5-1.6c1.4-3.5,2.7-7.1,4.1-10.7l1.9-5l-0.8,0.1
			c-4,0.4-7.1,0.6-10.1-1c-2.5-1.3-3.8-3-3.9-5.1c-0.1-2.3,1.2-4.2,3.8-5.6c2.8-1.4,5.8-1.7,9.1-0.9c0.9,0.2,1.8,0.5,2.7,0.8
			c0.4,0.1,0.8,0.3,1.3,0.4l1.3,0.4l-0.7-1.1C84.6,106.8,80.2,104.5,73.8,104.3z"/>
	</g>
	<path class="st1" d="M112.5,165.7c-5.7,2.7-11.4,2.8-18.1,1c2.9-1.9,5.8-2.5,7.8-4.6c0.6-0.6,1.6-0.3,2.2,0.2
		C106.8,164.2,109.6,164.7,112.5,165.7z"/>
	<path d="M79.6,122.7c-3.3,0-5.8-2.4-5.8-5.5c0.1-3.1,2.8-5.6,5.9-5.3c2.8,0.1,5.5,2.5,5.6,5.2C85.4,119.9,82.7,122.7,79.6,122.7z"
		/>
	<path d="M125,122.8c-3.2,0-5.7-2.3-5.7-5.3c0.1-3,2.7-5.5,5.8-5.2c2.7,0.1,5.4,2.5,5.5,5.1C130.7,120.1,128,122.8,125,122.8z"/>
	<path class="st1" d="M78.5,114.7c0,0.8-0.7,1.5-1.5,1.5s-1.5-0.7-1.5-1.5s0.7-1.5,1.5-1.5C77.9,113.3,78.5,113.9,78.5,114.7z
		 M122.4,113.7c-0.8,0-1.5,0.7-1.5,1.5s0.7,1.5,1.5,1.5s1.5-0.7,1.5-1.5C123.9,114.3,123.2,113.7,122.4,113.7z"/>
	<g>
		<g>
			
				<ellipse transform="matrix(9.053396e-02 -0.9959 0.9959 9.053396e-02 -127.5293 412.3636)" class="st0" cx="162" cy="276" rx="34.7" ry="34.7"/>
			<path d="M162,312.2c-19.9,0-36.2-16.2-36.2-36.2s16.2-36.2,36.2-36.2s36.2,16.2,36.2,36.2S181.9,312.2,162,312.2z M162,242.8
				c-18.3,0-33.2,14.9-33.2,33.2s14.9,33.2,33.2,33.2s33.2-14.9,33.2-33.2S180.3,242.8,162,242.8z"/>
		</g>
		<g>
			<path class="st2" d="M147.9,270.4c0.1,0.2,0.7,0.8,1.4,0.8l0,0c0.4,0,0.7-0.2,1-0.5c0.2-0.2,1.5-1.6,1.5-2.4
				c0-0.3-0.2-0.7-1.2-2.2c-0.6-0.9-1.4-2.3-1.5-2.7c-0.2-0.9-0.8-1.3-1.7-1.3c-0.5,0-1,0.1-1.2,0.4c-0.3,0.3-0.4,0.7-0.4,1.5
				s0.2,1.9,0.7,3.3C147,268.7,147.5,269.7,147.9,270.4z"/>
			<path class="st2" d="M183.1,286.2c-0.5-1.1-1-2-1.8-1.9c-0.7,0.1-1,1.1-1,3.9v3.2l-1.4,0.7c-0.4,0.2-0.6,0.2-2.1,0.2
				c-0.5,0-1.2,0-2.2,0c-2.9,0.1-4.7,0.2-5.8,0.3c-0.3,0-0.5,0-0.8,0.1c-0.9,0.1-1.7-0.1-2.5-0.5s-1.3-0.9-1.6-1.5
				c-0.2-0.5-0.1-1.1,0-1.7c0-0.2,0.1-0.3,0.1-0.4c0.2-0.6,0.3-1.1,0.5-2.5c0.2-1.8,0.7-4.6,2-8.4c0.1-0.4,0.1-1.1-1.1-1.8
				c-0.7-0.4-1.4-0.8-2.2-1.1c-0.2-0.1-0.3-0.1-0.4-0.2c0.2-0.1,0.6-0.2,1.1-0.3c1.2-0.3,2.4-0.5,3.5-0.6c1,0,2,0.2,3.2,0.8
				c2,1,2.1,1,2.2,1c0.5,0,0.8-0.5,1.3-1.8c0.4-1.3,0.5-1.8,0.2-2.1c-0.1-0.2-0.5-0.5-2.9-1.9c-2-1.2-3.3-1.6-4-1.1
				c-0.3,0.2-0.6,0.5-0.6,1.3v0.1c-0.3,0-0.9,0.1-3.1,0.6c-1.1,0.3-1.6,0.3-1.8,0.4v-0.1c0-0.1,0-0.5,0.9-0.9
				c1.1-0.5,3.6-2.8,7.8-6.9c2.3-2.2,3.7-3.6,4.3-4.4c0.6-0.9,0.9-1.7,0.8-2.4c-0.1-0.7-0.6-1.4-1.5-1.9c-0.8-0.5-1.1-0.7-1.3-0.8
				c-0.3-0.4-0.7-0.6-1.1-0.8c-0.5-0.2-1-0.3-1.4-0.2c-0.6,0.1-1,0.5-1,1.1c0,0.5,0.3,1.1,0.9,1.9c0.4,0.6,0.4,0.8,0.4,0.8
				s-0.1,0.3-0.7,1.5c-0.6,1-2.1,3-4.4,5.9c-2,2.5-3,3.6-3.5,4c0-0.3,0-0.8,0-1.3c0-0.6,0-1.4,0.1-2.5c0.2-4,0.4-6.7,0.6-8.1
				c0.2-1.6,0.5-2.2,0.7-2.6c0.5-0.9,0.7-1.5,0.5-2.1c-0.2-0.5-0.7-1.1-1.7-1.8c-0.5-0.3-1-0.6-1.5-0.8c-1.3-0.5-2.1-0.6-2.6-0.3
				c-0.3,0.2-0.4,0.5-0.4,0.8s0.1,0.7,1.1,1.7c0.3,0.3,0.4,0.7,0.4,1.2c0,0.6-0.1,2.1-0.3,4.5c-0.8,9.6-1.3,14.7-1.3,15.5
				c0,0.1,0,0.1,0,0.1s-0.1,0-0.3,0c-0.4,0-1.1,0.1-3.4,0.9c-4.3,1.7-7.8,2.7-10.3,2.8c-1.9,0.1-2.8,0.4-2.9,1
				c-0.2,0.9,0.6,1.7,1.3,2.3c1,0.9,1.8,1.2,2.5,1c0.1,0,0.4-0.2,1.5-0.6c0.9-0.3,1.8-0.6,2.7-0.9s2-0.6,3.2-1
				c0.9-0.3,1.7-0.5,2.4-0.7c0,0.2,0,0.5,0,0.8c-0.1,1.1-1.6,3.9-8.4,10.8c-4.1,4.1-5.1,4.5-5.3,4.5c-1.3,0-1.4,0.8-1.4,1.1
				c0,0.5,0.3,0.9,0.8,1c1.1,0.2,2.9-0.5,5.3-2.1c1.3-0.9,3.2-2.5,5.6-4.8c2.4-2.3,4.3-4.3,5.6-5.8c0.9-1.1,1.5-2.2,2-3.1
				c0.2-0.4,0.8-1.7,0.1-2.4c-0.2-0.2-0.5-0.4-1.4-0.6l1.1-0.3c1.1-0.3,1.6-0.3,1.9-0.3c0.1,0,0.2,0,0.3,0.1
				c0.1,0.5,0.4,1.1,1.1,1.7l0.7,0.8l-0.9,3.6c-0.6,2.6-1,5-1.1,7.2c-0.2,1.5-0.2,2.5-0.1,3c0.1,0.6,0.4,1.2,1,2
				c0.9,1.1,2,1.8,3.3,2.3c1.4,0.5,3.7,0.4,7,0.4c1.1,0,2.3,0,3.6,0c1.9,0,3,0,3.6,0.1c0.3,0,0.5,0,0.7,0c0.5,0,0.8-0.1,1.5-0.3
				l0.3-0.1c1.4-0.5,2.2-1.8,2.5-3.9C184.3,290.1,184,288.1,183.1,286.2z"/>
		</g>
	</g>
	<g>
		<path class="st1" d="M29.5,306.2c-3.7-1.8-6.4-4.4-8.5-7.5c-2-3.3-2.9-7.2-2.9-11.4V286c0-3.9,1.1-7.5,3.1-11
			c2-3.5,4.8-6.1,8.3-7.7c-2.9-1.5-5.3-3.7-7-6.4c-1.7-2.8-2.8-5.9-2.8-9v-2c0-4,0.9-7.7,2.8-10.9s4.6-5.5,7.9-7.2
			c3.5-1.7,7.4-2.6,12-2.6s8.5,0.9,12,2.6s6.1,4,7.9,7.2c1.8,3.1,2.8,6.6,2.8,10.9v2c0,3.3-0.9,6.3-2.8,9c-1.8,2.8-4.2,5-7.2,6.4
			c3.5,1.8,6.3,4.4,8.3,7.9c2,3.5,3.1,7.2,3.1,11v1.3c0,4.4-0.9,8.1-2.9,11.4c-2,3.3-4.8,5.9-8.5,7.5c-3.7,1.7-7.9,2.8-12.7,2.8
			S33.2,307.9,29.5,306.2z M48.3,295.2c1.7-0.9,3.1-2.2,4-3.9c0.9-1.7,1.5-3.5,1.5-5.7v-0.7c0-2-0.6-3.9-1.5-5.5s-2.2-2.8-4-3.7
			c-1.8-0.9-3.7-1.3-6.1-1.3c-2.4,0-4.2,0.4-6.1,1.3c-1.8,0.9-3.1,2.2-4,3.7c-0.9,1.7-1.5,3.5-1.5,5.5v0.7c0,2.2,0.6,4,1.5,5.7
			c0.9,1.7,2.2,2.9,4,3.9c1.7,0.9,3.7,1.3,6.1,1.3C44.6,296.5,46.4,295.9,48.3,295.2z M47.3,260.8c1.5-0.9,2.6-2,3.5-3.7
			c0.9-1.7,1.3-3.3,1.3-5.3V251c0-1.8-0.4-3.7-1.3-5.1c-0.9-1.5-2-2.6-3.5-3.3c-1.5-0.7-3.1-1.1-5.1-1.1c-2,0-3.7,0.4-5.1,1.1
			s-2.6,1.8-3.5,3.3c-0.9,1.5-1.3,3.1-1.3,5.1v0.7c0,2,0.4,3.9,1.3,5.3c0.9,1.5,2,2.8,3.5,3.5c1.5,0.9,3.1,1.3,5.1,1.3
			C44.2,261.9,45.9,261.5,47.3,260.8z"/>
	</g>
	
		<linearGradient id="SVGID_1_" gradientUnits="userSpaceOnUse" x1="105" y1="-130" x2="105" y2="-454" gradientTransform="matrix(1 0 0 -1 0 -130)">
		<stop  offset="0" style="stop-color:#EB1A21"/>
		<stop  offset="1" style="stop-color:#A51A21"/>
	</linearGradient>
	<path class="st3" d="M210,324c-70,0-140,0-210,0C0,216,0,108,0,0c70,0,140,0,210,0C210,108,210,216,210,324z M199.9,162.6
		c0-46.5-0.2-87.6-0.2-134.1c0-9.4-3.5-18.1-13-18.1c-50.8,0-101-0.4-151.8-0.4c-4,0-8.3,0.5-12.3,0.7c-5.9,0.2-11.3,6.1-11.3,11.8
		c0,93.3-0.4,182.4-0.4,275.8c0,1.5,0.2,1.6,0.3,3.1c0.7,6.6,5,12.6,11.3,12.6c55.5,0,107.4,0.2,162.9,0.3c1.9,0,3.6-0.7,5.3-1.7
		c5.5-3,9.5-6,9.5-12.1C200.1,254,199.9,208.9,199.9,162.6z"/>
	<path d="M200.8,161.4c0.1-9.1,0-18.3,0.1-27.6c0.2-36.3,0.1-72.7,0-109c0-9.1-6.8-15.3-16-15.3c-52.8,0-105.7,0-158.5,0
		c-9.4,0-15.6,6.2-15.6,15.8c0,38.4,0.2,76.7,0.1,115.1c0,29.5-0.4,58.9-0.5,88.4c-0.1,23.5-0.1,47-0.1,70.4c0,8,6.5,15.3,13.7,15.3
		c54.3,0.1,108.6,0,162.9,0c2.2,0,4-0.5,5.9-1.8c5.1-3.5,8.1-7.9,8-14.4C200.7,252.7,200.8,207.1,200.8,161.4z M186.5,310.2
		c-3,0-3.7,0-3.7,0s-103.1,0-154.7,0c-8.3,0-13.1-4.5-13-14.9c0-22.8,0-45.6,0.1-68.4c0.1-28.6,0.5-57.2,0.5-85.9
		c0.1-37.3-0.2-75.1-0.1-112.3c0-7.9,2.5-14.8,12.6-14.8c50.2,0,105.1,0.2,155.3,0.2c8.7,0,13,5.3,12.6,14.1c0,35.2,0,106.5,0,106.5
		v27c0,0,0,91.6,0.1,135.9C196,304.4,191.2,309.6,186.5,310.2z"/>
</g>
</svg>
