<svg width="40" height="40" viewBox="0 0 40 40" fill="none" xmlns="http://www.w3.org/2000/svg">
<path d="M12.019 25.5786C12.019 24.048 12.0243 22.512 12.0137 20.9813C12.0137 20.8053 12.067 20.7093 12.2217 20.624C14.8777 19.0986 17.5283 17.568 20.179 16.032C20.3497 15.936 20.467 15.936 20.6377 16.032C23.2937 17.5733 25.955 19.1093 28.6163 20.64C28.7497 20.72 28.7977 20.8053 28.7977 20.9546C28.7923 24.048 28.7923 27.1413 28.7977 30.2346C28.7977 30.3893 28.7497 30.4746 28.611 30.5493C25.9337 32.0906 23.2563 33.632 20.5843 35.1786C20.451 35.2586 20.355 35.2533 20.2217 35.1786C17.5497 33.632 14.8723 32.0853 12.195 30.5493C12.0457 30.464 12.0137 30.3626 12.0137 30.2026C12.019 28.6613 12.019 27.12 12.019 25.5786ZM27.6883 25.5946C27.6883 24.24 27.6883 22.88 27.699 21.5253C27.699 21.3706 27.699 21.3813 27.5657 21.3013C25.2243 19.9573 22.9257 18.6293 20.5897 17.2746C20.467 17.2053 20.451 17.184 20.323 17.2586C17.9763 18.6186 15.6883 19.9146 13.3363 21.264C13.2083 21.3386 13.1657 21.3706 13.1657 21.5146C13.171 24.2293 13.171 26.9226 13.1657 29.6373C13.1657 29.7813 13.203 29.8026 13.3363 29.8773C15.6777 31.2213 17.923 32.5226 20.259 33.8773C20.3923 33.952 20.467 33.9573 20.6057 33.8773C22.9523 32.5173 25.2243 31.2 27.5763 29.8506C27.7097 29.776 27.699 29.744 27.699 29.6106C27.6937 28.2666 27.6883 26.9493 27.6883 25.5946Z" fill="url(#paint0_linear)"/>
<path d="M27.8002 13.6211C27.8002 14.1864 27.8002 14.7358 27.8002 15.3011C22.9148 15.3011 18.0455 15.3011 13.1602 15.3011C13.1602 14.7411 13.1602 14.1918 13.1602 13.6211C18.0348 13.6211 22.9042 13.6211 27.8002 13.6211Z" fill="url(#paint1_linear)"/>
<path d="M16.4297 17.7815C16.4297 17.0028 16.4297 16.2828 16.4297 15.5361C16.915 15.5361 17.395 15.5361 17.9017 15.5361C17.9017 15.9681 17.9017 16.4001 17.9017 16.8268C17.9017 16.9015 17.8644 16.9495 17.8057 16.9868C17.3577 17.2481 16.915 17.5041 16.4297 17.7815Z" fill="url(#paint2_linear)"/>
<path d="M24.4404 15.5307C24.4404 16.2934 24.4404 17.0294 24.4404 17.7761C24.2644 17.7547 24.1364 17.6374 23.9924 17.5574C23.7364 17.4187 23.4804 17.2694 23.2244 17.1254C23.1444 17.0774 23.0591 17.0401 23.0591 16.9174C23.0644 16.4587 23.0591 16.0001 23.0591 15.5254C23.5337 15.5307 23.9711 15.5307 24.4404 15.5307Z" fill="url(#paint3_linear)"/>
<path d="M27.5018 25.5943C27.5018 26.869 27.4964 28.1437 27.5071 29.413C27.5071 29.5943 27.4538 29.6957 27.2884 29.7917C25.0751 31.0557 22.8671 32.3303 20.6644 33.605C20.4831 33.7063 20.3551 33.7117 20.1791 33.605C17.9764 32.325 15.7631 31.0557 13.5551 29.7917C13.3898 29.6957 13.3364 29.5997 13.3364 29.413C13.3418 26.8583 13.3418 24.2983 13.3364 21.7437C13.3364 21.5623 13.3898 21.461 13.5551 21.365C15.7684 20.101 17.9764 18.8263 20.1791 17.5516C20.3604 17.4503 20.4884 17.445 20.6644 17.5516C22.8671 18.8316 25.0804 20.101 27.2884 21.365C27.4538 21.461 27.5071 21.557 27.5071 21.7437C27.5018 23.029 27.5018 24.3143 27.5018 25.5943Z" fill="url(#paint4_linear)"/>
<path d="M27.7417 25.5837C27.7417 26.9277 27.7417 28.2664 27.7417 29.6104C27.7417 29.7437 27.7203 29.829 27.587 29.909C25.2563 31.2477 22.9257 32.5917 20.6003 33.941C20.4617 34.021 20.371 34.0104 20.243 33.9357C17.923 32.5917 15.603 31.253 13.283 29.9197C13.155 29.845 13.1177 29.7704 13.1177 29.6317C13.123 26.9384 13.123 24.2504 13.1177 21.557C13.1177 21.413 13.1603 21.3437 13.2883 21.269C15.619 19.9304 17.9443 18.5864 20.2697 17.237C20.3977 17.1624 20.483 17.173 20.6057 17.2424C22.9257 18.5864 25.2457 19.9304 27.5657 21.2637C27.699 21.3384 27.747 21.4184 27.747 21.573C27.7363 22.8957 27.7417 24.2397 27.7417 25.5837ZM27.427 25.5944C27.427 24.325 27.4217 23.0504 27.4323 21.781C27.4323 21.5997 27.379 21.4984 27.219 21.4077C25.0323 20.1544 22.851 18.8957 20.6697 17.6264C20.4937 17.525 20.3657 17.525 20.1897 17.6264C18.0083 18.8957 15.827 20.1544 13.6403 21.4077C13.4803 21.4984 13.427 21.5997 13.427 21.781C13.4323 24.3144 13.4323 26.8477 13.427 29.381C13.427 29.5624 13.4803 29.6637 13.6403 29.7544C15.827 31.0077 18.0083 32.2664 20.1897 33.5357C20.3657 33.637 20.4937 33.637 20.6697 33.5357C22.851 32.2664 25.0323 31.0077 27.219 29.7544C27.379 29.6637 27.4323 29.5624 27.4323 29.381C27.4217 28.117 27.427 26.8584 27.427 25.5944Z" fill="url(#paint5_linear)"/>
<path d="M22.3228 13.3006C21.0961 13.3006 19.8908 13.3006 18.6694 13.3006C18.6694 10.7672 18.6694 8.23391 18.6694 5.68457C19.8854 5.68457 21.0961 5.68457 22.3228 5.68457C22.3228 8.21791 22.3228 10.7459 22.3228 13.3006Z" fill="white"/>
<path d="M15.7677 5.63672H13.9224V13.3487H15.7677V5.63672Z" fill="url(#paint6_linear)"/>
<path d="M27.0639 5.63184H25.3306V13.3492H27.0639V5.63184Z" fill="url(#paint7_linear)"/>
<path d="M23.9756 5.63672H22.6689V13.3594H23.9756V5.63672Z" fill="url(#paint8_linear)"/>
<path d="M18.3279 5.63672H17.1226V13.3541H18.3279V5.63672Z" fill="url(#paint9_linear)"/>
<path d="M16.776 13.3063C16.5467 13.3063 16.3333 13.3063 16.104 13.3063C16.104 10.7729 16.104 8.23961 16.104 5.70628C16.216 5.64761 16.3333 5.67961 16.4453 5.67961C16.552 5.67961 16.6587 5.65828 16.776 5.70628C16.776 8.22361 16.776 10.7463 16.776 13.3063Z" fill="white"/>
<path d="M24.312 5.68485C24.5467 5.66885 24.7547 5.66885 24.9893 5.68485C24.9893 8.21818 24.9893 10.7462 24.9893 13.2742C24.8133 13.3275 24.632 13.3382 24.312 13.2955C24.312 10.7622 24.312 8.23952 24.312 5.68485Z" fill="white"/>
<path d="M16.0827 15.6369C16.008 15.5836 15.9334 15.5996 15.864 15.5996C14.968 15.5996 14.0667 15.5996 13.1707 15.5996C12.8987 15.5996 12.888 15.5943 12.888 15.3169C12.888 14.7463 12.888 14.1809 12.888 13.6103C12.888 13.3703 12.904 13.3543 13.144 13.3543C13.2827 13.3543 13.4214 13.3543 13.592 13.3543C13.592 10.6663 13.592 8.00493 13.592 5.32227C18.2 5.32227 22.7814 5.32227 27.3894 5.32227C27.3894 8.00493 27.3894 10.6663 27.3894 13.3383C27.576 13.3649 27.736 13.3596 27.8907 13.3489C28.0347 13.3436 28.0987 13.4076 28.0987 13.5516C28.0987 14.1649 28.0934 14.7783 28.0987 15.3916C28.0987 15.5783 27.9974 15.5996 27.8427 15.5996C26.92 15.5943 25.992 15.5943 25.0694 15.5943C24.984 15.5943 24.8934 15.5729 24.808 15.6156C24.7547 15.6796 24.776 15.7543 24.776 15.8236C24.776 16.4636 24.7814 17.1036 24.7707 17.7436C24.7654 17.9196 24.8347 18.0103 24.984 18.0956C26.3174 18.8583 27.6454 19.6316 28.9787 20.3889C29.1387 20.4796 29.1974 20.5809 29.1974 20.7676C29.192 23.9836 29.192 27.1996 29.1974 30.4209C29.1974 30.6023 29.1494 30.7036 28.984 30.7996C26.2 32.3996 23.416 34.0049 20.6374 35.6156C20.4667 35.7116 20.3547 35.7116 20.184 35.6156C17.4054 34.0049 14.6214 32.3996 11.8374 30.7996C11.672 30.7036 11.624 30.6023 11.624 30.4209C11.6294 27.2049 11.6294 23.9889 11.624 20.7676C11.624 20.5809 11.6827 20.4849 11.8427 20.3889C13.2027 19.6156 14.552 18.8316 15.9067 18.0529C16.0187 17.9889 16.104 17.9303 16.104 17.7703C16.0934 17.0876 16.0987 16.3996 16.0987 15.7169C16.0987 15.6956 16.088 15.6583 16.0827 15.6369ZM28.7334 25.6156C28.7334 24.0849 28.728 22.5596 28.7387 21.0289C28.7387 20.8529 28.6854 20.7623 28.536 20.6716C25.9014 19.1569 23.272 17.6423 20.648 16.1169C20.4827 16.0209 20.3654 16.0209 20.1947 16.1169C17.5707 17.6423 14.936 19.1569 12.3067 20.6716C12.1574 20.7569 12.0987 20.8529 12.0987 21.0236C12.104 24.0743 12.104 27.1196 12.0987 30.1703C12.0987 30.3463 12.152 30.4369 12.3014 30.5276C14.936 32.0423 17.5654 33.5569 20.1894 35.0823C20.3547 35.1783 20.472 35.1836 20.6427 35.0823C23.2667 33.5569 25.9014 32.0423 28.5307 30.5276C28.68 30.4423 28.7387 30.3516 28.7387 30.1756C28.728 28.6556 28.7334 27.1356 28.7334 25.6156ZM22.3227 13.3009C22.3227 10.7463 22.3227 8.21827 22.3227 5.68493C21.096 5.68493 19.88 5.68493 18.6694 5.68493C18.6694 8.22893 18.6694 10.7623 18.6694 13.3009C19.896 13.3009 21.1014 13.3009 22.3227 13.3009ZM27.7627 13.7116C22.904 13.7116 18.0667 13.7116 13.2294 13.7116C13.2294 14.2343 13.2294 14.7356 13.2294 15.2529C18.0774 15.2529 22.9147 15.2529 27.7627 15.2529C27.7627 14.7356 27.7627 14.2289 27.7627 13.7116ZM13.976 5.69027C13.976 8.23427 13.976 10.7676 13.976 13.2956C14.568 13.2956 15.144 13.2956 15.7147 13.2956C15.7147 10.7516 15.7147 8.22893 15.7147 5.69027C15.128 5.69027 14.552 5.69027 13.976 5.69027ZM25.384 5.68493C25.384 8.2396 25.384 10.7676 25.384 13.2956C25.9387 13.2956 26.4774 13.2956 27.0107 13.2956C27.0107 10.7516 27.0107 8.2236 27.0107 5.68493C26.4667 5.68493 25.9334 5.68493 25.384 5.68493ZM23.9227 13.3009C23.9227 10.7463 23.9227 8.21827 23.9227 5.68493C23.5067 5.68493 23.112 5.68493 22.7227 5.68493C22.7227 8.23427 22.7227 10.7676 22.7227 13.3009C23.1334 13.3009 23.5227 13.3009 23.9227 13.3009ZM18.2747 13.3009C18.2747 10.7463 18.2747 8.21827 18.2747 5.69027C17.9014 5.69027 17.5387 5.69027 17.176 5.69027C17.176 8.2396 17.176 10.7676 17.176 13.3009C17.5494 13.3009 17.9014 13.3009 18.2747 13.3009ZM16.776 13.3063C16.776 10.7516 16.776 8.2236 16.776 5.70093C16.6587 5.65293 16.5467 5.67427 16.4454 5.67427C16.3334 5.67427 16.216 5.6476 16.104 5.70093C16.104 8.2396 16.104 10.7676 16.104 13.3009C16.3334 13.3063 16.5467 13.3063 16.776 13.3063ZM24.312 5.68493C24.312 8.2396 24.312 10.7676 24.312 13.2903C24.632 13.3329 24.8134 13.3276 24.9894 13.2689C24.9894 10.7409 24.9894 8.21293 24.9894 5.6796C24.7547 5.6636 24.5467 5.6636 24.312 5.68493ZM16.4774 15.6103C16.4774 16.3303 16.4774 17.0129 16.4774 17.7329C16.9254 17.4769 17.3467 17.2316 17.768 16.9916C17.8267 16.9596 17.8587 16.9116 17.8587 16.8423C17.8587 16.4369 17.8587 16.0316 17.8587 15.6156C17.384 15.6103 16.936 15.6103 16.4774 15.6103ZM24.408 15.6156C23.9707 15.6156 23.56 15.6156 23.1227 15.6156C23.1227 16.0636 23.1227 16.5009 23.1227 16.9329C23.1227 17.0023 23.1547 17.0503 23.2134 17.0823C23.6027 17.3063 23.992 17.5303 24.408 17.7703C24.408 17.0289 24.408 16.3303 24.408 15.6156ZM22.744 16.8103C22.744 16.3836 22.744 15.9943 22.744 15.6049C22.0614 15.6049 21.3947 15.6049 20.664 15.6049C21.3894 16.0209 22.056 16.4103 22.744 16.8103ZM18.2267 16.7249C18.8827 16.3463 19.496 15.9889 20.136 15.6156C19.4694 15.6156 18.8507 15.6156 18.2267 15.6156C18.2267 15.9836 18.2267 16.3249 18.2267 16.7249Z" fill="url(#paint10_linear)"/>
<path d="M21.5494 26.2931C21.0961 26.7358 20.5734 26.9598 19.9708 26.9598C19.1974 26.9598 18.5841 26.6931 18.1201 26.1651C17.6561 25.6371 17.4268 24.9225 17.4268 24.0265C17.4268 23.4558 17.5494 22.9331 17.8001 22.4531C18.0508 21.9785 18.3974 21.6051 18.8454 21.3385C19.2934 21.0718 19.7948 20.9385 20.3548 20.9385C20.9308 20.9385 21.4428 21.0825 21.8908 21.3705C22.3388 21.6585 22.6854 22.0691 22.9308 22.6078C23.1761 23.1465 23.3041 23.7651 23.3094 24.4585V25.0985C23.3094 26.5545 22.9468 27.6958 22.2268 28.5225C21.5014 29.3545 20.4774 29.7971 19.1548 29.8505L18.7281 29.8558V28.4105L19.1121 28.4051C20.6108 28.3465 21.4268 27.6371 21.5494 26.2931ZM20.3921 25.6318C20.6694 25.6318 20.9148 25.5625 21.1121 25.4185C21.3148 25.2745 21.4641 25.0985 21.5708 24.8958V24.1811C21.5708 23.5945 21.4588 23.1411 21.2348 22.8158C21.0108 22.4905 20.7121 22.3305 20.3388 22.3305C19.9921 22.3305 19.7041 22.4905 19.4801 22.8051C19.2561 23.1198 19.1441 23.5198 19.1441 23.9998C19.1441 24.4745 19.2508 24.8638 19.4694 25.1731C19.6934 25.4825 19.9974 25.6318 20.3921 25.6318Z" fill="#D15400"/>
<defs>
<linearGradient id="paint0_linear" x1="13.8153" y1="32.1877" x2="27.0053" y2="18.9977" gradientUnits="userSpaceOnUse">
<stop stop-color="#DB8200"/>
<stop offset="0.064678" stop-color="#DC8505"/>
<stop offset="0.1429" stop-color="#DF8D14"/>
<stop offset="0.2282" stop-color="#E49B2C"/>
<stop offset="0.3184" stop-color="#ECAE4F"/>
<stop offset="0.4115" stop-color="#F5C67A"/>
<stop offset="0.4979" stop-color="#FFE0A9"/>
<stop offset="0.5836" stop-color="#F5C67B"/>
<stop offset="0.6782" stop-color="#ECAE4F"/>
<stop offset="0.7698" stop-color="#E59B2D"/>
<stop offset="0.8561" stop-color="#DF8D14"/>
<stop offset="0.9351" stop-color="#DC8505"/>
<stop offset="1" stop-color="#DB8200"/>
</linearGradient>
<linearGradient id="paint1_linear" x1="13.1616" y1="14.4625" x2="27.8016" y2="14.4625" gradientUnits="userSpaceOnUse">
<stop stop-color="#E8B010"/>
<stop offset="0.4979" stop-color="#FFF188"/>
<stop offset="0.7548" stop-color="#F3CF49"/>
<stop offset="1" stop-color="#E8B010"/>
</linearGradient>
<linearGradient id="paint2_linear" x1="17.1652" y1="17.7829" x2="17.1652" y2="15.5379" gradientUnits="userSpaceOnUse">
<stop stop-color="#E8B010"/>
<stop offset="0.157" stop-color="#F0C639"/>
<stop offset="0.3926" stop-color="#FBE572"/>
<stop offset="0.5063" stop-color="#FFF188"/>
<stop offset="0.7474" stop-color="#F4D24F"/>
<stop offset="1" stop-color="#E8B010"/>
</linearGradient>
<linearGradient id="paint3_linear" x1="23.7512" y1="17.7765" x2="23.7512" y2="15.5295" gradientUnits="userSpaceOnUse">
<stop stop-color="#E8B010"/>
<stop offset="0.157" stop-color="#F0C639"/>
<stop offset="0.3926" stop-color="#FBE572"/>
<stop offset="0.5063" stop-color="#FFF188"/>
<stop offset="0.7474" stop-color="#F4D24F"/>
<stop offset="1" stop-color="#E8B010"/>
</linearGradient>
<linearGradient id="paint4_linear" x1="14.8655" y1="31.1388" x2="25.9782" y2="20.0261" gradientUnits="userSpaceOnUse">
<stop stop-color="#E8B010"/>
<stop offset="0.4979" stop-color="#FEFDD4"/>
<stop offset="1" stop-color="#E8B010"/>
</linearGradient>
<linearGradient id="paint5_linear" x1="13.5661" y1="20.7788" x2="27.2908" y2="30.3889" gradientUnits="userSpaceOnUse">
<stop stop-color="#E16D40"/>
<stop offset="0.1025" stop-color="#E27042"/>
<stop offset="0.192" stop-color="#E57B48"/>
<stop offset="0.2765" stop-color="#E98D52"/>
<stop offset="0.3581" stop-color="#EFA660"/>
<stop offset="0.4368" stop-color="#F7C672"/>
<stop offset="0.4979" stop-color="#FFE583"/>
<stop offset="0.5007" stop-color="#FFE382"/>
<stop offset="0.5687" stop-color="#F6BF6E"/>
<stop offset="0.6396" stop-color="#EEA15D"/>
<stop offset="0.7148" stop-color="#E88A50"/>
<stop offset="0.7953" stop-color="#E47A47"/>
<stop offset="0.8845" stop-color="#E27042"/>
<stop offset="1" stop-color="#E16D40"/>
</linearGradient>
<linearGradient id="paint6_linear" x1="13.9206" y1="9.4911" x2="15.7651" y2="9.4911" gradientUnits="userSpaceOnUse">
<stop stop-color="#C80000"/>
<stop offset="1" stop-color="#8E0000"/>
</linearGradient>
<linearGradient id="paint7_linear" x1="25.3321" y1="9.48854" x2="27.0677" y2="9.48854" gradientUnits="userSpaceOnUse">
<stop stop-color="#C80000"/>
<stop offset="1" stop-color="#8E0000"/>
</linearGradient>
<linearGradient id="paint8_linear" x1="22.6685" y1="9.49478" x2="23.9759" y2="9.49478" gradientUnits="userSpaceOnUse">
<stop stop-color="#C80000"/>
<stop offset="1" stop-color="#8E0000"/>
</linearGradient>
<linearGradient id="paint9_linear" x1="17.1213" y1="9.49437" x2="18.3257" y2="9.49437" gradientUnits="userSpaceOnUse">
<stop stop-color="#C80000"/>
<stop offset="1" stop-color="#8E0000"/>
</linearGradient>
<linearGradient id="paint10_linear" x1="20.4135" y1="35.6925" x2="20.4135" y2="5.32693" gradientUnits="userSpaceOnUse">
<stop offset="0.6271" stop-color="#965214"/>
<stop offset="0.6423" stop-color="#914812"/>
<stop offset="0.6916" stop-color="#852E0B"/>
<stop offset="0.7458" stop-color="#7B1A06"/>
<stop offset="0.8069" stop-color="#740B03"/>
<stop offset="0.8804" stop-color="#700301"/>
<stop offset="1" stop-color="#6F0000"/>
</linearGradient>
</defs>
</svg>
