<svg width="60" height="60" viewBox="0 0 60 60" fill="none" xmlns="http://www.w3.org/2000/svg">
<path d="M41.2779 20.4328C41.2779 21.2457 41.2779 22.0745 41.2779 22.8795C34.0016 22.8795 26.7333 22.9592 19.457 22.9592C19.457 22.1542 19.457 21.2457 19.457 20.4248C26.7174 20.4328 33.9857 20.4328 41.2779 20.4328Z" fill="url(#paint0_linear)"/>
<path d="M30.4567 51.2112C22.8218 51.2272 16.5656 45.0108 16.5576 37.352C16.5576 29.5975 22.758 23.5247 30.3132 23.445C37.996 23.3732 44.3398 29.486 44.3478 37.3122C44.3558 45.0108 38.2032 51.1554 30.4567 51.2112ZM41.9489 37.3998C41.9569 30.8727 36.9201 25.9315 30.377 25.9395C23.8817 25.9474 18.9884 30.9285 18.9804 37.4317C18.9645 43.9748 23.8977 48.8522 30.4806 48.8761C36.9838 48.9 41.941 43.927 41.9489 37.3998Z" fill="url(#paint1_linear)"/>
<path d="M26.4632 23.4053C26.3277 23.3097 26.1842 23.3575 26.0488 23.3575C23.8332 23.3575 21.6097 23.3496 19.3941 23.3655C19.0912 23.3655 19.0116 23.2619 19.0116 22.975C19.0275 22.1143 19.0275 21.2456 19.0116 20.3848C19.0036 20.09 19.1072 19.9704 19.4021 20.0023C19.6093 20.0182 19.8165 20.0023 20.0715 20.0023C20.0715 15.9856 20.0715 12.0087 20.0715 8C26.9573 8 33.8032 8 40.681 8C40.681 12.0008 40.681 15.9697 40.681 19.9306C40.9361 20.0581 41.1751 20.0023 41.4063 19.9943C41.6693 19.9864 41.7569 20.09 41.7569 20.345C41.749 21.2376 41.741 22.1222 41.7569 23.0148C41.7649 23.3416 41.5896 23.3655 41.3345 23.3575C39.1269 23.3495 36.9273 23.3495 34.7197 23.3495C34.64 23.3495 34.5603 23.3575 34.4647 23.3894C38.3937 24.6725 41.4142 27.0395 43.311 30.7374C45.2078 34.4513 45.4628 38.3166 44.0522 42.2217C41.7251 48.6612 35.5725 52.2714 29.2605 51.7454C22.4465 51.1716 17.314 46.071 16.2062 39.7909C15.0347 33.1602 18.9079 25.5651 26.4632 23.4053ZM40.1152 8.55788C33.6119 8.55788 27.1247 8.55788 20.6374 8.55788C20.6374 12.3594 20.6374 16.137 20.6374 19.9067C21.1634 19.9784 39.8123 19.9545 40.1152 19.8907C40.155 19.556 40.163 8.99621 40.1152 8.55788ZM30.456 51.0919C38.1148 51.0361 44.1956 44.9473 44.1877 37.3363C44.1797 29.5898 37.9076 23.5408 30.3125 23.6125C22.845 23.6843 16.7163 29.6934 16.7163 37.3761C16.7163 44.9553 22.9087 51.0999 30.456 51.0919ZM41.2309 20.5363C33.9706 20.5363 26.7421 20.5363 19.5136 20.5363C19.5136 21.3173 19.5136 22.0664 19.5136 22.8395C26.758 22.8395 33.9865 22.8395 41.2309 22.8395C41.2309 22.0664 41.2309 21.3173 41.2309 20.5363Z" fill="#441E05"/>
<path d="M40.115 8.55664C40.1629 9.00294 40.1549 19.5627 40.115 19.8895C39.8202 19.9532 21.1712 19.9771 20.6372 19.9054C20.6372 16.1358 20.6372 12.3582 20.6372 8.55664C27.1245 8.55664 33.6038 8.55664 40.115 8.55664Z" fill="url(#paint2_linear)"/>
<path d="M41.9089 37.3991C41.9248 43.6951 36.7923 48.8834 30.4485 48.8754C24.1047 48.8674 18.9881 43.8465 18.9722 37.431C18.9563 30.9915 24.0967 25.9786 30.3608 25.9387C36.7366 25.8989 41.8929 31.0313 41.9089 37.3991Z" fill="url(#paint3_linear)"/>
<path d="M42.1949 37.4312C42.187 43.8946 36.8871 49.1864 30.4556 49.1625C23.9524 49.1386 18.7004 43.8706 18.7163 37.3913C18.7323 30.9518 24.0082 25.6759 30.4397 25.668C36.9031 25.668 42.2109 30.9678 42.1949 37.4312ZM41.8204 37.4152C41.8044 31.1112 36.6959 26.0266 30.3839 26.0665C24.1835 26.1063 19.0909 31.0714 19.1069 37.4471C19.1228 43.7989 24.1915 48.772 30.4716 48.78C36.7517 48.78 41.8363 43.6475 41.8204 37.4152Z" fill="url(#paint4_linear)"/>
<path d="M34.8959 38.3483C34.8959 40.1495 34.5372 41.5282 33.812 42.4846C33.0947 43.4409 32.0348 43.9191 30.648 43.9191C29.2773 43.9191 28.2253 43.4489 27.5 42.5165C26.7748 41.576 26.4002 40.2371 26.3843 38.4918V36.0929C26.3843 34.2758 26.7509 32.8891 27.4761 31.9487C28.2093 31.0083 29.2534 30.5381 30.6321 30.5381C32.0029 30.5381 33.0549 31.0083 33.7801 31.9407C34.5054 32.8732 34.8799 34.2121 34.8959 35.9654V38.3483ZM32.4014 35.7104C32.4014 34.6265 32.2579 33.8455 31.971 33.3514C31.6841 32.8573 31.2378 32.6102 30.6321 32.6102C30.0423 32.6102 29.612 32.8413 29.333 33.3115C29.0541 33.7817 28.9027 34.5149 28.8867 35.5111V38.6831C28.8867 39.743 29.0302 40.54 29.3091 41.05C29.5881 41.5681 30.0344 41.8231 30.656 41.8231C31.2697 41.8231 31.708 41.576 31.979 41.0819C32.2499 40.5878 32.3934 39.8307 32.4014 38.8026V35.7104Z" fill="#441E05"/>
<defs>
<linearGradient id="paint0_linear" x1="19.457" y1="21.694" x2="41.2806" y2="21.694" gradientUnits="userSpaceOnUse">
<stop stop-color="#5E242E"/>
<stop offset="0.0430709" stop-color="#6D2E2E"/>
<stop offset="0.1201" stop-color="#803B2E"/>
<stop offset="0.2087" stop-color="#8E452E"/>
<stop offset="0.3178" stop-color="#974A2E"/>
<stop offset="0.5083" stop-color="#994C2E"/>
<stop offset="0.7312" stop-color="#974B2E"/>
<stop offset="0.8262" stop-color="#90462E"/>
<stop offset="0.8969" stop-color="#833D2E"/>
<stop offset="0.9551" stop-color="#72312E"/>
<stop offset="1" stop-color="#5E242E"/>
</linearGradient>
<linearGradient id="paint1_linear" x1="20.6357" y1="47.1477" x2="40.2883" y2="27.4951" gradientUnits="userSpaceOnUse">
<stop stop-color="#994C2E"/>
<stop offset="0.4875" stop-color="#FFAE73"/>
<stop offset="1" stop-color="#994C2E"/>
</linearGradient>
<linearGradient id="paint2_linear" x1="30.3909" y1="8.55267" x2="30.3909" y2="19.9423" gradientUnits="userSpaceOnUse">
<stop offset="0.3938" stop-color="#FFEF7D"/>
<stop offset="0.5155" stop-color="#FCE574"/>
<stop offset="0.7202" stop-color="#F5CB5D"/>
<stop offset="0.975" stop-color="#EAA239"/>
</linearGradient>
<linearGradient id="paint3_linear" x1="22.3094" y1="45.5249" x2="38.5449" y2="29.2895" gradientUnits="userSpaceOnUse">
<stop stop-color="#D68E5C"/>
<stop offset="0.4875" stop-color="#FFEFC4"/>
<stop offset="1" stop-color="#D68E5C"/>
</linearGradient>
<linearGradient id="paint4_linear" x1="22.16" y1="29.1296" x2="38.7495" y2="45.719" gradientUnits="userSpaceOnUse">
<stop offset="0.0833333" stop-color="#FFBD00"/>
<stop offset="0.1194" stop-color="#FFC20B"/>
<stop offset="0.3906" stop-color="#FFE25D"/>
<stop offset="0.5146" stop-color="#FFEF7D"/>
<stop offset="0.5736" stop-color="#FFEB73"/>
<stop offset="0.673" stop-color="#FFE159"/>
<stop offset="0.7996" stop-color="#FFD02F"/>
<stop offset="0.9208" stop-color="#FFBD00"/>
</linearGradient>
</defs>
</svg>
