<svg width="40" height="40" viewBox="0 0 40 40" fill="none" xmlns="http://www.w3.org/2000/svg">
<path d="M12.0185 25.6109C12.0185 24.0802 12.0239 22.5442 12.0132 21.0135C12.0132 20.8375 12.0665 20.7415 12.2212 20.6562C14.8772 19.1309 17.5279 17.6002 20.1785 16.0642C20.3492 15.9682 20.4665 15.9682 20.6372 16.0642C23.2932 17.6055 25.9545 19.1415 28.6159 20.6722C28.7492 20.7522 28.7972 20.8375 28.7972 20.9869C28.7919 24.0802 28.7919 27.1735 28.7972 30.2669C28.7972 30.4215 28.7492 30.5069 28.6105 30.5815C25.9332 32.1229 23.2559 33.6642 20.5839 35.2109C20.4505 35.2909 20.3545 35.2856 20.2212 35.2109C17.5492 33.6642 14.8719 32.1175 12.1945 30.5815C12.0452 30.4962 12.0132 30.3949 12.0132 30.2349C12.0185 28.6935 12.0185 27.1522 12.0185 25.6109ZM27.6879 25.6269C27.6879 24.2722 27.6879 22.9122 27.6985 21.5575C27.6985 21.4029 27.6985 21.4135 27.5652 21.3335C25.2239 19.9895 22.9252 18.6615 20.5892 17.3069C20.4665 17.2375 20.4505 17.2162 20.3225 17.2909C17.9759 18.6509 15.6879 19.9469 13.3359 21.2962C13.2079 21.3709 13.1652 21.4029 13.1652 21.5469C13.1705 24.2615 13.1705 26.9549 13.1652 29.6695C13.1652 29.8135 13.2025 29.8349 13.3359 29.9095C15.6772 31.2535 17.9225 32.5549 20.2585 33.9095C20.3919 33.9842 20.4665 33.9895 20.6052 33.9095C22.9519 32.5495 25.2239 31.2322 27.5759 29.8829C27.7092 29.8082 27.6985 29.7762 27.6985 29.6429C27.6932 28.2989 27.6879 26.9815 27.6879 25.6269Z" fill="url(#paint0_linear)"/>
<path d="M27.8002 13.6533C27.8002 14.2186 27.8002 14.768 27.8002 15.3333C22.9148 15.3333 18.0455 15.3333 13.1602 15.3333C13.1602 14.7733 13.1602 14.224 13.1602 13.6533C18.0348 13.6533 22.9042 13.6533 27.8002 13.6533Z" fill="url(#paint1_linear)"/>
<path d="M16.4297 17.8137C16.4297 17.035 16.4297 16.315 16.4297 15.5684C16.915 15.5684 17.395 15.5684 17.9017 15.5684C17.9017 16.0004 17.9017 16.4324 17.9017 16.859C17.9017 16.9337 17.8644 16.9817 17.8057 17.019C17.3577 17.2804 16.915 17.5364 16.4297 17.8137Z" fill="url(#paint2_linear)"/>
<path d="M24.4399 15.563C24.4399 16.3256 24.4399 17.0616 24.4399 17.8083C24.2639 17.787 24.1359 17.6696 23.9919 17.5896C23.7359 17.451 23.4799 17.3016 23.2239 17.1576C23.1439 17.1096 23.0586 17.0723 23.0586 16.9496C23.0639 16.491 23.0586 16.0323 23.0586 15.5576C23.5333 15.563 23.9706 15.563 24.4399 15.563Z" fill="url(#paint3_linear)"/>
<path d="M27.5018 25.6265C27.5018 26.9012 27.4964 28.1759 27.5071 29.4452C27.5071 29.6265 27.4538 29.7279 27.2884 29.8239C25.0751 31.0878 22.8671 32.3625 20.6644 33.6372C20.4831 33.7385 20.3551 33.7438 20.1791 33.6372C17.9764 32.3572 15.7631 31.0878 13.5551 29.8239C13.3898 29.7279 13.3364 29.6319 13.3364 29.4452C13.3418 26.8905 13.3418 24.3305 13.3364 21.7759C13.3364 21.5945 13.3898 21.4932 13.5551 21.3972C15.7684 20.1332 17.9764 18.8585 20.1791 17.5839C20.3604 17.4825 20.4884 17.4772 20.6644 17.5839C22.8671 18.8639 25.0804 20.1332 27.2884 21.3972C27.4538 21.4932 27.5071 21.5892 27.5071 21.7759C27.5018 23.0612 27.5018 24.3465 27.5018 25.6265Z" fill="url(#paint4_linear)"/>
<path d="M27.7417 25.6111C27.7417 26.9551 27.7417 28.2937 27.7417 29.6377C27.7417 29.7711 27.7203 29.8564 27.587 29.9364C25.2563 31.2751 22.9257 32.6191 20.6003 33.9684C20.4617 34.0484 20.371 34.0378 20.243 33.9631C17.923 32.6191 15.603 31.2804 13.283 29.9471C13.155 29.8724 13.1177 29.7977 13.1177 29.6591C13.123 26.9657 13.123 24.2777 13.1177 21.5844C13.1177 21.4404 13.1603 21.3711 13.2883 21.2964C15.619 19.9577 17.9443 18.6137 20.2697 17.2644C20.3977 17.1897 20.483 17.2004 20.6057 17.2697C22.9257 18.6137 25.2457 19.9577 27.5657 21.2911C27.699 21.3657 27.747 21.4457 27.747 21.6004C27.7363 22.9284 27.7417 24.2724 27.7417 25.6111ZM27.427 25.6271C27.427 24.3577 27.4217 23.0831 27.4323 21.8137C27.4323 21.6324 27.379 21.5311 27.219 21.4404C25.0323 20.1871 22.851 18.9284 20.6697 17.6591C20.4937 17.5577 20.3657 17.5577 20.1897 17.6591C18.0083 18.9284 15.827 20.1871 13.6403 21.4404C13.4803 21.5311 13.427 21.6324 13.427 21.8137C13.4323 24.3471 13.4323 26.8804 13.427 29.4137C13.427 29.5951 13.4803 29.6964 13.6403 29.7871C15.827 31.0404 18.0083 32.2991 20.1897 33.5684C20.3657 33.6698 20.4937 33.6698 20.6697 33.5684C22.851 32.2991 25.0323 31.0404 27.219 29.7871C27.379 29.6964 27.4323 29.5951 27.4323 29.4137C27.4217 28.1497 27.427 26.8911 27.427 25.6271Z" fill="url(#paint5_linear)"/>
<path d="M16.1577 5.68555C17.3844 5.68555 18.595 5.68555 19.8217 5.68555C19.8217 8.22422 19.8217 10.7522 19.8217 13.2909C18.6004 13.2909 17.3897 13.2909 16.1577 13.2909C16.1577 10.7629 16.1577 8.24022 16.1577 5.68555Z" fill="white"/>
<path d="M21.2188 13.2904C21.2188 10.7518 21.2188 8.23443 21.2188 5.69043C22.4347 5.69043 23.6561 5.69043 24.8881 5.69043C24.8881 8.21843 24.8881 10.7464 24.8881 13.2904C23.6667 13.2904 22.4561 13.2904 21.2188 13.2904Z" fill="white"/>
<path d="M15.8161 5.63184H13.9175V13.3492H15.8161V5.63184Z" fill="url(#paint6_linear)"/>
<path d="M27.0641 5.63184H25.2241V13.3492H27.0641V5.63184Z" fill="url(#paint7_linear)"/>
<path d="M20.1576 13.3705H20.211C20.2856 13.3705 20.3603 13.3705 20.4296 13.3705C20.4776 13.3705 20.5256 13.3705 20.5683 13.3705C20.659 13.3705 20.7496 13.3652 20.8403 13.3492L20.883 13.3438V5.63184H20.147V13.3705H20.1576Z" fill="url(#paint8_linear)"/>
<path d="M12.9094 15.6055C12.9094 14.8482 12.9094 14.1229 12.9094 13.3975C13.1281 13.3175 13.3468 13.4082 13.5814 13.3389C13.5814 10.6882 13.5814 8.02687 13.5814 5.33887C18.1894 5.33887 22.7708 5.33887 27.3788 5.33887C27.3788 8.00554 27.3788 10.6615 27.3788 13.3229C27.6134 13.4189 27.8481 13.3122 28.0508 13.3869C28.0988 13.4562 28.0988 13.5255 28.0988 13.6002C28.0988 14.1869 28.0988 14.7735 28.0988 15.3602C28.0988 15.5895 28.0774 15.6109 27.8374 15.6109C26.9041 15.6109 25.9708 15.6109 25.0374 15.6109C24.9681 15.6109 24.8988 15.6109 24.8454 15.6109C24.7601 15.6802 24.7868 15.7602 24.7868 15.8242C24.7868 16.4749 24.7921 17.1202 24.7814 17.7709C24.7814 17.9362 24.8401 18.0215 24.9788 18.1015C26.3121 18.8642 27.6401 19.6375 28.9734 20.3949C29.1388 20.4909 29.2081 20.5922 29.2081 20.7895C29.2028 24.0055 29.2028 27.2215 29.2081 30.4429C29.2081 30.6136 29.1654 30.7149 29.0108 30.8056C26.2161 32.4109 23.4268 34.0216 20.6374 35.6376C20.4828 35.7282 20.3654 35.7336 20.2108 35.6429C17.4214 34.0269 14.6321 32.4162 11.8374 30.8109C11.6828 30.7202 11.6348 30.6242 11.6348 30.4536C11.6401 27.2269 11.6401 24.0002 11.6348 20.7735C11.6348 20.6029 11.6828 20.5015 11.8374 20.4162C13.1921 19.6429 14.5468 18.8589 15.9014 18.0855C16.0508 18.0002 16.1148 17.9095 16.1094 17.7282C16.0988 17.0349 16.1041 16.3415 16.1041 15.6162C15.0321 15.6055 13.9814 15.6055 12.9094 15.6055ZM28.7334 25.6109C28.7334 24.0802 28.7281 22.5549 28.7388 21.0242C28.7388 20.8482 28.6854 20.7575 28.5308 20.6722C25.8961 19.1575 23.2668 17.6429 20.6428 16.1175C20.4774 16.0215 20.3548 16.0215 20.1894 16.1175C17.5654 17.6429 14.9308 19.1575 12.3014 20.6722C12.1468 20.7575 12.0934 20.8535 12.0988 21.0295C12.1041 24.0802 12.1041 27.1255 12.0988 30.1762C12.0988 30.3522 12.1521 30.4429 12.3068 30.5282C14.9414 32.0429 17.5708 33.5576 20.1948 35.0829C20.3601 35.1789 20.4828 35.1789 20.6481 35.0829C23.2721 33.5576 25.9068 32.0429 28.5361 30.5282C28.6908 30.4429 28.7441 30.3469 28.7388 30.1709C28.7281 28.6509 28.7334 27.1309 28.7334 25.6109ZM16.1574 5.68553C16.1574 8.23487 16.1574 10.7629 16.1574 13.2909C17.3841 13.2909 18.6001 13.2909 19.8214 13.2909C19.8214 10.7469 19.8214 8.2242 19.8214 5.68553C18.5948 5.68553 17.3841 5.68553 16.1574 5.68553ZM21.2188 13.2909C22.4614 13.2909 23.6721 13.2909 24.8881 13.2909C24.8881 10.7469 24.8881 8.21887 24.8881 5.69087C23.6561 5.69087 22.4348 5.69087 21.2188 5.69087C21.2188 8.23487 21.2188 10.7575 21.2188 13.2909ZM13.2294 15.2482C18.0881 15.2482 22.9254 15.2482 27.7628 15.2482C27.7628 14.7255 27.7628 14.2242 27.7628 13.7069C22.9148 13.7069 18.0774 13.7069 13.2294 13.7069C13.2294 14.2242 13.2294 14.7255 13.2294 15.2482ZM13.9708 5.68553C13.9708 8.2402 13.9708 10.7682 13.9708 13.2962C14.5788 13.2962 15.1708 13.2962 15.7628 13.2962C15.7628 10.7469 15.7628 8.21887 15.7628 5.68553C15.1601 5.68553 14.5788 5.68553 13.9708 5.68553ZM25.2774 5.68553C25.2774 8.2402 25.2774 10.7682 25.2774 13.2962C25.8694 13.2962 26.4401 13.2962 27.0108 13.2962C27.0108 10.7469 27.0108 8.21887 27.0108 5.68553C26.4241 5.68553 25.8588 5.68553 25.2774 5.68553ZM20.2108 5.68553C20.2108 8.2402 20.2108 10.7682 20.2108 13.3175C20.4294 13.3122 20.6268 13.3389 20.8401 13.3015C20.8401 10.7575 20.8401 8.22954 20.8401 5.69087C20.6214 5.68553 20.4241 5.68553 20.2108 5.68553ZM17.8588 15.6162C17.3681 15.6162 16.9201 15.6162 16.4721 15.6162C16.4721 16.3202 16.4721 17.0082 16.4721 17.7335C16.9201 17.4775 17.3414 17.2375 17.7574 16.9975C17.8268 16.9602 17.8588 16.9015 17.8534 16.8215C17.8588 16.4215 17.8588 16.0269 17.8588 15.6162ZM24.4028 17.7602C24.4028 17.0189 24.4028 16.3149 24.4028 15.6162C23.9708 15.6162 23.5601 15.6162 23.1281 15.6162C23.1281 16.0589 23.1281 16.4855 23.1281 16.9069C23.1281 16.9709 23.1388 17.0295 23.2028 17.0669C23.5974 17.2962 23.9921 17.5255 24.4028 17.7602ZM22.7601 15.6055C22.0668 15.6055 21.4001 15.6055 20.6748 15.6055C21.3948 16.0215 22.0668 16.4109 22.7601 16.8109C22.7601 16.3895 22.7601 16.0109 22.7601 15.6055ZM18.2321 16.7202C18.8828 16.3415 19.4961 15.9895 20.1468 15.6109C19.4748 15.6109 18.8614 15.6109 18.2321 15.6109C18.2321 15.9735 18.2321 16.3255 18.2321 16.7202Z" fill="url(#paint9_linear)"/>
<path d="M23.1813 23.4456C23.1813 23.8669 23.0746 24.2456 22.8613 24.5709C22.648 24.8963 22.36 25.1576 21.9866 25.3549C22.408 25.5576 22.744 25.8403 22.9946 26.1976C23.24 26.5549 23.368 26.9763 23.368 27.4563C23.368 28.2296 23.1066 28.8429 22.5786 29.2909C22.0506 29.7389 21.336 29.9629 20.4293 29.9629C19.5226 29.9629 18.8026 29.7389 18.2746 29.2856C17.7413 28.8323 17.48 28.2243 17.48 27.4509C17.48 26.9656 17.6026 26.5443 17.8533 26.1869C18.0986 25.8296 18.4346 25.5469 18.856 25.3496C18.4826 25.1523 18.1946 24.8909 17.9866 24.5656C17.7786 24.2403 17.672 23.8616 17.672 23.4403C17.672 22.6989 17.9173 22.1069 18.4133 21.6643C18.9093 21.2216 19.5813 21.0029 20.4293 21.0029C21.2773 21.0029 21.9493 21.2216 22.4453 21.6589C22.936 22.1016 23.1813 22.6936 23.1813 23.4456ZM21.6293 27.3336C21.6293 26.9549 21.5173 26.6509 21.2986 26.4216C21.08 26.1923 20.7813 26.0803 20.4133 26.0803C20.0453 26.0803 19.752 26.1923 19.5333 26.4163C19.3146 26.6403 19.2026 26.9443 19.2026 27.3283C19.2026 27.7016 19.3093 28.0003 19.528 28.2243C19.7466 28.4483 20.0453 28.5656 20.424 28.5656C20.7973 28.5656 21.096 28.4536 21.3093 28.2349C21.5226 28.0269 21.6293 27.7229 21.6293 27.3336ZM21.4533 23.5309C21.4533 23.1896 21.3626 22.9176 21.1813 22.7149C21 22.5069 20.7493 22.4056 20.4186 22.4056C20.0933 22.4056 19.8426 22.5069 19.6666 22.7043C19.4853 22.9016 19.3946 23.1789 19.3946 23.5309C19.3946 23.8776 19.4853 24.1603 19.6666 24.3683C19.848 24.5816 20.0986 24.6883 20.4293 24.6883C20.7546 24.6883 21.0106 24.5816 21.1866 24.3683C21.3626 24.1549 21.4533 23.8776 21.4533 23.5309Z" fill="#D15400"/>
<defs>
<linearGradient id="paint0_linear" x1="13.8148" y1="32.2195" x2="27.0048" y2="19.0295" gradientUnits="userSpaceOnUse">
<stop stop-color="#DB8200"/>
<stop offset="0.064678" stop-color="#DC8505"/>
<stop offset="0.1429" stop-color="#DF8D14"/>
<stop offset="0.2282" stop-color="#E49B2C"/>
<stop offset="0.3184" stop-color="#ECAE4F"/>
<stop offset="0.4115" stop-color="#F5C67A"/>
<stop offset="0.4979" stop-color="#FFE0A9"/>
<stop offset="0.5836" stop-color="#F5C67B"/>
<stop offset="0.6782" stop-color="#ECAE4F"/>
<stop offset="0.7698" stop-color="#E59B2D"/>
<stop offset="0.8561" stop-color="#DF8D14"/>
<stop offset="0.9351" stop-color="#DC8505"/>
<stop offset="1" stop-color="#DB8200"/>
</linearGradient>
<linearGradient id="paint1_linear" x1="13.1616" y1="14.4944" x2="27.8016" y2="14.4944" gradientUnits="userSpaceOnUse">
<stop stop-color="#E8B010"/>
<stop offset="0.4979" stop-color="#FFF188"/>
<stop offset="0.7548" stop-color="#F3CF49"/>
<stop offset="1" stop-color="#E8B010"/>
</linearGradient>
<linearGradient id="paint2_linear" x1="17.1652" y1="17.8147" x2="17.1652" y2="15.5698" gradientUnits="userSpaceOnUse">
<stop stop-color="#E8B010"/>
<stop offset="0.157" stop-color="#F0C639"/>
<stop offset="0.3926" stop-color="#FBE572"/>
<stop offset="0.5063" stop-color="#FFF188"/>
<stop offset="0.7474" stop-color="#F4D24F"/>
<stop offset="1" stop-color="#E8B010"/>
</linearGradient>
<linearGradient id="paint3_linear" x1="23.7507" y1="17.8084" x2="23.7507" y2="15.5613" gradientUnits="userSpaceOnUse">
<stop stop-color="#E8B010"/>
<stop offset="0.157" stop-color="#F0C639"/>
<stop offset="0.3926" stop-color="#FBE572"/>
<stop offset="0.5063" stop-color="#FFF188"/>
<stop offset="0.7474" stop-color="#F4D24F"/>
<stop offset="1" stop-color="#E8B010"/>
</linearGradient>
<linearGradient id="paint4_linear" x1="14.8655" y1="31.1706" x2="25.9782" y2="20.0579" gradientUnits="userSpaceOnUse">
<stop stop-color="#E8B010"/>
<stop offset="0.4979" stop-color="#FEFDD4"/>
<stop offset="1" stop-color="#E8B010"/>
</linearGradient>
<linearGradient id="paint5_linear" x1="13.5661" y1="20.8111" x2="27.2908" y2="30.4213" gradientUnits="userSpaceOnUse">
<stop stop-color="#E16D40"/>
<stop offset="0.1025" stop-color="#E27042"/>
<stop offset="0.192" stop-color="#E57B48"/>
<stop offset="0.2765" stop-color="#E98D52"/>
<stop offset="0.3581" stop-color="#EFA660"/>
<stop offset="0.4368" stop-color="#F7C672"/>
<stop offset="0.4979" stop-color="#FFE583"/>
<stop offset="0.5007" stop-color="#FFE382"/>
<stop offset="0.5687" stop-color="#F6BF6E"/>
<stop offset="0.6396" stop-color="#EEA15D"/>
<stop offset="0.7148" stop-color="#E88A50"/>
<stop offset="0.7953" stop-color="#E47A47"/>
<stop offset="0.8845" stop-color="#E27042"/>
<stop offset="1" stop-color="#E16D40"/>
</linearGradient>
<linearGradient id="paint6_linear" x1="14.8679" y1="5.62963" x2="14.8679" y2="13.3459" gradientUnits="userSpaceOnUse">
<stop stop-color="#1B5170"/>
<stop offset="1" stop-color="#1B2B70"/>
</linearGradient>
<linearGradient id="paint7_linear" x1="26.1461" y1="5.62947" x2="26.1461" y2="13.3459" gradientUnits="userSpaceOnUse">
<stop stop-color="#1B5170"/>
<stop offset="1" stop-color="#1B2B70"/>
</linearGradient>
<linearGradient id="paint8_linear" x1="20.5232" y1="5.63017" x2="20.5232" y2="13.37" gradientUnits="userSpaceOnUse">
<stop stop-color="#1B5170"/>
<stop offset="1" stop-color="#1B2B70"/>
</linearGradient>
<linearGradient id="paint9_linear" x1="20.4141" y1="35.6946" x2="20.4141" y2="5.33287" gradientUnits="userSpaceOnUse">
<stop offset="0.6646" stop-color="#965214"/>
<stop offset="0.6851" stop-color="#7E4B26"/>
<stop offset="0.7177" stop-color="#60413C"/>
<stop offset="0.7535" stop-color="#47394F"/>
<stop offset="0.7932" stop-color="#33335E"/>
<stop offset="0.839" stop-color="#252E68"/>
<stop offset="0.8962" stop-color="#1D2C6E"/>
<stop offset="1" stop-color="#1B2B70"/>
</linearGradient>
</defs>
</svg>
