<svg width="40" height="40" viewBox="0 0 40 40" fill="none" xmlns="http://www.w3.org/2000/svg">
<path d="M19.7721 34.2128C14.6883 34.2234 10.5244 30.0688 10.519 24.9488C10.519 19.7648 14.6457 15.7061 19.6764 15.6528C24.7922 15.6048 29.0146 19.6901 29.0199 24.9221C29.0252 30.0634 24.9252 34.1754 19.7721 34.2128ZM27.4246 24.9808C27.4299 20.6181 24.0796 17.3168 19.7243 17.3221C15.3955 17.3274 12.141 20.6554 12.1304 25.0021C12.1197 29.3754 15.5232 32.6341 19.8998 32.6501C24.2338 32.6714 27.4192 29.3434 27.4246 24.9808Z" fill="url(#paint0_linear)"/>
<path d="M26.9351 13.5469C26.9351 14.1282 26.9351 14.6935 26.9351 15.2695C22.1011 15.2695 17.2778 15.2695 12.4438 15.2695C12.4438 14.6935 12.4438 14.1282 12.4438 13.5469C17.2672 13.5469 22.0905 13.5469 26.9351 13.5469Z" fill="url(#paint1_linear)"/>
<path d="M27.4241 24.9811C27.4347 29.1891 24.01 32.6558 19.7823 32.6505C15.5493 32.6451 12.1405 29.2851 12.1299 25.0025C12.1193 20.6985 15.5493 17.3492 19.7238 17.3225C23.9728 17.2905 27.4082 20.7252 27.4241 24.9811Z" fill="url(#paint2_linear)"/>
<path d="M27.6796 24.9921C27.6743 29.3548 24.106 32.9334 19.772 32.9121C15.39 32.8961 11.8536 29.3388 11.8643 24.9654C11.8749 20.6188 15.4273 17.0508 19.756 17.0508C24.1167 17.0455 27.685 20.6241 27.6796 24.9921ZM27.3712 24.9814C27.3606 20.7255 23.9731 17.3441 19.7241 17.3761C15.5496 17.4028 12.1727 20.7041 12.1834 25.0028C12.194 29.2908 15.5549 32.5974 19.7826 32.5974C24.0103 32.6028 27.3818 29.1894 27.3712 24.9814Z" fill="url(#paint3_linear)"/>
<path d="M13.1777 13.2367C13.1777 10.6981 13.1777 8.17539 13.1777 5.63672C14.6295 5.63672 16.0653 5.63672 17.5224 5.63672C17.5224 8.16472 17.5224 10.6927 17.5224 13.2367C16.0813 13.2367 14.6401 13.2367 13.1777 13.2367Z" fill="url(#paint4_linear)"/>
<path d="M26.1852 13.2474C24.7707 13.2474 23.3721 13.2474 21.9575 13.2474C21.9575 10.7087 21.9575 8.18072 21.9575 5.63672C23.3614 5.63672 24.7654 5.63672 26.1852 5.63672C26.1852 8.16472 26.1852 10.6927 26.1852 13.2474Z" fill="url(#paint5_linear)"/>
<path d="M17.0918 15.5838C16.9907 15.5305 16.9109 15.5518 16.8312 15.5518C15.3422 15.5518 13.8532 15.5518 12.3642 15.5572C12.2153 15.5572 12.0983 15.5518 12.0983 15.3598C12.1036 14.7305 12.0983 14.0958 12.1036 13.4665C12.1036 13.4345 12.1195 13.3972 12.1302 13.3545C12.3323 13.2585 12.5609 13.3598 12.8002 13.2905C12.8002 10.6292 12.8002 7.96782 12.8002 5.28516C17.3949 5.28516 21.9629 5.28516 26.5576 5.28516C26.5576 7.96249 26.5576 10.6185 26.5576 13.2798C26.7916 13.3545 27.0096 13.2745 27.2117 13.3332C27.2755 13.4025 27.2702 13.4825 27.2702 13.5625C27.2702 14.1385 27.2702 14.7198 27.2702 15.2958C27.2702 15.5465 27.2542 15.5572 26.999 15.5572C25.5365 15.5572 24.0741 15.5572 22.6117 15.5572C22.5426 15.5572 22.4734 15.5358 22.3937 15.5998C25.26 16.5225 27.3659 18.2985 28.5837 21.0718C29.5037 23.1678 29.6419 25.3332 29.0251 27.5252C27.7913 31.9038 23.8455 34.6772 19.538 34.5812C14.7306 34.4692 10.9815 30.9438 10.237 26.5278C9.46592 21.9998 12.0185 17.1358 17.0918 15.5838ZM19.7347 15.7118C14.7147 15.7225 10.5774 19.7545 10.572 24.9172C10.5667 29.9838 14.6881 34.1118 19.7294 34.1012C24.8293 34.0905 28.8921 30.0158 28.9028 24.9065C28.9187 19.8238 24.7867 15.7012 19.7347 15.7118ZM13.1778 13.2372C14.6455 13.2372 16.0814 13.2372 17.5225 13.2372C17.5225 10.6932 17.5225 8.16516 17.5225 5.63716C16.0654 5.63716 14.6296 5.63716 13.1778 5.63716C13.1778 8.17582 13.1778 10.6985 13.1778 13.2372ZM26.1853 13.2478C26.1853 10.6932 26.1853 8.16516 26.1853 5.63716C24.7601 5.63716 23.3562 5.63716 21.9576 5.63716C21.9576 8.18116 21.9576 10.7092 21.9576 13.2478C23.3722 13.2478 24.7708 13.2478 26.1853 13.2478ZM17.916 5.63182C17.916 8.18649 17.916 10.7092 17.916 13.2372C19.1445 13.2372 20.3516 13.2372 21.5641 13.2372C21.5641 10.6932 21.5641 8.16516 21.5641 5.63182C20.3463 5.63182 19.1391 5.63182 17.916 5.63182ZM12.4439 13.6532C12.4439 14.1865 12.4439 14.6878 12.4439 15.1998C17.2779 15.1998 22.1012 15.1998 26.9245 15.1998C26.9245 14.6718 26.9245 14.1652 26.9245 13.6532C22.0906 13.6532 17.2726 13.6532 12.4439 13.6532Z" fill="url(#paint6_linear)"/>
<path d="M17.916 5.63184C19.1338 5.63184 20.3463 5.63184 21.5641 5.63184C21.5641 8.1705 21.5641 10.6932 21.5641 13.2372C20.3463 13.2372 19.1391 13.2372 17.916 13.2372C17.916 10.7145 17.916 8.1865 17.916 5.63184Z" fill="white"/>
<path d="M21.0695 29.28H19.3412V22.6079L17.2832 23.2479V21.8399L20.8834 20.5439H21.0695V29.28Z" fill="#441E05"/>
<defs>
<linearGradient id="paint0_linear" x1="13.2287" y1="31.4927" x2="26.3574" y2="18.402" gradientUnits="userSpaceOnUse">
<stop stop-color="#994C2E"/>
<stop offset="0.4875" stop-color="#FFAE73"/>
<stop offset="1" stop-color="#994C2E"/>
</linearGradient>
<linearGradient id="paint1_linear" x1="12.4431" y1="14.4091" x2="26.9331" y2="14.4091" gradientUnits="userSpaceOnUse">
<stop stop-color="#5E242E"/>
<stop offset="0.0430709" stop-color="#6D2E2E"/>
<stop offset="0.1201" stop-color="#803B2E"/>
<stop offset="0.2087" stop-color="#8E452E"/>
<stop offset="0.3178" stop-color="#974A2E"/>
<stop offset="0.5083" stop-color="#994C2E"/>
<stop offset="0.7312" stop-color="#974B2E"/>
<stop offset="0.8262" stop-color="#90462E"/>
<stop offset="0.8969" stop-color="#833D2E"/>
<stop offset="0.9551" stop-color="#72312E"/>
<stop offset="1" stop-color="#5E242E"/>
</linearGradient>
<linearGradient id="paint2_linear" x1="14.3515" y1="30.4141" x2="25.2068" y2="19.5903" gradientUnits="userSpaceOnUse">
<stop stop-color="#D68E5C"/>
<stop offset="0.4875" stop-color="#FFEFC4"/>
<stop offset="1" stop-color="#D68E5C"/>
</linearGradient>
<linearGradient id="paint3_linear" x1="14.1857" y1="19.385" x2="25.3879" y2="30.5548" gradientUnits="userSpaceOnUse">
<stop offset="0.0833333" stop-color="#FFBD00"/>
<stop offset="0.1194" stop-color="#FFC20B"/>
<stop offset="0.3906" stop-color="#FFE25D"/>
<stop offset="0.5146" stop-color="#FFEF7D"/>
<stop offset="0.5736" stop-color="#FFEB73"/>
<stop offset="0.673" stop-color="#FFE159"/>
<stop offset="0.7996" stop-color="#FFD02F"/>
<stop offset="0.9208" stop-color="#FFBD00"/>
</linearGradient>
<linearGradient id="paint4_linear" x1="15.3498" y1="13.2389" x2="15.3498" y2="5.63856" gradientUnits="userSpaceOnUse">
<stop stop-color="#1DBDFF"/>
<stop offset="0.1394" stop-color="#1DCCFF"/>
<stop offset="0.3385" stop-color="#1DDAFF"/>
<stop offset="0.5828" stop-color="#1DE3FF"/>
<stop offset="1" stop-color="#1DE5FF"/>
</linearGradient>
<linearGradient id="paint5_linear" x1="24.0733" y1="13.2475" x2="24.0733" y2="5.63737" gradientUnits="userSpaceOnUse">
<stop stop-color="#1DBDFF"/>
<stop offset="0.1394" stop-color="#1DCCFF"/>
<stop offset="0.3385" stop-color="#1DDAFF"/>
<stop offset="0.5828" stop-color="#1DE3FF"/>
<stop offset="1" stop-color="#1DE5FF"/>
</linearGradient>
<linearGradient id="paint6_linear" x1="19.7479" y1="5.27563" x2="19.7479" y2="34.5742" gradientUnits="userSpaceOnUse">
<stop stop-color="#0073BF"/>
<stop offset="0.1175" stop-color="#0172BD"/>
<stop offset="0.1598" stop-color="#036FB6"/>
<stop offset="0.1899" stop-color="#076AAB"/>
<stop offset="0.2143" stop-color="#0E629A"/>
<stop offset="0.2352" stop-color="#165884"/>
<stop offset="0.2537" stop-color="#204B68"/>
<stop offset="0.2705" stop-color="#2C3D48"/>
<stop offset="0.2853" stop-color="#392C24"/>
<stop offset="0.2958" stop-color="#441E05"/>
</linearGradient>
</defs>
</svg>
