<svg width="40" height="40" viewBox="0 0 40 40" fill="none" xmlns="http://www.w3.org/2000/svg">
<path d="M12.0293 25.5942C12.0293 24.0636 12.0346 22.5276 12.0239 20.9969C12.0239 20.8209 12.0773 20.7249 12.2319 20.6396C14.8879 19.1143 17.5386 17.5836 20.1893 16.0476C20.3599 15.9516 20.4773 15.9516 20.6479 16.0476C23.3039 17.5889 25.9653 19.1249 28.6266 20.6556C28.7599 20.7356 28.8079 20.8209 28.8079 20.9702C28.8026 24.0636 28.8026 27.1569 28.8079 30.2502C28.8079 30.4049 28.7599 30.4902 28.6213 30.5649C25.9493 32.1062 23.2719 33.6476 20.5999 35.1942C20.4666 35.2742 20.3706 35.2689 20.2373 35.1942C17.5653 33.6476 14.8879 32.1009 12.2106 30.5649C12.0613 30.4796 12.0293 30.3782 12.0293 30.2182C12.0346 28.6769 12.0293 27.1356 12.0293 25.5942ZM27.7039 25.6156C27.7039 24.2609 27.7039 22.9009 27.7146 21.5462C27.7146 21.3916 27.7146 21.4022 27.5813 21.3222C25.2399 19.9782 22.9413 18.6503 20.6053 17.2956C20.4826 17.2263 20.4666 17.2049 20.3386 17.2796C17.9919 18.6396 15.7039 19.9356 13.3519 21.2849C13.2239 21.3596 13.1813 21.3916 13.1813 21.5356C13.1866 24.2502 13.1866 26.9436 13.1813 29.6582C13.1813 29.8022 13.2186 29.8236 13.3519 29.8982C15.6933 31.2422 17.9386 32.5436 20.2746 33.8982C20.4079 33.9729 20.4826 33.9782 20.6213 33.8982C22.9679 32.5382 25.2399 31.2209 27.5919 29.8716C27.7253 29.7969 27.7146 29.7649 27.7146 29.6316C27.7093 28.2822 27.7039 26.9649 27.7039 25.6156Z" fill="url(#paint0_linear)"/>
<path d="M13.9761 5.68457C15.4161 5.68457 16.8347 5.68457 18.2694 5.68457C18.2694 8.21791 18.2694 10.7459 18.2694 13.2952C16.8454 13.2952 15.4214 13.2952 13.9761 13.2952C13.9761 10.7672 13.9761 8.23924 13.9761 5.68457Z" fill="url(#paint1_linear)"/>
<path d="M22.7173 5.68457C24.152 5.68457 25.5706 5.68457 27.0106 5.68457C27.0106 8.21791 27.0106 10.7459 27.0106 13.2952C25.5866 13.2952 24.1626 13.2952 22.7173 13.2952C22.7173 10.7672 22.7173 8.23924 22.7173 5.68457Z" fill="url(#paint2_linear)"/>
<path d="M22.3227 5.69043C22.3227 8.23443 22.3227 10.7571 22.3227 13.2958C21.096 13.2958 19.8854 13.2958 18.6587 13.2958C18.6587 10.7571 18.6587 8.2291 18.6587 5.69043C19.8747 5.69043 21.0907 5.69043 22.3227 5.69043Z" fill="white"/>
<path d="M27.8158 13.6426C27.8158 14.2079 27.8158 14.7572 27.8158 15.3226C22.9304 15.3226 18.0611 15.3226 13.1758 15.3226C13.1758 14.7626 13.1758 14.2132 13.1758 13.6426C18.0451 13.6426 22.9198 13.6426 27.8158 13.6426Z" fill="url(#paint3_linear)"/>
<path d="M16.4399 17.802C16.4399 17.0233 16.4399 16.3033 16.4399 15.5566C16.9253 15.5566 17.4053 15.5566 17.9119 15.5566C17.9119 15.9886 17.9119 16.4206 17.9119 16.8473C17.9119 16.922 17.8746 16.97 17.8159 17.0073C17.3733 17.2633 16.9253 17.5193 16.4399 17.802Z" fill="url(#paint4_linear)"/>
<path d="M24.4555 15.5463C24.4555 16.309 24.4555 17.045 24.4555 17.7917C24.2795 17.7703 24.1516 17.653 24.0076 17.573C23.7516 17.4343 23.4956 17.285 23.2396 17.141C23.1596 17.093 23.0742 17.0557 23.0742 16.933C23.0796 16.4743 23.0742 16.0157 23.0742 15.541C23.5436 15.5463 23.9862 15.5463 24.4555 15.5463Z" fill="url(#paint5_linear)"/>
<path d="M27.5174 25.61C27.5174 26.8846 27.512 28.1593 27.5227 29.4286C27.5227 29.61 27.4694 29.7113 27.3041 29.8073C25.0907 31.0713 22.8827 32.346 20.6801 33.6206C20.4987 33.722 20.3707 33.7273 20.1947 33.6206C17.9921 32.3406 15.7787 31.0713 13.5707 29.8073C13.4054 29.7113 13.3521 29.6153 13.3521 29.4286C13.3574 26.874 13.3574 24.3139 13.3521 21.7593C13.3521 21.5779 13.4054 21.4766 13.5707 21.3806C15.7841 20.1166 17.9921 18.8419 20.1947 17.5673C20.3761 17.4659 20.5041 17.4606 20.6801 17.5673C22.8827 18.8473 25.0961 20.1166 27.3041 21.3806C27.4694 21.4766 27.5227 21.5726 27.5227 21.7593C27.512 23.0446 27.5174 24.33 27.5174 25.61Z" fill="url(#paint6_linear)"/>
<path d="M27.7519 25.5993C27.7519 26.9433 27.7519 28.282 27.7519 29.626C27.7519 29.7593 27.7306 29.8446 27.5973 29.9246C25.2666 31.2633 22.9359 32.6073 20.6106 33.9566C20.4719 34.0366 20.3813 34.026 20.2533 33.9513C17.9333 32.6073 15.6133 31.2686 13.2933 29.9353C13.1653 29.8606 13.1279 29.786 13.1279 29.6473C13.1333 26.954 13.1333 24.266 13.1279 21.5727C13.1279 21.4287 13.1706 21.3593 13.2986 21.2847C15.6293 19.946 17.9546 18.602 20.2799 17.2527C20.4079 17.178 20.4933 17.1887 20.6159 17.258C22.9359 18.602 25.2559 19.946 27.5759 21.2793C27.7093 21.354 27.7573 21.434 27.7573 21.5887C27.7466 22.9167 27.7519 24.2553 27.7519 25.5993ZM27.4373 25.61C27.4373 24.3407 27.4319 23.066 27.4426 21.7967C27.4426 21.6153 27.3893 21.514 27.2293 21.4233C25.0426 20.17 22.8613 18.9113 20.6799 17.642C20.5039 17.5407 20.3759 17.5407 20.1999 17.642C18.0186 18.9113 15.8373 20.17 13.6506 21.4233C13.4906 21.514 13.4373 21.6153 13.4373 21.7967C13.4426 24.33 13.4426 26.8633 13.4373 29.3966C13.4373 29.578 13.4906 29.6793 13.6506 29.77C15.8373 31.0233 18.0186 32.282 20.1999 33.5513C20.3759 33.6526 20.5039 33.6526 20.6799 33.5513C22.8613 32.282 25.0426 31.0233 27.2293 29.77C27.3893 29.6793 27.4426 29.578 27.4426 29.3966C27.4373 28.138 27.4373 26.874 27.4373 25.61Z" fill="url(#paint7_linear)"/>
<path d="M16.0986 15.5943C15.0213 15.5943 13.9759 15.5943 12.9093 15.5943C12.9093 14.8423 12.9093 14.1223 12.9093 13.3917C13.1279 13.3063 13.3466 13.4023 13.5813 13.333C13.5813 10.6823 13.5813 8.02101 13.5813 5.33301C18.1893 5.33301 22.7706 5.33301 27.3786 5.33301C27.3786 7.99434 27.3786 10.6557 27.3786 13.317C27.5493 13.3917 27.7039 13.365 27.8479 13.3543C28.0293 13.3437 28.1039 13.4023 28.0986 13.5943C28.0879 14.181 28.0933 14.7677 28.0933 15.3543C28.0933 15.5837 28.0719 15.605 27.8319 15.605C26.8986 15.605 25.9653 15.605 25.0319 15.605C24.9626 15.605 24.8933 15.605 24.8399 15.605C24.7546 15.6743 24.7813 15.749 24.7813 15.8183C24.7813 16.469 24.7866 17.1143 24.7759 17.765C24.7759 17.9303 24.8293 18.0157 24.9733 18.0957C26.2959 18.853 27.6186 19.621 28.9466 20.3783C29.1333 20.485 29.2026 20.5917 29.2026 20.8103C29.1919 23.9943 29.1919 27.173 29.2026 30.357C29.2026 30.6077 29.1226 30.7303 28.9093 30.8477C26.1466 32.4317 23.3893 34.0263 20.6319 35.621C20.4773 35.7117 20.3599 35.717 20.2053 35.6263C17.4159 34.0103 14.6266 32.3997 11.8319 30.7943C11.6773 30.709 11.6239 30.6077 11.6293 30.437C11.6346 27.2103 11.6346 23.9837 11.6293 20.757C11.6293 20.5863 11.6773 20.485 11.8319 20.3997C13.1919 19.6263 14.5413 18.8423 15.8959 18.069C16.0453 17.9837 16.1093 17.893 16.1039 17.717C16.0933 17.0237 16.0986 16.3303 16.0986 15.5943ZM12.0933 25.5837C12.0933 27.1143 12.0933 28.6397 12.0879 30.1703C12.0879 30.325 12.1199 30.4263 12.2693 30.5117C14.9253 32.037 17.5759 33.5677 20.2319 35.1037C20.3653 35.1783 20.4559 35.1837 20.5893 35.1037C23.2399 33.5677 25.8959 32.037 28.5466 30.5117C28.6799 30.437 28.7279 30.3517 28.7279 30.197C28.7226 27.1303 28.7226 24.0637 28.7279 20.997C28.7279 20.8423 28.6799 20.757 28.5466 20.6823C25.9066 19.1623 23.2666 17.6423 20.6319 16.117C20.4666 16.021 20.3493 16.021 20.1786 16.117C17.5546 17.6423 14.9199 19.157 12.2906 20.6717C12.1413 20.757 12.0826 20.853 12.0826 21.0237C12.0986 22.549 12.0933 24.0637 12.0933 25.5837ZM13.9759 5.68501C13.9759 8.23967 13.9759 10.7677 13.9759 13.2957C15.4213 13.2957 16.8453 13.2957 18.2693 13.2957C18.2693 10.7463 18.2693 8.22367 18.2693 5.68501C16.8293 5.68501 15.4106 5.68501 13.9759 5.68501ZM22.7173 5.68501C22.7173 8.23967 22.7173 10.7677 22.7173 13.2957C24.1626 13.2957 25.5866 13.2957 27.0106 13.2957C27.0106 10.7463 27.0106 8.22367 27.0106 5.68501C25.5706 5.68501 24.1519 5.68501 22.7173 5.68501ZM22.3226 5.69034C21.0853 5.69034 19.8746 5.69034 18.6586 5.69034C18.6586 8.23434 18.6586 10.757 18.6586 13.2957C19.8853 13.2957 21.0959 13.2957 22.3226 13.2957C22.3226 10.757 22.3226 8.23434 22.3226 5.69034ZM27.7573 13.7117C22.8986 13.7117 18.0613 13.7117 13.2239 13.7117C13.2239 14.2343 13.2239 14.7357 13.2239 15.253C18.0719 15.253 22.9093 15.253 27.7573 15.253C27.7573 14.7357 27.7573 14.229 27.7573 13.7117ZM16.4666 17.7383C16.9253 17.4717 17.3466 17.2317 17.7679 16.9917C17.8266 16.9597 17.8586 16.9117 17.8586 16.8423C17.8586 16.437 17.8586 16.0317 17.8586 15.621C17.3733 15.621 16.9199 15.621 16.4666 15.621C16.4666 16.325 16.4666 17.0023 16.4666 17.7383ZM24.4133 15.6103C23.9759 15.6103 23.5653 15.6103 23.1226 15.6103C23.1226 16.0583 23.1226 16.4903 23.1226 16.9223C23.1226 17.0343 23.2026 17.0717 23.2773 17.1143C23.5173 17.253 23.7519 17.3917 23.9919 17.525C24.1253 17.5997 24.2479 17.7063 24.4133 17.7277C24.4133 17.0237 24.4133 16.3303 24.4133 15.6103ZM20.7706 15.6103C20.7653 15.6263 20.7653 15.6423 20.7599 15.6583C21.4213 16.037 22.0773 16.421 22.7439 16.805C22.7439 16.3783 22.7439 15.9943 22.7439 15.6103C22.0719 15.6103 21.4213 15.6103 20.7706 15.6103ZM18.2373 15.6103C18.2373 15.989 18.2373 16.341 18.2373 16.7197C18.8666 16.3517 19.4693 16.005 20.0719 15.653C20.0666 15.637 20.0559 15.6263 20.0506 15.6103C19.4479 15.6103 18.8506 15.6103 18.2373 15.6103Z" fill="url(#paint8_linear)"/>
<path d="M23.6346 22.4106L20.2639 30.1653H18.4346L21.8106 22.8426H17.4746V21.4453H23.6293V22.4106H23.6346Z" fill="#D15400"/>
<defs>
<linearGradient id="paint0_linear" x1="13.8268" y1="32.2045" x2="27.0168" y2="19.0145" gradientUnits="userSpaceOnUse">
<stop stop-color="#DB8200"/>
<stop offset="0.064678" stop-color="#DC8505"/>
<stop offset="0.1429" stop-color="#DF8D14"/>
<stop offset="0.2282" stop-color="#E49B2C"/>
<stop offset="0.3184" stop-color="#ECAE4F"/>
<stop offset="0.4115" stop-color="#F5C67A"/>
<stop offset="0.4979" stop-color="#FFE0A9"/>
<stop offset="0.5836" stop-color="#F5C67B"/>
<stop offset="0.6782" stop-color="#ECAE4F"/>
<stop offset="0.7698" stop-color="#E59B2D"/>
<stop offset="0.8561" stop-color="#DF8D14"/>
<stop offset="0.9351" stop-color="#DC8505"/>
<stop offset="1" stop-color="#DB8200"/>
</linearGradient>
<linearGradient id="paint1_linear" x1="16.1211" y1="13.2913" x2="16.1211" y2="5.68308" gradientUnits="userSpaceOnUse">
<stop stop-color="#1DBDFF"/>
<stop offset="0.1394" stop-color="#1DCCFF"/>
<stop offset="0.3385" stop-color="#1DDAFF"/>
<stop offset="0.5828" stop-color="#1DE3FF"/>
<stop offset="1" stop-color="#1DE5FF"/>
</linearGradient>
<linearGradient id="paint2_linear" x1="24.866" y1="13.2915" x2="24.866" y2="5.68276" gradientUnits="userSpaceOnUse">
<stop stop-color="#1DBDFF"/>
<stop offset="0.1394" stop-color="#1DCCFF"/>
<stop offset="0.3385" stop-color="#1DDAFF"/>
<stop offset="0.5828" stop-color="#1DE3FF"/>
<stop offset="1" stop-color="#1DE5FF"/>
</linearGradient>
<linearGradient id="paint3_linear" x1="13.1731" y1="14.4799" x2="27.8131" y2="14.4799" gradientUnits="userSpaceOnUse">
<stop stop-color="#E8B010"/>
<stop offset="0.4979" stop-color="#FFF188"/>
<stop offset="0.7548" stop-color="#F3CF49"/>
<stop offset="1" stop-color="#E8B010"/>
</linearGradient>
<linearGradient id="paint4_linear" x1="17.1767" y1="17.7993" x2="17.1767" y2="15.5543" gradientUnits="userSpaceOnUse">
<stop stop-color="#E8B010"/>
<stop offset="0.157" stop-color="#F0C639"/>
<stop offset="0.3926" stop-color="#FBE572"/>
<stop offset="0.5063" stop-color="#FFF188"/>
<stop offset="0.7474" stop-color="#F4D24F"/>
<stop offset="1" stop-color="#E8B010"/>
</linearGradient>
<linearGradient id="paint5_linear" x1="23.7622" y1="17.7934" x2="23.7622" y2="15.5463" gradientUnits="userSpaceOnUse">
<stop stop-color="#E8B010"/>
<stop offset="0.157" stop-color="#F0C639"/>
<stop offset="0.3926" stop-color="#FBE572"/>
<stop offset="0.5063" stop-color="#FFF188"/>
<stop offset="0.7474" stop-color="#F4D24F"/>
<stop offset="1" stop-color="#E8B010"/>
</linearGradient>
<linearGradient id="paint6_linear" x1="14.877" y1="31.1557" x2="25.9898" y2="20.0429" gradientUnits="userSpaceOnUse">
<stop stop-color="#E8B010"/>
<stop offset="0.4979" stop-color="#FEFDD4"/>
<stop offset="1" stop-color="#E8B010"/>
</linearGradient>
<linearGradient id="paint7_linear" x1="13.5776" y1="20.7957" x2="27.3023" y2="30.4058" gradientUnits="userSpaceOnUse">
<stop stop-color="#E16D40"/>
<stop offset="0.1025" stop-color="#E27042"/>
<stop offset="0.192" stop-color="#E57B48"/>
<stop offset="0.2765" stop-color="#E98D52"/>
<stop offset="0.3581" stop-color="#EFA660"/>
<stop offset="0.4368" stop-color="#F7C672"/>
<stop offset="0.4979" stop-color="#FFE583"/>
<stop offset="0.5007" stop-color="#FFE382"/>
<stop offset="0.5687" stop-color="#F6BF6E"/>
<stop offset="0.6396" stop-color="#EEA15D"/>
<stop offset="0.7148" stop-color="#E88A50"/>
<stop offset="0.7953" stop-color="#E47A47"/>
<stop offset="0.8845" stop-color="#E27042"/>
<stop offset="1" stop-color="#E16D40"/>
</linearGradient>
<linearGradient id="paint8_linear" x1="20.4142" y1="5.3326" x2="20.4142" y2="35.6942" gradientUnits="userSpaceOnUse">
<stop stop-color="#0073BF"/>
<stop offset="0.0756843" stop-color="#0272BC"/>
<stop offset="0.1241" stop-color="#0A71B4"/>
<stop offset="0.1649" stop-color="#176EA5"/>
<stop offset="0.2014" stop-color="#296A90"/>
<stop offset="0.2351" stop-color="#416575"/>
<stop offset="0.2667" stop-color="#5E5E54"/>
<stop offset="0.2961" stop-color="#80572D"/>
<stop offset="0.3125" stop-color="#965214"/>
</linearGradient>
</defs>
</svg>
