<svg width="40" height="40" viewBox="0 0 40 40" fill="none" xmlns="http://www.w3.org/2000/svg">
<path d="M20.0131 33.7433C15.0868 33.7536 11.052 29.7395 11.0469 24.7926C11.0469 19.7839 15.0456 15.8625 19.9203 15.811C24.8775 15.7646 28.9689 19.7118 28.9741 24.7668C28.9792 29.7343 25.0063 33.7072 20.0131 33.7433ZM27.4282 24.8235C27.4333 20.6084 24.187 17.4187 19.9667 17.4238C15.7722 17.429 12.6185 20.6444 12.6082 24.8441C12.5979 29.0696 15.8958 32.218 20.1367 32.2335C24.3364 32.249 27.4179 29.0386 27.4282 24.8235Z" fill="url(#paint0_linear)"/>
<path d="M27.0725 13.8262C27.0725 14.3878 27.0725 14.9341 27.0725 15.4906C22.3163 15.4906 17.5653 15.4906 12.8091 15.4906C12.8091 14.9341 12.8091 14.3878 12.8091 13.8262C17.555 13.8262 22.3009 13.8262 27.0725 13.8262Z" fill="url(#paint1_linear)"/>
<path d="M27.4279 24.8227C27.4382 28.8884 24.1197 32.2379 20.0231 32.2327C15.9213 32.2276 12.6182 28.9812 12.6079 24.8434C12.5976 20.6849 15.9213 17.4488 19.9664 17.4231C24.0836 17.3921 27.4124 20.7107 27.4279 24.8227Z" fill="url(#paint2_linear)"/>
<path d="M27.6756 24.8329C27.6653 29.0481 24.2128 32.5006 20.0131 32.4851C15.767 32.4696 12.3403 29.0326 12.3506 24.8072C12.3609 20.6075 15.8031 17.1602 19.9976 17.1602C24.2179 17.155 27.6807 20.6127 27.6756 24.8329ZM27.3767 24.8226C27.3664 20.7106 24.0839 17.4436 19.9667 17.4745C15.9216 17.5003 12.6495 20.6899 12.6598 24.8432C12.6701 28.9862 15.9268 32.1811 20.0234 32.1811C24.12 32.1862 27.387 28.8883 27.3767 24.8226Z" fill="url(#paint3_linear)"/>
<path d="M15.4321 6.13363C15.3805 6.0821 15.2981 6.07695 15.2156 6.07695C14.7776 6.08726 14.3087 6.09241 13.8552 6.07695C13.747 6.0718 13.6749 6.09241 13.6285 6.13363C13.5718 6.18516 13.5615 6.26761 13.5615 6.37582C13.5667 7.24152 13.5667 8.12268 13.5667 8.97808C13.5667 9.26149 13.5667 9.5449 13.5667 9.82832C13.5667 10.1117 13.5667 10.3951 13.5667 10.6786C13.5667 11.5288 13.5667 12.41 13.5615 13.2808C13.5615 13.3684 13.5667 13.456 13.6234 13.5127C13.6646 13.5539 13.7264 13.5694 13.814 13.5694C13.8192 13.5694 13.8295 13.5694 13.8346 13.5694C14.252 13.5591 14.7003 13.5591 15.195 13.5694C15.2723 13.5694 15.3599 13.5642 15.4166 13.5127C15.463 13.4715 15.4836 13.3993 15.4784 13.2911C15.4733 10.8486 15.4733 8.57099 15.4784 6.3346C15.4887 6.23669 15.4733 6.17486 15.4321 6.13363Z" fill="url(#paint4_linear)"/>
<path d="M26.3102 6.3545C26.3102 6.24629 26.2948 6.1793 26.2484 6.13293C26.1917 6.07624 26.1041 6.07109 26.0217 6.07109C25.5888 6.0814 25.1972 6.0814 24.8159 6.07109C24.7128 6.06594 24.6458 6.08655 24.5994 6.12777C24.5428 6.18446 24.5376 6.2669 24.5376 6.3545C24.5428 7.22021 24.5428 8.10136 24.5428 8.95676C24.5428 9.24017 24.5428 9.52359 24.5428 9.807C24.5428 10.0904 24.5428 10.3738 24.5428 10.6572C24.5428 11.5178 24.5428 12.4093 24.5376 13.2801C24.5376 13.3574 24.5428 13.4502 24.5994 13.5017C24.6407 13.5429 24.6973 13.5584 24.7901 13.5584C24.8004 13.5584 24.8056 13.5584 24.8159 13.5584C25.0838 13.5481 25.3569 13.5532 25.6249 13.5532C25.7434 13.5532 25.8568 13.5532 25.9753 13.5532C26.2793 13.5532 26.3051 13.5275 26.3051 13.2234V8.22504C26.3051 8.04983 26.3051 7.87979 26.3051 7.70459C26.3051 7.26658 26.2999 6.80797 26.3102 6.3545Z" fill="url(#paint5_linear)"/>
<path d="M19.9255 6.07617H19.8997C19.7967 6.07617 19.74 6.09163 19.6988 6.13285C19.6472 6.18438 19.6421 6.26683 19.6421 6.34928C19.6472 7.22014 19.6472 8.10645 19.6472 8.96185C19.6472 9.24011 19.6472 9.51837 19.6472 9.80178V10.7499C19.6472 11.559 19.6472 12.368 19.6472 13.177C19.6472 13.2234 19.6472 13.2594 19.6472 13.2955C19.6472 13.4243 19.6421 13.4913 19.6885 13.5325C19.7245 13.5686 19.7761 13.5738 19.874 13.5738C19.8894 13.5738 19.91 13.5738 19.9307 13.5738C19.9616 13.5738 20.0028 13.5738 20.044 13.5738C20.2038 13.5738 20.2862 13.5738 20.3377 13.5222C20.3893 13.4707 20.3893 13.3934 20.3893 13.2337V6.56055C20.3841 6.10194 20.3635 6.08132 19.9255 6.07617Z" fill="url(#paint6_linear)"/>
<path d="M22.5587 15.7641C25.3361 16.6555 27.3767 18.3715 28.5567 21.051C29.4482 23.0761 29.5822 25.1683 28.9844 27.2861C27.7889 31.5167 23.9654 34.1963 19.7915 34.1035C15.1177 33.9953 11.6034 30.5995 10.815 26.5544C9.939 22.0507 12.4949 17.2533 17.416 15.7589C17.3387 15.7074 17.2614 15.7229 17.1944 15.7229C15.7413 15.7229 14.2933 15.7229 12.8401 15.7229C12.6082 15.7229 12.5876 15.7074 12.5876 15.4807C12.5876 14.9138 12.5928 14.347 12.5825 13.7802C12.5773 13.5947 12.6546 13.5431 12.8247 13.5483C13.2627 13.5586 13.2627 13.5535 13.2627 13.1C13.2627 10.7451 13.2627 8.39532 13.2575 6.04042C13.2575 5.78277 13.273 5.77246 13.5358 5.77246C17.7973 5.77246 22.0537 5.77246 26.3152 5.77246C26.5934 5.77246 26.6037 5.78277 26.6037 6.05587C26.6037 8.47777 26.6037 10.8997 26.5986 13.3216C26.5986 13.5225 26.6656 13.5638 26.8459 13.5586C27.3149 13.538 27.2839 13.4968 27.2788 13.9966C27.2736 14.4861 27.2788 14.9757 27.2788 15.4652C27.2788 15.7074 27.2633 15.7177 27.016 15.7177C25.5989 15.7177 24.1818 15.7177 22.7648 15.7177C22.7029 15.7229 22.6308 15.7022 22.5587 15.7641ZM28.8762 24.7612C28.8401 19.7525 24.8157 15.8362 19.8997 15.8826C15.0714 15.929 11.0984 19.8143 11.1087 24.7818C11.119 29.7183 15.0714 33.6449 19.9873 33.6449C24.9342 33.6449 28.8453 29.6874 28.8762 24.7612ZM19.3483 9.833C19.3483 8.66843 19.3432 7.49871 19.3535 6.33414C19.3535 6.17439 19.3123 6.12802 19.1525 6.13317C18.0962 6.13832 17.0398 6.13832 15.9886 6.13317C15.8186 6.13317 15.7773 6.17955 15.7773 6.34959C15.7825 8.65813 15.7825 10.9667 15.7825 13.2752C15.7825 13.5174 15.7825 13.5174 16.0401 13.5174C17.0501 13.5174 18.0653 13.5174 19.0752 13.5174C19.3432 13.5174 19.3483 13.5174 19.3483 13.234C19.3483 12.0952 19.3483 10.9667 19.3483 9.833ZM24.2437 9.79693C24.2437 8.64782 24.2385 7.49871 24.2488 6.34959C24.2488 6.1847 24.2128 6.12802 24.0376 6.13317C22.9812 6.14348 21.9248 6.13832 20.8736 6.13317C20.7139 6.13317 20.6727 6.17439 20.6727 6.33414C20.6778 8.65813 20.6778 10.9821 20.6727 13.3113C20.6727 13.4865 20.7293 13.5225 20.8942 13.5225C21.93 13.5174 22.9709 13.5122 24.0066 13.5225C24.2076 13.5225 24.2488 13.4607 24.2437 13.2752C24.2385 12.1106 24.2437 10.9564 24.2437 9.79693ZM19.9358 15.3982C19.9358 15.3931 19.9358 15.3931 19.9358 15.3879C19.9615 15.3879 19.9873 15.3879 20.0131 15.3879C22.2443 15.3931 24.4756 15.3931 26.7068 15.3982C27.0005 15.3982 26.9593 15.4085 26.9593 15.156C26.9593 14.8108 26.9593 14.4707 26.9593 14.1254C26.9593 13.8781 26.9593 13.8781 26.712 13.8781C25.4495 13.8832 24.187 13.8884 22.9245 13.8832C19.6627 13.8832 16.4008 13.8781 13.139 13.8729C12.9586 13.8729 12.8814 13.8987 12.8917 14.1048C12.9123 14.4552 12.9123 14.8108 12.8917 15.1612C12.8814 15.357 12.9329 15.4034 13.1287 15.4034C15.4063 15.3982 17.6736 15.3982 19.9358 15.3982ZM13.6182 9.82785C13.6182 10.977 13.6234 12.1312 13.6131 13.2803C13.6131 13.4504 13.6491 13.5225 13.8398 13.5174C14.2933 13.5019 14.7519 13.5071 15.2053 13.5174C15.3805 13.5225 15.4424 13.4762 15.4372 13.2907C15.4321 10.9718 15.4321 8.65297 15.4372 6.33414C15.4372 6.14863 15.3702 6.12802 15.2157 6.12802C14.7622 6.13832 14.3036 6.14347 13.8501 6.12802C13.6491 6.12286 13.6131 6.195 13.6131 6.38051C13.6234 7.52963 13.6182 8.67874 13.6182 9.82785ZM24.5941 9.80724C24.5941 10.9667 24.5992 12.1261 24.5889 13.2855C24.5889 13.4659 24.6405 13.5225 24.8208 13.5174C25.2073 13.5019 25.5938 13.5122 25.9802 13.5122C26.2533 13.5122 26.2585 13.5122 26.2585 13.234C26.2585 11.5696 26.2585 9.89999 26.2585 8.23558C26.2585 7.60692 26.2533 6.98341 26.2636 6.35475C26.2688 6.16924 26.207 6.12286 26.0318 6.12802C25.6298 6.13832 25.2227 6.14347 24.8208 6.12802C24.6353 6.12286 24.5941 6.17955 24.5941 6.3599C24.5992 7.50901 24.5941 8.65813 24.5941 9.80724ZM19.6936 9.79693C19.6936 10.9203 19.6936 12.0488 19.6936 13.1721C19.6936 13.5638 19.6421 13.5122 20.0337 13.5174C20.3274 13.5174 20.3274 13.5174 20.3274 13.2288C20.3274 11.0027 20.3274 8.7818 20.3274 6.55571C20.3274 6.11771 20.3274 6.12802 19.8997 6.12286C19.7245 6.12286 19.6884 6.17439 19.6884 6.34444C19.6987 7.49355 19.6936 8.64782 19.6936 9.79693Z" fill="url(#paint7_linear)"/>
<path d="M19.3484 9.83292C19.3484 10.9666 19.3484 12.1002 19.3484 13.2287C19.3484 13.5121 19.3484 13.5121 19.0753 13.5121C18.0653 13.5121 17.0501 13.5121 16.0401 13.5121C15.7825 13.5121 15.7825 13.5121 15.7825 13.27C15.7825 10.9614 15.7825 8.65289 15.7773 6.34435C15.7773 6.17431 15.8186 6.12793 15.9886 6.12793C17.045 6.13308 18.1013 6.13308 19.1525 6.12793C19.3123 6.12793 19.3535 6.17431 19.3535 6.3289C19.3432 7.49862 19.3484 8.6632 19.3484 9.83292Z" fill="white"/>
<path d="M24.2436 9.79685C24.2436 10.9563 24.2384 12.1157 24.2487 13.27C24.2487 13.4555 24.2075 13.5173 24.0117 13.5173C22.976 13.507 21.9351 13.507 20.8993 13.5173C20.7344 13.5173 20.6777 13.4812 20.6777 13.306C20.6829 10.982 20.6829 8.65804 20.6777 6.3289C20.6777 6.16915 20.719 6.12793 20.8787 6.12793C21.9351 6.13308 22.9914 6.13308 24.0426 6.12793C24.2178 6.12793 24.2539 6.17946 24.2539 6.34435C24.2384 7.49862 24.2436 8.64774 24.2436 9.79685Z" fill="white"/>
<path d="M23.0222 28.9252H17.2457V27.7812L19.9717 24.875C20.3478 24.4679 20.6209 24.1072 20.8013 23.8031C20.9816 23.4991 21.0692 23.2106 21.0692 22.9374C21.0692 22.5613 20.9765 22.2676 20.7858 22.0563C20.5952 21.8399 20.3272 21.7368 19.9768 21.7368C19.6006 21.7368 19.3018 21.8656 19.0802 22.1284C18.8638 22.3912 18.7556 22.7313 18.7556 23.1539H17.0757C17.0757 22.6386 17.1994 22.1696 17.4415 21.7471C17.6889 21.3246 18.0341 20.9896 18.4824 20.7474C18.9308 20.5052 19.4357 20.3867 20.0026 20.3867C20.8683 20.3867 21.5433 20.5928 22.0277 21.0102C22.5069 21.4276 22.7491 22.0151 22.7491 22.7777C22.7491 23.1951 22.6409 23.6176 22.4245 24.0505C22.208 24.4833 21.837 24.9883 21.3114 25.5603L19.3945 27.5803H23.0171V28.9252H23.0222Z" fill="#441E05"/>
<defs>
<linearGradient id="paint0_linear" x1="13.672" y1="31.1143" x2="26.3569" y2="18.4295" gradientUnits="userSpaceOnUse">
<stop stop-color="#994C2E"/>
<stop offset="0.4875" stop-color="#FFAE73"/>
<stop offset="1" stop-color="#994C2E"/>
</linearGradient>
<linearGradient id="paint1_linear" x1="12.8079" y1="14.6583" x2="27.0725" y2="14.6583" gradientUnits="userSpaceOnUse">
<stop stop-color="#5E242E"/>
<stop offset="0.0430709" stop-color="#6D2E2E"/>
<stop offset="0.1201" stop-color="#803B2E"/>
<stop offset="0.2087" stop-color="#8E452E"/>
<stop offset="0.3178" stop-color="#974A2E"/>
<stop offset="0.5083" stop-color="#994C2E"/>
<stop offset="0.7312" stop-color="#974B2E"/>
<stop offset="0.8262" stop-color="#90462E"/>
<stop offset="0.8969" stop-color="#833D2E"/>
<stop offset="0.9551" stop-color="#72312E"/>
<stop offset="1" stop-color="#5E242E"/>
</linearGradient>
<linearGradient id="paint2_linear" x1="14.7602" y1="30.071" x2="25.2484" y2="19.5828" gradientUnits="userSpaceOnUse">
<stop stop-color="#D68E5C"/>
<stop offset="0.4875" stop-color="#FFEFC4"/>
<stop offset="1" stop-color="#D68E5C"/>
</linearGradient>
<linearGradient id="paint3_linear" x1="14.5996" y1="19.4146" x2="25.423" y2="30.238" gradientUnits="userSpaceOnUse">
<stop offset="0.0833333" stop-color="#FFBD00"/>
<stop offset="0.1194" stop-color="#FFC20B"/>
<stop offset="0.3906" stop-color="#FFE25D"/>
<stop offset="0.5146" stop-color="#FFEF7D"/>
<stop offset="0.5736" stop-color="#FFEB73"/>
<stop offset="0.673" stop-color="#FFE159"/>
<stop offset="0.7996" stop-color="#FFD02F"/>
<stop offset="0.9208" stop-color="#FFBD00"/>
</linearGradient>
<linearGradient id="paint4_linear" x1="14.5255" y1="6.07538" x2="14.5255" y2="13.5699" gradientUnits="userSpaceOnUse">
<stop stop-color="#1B5170"/>
<stop offset="1" stop-color="#1B2B70"/>
</linearGradient>
<linearGradient id="paint5_linear" x1="25.4241" y1="6.07535" x2="25.4241" y2="13.569" gradientUnits="userSpaceOnUse">
<stop stop-color="#1B5170"/>
<stop offset="1" stop-color="#1B2B70"/>
</linearGradient>
<linearGradient id="paint6_linear" x1="20.0111" y1="6.07347" x2="20.0111" y2="13.5666" gradientUnits="userSpaceOnUse">
<stop stop-color="#1B5170"/>
<stop offset="1" stop-color="#1B2B70"/>
</linearGradient>
<linearGradient id="paint7_linear" x1="19.9955" y1="5.77898" x2="19.9955" y2="34.1068" gradientUnits="userSpaceOnUse">
<stop stop-color="#1B2E72"/>
<stop offset="0.1326" stop-color="#1C2E70"/>
<stop offset="0.1804" stop-color="#1E2D69"/>
<stop offset="0.2144" stop-color="#232B5E"/>
<stop offset="0.2419" stop-color="#29294D"/>
<stop offset="0.2655" stop-color="#312537"/>
<stop offset="0.286" stop-color="#3B211C"/>
<stop offset="0.3" stop-color="#441E05"/>
</linearGradient>
</defs>
</svg>
