<svg width="40" height="40" viewBox="0 0 40 40" fill="none" xmlns="http://www.w3.org/2000/svg">
<path d="M20.552 34.2342C15.4533 34.2449 11.2773 30.0902 11.272 24.9702C11.272 19.7862 15.4106 15.7276 20.456 15.6742C25.5866 15.6262 29.8213 19.7116 29.8266 24.9436C29.832 30.0849 25.7253 34.1969 20.552 34.2342ZM28.2266 25.0022C28.232 20.6396 24.872 17.3382 20.504 17.3436C16.1626 17.3489 12.8986 20.6769 12.888 25.0236C12.8773 29.3969 16.2906 32.6556 20.68 32.6716C25.0266 32.6876 28.2213 29.3649 28.2266 25.0022Z" fill="url(#paint0_linear)"/>
<path d="M27.8589 13.6211C27.8589 14.2024 27.8589 14.7678 27.8589 15.3438C22.9362 15.3438 18.0189 15.3438 13.0962 15.3438C13.0962 14.7678 13.0962 14.2024 13.0962 13.6211C18.0082 13.6211 22.9255 13.6211 27.8589 13.6211Z" fill="url(#paint1_linear)"/>
<path d="M28.2269 25.0026C28.2375 29.2106 24.8029 32.6773 20.5629 32.672C16.3175 32.6666 12.8989 29.3066 12.8882 25.024C12.8775 20.72 16.3175 17.3706 20.5042 17.344C24.7655 17.312 28.2162 20.7466 28.2269 25.0026Z" fill="url(#paint2_linear)"/>
<path d="M28.4829 25.0126C28.4776 29.3753 24.8989 32.954 20.5523 32.9326C16.1576 32.9166 12.6109 29.3593 12.6216 24.986C12.6323 20.6393 16.1949 17.0713 20.5363 17.0713C24.9096 17.066 28.4883 20.6446 28.4829 25.0126ZM28.1736 25.002C28.1629 20.746 24.7656 17.3646 20.5043 17.3966C16.3176 17.4233 12.9309 20.7246 12.9416 25.0233C12.9523 29.3113 16.3229 32.618 20.5629 32.618C24.8029 32.6233 28.1843 29.21 28.1736 25.002Z" fill="url(#paint3_linear)"/>
<path d="M22.3818 13.3006C21.1552 13.3006 19.9498 13.3006 18.7231 13.3006C18.7231 10.7673 18.7231 8.23931 18.7231 5.69531C19.9285 5.69531 21.1498 5.69531 22.3818 5.69531C22.3818 8.22331 22.3818 10.746 22.3818 13.3006Z" fill="white"/>
<path d="M15.7574 5.64258H13.9121V13.3439H15.7574V5.64258Z" fill="url(#paint4_linear)"/>
<path d="M27.0639 5.63184H25.3306V13.3492H27.0639V5.63184Z" fill="url(#paint5_linear)"/>
<path d="M23.9706 5.63184H22.7173V13.3545H23.9706V5.63184Z" fill="url(#paint6_linear)"/>
<path d="M18.3812 5.63184H17.1172V13.3492H18.3812V5.63184Z" fill="url(#paint7_linear)"/>
<path d="M16.776 13.3171C16.5893 13.3171 16.424 13.3171 16.2586 13.3171C16.2053 13.3171 16.152 13.3331 16.0986 13.2798C16.0986 10.7624 16.0986 8.23443 16.0986 5.69043C16.328 5.69043 16.5466 5.69043 16.7813 5.69043C16.776 8.21843 16.776 10.7464 16.776 13.3171Z" fill="white"/>
<path d="M24.3227 13.2848C24.2907 13.0341 24.2907 5.93545 24.328 5.68478C24.5414 5.65278 24.76 5.66345 24.9947 5.67945C24.9947 8.21812 24.9947 10.7408 24.9947 13.2688C24.7973 13.3275 24.5894 13.3328 24.3227 13.2848Z" fill="white"/>
<path d="M17.8641 15.5996C17.7841 15.5996 17.7095 15.5996 17.6295 15.5996C16.1361 15.5996 14.6428 15.5996 13.1495 15.6049C12.9521 15.6049 12.8881 15.5463 12.8881 15.3489C12.8988 14.7729 12.8988 14.1916 12.8881 13.6156C12.8828 13.4236 12.9415 13.3329 13.1441 13.3543C13.2828 13.3649 13.4215 13.3543 13.5921 13.3543C13.5921 10.6716 13.5921 8.01027 13.5921 5.32227C18.2001 5.32227 22.7815 5.32227 27.3895 5.32227C27.3895 7.9996 27.3895 10.6609 27.3895 13.3329C27.5761 13.3703 27.7308 13.3543 27.8908 13.3489C28.0348 13.3436 28.1041 13.4023 28.1041 13.5516C28.1041 14.1649 28.0988 14.7783 28.1041 15.3916C28.1041 15.5783 28.0081 15.6049 27.8481 15.6049C26.3975 15.5996 24.9521 15.5996 23.5015 15.5996C23.4108 15.5996 23.3148 15.5836 23.1815 15.6369C26.0028 16.5383 28.0828 18.2556 29.3255 20.9223C30.2908 22.9969 30.4775 25.1623 29.9068 27.3649C28.7868 31.7009 24.9255 34.6663 20.4668 34.6236C15.6401 34.5756 11.9228 31.1409 11.0588 26.8583C10.1201 22.1809 12.8028 17.1409 17.8641 15.5996ZM29.7468 24.9756C29.7201 19.8396 25.6455 15.8076 20.6375 15.7703C15.4908 15.7329 11.3575 19.8449 11.3468 24.9596C11.3361 30.0103 15.4481 34.1489 20.5255 34.1543C25.6241 34.1543 29.7041 30.1009 29.7468 24.9756ZM22.3815 13.3009C22.3815 10.7463 22.3815 8.21827 22.3815 5.6956C21.1495 5.6956 19.9281 5.6956 18.7228 5.6956C18.7228 8.24493 18.7228 10.7676 18.7228 13.3009C19.9441 13.3009 21.1495 13.3009 22.3815 13.3009ZM27.7575 13.7116C22.8988 13.7116 18.0615 13.7116 13.2348 13.7116C13.2348 14.2396 13.2348 14.7463 13.2348 15.2529C18.0881 15.2529 22.9148 15.2529 27.7575 15.2529C27.7575 14.7356 27.7575 14.2343 27.7575 13.7116ZM13.9655 13.2903C14.5735 13.2903 15.1441 13.2903 15.7041 13.2903C15.7041 10.7409 15.7041 8.21293 15.7041 5.6956C15.1068 5.6956 14.5361 5.6956 13.9655 5.6956C13.9655 8.2396 13.9655 10.7623 13.9655 13.2903ZM25.3841 5.68493C25.3841 8.2396 25.3841 10.7676 25.3841 13.2956C25.9388 13.2956 26.4775 13.2956 27.0108 13.2956C27.0108 10.7516 27.0108 8.2236 27.0108 5.68493C26.4668 5.68493 25.9335 5.68493 25.3841 5.68493ZM22.7708 5.68493C22.7708 8.2396 22.7708 10.7676 22.7708 13.3009C23.1655 13.3009 23.5441 13.3009 23.9175 13.3009C23.9175 10.7516 23.9175 8.21827 23.9175 5.68493C23.5228 5.68493 23.1548 5.68493 22.7708 5.68493ZM17.1708 5.68493C17.1708 8.2396 17.1708 10.7623 17.1708 13.2956C17.5655 13.2956 17.9441 13.2956 18.3281 13.2956C18.3281 10.7516 18.3281 8.2236 18.3281 5.68493C17.9441 5.68493 17.5655 5.68493 17.1708 5.68493ZM16.7761 13.3169C16.7761 10.7516 16.7761 8.2236 16.7761 5.69027C16.5415 5.69027 16.3228 5.69027 16.0935 5.69027C16.0935 8.23427 16.0935 10.7623 16.0935 13.2796C16.1468 13.3329 16.2055 13.3169 16.2535 13.3169C16.4241 13.3169 16.5895 13.3169 16.7761 13.3169ZM24.3228 13.2849C24.5948 13.3276 24.7975 13.3223 24.9948 13.2689C24.9948 10.7409 24.9948 8.21827 24.9948 5.6796C24.7601 5.6636 24.5415 5.65293 24.3281 5.68493C24.2908 5.9356 24.2908 13.0343 24.3228 13.2849Z" fill="url(#paint8_linear)"/>
<path d="M19.5758 24.2232H20.4985C20.9358 24.2232 21.2612 24.1112 21.4745 23.8925C21.6878 23.6739 21.7945 23.3805 21.7945 23.0179C21.7945 22.6659 21.6878 22.3939 21.4798 22.1965C21.2718 21.9992 20.9838 21.9032 20.6158 21.9032C20.2852 21.9032 20.0078 21.9939 19.7838 22.1752C19.5598 22.3565 19.4478 22.5912 19.4478 22.8845H17.7145C17.7145 22.4312 17.8372 22.0205 18.0825 21.6579C18.3278 21.2952 18.6692 21.0125 19.1118 20.8099C19.5545 20.6072 20.0398 20.5059 20.5678 20.5059C21.4905 20.5059 22.2105 20.7245 22.7385 21.1672C23.2612 21.6099 23.5225 22.2179 23.5225 22.9912C23.5225 23.3912 23.3998 23.7592 23.1545 24.0952C22.9092 24.4312 22.5892 24.6872 22.1945 24.8685C22.6852 25.0445 23.0532 25.3059 23.2932 25.6579C23.5332 26.0099 23.6558 26.4259 23.6558 26.9059C23.6558 27.6792 23.3732 28.3032 22.8078 28.7672C22.2425 29.2366 21.4958 29.4659 20.5625 29.4659C19.6932 29.4659 18.9785 29.2366 18.4292 28.7779C17.8745 28.3192 17.5972 27.7112 17.5972 26.9592H19.3305C19.3305 27.2845 19.4532 27.5565 19.6985 27.7592C19.9438 27.9672 20.2478 28.0685 20.6052 28.0685C21.0158 28.0685 21.3412 27.9619 21.5705 27.7432C21.8052 27.5245 21.9225 27.2365 21.9225 26.8792C21.9225 26.0099 21.4425 25.5725 20.4825 25.5725H19.5652V24.2232H19.5758Z" fill="#441E05"/>
<defs>
<linearGradient id="paint0_linear" x1="13.989" y1="31.5132" x2="27.1186" y2="18.3836" gradientUnits="userSpaceOnUse">
<stop stop-color="#994C2E"/>
<stop offset="0.4875" stop-color="#FFAE73"/>
<stop offset="1" stop-color="#994C2E"/>
</linearGradient>
<linearGradient id="paint1_linear" x1="13.0962" y1="14.4824" x2="27.8589" y2="14.4824" gradientUnits="userSpaceOnUse">
<stop stop-color="#5E242E"/>
<stop offset="0.0430709" stop-color="#6D2E2E"/>
<stop offset="0.1201" stop-color="#803B2E"/>
<stop offset="0.2087" stop-color="#8E452E"/>
<stop offset="0.3178" stop-color="#974A2E"/>
<stop offset="0.5083" stop-color="#994C2E"/>
<stop offset="0.7312" stop-color="#974B2E"/>
<stop offset="0.8262" stop-color="#90462E"/>
<stop offset="0.8969" stop-color="#833D2E"/>
<stop offset="0.9551" stop-color="#72312E"/>
<stop offset="1" stop-color="#5E242E"/>
</linearGradient>
<linearGradient id="paint2_linear" x1="15.1198" y1="30.4343" x2="25.9742" y2="19.5799" gradientUnits="userSpaceOnUse">
<stop stop-color="#D68E5C"/>
<stop offset="0.4875" stop-color="#FFEFC4"/>
<stop offset="1" stop-color="#D68E5C"/>
</linearGradient>
<linearGradient id="paint3_linear" x1="14.9496" y1="19.404" x2="26.154" y2="30.6083" gradientUnits="userSpaceOnUse">
<stop offset="0.0833333" stop-color="#FFBD00"/>
<stop offset="0.1194" stop-color="#FFC20B"/>
<stop offset="0.3906" stop-color="#FFE25D"/>
<stop offset="0.5146" stop-color="#FFEF7D"/>
<stop offset="0.5736" stop-color="#FFEB73"/>
<stop offset="0.673" stop-color="#FFE159"/>
<stop offset="0.7996" stop-color="#FFD02F"/>
<stop offset="0.9208" stop-color="#FFBD00"/>
</linearGradient>
<linearGradient id="paint4_linear" x1="14.8348" y1="5.64257" x2="14.8348" y2="13.3439" gradientUnits="userSpaceOnUse">
<stop stop-color="#C80000"/>
<stop offset="0.5341" stop-color="#A00000"/>
<stop offset="0.8333" stop-color="#8E0000"/>
</linearGradient>
<linearGradient id="paint5_linear" x1="26.1972" y1="5.63184" x2="26.1972" y2="13.3492" gradientUnits="userSpaceOnUse">
<stop stop-color="#C80000"/>
<stop offset="0.5341" stop-color="#A00000"/>
<stop offset="0.8333" stop-color="#8E0000"/>
</linearGradient>
<linearGradient id="paint6_linear" x1="23.344" y1="5.63184" x2="23.344" y2="13.3545" gradientUnits="userSpaceOnUse">
<stop stop-color="#C80000"/>
<stop offset="0.5341" stop-color="#A00000"/>
<stop offset="0.8333" stop-color="#8E0000"/>
</linearGradient>
<linearGradient id="paint7_linear" x1="17.7492" y1="5.63184" x2="17.7492" y2="13.3492" gradientUnits="userSpaceOnUse">
<stop stop-color="#C80000"/>
<stop offset="0.5341" stop-color="#A00000"/>
<stop offset="0.8333" stop-color="#8E0000"/>
</linearGradient>
<linearGradient id="paint8_linear" x1="20.5509" y1="5.32227" x2="20.5509" y2="34.6241" gradientUnits="userSpaceOnUse">
<stop stop-color="#6F0000"/>
<stop offset="0.1643" stop-color="#6D0100"/>
<stop offset="0.2235" stop-color="#660601"/>
<stop offset="0.2656" stop-color="#5B0E02"/>
<stop offset="0.2995" stop-color="#4A1A04"/>
<stop offset="0.3083" stop-color="#441E05"/>
</linearGradient>
</defs>
</svg>
