<svg width="40" height="40" viewBox="0 0 40 40" fill="none" xmlns="http://www.w3.org/2000/svg">
<path d="M19.7676 13.3006C18.5409 13.3006 17.3356 13.3006 16.1089 13.3006C16.1089 10.7673 16.1089 8.23931 16.1089 5.69531C17.3142 5.69531 18.5356 5.69531 19.7676 5.69531C19.7676 8.22331 19.7676 10.746 19.7676 13.3006Z" fill="white"/>
<path d="M24.8823 5.69043C24.8823 8.23443 24.8823 10.7571 24.8823 13.3011C23.6556 13.3011 22.4449 13.3011 21.2183 13.3011C21.2183 10.7624 21.2183 8.23443 21.2183 5.69043C22.4396 5.69043 23.6503 5.69043 24.8823 5.69043Z" fill="white"/>
<path d="M13.229 15.2474C13.229 14.7247 13.229 14.218 13.229 13.7061C18.0717 13.7061 22.8983 13.7061 27.7517 13.7061C27.7517 14.2127 27.7517 14.7247 27.7517 15.2474C22.9197 15.2474 18.0823 15.2474 13.229 15.2474Z" fill="#FDFDFD"/>
<path d="M15.7623 5.6377H13.917V13.355H15.7623V5.6377Z" fill="url(#paint0_linear)"/>
<path d="M27.0636 5.63184H25.2236V13.3492H27.0636V5.63184Z" fill="url(#paint1_linear)"/>
<path d="M20.1515 5.63197L20.1035 5.6373V13.3546H20.8875V5.63197L20.7435 5.62664C20.5355 5.61597 20.3382 5.6053 20.1515 5.63197Z" fill="url(#paint2_linear)"/>
<path d="M16.4717 18.4211C16.4717 17.4611 16.4717 16.5544 16.4717 15.6211C16.925 15.6211 17.3783 15.6211 17.869 15.6211C17.869 16.2024 17.869 16.7731 17.869 17.3491C17.869 17.3811 17.8477 17.4238 17.8263 17.4398C17.3837 17.7598 16.941 18.0798 16.4717 18.4211Z" fill="#F2F2F2"/>
<path d="M24.4026 18.3352C23.9973 18.0419 23.6079 17.7646 23.2239 17.4819C23.1653 17.4392 23.1279 17.3806 23.1279 17.3059C23.1279 16.7459 23.1279 16.1912 23.1279 15.6152C23.5599 15.6152 23.9706 15.6152 24.4026 15.6152C24.4026 16.5059 24.4026 17.3966 24.4026 18.3352Z" fill="#F2F2F2"/>
<path d="M27.7891 13.5996C27.7891 14.1809 27.7891 14.7463 27.7891 15.3223C22.9144 15.3223 18.0504 15.3223 13.1758 15.3223C13.1758 14.7463 13.1758 14.1809 13.1758 13.5996C18.0398 13.5996 22.9038 13.5996 27.7891 13.5996Z" fill="url(#paint3_linear)"/>
<path d="M14.6316 34.1111C14.4449 33.5458 14.2582 32.9911 14.0769 32.4311C13.0796 29.3591 12.0876 26.2925 11.0796 23.2258C11.0156 23.0338 11.0582 22.9378 11.2076 22.8311C13.9329 20.8631 16.6476 18.8951 19.3676 16.9271C19.6769 16.7031 19.9969 16.4791 20.2956 16.2391C20.4342 16.1325 20.5249 16.1378 20.6636 16.2391C21.8262 17.0925 22.9942 17.9351 24.1622 18.7831C26.0129 20.1218 27.8582 21.4658 29.7089 22.7991C29.8796 22.9218 29.9489 23.0178 29.8742 23.2525C28.7169 26.7725 27.5702 30.2978 26.4342 33.8285C26.3649 34.0471 26.2689 34.1111 26.0449 34.1111C22.3329 34.1058 18.6209 34.1058 14.9089 34.1058C14.8289 34.1111 14.7382 34.1111 14.6316 34.1111ZM20.4609 32.9325C22.0769 32.9325 23.6449 32.9218 25.2609 32.9271C25.4316 32.9271 25.4582 32.9058 25.5169 32.7351C26.4982 29.6951 27.4476 26.7565 28.4449 23.7218C28.5249 23.4818 28.4662 23.3805 28.2796 23.2471C27.5222 22.7191 26.8076 22.1965 26.0609 21.6525C24.2209 20.3138 22.4502 19.0231 20.6156 17.6791C20.4982 17.5938 20.4502 17.6205 20.3436 17.7058C20.0182 17.9565 19.6982 18.1751 19.3622 18.4205C17.0956 20.0685 14.8876 21.6578 12.6156 23.3005C12.4662 23.4071 12.3969 23.4551 12.4929 23.6471C12.5676 23.7965 12.6156 24.0098 12.6689 24.1751C13.6076 27.0658 14.5142 29.8605 15.4476 32.7565C15.4956 32.9111 15.5382 32.9431 15.7036 32.9431C17.2982 32.9325 18.8556 32.9325 20.4609 32.9325Z" fill="url(#paint4_linear)"/>
<path d="M16.4766 18.4264C16.4766 17.4611 16.4766 16.5491 16.4766 15.6211C16.9352 15.6211 17.3832 15.6211 17.8686 15.6211C17.8686 16.0798 17.8419 16.5384 17.8792 16.9971C17.9059 17.3224 17.7886 17.5144 17.5219 17.6798C17.1699 17.8984 16.8446 18.1598 16.4766 18.4264Z" fill="url(#paint5_linear)"/>
<path d="M24.4074 18.3411C23.9968 18.0478 23.6128 17.7704 23.2288 17.4878C23.1808 17.4504 23.1381 17.3704 23.1328 17.3118C23.1274 16.7571 23.1274 16.1971 23.1274 15.6211C23.5594 15.6211 23.9701 15.6211 24.4021 15.6211C24.4074 16.5118 24.4074 17.4078 24.4074 18.3411Z" fill="url(#paint6_linear)"/>
<path d="M20.4825 17.9033C21.9385 18.9647 23.3731 20.0153 24.8078 21.066C25.7838 21.7753 26.7598 22.4847 27.7358 23.194C27.8425 23.274 27.9491 23.3593 28.0611 23.4287C28.1945 23.5087 28.1998 23.5993 28.1518 23.7433C27.3411 26.234 26.5358 28.73 25.7305 31.2207C25.5971 31.6313 25.4585 32.0367 25.3358 32.4473C25.2825 32.618 25.2131 32.6873 25.0211 32.6873C21.9865 32.682 18.9571 32.682 15.9225 32.6873C15.7358 32.6873 15.6558 32.634 15.5971 32.458C14.6638 29.53 13.7198 26.6127 12.7651 23.6953C12.7118 23.5353 12.7918 23.4873 12.8878 23.418C13.8851 22.6927 14.8825 21.9673 15.8798 21.242C17.3678 20.1593 18.8558 19.0713 20.3438 17.9887C20.3865 17.962 20.4238 17.9407 20.4825 17.9033Z" fill="url(#paint7_linear)"/>
<path d="M20.4448 32.9651C18.8555 32.9651 17.2608 32.9651 15.6715 32.9705C15.5061 32.9705 15.4421 32.9171 15.3888 32.7624C14.4608 29.8931 13.5328 27.0184 12.5995 24.1491C12.5461 23.9891 12.5035 23.8131 12.4448 23.6691C12.3808 23.4664 12.4288 23.3811 12.5728 23.2744C14.8235 21.6424 17.0741 20.0105 19.3248 18.3731C19.6555 18.1331 19.9861 17.8931 20.3115 17.6478C20.4235 17.5625 20.4981 17.5571 20.6155 17.6425C22.4341 18.9758 24.2581 20.3038 26.0821 21.6318C26.8235 22.1705 27.5648 22.7091 28.3115 23.2318C28.4981 23.3598 28.5568 23.4665 28.4768 23.7065C27.4901 26.7144 26.5141 29.7331 25.5435 32.7464C25.4901 32.9171 25.4101 32.9598 25.2395 32.9598C23.6448 32.9598 22.0448 32.9651 20.4448 32.9651ZM20.4768 17.9624C20.4235 17.9998 20.3861 18.0211 20.3488 18.0478C18.8715 19.1251 17.3888 20.2025 15.9115 21.2798C14.9195 21.9998 13.9275 22.7198 12.9355 23.4398C12.8395 23.5091 12.7595 23.5571 12.8128 23.7171C13.7568 26.6131 14.6955 29.5091 15.6288 32.4051C15.6875 32.5811 15.7675 32.6345 15.9488 32.6345C18.9621 32.6291 21.9755 32.6291 24.9888 32.6345C25.1808 32.6345 25.2501 32.5704 25.3035 32.3998C25.4261 31.9891 25.5648 31.5891 25.6981 31.1838C26.4981 28.7091 27.2981 26.2345 28.1035 23.7651C28.1515 23.6211 28.1461 23.5358 28.0128 23.4558C27.9008 23.3864 27.7941 23.3011 27.6875 23.2211C26.7168 22.5171 25.7461 21.8131 24.7755 21.1091C23.3515 20.0584 21.9221 19.0184 20.4768 17.9624Z" fill="url(#paint8_linear)"/>
<path d="M24.781 15.637C24.781 16.5863 24.781 17.525 24.7757 18.469C24.7757 18.597 24.8397 18.661 24.9303 18.725C26.1517 19.6103 27.373 20.501 28.5943 21.3863C29.2237 21.845 29.8583 22.3037 30.509 22.7783C30.3223 23.3597 30.141 23.9303 29.9543 24.501C28.8983 27.749 27.8423 30.9917 26.7917 34.2397C26.7223 34.4637 26.637 34.565 26.3703 34.565C22.461 34.5543 18.5517 34.5543 14.637 34.565C14.3703 34.565 14.2583 34.485 14.1783 34.229C13.037 30.693 11.885 27.1623 10.7383 23.6317C10.6477 23.3543 10.5623 23.077 10.4717 22.7837C10.9197 22.4583 11.357 22.1383 11.7943 21.8183C13.165 20.821 14.541 19.8237 15.9117 18.8317C16.0183 18.757 16.0983 18.6877 16.0983 18.533C16.093 17.573 16.093 16.613 16.093 15.6637C16.0023 15.573 15.901 15.6103 15.805 15.6103C14.9143 15.6103 14.029 15.605 13.1383 15.6157C12.941 15.6157 12.877 15.5517 12.877 15.3543C12.8877 14.7837 12.893 14.2183 12.877 13.6477C12.8717 13.429 12.9303 13.3383 13.1597 13.3597C13.2877 13.3757 13.421 13.3863 13.581 13.333C13.581 10.677 13.581 8.01567 13.581 5.33301C18.189 5.33301 22.7703 5.33301 27.3783 5.33301C27.3783 8.01567 27.3783 10.6717 27.3783 13.3597C27.565 13.3597 27.725 13.365 27.8797 13.3597C28.0237 13.3543 28.0877 13.4183 28.0877 13.5623C28.0877 14.1757 28.0823 14.789 28.0877 15.4023C28.0877 15.589 27.9863 15.6103 27.8317 15.6103C26.9143 15.605 26.0023 15.605 25.085 15.605C25.005 15.5997 24.9037 15.5783 24.781 15.637ZM20.4983 16.165C20.4183 16.2183 20.3597 16.2557 20.3063 16.2983C19.3677 16.981 18.4237 17.669 17.485 18.3517C15.421 19.8503 13.357 21.3437 11.293 22.837C11.149 22.9383 11.1117 23.029 11.1703 23.2103C12.301 26.6663 13.421 30.1223 14.5463 33.5783C14.5943 33.7277 14.621 33.8877 14.7117 34.0157C18.5783 34.0157 22.4343 34.0157 26.2957 34.0157C26.3223 33.9357 26.3543 33.861 26.381 33.7863C27.5277 30.2557 28.6743 26.7197 29.8263 23.189C29.8797 23.029 29.853 22.949 29.725 22.8583C29.037 22.3677 28.3597 21.8717 27.677 21.3757C26.221 20.3143 24.7597 19.253 23.3037 18.197C22.3703 17.5197 21.4423 16.8477 20.4983 16.165ZM19.7677 13.301C19.7677 10.7463 19.7677 8.21834 19.7677 5.69567C18.5357 5.69567 17.3143 5.69567 16.109 5.69567C16.109 8.24501 16.109 10.7677 16.109 13.301C17.3303 13.301 18.5357 13.301 19.7677 13.301ZM24.8823 5.69034C23.645 5.69034 22.4343 5.69034 21.2183 5.69034C21.2183 8.23434 21.2183 10.757 21.2183 13.301C22.445 13.301 23.6557 13.301 24.8823 13.301C24.8823 10.757 24.8823 8.23434 24.8823 5.69034ZM13.229 15.2477C18.0823 15.2477 22.9197 15.2477 27.7517 15.2477C27.7517 14.7197 27.7517 14.213 27.7517 13.7063C22.9037 13.7063 18.0717 13.7063 13.229 13.7063C13.229 14.2237 13.229 14.725 13.229 15.2477ZM15.709 13.301C15.709 10.7463 15.709 8.21834 15.709 5.69034C15.117 5.69034 14.5463 5.69034 13.9703 5.69034C13.9703 8.23434 13.9703 10.7623 13.9703 13.301C14.557 13.301 15.1223 13.301 15.709 13.301ZM25.277 5.68501C25.277 8.23967 25.277 10.7677 25.277 13.2957C25.869 13.2957 26.4397 13.2957 27.0103 13.2957C27.0103 10.7463 27.0103 8.21834 27.0103 5.68501C26.4237 5.68501 25.8583 5.68501 25.277 5.68501ZM20.8343 13.301C20.8343 10.7463 20.8343 8.21834 20.8343 5.67967C20.5943 5.66901 20.3703 5.65301 20.157 5.68501C20.157 8.24501 20.157 10.7677 20.157 13.301C20.3917 13.301 20.5997 13.301 20.8343 13.301ZM16.4717 18.421C16.941 18.0797 17.3837 17.7597 17.821 17.4397C17.8477 17.4237 17.8637 17.381 17.8637 17.349C17.8637 16.773 17.8637 16.2023 17.8637 15.621C17.373 15.621 16.9197 15.621 16.4663 15.621C16.4717 16.5543 16.4717 17.461 16.4717 18.421ZM24.4023 18.3357C24.4023 17.397 24.4023 16.5063 24.4023 15.6157C23.9703 15.6157 23.5597 15.6157 23.1277 15.6157C23.1277 16.1917 23.1277 16.7463 23.1277 17.3063C23.1277 17.3863 23.165 17.4397 23.2237 17.4823C23.6077 17.7597 23.9917 18.0423 24.4023 18.3357ZM18.2263 17.1463C18.941 16.629 19.6077 16.1383 20.3277 15.6157C19.581 15.6157 18.909 15.6157 18.2263 15.6157C18.2263 16.117 18.2263 16.6023 18.2263 17.1463ZM20.733 15.6103C20.7277 15.6263 20.717 15.6423 20.7117 15.6583C21.3837 16.149 22.061 16.6343 22.7543 17.141C22.7543 16.597 22.7543 16.1117 22.7543 15.6103C22.0717 15.6103 21.3997 15.6103 20.733 15.6103Z" fill="url(#paint9_linear)"/>
<path d="M17.6982 26.2875L18.1995 21.8555H23.0849V23.3008H19.6182L19.4049 25.1781C19.8155 24.9595 20.2529 24.8475 20.7169 24.8475C21.5489 24.8475 22.1995 25.1035 22.6689 25.6208C23.1382 26.1381 23.3782 26.8581 23.3782 27.7808C23.3782 28.3461 23.2609 28.8475 23.0209 29.2955C22.7809 29.7381 22.4449 30.0848 22.0022 30.3301C21.5595 30.5755 21.0369 30.6981 20.4342 30.6981C19.9062 30.6981 19.4155 30.5915 18.9675 30.3781C18.5142 30.1648 18.1622 29.8661 17.9009 29.4768C17.6395 29.0875 17.5009 28.6501 17.4849 28.1541H19.1969C19.2342 28.5168 19.3569 28.7995 19.5755 29.0021C19.7942 29.2048 20.0769 29.3061 20.4289 29.3061C20.8182 29.3061 21.1222 29.1675 21.3355 28.8848C21.5489 28.6021 21.6555 28.2075 21.6555 27.6901C21.6555 27.1941 21.5329 26.8155 21.2875 26.5541C21.0422 26.2928 20.7009 26.1595 20.2529 26.1595C19.8422 26.1595 19.5062 26.2661 19.2502 26.4848L19.0849 26.6395L17.6982 26.2875Z" fill="#3A3A3A"/>
<defs>
<linearGradient id="paint0_linear" x1="14.8408" y1="5.6394" x2="14.8408" y2="13.3561" gradientUnits="userSpaceOnUse">
<stop stop-color="#1B5170"/>
<stop offset="1" stop-color="#1B2B70"/>
</linearGradient>
<linearGradient id="paint1_linear" x1="26.1456" y1="5.62924" x2="26.1456" y2="13.3461" gradientUnits="userSpaceOnUse">
<stop stop-color="#1B5170"/>
<stop offset="1" stop-color="#1B2B70"/>
</linearGradient>
<linearGradient id="paint2_linear" x1="20.4957" y1="5.61523" x2="20.4957" y2="13.3572" gradientUnits="userSpaceOnUse">
<stop stop-color="#1B5170"/>
<stop offset="1" stop-color="#1B2B70"/>
</linearGradient>
<linearGradient id="paint3_linear" x1="13.1761" y1="14.4613" x2="27.787" y2="14.4613" gradientUnits="userSpaceOnUse">
<stop stop-color="#A2B3CC"/>
<stop offset="0.0581166" stop-color="#B2C5D8"/>
<stop offset="0.1603" stop-color="#C8DEE9"/>
<stop offset="0.2669" stop-color="#D8F0F5"/>
<stop offset="0.3795" stop-color="#E2FBFD"/>
<stop offset="0.5083" stop-color="#E5FEFF"/>
<stop offset="0.6546" stop-color="#E2FBFD"/>
<stop offset="0.7578" stop-color="#DAF2F7"/>
<stop offset="0.8477" stop-color="#CCE2EC"/>
<stop offset="0.9296" stop-color="#B9CDDD"/>
<stop offset="1" stop-color="#A2B3CC"/>
</linearGradient>
<linearGradient id="paint4_linear" x1="13.8605" y1="33.3377" x2="27.0671" y2="20.1312" gradientUnits="userSpaceOnUse">
<stop stop-color="#A8ACB2"/>
<stop offset="0.195" stop-color="#B8BABE"/>
<stop offset="0.5083" stop-color="#D9D9D9"/>
<stop offset="0.7843" stop-color="#BBBDC1"/>
<stop offset="1" stop-color="#A8ACB2"/>
</linearGradient>
<linearGradient id="paint5_linear" x1="17.1761" y1="18.4263" x2="17.1761" y2="15.6208" gradientUnits="userSpaceOnUse">
<stop stop-color="#A2B3CC"/>
<stop offset="0.3188" stop-color="#CFE5EE"/>
<stop offset="0.5083" stop-color="#E5FEFF"/>
<stop offset="1" stop-color="#A2B3CC"/>
</linearGradient>
<linearGradient id="paint6_linear" x1="23.768" y1="18.3412" x2="23.768" y2="15.6216" gradientUnits="userSpaceOnUse">
<stop stop-color="#A2B3CC"/>
<stop offset="0.3188" stop-color="#CFE5EE"/>
<stop offset="0.5083" stop-color="#E5FEFF"/>
<stop offset="1" stop-color="#A2B3CC"/>
</linearGradient>
<linearGradient id="paint7_linear" x1="15.0785" y1="31.9998" x2="25.865" y2="21.2132" gradientUnits="userSpaceOnUse">
<stop stop-color="#CED1CE"/>
<stop offset="0.1383" stop-color="#D3D5D3"/>
<stop offset="0.2949" stop-color="#E0E2E0"/>
<stop offset="0.4597" stop-color="#F7F7F7"/>
<stop offset="0.5083" stop-color="#FFFEFF"/>
<stop offset="0.5742" stop-color="#F3F3F3"/>
<stop offset="0.7185" stop-color="#DEE0DE"/>
<stop offset="0.8613" stop-color="#D2D5D2"/>
<stop offset="1" stop-color="#CED1CE"/>
</linearGradient>
<linearGradient id="paint8_linear" x1="13.4074" y1="22.0312" x2="26.6089" y2="31.275" gradientUnits="userSpaceOnUse">
<stop stop-color="#6B6B6B"/>
<stop offset="0.0705853" stop-color="#737373"/>
<stop offset="0.1807" stop-color="#898989"/>
<stop offset="0.3164" stop-color="#ADADAD"/>
<stop offset="0.4714" stop-color="#DFDFDF"/>
<stop offset="0.5083" stop-color="#ECECEC"/>
<stop offset="0.5108" stop-color="#EBEBEB"/>
<stop offset="0.6245" stop-color="#BDBDBD"/>
<stop offset="0.7336" stop-color="#9A9A9A"/>
<stop offset="0.8353" stop-color="#808080"/>
<stop offset="0.927" stop-color="#707070"/>
<stop offset="1" stop-color="#6B6B6B"/>
</linearGradient>
<linearGradient id="paint9_linear" x1="20.4938" y1="5.32764" x2="20.4938" y2="34.5619" gradientUnits="userSpaceOnUse">
<stop stop-color="#1B2B70"/>
<stop offset="0.1553" stop-color="#1D2C70"/>
<stop offset="0.2112" stop-color="#24326F"/>
<stop offset="0.2511" stop-color="#2F3B6D"/>
<stop offset="0.2833" stop-color="#40486A"/>
<stop offset="0.3106" stop-color="#565967"/>
<stop offset="0.325" stop-color="#656565"/>
</linearGradient>
</defs>
</svg>
