<svg width="456" height="220" viewBox="0 0 456 220" fill="none" xmlns="http://www.w3.org/2000/svg">
<rect x="49" y="134" width="358" height="10" fill="url(#paint0_linear)"/>
<rect x="44" y="126" width="368" height="2" fill="#762828"/>
<rect x="44" y="128" width="368" height="6" fill="#A1422A"/>
<path d="M76.2714 134H75.7285V166.25H76.2714V134Z" fill="#C64F3B"/>
<path d="M76.2714 196.753H75.7285V216.91H76.2714V196.753Z" fill="#C64F3B"/>
<path d="M94.4573 181.703C94.4573 187.75 89.9787 192.856 83.3287 195.141H68.6715C62.1573 192.856 57.543 187.75 57.543 181.703C57.543 175.656 62.0215 170.416 68.6715 168.266H83.4644C89.9787 170.55 94.4573 175.656 94.4573 181.703Z" fill="url(#paint1_radial)"/>
<path d="M83.0573 168.266H81.5645C81.5645 168.4 81.7002 168.534 81.8359 168.669C86.8573 170.819 90.5216 175.925 90.5216 181.703C90.5216 187.481 86.993 192.453 81.8359 194.738C81.7002 194.872 81.5645 195.006 81.5645 195.141H83.0573C87.943 192.722 91.3359 187.616 91.3359 181.703C91.3359 175.791 87.943 170.819 83.0573 168.266Z" fill="#ED6327"/>
<path d="M70.5717 168.266H68.9431C64.0574 170.819 60.6646 175.791 60.6646 181.703C60.6646 187.481 64.0574 192.722 68.9431 195.141H70.436C70.436 195.006 70.3003 194.872 70.1646 194.738C65.1431 192.588 61.4788 187.481 61.4788 181.703C61.4788 175.925 65.0074 170.953 70.1646 168.669C70.436 168.669 70.5717 168.534 70.5717 168.266Z" fill="#ED6327"/>
<path d="M80.2073 168.266H78.9858C78.9858 168.4 79.1216 168.534 79.1216 168.669C80.6144 169.744 81.8358 171.491 82.6501 173.775C83.6001 176.059 84.143 178.881 84.143 181.837C84.143 184.794 83.6001 187.481 82.6501 189.9C81.7001 192.184 80.4787 193.931 79.1216 195.006C78.9858 195.141 78.9858 195.275 78.9858 195.409H80.2073C81.5644 194.2 82.7858 192.453 83.6001 190.303C84.5501 187.884 85.093 185.062 85.093 181.972C85.093 178.881 84.5501 176.059 83.6001 173.641C82.7858 171.222 81.7001 169.475 80.2073 168.266Z" fill="#ED6327"/>
<path d="M73.0144 168.266H71.793C70.4358 169.475 69.2144 171.222 68.4001 173.372C67.4501 175.791 67.043 178.613 67.043 181.703C67.043 184.794 67.5858 187.616 68.5358 190.034C69.4858 192.184 70.5715 193.931 71.9287 195.141H73.1501C73.1501 195.006 73.0144 194.872 73.0144 194.738C71.5215 193.663 70.3001 191.916 69.4858 189.631C68.5358 187.347 67.993 184.525 67.993 181.569C67.993 178.613 68.5358 175.925 69.4858 173.506C70.4358 171.222 71.6573 169.475 73.0144 168.4C73.0144 168.534 73.0144 168.4 73.0144 168.266Z" fill="#ED6327"/>
<path d="M76.5428 168.266H75.5928V195.275H76.5428V168.266Z" fill="#ED6327"/>
<path d="M83.4642 165.041H68.6714V168.266H83.4642V165.041Z" fill="url(#paint2_radial)"/>
<path d="M83.4642 195.141H68.6714V198.5H83.4642V195.141Z" fill="url(#paint3_radial)"/>
<path d="M76 207.234C77.3572 207.234 78.3072 206.159 78.3072 204.95C78.3072 203.606 77.2214 202.666 76 202.666C74.6429 202.666 73.6929 203.741 73.6929 204.95C73.6929 206.159 74.7786 207.234 76 207.234Z" fill="url(#paint4_radial)"/>
<path d="M75.9999 207.637C74.5071 207.637 73.2856 206.428 73.2856 204.95C73.2856 203.472 74.5071 202.262 75.9999 202.262C77.4928 202.262 78.7142 203.472 78.7142 204.95C78.7142 206.428 77.4928 207.637 75.9999 207.637ZM75.9999 202.934C74.9142 202.934 74.0999 203.875 74.0999 204.815C74.0999 205.89 75.0499 206.697 75.9999 206.697C76.9499 206.697 77.8999 205.756 77.8999 204.815C77.8999 203.74 77.0856 202.934 75.9999 202.934Z" fill="#C64F3B"/>
<path d="M76.0002 211.669C76.6788 211.669 77.2217 211.131 77.2217 210.459C77.2217 209.788 76.6788 209.25 76.0002 209.25C75.3217 209.25 74.7788 209.788 74.7788 210.459C74.7788 211.131 75.3217 211.669 76.0002 211.669Z" fill="#C64F3B"/>
<path d="M77.7645 220L77.3573 217.715H74.9145L74.5073 220H77.7645Z" fill="url(#paint5_radial)"/>
<path d="M77.3574 217.85H74.7788L75.0502 215.566H76.9502L77.3574 217.85Z" fill="#C64F3B"/>
<path d="M382.271 134H381.729V166.25H382.271V134Z" fill="#C64F3B"/>
<path d="M382.271 196.753H381.729V216.91H382.271V196.753Z" fill="#C64F3B"/>
<path d="M400.457 181.703C400.457 187.75 395.979 192.856 389.329 195.141H374.672C368.157 192.856 363.543 187.75 363.543 181.703C363.543 175.656 368.022 170.416 374.672 168.266H389.464C395.979 170.55 400.457 175.656 400.457 181.703Z" fill="url(#paint6_radial)"/>
<path d="M389.057 168.266H387.564C387.564 168.4 387.7 168.534 387.836 168.669C392.857 170.819 396.522 175.925 396.522 181.703C396.522 187.481 392.993 192.453 387.836 194.738C387.7 194.872 387.564 195.006 387.564 195.141H389.057C393.943 192.722 397.336 187.616 397.336 181.703C397.336 175.791 393.943 170.819 389.057 168.266Z" fill="#ED6327"/>
<path d="M376.572 168.266H374.943C370.057 170.819 366.665 175.791 366.665 181.703C366.665 187.481 370.057 192.722 374.943 195.141H376.436C376.436 195.006 376.3 194.872 376.165 194.738C371.143 192.588 367.479 187.481 367.479 181.703C367.479 175.925 371.007 170.953 376.165 168.669C376.436 168.669 376.572 168.534 376.572 168.266Z" fill="#ED6327"/>
<path d="M386.207 168.266H384.986C384.986 168.4 385.122 168.534 385.122 168.669C386.614 169.744 387.836 171.491 388.65 173.775C389.6 176.059 390.143 178.881 390.143 181.837C390.143 184.794 389.6 187.481 388.65 189.9C387.7 192.184 386.479 193.931 385.122 195.006C384.986 195.141 384.986 195.275 384.986 195.409H386.207C387.564 194.2 388.786 192.453 389.6 190.303C390.55 187.884 391.093 185.062 391.093 181.972C391.093 178.881 390.55 176.059 389.6 173.641C388.786 171.222 387.7 169.475 386.207 168.266Z" fill="#ED6327"/>
<path d="M379.014 168.266H377.793C376.436 169.475 375.214 171.222 374.4 173.372C373.45 175.791 373.043 178.613 373.043 181.703C373.043 184.794 373.586 187.616 374.536 190.034C375.486 192.184 376.572 193.931 377.929 195.141H379.15C379.15 195.006 379.014 194.872 379.014 194.738C377.522 193.663 376.3 191.916 375.486 189.631C374.536 187.347 373.993 184.525 373.993 181.569C373.993 178.613 374.536 175.925 375.486 173.506C376.436 171.222 377.657 169.475 379.014 168.4C379.014 168.534 379.014 168.4 379.014 168.266Z" fill="#ED6327"/>
<path d="M382.543 168.266H381.593V195.275H382.543V168.266Z" fill="#ED6327"/>
<path d="M389.464 165.041H374.671V168.266H389.464V165.041Z" fill="url(#paint7_radial)"/>
<path d="M389.464 195.141H374.671V198.5H389.464V195.141Z" fill="url(#paint8_radial)"/>
<path d="M382 207.234C383.357 207.234 384.307 206.159 384.307 204.95C384.307 203.606 383.221 202.666 382 202.666C380.643 202.666 379.693 203.741 379.693 204.95C379.693 206.159 380.779 207.234 382 207.234Z" fill="url(#paint9_radial)"/>
<path d="M382 207.637C380.507 207.637 379.286 206.428 379.286 204.95C379.286 203.472 380.507 202.262 382 202.262C383.493 202.262 384.714 203.472 384.714 204.95C384.714 206.428 383.493 207.637 382 207.637ZM382 202.934C380.914 202.934 380.1 203.875 380.1 204.815C380.1 205.89 381.05 206.697 382 206.697C382.95 206.697 383.9 205.756 383.9 204.815C383.9 203.74 383.086 202.934 382 202.934Z" fill="#C64F3B"/>
<path d="M382 211.669C382.679 211.669 383.222 211.131 383.222 210.459C383.222 209.788 382.679 209.25 382 209.25C381.322 209.25 380.779 209.788 380.779 210.459C380.779 211.131 381.322 211.669 382 211.669Z" fill="#C64F3B"/>
<path d="M383.764 220L383.357 217.715H380.914L380.507 220H383.764Z" fill="url(#paint10_radial)"/>
<path d="M383.357 217.85H380.779L381.05 215.566H382.95L383.357 217.85Z" fill="#C64F3B"/>
<path d="M441.969 93.8165C441.677 93.8165 441.531 93.7165 441.238 93.7165C398.854 85.5109 362.9 64.0963 344.777 36.5776H111.077C108.592 40.2802 105.961 43.7825 102.892 47.2849C84.623 69.1998 50.2768 88.0126 13.8845 93.9166C9.7922 94.7171 5.69989 95.3176 1.46143 95.918C3.65373 99.1201 6.43066 102.122 9.35373 104.924C15.346 110.628 22.6537 115.731 30.546 120.134C34.4922 122.336 38.5845 124.537 43.1153 126.138H43.846H45.3076H410.692H411.861H412.592C417.123 124.537 421.215 122.336 425.161 120.134L426.623 119.334L428.084 118.433C434.954 114.431 441.092 109.927 446.354 104.924C449.423 102.022 452.054 99.0201 454.246 95.918C450.154 95.2175 446.061 94.517 441.969 93.8165Z" fill="url(#paint11_radial)"/>
<path d="M412.592 126.038C416.685 123.837 420.338 121.535 424.138 119.134C427.938 116.732 431.592 114.431 435.1 111.929C438.608 109.427 441.969 106.825 445.185 104.224C448.4 101.522 451.469 98.7198 454.538 95.8179C453.077 99.2202 450.738 102.522 447.962 105.524C445.185 108.527 441.969 111.428 438.315 114.03C434.662 116.632 430.715 118.934 426.477 121.035C422.092 122.936 417.562 124.938 412.592 126.038Z" fill="#62131F"/>
<path d="M1.60742 95.7178C7.59973 101.522 13.8843 106.825 20.8997 111.829C24.4074 114.33 28.0613 116.732 31.8613 119.034C35.6613 121.435 39.3151 123.737 43.4074 125.938C38.4382 124.838 33.9074 122.936 29.669 120.835C25.4305 118.833 21.4843 116.432 17.8305 113.83C14.1767 111.228 10.9613 108.426 8.18435 105.324C5.40742 102.422 2.92281 99.2202 1.60742 95.7178Z" fill="#62131F"/>
<path d="M14.0308 93.6162V107.926H15.4923V93.6162H14.0308ZM28.6461 90.2139V118.133H30.1077V90.2139H28.6461ZM43.4077 85.5107V126.038H44.8692V85.5107H43.4077ZM58.1692 79.4065V126.038H59.6308V79.4065H58.1692ZM72.7846 71.5012V126.038H74.2461V71.5012H72.7846ZM87.5461 61.1942V125.938H89.0077V61.1942H87.5461ZM102.308 47.1846V126.038H103.769V47.1846H102.308ZM116.923 42.4814V125.938H118.385V42.4814H116.923ZM131.685 42.4814V125.938H133.146V42.4814H131.685ZM146.446 42.4814V125.938H147.908V42.4814H146.446ZM161.062 42.4814V125.938H162.523V42.4814H161.062ZM175.823 42.4814V125.938H177.285V42.4814H175.823ZM190.438 42.4814V125.938H191.9V42.4814H190.438ZM205.2 42.4814V125.938H206.661V42.4814H205.2ZM219.962 42.4814V125.938H221.423V42.4814H219.962ZM234.577 42.4814V125.938H236.038V42.4814H234.577ZM249.338 42.4814V125.938H250.8V42.4814H249.338ZM264.1 42.4814V125.938H265.561V42.4814H264.1ZM278.715 42.4814V125.938H280.177V42.4814H278.715ZM293.477 42.4814V125.938H294.938V42.4814H293.477ZM308.238 42.4814V125.938H309.7V42.4814H308.238ZM322.854 42.4814V125.938H324.315V42.4814H322.854ZM337.615 42.4814V125.938H339.077V42.4814H337.615ZM352.231 47.1846V126.038H353.692V47.1846H352.231ZM366.992 61.1942V126.038H368.454V61.1942H366.992ZM381.754 71.5012V126.038H383.215V71.5012H381.754ZM396.369 79.4065V126.038H397.831V79.4065H396.369ZM411.131 85.5107V126.038H412.592V85.5107H411.131ZM425.892 90.2139V118.133H427.354V90.2139H425.892ZM440.508 93.6162V107.926H441.969V93.6162H440.508Z" fill="#62131F"/>
<path d="M339.369 42.4818H116.631C94.4154 73.3027 50.8615 89.4137 1.60769 95.718L0 89.814C45.4538 84.01 84.0385 63.0958 103.185 33.976L105.523 30.4736H111.077H344.923H350.623C350.477 30.4736 348.869 38.2789 339.369 42.4818Z" fill="#FEEB02"/>
<path d="M104.646 55.9912C81.2616 77.5058 42.9692 90.8149 1.60769 95.7182L0 89.8142C0.730769 89.7141 1.46154 89.6141 2.19231 89.514C42.2385 84.3104 81.4077 75.9047 104.646 55.9912Z" fill="#F7B415"/>
<path d="M350.477 30.4736C350.769 32.2749 345.069 41.4811 339.223 42.4818H116.485L350.477 30.4736Z" fill="#F7D712"/>
<path d="M456 89.8135L454.392 95.7175C453.661 95.6175 452.93 95.5174 452.054 95.4173C404.992 88.8128 365.823 67.1981 345.946 38.0783C349.746 34.3758 350.477 30.5732 350.477 30.5732L352.815 34.0756C371.961 63.1954 410.546 84.0096 456 89.8135Z" fill="#AD7F0D"/>
<path d="M452.054 95.4176C403.823 88.9131 361.146 72.8022 339.369 42.4816C342.146 41.1807 344.338 39.5796 345.946 37.9785C365.969 67.1984 404.992 88.9131 452.054 95.4176Z" fill="#F6B60E"/>
<path d="M330.454 30.4736C330.454 30.4736 332.208 20.2565 350.185 14.3195C350.185 14.3195 357.785 12.2484 352.67 1.479C352.67 1.479 366.846 3.13584 361.877 19.29C361.877 19.29 358.662 27.298 349.308 30.4736H330.454Z" fill="#FABC15"/>
<path d="M361.877 19.2894C361.877 19.2894 358.662 27.2974 349.308 30.473H338.785C339.37 28.402 340.685 25.6406 343.316 22.7411C345.654 20.1178 348.87 17.2183 353.547 14.4569C353.547 14.4569 360.562 10.8671 352.816 1.34033C352.67 1.4784 366.847 3.13524 361.877 19.2894Z" fill="#EBA505"/>
<path d="M125.546 30.4736C125.546 30.4736 123.792 20.2565 105.815 14.3195C105.815 14.3195 98.2155 12.2484 103.331 1.479C103.331 1.479 89.1539 3.13584 94.1232 19.29C94.1232 19.29 97.3386 27.298 106.692 30.4736H125.546Z" fill="#FABC15"/>
<path d="M94.1232 19.2894C94.1232 19.2894 97.3386 27.2974 106.692 30.473H117.215C116.631 28.402 115.315 25.6406 112.685 22.7411C110.346 20.1178 107.131 17.2183 102.454 14.4569C102.454 14.4569 95.4386 10.8671 103.185 1.34033C103.331 1.4784 89.154 3.13524 94.1232 19.2894Z" fill="#EBA505"/>
<path d="M181 123H275V149H181V123Z" fill="#131E3A" stroke="#E9D193" stroke-width="2"/>
<path d="M207.198 131.293H204.093V139.983H201.981V131.293H199V129.724H207.198V131.293Z" fill="white"/>
<path d="M213.036 137.81H209.558L208.937 139.983H206.701L210.179 129.724H212.415L216.017 139.983H213.781L213.036 137.81ZM210.179 136.241H212.539L211.297 132.621L210.179 136.241Z" fill="white"/>
<path d="M219.122 138.414H223.966V139.983H216.638V139.017L221.358 131.414H216.638V129.724H223.842V130.81L219.122 138.414Z" fill="white"/>
<path d="M237.132 136.604C237.132 137.69 236.76 138.655 236.139 139.259C235.518 139.862 234.4 140.224 233.158 140.224C231.916 140.224 230.922 139.862 230.052 139.017C229.183 138.173 228.935 137.207 228.935 135.879V133.828C228.935 132.621 229.307 131.535 230.052 130.69C230.798 129.845 231.791 129.483 233.034 129.483C234.276 129.483 235.394 129.845 236.015 130.448C236.636 131.052 237.132 131.897 237.132 132.983H235.021C235.021 132.379 234.897 131.776 234.524 131.535C234.151 131.293 233.779 131.173 233.034 131.173C232.412 131.173 231.916 131.414 231.543 131.897C231.17 132.379 231.046 133.104 231.046 133.828V135.879C231.046 136.724 231.295 137.328 231.667 137.81C232.04 138.293 232.537 138.655 233.158 138.655C233.779 138.655 234.276 138.535 234.524 138.173C234.772 137.81 235.021 137.328 235.021 136.604H237.132Z" fill="white"/>
<path d="M240.611 133.345C240.859 132.983 241.108 132.741 241.48 132.5C241.853 132.259 242.226 132.259 242.722 132.259C243.592 132.259 244.213 132.5 244.71 133.103C245.207 133.707 245.455 134.431 245.455 135.517V140.103H243.343V135.517C243.343 134.914 243.219 134.552 243.095 134.31C242.971 134.069 242.35 133.828 241.977 133.828C241.604 133.828 241.356 133.828 241.108 133.948C240.859 134.069 240.611 134.19 240.487 134.431V139.983H238.375V129H240.487V133.345H240.611Z" fill="white"/>
<path d="M249.181 130.569H247.069V129H249.181V130.569ZM249.181 139.983H247.069V132.379H249.181V139.983Z" fill="white"/>
<path d="M258 136.362C258 137.448 257.752 138.414 257.131 139.138C256.51 139.862 255.889 140.224 254.895 140.224C254.522 140.224 254.15 140.104 253.777 139.983C253.404 139.862 253.156 139.621 252.907 139.379V143H250.796V132.379H252.659L252.783 133.345C253.032 132.983 253.28 132.741 253.653 132.621C254.025 132.5 254.398 132.379 254.771 132.379C255.764 132.379 256.51 132.741 257.006 133.466C257.503 134.19 258 135.035 258 136.241V136.362ZM255.889 136.241C255.889 135.517 255.764 134.914 255.516 134.431C255.267 133.948 254.895 133.828 254.398 133.828C254.025 133.828 253.777 133.948 253.529 134.069C253.28 134.19 253.156 134.431 253.032 134.672V138.052C253.156 138.293 253.28 138.414 253.529 138.535C253.777 138.655 254.025 138.655 254.398 138.655C254.895 138.655 255.267 138.414 255.516 138.052C255.764 137.69 255.889 137.086 255.889 136.483V136.241Z" fill="white"/>
<defs>
<linearGradient id="paint0_linear" x1="228" y1="134" x2="228" y2="144" gradientUnits="userSpaceOnUse">
<stop stop-color="#045B42"/>
<stop offset="1" stop-color="#047C5A"/>
</linearGradient>
<radialGradient id="paint1_radial" cx="0" cy="0" r="1" gradientUnits="userSpaceOnUse" gradientTransform="translate(76.0007 181.771) scale(16.2098 16.1038)">
<stop stop-color="#F36525"/>
<stop offset="0.2918" stop-color="#F36225"/>
<stop offset="0.5058" stop-color="#F25925"/>
<stop offset="0.6951" stop-color="#F14925"/>
<stop offset="0.869" stop-color="#EF3224"/>
<stop offset="1" stop-color="#ED1C24"/>
</radialGradient>
<radialGradient id="paint2_radial" cx="0" cy="0" r="1" gradientUnits="userSpaceOnUse" gradientTransform="translate(76.0215 166.692) scale(5.37377 5.33873)">
<stop stop-color="#FFEF28"/>
<stop offset="0.3953" stop-color="#FFEC29"/>
<stop offset="0.6859" stop-color="#FFE32B"/>
<stop offset="0.9422" stop-color="#FED32F"/>
<stop offset="1" stop-color="#FECE30"/>
</radialGradient>
<radialGradient id="paint3_radial" cx="0" cy="0" r="1" gradientUnits="userSpaceOnUse" gradientTransform="translate(76.0215 196.786) scale(5.37377 5.33874)">
<stop stop-color="#FFEF28"/>
<stop offset="0.3953" stop-color="#FFEC29"/>
<stop offset="0.6859" stop-color="#FFE32B"/>
<stop offset="0.9422" stop-color="#FED32F"/>
<stop offset="1" stop-color="#FECE30"/>
</radialGradient>
<radialGradient id="paint4_radial" cx="0" cy="0" r="1" gradientUnits="userSpaceOnUse" gradientTransform="translate(76.0163 204.95) scale(2.36761 2.35216)">
<stop stop-color="#F36525"/>
<stop offset="0.2918" stop-color="#F36225"/>
<stop offset="0.5058" stop-color="#F25925"/>
<stop offset="0.6951" stop-color="#F14925"/>
<stop offset="0.869" stop-color="#EF3224"/>
<stop offset="1" stop-color="#ED1C24"/>
</radialGradient>
<radialGradient id="paint5_radial" cx="0" cy="0" r="1" gradientUnits="userSpaceOnUse" gradientTransform="translate(76.0914 218.799) scale(1.39176 1.3826)">
<stop stop-color="#FFEF28"/>
<stop offset="0.3953" stop-color="#FFEC29"/>
<stop offset="0.6859" stop-color="#FFE32B"/>
<stop offset="0.9422" stop-color="#FED32F"/>
<stop offset="1" stop-color="#FECE30"/>
</radialGradient>
<radialGradient id="paint6_radial" cx="0" cy="0" r="1" gradientUnits="userSpaceOnUse" gradientTransform="translate(382.001 181.771) scale(16.2098 16.1038)">
<stop stop-color="#F36525"/>
<stop offset="0.2918" stop-color="#F36225"/>
<stop offset="0.5058" stop-color="#F25925"/>
<stop offset="0.6951" stop-color="#F14925"/>
<stop offset="0.869" stop-color="#EF3224"/>
<stop offset="1" stop-color="#ED1C24"/>
</radialGradient>
<radialGradient id="paint7_radial" cx="0" cy="0" r="1" gradientUnits="userSpaceOnUse" gradientTransform="translate(382.022 166.692) scale(5.37377 5.33873)">
<stop stop-color="#FFEF28"/>
<stop offset="0.3953" stop-color="#FFEC29"/>
<stop offset="0.6859" stop-color="#FFE32B"/>
<stop offset="0.9422" stop-color="#FED32F"/>
<stop offset="1" stop-color="#FECE30"/>
</radialGradient>
<radialGradient id="paint8_radial" cx="0" cy="0" r="1" gradientUnits="userSpaceOnUse" gradientTransform="translate(382.022 196.786) scale(5.37377 5.33874)">
<stop stop-color="#FFEF28"/>
<stop offset="0.3953" stop-color="#FFEC29"/>
<stop offset="0.6859" stop-color="#FFE32B"/>
<stop offset="0.9422" stop-color="#FED32F"/>
<stop offset="1" stop-color="#FECE30"/>
</radialGradient>
<radialGradient id="paint9_radial" cx="0" cy="0" r="1" gradientUnits="userSpaceOnUse" gradientTransform="translate(382.016 204.95) scale(2.36761 2.35216)">
<stop stop-color="#F36525"/>
<stop offset="0.2918" stop-color="#F36225"/>
<stop offset="0.5058" stop-color="#F25925"/>
<stop offset="0.6951" stop-color="#F14925"/>
<stop offset="0.869" stop-color="#EF3224"/>
<stop offset="1" stop-color="#ED1C24"/>
</radialGradient>
<radialGradient id="paint10_radial" cx="0" cy="0" r="1" gradientUnits="userSpaceOnUse" gradientTransform="translate(382.091 218.799) scale(1.39176 1.3826)">
<stop stop-color="#FFEF28"/>
<stop offset="0.3953" stop-color="#FFEC29"/>
<stop offset="0.6859" stop-color="#FFE32B"/>
<stop offset="0.9422" stop-color="#FED32F"/>
<stop offset="1" stop-color="#FECE30"/>
</radialGradient>
<radialGradient id="paint11_radial" cx="0" cy="0" r="1" gradientUnits="userSpaceOnUse" gradientTransform="translate(106.259 36.6611) rotate(12.7471) scale(343.427 871.526)">
<stop stop-color="#BD1D28"/>
<stop offset="0.5625" stop-color="#89141D"/>
</radialGradient>
</defs>
</svg>
