<svg width="292" height="68" viewBox="0 0 292 68" fill="none" xmlns="http://www.w3.org/2000/svg">
<g filter="url(#filter0_d)">
<path d="M281.979 12.3179H217.752V60H288L271.943 36.1589L281.979 12.3179Z" fill="url(#paint0_linear)"/>
<path d="M277.965 60H270.94L254.883 36.1589L264.919 12.3179H271.943L261.908 36.1589L277.965 60Z" fill="url(#paint1_linear)"/>
<path d="M10.0212 12.3179H74.2474V60H4L20.0565 36.1589L10.0212 12.3179Z" fill="url(#paint2_linear)"/>
<path d="M14.0352 60H21.0599L37.1164 36.1589L27.0811 12.3179H20.0564L30.0917 36.1589L14.0352 60Z" fill="url(#paint3_linear)"/>
<g filter="url(#filter1_i)">
<path d="M237.924 47.6821H54.0763L48.6572 0H243.343L237.924 47.6821Z" fill="url(#paint4_linear)"/>
</g>
<path d="M74.2472 60V47.6821H54.0762L74.2472 60Z" fill="#5B110D"/>
<path d="M217.752 60V47.6821H237.923L217.752 60Z" fill="#5B110D"/>
</g>
<defs>
<filter id="filter0_d" x="0" y="0" width="292" height="68" filterUnits="userSpaceOnUse" color-interpolation-filters="sRGB">
<feFlood flood-opacity="0" result="BackgroundImageFix"/>
<feColorMatrix in="SourceAlpha" type="matrix" values="0 0 0 0 0 0 0 0 0 0 0 0 0 0 0 0 0 0 127 0"/>
<feOffset dy="4"/>
<feGaussianBlur stdDeviation="2"/>
<feColorMatrix type="matrix" values="0 0 0 0 0 0 0 0 0 0 0 0 0 0 0 0 0 0 0.8 0"/>
<feBlend mode="normal" in2="BackgroundImageFix" result="effect1_dropShadow"/>
<feBlend mode="normal" in="SourceGraphic" in2="effect1_dropShadow" result="shape"/>
</filter>
<filter id="filter1_i" x="48.6572" y="0" width="195.686" height="48.6821" filterUnits="userSpaceOnUse" color-interpolation-filters="sRGB">
<feFlood flood-opacity="0" result="BackgroundImageFix"/>
<feBlend mode="normal" in="SourceGraphic" in2="BackgroundImageFix" result="shape"/>
<feColorMatrix in="SourceAlpha" type="matrix" values="0 0 0 0 0 0 0 0 0 0 0 0 0 0 0 0 0 0 127 0" result="hardAlpha"/>
<feOffset dx="1" dy="1"/>
<feGaussianBlur stdDeviation="2"/>
<feComposite in2="hardAlpha" operator="arithmetic" k2="-1" k3="1"/>
<feColorMatrix type="matrix" values="0 0 0 0 1 0 0 0 0 1 0 0 0 0 1 0 0 0 0.25 0"/>
<feBlend mode="normal" in2="shape" result="effect1_innerShadow"/>
</filter>
<linearGradient id="paint0_linear" x1="217.752" y1="36.1991" x2="288" y2="36.1991" gradientUnits="userSpaceOnUse">
<stop offset="0.0051282" stop-color="#5B110D"/>
<stop offset="0.4128" stop-color="#DA241C"/>
<stop offset="0.7051" stop-color="#DA241C"/>
<stop offset="1" stop-color="#5B110D"/>
</linearGradient>
<linearGradient id="paint1_linear" x1="266.424" y1="60.0401" x2="266.424" y2="12.358" gradientUnits="userSpaceOnUse">
<stop stop-color="#F7F6BB"/>
<stop offset="0.5" stop-color="#FECA1C"/>
<stop offset="1" stop-color="#F7F6BB"/>
</linearGradient>
<linearGradient id="paint2_linear" x1="4" y1="36.1991" x2="74.2474" y2="36.1991" gradientUnits="userSpaceOnUse">
<stop offset="0.0051282" stop-color="#5B110D"/>
<stop offset="0.4128" stop-color="#DA241C"/>
<stop offset="0.7051" stop-color="#DA241C"/>
<stop offset="1" stop-color="#5B110D"/>
</linearGradient>
<linearGradient id="paint3_linear" x1="14.0352" y1="36.1991" x2="37.1164" y2="36.1991" gradientUnits="userSpaceOnUse">
<stop stop-color="#F7F6BB"/>
<stop offset="0.5" stop-color="#FECA1C"/>
<stop offset="1" stop-color="#F7F6BB"/>
</linearGradient>
<linearGradient id="paint4_linear" x1="48.6572" y1="23.8395" x2="243.343" y2="23.8395" gradientUnits="userSpaceOnUse">
<stop offset="0.0051282" stop-color="#5B110D"/>
<stop offset="0.4128" stop-color="#DA241C"/>
<stop offset="0.7051" stop-color="#DA241C"/>
<stop offset="1" stop-color="#5B110D"/>
</linearGradient>
</defs>
</svg>
