<svg width="36" height="32" viewBox="0 0 36 32" fill="none" xmlns="http://www.w3.org/2000/svg">
<circle cx="18" cy="16" r="12" fill="#FFD8A1"/>
<path d="M15.8027 20H14.1094V13.4727L12.0879 14.0996V12.7227L15.6211 11.457H15.8027V20ZM24.3223 16.4727C24.3223 17.6523 24.0781 18.5547 23.5898 19.1797C23.1016 19.8047 22.3867 20.1172 21.4453 20.1172C20.5156 20.1172 19.8047 19.8105 19.3125 19.1973C18.8203 18.584 18.5684 17.7051 18.5566 16.5605V14.9902C18.5566 13.7988 18.8027 12.8945 19.2949 12.2773C19.791 11.6602 20.5039 11.3516 21.4336 11.3516C22.3633 11.3516 23.0742 11.6582 23.5664 12.2715C24.0586 12.8809 24.3105 13.7578 24.3223 14.9023V16.4727ZM22.6289 14.75C22.6289 14.043 22.5312 13.5293 22.3359 13.209C22.1445 12.8848 21.8438 12.7227 21.4336 12.7227C21.0352 12.7227 20.7402 12.877 20.5488 13.1855C20.3613 13.4902 20.2617 13.9688 20.25 14.6211V16.6953C20.25 17.3906 20.3438 17.9082 20.5312 18.248C20.7227 18.584 21.0273 18.752 21.4453 18.752C21.8594 18.752 22.1582 18.5898 22.3418 18.2656C22.5254 17.9414 22.6211 17.4453 22.6289 16.7773V14.75Z" fill="black"/>
</svg>
