<svg width="36" height="32" viewBox="0 0 36 32" fill="none" xmlns="http://www.w3.org/2000/svg">
<circle cx="18" cy="16" r="12" fill="#FFD8A1"/>
<path d="M15.3867 15.8047L15.8789 11.4688H20.6602V12.8809H17.2676L17.0566 14.7148C17.459 14.5 17.8867 14.3926 18.3398 14.3926C19.1523 14.3926 19.7891 14.6445 20.25 15.1484C20.7109 15.6523 20.9414 16.3574 20.9414 17.2637C20.9414 17.8145 20.8242 18.3086 20.5898 18.7461C20.3594 19.1797 20.0273 19.5176 19.5938 19.7598C19.1602 19.998 18.6484 20.1172 18.0586 20.1172C17.543 20.1172 17.0645 20.0137 16.623 19.8066C16.1816 19.5957 15.832 19.3008 15.5742 18.9219C15.3203 18.543 15.1855 18.1113 15.1699 17.627H16.8457C16.8809 17.9824 17.0039 18.2598 17.2148 18.459C17.4297 18.6543 17.709 18.752 18.0527 18.752C18.4355 18.752 18.7305 18.6152 18.9375 18.3418C19.1445 18.0645 19.248 17.6738 19.248 17.1699C19.248 16.6855 19.1289 16.3145 18.8906 16.0566C18.6523 15.7988 18.3145 15.6699 17.877 15.6699C17.4746 15.6699 17.1484 15.7754 16.8984 15.9863L16.7344 16.1387L15.3867 15.8047Z" fill="black"/>
</svg>
