<svg width="36" height="32" viewBox="0 0 36 32" fill="none" xmlns="http://www.w3.org/2000/svg">
<circle cx="18" cy="16" r="12" fill="#FFD8A1"/>
<path d="M20.6953 13.7363C20.6953 14.1504 20.5918 14.5176 20.3848 14.8379C20.1777 15.1582 19.8926 15.4141 19.5293 15.6055C19.9434 15.8047 20.2715 16.0801 20.5137 16.4316C20.7559 16.7793 20.877 17.1895 20.877 17.6621C20.877 18.4199 20.6191 19.0195 20.1035 19.4609C19.5879 19.8984 18.8867 20.1172 18 20.1172C17.1133 20.1172 16.4102 19.8965 15.8906 19.4551C15.3711 19.0137 15.1113 18.416 15.1113 17.6621C15.1113 17.1895 15.2324 16.7773 15.4746 16.4258C15.7168 16.0742 16.043 15.8008 16.4531 15.6055C16.0898 15.4141 15.8047 15.1582 15.5977 14.8379C15.3945 14.5176 15.293 14.1504 15.293 13.7363C15.293 13.0098 15.5352 12.4316 16.0195 12.002C16.5039 11.5684 17.1621 11.3516 17.9941 11.3516C18.8223 11.3516 19.4785 11.5664 19.9629 11.9961C20.4512 12.4219 20.6953 13.002 20.6953 13.7363ZM19.1777 17.5391C19.1777 17.168 19.0703 16.8711 18.8555 16.6484C18.6406 16.4258 18.3516 16.3145 17.9883 16.3145C17.6289 16.3145 17.3418 16.4258 17.127 16.6484C16.9121 16.8672 16.8047 17.1641 16.8047 17.5391C16.8047 17.9023 16.9102 18.1953 17.1211 18.418C17.332 18.6406 17.625 18.752 18 18.752C18.3672 18.752 18.6543 18.6445 18.8613 18.4297C19.0723 18.2148 19.1777 17.918 19.1777 17.5391ZM19.002 13.8184C19.002 13.4863 18.9141 13.2207 18.7383 13.0215C18.5625 12.8184 18.3145 12.7168 17.9941 12.7168C17.6777 12.7168 17.4316 12.8145 17.2559 13.0098C17.0801 13.2051 16.9922 13.4746 16.9922 13.8184C16.9922 14.1582 17.0801 14.4316 17.2559 14.6387C17.4316 14.8457 17.6797 14.9492 18 14.9492C18.3203 14.9492 18.5664 14.8457 18.7383 14.6387C18.9141 14.4316 19.002 14.1582 19.002 13.8184Z" fill="black"/>
</svg>
