<svg width="36" height="32" viewBox="0 0 36 32" fill="none" xmlns="http://www.w3.org/2000/svg">
<circle cx="18" cy="16" r="12" fill="#FFD8A1"/>
<path d="M19.0957 16.5898C18.6543 17.0234 18.1387 17.2402 17.5488 17.2402C16.7949 17.2402 16.1914 16.9824 15.7383 16.4668C15.2852 15.9473 15.0586 15.248 15.0586 14.3691C15.0586 13.8105 15.1797 13.2988 15.4219 12.834C15.668 12.3652 16.0098 12.002 16.4473 11.7441C16.8848 11.4824 17.377 11.3516 17.9238 11.3516C18.4863 11.3516 18.9863 11.4922 19.4238 11.7734C19.8613 12.0547 20.2012 12.459 20.4434 12.9863C20.6855 13.5137 20.8086 14.1172 20.8125 14.7969V15.4238C20.8125 16.8457 20.459 17.9629 19.752 18.7754C19.0449 19.5879 18.043 20.0215 16.7461 20.0762L16.3301 20.082V18.6699L16.7051 18.6641C18.1777 18.5977 18.9746 17.9062 19.0957 16.5898ZM17.9648 15.9453C18.2383 15.9453 18.4727 15.875 18.668 15.7344C18.8672 15.5938 19.0176 15.4238 19.1191 15.2246V14.5273C19.1191 13.9531 19.0098 13.5078 18.791 13.1914C18.5723 12.875 18.2793 12.7168 17.9121 12.7168C17.5723 12.7168 17.293 12.873 17.0742 13.1855C16.8555 13.4941 16.7461 13.8828 16.7461 14.3516C16.7461 14.8164 16.8516 15.1992 17.0625 15.5C17.2773 15.7969 17.5781 15.9453 17.9648 15.9453Z" fill="black"/>
</svg>
