<svg width="30" height="30" viewBox="0 0 30 30" fill="none" xmlns="http://www.w3.org/2000/svg">
<path fill-rule="evenodd" clip-rule="evenodd" d="M15 30C23.2843 30 30 23.2843 30 15C30 6.71575 23.2843 0 15 0C6.71575 0 0 6.71575 0 15C0 23.2843 6.71575 30 15 30Z" fill="#EEEEEE"/>
<path d="M7.37162 10.1899C7.39644 9.93869 7.30281 9.69038 7.1195 9.52125L5.2521 7.21894V6.875H11.0504L15.5322 16.9345L19.4724 6.875H25V7.21894L23.4034 8.78563C23.2657 8.893 23.1974 9.0695 23.2259 9.24419V20.7558C23.1974 20.9305 23.2657 21.107 23.4034 21.2144L24.9626 22.7811V23.125H17.1195V22.7811L18.7348 21.1761C18.8936 21.0138 18.8936 20.966 18.8936 20.7176V11.4128L14.4024 23.0868H13.7955L8.56675 11.4128V19.2369C8.52319 19.5658 8.62994 19.8969 8.85619 20.1349L10.9571 22.7429V23.0868H5V22.7429L7.10081 20.1349C7.3255 19.8966 7.426 19.5632 7.37162 19.2369V10.1899Z" fill="#12100E"/>
</svg>
