<svg width="20" height="20" viewBox="0 0 20 20" fill="none" xmlns="http://www.w3.org/2000/svg">
<path d="M20 10.0044C20 15.5969 15.5781 20 9.95781 20C4.4135 19.9916 0.00843882 15.5462 0 9.95375C0 4.44561 4.51477 -0.0418808 10.0759 0.000294878C15.5781 0.0424706 20 4.47092 20 10.0044ZM9.98312 15.8837C12.4219 15.8837 14.8608 15.8837 17.2996 15.8837C17.443 15.8837 17.5359 15.8499 17.6203 15.7318C19.1983 13.4965 19.8734 11.0335 19.3587 8.31734C18.2025 2.16812 12.5063 -0.176843 8.32067 0.641365C3.49367 1.5861 0.725738 5.37348 0.49789 9.57417C0.371308 11.8432 1.07173 13.9014 2.39662 15.7487C2.48101 15.8668 2.57384 15.8837 2.70042 15.8837C5.1308 15.8837 7.55274 15.8837 9.98312 15.8837Z" fill="#154BA9"/>
<path d="M9.98326 15.8837C7.55288 15.8837 5.13094 15.8837 2.70899 15.8837C2.58241 15.8837 2.48959 15.8668 2.4052 15.7487C1.07186 13.9014 0.379881 11.8517 0.506463 9.5742C0.734311 5.3735 3.4938 1.58612 8.32925 0.641388C12.5233 -0.17682 18.2111 2.17658 19.3588 8.31736C19.8651 11.0335 19.1984 13.4965 17.6204 15.7318C17.536 15.8499 17.4432 15.8837 17.2997 15.8837C14.8609 15.8837 12.4221 15.8837 9.98326 15.8837ZM8.80182 7.50759C8.78494 7.76064 8.74275 7.81125 8.52334 7.8703C8.2533 7.94622 7.98326 8.02213 7.71321 8.08961C6.85245 8.29206 6.00013 8.57885 5.09718 8.41858C5.0803 8.41858 5.05499 8.41015 5.03811 8.41858C4.9284 8.46076 4.7765 8.48606 4.71743 8.57041C4.68368 8.62103 4.75119 8.78973 4.81026 8.86564C5.13937 9.21992 5.51068 9.51515 5.98326 9.64168C6.11828 9.67542 6.26174 9.68385 6.4052 9.65855C6.98748 9.54889 7.57819 9.42236 8.15203 9.2874C8.61617 9.16931 9.07186 9.01748 9.56131 8.87408C9.52756 8.91625 9.51068 8.94156 9.48537 8.96687C8.59085 9.85256 7.71321 10.772 6.78494 11.6239C5.78072 12.5434 4.71743 13.4037 3.6879 14.2894C3.57819 14.3822 3.47693 14.5003 3.39254 14.6184C3.35878 14.669 3.33347 14.7787 3.36722 14.8124C3.40942 14.863 3.51068 14.9052 3.56975 14.8968C4.05077 14.8209 4.53178 14.7196 4.95372 14.4497C5.26596 14.2557 5.58663 14.0701 5.89043 13.8592C7.31659 12.8808 8.54022 11.6745 9.73853 10.443C9.83136 10.3502 9.92418 10.2574 10.017 10.1647C10.0339 10.1731 10.0508 10.19 10.0761 10.1984C10.0592 10.3334 10.0508 10.4683 10.0254 10.5948C9.96638 10.8816 9.89043 11.1684 9.8398 11.4637C9.67102 12.4421 9.72165 13.3953 10.228 14.2726C10.3377 14.4581 10.5065 14.6353 10.6921 14.7534C11.2491 15.1161 11.882 15.2089 12.5318 15.251C14.0676 15.3438 15.536 15.0655 16.9622 14.5087C17.19 14.416 17.3503 14.2641 17.3841 14.0111C17.4179 13.7749 17.2997 13.5978 17.1141 13.4628C17.055 13.4206 16.9875 13.3784 16.9453 13.3194C16.4896 12.6108 15.882 12.0457 15.2997 11.4468C15.2153 11.3624 15.1225 11.2781 15.0212 11.2275C14.8693 11.1431 14.6921 11.1094 14.5487 11.2359C14.4136 11.354 14.3799 11.5227 14.4474 11.6914C14.4811 11.7842 14.5149 11.8686 14.5571 11.9529C14.7849 12.4168 15.0212 12.8723 15.2575 13.3363C15.3503 13.5218 15.3166 13.6062 15.1141 13.6737C14.1183 14.0279 13.0972 14.2135 12.0339 13.9942C11.671 13.9183 11.3503 13.7665 11.2322 13.3784C10.9537 12.4253 11.0128 11.5058 11.5107 10.637C11.7132 10.2743 11.6879 9.93691 11.401 9.62481C11.325 9.54046 11.2491 9.47297 11.1816 9.38862C11.0719 9.25366 11.0803 9.1187 11.1984 8.99217C11.6963 8.50293 12.2195 8.039 12.8609 7.73534C13.0212 7.65942 13.1647 7.53289 13.2828 7.39793C13.4938 7.15331 13.46 6.89182 13.2069 6.69781C13.0297 6.56285 12.8356 6.43633 12.633 6.32667C12.3292 6.15797 12.093 6.21701 11.8398 6.4785C11.401 6.92556 10.8525 7.17018 10.2786 7.35576C10.1689 7.3895 10.1014 7.35576 10.1014 7.22079C10.1014 7.00148 10.1773 6.83278 10.3799 6.69781C11.325 6.09049 12.2702 5.47472 13.2069 4.85052C13.4769 4.67338 13.7301 4.51311 14.0423 4.42876C14.363 4.34441 14.4896 4.06605 14.3377 3.77082C14.1436 3.38281 13.8482 3.07914 13.4938 2.84296C13.2491 2.68269 12.9622 2.72487 12.7596 2.92731C12.5571 3.12132 12.363 3.32376 12.1689 3.53464C11.6288 4.11666 11.1478 4.76617 10.4811 5.2301C10.3968 5.28915 10.3124 5.33976 10.1942 5.42411C10.1942 5.31445 10.1942 5.25541 10.1942 5.19636C10.2533 4.50468 10.2871 3.813 10.3714 3.12975C10.4643 2.43807 10.2111 1.93196 9.6457 1.56925C9.3841 1.40055 9.11406 1.25715 8.83558 1.12219C8.72587 1.07158 8.58241 1.06314 8.46427 1.03784C8.48115 1.16437 8.47271 1.29933 8.5149 1.40899C8.68368 1.80544 8.87777 2.19345 8.87777 2.63208C8.88621 3.69491 8.87777 4.7493 8.88621 5.81213C8.88621 6.19171 8.86933 6.55442 8.46427 6.74843C8.44739 6.75686 8.43051 6.77373 8.42207 6.7906C8.30393 6.92556 8.22798 7.08583 8.29549 7.2714C8.363 7.45698 8.52334 7.49915 8.70055 7.50759C8.74275 7.49915 8.76807 7.50759 8.80182 7.50759ZM6.21954 4.15884C5.89887 4.15884 5.66258 4.34441 5.60351 4.65651C5.536 5.01079 5.56975 5.34819 5.72165 5.67716C6.0592 6.39415 6.67524 6.82434 7.31659 7.21236C7.35878 7.23766 7.44317 7.23766 7.48537 7.21236C7.52756 7.18705 7.52756 7.11114 7.52756 7.05209C7.52756 6.99304 7.4938 6.94243 7.47693 6.87495C7.37566 6.4785 7.26596 6.09049 7.17313 5.69403C7.10562 5.40724 7.06342 5.11201 6.98747 4.83365C6.87777 4.44563 6.53178 4.15884 6.21954 4.15884Z" fill="white"/>
<path d="M8.80163 7.50748C8.76787 7.50748 8.73412 7.50748 8.7088 7.49904C8.53159 7.49061 8.37125 7.44 8.30374 7.26286C8.23623 7.07729 8.31218 6.92546 8.43032 6.78206C8.43876 6.76519 8.45564 6.74832 8.47252 6.73988C8.87758 6.54587 8.9029 6.18316 8.89446 5.80358C8.89446 4.74076 8.89446 3.68636 8.88602 2.62354C8.88602 2.18491 8.69193 1.79689 8.52315 1.40044C8.48095 1.29079 8.48939 1.15582 8.47252 1.0293C8.5991 1.0546 8.73412 1.0546 8.84382 1.11365C9.1223 1.24861 9.39235 1.39201 9.65395 1.56071C10.2194 1.92342 10.4641 2.42953 10.3797 3.12121C10.2869 3.80446 10.2615 4.49614 10.2025 5.18782C10.2025 5.24686 10.2025 5.30591 10.2025 5.41557C10.3206 5.33121 10.405 5.2806 10.4894 5.22156C11.1476 4.75763 11.6286 4.10812 12.1772 3.5261C12.3712 3.32365 12.5653 3.11277 12.7679 2.91877C12.9788 2.71632 13.2658 2.67415 13.5021 2.83442C13.8565 3.0706 14.1518 3.37426 14.3459 3.76228C14.4978 4.05751 14.3712 4.33587 14.0506 4.42022C13.7383 4.50457 13.4852 4.66484 13.2151 4.84198C12.2869 5.45774 11.3417 6.07351 10.3881 6.6724C10.1856 6.79893 10.1181 6.96763 10.1096 7.19538C10.1096 7.33034 10.1772 7.36408 10.2869 7.33034C10.8691 7.1532 11.4177 6.90015 11.848 6.45309C12.1012 6.1916 12.3375 6.14099 12.6413 6.30126C12.8438 6.41091 13.0379 6.53744 13.2151 6.6724C13.4683 6.86641 13.5021 7.1279 13.2911 7.37252C13.1729 7.50748 13.0295 7.63401 12.8691 7.70992C12.2278 8.02202 11.7046 8.48596 11.2067 8.96676C11.0801 9.08485 11.0801 9.22825 11.1898 9.36321C11.2573 9.44756 11.3333 9.52348 11.4092 9.59939C11.6877 9.91149 11.7215 10.2573 11.5189 10.6116C11.021 11.4804 10.962 12.4083 11.2404 13.353C11.3586 13.741 11.6708 13.8929 12.0421 13.9688C13.1054 14.1881 14.1181 14.0025 15.1223 13.6483C15.3248 13.5723 15.3586 13.5049 15.2658 13.3109C15.0379 12.8469 14.8016 12.3914 14.5653 11.9275C14.5231 11.8431 14.4894 11.7588 14.4556 11.666C14.3881 11.4889 14.4219 11.3286 14.5569 11.2105C14.7004 11.084 14.8776 11.1177 15.0295 11.2021C15.1307 11.2611 15.232 11.337 15.308 11.4214C15.8902 12.0118 16.4978 12.5854 16.9535 13.294C16.9873 13.353 17.0548 13.3952 17.1223 13.4374C17.308 13.5723 17.4261 13.7495 17.3923 13.9857C17.3586 14.2387 17.1983 14.3905 16.9704 14.4833C15.5442 15.0316 14.0759 15.3184 12.54 15.2256C11.8902 15.1835 11.2573 15.0907 10.7004 14.728C10.5231 14.6099 10.3459 14.4327 10.2362 14.2472C9.7299 13.3699 9.68771 12.4167 9.84804 11.4383C9.89868 11.1515 9.97463 10.8647 10.0337 10.5694C10.059 10.4429 10.0675 10.3079 10.0843 10.173C10.0675 10.1645 10.0506 10.1477 10.0253 10.1392C9.93243 10.232 9.8396 10.3248 9.74678 10.4176C8.54847 11.6491 7.3164 12.8469 5.89868 13.8338C5.59488 14.0447 5.2742 14.2303 4.96197 14.4243C4.53159 14.6858 4.05901 14.7954 3.578 14.8714C3.51049 14.8798 3.40923 14.846 3.37547 14.787C3.35015 14.7533 3.36703 14.6436 3.40079 14.593C3.48518 14.4749 3.578 14.3568 3.69615 14.264C4.72568 13.3699 5.78897 12.5179 6.79319 11.5985C7.72146 10.7466 8.5991 9.82714 9.49361 8.94145C9.51049 8.92458 9.53581 8.89084 9.56956 8.84867C9.08855 8.99206 8.63285 9.1439 8.16028 9.26199C7.578 9.40539 6.99572 9.52348 6.41344 9.63313C6.27842 9.65844 6.12652 9.64157 5.9915 9.61626C5.51049 9.49817 5.13918 9.20294 4.81851 8.84023C4.751 8.76432 4.68349 8.59561 4.72568 8.545C4.79319 8.46065 4.93665 8.44378 5.04636 8.39317C5.06323 8.38473 5.08855 8.39317 5.10543 8.39317C6.00838 8.55344 6.8607 8.26664 7.72146 8.0642C7.9915 7.99672 8.26155 7.9208 8.53159 7.84489C8.74256 7.81114 8.78475 7.76053 8.80163 7.50748Z" fill="#154BA9"/>
<path d="M6.21931 4.15894C6.53155 4.15894 6.8691 4.44573 6.9788 4.83375C7.06319 5.11211 7.09695 5.40734 7.16446 5.69413C7.25728 6.09058 7.36699 6.48703 7.46825 6.87505C7.48513 6.9341 7.51889 6.98471 7.51889 7.05219C7.51889 7.11123 7.51045 7.18715 7.47669 7.21245C7.44294 7.23776 7.35011 7.23776 7.30792 7.21245C6.65813 6.82444 6.05053 6.39425 5.71298 5.67726C5.56108 5.34829 5.53576 5.01088 5.59484 4.65661C5.67079 4.34451 5.90707 4.15894 6.21931 4.15894Z" fill="#154BA9"/>
<path d="M8.43071 18.971H7.89907V16.8284H7.11426V16.3645H9.21552V16.8284H8.43071V18.971Z" fill="white"/>
<path d="M12.4562 17.2333C12.4225 17.1068 12.3803 17.014 12.3297 16.9549C12.2368 16.8453 12.0934 16.7862 11.9077 16.7862C11.7389 16.7862 11.6039 16.8453 11.4942 16.9634C11.3508 17.1152 11.2748 17.3598 11.2748 17.6803C11.2748 17.9334 11.3254 18.1358 11.4183 18.2961C11.528 18.4732 11.6883 18.566 11.9077 18.566C12.0512 18.566 12.1778 18.5239 12.2706 18.4395C12.3634 18.3552 12.4309 18.2371 12.4647 18.0768H13.0048C12.9457 18.372 12.8276 18.6082 12.6503 18.7685C12.4562 18.9456 12.2115 19.0384 11.9077 19.0384C11.5533 19.0384 11.2748 18.9203 11.0723 18.6841C10.8529 18.4395 10.7432 18.1021 10.7432 17.6635C10.7432 17.2333 10.8529 16.8959 11.0807 16.6513C11.2917 16.4235 11.5702 16.3054 11.9077 16.3054C12.2537 16.3054 12.5238 16.4066 12.7263 16.6175C12.8951 16.7947 12.9795 16.9887 12.9963 17.2248L12.4562 17.2333Z" fill="white"/>
<path d="M9.941 18.0177C10.1088 18.0177 10.2448 17.8818 10.2448 17.7141C10.2448 17.5464 10.1088 17.4104 9.941 17.4104C9.77322 17.4104 9.63721 17.5464 9.63721 17.7141C9.63721 17.8818 9.77322 18.0177 9.941 18.0177Z" fill="white"/>
</svg>
