<svg width="20" height="20" viewBox="0 0 20 20" fill="none" xmlns="http://www.w3.org/2000/svg">
<path d="M20 10.0044C20 15.6016 15.5781 20.0084 9.95781 20C4.4135 20 0.00843882 15.5509 0 9.95371C0 4.44936 4.52321 -0.0419161 10.076 0.000295127C15.5781 0.0425064 20 4.47469 20 10.0044ZM9.98312 15.8971C12.4219 15.8971 14.8608 15.8971 17.2996 15.8971C17.443 15.8971 17.5359 15.8633 17.6203 15.7451C19.1983 13.5079 19.865 11.0428 19.3587 8.32435C18.2025 2.16995 12.5148 -0.176992 8.32067 0.641906C3.49367 1.58744 0.734177 5.37801 0.49789 9.58225C0.371308 11.8532 1.07173 13.9131 2.39662 15.762C2.48101 15.8802 2.57384 15.8971 2.70042 15.8971C5.13924 15.8971 7.56118 15.8971 9.98312 15.8971Z" fill="black"/>
<path d="M9.98301 15.8979C7.55263 15.8979 5.13069 15.8979 2.70875 15.8979C2.58217 15.8979 2.48934 15.881 2.40495 15.7628C1.07162 13.914 0.379637 11.8625 0.506219 9.58308C0.734067 5.37884 3.49356 1.58827 8.329 0.642734C12.5231 -0.176164 18.2109 2.17078 19.3585 8.32518C19.8649 11.0436 19.1982 13.5087 17.6201 15.7459C17.5358 15.8641 17.4429 15.8979 17.2995 15.8979C14.8606 15.8979 12.4218 15.8979 9.98301 15.8979ZM8.81002 7.51473C8.79314 7.76799 8.75094 7.81865 8.53153 7.87774C8.26149 7.95372 7.99145 8.0297 7.72141 8.09724C6.86065 8.29986 6.01677 8.58689 5.11381 8.42649C5.09693 8.42649 5.07162 8.41805 5.05474 8.42649C4.94504 8.4687 4.79314 8.49403 4.73407 8.57845C4.70031 8.6291 4.76782 8.79795 4.8269 8.87393C5.15601 9.2285 5.52731 9.52398 5.99989 9.65062C6.13491 9.68438 6.27837 9.69283 6.42183 9.6675C7.00411 9.55775 7.59482 9.43112 8.16866 9.29604C8.6328 9.17785 9.0885 9.02589 9.57795 8.88237C9.54419 8.92458 9.52731 8.94991 9.502 8.97524C8.60748 9.86167 7.72985 10.7819 6.80158 11.6345C5.79736 12.5548 4.73407 13.4159 3.70453 14.3023C3.59483 14.3952 3.49356 14.5134 3.40917 14.6315C3.37542 14.6822 3.3501 14.7919 3.38386 14.8257C3.42605 14.8764 3.52732 14.9186 3.58639 14.9101C4.0674 14.8342 4.54842 14.7329 4.97036 14.4627C5.28259 14.2685 5.60326 14.0828 5.90706 13.8717C7.33322 12.8924 8.55685 11.6852 9.75516 10.4526C9.84799 10.3598 9.94082 10.2669 10.0336 10.174C10.0505 10.1825 10.0674 10.1994 10.0927 10.2078C10.0758 10.3429 10.0674 10.478 10.0421 10.6046C9.98301 10.8916 9.90706 11.1787 9.85643 11.4741C9.68765 12.4534 9.73829 13.4074 10.2446 14.2854C10.3543 14.4711 10.5231 14.6484 10.7088 14.7666C11.2657 15.1296 11.8986 15.2225 12.5484 15.2647C14.0843 15.3576 15.5526 15.079 16.9788 14.5218C17.2066 14.4289 17.367 14.277 17.4007 14.0237C17.4345 13.7873 17.3163 13.61 17.1307 13.475C17.0716 13.4327 17.0041 13.3905 16.9619 13.3314C16.5062 12.6223 15.8986 12.0567 15.3163 11.4573C15.232 11.3728 15.1391 11.2884 15.0379 11.2378C14.886 11.1533 14.7087 11.1196 14.5653 11.2462C14.4303 11.3644 14.3965 11.5332 14.464 11.7021C14.4978 11.7949 14.5315 11.8794 14.5737 11.9638C14.8016 12.4281 15.0379 12.884 15.2742 13.3483C15.367 13.5341 15.3332 13.6185 15.1307 13.686C14.1349 14.0406 13.1138 14.2263 12.0505 14.0068C11.6877 13.9308 11.367 13.7789 11.2488 13.3905C10.9704 12.4366 11.0294 11.5164 11.5273 10.6468C11.7298 10.2838 11.7045 9.94609 11.4176 9.63373C11.3417 9.54931 11.2657 9.48177 11.1982 9.39735C11.0885 9.26227 11.0969 9.1272 11.2151 9.00056C11.713 8.51091 12.2362 8.04659 12.8775 7.74267C13.0379 7.66669 13.1813 7.54005 13.2995 7.40498C13.5104 7.16015 13.4767 6.89844 13.2235 6.70427C13.0463 6.56919 12.8522 6.44256 12.6497 6.33281C12.3459 6.16397 12.1096 6.22306 11.8564 6.48477C11.4176 6.93221 10.8691 7.17704 10.2952 7.36277C10.1855 7.39653 10.118 7.36277 10.118 7.22769C10.118 7.00819 10.194 6.83935 10.3965 6.70427C11.3417 6.09643 12.2868 5.48014 13.2235 4.85542C13.4936 4.67813 13.7467 4.51773 14.059 4.43331C14.3796 4.34888 14.5062 4.07029 14.3543 3.77481C14.1602 3.38647 13.8649 3.08254 13.5104 2.84616C13.2657 2.68576 12.9788 2.72797 12.7763 2.93058C12.5737 3.12476 12.3796 3.32737 12.1855 3.53843C11.6455 4.12094 11.1644 4.771 10.4978 5.23532C10.4134 5.29441 10.329 5.34507 10.2109 5.42949C10.2109 5.31974 10.2109 5.26065 10.2109 5.20155C10.2615 4.50084 10.2952 3.80014 10.3796 3.12476C10.4725 2.43249 10.2193 1.92596 9.6539 1.56294C9.3923 1.39409 9.12225 1.25058 8.84377 1.1155C8.73407 1.06485 8.59061 1.0564 8.47247 1.03108C8.48934 1.15771 8.4809 1.29279 8.5231 1.40254C8.69187 1.79932 8.88596 2.18767 8.88596 2.62666C8.8944 3.69039 8.88597 4.74567 8.89441 5.80939C8.89441 6.18929 8.87753 6.55231 8.47247 6.74648C8.45559 6.75492 8.43871 6.77181 8.43027 6.78869C8.31213 6.92377 8.23618 7.08417 8.30369 7.2699C8.3712 7.45563 8.53154 7.49784 8.70875 7.50628C8.74251 7.50628 8.77626 7.51473 8.81002 7.51473ZM6.22774 4.16315C5.90706 4.16315 5.67078 4.34888 5.6117 4.66125C5.54419 5.01582 5.57795 5.35351 5.72985 5.68276C6.0674 6.40035 6.68343 6.8309 7.32478 7.21925C7.36698 7.24457 7.45136 7.24457 7.49356 7.21925C7.52731 7.19392 7.53575 7.11794 7.53575 7.05884C7.53575 6.99975 7.502 6.9491 7.48512 6.88156C7.38386 6.48477 7.27415 6.09643 7.18132 5.69964C7.11381 5.41261 7.07162 5.11713 6.99567 4.83853C6.87753 4.45019 6.53997 4.16315 6.22774 4.16315Z" fill="#D30900"/>
<path d="M8.80993 7.51386C8.77618 7.51386 8.74242 7.51386 8.7171 7.50542C8.53989 7.49698 8.37955 7.44632 8.31204 7.26903C8.24453 7.08331 8.32048 6.93134 8.43862 6.78783C8.44706 6.77094 8.46394 6.75406 8.48082 6.74562C8.88588 6.55144 8.9112 6.18843 8.90276 5.80853C8.90276 4.7448 8.90276 3.68952 8.89432 2.6258C8.89432 2.1868 8.70023 1.79846 8.53145 1.40167C8.48926 1.29192 8.4977 1.15685 8.48082 1.03021C8.6074 1.05554 8.74242 1.05554 8.85213 1.11463C9.13061 1.24971 9.40065 1.39323 9.66225 1.56207C10.2277 1.92509 10.4724 2.43163 10.388 3.12389C10.2952 3.80771 10.2698 4.49998 10.2108 5.19224C10.2108 5.25134 10.2108 5.31043 10.2108 5.42018C10.3289 5.33576 10.4133 5.28511 10.4977 5.22601C11.1559 4.76169 11.6369 4.11163 12.1855 3.52912C12.3796 3.3265 12.5736 3.11545 12.7762 2.92128C12.9872 2.71866 13.2741 2.67645 13.5104 2.83685C13.8648 3.07324 14.1601 3.37716 14.3542 3.7655C14.5061 4.06098 14.3796 4.33957 14.0589 4.424C13.7466 4.50842 13.4935 4.66882 13.2234 4.84611C12.2867 5.47928 11.3416 6.09556 10.3964 6.69496C10.1939 6.8216 10.1264 6.99044 10.118 7.21838C10.118 7.35346 10.1855 7.38723 10.2952 7.35346C10.8774 7.17617 11.426 6.9229 11.8563 6.47546C12.1095 6.21375 12.3458 6.1631 12.6496 6.3235C12.8521 6.43325 13.0462 6.55989 13.2234 6.69496C13.4766 6.88913 13.5104 7.15084 13.2994 7.39567C13.1812 7.53074 13.0378 7.65738 12.8774 7.73336C12.2361 8.04572 11.7129 8.51005 11.215 8.99125C11.0884 9.10944 11.0884 9.25296 11.1981 9.38804C11.2656 9.47246 11.3416 9.54844 11.4175 9.62442C11.696 9.93679 11.7298 10.2829 11.5272 10.6375C11.0293 11.507 10.9703 12.4357 11.2488 13.3812C11.3669 13.7696 11.6791 13.9215 12.0504 13.9975C13.1137 14.217 14.1264 14.0313 15.1306 13.6767C15.3331 13.6007 15.3669 13.5332 15.2741 13.339C15.0462 12.8747 14.8099 12.4188 14.5736 11.9545C14.5315 11.8701 14.4977 11.7856 14.4639 11.6928C14.3964 11.5155 14.4302 11.3551 14.5652 11.2369C14.7087 11.1103 14.8859 11.144 15.0378 11.2284C15.139 11.2875 15.2403 11.3635 15.3163 11.4479C15.8985 12.0389 16.5061 12.613 16.9618 13.3221C16.9956 13.3812 17.0631 13.4234 17.1306 13.4656C17.3163 13.6007 17.4344 13.778 17.4007 14.0144C17.3669 14.2677 17.2066 14.4196 16.9787 14.5125C15.5526 15.0612 14.0842 15.3483 12.5483 15.2554C11.8985 15.2132 11.2656 15.1203 10.7087 14.7573C10.5315 14.6391 10.3542 14.4618 10.2445 14.2761C9.7382 13.3981 9.69601 12.4441 9.85635 11.4648C9.90698 11.1778 9.98293 10.8908 10.042 10.5953C10.0673 10.4686 10.0758 10.3336 10.0926 10.1985C10.0758 10.1901 10.0589 10.1732 10.0336 10.1647C9.94074 10.2576 9.84791 10.3505 9.75508 10.4433C8.55677 11.6759 7.3247 12.8747 5.90698 13.8624C5.60318 14.0735 5.28251 14.2592 4.97027 14.4534C4.53989 14.7151 4.06732 14.8248 3.5863 14.9008C3.51879 14.9093 3.41753 14.8755 3.38377 14.8164C3.35846 14.7826 3.37533 14.6729 3.40909 14.6222C3.49348 14.504 3.5863 14.3859 3.70445 14.293C4.73398 13.3981 5.79727 12.5454 6.80149 11.6252C7.72976 10.7726 8.59896 9.85236 9.50191 8.96593C9.51879 8.94904 9.54411 8.91527 9.57787 8.87306C9.09685 9.01658 8.64116 9.16854 8.16858 9.28673C7.5863 9.43025 7.00402 9.54844 6.42174 9.65819C6.28672 9.68352 6.13482 9.66663 5.9998 9.64131C5.51879 9.52312 5.14749 9.22764 4.82681 8.86462C4.7593 8.78864 4.69179 8.61979 4.73398 8.56914C4.80149 8.48472 4.94496 8.46783 5.05466 8.41718C5.07154 8.40874 5.09685 8.41718 5.11373 8.41718C6.01668 8.57758 6.869 8.29055 7.72132 8.08793C7.99137 8.0204 8.26141 7.94441 8.53145 7.86843C8.75086 7.81778 8.78462 7.76713 8.80993 7.51386Z" fill="#FFFF58"/>
<path d="M6.2281 4.16235C6.54033 4.16235 6.87789 4.44939 6.98759 4.83773C7.07198 5.11633 7.10574 5.41181 7.17325 5.69884C7.26607 6.09563 7.37578 6.49241 7.47704 6.88076C7.49392 6.93985 7.52768 6.99051 7.52768 7.05805C7.52768 7.11714 7.51924 7.19312 7.48548 7.21845C7.45173 7.24378 7.3589 7.24378 7.31671 7.21845C6.66692 6.83011 6.05932 6.39955 5.72177 5.68196C5.56987 5.35271 5.54455 5.01502 5.60363 4.66045C5.67114 4.34808 5.90742 4.16235 6.2281 4.16235Z" fill="#FFFF58"/>
<path d="M7.64555 18.9785H7.11391V16.8341H6.3291V16.3698H8.43037V16.8341H7.64555V18.9785Z" fill="white"/>
<path d="M9.27425 18.9785H8.71729L9.63712 16.3698H10.2532L11.1561 18.9785H10.5823L10.4135 18.4382H9.45146L9.27425 18.9785ZM9.59492 17.9907H10.2532L9.93248 16.9608H9.92403L9.59492 17.9907Z" fill="white"/>
<path d="M13.4854 18.9785H11.4854V18.5226L12.8187 16.8341H11.4854V16.3698H13.4769V16.8004L12.1351 18.5226H13.4854V18.9785Z" fill="white"/>
</svg>
