<svg width="40" height="40" viewBox="0 0 40 40" fill="none" xmlns="http://www.w3.org/2000/svg">
<path d="M22.3759 13.3006C21.1493 13.3006 19.9439 13.3006 18.7173 13.3006C18.7173 10.7673 18.7173 8.24464 18.7173 5.69531C19.9226 5.69531 21.1386 5.69531 22.3759 5.69531C22.3759 8.21797 22.3759 10.746 22.3759 13.3006Z" fill="white"/>
<path d="M15.757 5.63184H13.917V13.3545H15.757V5.63184Z" fill="url(#paint0_linear)"/>
<path d="M27.0639 5.63672H25.3306V13.3541H27.0639V5.63672Z" fill="url(#paint1_linear)"/>
<path d="M23.9808 5.63184H22.7222V13.3545H23.9808V5.63184Z" fill="url(#paint2_linear)"/>
<path d="M18.3758 5.63672H17.1118V13.3541H18.3758V5.63672Z" fill="url(#paint3_linear)"/>
<path d="M16.7759 13.301C16.5413 13.3224 16.3226 13.317 16.0933 13.3064C16.0933 10.757 16.0933 8.22904 16.0933 5.69038C16.3226 5.65305 16.5359 5.66905 16.7759 5.67971C16.7759 8.21838 16.7759 10.7464 16.7759 13.301Z" fill="white"/>
<path d="M24.312 5.67969C24.5467 5.67969 24.7547 5.67969 24.9893 5.67969C24.9893 8.21302 24.9893 10.741 24.9893 13.301C24.776 13.3277 24.552 13.317 24.312 13.3064C24.312 10.7677 24.312 8.23969 24.312 5.67969Z" fill="white"/>
<path d="M27.7886 13.6211C27.7886 14.2024 27.7886 14.7678 27.7886 15.3438C22.914 15.3438 18.05 15.3438 13.1753 15.3438C13.1753 14.7678 13.1753 14.2024 13.1753 13.6211C18.0446 13.6211 22.9033 13.6211 27.7886 13.6211Z" fill="url(#paint4_linear)"/>
<path d="M14.637 34.0794C14.4503 33.5141 14.2636 32.9594 14.0823 32.3994C13.085 29.3328 12.093 26.2661 11.085 23.1994C11.021 23.0074 11.0636 22.9114 11.213 22.8048C13.9383 20.8368 16.653 18.8688 19.373 16.9008C19.6823 16.6768 20.0023 16.4528 20.301 16.2128C20.4396 16.1061 20.5303 16.1114 20.669 16.2128C21.8316 17.0661 22.9996 17.9088 24.1676 18.7568C26.0183 20.0954 27.8636 21.4394 29.7143 22.7728C29.885 22.8954 29.9543 22.9914 29.8796 23.2261C28.7223 26.7461 27.5756 30.2714 26.4396 33.8021C26.3703 34.0208 26.2743 34.0848 26.0503 34.0848C22.3383 34.0794 18.6263 34.0794 14.9143 34.0794C14.8343 34.0794 14.7436 34.0794 14.637 34.0794ZM20.461 32.9008C22.077 32.9008 23.645 32.8901 25.261 32.8954C25.4316 32.8954 25.4583 32.8741 25.517 32.7034C26.4983 29.6634 27.4476 26.7248 28.445 23.6901C28.525 23.4501 28.4663 23.3488 28.2796 23.2154C27.5223 22.6874 26.8076 22.1648 26.061 21.6208C24.221 20.2821 22.4503 18.9914 20.6156 17.6474C20.4983 17.5621 20.4503 17.5888 20.3436 17.6741C20.0183 17.9248 19.6983 18.1434 19.3623 18.3888C17.0956 20.0368 14.8876 21.6261 12.6156 23.2688C12.4663 23.3754 12.397 23.4234 12.493 23.6154C12.5676 23.7648 12.6156 23.9781 12.669 24.1434C13.6076 27.0341 14.5143 29.8288 15.4476 32.7248C15.4956 32.8794 15.5383 32.9114 15.7036 32.9114C17.3036 32.9008 18.861 32.9008 20.461 32.9008Z" fill="url(#paint5_linear)"/>
<path d="M16.4346 18.5649C16.4346 17.5355 16.4346 16.5702 16.4346 15.5889C16.9199 15.5889 17.3892 15.5889 17.9012 15.5889C17.9012 16.0795 17.8746 16.5649 17.9119 17.0502C17.9386 17.3969 17.8159 17.5995 17.5386 17.7755C17.1652 18.0049 16.8239 18.2822 16.4346 18.5649Z" fill="url(#paint6_linear)"/>
<path d="M24.413 18.3782C23.9863 18.0742 23.5863 17.7915 23.1917 17.5035C23.1383 17.4662 23.0957 17.3862 23.0957 17.3222C23.0903 16.7515 23.0903 16.1809 23.0903 15.5889C23.5383 15.5889 23.965 15.5889 24.413 15.5889C24.413 16.5062 24.413 17.4182 24.413 18.3782Z" fill="url(#paint7_linear)"/>
<path d="M20.4824 17.8721C21.9384 18.9334 23.3731 19.9841 24.8078 21.0347C25.7838 21.7441 26.7598 22.4534 27.7358 23.1627C27.8424 23.2427 27.9491 23.3281 28.0611 23.3974C28.1944 23.4774 28.1998 23.5681 28.1518 23.7121C27.3411 26.2027 26.5358 28.6987 25.7304 31.1894C25.5971 31.6001 25.4584 32.0054 25.3358 32.4161C25.2824 32.5867 25.2131 32.6561 25.0211 32.6561C21.9864 32.6507 18.9571 32.6507 15.9224 32.6561C15.7358 32.6561 15.6558 32.6027 15.5971 32.4267C14.6584 29.5094 13.7144 26.5867 12.7598 23.6747C12.7064 23.5147 12.7864 23.4667 12.8824 23.3974C13.8798 22.6721 14.8771 21.9467 15.8744 21.2214C17.3624 20.1387 18.8504 19.0507 20.3384 17.9681C20.3918 17.9307 20.4291 17.9094 20.4824 17.8721Z" fill="url(#paint8_linear)"/>
<path d="M20.4502 32.9329C18.8608 32.9329 17.2662 32.9329 15.6768 32.9382C15.5115 32.9382 15.4475 32.8849 15.3942 32.7302C14.4662 29.8609 13.5382 26.9862 12.6048 24.1169C12.5515 23.9569 12.5088 23.7809 12.4502 23.6369C12.3862 23.4342 12.4342 23.3489 12.5782 23.2422C14.8288 21.6102 17.0795 19.9782 19.3302 18.3409C19.6608 18.1009 19.9915 17.8609 20.3168 17.6156C20.4288 17.5302 20.5035 17.5249 20.6208 17.6102C22.4395 18.9436 24.2635 20.2716 26.0875 21.5996C26.8288 22.1382 27.5702 22.6769 28.3168 23.1996C28.5035 23.3276 28.5622 23.4342 28.4822 23.6742C27.4955 26.6822 26.5195 29.7009 25.5488 32.7142C25.4955 32.8849 25.4155 32.9276 25.2448 32.9276C23.6502 32.9276 22.0502 32.9329 20.4502 32.9329ZM20.4822 17.9302C20.4288 17.9676 20.3915 17.9889 20.3542 18.0156C18.8768 19.0929 17.3942 20.1702 15.9168 21.2476C14.9248 21.9676 13.9328 22.6876 12.9408 23.4076C12.8448 23.4769 12.7648 23.5249 12.8182 23.6849C13.7622 26.5809 14.7008 29.4769 15.6342 32.3729C15.6928 32.5489 15.7728 32.6022 15.9542 32.6022C18.9675 32.5969 21.9808 32.5969 24.9942 32.6022C25.1862 32.6022 25.2555 32.5382 25.3088 32.3676C25.4315 31.9569 25.5702 31.5569 25.7035 31.1516C26.5035 28.6769 27.3035 26.2022 28.1088 23.7329C28.1568 23.5889 28.1515 23.5036 28.0182 23.4236C27.9062 23.3542 27.7995 23.2689 27.6928 23.1889C26.7222 22.4849 25.7515 21.7809 24.7808 21.0769C23.3568 20.0316 21.9275 18.9862 20.4822 17.9302Z" fill="url(#paint9_linear)"/>
<path d="M12.9091 13.3917C13.1331 13.3117 13.3517 13.397 13.5864 13.333C13.5864 10.677 13.5864 8.02101 13.5864 5.33301C18.1944 5.33301 22.7757 5.33301 27.3837 5.33301C27.3837 7.99967 27.3837 10.661 27.3837 13.3223C27.6237 13.4183 27.8531 13.3117 28.0824 13.397C28.0824 14.1223 28.0824 14.8423 28.0824 15.5943C26.9837 15.5943 25.9064 15.5943 24.8557 15.5943C24.7597 15.6797 24.7864 15.7543 24.7864 15.8237C24.7864 16.6877 24.7864 17.5463 24.7811 18.4103C24.7811 18.5597 24.8237 18.6503 24.9464 18.741C26.3704 19.7703 27.7944 20.805 29.2184 21.8343C29.6504 22.149 30.0771 22.4637 30.5144 22.7837C30.3277 23.365 30.1464 23.9303 29.9651 24.4957C29.0691 27.253 28.1677 30.0103 27.2717 32.7677C27.1064 33.2743 26.9464 33.781 26.7811 34.2877C26.6904 34.5597 26.6904 34.565 26.4131 34.565C22.4664 34.565 18.5197 34.565 14.5731 34.565C14.2957 34.565 14.2904 34.5597 14.1997 34.293C13.0424 30.725 11.8851 27.1623 10.7224 23.5943C10.6371 23.333 10.5571 23.0717 10.4771 22.821C10.5197 22.7303 10.5944 22.6877 10.6584 22.645C12.1731 21.5463 13.6931 20.4423 15.2077 19.3437C15.4531 19.1677 15.6931 18.9863 15.9384 18.8103C16.0291 18.7463 16.0877 18.6717 16.0877 18.549C16.0824 17.5997 16.0824 16.645 16.0824 15.6957C16.0824 15.6797 16.0717 15.6637 16.0557 15.6103C15.0157 15.6103 13.9651 15.6103 12.8984 15.6103C12.9091 14.8423 12.9091 14.117 12.9091 13.3917ZM20.4931 16.1597C20.0237 16.4957 19.5757 16.8263 19.1224 17.1517C17.3357 18.453 15.5437 19.749 13.7571 21.0503C12.9464 21.6423 12.1357 22.2343 11.3197 22.8157C11.1597 22.9277 11.1011 23.0237 11.1757 23.2263C11.3464 23.6743 11.4744 24.133 11.6237 24.5917C12.5677 27.493 13.5064 30.3943 14.4504 33.2903C14.5304 33.5303 14.5891 33.781 14.7011 34.0103C18.5731 34.0103 22.4291 34.0103 26.2851 34.0103C26.3597 33.909 26.3811 33.7917 26.4131 33.685C27.0051 31.8663 27.5971 30.0423 28.1837 28.2183C28.7331 26.533 29.2771 24.8423 29.8317 23.1623C29.8797 23.0077 29.8424 22.933 29.7251 22.853C29.5704 22.7517 29.4211 22.6397 29.2717 22.5277C28.2957 21.8183 27.3197 21.109 26.3437 20.3943C25.1651 19.541 23.9864 18.6823 22.8077 17.829C22.0397 17.285 21.2824 16.7303 20.4931 16.1597ZM22.3757 13.301C22.3757 10.7463 22.3757 8.21834 22.3757 5.69567C21.1437 5.69567 19.9224 5.69567 18.7171 5.69567C18.7171 8.24501 18.7171 10.773 18.7171 13.301C19.9437 13.301 21.1491 13.301 22.3757 13.301ZM13.2291 15.2477C18.0877 15.2477 22.9251 15.2477 27.7517 15.2477C27.7517 14.7197 27.7517 14.213 27.7517 13.7063C22.8984 13.7063 18.0717 13.7063 13.2291 13.7063C13.2291 14.2237 13.2291 14.725 13.2291 15.2477ZM13.9704 5.68501C13.9704 8.23967 13.9704 10.7677 13.9704 13.2957C14.5624 13.2957 15.1331 13.2957 15.7037 13.2957C15.7037 10.7463 15.7037 8.21834 15.7037 5.68501C15.1171 5.68501 14.5517 5.68501 13.9704 5.68501ZM27.0157 13.301C27.0157 10.7463 27.0157 8.21834 27.0157 5.69034C26.4611 5.69034 25.9224 5.69034 25.389 5.69034C25.389 8.23967 25.389 10.7623 25.389 13.301C25.9331 13.301 26.4664 13.301 27.0157 13.301ZM23.9224 13.3063C23.9224 10.7517 23.9224 8.22367 23.9224 5.69034C23.5277 5.69034 23.1491 5.69034 22.7704 5.69034C22.7704 8.23967 22.7704 10.773 22.7704 13.3063C23.1704 13.3063 23.5384 13.3063 23.9224 13.3063ZM18.3224 13.301C18.3224 10.757 18.3224 8.22367 18.3224 5.69034C17.9277 5.69034 17.5491 5.69034 17.1651 5.69034C17.1651 8.23434 17.1651 10.757 17.1651 13.301C17.5597 13.301 17.9331 13.301 18.3224 13.301ZM16.7757 13.301C16.7757 10.7463 16.7757 8.21834 16.7757 5.67967C16.5411 5.66901 16.3224 5.65301 16.0931 5.69034C16.0931 8.23434 16.0931 10.7623 16.0931 13.3063C16.3224 13.317 16.5411 13.3223 16.7757 13.301ZM24.3117 5.67967C24.3117 8.23434 24.3117 10.7623 24.3117 13.301C24.5517 13.3117 24.7757 13.3223 24.989 13.2957C24.989 10.7357 24.989 8.20767 24.989 5.67434C24.7544 5.67967 24.5464 5.67967 24.3117 5.67967ZM16.4771 15.605C16.4771 16.549 16.4771 17.461 16.4771 18.4157C16.9411 18.0797 17.3784 17.7597 17.8157 17.445C17.8851 17.3917 17.8691 17.3223 17.8637 17.253C17.8637 16.837 17.8637 16.421 17.8584 15.9997C17.8584 15.8717 17.8851 15.7383 17.8317 15.605C17.3784 15.605 16.9411 15.605 16.4771 15.605ZM24.4024 18.3357C24.4024 17.397 24.4024 16.5063 24.4024 15.6157C23.9704 15.6157 23.5597 15.6157 23.1277 15.6157C23.1277 16.1917 23.1277 16.7517 23.1277 17.3063C23.1277 17.3703 23.1491 17.429 23.2024 17.4663C23.5971 17.749 23.9864 18.037 24.4024 18.3357ZM18.2264 17.1463C18.9304 16.6343 19.6024 16.1437 20.3224 15.621C19.5757 15.621 18.9037 15.621 18.2264 15.621C18.2264 16.1277 18.2264 16.6077 18.2264 17.1463ZM22.7597 15.6103C22.0611 15.6103 21.3944 15.6103 20.7224 15.6103C20.7171 15.6263 20.7117 15.637 20.7011 15.653C21.3731 16.1437 22.0504 16.6343 22.7544 17.1463C22.7597 16.6077 22.7597 16.1223 22.7597 15.6103Z" fill="url(#paint10_linear)"/>
<path d="M22.0826 21.5518V22.9758H21.9172C21.1332 22.9864 20.5039 23.1891 20.0292 23.5891C19.5546 23.9838 19.2666 24.5331 19.1706 25.2371C19.6346 24.7678 20.2212 24.5278 20.9252 24.5278C21.6826 24.5278 22.2852 24.7998 22.7332 25.3438C23.1812 25.8878 23.4052 26.6024 23.4052 27.4878C23.4052 28.0531 23.2826 28.5704 23.0372 29.0291C22.7919 29.4878 22.4452 29.8451 21.9972 30.1011C21.5492 30.3571 21.0372 30.4851 20.4719 30.4851C19.5546 30.4851 18.8132 30.1651 18.2479 29.5251C17.6826 28.8851 17.3999 28.0318 17.3999 26.9651V26.3464C17.3999 25.4024 17.5759 24.5651 17.9386 23.8398C18.2959 23.1144 18.8079 22.5544 19.4799 22.1544C20.1466 21.7598 20.9252 21.5571 21.8052 21.5518H22.0826ZM20.3919 25.9251C20.1146 25.9251 19.8586 25.9998 19.6292 26.1438C19.3999 26.2878 19.2346 26.4798 19.1279 26.7198V27.2478C19.1279 27.8238 19.2399 28.2771 19.4692 28.6024C19.6986 28.9278 20.0186 29.0878 20.4292 29.0878C20.8026 29.0878 21.1012 28.9438 21.3306 28.6504C21.5599 28.3571 21.6772 27.9784 21.6772 27.5091C21.6772 27.0344 21.5599 26.6504 21.3306 26.3624C21.0959 26.0691 20.7866 25.9251 20.3919 25.9251Z" fill="#3A3A3A"/>
<defs>
<linearGradient id="paint0_linear" x1="14.8382" y1="5.63151" x2="14.8382" y2="13.3515" gradientUnits="userSpaceOnUse">
<stop stop-color="#C80000"/>
<stop offset="1" stop-color="#8E0000"/>
</linearGradient>
<linearGradient id="paint1_linear" x1="26.1999" y1="5.63858" x2="26.1999" y2="13.3561" gradientUnits="userSpaceOnUse">
<stop stop-color="#C80000"/>
<stop offset="1" stop-color="#8E0000"/>
</linearGradient>
<linearGradient id="paint2_linear" x1="23.3487" y1="5.63299" x2="23.3487" y2="13.3575" gradientUnits="userSpaceOnUse">
<stop stop-color="#C80000"/>
<stop offset="1" stop-color="#8E0000"/>
</linearGradient>
<linearGradient id="paint3_linear" x1="17.7455" y1="5.636" x2="17.7455" y2="13.3521" gradientUnits="userSpaceOnUse">
<stop stop-color="#C80000"/>
<stop offset="1" stop-color="#8E0000"/>
</linearGradient>
<linearGradient id="paint4_linear" x1="13.1798" y1="14.4836" x2="27.7907" y2="14.4836" gradientUnits="userSpaceOnUse">
<stop stop-color="#A2B3CC"/>
<stop offset="0.0581166" stop-color="#B2C5D8"/>
<stop offset="0.1603" stop-color="#C8DEE9"/>
<stop offset="0.2669" stop-color="#D8F0F5"/>
<stop offset="0.3795" stop-color="#E2FBFD"/>
<stop offset="0.5083" stop-color="#E5FEFF"/>
<stop offset="0.6546" stop-color="#E2FBFD"/>
<stop offset="0.7578" stop-color="#DAF2F7"/>
<stop offset="0.8477" stop-color="#CCE2EC"/>
<stop offset="0.9296" stop-color="#B9CDDD"/>
<stop offset="1" stop-color="#A2B3CC"/>
</linearGradient>
<linearGradient id="paint5_linear" x1="13.8648" y1="33.3068" x2="27.0713" y2="20.1003" gradientUnits="userSpaceOnUse">
<stop stop-color="#A8ACB2"/>
<stop offset="0.195" stop-color="#B8BABE"/>
<stop offset="0.5083" stop-color="#D9D9D9"/>
<stop offset="0.7843" stop-color="#BBBDC1"/>
<stop offset="1" stop-color="#A8ACB2"/>
</linearGradient>
<linearGradient id="paint6_linear" x1="17.1746" y1="18.5673" x2="17.1746" y2="15.5894" gradientUnits="userSpaceOnUse">
<stop stop-color="#A2B3CC"/>
<stop offset="0.3188" stop-color="#CFE5EE"/>
<stop offset="0.5083" stop-color="#E5FEFF"/>
<stop offset="1" stop-color="#A2B3CC"/>
</linearGradient>
<linearGradient id="paint7_linear" x1="23.7484" y1="18.3795" x2="23.7484" y2="15.5902" gradientUnits="userSpaceOnUse">
<stop stop-color="#A2B3CC"/>
<stop offset="0.3188" stop-color="#CFE5EE"/>
<stop offset="0.5083" stop-color="#E5FEFF"/>
<stop offset="1" stop-color="#A2B3CC"/>
</linearGradient>
<linearGradient id="paint8_linear" x1="15.0826" y1="31.9693" x2="25.8692" y2="21.1828" gradientUnits="userSpaceOnUse">
<stop stop-color="#CED1CE"/>
<stop offset="0.1383" stop-color="#D3D5D3"/>
<stop offset="0.2949" stop-color="#E0E2E0"/>
<stop offset="0.4597" stop-color="#F7F7F7"/>
<stop offset="0.5083" stop-color="#FFFEFF"/>
<stop offset="0.5742" stop-color="#F3F3F3"/>
<stop offset="0.7185" stop-color="#DEE0DE"/>
<stop offset="0.8613" stop-color="#D2D5D2"/>
<stop offset="1" stop-color="#CED1CE"/>
</linearGradient>
<linearGradient id="paint9_linear" x1="13.4117" y1="21.9998" x2="26.6132" y2="31.2436" gradientUnits="userSpaceOnUse">
<stop stop-color="#6B6B6B"/>
<stop offset="0.0705853" stop-color="#737373"/>
<stop offset="0.1807" stop-color="#898989"/>
<stop offset="0.3164" stop-color="#ADADAD"/>
<stop offset="0.4714" stop-color="#DFDFDF"/>
<stop offset="0.5083" stop-color="#ECECEC"/>
<stop offset="0.5108" stop-color="#EBEBEB"/>
<stop offset="0.6245" stop-color="#BDBDBD"/>
<stop offset="0.7336" stop-color="#9A9A9A"/>
<stop offset="0.8353" stop-color="#808080"/>
<stop offset="0.927" stop-color="#707070"/>
<stop offset="1" stop-color="#6B6B6B"/>
</linearGradient>
<linearGradient id="paint10_linear" x1="20.4991" y1="34.5556" x2="20.4991" y2="5.33138" gradientUnits="userSpaceOnUse">
<stop offset="0.675" stop-color="#656565"/>
<stop offset="0.7383" stop-color="#684242"/>
<stop offset="0.8052" stop-color="#6B2525"/>
<stop offset="0.8718" stop-color="#6D1111"/>
<stop offset="0.9372" stop-color="#6F0404"/>
<stop offset="1" stop-color="#6F0000"/>
</linearGradient>
</defs>
</svg>
