<svg width="40" height="40" viewBox="0 0 40 40" fill="none" xmlns="http://www.w3.org/2000/svg">
<path d="M27.7842 13.5947C27.7842 14.1761 27.7842 14.7414 27.7842 15.3174C22.9096 15.3174 18.0456 15.3174 13.1709 15.3174C13.1709 14.7414 13.1709 14.1761 13.1709 13.5947C18.0349 13.5947 22.8989 13.5947 27.7842 13.5947Z" fill="url(#paint0_linear)"/>
<path d="M14.6909 34.0218C14.5042 33.4618 14.3229 32.9071 14.1416 32.3524C13.1549 29.3071 12.1682 26.2618 11.1709 23.2218C11.1069 23.0298 11.1496 22.9391 11.2989 22.8271C13.9976 20.8751 16.6909 18.9231 19.3896 16.9658C19.6989 16.7418 20.0136 16.5231 20.3122 16.2831C20.4509 16.1764 20.5416 16.1818 20.6802 16.2831C21.8322 17.1311 22.9896 17.9684 24.1469 18.8058C25.9816 20.1338 27.8109 21.4671 29.6456 22.7951C29.8162 22.9178 29.8856 23.0138 29.8056 23.2484C28.6589 26.7418 27.5229 30.2458 26.3922 33.7444C26.3229 33.9631 26.2322 34.0218 26.0082 34.0218C22.3282 34.0164 18.6482 34.0164 14.9682 34.0164C14.8829 34.0218 14.7976 34.0218 14.6909 34.0218ZM20.4402 32.9604C22.0402 32.9604 23.6402 32.9604 25.2402 32.9658C25.4109 32.9658 25.4909 32.9231 25.5442 32.7524C26.5149 29.7338 27.4856 26.7204 28.4776 23.7124C28.5576 23.4724 28.4989 23.3658 28.3122 23.2378C27.5656 22.7151 26.8242 22.1764 26.0829 21.6378C24.2589 20.3098 22.4349 18.9818 20.6162 17.6484C20.4989 17.5631 20.4242 17.5684 20.3122 17.6538C19.9869 17.8991 19.6562 18.1391 19.3256 18.3791C17.0749 20.0111 14.8296 21.6484 12.5736 23.2804C12.4242 23.3871 12.3496 23.4831 12.4456 23.6751C12.5202 23.8244 12.5469 23.9951 12.6002 24.1551C13.5282 27.0244 14.4616 29.8938 15.3896 32.7684C15.4376 32.9231 15.5069 32.9764 15.6722 32.9764C17.2562 32.9551 18.8509 32.9604 20.4402 32.9604Z" fill="url(#paint1_linear)"/>
<path d="M18.3227 13.3011C16.856 13.3011 15.4213 13.3011 13.9653 13.3011C13.9653 10.7624 13.9653 8.23443 13.9653 5.69043C15.416 5.69043 16.8613 5.69043 18.3227 5.69043C18.3227 8.22376 18.3227 10.7518 18.3227 13.3011Z" fill="url(#paint2_linear)"/>
<path d="M27.0212 5.69043C27.0212 8.23443 27.0212 10.7518 27.0212 13.2958C25.6025 13.2958 24.1945 13.2958 22.7705 13.2958C22.7705 10.7624 22.7705 8.23976 22.7705 5.69043C24.1785 5.69043 25.5865 5.69043 27.0212 5.69043Z" fill="url(#paint3_linear)"/>
<path d="M22.3813 5.69043C22.3813 8.22376 22.3813 10.7518 22.3813 13.2958C21.1599 13.2958 19.9493 13.2958 18.7173 13.2958C18.7173 10.7624 18.7173 8.23976 18.7173 5.69043C19.9333 5.69043 21.1493 5.69043 22.3813 5.69043Z" fill="white"/>
<path d="M16.4722 18.4215C16.4722 17.4562 16.4722 16.5442 16.4722 15.6162C16.9308 15.6162 17.3788 15.6162 17.8642 15.6162C17.8642 16.0749 17.8375 16.5335 17.8748 16.9922C17.9015 17.3175 17.7842 17.5095 17.5175 17.6749C17.1655 17.8935 16.8402 18.1549 16.4722 18.4215Z" fill="url(#paint4_linear)"/>
<path d="M24.403 18.3362C23.9924 18.0429 23.6084 17.7655 23.2244 17.4829C23.1764 17.4455 23.1337 17.3655 23.1284 17.3069C23.123 16.7522 23.123 16.1922 23.123 15.6162C23.555 15.6162 23.9657 15.6162 24.3977 15.6162C24.403 16.5069 24.403 17.3975 24.403 18.3362Z" fill="url(#paint5_linear)"/>
<path d="M20.4403 32.9602C18.851 32.9602 17.2563 32.9602 15.667 32.9656C15.5017 32.9656 15.4377 32.9122 15.3843 32.7576C14.4563 29.8882 13.5283 27.0136 12.595 24.1442C12.5417 23.9842 12.515 23.8136 12.4403 23.6642C12.3443 23.4722 12.4243 23.3762 12.5683 23.2696C14.819 21.6376 17.0697 20.0056 19.3203 18.3682C19.651 18.1282 19.9817 17.8882 20.307 17.6429C20.419 17.5576 20.4937 17.5522 20.611 17.6376C22.4297 18.9709 24.2537 20.2989 26.0777 21.6269C26.819 22.1656 27.5603 22.7042 28.307 23.2269C28.4937 23.3549 28.5523 23.4616 28.4723 23.7016C27.4857 26.7096 26.5097 29.7282 25.539 32.7416C25.4857 32.9122 25.4057 32.9549 25.235 32.9549C23.6403 32.9549 22.0403 32.9602 20.4403 32.9602ZM20.4723 17.9576C20.419 17.9949 20.3817 18.0162 20.3443 18.0429C18.867 19.1202 17.3843 20.1976 15.907 21.2749C14.915 21.9949 13.923 22.7149 12.931 23.4349C12.835 23.5042 12.755 23.5522 12.8083 23.7122C13.7523 26.6082 14.691 29.5042 15.6243 32.4002C15.683 32.5762 15.763 32.6296 15.9443 32.6296C18.9577 32.6242 21.971 32.6242 24.9843 32.6296C25.1763 32.6296 25.2457 32.5656 25.299 32.3949C25.4217 31.9842 25.5603 31.5842 25.6937 31.1789C26.4937 28.7042 27.2937 26.2296 28.099 23.7602C28.147 23.6162 28.1417 23.5309 28.0083 23.4509C27.8963 23.3816 27.7897 23.2962 27.683 23.2162C26.7123 22.5122 25.7417 21.8082 24.771 21.1042C23.347 20.0536 21.9177 19.0136 20.4723 17.9576Z" fill="url(#paint6_linear)"/>
<path d="M20.4721 17.957C21.9174 19.013 23.3468 20.053 24.7708 21.093C25.7414 21.797 26.7121 22.501 27.6828 23.205C27.7894 23.285 27.8961 23.3704 28.0081 23.4397C28.1414 23.5197 28.1414 23.6104 28.0988 23.749C27.2934 26.2184 26.4934 28.693 25.6934 31.1677C25.5601 31.573 25.4214 31.9784 25.2988 32.3837C25.2508 32.5544 25.1761 32.6184 24.9841 32.6184C21.9708 32.613 18.9574 32.613 15.9441 32.6184C15.7628 32.6184 15.6774 32.565 15.6241 32.389C14.6908 29.493 13.7521 26.597 12.8081 23.701C12.7548 23.5464 12.8348 23.493 12.9308 23.4237C13.9228 22.7037 14.9148 21.9837 15.9068 21.2637C17.3894 20.1864 18.8668 19.109 20.3441 18.0317C20.3814 18.0157 20.4188 17.9944 20.4721 17.957Z" fill="url(#paint7_linear)"/>
<path d="M22.1308 26.9068H23.1175V28.3041H22.1308V30.1868H20.3975V28.2988H16.8241L16.7441 27.2108L20.3815 21.4668H22.1308V26.9068ZM18.4721 26.9068H20.4028V23.8295L20.2908 24.0268L18.4721 26.9068Z" fill="#3A3A3A"/>
<path d="M24.7815 15.6106C24.7815 16.592 24.7762 17.5413 24.7868 18.4906C24.7868 18.5653 24.8615 18.6666 24.9308 18.7146C26.1468 19.6053 27.3682 20.4906 28.5948 21.3813C29.1708 21.7973 29.7415 22.224 30.3228 22.6293C30.4882 22.7413 30.4988 22.8586 30.4455 23.0293C29.7735 25.0773 29.1068 27.1253 28.4402 29.1733C27.8908 30.8586 27.3362 32.544 26.8028 34.2346C26.7228 34.48 26.6215 34.5653 26.3602 34.56C22.4562 34.5493 18.5575 34.5493 14.6535 34.56C14.3922 34.56 14.2748 34.4906 14.1895 34.2293C12.9842 30.5013 11.7682 26.7733 10.5522 23.0506C10.4882 22.8533 10.5148 22.7413 10.6908 22.6133C12.4295 21.3653 14.1575 20.1013 15.8908 18.848C16.0455 18.736 16.1042 18.6186 16.1042 18.432C16.0935 17.5786 16.0988 16.7253 16.0988 15.872C16.0988 15.792 16.0988 15.7173 16.0988 15.6213C15.9975 15.616 15.9228 15.6053 15.8428 15.6053C14.9468 15.6053 14.0455 15.6 13.1495 15.6106C12.9575 15.6106 12.8775 15.5626 12.8828 15.36C12.8935 14.7733 12.8882 14.1866 12.8828 13.6C12.8828 13.4133 12.9522 13.344 13.1335 13.36C13.2722 13.3706 13.4162 13.36 13.5708 13.36C13.5762 13.264 13.5868 13.1893 13.5868 13.1093C13.5868 10.6026 13.5868 8.09597 13.5815 5.58931C13.5815 5.33864 13.6828 5.30664 13.8962 5.30664C18.2855 5.31197 22.6748 5.31197 27.0695 5.31197C27.3948 5.31197 27.3948 5.31197 27.3948 5.62664C27.3948 8.14397 27.3948 10.656 27.3948 13.1733C27.3948 13.2266 27.4002 13.2746 27.4055 13.36C27.5548 13.36 27.6935 13.3706 27.8322 13.3546C28.0508 13.328 28.1042 13.424 28.0988 13.632C28.0882 14.2026 28.0882 14.768 28.0988 15.3386C28.1042 15.552 28.0348 15.6106 27.8215 15.6053C26.8775 15.5946 25.9388 15.6 24.9948 15.6C24.9415 15.6 24.8775 15.6053 24.7815 15.6106ZM14.6908 34.0213C14.7975 34.0213 14.8828 34.0213 14.9735 34.0213C18.6535 34.0213 22.3335 34.0213 26.0135 34.0266C26.2375 34.0266 26.3282 33.9626 26.3975 33.7493C27.5282 30.2453 28.6642 26.7466 29.8108 23.2533C29.8855 23.0186 29.8162 22.9226 29.6508 22.8C27.8162 21.472 25.9815 20.144 24.1522 18.8106C22.9948 17.9733 21.8375 17.1306 20.6855 16.288C20.5468 16.1866 20.4562 16.176 20.3175 16.288C20.0188 16.5226 19.7042 16.7466 19.3948 16.9706C16.6962 18.9226 13.9975 20.8746 11.2988 22.8266C11.1495 22.9333 11.1068 23.0293 11.1708 23.2213C12.1682 26.2613 13.1495 29.3066 14.1415 32.352C14.3228 32.9066 14.5042 33.4613 14.6908 34.0213ZM18.3228 13.3013C18.3228 10.752 18.3228 8.22397 18.3228 5.69064C16.8668 5.69064 15.4215 5.69064 13.9655 5.69064C13.9655 8.23464 13.9655 10.7626 13.9655 13.3013C15.4215 13.3013 16.8615 13.3013 18.3228 13.3013ZM27.0215 5.69064C25.5868 5.69064 24.1788 5.69064 22.7708 5.69064C22.7708 8.23464 22.7708 10.7626 22.7708 13.296C24.1948 13.296 25.6028 13.296 27.0215 13.296C27.0215 10.7573 27.0215 8.23464 27.0215 5.69064ZM22.3815 5.69064C21.1495 5.69064 19.9335 5.69064 18.7175 5.69064C18.7175 8.23464 18.7175 10.7626 18.7175 13.296C19.9442 13.296 21.1548 13.296 22.3815 13.296C22.3815 10.752 22.3815 8.22931 22.3815 5.69064ZM27.7575 13.712C22.8988 13.712 18.0615 13.712 13.2348 13.712C13.2348 14.24 13.2348 14.7466 13.2348 15.2533C18.0882 15.2533 22.9148 15.2533 27.7575 15.2533C27.7575 14.736 27.7575 14.2346 27.7575 13.712ZM16.4722 18.4213C16.8402 18.1546 17.1655 17.8933 17.5175 17.6746C17.7842 17.5093 17.9015 17.3173 17.8748 16.992C17.8375 16.5386 17.8642 16.08 17.8642 15.616C17.3788 15.616 16.9308 15.616 16.4722 15.616C16.4722 16.544 16.4722 17.4506 16.4722 18.4213ZM24.4028 18.336C24.4028 17.4026 24.4028 16.5066 24.4028 15.616C23.9708 15.616 23.5602 15.616 23.1282 15.616C23.1282 16.192 23.1228 16.7466 23.1335 17.3066C23.1335 17.3653 23.1762 17.4453 23.2295 17.4826C23.6082 17.7653 23.9922 18.0373 24.4028 18.336ZM20.3335 15.616C19.5868 15.616 18.9148 15.616 18.2428 15.616C18.2428 16.1226 18.2428 16.6133 18.2428 17.1413C18.9415 16.6293 19.6082 16.1386 20.3335 15.616ZM20.7335 15.6106C20.7282 15.6266 20.7228 15.6426 20.7122 15.6586C21.3842 16.144 22.0562 16.6346 22.7495 17.136C22.7495 16.592 22.7495 16.1066 22.7495 15.6053C22.0722 15.6106 21.4002 15.6106 20.7335 15.6106Z" fill="url(#paint8_linear)"/>
<defs>
<linearGradient id="paint0_linear" x1="13.1716" y1="14.4551" x2="27.7825" y2="14.4551" gradientUnits="userSpaceOnUse">
<stop stop-color="#A2B3CC"/>
<stop offset="0.0581166" stop-color="#B2C5D8"/>
<stop offset="0.1603" stop-color="#C8DEE9"/>
<stop offset="0.2669" stop-color="#D8F0F5"/>
<stop offset="0.3795" stop-color="#E2FBFD"/>
<stop offset="0.5083" stop-color="#E5FEFF"/>
<stop offset="0.6546" stop-color="#E2FBFD"/>
<stop offset="0.7578" stop-color="#DAF2F7"/>
<stop offset="0.8477" stop-color="#CCE2EC"/>
<stop offset="0.9296" stop-color="#B9CDDD"/>
<stop offset="1" stop-color="#A2B3CC"/>
</linearGradient>
<linearGradient id="paint1_linear" x1="13.9223" y1="33.2524" x2="27.0204" y2="20.1543" gradientUnits="userSpaceOnUse">
<stop stop-color="#A8ACB2"/>
<stop offset="0.195" stop-color="#B8BABE"/>
<stop offset="0.5083" stop-color="#D9D9D9"/>
<stop offset="0.7843" stop-color="#BBBDC1"/>
<stop offset="1" stop-color="#A8ACB2"/>
</linearGradient>
<linearGradient id="paint2_linear" x1="16.1479" y1="13.2994" x2="16.1479" y2="5.68979" gradientUnits="userSpaceOnUse">
<stop stop-color="#1DBDFF"/>
<stop offset="0.1394" stop-color="#1DCCFF"/>
<stop offset="0.3385" stop-color="#1DDAFF"/>
<stop offset="0.5828" stop-color="#1DE3FF"/>
<stop offset="1" stop-color="#1DE5FF"/>
</linearGradient>
<linearGradient id="paint3_linear" x1="24.8967" y1="13.2936" x2="24.8967" y2="5.69072" gradientUnits="userSpaceOnUse">
<stop stop-color="#1DBDFF"/>
<stop offset="0.1394" stop-color="#1DCCFF"/>
<stop offset="0.3385" stop-color="#1DDAFF"/>
<stop offset="0.5828" stop-color="#1DE3FF"/>
<stop offset="1" stop-color="#1DE5FF"/>
</linearGradient>
<linearGradient id="paint4_linear" x1="17.172" y1="18.42" x2="17.172" y2="15.6146" gradientUnits="userSpaceOnUse">
<stop stop-color="#A2B3CC"/>
<stop offset="0.3188" stop-color="#CFE5EE"/>
<stop offset="0.5083" stop-color="#E5FEFF"/>
<stop offset="1" stop-color="#A2B3CC"/>
</linearGradient>
<linearGradient id="paint5_linear" x1="23.764" y1="18.335" x2="23.764" y2="15.6154" gradientUnits="userSpaceOnUse">
<stop stop-color="#A2B3CC"/>
<stop offset="0.3188" stop-color="#CFE5EE"/>
<stop offset="0.5083" stop-color="#E5FEFF"/>
<stop offset="1" stop-color="#A2B3CC"/>
</linearGradient>
<linearGradient id="paint6_linear" x1="13.399" y1="22.022" x2="26.6048" y2="31.2688" gradientUnits="userSpaceOnUse">
<stop stop-color="#6B6B6B"/>
<stop offset="0.0705853" stop-color="#737373"/>
<stop offset="0.1807" stop-color="#898989"/>
<stop offset="0.3164" stop-color="#ADADAD"/>
<stop offset="0.4714" stop-color="#DFDFDF"/>
<stop offset="0.5083" stop-color="#ECECEC"/>
<stop offset="0.5108" stop-color="#EBEBEB"/>
<stop offset="0.6245" stop-color="#BDBDBD"/>
<stop offset="0.7336" stop-color="#9A9A9A"/>
<stop offset="0.8353" stop-color="#808080"/>
<stop offset="0.927" stop-color="#707070"/>
<stop offset="1" stop-color="#6B6B6B"/>
</linearGradient>
<linearGradient id="paint7_linear" x1="15.1083" y1="31.9476" x2="25.8212" y2="21.2348" gradientUnits="userSpaceOnUse">
<stop stop-color="#CED1CE"/>
<stop offset="0.1383" stop-color="#D3D5D3"/>
<stop offset="0.2949" stop-color="#E0E2E0"/>
<stop offset="0.4597" stop-color="#F7F7F7"/>
<stop offset="0.5083" stop-color="#FFFEFF"/>
<stop offset="0.5742" stop-color="#F3F3F3"/>
<stop offset="0.7185" stop-color="#DEE0DE"/>
<stop offset="0.8613" stop-color="#D2D5D2"/>
<stop offset="1" stop-color="#CED1CE"/>
</linearGradient>
<linearGradient id="paint8_linear" x1="20.496" y1="5.30593" x2="20.496" y2="34.5614" gradientUnits="userSpaceOnUse">
<stop stop-color="#0073BF"/>
<stop offset="0.129" stop-color="#0273BD"/>
<stop offset="0.1755" stop-color="#0972B7"/>
<stop offset="0.2086" stop-color="#1470AD"/>
<stop offset="0.2354" stop-color="#256E9E"/>
<stop offset="0.2584" stop-color="#3B6B8A"/>
<stop offset="0.2783" stop-color="#566772"/>
<stop offset="0.2875" stop-color="#656565"/>
</linearGradient>
</defs>
</svg>
