<svg width="40" height="40" viewBox="0 0 40 40" fill="none" xmlns="http://www.w3.org/2000/svg">
<path d="M11.3359 25.6216C11.3359 24.0909 11.3412 22.5549 11.3306 21.0243C11.3306 20.8483 11.3839 20.7523 11.5386 20.6669C14.1946 19.1416 16.8452 17.6109 19.4959 16.0749C19.6666 15.9789 19.7839 15.9789 19.9546 16.0749C22.6106 17.6163 25.2719 19.1523 27.9332 20.6829C28.0666 20.7629 28.1146 20.8483 28.1146 20.9976C28.1092 24.0909 28.1092 27.1843 28.1146 30.2776C28.1146 30.4323 28.0666 30.5176 27.9279 30.5923C25.2506 32.1336 22.5732 33.6749 19.9012 35.2216C19.7679 35.3016 19.6719 35.2963 19.5386 35.2216C16.8666 33.6749 14.1892 32.1283 11.5119 30.5923C11.3626 30.5069 11.3306 30.4056 11.3306 30.2456C11.3359 28.7043 11.3359 27.1629 11.3359 25.6216ZM27.0052 25.6376C27.0052 24.2829 27.0052 22.9229 27.0159 21.5683C27.0159 21.4136 27.0159 21.4243 26.8826 21.3443C24.5412 20.0003 22.2426 18.6723 19.9066 17.3176C19.7839 17.2483 19.7679 17.2269 19.6399 17.3016C17.2932 18.6616 15.0052 19.9576 12.6532 21.3069C12.5252 21.3816 12.4826 21.4136 12.4826 21.5576C12.4879 24.2723 12.4879 26.9656 12.4826 29.6803C12.4826 29.8243 12.5199 29.8456 12.6532 29.9203C14.9946 31.2643 17.2399 32.5656 19.5759 33.9203C19.7092 33.9949 19.7839 34.0003 19.9226 33.9203C22.2692 32.5603 24.5412 31.2429 26.8932 29.8936C27.0266 29.8189 27.0159 29.7869 27.0159 29.6536C27.0106 28.3096 27.0052 26.9923 27.0052 25.6376Z" fill="url(#paint0_linear)"/>
<path d="M27.117 13.6641C27.117 14.2294 27.117 14.7787 27.117 15.3441C22.2317 15.3441 17.3624 15.3441 12.4771 15.3441C12.4771 14.7841 12.4771 14.2347 12.4771 13.6641C17.3517 13.6641 22.221 13.6641 27.117 13.6641Z" fill="url(#paint1_linear)"/>
<path d="M15.7466 17.8244C15.7466 17.0458 15.7466 16.3258 15.7466 15.5791C16.2319 15.5791 16.7119 15.5791 17.2186 15.5791C17.2186 16.0111 17.2186 16.4431 17.2186 16.8698C17.2186 16.9444 17.1812 16.9924 17.1226 17.0298C16.6746 17.2911 16.2319 17.5471 15.7466 17.8244Z" fill="url(#paint2_linear)"/>
<path d="M23.7573 15.5737C23.7573 16.3364 23.7573 17.0724 23.7573 17.819C23.5813 17.7977 23.4533 17.6804 23.3093 17.6004C23.0533 17.4617 22.7973 17.3124 22.5413 17.1684C22.4613 17.1204 22.376 17.083 22.376 16.9604C22.3813 16.5017 22.376 16.043 22.376 15.5684C22.8453 15.5737 23.288 15.5737 23.7573 15.5737Z" fill="url(#paint3_linear)"/>
<path d="M26.8187 25.6373C26.8187 26.912 26.8133 28.1866 26.824 29.456C26.824 29.6373 26.7707 29.7386 26.6053 29.8346C24.392 31.0986 22.184 32.3733 19.9813 33.648C19.8 33.7493 19.672 33.7546 19.496 33.648C17.2933 32.368 15.08 31.0986 12.872 29.8346C12.7067 29.7386 12.6533 29.6426 12.6533 29.456C12.6587 26.9013 12.6587 24.3413 12.6533 21.7866C12.6533 21.6053 12.7067 21.504 12.872 21.408C15.0853 20.144 17.2933 18.8693 19.496 17.5946C19.6773 17.4933 19.8053 17.4879 19.9813 17.5946C22.184 18.8746 24.3973 20.144 26.6053 21.408C26.7707 21.504 26.824 21.6 26.824 21.7866C26.8187 23.072 26.8187 24.3573 26.8187 25.6373Z" fill="url(#paint4_linear)"/>
<path d="M27.0532 25.6267C27.0532 26.9707 27.0532 28.3093 27.0532 29.6533C27.0532 29.7867 27.0319 29.872 26.8986 29.952C24.5679 31.2907 22.2372 32.6347 19.9119 33.984C19.7732 34.064 19.6825 34.0533 19.5545 33.9786C17.2345 32.6347 14.9145 31.296 12.5945 29.9627C12.4665 29.888 12.4292 29.8133 12.4292 29.6747C12.4345 26.9813 12.4345 24.2933 12.4292 21.6C12.4292 21.456 12.4719 21.3867 12.5999 21.312C14.9305 19.9733 17.2559 18.6293 19.5812 17.28C19.7092 17.2053 19.7945 17.216 19.9172 17.2853C22.2372 18.6293 24.5572 19.9733 26.8772 21.3067C27.0106 21.3813 27.0586 21.4613 27.0586 21.616C27.0532 22.944 27.0532 24.2827 27.0532 25.6267ZM26.7439 25.6373C26.7439 24.368 26.7386 23.0933 26.7492 21.824C26.7492 21.6427 26.6959 21.5413 26.5359 21.4507C24.3492 20.1973 22.1679 18.9387 19.9865 17.6693C19.8105 17.568 19.6825 17.568 19.5065 17.6693C17.3252 18.9387 15.1439 20.1973 12.9572 21.4507C12.7972 21.5413 12.7439 21.6427 12.7439 21.824C12.7492 24.3573 12.7492 26.8907 12.7439 29.424C12.7439 29.6053 12.7972 29.7067 12.9572 29.7973C15.1439 31.0507 17.3252 32.3093 19.5065 33.5786C19.6825 33.68 19.8105 33.68 19.9865 33.5786C22.1679 32.3093 24.3492 31.0507 26.5359 29.7973C26.6959 29.7067 26.7492 29.6053 26.7492 29.424C26.7386 28.1653 26.7439 26.9013 26.7439 25.6373Z" fill="url(#paint5_linear)"/>
<path d="M3.61851 22.8264C4.40784 22.8051 5.18117 22.7998 5.94917 22.8478C7.34117 22.9384 8.73317 23.0344 10.1252 23.1304C10.2105 23.1358 10.3225 23.1731 10.3438 23.0451C10.3652 22.9011 10.2265 22.9064 10.1412 22.8904C9.38384 22.7571 8.62117 22.6451 7.86384 22.5064C6.66384 22.2824 5.50117 21.9411 4.43451 21.3224C3.05851 20.5224 2.14117 19.3811 1.82117 17.8024C1.78917 17.6371 1.76784 17.4717 1.73584 17.2744C5.13851 18.1757 8.50917 19.0611 11.9332 19.9678C11.6452 20.1331 11.4158 20.2771 11.1758 20.3998C11.0212 20.4798 10.9625 20.5811 10.9625 20.7518C10.9678 23.1091 10.9678 25.4611 10.9678 27.8184C10.9678 27.9144 10.9678 28.0104 10.9678 28.1331C10.5838 28.1331 10.2212 28.0584 9.86384 27.9998C9.21851 27.8931 8.57317 27.7704 7.95451 27.5251C7.75717 27.4451 7.55984 27.3598 7.40517 27.2051C7.21317 27.0184 7.22384 26.9064 7.45317 26.7731C7.85851 26.5331 8.31717 26.4691 8.77584 26.3998C8.98384 26.3678 9.19717 26.3304 9.40517 26.2984C9.47451 26.2878 9.55451 26.2878 9.55984 26.1918C9.56517 26.0851 9.50117 26.0318 9.39984 26.0158C9.08517 25.9678 8.77051 25.9198 8.45584 25.8664C7.50117 25.7011 6.56251 25.4824 5.67717 25.0664C5.09051 24.7944 4.55717 24.4478 4.15184 23.9358C3.88517 23.6158 3.70917 23.2531 3.61851 22.8264Z" fill="url(#paint6_linear)"/>
<path d="M28.5308 28.154C28.5308 28.0473 28.5308 27.9673 28.5308 27.8873C28.5308 25.514 28.5308 23.1406 28.5361 20.7673C28.5361 20.5806 28.4828 20.474 28.3121 20.394C28.0774 20.2766 27.8534 20.1326 27.5654 19.9673C30.9894 19.0606 34.3547 18.1753 37.7361 17.2793C37.7627 17.4713 37.7041 17.642 37.6721 17.8126C37.3787 19.2686 36.5627 20.3673 35.3254 21.162C34.2694 21.834 33.1014 22.2073 31.8854 22.458C31.0587 22.6286 30.2268 22.7353 29.4001 22.8846C29.3574 22.89 29.3148 22.906 29.2721 22.9113C29.2028 22.922 29.1548 22.9486 29.1548 23.0286C29.1601 23.13 29.2348 23.1353 29.3094 23.13C29.6454 23.1086 29.9814 23.0926 30.3174 23.066C32.1254 22.9273 33.9281 22.762 35.7467 22.8206C35.7841 22.8206 35.8161 22.826 35.8747 22.8313C35.8001 23.2473 35.6187 23.5993 35.3627 23.9246C34.8614 24.5593 34.1841 24.938 33.4534 25.2313C32.4827 25.6206 31.4641 25.8073 30.4401 25.9673C30.3174 25.9886 30.1948 25.9993 30.0721 26.026C29.9921 26.042 29.9494 26.1006 29.9494 26.1806C29.9441 26.2766 30.0134 26.2873 30.0881 26.3033C30.4934 26.3673 30.8934 26.4313 31.2934 26.5006C31.5654 26.5486 31.8267 26.6393 32.0614 26.7833C32.2801 26.9166 32.2907 27.018 32.1094 27.1993C31.9761 27.3326 31.8108 27.418 31.6348 27.4873C30.9841 27.7646 30.2961 27.8873 29.6028 28.0046C29.2508 28.058 28.8988 28.1006 28.5308 28.154Z" fill="url(#paint7_linear)"/>
<path d="M21.7627 13.3011C20.536 13.3011 19.3253 13.3011 18.104 13.3011C18.104 10.7624 18.104 8.23443 18.104 5.69043C19.32 5.69043 20.5307 5.69043 21.7627 5.69043C21.7627 8.21843 21.7627 10.7464 21.7627 13.3011Z" fill="white"/>
<path d="M15.1012 5.63672H13.2505V13.3487H15.1012V5.63672Z" fill="url(#paint8_linear)"/>
<path d="M26.4027 5.64258H24.6587V13.3493H26.4027V5.64258Z" fill="url(#paint9_linear)"/>
<path d="M17.7676 5.63672H16.4556V13.3541H17.7676V5.63672Z" fill="url(#paint10_linear)"/>
<path d="M23.3093 5.63184H22.104V13.3492H23.3093V5.63184Z" fill="url(#paint11_linear)"/>
<path d="M15.4321 5.68457C15.6615 5.68457 15.8748 5.68457 16.1041 5.68457C16.1041 8.21791 16.1041 10.7512 16.1041 13.3006C15.8801 13.3006 15.6668 13.3006 15.4321 13.3006C15.4321 10.7672 15.4321 8.23924 15.4321 5.68457Z" fill="white"/>
<path d="M23.6455 5.68457C23.8748 5.68457 24.0882 5.68457 24.3175 5.68457C24.3175 8.22324 24.3175 10.7512 24.3175 13.3006C24.0935 13.3006 23.8748 13.3006 23.6455 13.3006C23.6455 10.7672 23.6455 8.23924 23.6455 5.68457Z" fill="white"/>
<path d="M7.96516 26.1543C7.20782 25.9943 6.50382 25.8183 5.83182 25.5356C5.05316 25.2103 4.33849 24.7889 3.81582 24.1063C3.52782 23.7329 3.34116 23.3169 3.25049 22.8583C3.19182 22.5649 3.25582 22.4849 3.54916 22.4689C4.17849 22.4369 4.81316 22.4423 5.44249 22.4636C5.62916 22.4689 5.81582 22.5383 6.02916 22.4796C5.97049 22.3729 5.87982 22.3676 5.79982 22.3409C4.79716 21.9836 3.85849 21.5036 3.07449 20.7676C2.05582 19.8183 1.51182 18.6343 1.37316 17.2529C1.34116 16.9436 1.40516 16.8796 1.70916 16.9116C2.03449 16.9436 2.34916 17.0556 2.66382 17.1409C5.82649 17.9729 8.98916 18.8103 12.1518 19.6476C12.3012 19.6849 12.4238 19.6849 12.5572 19.6049C13.4532 19.0823 14.3545 18.5649 15.2558 18.0476C15.3412 17.9996 15.4318 17.9676 15.4318 17.8396C15.4318 17.1036 15.4318 16.3676 15.4318 15.6049C14.3652 15.6049 13.3198 15.6049 12.2478 15.6049C12.2478 14.8476 12.2478 14.1223 12.2478 13.3863C12.4665 13.3116 12.6852 13.3969 12.9198 13.3276C12.9198 10.6716 12.9198 8.01027 12.9198 5.32227C17.5278 5.32227 22.1092 5.32227 26.7225 5.32227C26.7225 7.99427 26.7225 10.6556 26.7225 13.3223C26.8985 13.3756 27.0478 13.3596 27.1972 13.3489C27.3625 13.3383 27.4425 13.3916 27.4425 13.5729C27.4372 14.1756 27.4372 14.7836 27.4425 15.3863C27.4425 15.5889 27.3305 15.6049 27.1705 15.6049C26.2372 15.5996 25.3038 15.5996 24.3705 15.5996C24.3012 15.5996 24.2318 15.5996 24.1785 15.5996C24.0985 15.6796 24.1198 15.7543 24.1198 15.8183C24.1198 16.4689 24.1252 17.1143 24.1145 17.7649C24.1145 17.9196 24.1572 18.0049 24.2958 18.0796C25.1758 18.5809 26.0505 19.0823 26.9252 19.5943C27.0692 19.6796 27.1918 19.6849 27.3518 19.6423C30.7545 18.7409 34.1572 17.8449 37.5598 16.9489C37.5865 16.9436 37.6078 16.9329 37.6345 16.9276C38.0558 16.8316 38.1625 16.9169 38.1145 17.3436C37.9012 19.1889 36.9678 20.5756 35.3945 21.5409C34.8612 21.8663 34.2958 22.1169 33.7092 22.3303C33.6292 22.3569 33.5385 22.3623 33.4745 22.4369C33.5545 22.5009 33.6345 22.4636 33.7092 22.4583C34.4398 22.4369 35.1652 22.4263 35.8958 22.4529C36.2532 22.4689 36.3172 22.5543 36.2372 22.9009C36.0452 23.7383 35.5598 24.3783 34.8718 24.8689C34.0452 25.4556 33.1065 25.7703 32.1358 26.0049C31.9385 26.0529 31.7358 26.0903 31.5172 26.1383C31.7465 26.2503 31.9865 26.3036 32.1945 26.4263C32.7012 26.7196 32.7385 27.1463 32.2745 27.5196C32.0292 27.7169 31.7412 27.8343 31.4478 27.9356C30.6105 28.2183 29.7412 28.3463 28.8718 28.4636C28.7652 28.4796 28.6585 28.4849 28.5305 28.5329C28.5305 28.8956 28.5305 29.2689 28.5305 29.6369C28.5305 29.9036 28.5252 30.1703 28.5358 30.4369C28.5412 30.5969 28.4932 30.6929 28.3438 30.7783C25.5438 32.3889 22.7438 34.0049 19.9492 35.6209C19.7998 35.7063 19.6932 35.7116 19.5438 35.6209C16.7492 33.9996 13.9492 32.3889 11.1492 30.7783C11.0052 30.6929 10.9572 30.6023 10.9572 30.4423C10.9625 29.8129 10.9625 29.1836 10.9625 28.5223C10.5998 28.4689 10.2425 28.4156 9.89049 28.3623C9.21316 28.2556 8.54649 28.1276 7.90116 27.8876C7.67716 27.8023 7.45849 27.7009 7.26649 27.5623C7.14916 27.4769 7.05316 27.3756 6.98382 27.2476C6.81849 26.9436 6.86649 26.7409 7.14382 26.5383C7.37316 26.3676 7.65582 26.2876 7.96516 26.1543ZM19.7358 35.1996C19.7785 35.1783 19.8158 35.1676 19.8425 35.1463C22.5252 33.5996 25.2078 32.0476 27.8958 30.5063C28.0345 30.4263 28.0665 30.3303 28.0665 30.1863C28.0612 29.4556 28.0665 28.7303 28.0665 27.9996C28.0665 25.6903 28.0612 23.3756 28.0718 21.0663C28.0718 20.8636 28.0132 20.7516 27.8318 20.6503C26.0345 19.6263 24.2425 18.5916 22.4505 17.5569C21.5492 17.0396 20.6532 16.5169 19.7518 15.9943C19.6878 16.0263 19.6345 16.0583 19.5812 16.0903C16.9252 17.6209 14.2745 19.1516 11.6185 20.6769C11.4425 20.7783 11.4265 20.9009 11.4265 21.0663C11.4265 24.0903 11.4318 27.1089 11.4212 30.1329C11.4212 30.3356 11.4798 30.4476 11.6612 30.5489C13.4372 31.5623 15.2025 32.5809 16.9732 33.5996C17.8958 34.1276 18.8132 34.6663 19.7358 35.1996ZM3.61849 22.8263C3.70916 23.2529 3.89049 23.6156 4.14649 23.9356C4.55716 24.4476 5.09049 24.7943 5.67182 25.0663C6.55716 25.4769 7.49582 25.7009 8.45049 25.8663C8.76516 25.9196 9.07982 25.9676 9.39449 26.0156C9.49582 26.0316 9.55982 26.0849 9.55449 26.1916C9.54916 26.2876 9.46916 26.2876 9.39982 26.2983C9.19182 26.3303 8.97849 26.3623 8.77049 26.3996C8.31182 26.4689 7.85849 26.5329 7.44782 26.7729C7.21849 26.9063 7.20782 27.0183 7.39982 27.2049C7.55449 27.3543 7.75182 27.4449 7.94916 27.5249C8.56249 27.7703 9.20782 27.8929 9.85849 27.9996C10.2212 28.0583 10.5838 28.1329 10.9625 28.1329C10.9625 28.0156 10.9625 27.9196 10.9625 27.8183C10.9625 25.4609 10.9625 23.1089 10.9572 20.7516C10.9572 20.5756 11.0105 20.4743 11.1705 20.3996C11.4158 20.2769 11.6452 20.1276 11.9278 19.9676C8.50382 19.0609 5.13316 18.1703 1.73049 17.2743C1.76249 17.4769 1.78382 17.6423 1.81582 17.8023C2.13582 19.3809 3.05316 20.5223 4.42916 21.3223C5.49582 21.9409 6.65849 22.2823 7.85849 22.5063C8.61582 22.6503 9.37849 22.7623 10.1358 22.8903C10.2212 22.9063 10.3598 22.8956 10.3385 23.0449C10.3172 23.1729 10.2052 23.1356 10.1198 23.1303C8.72782 23.0343 7.33582 22.9383 5.94382 22.8476C5.18116 22.7996 4.40782 22.8049 3.61849 22.8263ZM28.5305 28.1543C28.8985 28.1009 29.2505 28.0636 29.5972 28.0049C30.2905 27.8876 30.9785 27.7649 31.6292 27.4876C31.7998 27.4129 31.9705 27.3329 32.1038 27.1996C32.2852 27.0183 32.2745 26.9169 32.0558 26.7836C31.8158 26.6396 31.5598 26.5489 31.2878 26.5009C30.8878 26.4316 30.4825 26.3676 30.0825 26.3036C30.0078 26.2929 29.9385 26.2769 29.9438 26.1809C29.9492 26.1009 29.9865 26.0423 30.0665 26.0263C30.1892 26.0049 30.3118 25.9889 30.4345 25.9676C31.4585 25.8076 32.4825 25.6209 33.4478 25.2316C34.1785 24.9383 34.8558 24.5596 35.3572 23.9249C35.6132 23.6049 35.7945 23.2476 35.8692 22.8316C35.8158 22.8263 35.7785 22.8209 35.7412 22.8209C33.9278 22.7676 32.1198 22.9276 30.3118 23.0663C29.9758 23.0929 29.6398 23.1089 29.3038 23.1303C29.2345 23.1356 29.1545 23.1303 29.1492 23.0289C29.1438 22.9489 29.1972 22.9223 29.2665 22.9116C29.3092 22.9063 29.3518 22.8903 29.3945 22.8849C30.2212 22.7356 31.0585 22.6289 31.8798 22.4583C33.0958 22.2023 34.2638 21.8343 35.3198 21.1623C36.5572 20.3676 37.3732 19.2689 37.6665 17.8129C37.7038 17.6423 37.7572 17.4716 37.7305 17.2796C34.3492 18.1703 30.9838 19.0609 27.5598 19.9676C27.8478 20.1329 28.0718 20.2769 28.3065 20.3943C28.4718 20.4796 28.5305 20.5863 28.5305 20.7676C28.5252 23.1409 28.5252 25.5143 28.5252 27.8876C28.5305 27.9676 28.5305 28.0476 28.5305 28.1543ZM21.7625 13.3009C21.7625 10.7463 21.7625 8.21827 21.7625 5.69027C20.5305 5.69027 19.3198 5.69027 18.1038 5.69027C18.1038 8.23427 18.1038 10.7623 18.1038 13.3009C19.3252 13.3009 20.5358 13.3009 21.7625 13.3009ZM27.0905 13.7116C22.2372 13.7116 17.3998 13.7116 12.5678 13.7116C12.5678 14.2396 12.5678 14.7463 12.5678 15.2529C17.4158 15.2529 22.2478 15.2529 27.0905 15.2529C27.0905 14.7356 27.0905 14.2343 27.0905 13.7116ZM15.0532 5.69027C14.4558 5.69027 13.8798 5.69027 13.3092 5.69027C13.3092 8.23427 13.3092 10.7623 13.3092 13.2956C13.9012 13.2956 14.4718 13.2956 15.0532 13.2956C15.0532 10.7569 15.0532 8.23427 15.0532 5.69027ZM24.7118 13.2903C25.2772 13.2903 25.8158 13.2903 26.3492 13.2903C26.3492 10.7463 26.3492 8.21827 26.3492 5.69027C25.7945 5.69027 25.2558 5.69027 24.7118 5.69027C24.7118 8.23427 24.7118 10.7516 24.7118 13.2903ZM17.7145 13.3009C17.7145 10.7463 17.7145 8.21827 17.7145 5.69027C17.3038 5.69027 16.9092 5.69027 16.5092 5.69027C16.5092 8.2396 16.5092 10.7676 16.5092 13.3009C16.9198 13.3009 17.3038 13.3009 17.7145 13.3009ZM22.1572 5.68493C22.1572 8.2396 22.1572 10.7623 22.1572 13.2956C22.5358 13.2956 22.8932 13.2956 23.2558 13.2956C23.2558 10.7516 23.2558 8.22893 23.2558 5.68493C22.8878 5.68493 22.5252 5.68493 22.1572 5.68493ZM15.4318 5.68493C15.4318 8.24493 15.4318 10.7676 15.4318 13.3009C15.6665 13.3009 15.8798 13.3009 16.1038 13.3009C16.1038 10.7516 16.1038 8.21827 16.1038 5.68493C15.8745 5.68493 15.6612 5.68493 15.4318 5.68493ZM23.6452 5.68493C23.6452 8.2396 23.6452 10.7676 23.6452 13.3009C23.8798 13.3009 24.0932 13.3009 24.3172 13.3009C24.3172 10.7516 24.3172 8.2236 24.3172 5.68493C24.0878 5.68493 23.8745 5.68493 23.6452 5.68493ZM15.7998 17.7383C16.2585 17.4769 16.6798 17.2316 17.0958 16.9916C17.1545 16.9596 17.1918 16.9116 17.1918 16.8423C17.1918 16.4369 17.1918 16.0316 17.1918 15.6156C16.7118 15.6156 16.2585 15.6156 15.7998 15.6156C15.7998 16.3196 15.7998 17.0023 15.7998 17.7383ZM22.4612 15.6103C22.4612 16.0583 22.4612 16.4903 22.4612 16.9223C22.4612 17.0343 22.5358 17.0716 22.6158 17.1143C22.8558 17.2529 23.0905 17.3916 23.3305 17.5249C23.4638 17.5996 23.5865 17.7063 23.7412 17.7276C23.7412 17.0183 23.7412 16.3196 23.7412 15.6103C23.3092 15.6103 22.8985 15.6103 22.4612 15.6103ZM20.1038 15.6103C20.0985 15.6263 20.0932 15.6369 20.0878 15.6529C20.7492 16.0369 21.4105 16.4156 22.0878 16.8103C22.0878 16.3836 22.0878 16.0049 22.0878 15.6103C21.4158 15.6103 20.7598 15.6103 20.1038 15.6103ZM19.4745 15.6103C18.8025 15.6103 18.1838 15.6103 17.5652 15.6103C17.5652 15.9783 17.5652 16.3303 17.5652 16.7143C18.2105 16.3463 18.8238 15.9889 19.4745 15.6103Z" fill="url(#paint12_linear)"/>
<path d="M17.7518 29.952H16.0078V22.752H14.2051V21.4187L17.7518 21.1094V29.952Z" fill="#D15400"/>
<path d="M25.2668 26.7947C25.2668 27.8187 25.0002 28.6187 24.4615 29.2C23.9228 29.7814 23.2135 30.0747 22.3282 30.0747C21.4322 30.0747 20.7175 29.7814 20.1788 29.2C19.6402 28.6187 19.3682 27.8134 19.3682 26.7947V24.3947C19.3682 23.376 19.6348 22.576 20.1735 21.9894C20.7122 21.4027 21.4268 21.1094 22.3122 21.1094C23.1975 21.1094 23.9122 21.4027 24.4508 21.9894C24.9895 22.576 25.2615 23.3814 25.2615 24.3947V26.7947H25.2668ZM23.5228 24.2134C23.5228 23.6534 23.4162 23.2214 23.2028 22.912C22.9895 22.6027 22.6908 22.4534 22.3122 22.4534C21.9282 22.4534 21.6348 22.608 21.4215 22.912C21.2135 23.2214 21.1068 23.6534 21.1068 24.2134V26.96C21.1068 27.5307 21.2135 27.968 21.4268 28.2774C21.6402 28.5814 21.9388 28.736 22.3228 28.736C22.7015 28.736 22.9948 28.5814 23.2082 28.2774C23.4162 27.9734 23.5228 27.536 23.5228 26.96V24.2134Z" fill="#D15400"/>
<defs>
<linearGradient id="paint0_linear" x1="13.129" y1="32.233" x2="26.3177" y2="19.0443" gradientUnits="userSpaceOnUse">
<stop stop-color="#DB8200"/>
<stop offset="0.064678" stop-color="#DC8505"/>
<stop offset="0.1429" stop-color="#DF8D14"/>
<stop offset="0.2282" stop-color="#E49B2C"/>
<stop offset="0.3184" stop-color="#ECAE4F"/>
<stop offset="0.4115" stop-color="#F5C67A"/>
<stop offset="0.4979" stop-color="#FFE0A9"/>
<stop offset="0.5836" stop-color="#F5C67B"/>
<stop offset="0.6782" stop-color="#ECAE4F"/>
<stop offset="0.7698" stop-color="#E59B2D"/>
<stop offset="0.8561" stop-color="#DF8D14"/>
<stop offset="0.9351" stop-color="#DC8505"/>
<stop offset="1" stop-color="#DB8200"/>
</linearGradient>
<linearGradient id="paint1_linear" x1="12.4771" y1="14.5041" x2="27.117" y2="14.5041" gradientUnits="userSpaceOnUse">
<stop stop-color="#E8B010"/>
<stop offset="0.4979" stop-color="#FFF188"/>
<stop offset="0.7548" stop-color="#F3CF49"/>
<stop offset="1" stop-color="#E8B010"/>
</linearGradient>
<linearGradient id="paint2_linear" x1="16.4826" y1="17.8269" x2="16.4826" y2="15.5816" gradientUnits="userSpaceOnUse">
<stop stop-color="#E8B010"/>
<stop offset="0.157" stop-color="#F0C639"/>
<stop offset="0.3926" stop-color="#FBE572"/>
<stop offset="0.5063" stop-color="#FFF188"/>
<stop offset="0.7474" stop-color="#F4D24F"/>
<stop offset="1" stop-color="#E8B010"/>
</linearGradient>
<linearGradient id="paint3_linear" x1="23.0667" y1="17.819" x2="23.0667" y2="15.572" gradientUnits="userSpaceOnUse">
<stop stop-color="#E8B010"/>
<stop offset="0.157" stop-color="#F0C639"/>
<stop offset="0.3926" stop-color="#FBE572"/>
<stop offset="0.5063" stop-color="#FFF188"/>
<stop offset="0.7474" stop-color="#F4D24F"/>
<stop offset="1" stop-color="#E8B010"/>
</linearGradient>
<linearGradient id="paint4_linear" x1="14.183" y1="31.177" x2="25.2943" y2="20.0657" gradientUnits="userSpaceOnUse">
<stop stop-color="#E8B010"/>
<stop offset="0.4979" stop-color="#FEFDD4"/>
<stop offset="1" stop-color="#E8B010"/>
</linearGradient>
<linearGradient id="paint5_linear" x1="12.8823" y1="20.8351" x2="26.5986" y2="30.4394" gradientUnits="userSpaceOnUse">
<stop stop-color="#E16D40"/>
<stop offset="0.0726663" stop-color="#E37544"/>
<stop offset="0.1827" stop-color="#E88950"/>
<stop offset="0.3163" stop-color="#F1AC63"/>
<stop offset="0.4674" stop-color="#FCDB7D"/>
<stop offset="0.4979" stop-color="#FFE583"/>
<stop offset="0.5461" stop-color="#FBD47A"/>
<stop offset="0.69" stop-color="#F0A861"/>
<stop offset="0.8188" stop-color="#E8884F"/>
<stop offset="0.9265" stop-color="#E37444"/>
<stop offset="1" stop-color="#E16D40"/>
</linearGradient>
<linearGradient id="paint6_linear" x1="11.9332" y1="22.7038" x2="1.73584" y2="22.7038" gradientUnits="userSpaceOnUse">
<stop stop-color="#FFD800"/>
<stop offset="0.0287099" stop-color="#FFDA0C"/>
<stop offset="0.1874" stop-color="#FFE44C"/>
<stop offset="0.3443" stop-color="#FFEC82"/>
<stop offset="0.4954" stop-color="#FFF3AF"/>
<stop offset="0.6397" stop-color="#FFF8D2"/>
<stop offset="0.7754" stop-color="#FFFCEB"/>
<stop offset="0.8991" stop-color="#FFFEFA"/>
<stop offset="1" stop-color="white"/>
</linearGradient>
<linearGradient id="paint7_linear" x1="27.5654" y1="22.7166" x2="37.7428" y2="22.7166" gradientUnits="userSpaceOnUse">
<stop stop-color="#FFD800"/>
<stop offset="0.00920331" stop-color="#FFD904"/>
<stop offset="0.1742" stop-color="#FFE345"/>
<stop offset="0.3367" stop-color="#FFEB7E"/>
<stop offset="0.4923" stop-color="#FFF2AC"/>
<stop offset="0.64" stop-color="#FFF8D0"/>
<stop offset="0.7777" stop-color="#FFFCEA"/>
<stop offset="0.9017" stop-color="#FFFEFA"/>
<stop offset="1" stop-color="white"/>
</linearGradient>
<linearGradient id="paint8_linear" x1="13.2505" y1="9.49272" x2="15.1031" y2="9.49272" gradientUnits="userSpaceOnUse">
<stop stop-color="#C80000"/>
<stop offset="1" stop-color="#8E0000"/>
</linearGradient>
<linearGradient id="paint9_linear" x1="24.6567" y1="9.49592" x2="26.4007" y2="9.49592" gradientUnits="userSpaceOnUse">
<stop stop-color="#C80000"/>
<stop offset="1" stop-color="#8E0000"/>
</linearGradient>
<linearGradient id="paint10_linear" x1="16.4556" y1="9.49539" x2="17.7658" y2="9.49539" gradientUnits="userSpaceOnUse">
<stop stop-color="#C80000"/>
<stop offset="1" stop-color="#8E0000"/>
</linearGradient>
<linearGradient id="paint11_linear" x1="22.1052" y1="9.49051" x2="23.313" y2="9.49051" gradientUnits="userSpaceOnUse">
<stop stop-color="#C80000"/>
<stop offset="1" stop-color="#8E0000"/>
</linearGradient>
<linearGradient id="paint12_linear" x1="19.7454" y1="35.687" x2="19.7454" y2="5.32227" gradientUnits="userSpaceOnUse">
<stop offset="0.6375" stop-color="#965214"/>
<stop offset="0.6665" stop-color="#904611"/>
<stop offset="0.755" stop-color="#82280A"/>
<stop offset="0.8416" stop-color="#771204"/>
<stop offset="0.9246" stop-color="#710401"/>
<stop offset="1" stop-color="#6F0000"/>
</linearGradient>
</defs>
</svg>
