<svg width="16" height="12" viewBox="0 0 16 12" fill="none" xmlns="http://www.w3.org/2000/svg">
<path d="M16 0H0V12H16V0Z" fill="#DE2910"/>
<path d="M2.66671 1.19995L3.60716 4.45616L1.14502 2.44371H4.1884L1.72625 4.45616L2.66671 1.19995Z" fill="#FFDE00"/>
<path d="M5.54198 0.647858L5.45292 1.78472L4.93099 0.806091L5.86455 1.25269L4.87595 1.50871L5.54198 0.647858Z" fill="#FFDE00"/>
<path d="M6.78287 1.98233L6.30864 2.99123L6.16517 1.86143L6.87154 2.68059L5.87209 2.48496L6.78287 1.98233Z" fill="#FFDE00"/>
<path d="M6.90099 3.99453L6.10218 4.69802L6.38087 3.60066L6.72875 4.67273L5.88718 4.03545L6.90099 3.99453Z" fill="#FFDE00"/>
<path d="M5.52148 4.83854L5.4744 5.97856L4.91686 5.02513L5.86606 5.42779L4.88776 5.72971L5.52148 4.83854Z" fill="#FFDE00"/>
</svg>
