<svg width="16" height="12" viewBox="0 0 16 12" fill="none" xmlns="http://www.w3.org/2000/svg">
<path d="M16 0H0V12H16V0Z" fill="#E30A17"/>
<path d="M5.66667 9C7.13943 9 8.33333 7.65685 8.33333 6C8.33333 4.34315 7.13943 3 5.66667 3C4.19391 3 3 4.34315 3 6C3 7.65685 4.19391 9 5.66667 9Z" fill="white"/>
<path d="M6.33356 8.40011C7.51178 8.40011 8.46692 7.32559 8.46692 6.00011C8.46692 4.67462 7.51178 3.6001 6.33356 3.6001C5.15533 3.6001 4.2002 4.67462 4.2002 6.00011C4.2002 7.32559 5.15533 8.40011 6.33356 8.40011Z" fill="#E30A17"/>
<path d="M7.77783 6.00008L10.1898 6.88176L8.6991 4.57349V7.42667L10.1898 5.11839L7.77783 6.00008Z" fill="white"/>
</svg>
