<svg width="16" height="12" viewBox="0 0 16 12" fill="none" xmlns="http://www.w3.org/2000/svg">
<rect width="16" height="12" fill="white"/>
<path d="M5.20006 2.14264C5.20006 2.14264 5.02972 2.02092 4.80013 1.85693L3.2002 4.4283L3.60024 4.71401L5.20006 2.14264Z" fill="black"/>
<path d="M4.60003 1.71441C4.46925 1.62091 4.3309 1.52209 4.20011 1.42871L2.6001 3.99999L3.00002 4.28569L4.60003 1.71441Z" fill="black"/>
<path d="M3.99998 1.28571C3.7704 1.12172 3.59994 1 3.59994 1L2 3.57137L2.40004 3.85707L3.99998 1.28571Z" fill="black"/>
<path d="M3.60012 7.28564C3.60012 7.28564 3.42966 7.40736 3.2002 7.57135L4.80013 10.1427L5.20018 9.85701L3.60012 7.28564Z" fill="black"/>
<path d="M3.7333 8.89243L3.00003 7.71387C2.86924 7.80737 2.73088 7.9062 2.6001 7.99958L3.33338 9.17813L3.7333 8.89243Z" fill="black"/>
<path d="M3.4668 9.39264L4.20007 10.5712L4.60012 10.2855L3.86673 9.10693L3.4668 9.39264Z" fill="black"/>
<path d="M2.40004 8.14258C2.17046 8.30657 2 8.42829 2 8.42829L3.59994 10.9997L3.99998 10.7139L2.40004 8.14258Z" fill="black"/>
<path d="M13.2671 2.39258L12.8672 2.67829L13.6004 3.85684L14.0004 3.57114C14.0004 3.57114 13.6312 2.9778 13.2671 2.39258Z" fill="black"/>
<path d="M13.1333 2.17856C12.7692 1.59334 12.4 1 12.4 1C12.4 1 12.2296 1.12172 12 1.28571L12.7334 2.46427L13.1333 2.17856Z" fill="black"/>
<path d="M11.8004 1.42871C11.6695 1.52221 11.5313 1.62092 11.4004 1.71442L13.0003 4.28578L13.4003 4.00008L11.8004 1.42871Z" fill="black"/>
<path d="M11.667 3.53571C12.0311 4.12093 12.4003 4.71427 12.4003 4.71427L12.8002 4.42856L12.0669 3.25L11.667 3.53571Z" fill="black"/>
<path d="M10.8003 2.14264C10.8003 2.14264 11.1695 2.73598 11.5336 3.3212L11.9336 3.03549L11.2003 1.85693C10.9706 2.02092 10.8003 2.14264 10.8003 2.14264Z" fill="black"/>
<path d="M13.1333 9.82135L12.7334 9.53564L12 10.7142L12.4 10.9999C12.4 10.9999 12.7692 10.4066 13.1333 9.82135Z" fill="black"/>
<path d="M13.6 8.14258L12.8667 9.32113L13.2666 9.60684C13.6307 9.02162 14 8.42829 14 8.42829C14 8.42829 13.8296 8.30657 13.6 8.14258Z" fill="black"/>
<path d="M13.0005 7.71387L12.2671 8.89243L12.6671 9.17813L13.4004 7.99958C13.2696 7.9062 13.1313 7.80737 13.0005 7.71387Z" fill="black"/>
<path d="M12.1338 9.10693L11.4004 10.2855L11.8004 10.5712L12.5337 9.39264L12.1338 9.10693Z" fill="black"/>
<path d="M11.5336 8.67822C11.1695 9.26344 10.8003 9.85678 10.8003 9.85678L11.2003 10.1425L11.9336 8.96393L11.5336 8.67822Z" fill="black"/>
<path d="M12.4003 7.28564C12.4003 7.28564 12.0311 7.87898 11.667 8.4642L12.067 8.74991L12.8003 7.57135C12.5706 7.40736 12.4003 7.28564 12.4003 7.28564Z" fill="black"/>
<path d="M5.99889 6.4246C6.66152 6.89803 7.55701 6.70619 7.99876 5.9961C8.44063 5.28601 9.33589 5.09405 9.99863 5.56748C10.6614 6.04091 10.8404 7.00026 10.3986 7.71035C10.3986 7.71035 10.3984 7.71095 10.3983 7.71131C10.7046 7.22056 10.8833 6.63074 10.8833 5.9961C10.8833 4.28937 9.59192 2.90576 7.99887 2.90576C6.99781 2.90576 6.116 3.45223 5.59885 4.28186C5.15699 4.99183 5.33604 5.95129 5.99889 6.4246Z" fill="#CD3039"/>
<path d="M7.99874 9.08644C8.9995 9.08644 9.88111 8.54034 10.3984 7.71107C10.3985 7.71071 10.3986 7.71011 10.3986 7.71011C10.8405 7.00002 10.6613 6.04067 9.99868 5.56724C9.33591 5.09405 8.44051 5.28601 7.99863 5.99598C7.55686 6.70607 6.66135 6.8978 5.99858 6.42448C5.33582 5.95105 5.15676 4.99171 5.59853 4.28174C5.29264 4.77237 5.11426 5.36183 5.11426 5.9961C5.11426 7.70284 6.40565 9.08644 7.99874 9.08644Z" fill="#11499C"/>
</svg>
