<svg width="42" height="60" viewBox="0 0 42 60" fill="none" xmlns="http://www.w3.org/2000/svg">
<g clip-path="url(#clip0)">
<path d="M0 0C14.0028 0 27.9972 0 42 0C42 19.8744 42 39.7411 42 59.6155C27.9972 59.6155 14.0028 59.6155 0 59.6155C0 39.7411 0 19.8744 0 0ZM40.1436 29.7848C40.1436 21.0759 40.1268 12.3593 40.1688 3.6504C40.1688 2.75502 38.6316 1.35455 37.6572 1.35455C26.6196 1.39281 15.5736 1.37751 4.5276 1.37751C3.3012 1.37751 2.016 2.54839 2.016 3.65805C2.016 21.0682 2.0244 38.4784 1.9908 55.8886C1.9908 56.784 3.528 58.1845 4.5024 58.1845C15.5484 58.1538 26.5944 58.1615 37.6404 58.1615C38.8668 58.1615 40.152 56.9906 40.152 55.881C40.152 47.1797 40.152 38.4784 40.1436 29.7848Z" fill="url(#paint0_linear)"/>
<path d="M40.1522 29.7848C40.1522 38.4861 40.1522 47.1797 40.1522 55.881C40.1522 56.9983 38.867 58.1615 37.6406 58.1615C26.5946 58.1615 15.5486 58.1462 4.50257 58.1845C3.52817 58.1845 1.99097 56.784 1.99097 55.8886C2.02457 38.4784 2.01617 21.0683 2.01617 3.65811C2.01617 2.54845 3.30137 1.37757 4.52777 1.37757C15.5738 1.37757 26.6198 1.39288 37.6658 1.35461C38.6402 1.35461 40.1774 2.75508 40.1774 3.65046C40.1354 12.3594 40.1438 21.0683 40.1522 29.7848ZM14.4062 51.4041C14.5994 51.3046 14.801 51.1668 15.0194 51.0979C15.305 51.0061 15.6242 50.9832 15.9098 50.8913C16.0526 50.8454 16.229 50.723 16.2626 50.6082C16.943 48.2052 17.195 45.7639 16.8926 43.2921C16.8254 42.7181 16.6658 42.1748 16.1786 41.7462C15.9434 41.5396 15.7754 41.2488 15.6578 40.9733C15.5654 40.736 15.4058 40.6442 15.179 40.5524C13.6838 39.9478 12.1634 39.3815 10.7186 38.6927C8.65217 37.7055 7.04777 36.2438 5.90537 34.3765C5.39297 33.5347 5.11577 32.6317 5.14097 31.6674C5.14937 31.4532 5.22497 31.2312 5.17457 31.0246C4.79657 29.3639 4.94777 27.7033 5.08217 26.035C5.24177 24.0376 5.35937 22.0402 5.44337 20.0428C5.46857 19.553 5.35937 19.0479 5.22497 18.5735C4.92257 17.5174 4.53617 16.4766 4.22537 15.4205C3.96497 14.5251 4.09097 13.6527 4.54457 12.8185C5.01497 11.9614 5.78777 11.464 6.82097 11.5099C7.61897 11.5405 8.40857 11.7701 9.19817 11.9002C9.41657 11.9385 9.66017 11.9844 9.87857 11.9385C11.3234 11.6324 12.7598 11.3109 14.2046 10.9895C15.0362 10.8058 15.8594 10.6222 16.691 10.4462C16.7918 10.4232 16.9094 10.4921 17.0186 10.5227C16.9598 10.6069 16.9094 10.714 16.8254 10.7829C16.733 10.8594 16.607 10.8977 16.4978 10.9436C14.0618 12.0992 11.6342 13.2548 9.19817 14.395C8.92937 14.5175 8.81177 14.6552 8.82017 14.946C8.84537 15.8414 8.56817 16.6526 7.92977 17.3567C7.82897 17.4715 7.73657 17.6245 7.72817 17.7623C7.57697 19.377 7.41737 20.9841 7.33337 22.5988C7.29977 23.1881 7.35857 23.808 7.53497 24.3743C8.03897 26.0273 9.07217 27.3895 10.4666 28.5374C10.7186 28.7441 10.9706 28.8435 11.3234 28.8512C13.9862 28.8971 16.6406 29.0578 19.253 29.5476C21.1682 29.9073 23.033 30.42 24.671 31.4225C26.351 32.4557 27.4598 33.8485 27.6614 35.7311C27.7538 36.5652 27.7622 37.4071 27.8042 38.2795C28.1486 38.4172 28.535 38.5779 28.9298 38.7386C29.1734 37.7285 29.1734 37.7285 28.283 37.2004C28.2578 37.1851 28.2242 37.1775 28.2158 37.1622C28.157 37.0703 28.1066 36.9785 28.0562 36.8943C28.1738 36.879 28.325 36.8101 28.4174 36.8484C28.6778 36.9555 28.9214 37.1086 29.1986 37.2616C29.2406 37.1162 29.2574 37.0091 29.2994 36.902C29.4254 36.5652 29.3078 36.3357 28.9718 36.152C28.619 35.953 28.283 35.7158 27.9638 35.4709C27.8546 35.3867 27.821 35.2183 27.7538 35.0959C27.905 35.1189 28.073 35.1112 28.1906 35.1801C28.6106 35.4403 29.0138 35.7234 29.4422 36.0066C29.7362 35.2566 29.7362 35.2566 29.1482 34.8051C28.7366 34.4913 28.325 34.1929 27.9302 33.8638C27.8294 33.7796 27.8042 33.6189 27.737 33.4965C27.8882 33.5271 28.0646 33.5271 28.199 33.5959C28.3586 33.6725 28.4846 33.8026 28.619 33.9097C28.9886 34.1929 29.3582 34.476 29.7362 34.7592C30.0134 34.3153 29.9294 33.9939 29.543 33.7107C29.3582 33.5806 29.1902 33.4123 29.0558 33.2363C28.9802 33.1368 28.9802 32.9837 28.9466 32.8536C29.0726 32.8919 29.2322 32.8995 29.3246 32.9761C29.5682 33.175 29.7866 33.4046 30.047 33.6495C30.2906 33.1138 30.5006 32.6546 29.9462 32.2261C29.7614 32.0807 29.6018 31.8817 29.4758 31.6904C29.375 31.5373 29.2406 31.2236 29.2826 31.193C29.5682 31.0016 29.6438 31.3154 29.7698 31.4455C30.0218 31.6904 30.2402 31.9659 30.467 32.2261C30.8534 31.7287 30.7862 31.3231 30.3998 30.9098C30.1142 30.6113 29.8874 30.2746 29.6606 29.9379C29.5934 29.8384 29.627 29.693 29.6102 29.5706C29.7362 29.6241 29.9126 29.6547 29.9882 29.7466C30.3158 30.1445 30.6182 30.5578 30.9458 30.994C31.2146 30.5348 31.4162 30.1445 30.9878 29.6777C30.6434 29.2951 30.383 28.8512 30.1142 28.415C30.0386 28.2849 30.0638 28.1089 30.047 27.9482C30.1814 28.0323 30.3242 28.1012 30.4418 28.2007C30.5426 28.3002 30.6098 28.4303 30.6938 28.5527C30.9542 28.9277 31.2062 29.3027 31.475 29.693C31.7522 29.3639 31.7774 29.1037 31.559 28.7823C31.2314 28.2925 30.9374 27.7875 30.6518 27.2747C30.5678 27.114 30.509 26.7696 30.551 26.7543C30.8954 26.6242 30.8954 26.9533 31.0046 27.114C31.3322 27.6191 31.6346 28.1395 31.9538 28.6752C32.2898 28.2925 32.3822 27.9482 32.105 27.5502C31.9454 27.313 31.8446 27.0451 31.727 26.7849C31.5674 26.4559 31.391 26.1344 31.2566 25.8054C31.223 25.7212 31.3154 25.5911 31.349 25.484C31.4414 25.5452 31.559 25.5834 31.6178 25.6676C31.727 25.8436 31.8026 26.035 31.895 26.2263C32.105 26.6548 32.3234 27.091 32.5502 27.5426C32.9198 27.1446 33.0458 26.7773 32.7686 26.3487C32.6678 26.188 32.6174 25.9967 32.5418 25.813C32.3822 25.4304 32.2142 25.0554 32.0798 24.6651C32.0462 24.5733 32.147 24.4508 32.1806 24.3437C32.2646 24.4049 32.3906 24.4508 32.4326 24.535C32.5586 24.7799 32.6426 25.0324 32.7518 25.285C32.903 25.6447 33.0542 26.0043 33.2138 26.387C33.5834 26.0579 33.6506 25.7595 33.4742 25.3768C33.2474 24.8717 33.0794 24.3437 32.9114 23.8156C32.8862 23.7315 32.987 23.609 33.029 23.5019C33.113 23.5708 33.2222 23.6243 33.2726 23.7009C33.3398 23.808 33.365 23.9381 33.4154 24.0605C33.575 24.4891 33.7346 24.9176 33.9026 25.3615C34.2554 25.0707 34.331 24.7952 34.1798 24.4355C33.9866 23.9687 33.8354 23.4942 33.701 23.0121C33.6674 22.882 33.7514 22.7289 33.785 22.5835C33.8774 22.683 34.0202 22.7749 34.0622 22.8897C34.2554 23.3871 34.415 23.8998 34.5914 24.4049C34.6418 24.4049 34.6922 24.3973 34.7426 24.3973C34.7594 24.2289 34.8182 24.0529 34.7762 23.8922C34.667 23.456 34.5074 23.0351 34.4066 22.5988C34.3646 22.4228 34.3898 22.0785 34.4402 22.0708C34.793 22.0096 34.7006 22.3157 34.7678 22.4841C34.919 22.882 35.0282 23.2876 35.1542 23.6932C35.213 23.6932 35.2718 23.6855 35.3222 23.6855C35.3474 23.5172 35.3894 23.3412 35.3978 23.1728C35.4062 22.905 35.3642 22.6371 35.3978 22.3769C35.4986 21.7264 35.9102 21.2673 36.389 21.229C36.8762 21.1831 37.397 21.5963 37.607 22.2315C37.6994 22.5147 37.7414 22.8131 37.8254 23.1575C37.8758 23.0733 37.9178 23.0351 37.9262 22.9968C37.9682 22.7289 37.985 22.4611 38.0522 22.2009C38.0774 22.1091 38.195 22.0478 38.279 21.9637C38.321 22.0555 38.405 22.1473 38.405 22.2392C38.3966 22.4534 38.3546 22.6677 38.3294 22.882C38.237 23.4942 38.3042 23.6167 38.951 23.9151C39.1022 23.4866 39.245 23.0657 39.3962 22.6371C39.4382 22.5223 39.4886 22.3463 39.581 22.3157C39.8414 22.2239 39.791 22.0478 39.791 21.8795C39.791 20.3336 39.791 18.7954 39.791 17.2495C39.791 17.1424 39.7742 17.0429 39.7658 16.9434C34.1966 19.9433 28.577 20.1729 23.2682 16.7674C17.531 13.0711 15.9518 7.83655 17.6654 1.68369C17.5058 1.68369 17.3378 1.68369 17.1698 1.68369C13.0118 1.68369 8.85377 1.7143 4.69577 1.66073C3.67097 1.65307 2.32697 2.88518 2.32697 3.83413C2.36057 13.7063 2.35217 23.5784 2.35217 33.4505C2.35217 33.5424 2.32697 33.6342 2.36057 33.7184C2.42777 33.9097 2.52017 34.101 2.60417 34.2924C2.64617 34.2771 2.68817 34.2694 2.73017 34.2541C2.83097 33.7567 2.91497 33.2516 3.03257 32.7618C3.05777 32.67 3.20057 32.6011 3.29297 32.5246C3.31817 32.624 3.38537 32.7312 3.36857 32.823C3.29297 33.3051 3.23417 33.7873 3.09137 34.2541C2.87297 34.9505 3.46097 35.2566 3.81377 35.8076C3.92297 35.1801 4.00697 34.6597 4.12457 34.1469C4.14137 34.0551 4.29257 33.9786 4.37657 33.8944C4.41017 33.9939 4.48577 34.0934 4.46897 34.1852C4.41017 34.6291 4.38497 35.0882 4.23377 35.5015C3.97337 36.2285 4.41017 36.703 4.85537 37.2693C5.01497 36.5346 5.14937 35.8535 5.32577 35.1877C5.36777 35.0194 5.53577 34.8816 5.64497 34.7286C5.66177 34.8893 5.71217 35.0653 5.67857 35.2183C5.54417 35.8994 5.42657 36.5805 5.22497 37.2387C5.07377 37.7438 5.30897 38.0805 5.64497 38.5091C5.82977 37.9274 5.98937 37.3994 6.16577 36.8867C6.21617 36.7489 6.34217 36.6418 6.43457 36.5193C6.48497 36.5423 6.52697 36.5652 6.57737 36.5882C6.55217 36.7183 6.53537 36.856 6.50177 36.9785C6.35897 37.4453 6.25817 37.9274 6.04817 38.3713C5.74577 38.9988 6.12377 39.4197 6.47657 39.9554C6.67817 39.2896 6.84617 38.7004 7.03937 38.1264C7.07297 38.0193 7.22417 37.9504 7.32497 37.8586C7.34177 37.9734 7.40057 38.0958 7.37537 38.1953C7.21577 38.7922 7.07297 39.3968 6.84617 39.9631C6.63617 40.4758 6.88817 40.8355 7.17377 41.2947C7.30817 40.8126 7.40897 40.3993 7.54337 39.9861C7.57697 39.8713 7.71977 39.7871 7.80377 39.6876C7.82897 39.81 7.90457 39.9325 7.87937 40.0396C7.77857 40.4911 7.65257 40.935 7.53497 41.3789C7.40057 41.884 7.50137 42.2589 7.89617 42.7105C7.98017 42.4043 8.05577 42.0982 8.15657 41.8151C8.19017 41.7309 8.31617 41.6773 8.40857 41.6008C8.43377 41.7003 8.50937 41.7998 8.48417 41.8916C8.40017 42.2819 8.24897 42.6569 8.19857 43.0472C8.16497 43.315 8.24057 43.5982 8.26577 43.8813C8.31617 43.8813 8.36657 43.8813 8.42537 43.8813C8.53457 43.514 8.62697 43.1467 8.75297 42.787C8.77817 42.7105 8.92937 42.6645 9.01337 42.6033C9.03857 42.6952 9.08897 42.787 9.07217 42.8712C8.96297 43.3074 8.86217 43.7436 8.71937 44.1721C8.60177 44.5165 8.64377 44.8226 8.85377 45.1211C9.12257 44.9986 9.24017 44.815 9.20657 44.5395C9.17297 44.2334 9.16457 43.9273 9.18137 43.6211C9.18137 43.5293 9.30737 43.4528 9.37457 43.3609C9.43337 43.4451 9.54257 43.5293 9.55097 43.6135C9.57617 43.9273 9.55937 44.241 9.55937 44.5624C9.96257 44.5318 10.139 44.3941 10.097 44.065C10.0718 43.8278 10.0718 43.5752 10.1054 43.338C10.1222 43.2079 10.2398 43.1007 10.3154 42.9783C10.3742 43.0931 10.4666 43.2002 10.475 43.315C10.5002 43.6288 10.4834 43.9426 10.4834 44.2563C10.5254 44.2716 10.5674 44.2946 10.601 44.3099C10.685 44.2028 10.769 44.0956 10.8614 43.9961C11.1722 43.6441 11.4158 43.2155 11.8022 42.9553C12.407 42.5344 13.1546 42.8329 13.2386 43.5217C13.289 43.9426 13.1966 44.4094 13.0454 44.815C12.9362 45.1211 12.911 45.3354 13.1882 45.5803C13.3982 45.343 13.5914 45.1134 13.8098 44.8992C14.0198 44.7002 14.1206 44.3635 14.6246 44.3329C14.5154 44.5165 14.4734 44.6313 14.3978 44.7231C14.1962 44.968 13.9778 45.2053 13.7678 45.4425C13.2806 45.9859 13.2806 45.9859 13.667 46.621C14.2718 46.2843 14.6498 45.6644 15.3638 45.4425C15.3386 45.5956 15.2714 45.718 15.1706 45.8098C14.8682 46.0777 14.5574 46.3379 14.255 46.5981C13.7006 47.0649 13.7006 47.0649 14.0282 47.7307C14.5406 47.4705 15.0446 47.218 15.557 46.9578C15.5906 47.0037 15.6326 47.0496 15.6662 47.1032C15.5822 47.195 15.5066 47.3098 15.4058 47.3787C15.2378 47.4935 15.0446 47.57 14.8598 47.6695C14.0618 48.0904 14.0618 48.0904 14.2046 48.9169C14.213 48.9475 14.2382 48.9781 14.2634 49.024C14.7674 48.8557 15.1454 48.4654 15.7166 48.4501C15.6494 48.6031 15.557 48.7179 15.431 48.7868C15.1286 48.9628 14.801 49.1159 14.4986 49.2995C14.4062 49.3531 14.297 49.4602 14.297 49.5521C14.297 49.8123 14.339 50.0648 14.3642 50.348C14.8094 50.2102 15.1958 50.0878 15.5822 49.9653C15.6074 50.0112 15.641 50.0572 15.6662 50.0954C15.5738 50.1796 15.4982 50.2867 15.389 50.3403C15.2462 50.4168 15.0782 50.4551 14.9186 50.5087C14.2886 50.7459 14.2382 50.8531 14.4062 51.4041ZM28.0058 1.68369C24.8138 1.68369 21.6218 1.68369 18.4298 1.68369C18.1862 1.68369 18.0266 1.69134 17.9426 1.95919C16.5818 6.26772 17.2622 10.2855 20.2778 13.8287C24.9146 19.3005 33.0794 20.4943 39.4634 16.7597C39.7154 16.6143 39.8246 16.4613 39.8162 16.1858C39.8078 12.0456 39.791 7.89778 39.8246 3.7576C39.833 2.86222 38.5142 1.66838 37.5398 1.67603C34.3646 1.70664 31.181 1.68369 28.0058 1.68369ZM23.0498 54.4422C22.6466 54.5111 22.235 54.5876 21.8234 54.6412C21.689 54.6565 21.5462 54.6029 21.4118 54.5876C21.5294 54.5035 21.6302 54.3657 21.7562 54.3351C22.1678 54.2356 22.5962 54.1744 23.0414 54.0902C22.9994 53.853 22.9574 53.6616 22.9238 53.4474C22.487 53.5239 22.0922 53.6004 21.689 53.654C21.5714 53.6693 21.4454 53.6081 21.3278 53.5851C21.4286 53.5009 21.521 53.3708 21.6386 53.3402C22.0502 53.2407 22.4786 53.1719 22.9154 53.0877C22.8986 52.8734 22.8818 52.6974 22.8566 52.4831C22.5458 52.4831 22.2518 52.4984 21.9578 52.4755C21.7058 52.4602 21.5798 52.5367 21.4958 52.7586C21.353 53.1566 21.1514 53.5392 21.017 53.9448C20.9498 54.1667 20.9498 54.4116 20.9582 54.6412C20.9582 54.9703 21.017 55.2993 21.0002 55.6284C21.0002 55.7126 20.8322 55.7968 20.7482 55.881C20.6642 55.8044 20.5634 55.7356 20.513 55.6437C20.4374 55.5213 20.3954 55.3759 20.3366 55.2381C20.2946 55.2381 20.261 55.2305 20.219 55.2305C20.0594 55.5748 19.9082 55.9269 19.7486 56.2713C19.7066 56.3554 19.6142 56.409 19.547 56.4779C19.4798 56.4014 19.3706 56.3401 19.3538 56.2559C19.3118 55.9958 19.295 55.7356 19.2698 55.4294C18.7574 55.6514 18.2702 55.858 17.699 56.1029C17.7494 55.5136 18.2534 55.3453 18.5306 54.9856C18.0686 55.0851 17.615 55.1846 17.153 55.284C17.1278 55.2458 17.111 55.2152 17.0858 55.1769C17.1866 55.0698 17.2706 54.9473 17.3882 54.8708C18.119 54.3734 18.9338 54.0596 19.841 53.9448C19.9838 53.9295 20.2022 53.7994 20.219 53.6923C20.597 51.7714 20.9666 49.8429 20.8742 47.8838C20.849 47.3328 20.723 46.7664 20.5214 46.2461C20.1182 45.2359 19.715 44.241 19.5638 43.1696C19.5218 42.8482 19.379 42.5344 19.3118 42.2207C19.2026 41.7232 19.1018 41.2335 19.0262 40.7284C19.0178 40.6518 19.127 40.5218 19.2194 40.4758C19.2614 40.4529 19.4042 40.5524 19.4798 40.6136C19.589 40.7131 19.6814 40.8355 19.7822 40.9427C19.8326 40.9273 19.8746 40.912 19.925 40.8967C19.8998 40.6289 19.8662 40.3687 19.8578 40.1008C19.8578 40.0243 19.9082 39.9478 19.9334 39.8636C20.0174 39.8942 20.1098 39.9172 20.177 39.9631C20.3534 40.0855 20.513 40.2233 20.6726 40.3534C20.6474 40.0243 20.555 39.7565 20.5046 39.4886C20.4542 39.2361 20.5802 39.1519 20.8406 39.2514C21.017 39.3203 21.185 39.4197 21.3698 39.481C21.8822 39.6493 22.3862 39.7106 22.9406 39.4427C22.445 39.1366 22.1006 38.7616 21.983 38.2489C21.9074 37.8968 21.983 37.828 22.361 37.9045C22.5542 37.9427 22.7642 37.9581 23.0162 37.981C22.949 37.8203 22.8902 37.7361 22.8734 37.6366C22.8398 37.5065 22.8314 37.3764 22.8146 37.2387C22.949 37.2693 23.0834 37.2999 23.2178 37.3305C23.3018 37.3535 23.3858 37.3764 23.5286 37.4224C23.4698 37.2616 23.411 37.1622 23.3942 37.055C23.3774 36.9249 23.3942 36.7948 23.3942 36.6647C23.5118 36.7106 23.6294 36.7489 23.7386 36.8025C24.0914 36.9938 24.3434 36.879 24.3518 36.4964C24.3518 36.3663 24.3182 36.2438 24.3266 36.1137C24.335 36.0372 24.377 35.9224 24.4358 35.8918C24.4946 35.8688 24.6122 35.9147 24.6878 35.9607C24.8642 36.0602 25.0322 36.1673 25.2422 36.2974C25.721 35.2337 25.8218 34.2158 25.6706 33.1521C25.5782 32.5016 25.259 32.0577 24.6626 31.7057C23.2514 30.8562 21.689 30.3435 20.0678 29.9838C17.447 29.3945 14.7674 29.2185 12.0794 29.1267C11.4746 29.1114 10.8782 29.0961 10.2734 29.0731C10.2062 29.0731 10.139 29.0119 10.0382 28.966C10.1474 28.8818 10.223 28.8206 10.349 28.7288C10.013 28.4379 9.66017 28.1778 9.36617 27.8716C7.98857 26.4023 6.98897 24.7646 7.06457 22.7596C7.12337 21.2826 7.26617 19.8132 7.35857 18.3362C7.36697 18.1449 7.29137 17.9459 7.25777 17.747C7.20737 17.747 7.14857 17.747 7.09817 17.7393C8.46737 16.6603 8.87897 15.3593 8.33297 13.7828C7.10657 14.5175 5.84657 14.7547 4.43537 14.4256C4.44377 14.617 4.41857 14.8006 4.46897 14.969C4.77977 16.0404 5.09897 17.1041 5.41817 18.1755C5.51897 18.5275 5.66177 18.8796 5.70377 19.2469C5.91377 21.0071 5.72897 22.7596 5.57777 24.512C5.46017 25.8436 5.31737 27.1752 5.25017 28.5145C5.20817 29.4252 5.28377 30.3358 5.58617 31.2465C5.80457 30.9634 5.98097 30.7108 6.19937 30.4812C6.45137 30.2134 6.55217 30.244 6.65297 30.5807C6.70337 30.7338 6.77057 30.8868 6.84617 31.0935C6.98057 30.7874 7.06457 30.5348 7.19897 30.3052C7.29977 30.1292 7.44257 30.0986 7.56857 30.3129C7.61057 30.3818 7.65257 30.4583 7.71977 30.5654C7.89617 30.2899 8.04737 30.0603 8.19857 29.8231C8.25737 29.8461 8.31617 29.8767 8.37497 29.8996C8.29097 30.0986 8.22377 30.3052 8.12297 30.4966C7.84577 30.994 7.82057 31.0016 7.31657 30.6496C7.28297 30.8562 7.26617 31.0399 7.22417 31.2236C7.19897 31.3307 7.14857 31.4302 7.11497 31.5297C6.99737 31.4761 6.83777 31.4532 6.77057 31.3613C6.61097 31.1777 6.49337 30.971 6.31697 30.7185C6.05657 31.17 5.81297 31.5986 5.48537 32.1649C5.51897 32.8307 5.81297 33.6266 6.28337 34.3612C7.29137 35.9454 8.66897 37.2081 10.3826 38.1723C11.9366 39.0448 13.5998 39.7106 15.3134 40.2845C15.3722 40.3075 15.4394 40.3075 15.5066 40.3151C15.5066 39.856 15.557 39.81 16.0022 39.9784C16.355 40.1161 16.6994 40.2845 17.0438 40.4376C17.3714 39.9707 17.3714 39.9707 17.825 40.4146C17.9846 40.3534 18.1442 40.2539 18.3206 40.2386C18.4634 40.2309 18.6902 40.2769 18.749 40.3687C19.1186 40.9197 18.9086 41.7079 18.3374 42.0753C18.2282 42.1441 18.1106 42.2819 18.1022 42.3967C18.035 42.9553 17.9594 43.5063 18.3962 44.0038C18.5474 44.1721 18.6146 44.417 18.665 44.639C18.833 45.3736 18.7994 46.1083 18.5558 46.8277C18.3038 47.5853 18.0434 48.3353 17.7746 49.0853C17.531 49.7357 17.2706 50.3786 17.0354 50.9602C17.363 51.274 17.657 51.5342 17.9258 51.825C18.0098 51.9168 18.0098 52.0775 18.0518 52.2C17.909 52.1846 17.7662 52.1923 17.6318 52.1617C17.4302 52.1081 17.2454 52.0316 17.0186 51.9474C16.9766 52.1158 16.943 52.2459 16.9178 52.3836C16.8338 52.7739 16.7666 53.1642 16.6742 53.5469C16.649 53.6387 16.5482 53.7229 16.4894 53.807C16.4138 53.7305 16.3046 53.6616 16.2626 53.5622C16.1786 53.3785 16.1282 53.1795 16.0694 52.9958C15.7922 53.0341 15.5234 53.08 15.2462 53.1106C14.3222 53.2101 14.3222 53.2101 14.2634 54.0519C14.2634 54.0749 14.2802 54.0979 14.3138 54.1667C14.7422 54.1438 15.179 54.1055 15.6242 54.1055C15.7754 54.1055 15.935 54.182 16.0862 54.228C15.9266 54.3045 15.7838 54.4193 15.6158 54.4422C15.1622 54.4958 14.7002 54.5111 14.1962 54.5417C14.1626 54.8172 14.1206 55.0774 14.0786 55.3759C14.5994 55.4065 15.0866 55.4294 15.5654 55.4677C15.6578 55.4754 15.7334 55.5595 15.8174 55.6055C15.7334 55.6743 15.6578 55.7815 15.557 55.7968C15.3974 55.8197 15.221 55.7891 15.053 55.7815C14.7086 55.7662 14.3642 55.7509 14.003 55.7356C13.9526 56.0646 13.9106 56.3325 13.8602 56.6309C14.297 56.6769 14.6834 56.7075 15.0698 56.761C15.1622 56.7763 15.2378 56.8605 15.3134 56.9141C15.221 56.9753 15.1454 57.0671 15.0446 57.0978C14.9606 57.1284 14.8514 57.0825 14.759 57.0748C14.4398 57.0518 14.129 57.0212 13.7846 56.9906C13.751 57.2279 13.7174 57.4192 13.6838 57.6717C14.1458 57.7253 14.5574 57.8095 14.969 57.8095C17.6738 57.8248 20.3702 57.8095 23.075 57.8248C23.4698 57.8248 23.7722 57.7176 24.041 57.4574C23.9822 57.335 23.9318 57.2202 23.8814 57.0978C23.495 57.2891 23.1338 57.4727 22.7726 57.6488C22.7474 57.2126 23.1002 57.159 23.3354 57.0136C23.8142 56.7151 23.8226 56.7304 23.5454 56.2253C23.033 56.4167 22.5206 56.6156 22.0082 56.8146C21.9746 56.761 21.9494 56.7075 21.9158 56.6462C22.3022 56.2024 22.9994 56.1947 23.4782 55.8427C23.4362 55.6896 23.3858 55.5366 23.3438 55.3912C22.697 55.5366 22.193 55.9498 21.521 55.9345C21.5966 55.7968 21.7058 55.682 21.8318 55.6284C22.1342 55.4907 22.445 55.3759 22.7474 55.2458C23.2934 55.0468 23.2934 55.0468 23.0498 54.4422ZM26.8382 39.6876C26.7962 39.6876 26.7626 39.6799 26.7206 39.6799C26.6954 39.7794 26.6786 39.8713 26.6534 39.9707C26.477 40.8279 26.2502 41.6697 25.7126 42.4043C25.4522 42.7564 25.1078 43.0701 24.7802 43.3763C24.6794 43.4681 24.4946 43.4834 24.3434 43.537C24.3266 43.4069 24.3098 43.2768 24.3014 43.139C24.3014 43.0472 24.3182 42.963 24.3434 42.787C24.1838 42.9783 24.0914 43.1084 23.9738 43.2155C23.6714 43.491 23.369 43.7819 23.033 44.0191C22.7978 44.1875 22.5962 44.1262 22.5626 43.7972C22.5374 43.5599 22.4282 43.3227 22.3526 43.0701C21.8066 43.4834 21.3278 43.8048 21.521 44.5242C21.6806 45.1211 21.8906 45.6568 22.403 46.093C22.8146 45.8328 23.2934 45.8022 23.7722 45.9859C24.0242 46.0854 24.251 46.2384 24.503 46.3455C24.6122 46.3915 24.7466 46.3762 24.8726 46.3838C24.6458 46.0471 24.3854 45.8328 24.167 45.5956C24.0914 45.5114 24.0998 45.366 24.0746 45.2512C24.1922 45.2742 24.3518 45.2665 24.4358 45.3277C24.7214 45.542 24.9902 45.7869 25.2758 46.0394C25.4858 45.894 25.6622 45.7639 25.8722 45.6185C25.5866 45.343 25.3262 45.1134 25.0994 44.8609C25.0154 44.7691 25.0154 44.6237 24.9818 44.5089C25.1246 44.5395 25.2926 44.5395 25.3934 44.616C25.6874 44.8609 25.9562 45.1364 26.2334 45.4042C26.4686 45.2665 26.6534 45.1594 26.8802 45.0293C26.5358 44.7614 26.2082 44.5242 25.9058 44.2563C25.8134 44.1721 25.7966 44.0114 25.7462 43.889C25.889 43.9196 26.0654 43.9196 26.1746 43.9885C26.477 44.1951 26.7374 44.4476 27.0482 44.639C27.1658 44.7155 27.3758 44.7231 27.5186 44.6925C27.7202 44.6466 27.905 44.5242 28.1486 44.4094C27.6698 44.1721 27.2666 43.9808 26.8718 43.7589C26.7626 43.6977 26.7122 43.5599 26.6366 43.4604C26.7794 43.4528 26.9558 43.3992 27.0734 43.4528C27.5102 43.6441 27.9302 43.866 28.4258 44.1033C28.451 43.5905 28.4762 43.1467 28.5014 42.6722C27.9974 42.6722 27.569 42.6798 27.1322 42.6645C27.0398 42.6645 26.9558 42.5804 26.8718 42.5344C26.9558 42.4656 27.023 42.3661 27.1238 42.3355C27.233 42.2972 27.3758 42.3202 27.5018 42.3202C27.8462 42.3202 28.1906 42.3202 28.5602 42.3202C28.5602 42.0447 28.5602 41.838 28.5602 41.6161C28.0898 41.5243 27.6446 41.4401 27.2162 41.3559C27.1238 41.5013 27.0482 41.6084 26.9726 41.7156C26.9306 41.7079 26.8886 41.7003 26.8466 41.6926C26.8382 41.0345 26.8382 40.361 26.8382 39.6876ZM20.1854 42.1901C19.8662 42.611 19.7906 43.0395 19.925 43.4834C20.1686 44.2793 20.4542 45.0675 20.6978 45.8558C20.8742 46.4144 21.1262 46.9807 21.143 47.547C21.1766 48.6261 21.101 49.7128 21.017 50.7842C20.9582 51.5495 20.7986 52.3147 20.681 53.0877C21.1598 53.0265 21.3026 52.8198 21.1934 52.4142C21.1766 52.353 21.1766 52.2306 21.2186 52.2076C21.7394 51.9321 21.6386 51.3888 21.9074 50.9602C21.6974 50.9219 21.5462 50.9143 21.4034 50.8684C21.311 50.8378 21.2354 50.7689 21.1598 50.7153C21.2522 50.6541 21.3278 50.5699 21.4286 50.5316C21.4958 50.5087 21.5966 50.5393 21.6722 50.5546C21.9242 50.6158 22.0418 50.5393 22.1174 50.3021C22.3022 49.7128 22.3106 49.7204 21.689 49.5062C21.6386 49.4909 21.5714 49.4832 21.5378 49.4526C21.4622 49.3837 21.395 49.2995 21.3278 49.2154C21.4454 49.1847 21.5714 49.1082 21.6806 49.1235C21.9074 49.1618 22.1258 49.246 22.3442 49.3148C22.529 48.7103 22.5038 48.6567 21.9914 48.3812C21.9074 48.3353 21.8066 48.3047 21.7394 48.2434C21.6722 48.1669 21.6302 48.0674 21.5882 47.9756C21.7142 47.9603 21.8486 47.9067 21.9494 47.9373C22.1258 47.9909 22.2854 48.098 22.5122 48.2205C22.4702 47.4858 22.4702 46.8353 21.4286 46.7435C21.4538 46.7129 21.4874 46.6746 21.5126 46.644C21.7058 46.6057 21.9074 46.5675 22.1006 46.5292C22.0922 46.5139 22.0922 46.5063 22.0838 46.4909C21.7814 46.4603 21.479 46.4297 21.1766 46.4068C21.1766 46.3532 21.1766 46.3073 21.1766 46.2537C21.437 46.2231 21.7058 46.1848 21.9662 46.1542C21.9662 46.1236 21.9662 46.1007 21.9662 46.07C21.6134 46.0394 21.269 46.0088 20.9162 45.9859C20.9162 45.9323 20.9246 45.8787 20.9246 45.8328C21.143 45.8022 21.353 45.7639 21.5714 45.7333C21.5714 45.7027 21.5798 45.6798 21.5798 45.6491C21.3194 45.6032 21.0506 45.565 20.7902 45.519C20.7902 45.4731 20.7986 45.4196 20.7986 45.3736C20.975 45.343 21.1598 45.3048 21.395 45.2665C21.1598 45.2053 20.9918 45.167 20.8238 45.1211C20.8238 45.0828 20.8238 45.0522 20.8238 45.014C20.9666 44.968 21.1094 44.9221 21.2522 44.8762C21.2522 44.3176 21.1934 43.7665 21.269 43.2309C21.3278 42.8482 21.2522 42.5957 20.933 42.3661C20.4206 42.764 20.4206 42.764 20.1854 42.1901ZM9.22337 12.1374C8.61017 12.0073 8.04737 11.839 7.47617 11.7854C5.82977 11.6247 4.88897 12.2752 4.50257 13.7445C4.42697 14.0506 4.52777 14.1578 4.81337 14.2343C5.51897 14.4103 6.20777 14.2955 6.87977 14.1272C8.01377 13.8593 8.71097 13.1553 9.22337 12.1374ZM17.2706 43.8278C17.3966 45.9093 17.2538 47.9067 16.8338 49.9118C17.0102 49.8276 17.1782 49.7204 17.2286 49.5903C17.5898 48.6031 17.9426 47.6083 18.2786 46.6057C18.3794 46.3073 18.3878 45.9859 18.4298 45.6874C18.1778 45.6338 17.9846 45.5879 17.7914 45.542C17.7914 45.5037 17.7998 45.4655 17.7998 45.4272C18.0014 45.3813 18.203 45.343 18.4046 45.2971C18.3962 45.2665 18.3962 45.2359 18.3878 45.2053C18.1358 45.1747 17.8754 45.1364 17.6234 45.1058C17.6234 45.0599 17.615 45.014 17.615 44.968C17.8418 44.9374 18.0602 44.8992 18.287 44.8685C18.287 44.8532 18.287 44.8379 18.287 44.8226C18.0518 44.792 17.8082 44.7614 17.573 44.7231C17.573 44.6849 17.573 44.639 17.5646 44.6007C17.6738 44.5701 17.7746 44.5395 17.8838 44.5242C17.993 44.5012 18.1106 44.5012 18.2282 44.4859C18.2282 44.4553 18.2282 44.417 18.2366 44.3864C17.993 44.3405 17.741 44.3022 17.4974 44.2563C17.4974 44.2181 17.4974 44.1798 17.489 44.1415C17.6402 44.0956 17.7914 44.0497 17.951 44.0038C17.951 43.9732 17.951 43.9502 17.9594 43.9196C17.7494 43.8966 17.5478 43.866 17.2706 43.8278ZM23.201 46.1848C22.6634 46.1619 22.3778 46.5139 22.5794 46.996C22.865 47.7001 23.4446 48.1133 24.2342 48.2511C24.839 48.3582 25.1666 47.9909 24.9902 47.4552C24.7718 46.8277 23.9234 46.2231 23.201 46.1848ZM35.7002 22.5606C35.7338 23.2034 35.8346 23.6626 36.2126 24.0223C36.5402 24.3207 36.893 24.2901 37.1618 23.9534C37.6154 23.3871 37.4978 22.2392 36.9434 21.7494C36.6158 21.4586 36.2294 21.4662 36.0026 21.8259C35.8346 22.0861 35.759 22.4075 35.7002 22.5606ZM10.9118 44.9145C11.0714 45.1517 11.1638 45.4655 11.3906 45.6109C11.6846 45.8022 12.0038 45.5879 12.2474 45.3813C12.7766 44.9298 13.0202 44.3635 12.9278 43.6977C12.8522 43.1314 12.3818 42.9477 11.8778 43.2844C11.2982 43.6671 11.0546 44.2181 10.9118 44.9145ZM8.77817 13.4002C10.5926 12.7037 12.3146 12.0456 14.0954 11.3645C13.9862 11.3415 13.961 11.3262 13.9358 11.3262C12.5246 11.6324 11.105 11.9385 9.69377 12.2599C9.59297 12.2828 9.47537 12.3441 9.42497 12.4129C9.21497 12.7114 9.02177 13.0252 8.77817 13.4002ZM8.83697 14.2802C10.7774 13.3619 12.6842 12.4589 14.5826 11.5482C14.5742 11.5252 14.5574 11.5023 14.549 11.4869C12.5582 12.2522 10.559 13.0099 8.50937 13.7904C8.63537 13.9741 8.72777 14.1195 8.83697 14.2802ZM28.7702 40.0932C28.8122 39.81 28.8626 39.5881 28.871 39.3585C28.871 39.2667 28.8038 39.1366 28.7282 39.0907C28.4174 38.93 28.0814 38.7999 27.7202 38.6468C27.6614 39.0448 27.6026 39.4044 27.5606 39.7029C27.9806 39.833 28.3502 39.9554 28.7702 40.0932ZM16.8758 41.8839C17.0102 42.4579 17.1446 43.0395 17.279 43.6364C17.4386 43.6135 17.5814 43.5905 17.657 43.5752C17.741 42.9018 17.825 42.2819 17.9006 41.6773C17.2202 41.9758 17.2202 41.9758 16.8758 41.8839ZM28.6274 41.2641C28.661 41.0498 28.7114 40.8738 28.703 40.7054C28.6946 40.6059 28.6106 40.4682 28.5182 40.4223C28.1906 40.2769 27.8546 40.1697 27.485 40.0396C27.4094 40.384 27.3338 40.6978 27.2666 41.0115C27.737 41.1034 28.157 41.1799 28.6274 41.2641ZM22.865 52.1081C22.865 51.8173 22.8818 51.5418 22.8566 51.2663C22.8482 51.1821 22.7054 51.052 22.613 51.052C22.4618 51.0444 22.2098 51.075 22.1594 51.1592C21.9998 51.4423 21.9074 51.7637 21.7814 52.1081C22.1678 52.1081 22.4954 52.1081 22.865 52.1081ZM39.7826 24.734C39.7826 24.0605 39.7826 23.4253 39.7826 22.7902C39.623 23.1039 39.5054 23.4253 39.3878 23.7544C39.1946 24.3131 39.1946 24.3131 39.7826 24.734ZM22.571 49.8352C22.487 50.1184 22.4114 50.3633 22.319 50.6464C22.5374 50.6617 22.7054 50.677 22.9406 50.6923C22.8314 50.3786 23.2598 49.973 22.571 49.8352ZM15.9518 52.1005C15.5906 52.3224 15.2462 52.529 14.9018 52.7356C14.9186 52.7663 14.9354 52.7969 14.9522 52.8198C15.2882 52.7892 15.6326 52.7586 15.9938 52.728C15.9938 52.552 15.9938 52.3989 15.9938 52.2459C15.9938 52.2153 15.977 52.1846 15.9518 52.1005ZM15.1202 51.7255C14.4146 51.8556 14.2382 51.825 14.4146 52.4219C14.6414 52.1923 14.8766 51.9704 15.1202 51.7255ZM23.0246 49.5521C23.1002 49.2383 23.2598 48.9628 22.7558 48.8557C22.8314 49.0929 22.4282 49.4296 23.0246 49.5521ZM22.8902 48.0139C22.8398 48.0368 22.7978 48.0598 22.7474 48.0751C22.865 48.2588 22.9826 48.4348 23.159 48.7026C23.3102 48.2511 23.3102 48.2511 22.8902 48.0139Z" fill="black"/>
<path d="M14.406 51.404C14.2296 50.8454 14.2884 50.7459 14.91 50.5316C15.0696 50.478 15.2376 50.4398 15.3804 50.3632C15.4896 50.3097 15.5652 50.2025 15.6576 50.1183C15.6324 50.0724 15.5988 50.0265 15.5736 49.9882C15.1872 50.1107 14.8008 50.2255 14.3556 50.3709C14.3304 50.0954 14.28 49.8352 14.2884 49.575C14.2884 49.4908 14.3976 49.376 14.49 49.3224C14.7924 49.1464 15.12 48.9934 15.4224 48.8097C15.5484 48.7408 15.6408 48.626 15.708 48.473C15.1368 48.4959 14.7504 48.8862 14.2548 49.0469C14.2296 49.001 14.2044 48.9704 14.196 48.9398C14.0532 48.1209 14.0532 48.1209 14.8512 47.6924C15.036 47.5929 15.2208 47.5164 15.3972 47.4016C15.498 47.3327 15.5736 47.2179 15.6576 47.1261C15.624 47.0802 15.582 47.0342 15.5484 46.9807C15.0444 47.2409 14.532 47.4934 14.0196 47.7536C13.692 47.0878 13.692 47.0878 14.2464 46.621C14.5572 46.3608 14.868 46.1006 15.162 45.8328C15.2628 45.7409 15.33 45.6261 15.3552 45.4654C14.6412 45.6873 14.2632 46.3072 13.6584 46.644C13.272 46.0088 13.272 46.0088 13.7592 45.4654C13.9692 45.2282 14.1876 44.9909 14.3892 44.7461C14.4648 44.6542 14.5152 44.5394 14.616 44.3558C14.112 44.3864 14.0112 44.7231 13.8012 44.9221C13.5828 45.1287 13.3896 45.3659 13.1796 45.6032C12.9024 45.3506 12.9276 45.1363 13.0368 44.8379C13.188 44.4246 13.2804 43.9655 13.23 43.5446C13.146 42.8558 12.39 42.565 11.7936 42.9782C11.4156 43.2461 11.1636 43.667 10.8528 44.019C10.7604 44.1185 10.6764 44.2257 10.5924 44.3328C10.5504 44.3175 10.5084 44.2945 10.4748 44.2792C10.4748 43.9655 10.4916 43.6517 10.4664 43.3379C10.458 43.2231 10.3656 43.1084 10.3068 43.0012C10.2312 43.1237 10.1136 43.2384 10.0968 43.3609C10.0632 43.5981 10.0632 43.843 10.0884 44.0879C10.1304 44.417 9.95396 44.5471 9.55076 44.5853C9.55076 44.2639 9.56756 43.9502 9.54236 43.6364C9.53396 43.5522 9.43316 43.468 9.36596 43.3839C9.29876 43.468 9.18116 43.5522 9.17276 43.644C9.15596 43.9502 9.17276 44.2563 9.19796 44.5624C9.22316 44.8455 9.11396 45.0216 8.84516 45.144C8.62676 44.8379 8.59316 44.5318 8.71076 44.195C8.85356 43.7665 8.96276 43.3303 9.06356 42.8941C9.08036 42.8099 9.02156 42.7181 9.00476 42.6262C8.91236 42.6874 8.76956 42.7334 8.74436 42.8099C8.61836 43.1696 8.52596 43.5369 8.41676 43.9042C8.36636 43.9042 8.31596 43.9042 8.25716 43.9042C8.23196 43.6287 8.14796 43.3456 8.18996 43.0701C8.24036 42.6798 8.39156 42.3048 8.47556 41.9145C8.49236 41.8227 8.42516 41.7232 8.39996 41.6237C8.31596 41.6926 8.18156 41.7461 8.14796 41.838C8.03876 42.1288 7.97156 42.4272 7.88756 42.7334C7.49276 42.2818 7.39196 41.9069 7.52636 41.4018C7.64396 40.9579 7.77836 40.514 7.87076 40.0625C7.89596 39.9554 7.82036 39.8253 7.79516 39.7105C7.70276 39.81 7.56836 39.8942 7.53476 40.009C7.40036 40.4146 7.29956 40.8355 7.16516 41.3176C6.87956 40.8584 6.62756 40.4987 6.83756 39.986C7.07276 39.412 7.20716 38.8075 7.36676 38.2182C7.39196 38.1187 7.33316 37.9963 7.31636 37.8815C7.21556 37.9657 7.06436 38.0422 7.03076 38.1493C6.83756 38.7309 6.66956 39.3202 6.46796 39.9783C6.11516 39.4426 5.74556 39.0217 6.03956 38.3942C6.24956 37.958 6.35036 37.4682 6.49316 37.0014C6.53516 36.8713 6.54356 36.7412 6.56876 36.6111C6.51836 36.5881 6.47636 36.5652 6.42596 36.5422C6.33356 36.6647 6.19916 36.7718 6.15716 36.9096C5.97236 37.4223 5.82116 37.9503 5.63636 38.532C5.30036 38.1034 5.05676 37.7667 5.21636 37.2616C5.41796 36.6035 5.53556 35.9147 5.66996 35.2412C5.70356 35.0882 5.65316 34.9122 5.63636 34.7515C5.52716 34.9045 5.35916 35.0423 5.31716 35.2106C5.14916 35.8764 5.01476 36.5575 4.84676 37.2922C4.40156 36.7259 3.96476 36.2438 4.22516 35.5244C4.37636 35.1035 4.39316 34.6443 4.46036 34.2081C4.47716 34.1163 4.40156 34.0168 4.36796 33.9173C4.28396 34.0015 4.14116 34.0704 4.11596 34.1699C4.00676 34.6826 3.92276 35.1953 3.80516 35.8305C3.45236 35.2872 2.86436 34.9734 3.08276 34.277C3.22556 33.8102 3.28436 33.328 3.35996 32.8459C3.37676 32.7541 3.30956 32.6469 3.28436 32.5475C3.19196 32.624 3.04916 32.6929 3.02396 32.7847C2.90636 33.2821 2.81396 33.7796 2.72156 34.277C2.67956 34.2923 2.63756 34.2999 2.59556 34.3153C2.51156 34.1239 2.41916 33.9403 2.35196 33.7413C2.32676 33.6571 2.34356 33.5653 2.34356 33.4734C2.34356 23.6013 2.36036 13.7292 2.31836 3.85703C2.31836 2.90808 3.66236 1.67598 4.68716 1.68363C8.84516 1.72955 13.0032 1.70659 17.1612 1.70659C17.3292 1.70659 17.4972 1.70659 17.6568 1.70659C15.9432 7.85946 17.5224 13.094 23.2764 16.7903C28.5852 20.1958 34.2048 19.9662 39.774 16.9663C39.7824 17.0658 39.7992 17.1653 39.7992 17.2724C39.7992 18.8183 39.7992 20.3565 39.7992 21.9024C39.7992 22.0707 39.8496 22.2468 39.5892 22.3386C39.4968 22.3692 39.4464 22.5452 39.4044 22.66C39.2448 23.0809 39.102 23.5095 38.9592 23.938C38.3124 23.6319 38.2452 23.5171 38.3376 22.9049C38.3712 22.6906 38.4132 22.4763 38.4132 22.2621C38.4132 22.1702 38.3292 22.0784 38.2872 21.9866C38.2116 22.0631 38.0856 22.132 38.0604 22.2238C38.0016 22.484 37.9764 22.7518 37.9344 23.0197C37.926 23.058 37.884 23.0962 37.8336 23.1804C37.758 22.836 37.716 22.5376 37.6152 22.2544C37.4052 21.6192 36.8844 21.2136 36.3972 21.2519C35.9184 21.2978 35.5068 21.7493 35.406 22.3998C35.364 22.66 35.4144 22.9355 35.406 23.1957C35.3976 23.3717 35.3556 23.5401 35.3304 23.7084C35.2716 23.7084 35.2128 23.7161 35.1624 23.7161C35.0364 23.3105 34.9188 22.9049 34.776 22.507C34.7172 22.3462 34.8012 22.0325 34.4484 22.0937C34.398 22.1014 34.3728 22.4457 34.4148 22.6217C34.5156 23.058 34.6836 23.4789 34.7844 23.9151C34.8264 24.0758 34.7676 24.2518 34.7508 24.4202C34.7004 24.4202 34.65 24.4278 34.5996 24.4278C34.4232 23.9227 34.2636 23.41 34.0704 22.9126C34.0284 22.7978 33.8856 22.7059 33.7932 22.6064C33.7596 22.7518 33.6756 22.9049 33.7092 23.035C33.8436 23.5171 33.9948 23.9993 34.188 24.4584C34.3392 24.8181 34.2636 25.1013 33.9108 25.3844C33.7428 24.9329 33.5832 24.512 33.4236 24.0834C33.3816 23.961 33.3564 23.8309 33.2808 23.7238C33.2304 23.6396 33.1212 23.586 33.0372 23.5248C32.9952 23.6319 32.8944 23.7544 32.9196 23.8385C33.0876 24.3666 33.264 24.8946 33.4824 25.3997C33.6504 25.7824 33.5832 26.0808 33.222 26.4099C33.0624 26.0273 32.9112 25.6676 32.76 25.3079C32.6592 25.0553 32.5668 24.8028 32.4408 24.5579C32.3988 24.4737 32.2728 24.4278 32.1888 24.3666C32.1552 24.4737 32.0628 24.5962 32.088 24.688C32.2224 25.0783 32.3904 25.4533 32.55 25.8359C32.6256 26.0119 32.676 26.2109 32.7768 26.3716C33.054 26.8002 32.928 27.1675 32.5584 27.5655C32.3316 27.114 32.1132 26.6777 31.9032 26.2492C31.8108 26.0655 31.7352 25.8665 31.626 25.6905C31.5756 25.6063 31.4496 25.5681 31.3572 25.5069C31.3236 25.614 31.2312 25.7441 31.2648 25.8283C31.3992 26.165 31.5756 26.4864 31.7352 26.8078C31.8612 27.0604 31.9536 27.3359 32.1132 27.5731C32.3904 27.9711 32.298 28.3154 31.962 28.6981C31.6428 28.1624 31.3404 27.642 31.0128 27.1369C30.912 26.9762 30.912 26.6471 30.5592 26.7772C30.5172 26.7925 30.576 27.1369 30.66 27.2976C30.9372 27.8104 31.2312 28.3231 31.5672 28.8052C31.7856 29.1266 31.7604 29.3868 31.4832 29.7159C31.2144 29.318 30.954 28.9506 30.702 28.5756C30.618 28.4532 30.5592 28.3231 30.45 28.2236C30.3408 28.1241 30.1896 28.0552 30.0552 27.9711C30.072 28.1241 30.0468 28.3078 30.1224 28.4379C30.3912 28.8741 30.6516 29.318 30.996 29.7006C31.416 30.1674 31.2228 30.5577 30.954 31.0169C30.6264 30.5807 30.324 30.1674 29.9964 29.7695C29.9208 29.6776 29.7444 29.6547 29.6184 29.5935C29.6352 29.7159 29.6016 29.869 29.6688 29.9608C29.8956 30.2975 30.1224 30.6419 30.408 30.9327C30.8028 31.346 30.87 31.7516 30.4752 32.249C30.2484 31.9888 30.03 31.7133 29.778 31.4684C29.652 31.3383 29.5764 31.0322 29.2908 31.2159C29.2488 31.2465 29.3832 31.5526 29.484 31.7133C29.61 31.9046 29.7612 32.1036 29.9544 32.249C30.5088 32.6776 30.3072 33.1367 30.0552 33.6724C29.7948 33.4275 29.5764 33.1979 29.3328 32.999C29.2404 32.9224 29.0808 32.9148 28.9548 32.8765C28.9884 33.0066 28.9884 33.1597 29.064 33.2592C29.1984 33.4352 29.3664 33.5959 29.5512 33.7336C29.946 34.0168 30.0216 34.3382 29.7444 34.7821C29.3748 34.4989 28.9968 34.2158 28.6272 33.9326C28.4844 33.8255 28.3584 33.6954 28.2072 33.6188C28.0728 33.5576 27.9048 33.55 27.7452 33.5194C27.804 33.6418 27.8376 33.8025 27.9384 33.8867C28.3332 34.2158 28.7448 34.5142 29.1564 34.828C29.7444 35.2795 29.7444 35.2795 29.4504 36.0295C29.0304 35.7463 28.6272 35.4555 28.1988 35.203C28.0812 35.1341 27.9048 35.1494 27.762 35.1188C27.8292 35.2489 27.8628 35.4096 27.972 35.4938C28.2912 35.7387 28.6272 35.9759 28.98 36.1749C29.316 36.3662 29.4336 36.5881 29.3076 36.9249C29.2656 37.032 29.2488 37.1391 29.2068 37.2845C28.9296 37.1315 28.686 36.9784 28.4256 36.8713C28.3332 36.833 28.1904 36.8943 28.0644 36.9172C28.1148 37.009 28.1652 37.1009 28.224 37.1851C28.2324 37.208 28.2744 37.208 28.2912 37.2233C29.1816 37.7514 29.1816 37.7514 28.938 38.7615C28.5432 38.6008 28.1568 38.4401 27.8124 38.3024C27.762 37.43 27.762 36.5881 27.6696 35.754C27.468 33.8714 26.3592 32.4786 24.6792 31.4454C23.0412 30.4429 21.1764 29.9302 19.2612 29.5705C16.6488 29.0807 13.9944 28.92 11.3316 28.8741C10.9788 28.8664 10.7268 28.767 10.4748 28.5603C9.08036 27.4124 8.04716 26.0502 7.54316 24.3972C7.36676 23.8309 7.30796 23.211 7.34156 22.6217C7.43396 21.007 7.59356 19.3923 7.73636 17.7852C7.75316 17.6474 7.83716 17.4867 7.93796 17.3796C8.57636 16.6755 8.85356 15.8643 8.82836 14.9689C8.81996 14.6781 8.93756 14.5404 9.20636 14.4179C11.6424 13.27 14.0784 12.1144 16.506 10.9665C16.6152 10.9129 16.7412 10.8747 16.8336 10.8058C16.9176 10.7369 16.9596 10.6374 17.0268 10.5456C16.9176 10.515 16.7916 10.4461 16.6992 10.4691C15.8676 10.6374 15.036 10.8287 14.2128 11.0124C12.768 11.3338 11.3316 11.6553 9.88676 11.9614C9.67676 12.0073 9.43316 11.9614 9.20636 11.9231C8.40836 11.793 7.62716 11.5711 6.82916 11.5328C5.78756 11.4869 5.01476 11.9843 4.55276 12.8414C4.09916 13.6679 3.97316 14.548 4.23356 15.4434C4.54436 16.4995 4.93076 17.5403 5.23316 18.5964C5.36756 19.0708 5.47676 19.5759 5.45156 20.0657C5.35916 22.0631 5.24996 24.0605 5.09036 26.0579C4.95596 27.7262 4.80476 29.3868 5.18276 31.0475C5.23316 31.2541 5.15756 31.4761 5.14916 31.6903C5.12396 32.6546 5.40116 33.5576 5.91356 34.3994C7.05596 36.2667 8.66036 37.7284 10.7268 38.7156C12.1716 39.4044 13.692 39.9707 15.1872 40.5753C15.414 40.6671 15.5736 40.7589 15.666 40.9962C15.7836 41.2793 15.9516 41.5625 16.1868 41.7691C16.674 42.2053 16.8336 42.741 16.9008 43.315C17.1948 45.7868 16.9428 48.2281 16.2708 50.6311C16.2372 50.7459 16.0608 50.8683 15.918 50.9142C15.6324 51.0061 15.3132 51.029 15.0276 51.1209C14.8008 51.1744 14.6076 51.3045 14.406 51.404Z" fill="white"/>
<path d="M28.0056 1.68356C31.1808 1.68356 34.356 1.70651 37.5396 1.66825C38.5224 1.6606 39.8328 2.85444 39.8244 3.74982C39.7908 7.88999 39.8076 12.0378 39.816 16.178C39.816 16.4612 39.7068 16.6066 39.4632 16.752C33.0792 20.4865 24.9144 19.2927 20.2776 13.8209C17.2704 10.27 16.59 6.25994 17.9424 1.9514C18.0264 1.68356 18.1944 1.6759 18.4296 1.6759C21.63 1.68356 24.8136 1.68356 28.0056 1.68356Z" fill="#EC1D24"/>
<path d="M23.0496 54.4422C23.2932 55.0468 23.2932 55.0468 22.7136 55.284C22.4112 55.4065 22.092 55.5213 21.798 55.6667C21.672 55.7279 21.5628 55.835 21.4872 55.9728C22.1592 55.9804 22.6632 55.5748 23.31 55.4294C23.352 55.5825 23.4024 55.7355 23.4444 55.881C22.9656 56.233 22.2684 56.2406 21.882 56.6845C21.9156 56.7381 21.9408 56.7916 21.9744 56.8529C22.4868 56.6539 22.9992 56.4626 23.5116 56.2636C23.7888 56.761 23.7804 56.7534 23.3016 57.0518C23.0664 57.1972 22.7136 57.2432 22.7388 57.687C23.1 57.5033 23.4612 57.3273 23.8476 57.136C23.9064 57.2585 23.9568 57.3733 24.0072 57.4957C23.7384 57.7559 23.436 57.863 23.0412 57.863C20.3364 57.8477 17.64 57.863 14.9352 57.8477C14.5236 57.8477 14.112 57.7635 13.65 57.71C13.692 57.4574 13.7172 57.2661 13.7508 57.0289C14.0952 57.0595 14.4144 57.0824 14.7252 57.1131C14.826 57.1207 14.9352 57.159 15.0108 57.136C15.1116 57.1054 15.1956 57.0136 15.2796 56.9523C15.1956 56.8988 15.12 56.8146 15.036 56.7993C14.6496 56.7457 14.2632 56.7151 13.8264 56.6692C13.8768 56.3707 13.9188 56.1029 13.9692 55.7738C14.3388 55.7891 14.6748 55.8044 15.0192 55.8197C15.1872 55.8274 15.3636 55.858 15.5232 55.835C15.6156 55.8197 15.6996 55.7126 15.7836 55.6437C15.6996 55.5978 15.6156 55.5136 15.5316 55.506C15.0444 55.4677 14.5656 55.4447 14.0448 55.4141C14.0868 55.1157 14.1204 54.8555 14.1624 54.58C14.658 54.5494 15.12 54.5341 15.582 54.4805C15.7416 54.4652 15.8928 54.3427 16.0524 54.2662C15.9012 54.2279 15.7416 54.1438 15.5904 54.1438C15.1452 54.1438 14.7084 54.182 14.28 54.205C14.2464 54.1361 14.2296 54.1132 14.2296 54.0902C14.2884 53.2484 14.2884 53.2484 15.2124 53.1489C15.4812 53.1183 15.75 53.0724 16.0356 53.0341C16.0944 53.2101 16.1448 53.4091 16.2288 53.6004C16.2708 53.6923 16.38 53.7611 16.4556 53.8453C16.5228 53.7611 16.6236 53.6769 16.6404 53.5851C16.7328 53.2025 16.8 52.8122 16.884 52.4219C16.9092 52.2841 16.9512 52.154 16.9848 51.9857C17.2116 52.0622 17.4048 52.1464 17.598 52.1999C17.7324 52.2382 17.8752 52.2306 18.018 52.2382C17.976 52.1081 17.976 51.9551 17.892 51.8632C17.6232 51.5724 17.3292 51.3122 17.0016 50.9985C17.2368 50.4092 17.5056 49.7664 17.7408 49.1235C18.018 48.3735 18.2784 47.6236 18.522 46.8659C18.7572 46.1466 18.7992 45.4119 18.6312 44.6772C18.5808 44.4553 18.5136 44.2104 18.3624 44.042C17.9256 43.5446 18.0096 42.9936 18.0684 42.4349C18.0852 42.3202 18.1944 42.1901 18.3036 42.1135C18.8748 41.7462 19.0932 40.958 18.7152 40.4069C18.648 40.3151 18.4296 40.2615 18.2868 40.2768C18.1188 40.2922 17.9508 40.3916 17.7912 40.4529C17.3292 40.0013 17.3292 40.0014 17.01 40.4758C16.6656 40.3228 16.3212 40.1544 15.9684 40.0167C15.5232 39.8483 15.4728 39.8866 15.4728 40.3534C15.4056 40.3457 15.3384 40.3457 15.2796 40.3228C13.566 39.7488 11.9028 39.083 10.3488 38.2106C8.63521 37.2463 7.25761 35.9836 6.24961 34.3995C5.77921 33.6648 5.49361 32.8689 5.45161 32.2031C5.77921 31.6292 6.02281 31.2083 6.28321 30.7567C6.45961 31.0093 6.57721 31.2236 6.73681 31.3996C6.81241 31.4838 6.96361 31.5144 7.08121 31.5679C7.12321 31.4685 7.17361 31.369 7.19041 31.2618C7.23241 31.0782 7.24921 30.8868 7.28281 30.6879C7.77841 31.0322 7.81201 31.0322 8.08921 30.5348C8.19001 30.3435 8.25721 30.1369 8.34121 29.9379C8.28241 29.9149 8.22361 29.8843 8.16481 29.8614C8.01361 30.0986 7.86241 30.3282 7.68601 30.6037C7.61881 30.4965 7.57681 30.4277 7.53481 30.3511C7.41721 30.1369 7.26601 30.1751 7.16521 30.3435C7.03081 30.5731 6.94681 30.8256 6.81241 31.1317C6.73681 30.9251 6.66961 30.772 6.61921 30.619C6.51001 30.2823 6.41761 30.2517 6.16561 30.5195C5.94721 30.7491 5.77081 31.0016 5.55241 31.2848C5.25841 30.3741 5.17441 29.4634 5.21641 28.5527C5.28361 27.2135 5.43481 25.8819 5.54401 24.5503C5.69521 22.7978 5.88001 21.0377 5.67001 19.2852C5.62801 18.9255 5.48521 18.5734 5.38441 18.2138C5.07361 17.1424 4.74601 16.0786 4.43521 15.0072C4.38481 14.8389 4.41001 14.6629 4.40161 14.4639C5.81281 14.793 7.07281 14.5557 8.29921 13.821C8.84521 15.3975 8.44201 16.7062 7.06441 17.7776C7.11481 17.7776 7.17361 17.7776 7.22401 17.7852C7.25761 17.9842 7.34161 18.1755 7.32481 18.3745C7.23241 19.8515 7.08961 21.3208 7.03081 22.7978C6.95521 24.8028 7.95481 26.4329 9.33241 27.9099C9.61801 28.216 9.97081 28.4762 10.3152 28.767C10.1892 28.8665 10.1136 28.9201 10.0044 29.0042C10.1136 29.0578 10.1724 29.1114 10.2396 29.1114C10.8444 29.1343 11.4408 29.142 12.0456 29.165C14.7336 29.2491 17.4132 29.4328 20.034 30.0221C21.6552 30.3894 23.2176 30.9021 24.6288 31.744C25.2252 32.096 25.5444 32.5398 25.6368 33.1903C25.788 34.2541 25.6872 35.2719 25.2084 36.3356C25.0068 36.2132 24.8388 36.0984 24.654 35.9989C24.5784 35.9607 24.4608 35.9071 24.402 35.93C24.3432 35.953 24.3012 36.0678 24.2928 36.152C24.2844 36.2744 24.3264 36.4045 24.318 36.5346C24.3096 36.9173 24.0576 37.0321 23.7048 36.8407C23.5956 36.7795 23.478 36.7489 23.3604 36.703C23.3604 36.8331 23.3352 36.9632 23.3604 37.0933C23.3772 37.2004 23.436 37.2999 23.4948 37.4606C23.3604 37.4223 23.268 37.3917 23.184 37.3688C23.0496 37.3382 22.9152 37.3076 22.7808 37.2769C22.7976 37.407 22.806 37.5448 22.8396 37.6749C22.8648 37.7744 22.9152 37.8586 22.9824 38.0193C22.7304 37.9887 22.5204 37.981 22.3272 37.9427C21.9492 37.8662 21.8736 37.9351 21.9492 38.2871C22.0668 38.8075 22.4112 39.1748 22.9068 39.481C22.3608 39.7565 21.8484 39.6876 21.336 39.5192C21.1512 39.458 20.9832 39.3662 20.8068 39.2896C20.5464 39.1902 20.412 39.2743 20.4708 39.5269C20.5296 39.7947 20.622 40.0626 20.6388 40.3916C20.4708 40.2615 20.3112 40.1238 20.1432 40.0014C20.076 39.9554 19.9836 39.9325 19.8996 39.9019C19.8744 39.9784 19.8156 40.0626 19.824 40.1391C19.8324 40.4069 19.866 40.6671 19.8912 40.935C19.8408 40.9503 19.7988 40.9656 19.7484 40.9809C19.6476 40.8738 19.5552 40.7513 19.446 40.6518C19.3704 40.5906 19.236 40.4911 19.1856 40.5141C19.0932 40.56 18.984 40.6901 18.9924 40.7666C19.068 41.2641 19.1688 41.7615 19.278 42.2589C19.3452 42.5804 19.488 42.8865 19.53 43.2079C19.6812 44.2793 20.0844 45.2818 20.4876 46.2843C20.6892 46.8047 20.8152 47.371 20.8404 47.922C20.9328 49.8811 20.5632 51.8097 20.1852 53.7305C20.1684 53.8377 19.95 53.9678 19.8072 53.9831C18.8916 54.0902 18.0852 54.4116 17.3544 54.909C17.2368 54.9932 17.1528 55.1157 17.052 55.2152C17.0772 55.2534 17.094 55.284 17.1192 55.3223C17.5812 55.2228 18.0348 55.1233 18.4968 55.0238C18.2196 55.3835 17.7156 55.5519 17.6652 56.1412C18.2364 55.8963 18.7236 55.6896 19.236 55.4677C19.2612 55.7738 19.2696 56.0417 19.32 56.2942C19.3368 56.3784 19.446 56.4396 19.5132 56.5161C19.5804 56.4473 19.6812 56.3937 19.7148 56.3095C19.8828 55.9651 20.034 55.6208 20.1852 55.2687C20.2272 55.2687 20.2608 55.2764 20.3028 55.2764C20.3616 55.4141 20.4036 55.5519 20.4792 55.682C20.538 55.7738 20.6388 55.8427 20.7144 55.9192C20.8068 55.835 20.9664 55.7585 20.9664 55.6667C20.9748 55.3376 20.9244 55.0085 20.9244 54.6795C20.9244 54.4499 20.916 54.205 20.9832 53.9831C21.1176 53.5775 21.3192 53.2025 21.462 52.7969C21.5376 52.5749 21.672 52.4984 21.924 52.5137C22.2096 52.529 22.5036 52.5214 22.8228 52.5214C22.8396 52.7356 22.8564 52.9117 22.8816 53.1259C22.4364 53.2101 22.0164 53.279 21.6048 53.3785C21.4872 53.4091 21.3948 53.5392 21.294 53.6234C21.4116 53.6463 21.546 53.7076 21.6552 53.6922C22.0584 53.6387 22.4532 53.5622 22.89 53.4856C22.932 53.6999 22.9656 53.8912 23.0076 54.1285C22.5624 54.2126 22.134 54.2739 21.7224 54.3734C21.588 54.404 21.4872 54.5417 21.378 54.6259C21.5124 54.6488 21.6552 54.7024 21.7896 54.6795C22.2348 54.5876 22.638 54.5111 23.0496 54.4422ZM21.0084 33.1368C20.9832 33.1903 20.958 33.2363 20.9328 33.2898C21.6552 34.0092 22.722 33.7949 23.7048 34.0015C23.5368 34.124 23.4192 34.2464 23.2764 34.2923C22.7892 34.4531 22.2936 34.5832 21.8064 34.7286C21.672 34.7668 21.5544 34.8433 21.4368 34.9046C21.546 35.0117 21.6384 35.1648 21.7728 35.2107C22.0332 35.2949 22.3272 35.3255 22.6044 35.379C22.6044 35.4173 22.6128 35.4556 22.6128 35.4938C22.1424 35.5398 21.672 35.5857 21.1932 35.6316C21.1596 36.2055 21.6636 36.3892 22.1676 36.6341C21.1848 36.7566 20.3364 36.6494 19.53 36.2974C19.4292 36.2515 19.2948 36.2668 19.1772 36.2591C19.194 36.3739 19.1772 36.504 19.236 36.5958C19.3536 36.7872 19.488 36.9708 19.6476 37.1239C19.8576 37.3305 20.1012 37.5065 20.328 37.6978C19.446 37.8509 18.6564 37.782 17.9004 37.4453C17.7744 37.3917 17.6232 37.3841 17.4804 37.3611C17.4972 37.4912 17.4888 37.629 17.5308 37.7514C17.6484 38.0881 17.7912 38.4249 17.9256 38.7616C17.7828 38.7692 17.7408 38.7463 17.6988 38.7157C16.8252 37.9045 15.7836 37.3917 14.574 37.0933C13.23 36.7642 11.97 36.2515 10.8108 35.5244C9.77761 34.8816 8.98801 34.0628 8.50081 33.0067C7.98001 31.8817 8.23201 31.0246 9.26521 30.2517C9.36601 30.1751 9.44161 30.068 9.52561 29.9762C9.50041 29.9455 9.46681 29.9149 9.44161 29.8843C9.31561 29.9455 9.18121 29.9838 9.07201 30.0603C8.03881 30.7644 7.71121 31.7516 8.14801 32.8766C8.65201 34.1852 9.63481 35.1342 10.8864 35.8765C11.9868 36.527 13.1796 37.0091 14.4396 37.3229C15.7416 37.6519 16.884 38.1953 17.7492 39.1519C17.9424 39.3662 18.1104 39.259 18.1272 39.0754C18.1608 38.8075 18.1188 38.5244 18.0852 38.2565C18.0684 38.1034 17.9844 37.9657 17.9172 37.7897C19.4796 38.1723 20.874 38.1723 21.294 37.7591C20.58 37.629 20.0928 37.254 19.656 36.6724C19.8324 36.7106 19.9248 36.7336 20.0088 36.7566C20.8404 37.0091 21.6888 37.0244 22.5372 36.8484C22.7136 36.8101 22.8648 36.6953 23.0244 36.6188C22.8648 36.5423 22.7136 36.4428 22.5456 36.3892C22.2012 36.2897 21.8148 36.2515 21.5712 35.8841C22.176 35.8765 22.7136 35.7999 23.1252 35.425C23.1924 35.3637 23.2092 35.2566 23.2512 35.1648C23.1672 35.1342 23.0748 35.0806 22.9908 35.0729C22.722 35.0576 22.4448 35.0653 22.1676 35.0653C22.1676 35.0347 22.1592 34.9964 22.1592 34.9658C22.2852 34.9352 22.4196 34.9122 22.5372 34.8587C22.9908 34.652 23.4612 34.4454 23.8896 34.2005C24.024 34.124 24.066 33.9327 24.15 33.7949C23.9904 33.7566 23.8308 33.6954 23.6628 33.6725C23.0244 33.5883 22.386 33.5347 21.756 33.4276C21.4788 33.397 21.252 33.2439 21.0084 33.1368ZM20.1684 34.2388C18.6144 34.4377 17.1444 34.0321 15.6492 33.7949C15.7752 33.9403 15.918 34.0168 16.0692 34.0628C16.464 34.1852 16.926 34.2158 17.2452 34.4224C17.6652 34.6903 17.9676 35.0959 18.3708 35.4938C17.808 35.5244 17.2704 35.601 16.7328 35.578C16.1952 35.5551 15.6408 35.4862 15.12 35.3561C14.6244 35.2336 14.154 35.0117 13.5744 34.7974C14.1876 35.8306 18.396 36.2515 19.0596 35.4173C18.5892 35.1418 18.0264 34.9581 17.7492 34.4913C18.6648 34.4913 19.5636 34.5066 20.454 34.4837C20.6136 34.476 20.7732 34.3383 20.9328 34.2617C20.7984 34.1699 20.6724 34.0704 20.5296 33.9939C20.0088 33.7184 19.4796 33.4582 18.9588 33.1903C18.9756 33.1521 18.9924 33.1138 19.0092 33.0755C19.488 33.0296 20.0256 33.1597 20.4456 32.6929C20.3028 32.6623 20.2188 32.624 20.1768 32.647C19.6644 32.8689 19.1436 32.8 18.6144 32.7235C18.5052 32.7082 18.3792 32.7465 18.27 32.7618C18.3288 32.8689 18.354 33.0067 18.4464 33.0679C19.0008 33.4429 19.572 33.8255 20.1684 34.2388ZM14.6244 34.1776C13.7592 34.1622 13.0872 33.9327 12.5328 33.5271C11.9028 33.0679 11.34 32.5322 10.7436 32.0348C10.6428 31.9506 10.5252 31.8894 10.416 31.8128C10.3824 31.8511 10.3488 31.8817 10.3152 31.92C10.3992 32.0271 10.458 32.1572 10.5588 32.249C11.0124 32.6623 11.466 33.0755 11.928 33.4811C12.2052 33.726 12.4908 33.9633 12.516 34.4071C12.306 34.3689 12.1296 34.3612 11.9616 34.3153C11.1384 34.0934 10.5336 33.5959 9.97921 33.022C9.87841 32.9225 9.75241 32.846 9.62641 32.7465C9.57601 32.8307 9.55081 32.8536 9.55921 32.8766C9.56761 32.9225 9.57601 32.9837 9.60961 33.0143C10.2984 33.7949 11.088 34.4454 12.2136 34.6444C12.8016 34.7515 12.8604 34.6903 12.81 34.124C12.81 34.101 12.8352 34.0857 12.8184 34.1087C13.4064 34.2235 13.9692 34.3459 14.5404 34.4454C14.784 34.4913 14.9436 34.3918 14.8596 34.1546C14.7168 33.7184 14.5572 33.2898 14.3808 32.8613C14.3472 32.7694 14.2128 32.7159 14.1204 32.6393C14.0952 32.6623 14.0616 32.6776 14.0364 32.7006C14.2296 33.175 14.4144 33.6419 14.6244 34.1776ZM17.2032 32.5628C17.0604 32.5552 16.9176 32.5245 16.7832 32.5322C14.8512 32.6011 13.146 32.1036 11.6928 30.9328C11.6088 30.8639 11.4828 30.8333 11.3232 30.7567C11.6592 31.9659 16.1364 33.351 17.2032 32.5628Z" fill="white"/>
<path d="M26.8379 39.6874C26.8379 40.3609 26.8379 41.0343 26.8379 41.7001C26.8799 41.7078 26.9219 41.7154 26.9639 41.7231C27.0395 41.616 27.1067 41.5088 27.2075 41.3634C27.6359 41.4476 28.0811 41.5318 28.5515 41.6236C28.5515 41.8455 28.5515 42.0522 28.5515 42.3277C28.1819 42.3277 27.8375 42.3277 27.4931 42.3277C27.3671 42.3277 27.2327 42.3047 27.1151 42.343C27.0143 42.3736 26.9471 42.4731 26.8631 42.5419C26.9471 42.5879 27.0395 42.672 27.1235 42.672C27.5519 42.6873 27.9887 42.6797 28.4927 42.6797C28.4675 43.1542 28.4423 43.598 28.4171 44.1108C27.9215 43.8659 27.5015 43.644 27.0647 43.4603C26.9471 43.4067 26.7791 43.4603 26.6279 43.4679C26.7035 43.5674 26.7623 43.7052 26.8631 43.7664C27.2579 43.9807 27.6611 44.172 28.1399 44.4169C27.8879 44.5317 27.7115 44.6541 27.5099 44.7C27.3671 44.7306 27.1571 44.723 27.0395 44.6465C26.7287 44.4475 26.4683 44.195 26.1659 43.996C26.0567 43.9195 25.8803 43.9271 25.7375 43.8965C25.7879 44.0189 25.8047 44.1797 25.8971 44.2638C26.1911 44.5317 26.5187 44.7613 26.8715 45.0368C26.6447 45.1745 26.4515 45.2817 26.2247 45.4118C25.9475 45.1439 25.6871 44.8684 25.3847 44.6235C25.2923 44.547 25.1159 44.547 24.9731 44.5164C25.0067 44.6388 25.0151 44.7842 25.0907 44.8684C25.3175 45.1209 25.5779 45.3505 25.8635 45.626C25.6535 45.7714 25.4771 45.9015 25.2671 46.0469C24.9731 45.802 24.7127 45.5572 24.4271 45.3352C24.3431 45.274 24.1919 45.2817 24.0659 45.2587C24.0911 45.3735 24.0827 45.5265 24.1583 45.6031C24.3767 45.8403 24.6371 46.0546 24.8639 46.3913C24.7379 46.376 24.6035 46.399 24.4943 46.3531C24.2423 46.2459 24.0155 46.0852 23.7635 45.9934C23.2847 45.8097 22.8143 45.8403 22.3943 46.1005C21.8819 45.6643 21.6635 45.1286 21.5123 44.5317C21.3275 43.8123 21.8063 43.4909 22.3439 43.0776C22.4195 43.3378 22.5287 43.5674 22.5539 43.8047C22.5959 44.1337 22.7891 44.1873 23.0243 44.0266C23.3603 43.7894 23.6627 43.4985 23.9651 43.223C24.0827 43.1159 24.1667 42.9858 24.3347 42.7945C24.3179 42.9629 24.2927 43.0547 24.2927 43.1465C24.3011 43.2766 24.3179 43.4067 24.3347 43.5445C24.4859 43.4909 24.6707 43.4832 24.7715 43.3838C25.0991 43.0776 25.4435 42.7715 25.7039 42.4118C26.2415 41.6772 26.4683 40.8354 26.6447 39.9782C26.6615 39.8788 26.6867 39.7793 26.7119 39.6874C26.7623 39.6874 26.8043 39.6874 26.8379 39.6874Z" fill="white"/>
<path d="M20.1853 42.1899C20.4205 42.7639 20.4205 42.7639 20.9665 42.3736C21.2773 42.5955 21.3529 42.8557 21.3025 43.2384C21.2185 43.7741 21.2857 44.3251 21.2857 44.8837C21.1429 44.9297 21.0001 44.9756 20.8573 45.0215C20.8573 45.0598 20.8573 45.0904 20.8573 45.1286C21.0253 45.1745 21.1933 45.2128 21.4285 45.274C21.1933 45.3199 21.0085 45.3506 20.8321 45.3812C20.8321 45.4271 20.8237 45.4807 20.8237 45.5266C21.0841 45.5725 21.3529 45.6108 21.6133 45.6567C21.6133 45.6873 21.6049 45.7102 21.6049 45.7409C21.3865 45.7715 21.1765 45.8097 20.9581 45.8403C20.9581 45.8939 20.9497 45.9475 20.9497 45.9934C21.3025 46.024 21.6469 46.0546 21.9997 46.0776C21.9997 46.1082 21.9997 46.1311 21.9997 46.1618C21.7393 46.1924 21.4705 46.2306 21.2101 46.2612C21.2101 46.3148 21.2101 46.3607 21.2101 46.4143C21.5125 46.4449 21.8149 46.4755 22.1173 46.4985C22.1257 46.5138 22.1257 46.5214 22.1341 46.5367C21.9409 46.575 21.7393 46.6133 21.5461 46.6515C21.5209 46.6821 21.4873 46.7204 21.4621 46.751C22.5037 46.8505 22.5037 47.501 22.5457 48.228C22.3105 48.1056 22.1593 47.9984 21.9829 47.9449C21.8821 47.9143 21.7393 47.9678 21.6217 47.9831C21.6721 48.075 21.7057 48.1745 21.7729 48.251C21.8317 48.3122 21.9325 48.3428 22.0249 48.3887C22.5373 48.6642 22.5541 48.7178 22.3777 49.3224C22.1593 49.2535 21.9409 49.1693 21.7141 49.1311C21.6049 49.1157 21.4789 49.1923 21.3613 49.2229C21.4285 49.2994 21.4873 49.3912 21.5713 49.4601C21.6049 49.4907 21.6721 49.4984 21.7225 49.5137C22.3441 49.728 22.3273 49.7203 22.1509 50.3096C22.0753 50.5468 21.9577 50.6234 21.7057 50.5621C21.6217 50.5392 21.5293 50.5086 21.4621 50.5392C21.3613 50.5774 21.2773 50.6616 21.1933 50.7228C21.2773 50.7764 21.3445 50.8529 21.4369 50.8759C21.5797 50.9218 21.7309 50.9295 21.9409 50.9677C21.6721 51.3963 21.7729 51.932 21.2521 52.2151C21.2101 52.2381 21.2101 52.3529 21.2269 52.4218C21.3361 52.8274 21.1933 53.034 20.7145 53.0952C20.8321 52.3223 20.9833 51.557 21.0505 50.7917C21.1345 49.7127 21.2185 48.6336 21.1765 47.5546C21.1597 46.9883 20.9077 46.422 20.7313 45.8633C20.4877 45.0674 20.2021 44.2792 19.9585 43.4909C19.7905 43.0471 19.8577 42.6108 20.1853 42.1899Z" fill="white"/>
<path d="M9.22312 12.1374C8.71072 13.1475 8.01352 13.8592 6.88792 14.1271C6.20752 14.2954 5.51872 14.4026 4.82152 14.2342C4.52752 14.1653 4.42672 14.0506 4.51072 13.7444C4.89712 12.2751 5.83792 11.617 7.48432 11.7853C8.04712 11.8389 8.60992 12.0149 9.22312 12.1374ZM6.97192 13.1016C6.74512 12.9562 6.58552 12.7878 6.49312 12.8108C6.35032 12.8491 6.16552 13.0098 6.14872 13.1399C6.14032 13.2394 6.35872 13.4383 6.47632 13.446C6.61072 13.446 6.74512 13.27 6.97192 13.1016Z" fill="#EC1D24"/>
<path d="M17.2704 43.8278C17.5476 43.866 17.7492 43.8966 17.9508 43.9272C17.9508 43.9579 17.9508 43.9808 17.9424 44.0114C17.7912 44.0573 17.64 44.1033 17.4804 44.1492C17.4804 44.1874 17.4804 44.2257 17.4888 44.264C17.7324 44.3099 17.9844 44.3481 18.228 44.3941C18.228 44.4247 18.228 44.4629 18.2196 44.4936C18.102 44.5089 17.9928 44.5089 17.8752 44.5318C17.766 44.5548 17.6652 44.5854 17.556 44.6083C17.556 44.6466 17.556 44.6925 17.5644 44.7308C17.7996 44.7614 18.0432 44.792 18.2784 44.8303C18.2784 44.8456 18.2784 44.8609 18.2784 44.8762C18.0516 44.9068 17.8332 44.9451 17.6064 44.9757C17.6064 45.0216 17.6148 45.0675 17.6148 45.1134C17.8668 45.144 18.1272 45.1823 18.3792 45.2129C18.3876 45.2435 18.3876 45.2741 18.396 45.3048C18.1944 45.3507 17.9928 45.3889 17.7912 45.4349C17.7912 45.4731 17.7828 45.5114 17.7828 45.5496C17.976 45.5956 18.1692 45.6338 18.4212 45.695C18.3708 46.0012 18.3624 46.3149 18.27 46.6134C17.9424 47.6159 17.5896 48.6031 17.22 49.598C17.1696 49.7357 17.01 49.8352 16.8252 49.9194C17.2536 47.9067 17.3964 45.9093 17.2704 43.8278Z" fill="white"/>
<path d="M23.2008 46.1848C23.9232 46.2154 24.7716 46.82 24.99 47.4552C25.1664 47.9908 24.8388 48.3582 24.234 48.251C23.4444 48.1133 22.8648 47.7 22.5792 46.996C22.3776 46.5215 22.6632 46.1619 23.2008 46.1848Z" fill="#FFCB03"/>
<path d="M35.7 22.5606C35.7588 22.4075 35.8344 22.0861 36.0024 21.8183C36.2292 21.4586 36.6156 21.4433 36.9432 21.7417C37.4976 22.2392 37.6152 23.3794 37.1616 23.9457C36.8928 24.2901 36.5316 24.3207 36.2124 24.0146C35.826 23.6626 35.7252 23.2034 35.7 22.5606Z" fill="#FFCB03"/>
<path d="M10.9116 44.9144C11.046 44.218 11.298 43.667 11.8776 43.2844C12.3816 42.9476 12.852 43.1313 12.9276 43.6976C13.02 44.3634 12.7764 44.9297 12.2472 45.3812C12.012 45.5878 11.6928 45.7945 11.3904 45.6108C11.172 45.4654 11.0712 45.1516 10.9116 44.9144Z" fill="#FFCB03"/>
<path d="M8.77808 13.4001C9.03008 13.0175 9.21488 12.7114 9.42488 12.4206C9.47528 12.344 9.59288 12.2905 9.69368 12.2675C11.1049 11.9537 12.5161 11.6476 13.9357 11.3339C13.9609 11.3262 13.9861 11.3415 14.0953 11.3721C12.3061 12.0532 10.5925 12.7037 8.77808 13.4001Z" fill="white"/>
<path d="M8.83663 14.2802C8.72743 14.1195 8.63503 13.9741 8.50903 13.7904C10.5586 13.0098 12.5494 12.2446 14.5486 11.4869C14.557 11.5099 14.5738 11.5329 14.5822 11.5482C12.6754 12.4588 10.777 13.3619 8.83663 14.2802Z" fill="white"/>
<path d="M28.77 40.0931C28.35 39.9554 27.9804 39.8406 27.552 39.7028C27.594 39.4044 27.6528 39.0523 27.7116 38.6467C28.0728 38.8074 28.4088 38.9375 28.7196 39.0906C28.8036 39.1289 28.8708 39.2666 28.8624 39.3584C28.8624 39.588 28.812 39.81 28.77 40.0931Z" fill="white"/>
<path d="M16.8757 41.8839C17.2117 41.9757 17.2117 41.9757 17.9005 41.6849C17.8249 42.2895 17.7493 42.9094 17.6569 43.5828C17.5813 43.5981 17.4385 43.6134 17.2789 43.6441C17.1445 43.0395 17.0101 42.4655 16.8757 41.8839Z" fill="white"/>
<path d="M28.6272 41.264C28.1568 41.1798 27.7368 41.1033 27.2664 41.0191C27.342 40.7053 27.4092 40.3839 27.4848 40.0472C27.846 40.1773 28.1904 40.2844 28.518 40.4298C28.6104 40.4681 28.6944 40.6135 28.7028 40.713C28.7112 40.8737 28.6608 41.0497 28.6272 41.264Z" fill="white"/>
<path d="M22.8648 52.108C22.4868 52.108 22.1676 52.108 21.7812 52.108C21.9072 51.7636 21.9996 51.4422 22.1592 51.1591C22.2096 51.0749 22.4532 51.0443 22.6128 51.0519C22.7052 51.0596 22.848 51.182 22.8564 51.2662C22.89 51.5417 22.8648 51.8172 22.8648 52.108Z" fill="white"/>
<path d="M39.7824 24.734C39.1944 24.3131 39.1944 24.3131 39.3876 23.7468C39.4968 23.4254 39.6144 23.104 39.7824 22.7825C39.7824 23.4254 39.7824 24.0606 39.7824 24.734Z" fill="white"/>
<path d="M22.5708 49.8352C23.2512 49.973 22.8228 50.3786 22.9404 50.6923C22.7052 50.677 22.5372 50.6617 22.3188 50.6464C22.4112 50.3633 22.4868 50.1184 22.5708 49.8352Z" fill="white"/>
<path d="M15.9516 52.1003C15.9768 52.1845 15.9936 52.2151 15.9936 52.2534C15.9936 52.4065 15.9936 52.5595 15.9936 52.7355C15.6324 52.7661 15.288 52.7968 14.952 52.8274C14.9352 52.7968 14.9184 52.7661 14.9016 52.7432C15.246 52.5289 15.582 52.3223 15.9516 52.1003Z" fill="white"/>
<path d="M15.12 51.7255C14.8765 51.9704 14.6497 52.1923 14.4145 52.4219C14.2381 51.825 14.4145 51.848 15.12 51.7255Z" fill="white"/>
<path d="M23.0244 49.5521C22.428 49.4297 22.8228 49.0929 22.7556 48.8557C23.2596 48.9629 23.1084 49.246 23.0244 49.5521Z" fill="white"/>
<path d="M22.8899 48.0139C23.3099 48.2588 23.3099 48.2588 23.1587 48.7027C22.9823 48.4348 22.8647 48.2588 22.7471 48.0751C22.7975 48.0522 22.8479 48.0369 22.8899 48.0139Z" fill="white"/>
<path d="M21.0082 33.1367C21.2518 33.2439 21.4786 33.3969 21.7306 33.4429C22.3606 33.55 22.999 33.6036 23.6374 33.6877C23.8054 33.7107 23.965 33.7643 24.1246 33.8102C24.0406 33.9479 23.9902 34.1469 23.8642 34.2158C23.4274 34.4607 22.9654 34.6597 22.5118 34.8739C22.3942 34.9275 22.2598 34.9428 22.1338 34.9811C22.1338 35.0117 22.1422 35.05 22.1422 35.0806C22.4194 35.0806 22.6882 35.0729 22.9654 35.0882C23.0578 35.0959 23.1418 35.1494 23.2258 35.1801C23.1838 35.2642 23.1754 35.379 23.0998 35.4402C22.6882 35.8152 22.1506 35.8994 21.5458 35.8994C21.7894 36.2744 22.1758 36.305 22.5202 36.4045C22.6882 36.4504 22.8394 36.5576 22.999 36.6341C22.8394 36.7106 22.6798 36.8254 22.5118 36.8637C21.6634 37.0397 20.815 37.0244 19.9834 36.7718C19.8994 36.7489 19.807 36.7259 19.6306 36.6877C20.0674 37.2616 20.5546 37.6443 21.2686 37.7744C20.8486 38.1876 19.4542 38.1876 17.8918 37.805C17.959 37.981 18.0346 38.1264 18.0598 38.2718C18.1018 38.5473 18.1438 38.8228 18.1018 39.0906C18.0766 39.2743 17.917 39.3815 17.7238 39.1672C16.8586 38.2029 15.7162 37.6672 14.4142 37.3381C13.1542 37.0244 11.9614 36.5423 10.8611 35.8918C9.60945 35.1494 8.62665 34.2005 8.12265 32.8919C7.68585 31.7669 8.02185 30.7797 9.04665 30.0756C9.15585 29.9991 9.29025 29.9532 9.41625 29.8996C9.44145 29.9302 9.47505 29.9608 9.50025 29.9914C9.41625 30.0833 9.34065 30.1904 9.23985 30.2669C8.20665 31.0322 7.96305 31.897 8.47545 33.022C8.96265 34.0704 9.76065 34.8969 10.7854 35.5397C11.9446 36.2591 13.2046 36.7718 14.5486 37.1086C15.7582 37.407 16.8082 37.9198 17.6734 38.731C17.707 38.7692 17.7574 38.7922 17.9002 38.7769C17.7658 38.4402 17.6314 38.1111 17.5054 37.7667C17.4634 37.6443 17.4718 37.5065 17.455 37.3764C17.5978 37.407 17.749 37.407 17.875 37.4606C18.6226 37.7973 19.4206 37.8662 20.3026 37.7131C20.0758 37.5218 19.8322 37.3458 19.6222 37.1392C19.4626 36.9785 19.3282 36.7948 19.2106 36.6111C19.1518 36.5193 19.1686 36.3892 19.1518 36.2744C19.2694 36.2897 19.4038 36.2744 19.5046 36.3127C20.311 36.6647 21.1594 36.7718 22.1422 36.6494C21.6382 36.4045 21.1342 36.2132 21.1678 35.6469C21.655 35.601 22.117 35.555 22.5874 35.5091C22.5874 35.4709 22.579 35.4326 22.579 35.3943C22.3018 35.3408 22.0162 35.3178 21.7474 35.226C21.613 35.18 21.5206 35.027 21.4114 34.9199C21.5374 34.8586 21.655 34.7821 21.781 34.7438C22.2682 34.5908 22.7638 34.4683 23.251 34.3076C23.3938 34.2617 23.5114 34.1393 23.6794 34.0168C22.6882 33.8025 21.6298 34.0168 20.9074 33.3051C20.9578 33.2362 20.983 33.1903 21.0082 33.1367Z" fill="black"/>
<path d="M20.1682 34.2387C19.5718 33.8331 19.0006 33.4505 18.4462 33.0525C18.3538 32.9913 18.3286 32.8536 18.2698 32.7464C18.3874 32.7311 18.505 32.6928 18.6142 32.7082C19.1434 32.7923 19.6642 32.8612 20.1766 32.6316C20.2186 32.6087 20.2942 32.6546 20.4454 32.6775C20.0254 33.1444 19.4878 33.0143 19.009 33.0602C18.9922 33.0984 18.9754 33.1367 18.9586 33.175C19.4794 33.4428 20.0086 33.703 20.5294 33.9785C20.6722 34.055 20.7982 34.1545 20.9326 34.2464C20.773 34.3229 20.6134 34.4683 20.4538 34.4683C19.5634 34.4913 18.673 34.4759 17.749 34.4759C18.0262 34.9428 18.5974 35.1264 19.0594 35.4019C18.3874 36.2361 14.1874 35.8228 13.5742 34.7821C14.1538 34.9963 14.6242 35.2183 15.1198 35.3407C15.6406 35.4708 16.1866 35.5397 16.7326 35.5626C17.2702 35.5856 17.8078 35.5091 18.3706 35.4785C17.9674 35.0805 17.6566 34.6749 17.245 34.4071C16.9174 34.2004 16.4638 34.1698 16.069 34.0474C15.9178 34.0015 15.775 33.9249 15.649 33.7795C17.1442 34.0321 18.6142 34.4377 20.1682 34.2387Z" fill="black"/>
<path d="M14.6243 34.1775C14.4143 33.6494 14.2211 33.175 14.0363 32.7082C14.0615 32.6852 14.0951 32.6699 14.1203 32.6469C14.2127 32.7158 14.3387 32.777 14.3807 32.8689C14.5571 33.2974 14.7167 33.726 14.8595 34.1622C14.9351 34.4071 14.7839 34.4989 14.5403 34.453C13.9691 34.3458 13.4063 34.231 12.8183 34.1163C12.8351 34.0856 12.8099 34.1086 12.8099 34.1316C12.8603 34.6902 12.8015 34.7514 12.2135 34.6519C11.0879 34.453 10.2983 33.8025 9.60948 33.0219C9.57588 32.9836 9.56748 32.9301 9.55908 32.8842C9.55908 32.8612 9.58428 32.8382 9.62628 32.7541C9.75228 32.8536 9.87828 32.9224 9.97908 33.0296C10.5335 33.6035 11.1383 34.1009 11.9615 34.3229C12.1295 34.3688 12.3059 34.3841 12.5159 34.4147C12.4907 33.9709 12.2135 33.7336 11.9279 33.4887C11.4659 33.0831 11.0123 32.6699 10.5587 32.2566C10.4579 32.1648 10.3907 32.0347 10.3151 31.9276C10.3487 31.8893 10.3823 31.8587 10.4159 31.8204C10.5251 31.897 10.6427 31.9582 10.7435 32.0424C11.3399 32.5398 11.9027 33.0755 12.5327 33.5346C13.0955 33.9326 13.7591 34.1622 14.6243 34.1775Z" fill="black"/>
<path d="M17.2033 32.5627C16.1365 33.3586 11.6509 31.9658 11.3149 30.7567C11.4745 30.8332 11.6005 30.8638 11.6845 30.9327C13.1377 32.1112 14.8513 32.6087 16.7749 32.5321C16.9261 32.5245 17.0689 32.5474 17.2033 32.5627Z" fill="black"/>
<path d="M6.97203 13.1017C6.74523 13.2701 6.61083 13.4461 6.47643 13.4461C6.35883 13.4461 6.13203 13.2395 6.14883 13.14C6.16563 13.0175 6.35043 12.8492 6.49323 12.8109C6.58563 12.7879 6.73683 12.9563 6.97203 13.1017Z" fill="black"/>
<path d="M10.0884 57.1743C14.0178 57.1743 17.2032 54.2722 17.2032 50.6923C17.2032 47.1125 14.0178 44.2104 10.0884 44.2104C6.15904 44.2104 2.97363 47.1125 2.97363 50.6923C2.97363 54.2722 6.15904 57.1743 10.0884 57.1743Z" fill="#EC1D24" stroke="black" stroke-miterlimit="10"/>
<path d="M9.06362 49.4373C9.03842 49.4373 9.01322 49.4373 8.98802 49.4297C8.85362 49.422 8.73602 49.3914 8.68562 49.269C8.63522 49.1389 8.69402 49.0394 8.78642 48.9399C8.79482 48.9322 8.81162 48.9169 8.82002 48.9093C9.12242 48.7792 9.13922 48.5267 9.13922 48.2665C9.13922 47.5394 9.13922 46.8201 9.13082 46.0931C9.13082 45.7946 8.97962 45.5267 8.86202 45.2589C8.82842 45.1824 8.83682 45.0905 8.82002 45.0063C8.91242 45.0217 9.01322 45.0217 9.09722 45.0599C9.30722 45.1518 9.50882 45.2512 9.70202 45.366C10.1304 45.6109 10.3152 45.963 10.248 46.4298C10.1808 46.8966 10.1556 47.3711 10.1136 47.8379C10.1136 47.8762 10.1136 47.9144 10.1136 47.9986C10.206 47.945 10.2648 47.9068 10.332 47.8685C10.8276 47.5471 11.1888 47.1109 11.592 46.7129C11.7348 46.5752 11.886 46.4298 12.0372 46.2997C12.1968 46.1619 12.4068 46.1313 12.5916 46.2385C12.8604 46.3992 13.0788 46.6058 13.23 46.8736C13.3392 47.0803 13.2468 47.2639 13.0032 47.3252C12.768 47.3787 12.5748 47.4935 12.3816 47.6083C11.6844 48.0369 10.9704 48.4578 10.2564 48.871C10.1052 48.9629 10.0548 49.0777 10.0464 49.2231C10.0464 49.3149 10.0968 49.3379 10.1808 49.3149C10.6176 49.1924 11.0292 49.0241 11.3568 48.718C11.55 48.542 11.7264 48.5037 11.9532 48.6185C12.1044 48.695 12.2472 48.7792 12.3816 48.871C12.5748 49.0088 12.6 49.1848 12.4404 49.3532C12.3564 49.445 12.2472 49.5292 12.1296 49.5827C11.6508 49.797 11.256 50.1108 10.8864 50.4475C10.794 50.5317 10.7856 50.6235 10.8696 50.7154C10.92 50.7766 10.9788 50.8225 11.0292 50.8761C11.2392 51.0903 11.2644 51.3276 11.1132 51.5725C10.7436 52.1694 10.6932 52.7969 10.9032 53.4474C10.9872 53.7153 11.2308 53.8148 11.4996 53.8683C12.2976 54.0137 13.062 53.8913 13.8096 53.6464C13.9608 53.6005 13.986 53.5469 13.9188 53.4168C13.7424 53.103 13.5744 52.7893 13.398 52.4755C13.3644 52.4143 13.3392 52.3607 13.314 52.2995C13.2636 52.1847 13.2888 52.0699 13.3896 51.9857C13.4988 51.8939 13.6248 51.9245 13.7424 51.9781C13.818 52.0163 13.8936 52.0699 13.9524 52.1311C14.3892 52.5367 14.8512 52.927 15.1872 53.4092C15.2124 53.4474 15.2628 53.478 15.3132 53.5086C15.456 53.6005 15.54 53.7229 15.5148 53.8836C15.4896 54.052 15.372 54.1591 15.1956 54.2204C14.1288 54.5953 13.0284 54.7943 11.8776 54.7254C11.3904 54.6948 10.9116 54.6336 10.5 54.3811C10.3656 54.2969 10.2312 54.1821 10.1556 54.052C9.77762 53.4551 9.74402 52.7969 9.86162 52.1311C9.89522 51.9322 9.96242 51.7408 10.0044 51.5419C10.0212 51.45 10.0296 51.3658 10.0464 51.274C10.0296 51.2664 10.0212 51.2587 10.0044 51.2511C9.93722 51.3123 9.86162 51.3812 9.79442 51.4424C8.89562 52.2842 7.97162 53.103 6.90482 53.7765C6.67802 53.9219 6.44282 54.0443 6.20762 54.1821C5.88842 54.3581 5.52722 54.4346 5.16602 54.4882C5.11562 54.4959 5.04002 54.4652 5.01482 54.4346C4.98962 54.4117 5.00642 54.3351 5.04002 54.2969C5.10722 54.2204 5.17442 54.1362 5.25842 54.0749C6.03122 53.4627 6.82922 52.8811 7.57682 52.2536C8.27402 51.672 8.92922 51.0444 9.60122 50.4399C9.61802 50.4245 9.63482 50.4092 9.65162 50.3786C9.29042 50.4781 8.94602 50.5853 8.59322 50.6618C8.15642 50.7613 7.71962 50.8378 7.28282 50.9143C7.18202 50.9296 7.06442 50.922 6.97202 50.899C6.61082 50.8148 6.33362 50.6159 6.09002 50.371C6.03962 50.3251 5.98922 50.2026 6.01442 50.172C6.06482 50.1108 6.17402 50.1031 6.24962 50.0649C6.25802 50.0572 6.28322 50.0649 6.29162 50.0649C6.97202 50.172 7.61042 49.9807 8.24882 49.8353C8.45042 49.7894 8.66042 49.7358 8.86202 49.6822C9.02162 49.644 9.04682 49.6057 9.06362 49.4373Z" fill="white"/>
<path d="M7.12331 47.1491C7.35851 47.1491 7.61051 47.3481 7.69452 47.6083C7.75332 47.7996 7.78692 47.9986 7.83732 48.1976C7.91292 48.4654 7.98852 48.7409 8.06412 49.0011C8.07252 49.0394 8.09772 49.0776 8.09772 49.1159C8.09772 49.1542 8.08932 49.2077 8.06412 49.223C8.03892 49.246 7.97172 49.246 7.93812 49.223C7.45091 48.9552 6.98891 48.6644 6.74531 48.1746C6.62771 47.9527 6.61091 47.7154 6.66131 47.4782C6.71171 47.2716 6.88811 47.1491 7.12331 47.1491Z" fill="white"/>
<path d="M6.76465 11.4586H5.11035V3.46735L2.66992 4.30133V2.89996L6.55273 1.47125H6.76465V11.4586Z" fill="white"/>
<path d="M6.76465 11.4586V12.4586H7.76465V11.4586H6.76465ZM5.11035 11.4586H4.11035V12.4586H5.11035V11.4586ZM5.11035 3.46735H6.11035V2.06883L4.78698 2.52108L5.11035 3.46735ZM2.66992 4.30133H1.66992V5.69985L2.9933 5.2476L2.66992 4.30133ZM2.66992 2.89996L2.3246 1.96148L1.66992 2.20237V2.89996H2.66992ZM6.55273 1.47125V0.471252H6.37459L6.20741 0.532768L6.55273 1.47125ZM6.76465 1.47125H7.76465V0.471252H6.76465V1.47125ZM6.76465 10.4586H5.11035V12.4586H6.76465V10.4586ZM6.11035 11.4586V3.46735H4.11035V11.4586H6.11035ZM4.78698 2.52108L2.34655 3.35506L2.9933 5.2476L5.43373 4.41362L4.78698 2.52108ZM3.66992 4.30133V2.89996H1.66992V4.30133H3.66992ZM3.01524 3.83845L6.89806 2.40974L6.20741 0.532768L2.3246 1.96148L3.01524 3.83845ZM6.55273 2.47125H6.76465V0.471252H6.55273V2.47125ZM5.76465 1.47125V11.4586H7.76465V1.47125H5.76465Z" fill="black"/>
</g>
<defs>
<linearGradient id="paint0_linear" x1="21" y1="0" x2="21" y2="59.6155" gradientUnits="userSpaceOnUse">
<stop stop-color="#EC1D24"/>
<stop offset="1" stop-color="#A51D24"/>
</linearGradient>
<clipPath id="clip0">
<rect width="42" height="60" fill="white"/>
</clipPath>
</defs>
</svg>
