<svg width="103" height="97" viewBox="0 0 103 97" fill="none" xmlns="http://www.w3.org/2000/svg">
<path d="M37.8349 14.75C38.7972 13.0833 41.2028 13.0833 42.1651 14.75L71.6099 65.75C72.5722 67.4167 71.3694 69.5 69.4449 69.5H10.5551C8.63064 69.5 7.42782 67.4167 8.39007 65.75L37.8349 14.75Z" fill="url(#paint0_linear)" stroke="#71120D"/>
<path d="M38 59H42V54.9372H38V59ZM38.0678 49.3333H42V30H38.0678V49.3333Z" fill="#CF231B"/>
<g filter="url(#filter0_d)">
<path d="M87.0776 32.616C87.1317 32.8847 87.1678 33.1534 87.2401 33.4041C88.0706 35.8579 88.5582 38.3476 88.4859 40.9447C88.4679 41.894 88.2693 42.8791 89.2985 43.5597C89.5512 43.7209 89.5874 44.2403 89.7138 44.5986C89.786 44.7956 89.7679 45.0284 89.8763 45.1717C91.4652 47.124 91.9527 49.4525 92.1694 51.8526C92.3499 53.9124 92.8194 56.008 91.9166 58.0319C91.8444 58.211 91.8985 58.4439 91.8985 58.6588C91.9347 61.6142 91.9888 64.5695 91.9888 67.5248C91.9888 72.3429 89.9485 75.9252 85.7053 78.4327C81.9677 80.6537 77.6523 81.0657 73.7522 82.7314C73.7341 82.7493 73.698 82.7493 73.6619 82.7493C71.6577 83.0896 70.2493 82.5523 69.4729 81.0836C69.1298 80.4567 68.9312 79.7582 68.6423 79.1133C68.5159 78.8268 68.3714 78.4148 68.1367 78.3253C66.8367 77.8417 66.3492 76.6954 65.7894 75.6207C64.9588 74.0445 63.8755 73.5788 62.1421 74.0982C61.3296 74.349 60.517 74.546 59.7226 74.7968C59.4156 74.8863 59.0906 75.0296 58.8739 75.2625C58.0614 76.1222 57.1044 76.57 55.9127 76.3909C54.2155 76.1401 52.5001 75.9073 51.4529 74.2594C51.2543 73.937 50.9654 73.6684 50.7126 73.3997C49.1056 71.6086 47.8236 69.6384 47.6792 67.1845C47.5528 65.071 49.0153 63.7635 50.9112 64.1575C51.5432 64.2829 52.139 64.6053 52.6807 64.8203C53.7099 64.068 54.6669 63.2262 55.7502 62.5993C56.8517 61.9545 58.0795 61.5246 59.2351 60.9335C59.4879 60.8082 59.6865 60.4858 59.8129 60.2171C60.4809 58.7305 61.0768 57.1901 61.8171 55.7214C62.2685 54.8438 62.9546 54.0736 63.4963 53.3034C61.1129 51.3332 58.6212 49.5958 56.7253 47.2136C56.6169 47.0703 56.4905 46.927 56.328 46.8554C54.8835 46.0852 54.0891 44.8314 53.5654 43.3448C52.8251 41.3029 54.1252 38.8491 56.2558 38.3476C56.8336 38.2222 57.0322 37.9356 57.1767 37.4341C57.8809 35.034 58.6031 32.6339 59.3434 30.2338C59.6142 29.3562 59.3976 28.5681 58.9642 27.8158C57.6822 25.6128 56.0572 23.8037 53.6016 22.8007C53.0599 22.5858 52.5724 22.1917 52.0848 21.8335C50.0806 20.4364 48.257 18.8603 46.9569 16.7647C46.5236 16.084 46.5958 15.5109 47.0291 14.884C48.5097 12.6809 50.6223 11.1585 52.9335 10.0301C57.0322 8.02402 61.4379 7.28966 66.0061 8.04193C66.5117 8.13148 66.7825 7.98819 67.0172 7.55833C67.252 7.14637 67.5589 6.77024 67.8298 6.37619C67.9381 6.41201 68.0464 6.44783 68.1548 6.48366C68.1909 6.93144 68.1548 7.39713 68.2631 7.82699C68.3353 8.11357 68.534 8.50762 68.7687 8.57926C72.9758 10.1196 76.4606 12.6093 79.0787 16.2452C80.7579 18.5916 82.1121 21.0812 82.2385 24.0903C82.2566 24.6097 82.2205 25.0217 81.6607 25.2545C80.8121 25.6128 79.9635 25.9889 79.1329 26.365C78.8981 26.4725 78.6634 26.5621 78.4467 26.6695C78.4648 26.7412 78.4829 26.7949 78.5009 26.8665C79.4037 27.0994 80.2885 27.3322 81.1732 27.5472C81.8052 26.0964 82.8163 25.362 84.2969 25.2724C84.8025 25.2366 85.3261 25.2545 85.8317 25.2724C87.9804 25.3262 88.9373 26.4725 89.479 28.2815C90.0929 30.3413 89.479 31.3622 87.4929 32.3474C87.3484 32.419 87.222 32.5086 87.0776 32.616Z" fill="white"/>
<path d="M87.0773 32.6159C87.2398 32.5084 87.3481 32.4188 87.4926 32.3651C89.4788 31.38 90.0927 30.3412 89.4788 28.2993C88.9371 26.4723 87.9982 25.3439 85.8314 25.2902C85.3259 25.2723 84.8022 25.2723 84.2967 25.2902C82.8341 25.3798 81.8049 26.132 81.1729 27.5649C80.2882 27.3321 79.4035 27.0992 78.5006 26.8843C78.4826 26.8127 78.4645 26.7589 78.4465 26.6873C78.6812 26.5798 78.9159 26.4903 79.1326 26.3828C79.9812 26.0067 80.8118 25.6305 81.6605 25.2723C82.2021 25.0395 82.2563 24.6275 82.2383 24.1081C82.1119 21.1169 80.7396 18.6094 79.0604 16.263C76.4603 12.627 72.9755 10.1374 68.7504 8.59702C68.5156 8.50747 68.317 8.11342 68.2448 7.84475C68.1364 7.41489 68.1726 6.9492 68.1365 6.50142C68.0281 6.4656 67.9198 6.42977 67.8114 6.39395C67.5406 6.788 67.2336 7.16413 66.9989 7.57609C66.7642 8.00595 66.4933 8.13133 65.9878 8.05969C61.4196 7.30742 57.0139 8.04178 52.9152 10.0478C50.604 11.1762 48.4914 12.6987 47.0108 14.9017C46.5775 15.5465 46.5052 16.1018 46.9386 16.7824C48.2386 18.8959 50.0804 20.4542 52.0665 21.8513C52.554 22.1916 53.0416 22.5856 53.5832 22.8185C56.0208 23.8036 57.6639 25.6305 58.9459 27.8336C59.3792 28.5859 59.5959 29.3739 59.3251 30.2516C58.5848 32.6517 57.8625 35.0518 57.1583 37.4519C57.0139 37.9534 56.7972 38.2221 56.2375 38.3653C54.1069 38.8489 52.8068 41.3028 53.5471 43.3626C54.0708 44.8313 54.8652 46.103 56.3097 46.8731C56.4542 46.9627 56.5986 47.0881 56.7069 47.2314C58.6028 49.6135 61.0946 51.3688 63.478 53.3211C62.9363 54.0913 62.2502 54.8615 61.7988 55.7392C61.0585 57.19 60.4807 58.7303 59.7945 60.2348C59.6681 60.5035 59.4695 60.8259 59.2167 60.9513C58.0611 61.5244 56.8333 61.9543 55.7319 62.617C54.6486 63.2439 53.6916 64.0857 52.6624 64.838C52.1207 64.6231 51.5248 64.3007 50.8929 64.1753C48.997 63.7812 47.5344 65.1067 47.6608 67.2023C47.8053 69.6561 49.0873 71.6263 50.6943 73.4174C50.947 73.704 51.2359 73.9727 51.4346 74.2772C52.4638 75.925 54.1971 76.1579 55.8944 76.4086C57.0861 76.5877 58.0431 76.1399 58.8556 75.2802C59.0723 75.0653 59.3973 74.922 59.7043 74.8145C60.4987 74.5638 61.3293 74.3488 62.1238 74.116C63.8572 73.5966 64.9405 74.0622 65.7711 75.6384C66.3308 76.7131 66.8184 77.8594 68.1184 78.343C68.3531 78.4326 68.4976 78.8445 68.624 79.1311C68.9129 79.7759 69.1295 80.4744 69.4545 81.1013C70.231 82.57 71.6393 83.0895 73.6436 82.7671C73.6797 82.7671 73.6977 82.7671 73.7338 82.7492C77.634 81.0834 81.9494 80.6715 85.687 78.4505C89.9121 75.9429 91.9705 72.3428 91.9705 67.5426C91.9705 64.5873 91.8983 61.6319 91.8802 58.6766C91.8802 58.4616 91.826 58.2288 91.8983 58.0497C92.8011 56.0257 92.3497 53.9301 92.1511 51.8703C91.9344 49.4703 91.4288 47.1418 89.8579 45.1895C89.7496 45.0462 89.7676 44.7954 89.6954 44.6163C89.569 44.2581 89.5329 43.7387 89.2801 43.5775C88.2509 42.8969 88.4496 41.9118 88.4676 40.9625C88.5218 38.3653 88.0523 35.8578 87.2217 33.4219C87.1495 33.1353 87.1315 32.8666 87.0773 32.6159ZM59.8668 67.5963C59.7584 67.5247 59.632 67.4709 59.5237 67.3993C59.3431 65.6082 59.0723 63.8171 59.7765 62.0439C60.3182 60.6826 60.896 59.3393 61.4376 57.978C62.2682 55.9183 63.5141 54.1451 64.9766 52.5151C65.1933 52.2644 65.6628 52.1927 66.0239 52.0853C66.6739 51.9062 67.36 51.7987 68.0101 51.5838C68.7684 51.3151 69.4907 50.9569 70.3393 50.5987C70.5379 51.8345 71.4588 51.6733 72.1268 52.0315C73.2102 52.6226 73.5713 51.5838 74.5464 51.4047C74.4019 52.0136 74.438 52.6047 74.1491 52.9629C72.6866 54.8794 71.7477 57.0288 71.0254 59.2856C70.249 61.7394 71.4949 63.3335 74.0408 63.1723C74.1852 63.1544 74.3477 63.1544 74.4922 63.1185C77.7242 62.4558 80.6132 61.0588 83.2855 59.196C83.6647 58.9273 84.6036 58.8199 84.7481 59.0169C85.2717 59.7692 85.8495 59.5005 86.4273 59.3214C87.0773 59.1244 87.6009 58.5333 88.3954 59.0706C88.5579 59.1781 89.1718 58.7124 89.5149 58.4258C89.6774 58.2825 89.6954 57.9422 89.8579 57.4228C90.2913 58.0139 90.5982 58.4258 90.9052 58.8557C91.0857 58.8199 91.2844 58.802 91.6094 58.7482C91.501 60.2707 91.4469 61.7036 91.2844 63.1185C91.2302 63.6021 90.9052 64.0499 90.7788 64.3186C89.9663 64.1932 89.4246 64.1216 88.8107 64.032C88.7565 63.7992 88.6843 63.5305 88.6301 63.2977C88.1065 63.3693 87.4565 63.6738 87.1676 63.4768C85.8495 62.5454 84.4411 62.9932 83.0508 63.0111C82.3285 63.0111 81.5882 63.1365 80.866 63.1902C82.0938 63.3514 83.2855 63.2618 84.4772 63.3693C85.6509 63.4768 86.8065 63.8171 87.962 64.0499C88.3051 64.3007 88.7023 64.444 89.0996 64.6231C89.3704 64.7485 89.6413 64.8917 89.894 65.0709C90.1107 65.2321 90.2913 65.4291 90.526 65.644C90.7968 65.1962 90.9955 64.8559 91.1941 64.5335C91.3024 64.5514 91.3927 64.5693 91.501 64.5873C91.501 65.7336 91.5371 66.8978 91.501 68.0441C91.3746 70.1397 90.833 72.0741 89.7135 73.8831C88.2329 76.2653 86.1384 77.8773 83.5202 78.8087C80.6313 79.8296 77.7423 80.761 74.8533 81.7461C71.7116 82.8208 70.574 82.3372 69.3101 79.2923C69.0031 78.54 68.6962 77.8236 67.7934 77.537C67.5406 77.4654 67.2878 77.1788 67.1614 76.928C66.6378 75.7638 66.1142 74.5996 65.6808 73.4174C65.4822 72.898 65.5183 72.289 65.3558 71.7517C64.9766 70.4621 65.7711 69.3337 67.1253 69.3516C67.6309 69.3516 68.1364 69.4949 68.6059 69.6561C69.1115 69.8352 69.5268 69.7994 69.924 69.4233C70.249 69.1188 70.6282 68.868 70.9713 68.5814C73.4088 66.45 76.0992 64.7305 79.2409 63.7992C79.3673 63.7633 79.4757 63.6201 79.584 63.5305C75.4131 64.0857 72.2171 66.2709 69.5809 69.2442C68.8226 69.0471 68.1545 68.7785 67.4503 68.6889C65.6447 68.4561 64.2002 70.0681 64.76 71.6263C64.9766 72.2353 64.9766 72.9338 65.103 73.8115C63.7308 73.2025 62.4307 72.9338 62.0335 71.4293C61.9793 71.2144 61.6543 71.089 61.4918 70.892C61.2932 70.6591 61.0043 70.4263 60.9321 70.1397C60.8418 69.7815 60.9501 69.4053 60.9501 69.0292C60.8779 68.9755 60.8237 68.9218 60.7515 68.868C60.6612 69.1188 60.5709 69.3695 60.4807 69.6382C60.3543 69.5845 60.2279 69.5128 60.1015 69.4591C60.1557 68.6352 60.1918 67.7934 60.264 66.7545C60.1015 67.1127 59.9751 67.3635 59.8668 67.5963ZM89.0996 44.2581C87.2217 43.6133 87.0592 43.6491 86.7342 44.6163C86.3009 44.5447 85.8675 44.4551 85.4161 44.4372C85.1272 44.4193 84.8383 44.473 84.5494 44.5626C84.1703 44.6701 83.7911 44.8134 83.448 44.9925C83.1591 45.1537 82.7619 45.3328 82.6535 45.6014C82.4188 46.1925 82.1841 46.497 81.4618 46.2462C81.0104 46.103 80.3604 45.9776 79.9812 46.1746C79.2048 46.5866 78.2298 46.6761 77.7423 47.5896C77.5798 47.8762 77.1103 48.0015 76.677 48.2702C76.5867 47.3388 76.1172 47.4642 75.5394 47.715C75.1603 47.8762 74.7269 47.9299 74.3116 48.0195C73.3547 48.2344 72.2713 48.0374 71.531 48.8971C71.5129 48.9329 71.4227 48.8971 71.3143 48.8971C70.6462 47.7866 69.4545 48.1448 68.5156 47.8582C68.2628 47.4821 67.9739 47.0881 67.6128 46.9806C67.1434 46.8373 66.6017 46.909 65.9878 46.8731C66.2947 46.2462 66.6559 45.7985 65.8433 45.4223C65.5183 45.279 65.3739 44.6701 65.2114 44.2581C65.085 43.9536 65.1391 43.5417 64.9405 43.3088C63.3877 41.2311 62.9724 39.046 63.6585 36.5026C64.3266 33.9592 65.1391 31.5233 66.6739 29.3919C67.5948 28.1202 68.6601 27.0276 70.5199 27.2783C71.5491 27.4216 72.6144 27.35 73.6616 27.2783C75.3589 27.1709 77.02 26.4723 78.7715 27.3142C79.8549 27.8336 81.1729 27.8515 82.0216 28.8724C82.4188 29.356 82.8341 29.8217 83.5744 29.8038C83.7008 29.8038 83.8633 29.9829 83.9716 30.1083C84.2425 30.4307 84.4953 30.7531 84.7661 31.0934C85.1092 31.4337 85.3981 31.792 85.705 32.1323C86.03 32.5084 86.5537 32.795 86.6981 33.2248C87.619 36.019 88.1607 38.8848 87.9259 41.8401C87.8718 42.467 87.5468 43.2014 88.5579 43.47C88.7385 43.4879 88.8287 43.8462 89.0996 44.2581ZM64.0919 52.7301C63.7488 52.5331 63.4599 52.3898 63.1891 52.2107C60.1376 50.1151 57.4653 47.5717 54.9194 44.9208C53.4207 43.3446 53.6555 40.8013 55.3166 39.3863C56.075 38.7415 57.5375 38.5445 58.1875 39.0101C58.8014 39.4221 59.0362 40.6938 58.5126 41.661C58.2598 42.1446 57.7181 42.5028 57.2847 42.8969C57.1222 43.0581 56.8694 43.1297 56.5444 43.3088C57.7542 43.6133 58.4403 43.2372 59.1084 42.1446C59.2529 41.9118 59.6681 41.6431 59.8668 41.6968C61.0765 42.0371 62.3043 42.3774 63.4599 42.879C63.8933 43.0581 64.453 43.6491 64.4169 44.0253C64.3447 45.082 65.1391 45.5119 65.5905 46.2462C65.1211 47.303 65.1933 47.4463 66.4031 47.5538C66.8364 47.5896 67.2878 47.6254 67.7573 47.6612C67.7934 48.521 68.1726 48.8255 69.0031 48.6463C69.2379 48.5926 69.5448 48.7896 69.8157 48.8792C70.4115 49.0762 71.0435 49.5061 71.5671 49.4165C72.9755 49.1299 74.3477 48.6284 75.8103 48.1806C75.8825 49.1299 76.37 49.112 76.8937 48.8255C77.4353 48.521 77.9951 48.1986 78.4465 47.7866C79.3312 46.9627 80.3063 46.4433 81.5341 46.8552C82.2202 47.0881 82.6174 46.891 82.9244 46.2821C83.0508 46.0134 83.3036 45.6731 83.5564 45.6194C84.6939 45.4044 85.7231 44.5268 87.0051 45.0104C87.0773 45.0462 87.2037 44.9208 87.312 44.885C87.2579 44.6342 87.2037 44.4372 87.1495 44.1506C88.7746 44.4551 89.6774 45.4582 90.3274 46.7836C91.8441 49.918 91.8802 53.2495 91.6455 56.5989C91.6094 57.1183 91.2663 57.6019 91.0496 58.1392C89.8399 57.19 89.8579 57.2079 89.1176 58.2825C88.9912 58.4796 88.3412 58.587 88.2871 58.5154C87.8537 57.8885 87.4204 58.2109 86.9509 58.39C86.5537 58.5512 86.1384 58.6945 85.687 58.8557C85.6147 58.5333 85.4703 58.2109 85.5606 58.1392C86.012 57.7094 86.5176 57.3332 87.0051 56.9392C86.987 56.9213 86.969 56.9034 86.9509 56.8855C84.6758 57.8706 82.4008 58.8378 80.0354 59.8587C80.4688 59.8945 80.8118 59.9124 81.1729 59.9304C78.6993 61.1483 76.3339 62.4917 73.5352 62.7961C72.7769 62.8857 72.1991 62.617 71.9824 62.026C71.6032 60.9871 71.3143 59.9124 71.8199 58.7482C73.2463 55.4347 75.1061 52.4256 77.7062 49.8643C77.652 49.8106 77.5978 49.7568 77.5437 49.7031C76.7131 50.4375 75.8825 51.1539 75.0519 51.9062C74.2936 49.9001 73.5172 52.0853 72.7227 51.8166C72.6324 51.6017 72.5241 51.3867 72.3796 51.0285C71.4768 51.9241 70.9893 51.4405 70.574 50.6166C70.5199 50.5091 70.3393 50.3837 70.231 50.3837C69.4365 50.4016 68.6601 50.4554 67.9559 50.4912C67.8656 50.7599 67.8476 51.1897 67.685 51.2614C67.1614 51.4405 66.5475 51.6733 66.0419 51.5659C65.3558 51.4047 65.0308 51.6017 64.7058 52.1032C64.5252 52.2644 64.3086 52.4793 64.0919 52.7301ZM49.647 12.842C58.7292 21.2602 69.2379 23.105 80.9202 20.9378C81.0827 21.4751 81.2632 22.0304 81.4077 22.6035C81.8952 24.7887 81.6785 25.0753 79.4757 25.6126C74.4741 26.8306 69.4726 27.0276 64.3627 26.1858C58.6209 25.2365 53.7457 22.6752 49.4664 18.8959C48.69 18.2153 48.0761 17.3377 47.4983 16.4779C47.3178 16.2093 47.3358 15.6182 47.5164 15.3495C48.1845 14.454 48.9609 13.6301 49.647 12.842ZM78.2298 16.3705C78.0312 16.4242 77.9229 16.46 77.7965 16.4958C75.3408 16.9973 72.9033 16.872 70.4476 16.4958C64.7961 15.654 59.4515 13.9883 54.5944 10.9255C54.3597 10.7822 54.161 10.6031 53.8721 10.3881C63.2794 6.16111 72.7408 8.74031 78.2298 16.3705ZM62.5752 73.4174C60.8598 73.9906 58.8376 74.0264 57.4834 75.5668C56.4 75.5847 55.2986 75.728 54.2333 75.5847C53.0596 75.4235 52.4096 74.4742 51.6151 73.6145C50.3151 72.2174 49.3401 70.7129 48.5998 69.0113C48.1122 67.9008 48.1845 66.7187 48.6539 65.6261C49.1776 64.4081 50.4595 64.0678 51.5429 64.8201C51.904 65.0709 52.2651 65.3216 52.6985 65.6082C54.7208 64.0678 56.7069 62.42 59.3612 61.6319C59.2348 62.3484 59.1265 62.9215 59.0362 63.4947C58.7653 64.9992 58.4223 66.5754 59.1626 67.9725C59.8126 69.1904 59.7043 70.9636 61.4738 71.501C61.5279 71.5189 61.546 71.6622 61.5821 71.7338C61.9071 72.2711 62.2141 72.8085 62.5752 73.4174ZM63.3877 42.0371C62.0877 41.6431 60.9682 41.3386 59.8668 40.9445C59.6501 40.8729 59.5056 40.4789 59.3973 40.2102C59.2167 39.7445 59.2348 39.0639 58.9098 38.831C58.0973 38.2758 58.2778 37.6847 58.5306 36.9862C58.7292 36.4309 58.8556 35.8399 59.0001 35.2667C59.5056 33.404 59.9932 31.5412 60.4987 29.6784C60.589 29.7501 60.6612 29.8217 60.7515 29.8934C61.1487 29.6247 61.5099 29.2665 61.9432 29.0874C63.2432 28.55 64.5794 28.0843 65.8794 27.5828C66.0961 27.959 66.2947 28.2993 66.4933 28.6575C65.1211 30.5203 63.9655 32.4905 63.4599 34.7294C62.9363 37.0937 62.0154 39.4758 63.3877 42.0371ZM88.9551 29.3919C88.9551 30.8427 88.6662 31.2367 87.1495 31.9173C86.4273 32.2397 85.9036 31.9352 85.5245 31.2546C85.1633 30.6098 84.6036 30.0546 84.1341 29.4814C84.098 29.4456 84.0258 29.4098 83.9716 29.4277C83.1591 29.5352 82.7438 28.962 82.2563 28.4963C81.6063 27.8873 81.5702 27.5291 82.148 26.8843C83.0688 25.8813 85.3981 25.5051 86.987 26.0962C88.1426 26.5082 88.9551 27.8694 88.9551 29.3919ZM59.632 18.7526C60.0834 17.8571 60.4084 17.0153 60.914 16.2988C61.221 15.851 61.7988 15.2958 62.2502 15.2958C63.0085 15.2779 63.7488 15.6898 64.5794 15.9227C63.8391 17.0869 63.1891 18.1437 62.503 19.1467C62.3766 19.3437 61.9974 19.5228 61.7988 19.4691C61.0946 19.3079 60.3904 19.0213 59.632 18.7526ZM70.6101 21.2602C69.4907 21.1169 68.5698 21.0094 67.6489 20.8841C67.9739 19.4512 68.2448 18.1795 68.5337 16.8182C69.2379 16.9257 69.9601 17.0511 70.5921 17.1406C70.6101 18.5377 70.6101 19.8273 70.6101 21.2602ZM61.4015 14.9376C60.6973 16.1555 59.9932 17.3556 59.2709 18.6094C58.5306 18.269 57.7723 17.9108 56.9417 17.5168C57.7723 16.3167 58.5306 15.2241 59.289 14.1137C60.0834 14.4181 60.7696 14.6868 61.4015 14.9376ZM71.0254 17.2123C71.6213 17.266 72.181 17.3018 72.7408 17.3914C72.8852 17.4093 73.1019 17.6242 73.1199 17.7675C73.2824 18.9138 73.4088 20.0602 73.5352 21.2602C72.506 21.2602 71.7477 21.2602 71.0254 21.2602C71.0254 19.881 71.0254 18.5914 71.0254 17.2123ZM52.211 14.4181C53.0957 13.7375 53.8541 13.1285 54.6486 12.5733C54.9194 12.3942 55.3347 12.1972 55.6055 12.2867C56.1653 12.4837 56.6708 12.8599 57.1042 13.1106C56.1653 14.0957 55.2805 15.0092 54.3596 15.9764C53.6735 15.4749 52.9513 14.9376 52.211 14.4181ZM73.6255 17.4093C74.2214 17.3914 75.0519 17.1406 75.4672 17.9108C75.9909 18.878 76.3339 19.9527 76.8034 21.099C75.6478 21.1886 74.745 21.2423 74.0047 21.296C73.8602 19.9169 73.7519 18.6989 73.6255 17.4093ZM66.4031 16.4063C66.1503 17.1227 65.9156 17.8034 65.6989 18.4661C65.0127 20.4721 65.0127 20.4721 62.9544 19.8094C62.9002 19.7915 62.8821 19.7198 62.8099 19.6661C63.3877 18.6452 64.0197 17.6421 64.5433 16.5675C64.7961 16.0839 65.0489 15.9764 65.5183 16.1376C65.8072 16.2451 66.0961 16.3167 66.4031 16.4063ZM75.6658 17.266C76.4061 17.3018 77.2909 17.1227 77.5076 17.4093C78.1937 18.3944 78.6451 19.5407 79.2771 20.7587C78.3562 20.8841 77.7242 20.9557 77.1284 21.0453C76.8937 20.3646 76.7131 19.7736 76.4964 19.2004C76.2617 18.6094 76.0089 18.0541 75.6658 17.266ZM56.5986 17.3377C56.0569 17.0153 55.4791 16.6749 54.8111 16.2809C55.4791 15.5107 56.0389 14.7943 56.6708 14.1674C57.6097 13.236 57.8264 13.236 58.8376 14.0241C58.1153 15.0988 57.3931 16.1734 56.5986 17.3377ZM68.0823 16.8182C67.7753 18.1258 67.4864 19.4512 67.1614 20.8124C66.5114 20.6512 66.0239 20.5258 65.4822 20.4005C65.8433 19.3437 66.1503 18.3765 66.4753 17.4272C66.8364 16.3525 66.8545 16.3525 68.0823 16.8182ZM54.8291 11.624C54.8291 11.7136 54.8291 11.8031 54.8472 11.8927C53.8721 12.627 52.8791 13.3793 51.886 14.1316C51.561 13.8271 51.3262 13.5942 50.929 13.236C51.9582 12.6091 52.8429 12.0001 53.7999 11.5165C54.0346 11.3912 54.468 11.5882 54.8291 11.624ZM77.8326 16.9794C78.2118 17.0332 78.7173 16.9615 78.8437 17.1406C79.5118 18.1616 80.1076 19.2542 80.7938 20.4363C80.216 20.5438 79.8729 20.6154 79.7285 20.6333C79.0784 19.3795 78.5006 18.269 77.8326 16.9794ZM60.0473 26.0067C60.9862 26.1858 61.7807 26.3291 62.828 26.5261C62.0335 27.2246 61.4015 27.7619 60.6432 28.4247C60.4084 27.5112 60.2459 26.8306 60.0473 26.0067ZM61.7807 28.4605C63.4419 26.5082 63.7488 26.4007 65.3197 27.1351C64.0919 27.5828 62.9363 28.0127 61.7807 28.4605ZM53.5652 10.8001C53.6013 10.8896 53.6194 10.9792 53.6555 11.0688C52.7527 11.6956 51.8679 12.3225 50.9471 12.8957C50.8207 12.9853 50.5137 12.7882 50.279 12.7166C50.279 12.627 50.279 12.5554 50.279 12.4658C51.3443 11.8568 52.1929 10.7822 53.5652 10.8001ZM59.7584 27.8515C59.3251 27.2783 59.0001 26.8485 58.6751 26.4186C58.3681 26.0067 58.0973 25.5947 57.7181 25.0753C59.5598 25.6305 59.5779 25.6484 59.7584 27.8515ZM66.4211 27.2783C66.9809 27.2783 67.4684 27.2783 68.0101 27.2783C66.9628 28.3351 66.7822 28.3351 66.4211 27.2783Z" fill="black"/>
<path d="M59.8668 67.5968C59.9751 67.3639 60.0834 67.1311 60.264 66.7729C60.2098 67.8296 60.1557 68.6535 60.1015 69.4774C60.2279 69.5312 60.3543 69.6028 60.4807 69.6565C60.5709 69.4058 60.6612 69.155 60.7515 68.8864C60.8237 68.9401 60.8779 68.9938 60.9501 69.0476C60.9321 69.4237 60.8418 69.8178 60.9321 70.1581C61.0043 70.4267 61.2751 70.6775 61.4918 70.9103C61.6543 71.1074 61.9793 71.2327 62.0335 71.4477C62.4307 72.9522 63.7308 73.2209 65.103 73.8298C64.9766 72.9522 64.9766 72.2537 64.76 71.6447C64.2002 70.0685 65.6447 68.4744 67.4503 68.7073C68.1545 68.7968 68.8406 69.0655 69.5809 69.2625C72.2171 66.2893 75.413 64.0862 79.584 63.5488C79.4757 63.6384 79.3673 63.7817 79.2409 63.8175C76.0992 64.7489 73.4088 66.4684 70.9713 68.5998C70.6282 68.8864 70.249 69.155 69.924 69.4416C69.5268 69.7998 69.1115 69.8536 68.6059 69.6745C68.1364 69.5133 67.6128 69.37 67.1253 69.37C65.7711 69.3521 64.9766 70.4805 65.3558 71.7701C65.5183 72.3074 65.4822 72.9164 65.6808 73.4358C66.1322 74.6179 66.6378 75.8001 67.1614 76.9464C67.2698 77.1971 67.5406 77.4837 67.7934 77.5554C68.6962 77.8419 68.9851 78.5584 69.3101 79.3107C70.556 82.3376 71.7115 82.8392 74.8533 81.7645C77.7423 80.7794 80.6493 79.8301 83.5202 78.8271C86.1384 77.8778 88.2329 76.2837 89.7135 73.8836C90.833 72.0746 91.3927 70.1222 91.4649 68.0445C91.501 66.8982 91.4649 65.734 91.4649 64.5877C91.3566 64.5698 91.2663 64.5519 91.158 64.534C90.9593 64.8743 90.7607 65.1967 90.4899 65.6445C90.2552 65.4295 90.0746 65.2325 89.8579 65.0713C89.6051 64.8922 89.3524 64.7489 89.0635 64.6235C88.6843 64.4444 88.287 64.3011 87.9259 64.0504C86.7703 63.8175 85.6147 63.4951 84.4411 63.3697C83.2494 63.2444 82.0396 63.3518 80.8299 63.1906C81.5521 63.119 82.2924 63.0115 83.0147 63.0115C84.3869 63.0115 85.8134 62.5458 87.1315 63.4772C87.4204 63.6742 88.0704 63.3876 88.594 63.2981C88.6482 63.513 88.7204 63.7996 88.7746 64.0324C89.3885 64.122 89.9301 64.1937 90.7427 64.319C90.8691 64.0324 91.1941 63.5847 91.2482 63.119C91.4288 61.704 91.483 60.2711 91.5913 58.7307C91.2844 58.7845 91.0677 58.8203 90.8871 58.8382C90.5802 58.4083 90.2732 57.9964 89.8399 57.4053C89.6774 57.9247 89.6774 58.2651 89.4968 58.4083C89.1718 58.6949 88.5398 59.1606 88.3773 59.0532C87.5829 58.5158 87.0412 59.1069 86.4092 59.3039C85.8314 59.483 85.2536 59.7338 84.73 58.9994C84.6036 58.8024 83.6466 58.9278 83.2674 59.1785C80.5771 61.0592 77.6881 62.4384 74.4741 63.1011C74.3297 63.1369 74.1672 63.1369 74.0227 63.1548C71.4768 63.3339 70.2309 61.7219 71.0074 59.2681C71.7296 57.0113 72.6685 54.8619 74.1311 52.9455C74.4019 52.5872 74.3839 51.9962 74.5283 51.3872C73.5533 51.5663 73.1922 52.6051 72.1088 52.0141C71.4588 51.6558 70.5198 51.817 70.3212 50.5812C69.4726 50.9394 68.7504 51.2976 67.992 51.5663C67.342 51.7812 66.6739 51.8887 66.0058 52.0678C65.6447 52.1753 65.1933 52.2469 64.9586 52.4977C63.496 54.1276 62.2321 55.9187 61.4196 57.9606C60.8779 59.3218 60.3001 60.6652 59.7584 62.0264C59.0542 63.7817 59.3251 65.5907 59.5056 67.3818C59.632 67.4714 59.7584 67.5251 59.8668 67.5968Z" fill="white"/>
<path d="M89.1001 44.2582C88.8473 43.8641 88.739 43.5059 88.5404 43.4522C87.5473 43.1835 87.8542 42.4492 87.9084 41.8223C88.1431 38.849 87.6195 36.0012 86.6806 33.207C86.5361 32.7771 86.0125 32.4906 85.6875 32.1144C85.3805 31.7741 85.1097 31.4159 84.7486 31.0756C84.4777 30.7532 84.225 30.4129 83.9541 30.0905C83.8458 29.9651 83.6833 29.786 83.5569 29.786C82.8166 29.8218 82.4013 29.3382 82.0041 28.8546C81.1554 27.8337 79.8373 27.8158 78.754 27.2963C77.0025 26.4545 75.3414 27.153 73.6441 27.2605C72.5968 27.3322 71.5315 27.3859 70.5023 27.2605C68.6426 27.0098 67.5772 28.1023 66.6564 29.374C65.1216 31.5234 64.3091 33.9414 63.641 36.4848C62.9729 39.046 63.3702 41.2312 64.923 43.291C65.1036 43.5417 65.0675 43.9358 65.1938 44.2403C65.3564 44.6522 65.5008 45.2433 65.8258 45.4045C66.6383 45.7806 66.2772 46.2284 65.9703 46.8553C66.5661 46.8732 67.1078 46.8016 67.5953 46.9628C67.9745 47.0882 68.2453 47.4822 68.4981 47.8404C69.437 48.1091 70.6287 47.7688 71.2968 48.8793C71.4051 48.8793 71.4774 48.8972 71.5135 48.8793C72.2538 48.0195 73.3371 48.2166 74.2941 48.0016C74.7094 47.9121 75.1247 47.8583 75.5219 47.6971C76.0997 47.4464 76.5692 47.321 76.6595 48.2524C77.0928 47.9837 77.5623 47.8583 77.7248 47.5718C78.2123 46.6583 79.2054 46.5687 79.9637 46.1568C80.3429 45.9597 80.9749 46.0672 81.4443 46.2284C82.1666 46.4613 82.3832 46.1568 82.636 45.5836C82.7444 45.3149 83.1416 45.1358 83.4305 44.9746C83.7736 44.7955 84.1527 44.6522 84.5319 44.5448C84.8028 44.4552 85.1097 44.4015 85.3986 44.4194C85.85 44.4373 86.2833 44.5448 86.7167 44.5985C87.0598 43.6492 87.2223 43.6134 89.1001 44.2582ZM76.6956 40.3177C78.5734 40.5864 80.2526 39.9416 81.8235 39.0819C82.4735 38.7236 82.4735 38.043 81.9138 37.4878C81.2457 36.843 80.5235 36.2519 79.8915 35.5713C78.9887 34.6041 78.0498 33.7623 76.6053 33.8697C76.7317 33.4578 76.7317 33.4578 79.3318 33.7264C79.1693 35.2489 80.6137 34.7653 81.6429 35.3384C81.2096 35.4996 80.9929 35.5713 80.6499 35.6967C81.3179 35.822 81.7332 35.8937 82.3652 36.0191C81.986 36.2877 81.8235 36.3952 81.8596 36.3773C82.0943 36.7534 82.4374 37.0758 82.4735 37.4161C82.5638 38.3296 82.5096 39.261 82.5096 40.3536C81.6971 39.6192 81.1193 39.6013 80.8304 40.6401C80.6137 40.5506 80.4332 40.4789 80.2346 40.3894C80.0901 40.6222 79.9818 40.8372 79.8554 41.0521C79.8193 40.9625 79.8012 40.8551 79.7651 40.7655C79.3859 40.7655 78.8262 40.6043 78.6456 40.8013C78.0678 41.4103 77.5442 41.0521 76.9484 40.9625C76.2983 40.8551 76.6233 40.5864 76.7317 40.3177C75.3233 39.4938 74.5288 38.2042 73.8608 36.8072C73.9149 36.7534 73.9872 36.7176 74.0413 36.6639C74.9261 37.8818 75.8108 39.0998 76.6956 40.3177ZM65.7536 34.6936C65.3383 34.3354 65.3563 34.2817 65.8078 33.8876C66.1147 33.619 66.3675 33.2966 66.6383 32.9921C66.6203 32.8846 66.5842 32.7771 66.5661 32.6697C67.5772 32.8667 68.6064 33.2787 69.5995 33.1891C70.3759 33.1175 70.3759 33.5652 70.5565 33.9055C70.8815 34.5504 70.8093 34.9265 70.3759 35.4101C70.3398 35.2668 70.2495 35.1593 70.2857 35.0698C70.5384 34.1026 69.6898 33.7623 69.1842 33.3145C68.6606 32.8309 67.5953 32.9742 67.2161 33.5652C66.3494 34.9086 65.5369 36.3056 64.7966 37.7206C64.6341 38.043 64.8327 38.5445 64.8688 39.1177C65.1216 38.8311 65.248 38.7057 65.2661 38.6878C65.8078 39.1356 66.2772 39.5117 66.8008 39.9416C67.5231 38.7595 68.1189 37.7923 68.7509 36.7713C68.5342 36.7892 68.3537 36.8072 68.1912 36.8251C67.7217 36.8609 67.2522 36.7355 67.3425 36.1982C67.3967 35.9116 67.7939 35.5176 68.1009 35.4638C68.9856 35.2668 69.5995 36.1086 69.1301 36.9504C68.0828 38.8132 66.9453 40.6401 65.8258 42.5208C65.3202 41.5357 66.1869 40.9984 66.4036 40.4252C65.9522 40.1028 65.555 39.8341 65.1397 39.5476C64.4897 40.0312 64.1827 39.458 64.1466 38.9565C64.0924 38.3654 64.2188 37.7027 64.4535 37.1475C64.7786 36.2877 65.2841 35.5355 65.7536 34.6936ZM67.3245 43.6492C67.3245 43.5059 67.3425 43.3626 67.3425 43.2193C67.6856 43.2014 68.0467 43.2193 68.3717 43.1298C68.7328 43.0402 69.2204 42.9328 69.3829 42.6641C69.6718 42.1805 69.0578 42.0551 68.8231 41.7506C68.5523 41.3745 68.4259 40.8193 68.3898 40.3357C68.3898 40.2461 69.0398 39.9774 69.4009 39.9953C69.9245 39.9953 70.4662 40.1386 70.9898 40.2819C71.5676 40.4431 71.7121 41.0163 71.3149 41.4461C71.1343 41.6432 70.8815 41.7865 70.6468 41.876C70.2134 42.0014 69.8884 42.2342 70.087 42.682C70.2134 42.9686 70.5565 43.2731 70.8635 43.3447C71.4774 43.5059 72.1274 43.5059 72.7593 43.5776C72.7593 43.7029 72.7413 43.8104 72.7413 43.9358C70.8996 43.8283 69.112 43.7388 67.3245 43.6492ZM73.6621 34.3892C74.1497 34.3892 74.565 34.3892 74.9441 34.3892C75.0886 34.0667 75.215 33.7981 75.3594 33.5115C75.6483 34.1205 75.6122 34.5324 75.0344 34.8907C74.5288 35.2131 74.1316 35.7146 73.608 36.1982C72.8496 36.0728 71.9468 35.9295 71.044 35.7683C71.044 35.6788 71.0621 35.5892 71.0621 35.4996C71.8746 35.5534 72.6691 35.6071 73.5177 35.6608C73.5358 35.4817 73.5358 35.2847 73.5719 35.0877C73.5719 34.9086 73.608 34.6936 73.6621 34.3892ZM77.1831 38.0788C76.2261 38.0788 75.5941 37.5952 75.7386 37.04C75.8289 36.7534 76.2622 36.431 76.5872 36.3773C77.3636 36.2519 77.5984 36.9146 77.7067 37.4878C77.7248 37.6848 77.2734 37.9714 77.1831 38.0788ZM72.5788 45.4403C74.2941 45.1537 75.7025 44.4015 76.7136 42.9507C76.3525 44.7776 74.258 46.0493 72.5788 45.4403ZM69.1301 45.5478C67.5592 45.7448 65.7897 44.491 66.1328 43.5059C66.7647 44.7239 68.0287 44.9925 69.1301 45.5478Z" fill="white"/>
<path d="M64.0922 52.7302C64.3089 52.4794 64.5256 52.2824 64.67 52.0317C64.995 51.5301 65.3381 51.3331 66.0062 51.4943C66.5117 51.6197 67.1256 51.3869 67.6493 51.1898C67.8118 51.1361 67.8298 50.7062 67.9201 50.4197C68.6243 50.3838 69.4188 50.3301 70.1952 50.3122C70.3216 50.3122 70.4841 50.4376 70.5382 50.545C70.9355 51.3689 71.4411 51.8525 72.3439 50.957C72.5064 51.3152 72.5966 51.5481 72.6869 51.7451C73.4633 52.0137 74.2578 49.8286 75.0162 51.8346C75.8648 51.1003 76.6773 50.3659 77.5079 49.6316C77.5621 49.6853 77.6162 49.739 77.6704 49.7928C75.0884 52.3541 73.2286 55.3631 71.7841 58.6767C71.2785 59.8588 71.5674 60.9156 71.9466 61.9544C72.1633 62.5634 72.7411 62.8142 73.4994 62.7246C76.2801 62.4201 78.6635 61.0589 81.1372 59.8588C80.7761 59.8409 80.433 59.8051 79.9996 59.7872C82.365 58.7662 84.6401 57.799 86.9151 56.8139C86.9332 56.8318 86.9512 56.8498 86.9693 56.8677C86.4818 57.2617 85.9762 57.6378 85.5248 58.0677C85.4526 58.1394 85.597 58.4618 85.6512 58.7842C86.1026 58.623 86.5179 58.4797 86.9151 58.3185C87.3846 58.1214 87.836 57.799 88.2513 58.4438C88.3054 58.5334 88.9555 58.408 89.0819 58.211C89.8402 57.1363 89.8041 57.1184 91.0139 58.0677C91.2305 57.5304 91.5736 57.0289 91.6097 56.5274C91.8444 53.178 91.8083 49.8465 90.2916 46.712C89.6597 45.3866 88.7568 44.4015 87.1137 44.0791C87.186 44.3657 87.2221 44.5627 87.2762 44.8135C87.1679 44.8672 87.0415 44.9747 86.9693 44.9388C85.7054 44.4552 84.6762 45.3329 83.5206 45.5478C83.2678 45.6016 83.0331 45.9419 82.8886 46.2105C82.5817 46.8195 82.1844 47.0165 81.4983 46.7837C80.2705 46.3717 79.3135 46.8912 78.4107 47.7151C77.9593 48.127 77.4176 48.4673 76.8579 48.7539C76.3343 49.0405 75.8467 49.0584 75.7745 48.1091C74.2939 48.5569 72.9397 49.0763 71.5313 49.345C71.0077 49.4524 70.3577 49.0047 69.7799 48.8076C69.5091 48.7181 69.2021 48.5211 68.9674 48.5748C68.1368 48.7539 67.7576 48.4494 67.7215 47.5897C67.252 47.5539 66.8187 47.536 66.3673 47.4822C65.1395 47.3748 65.0673 47.2494 65.5548 46.1747C65.1034 45.4404 64.3089 44.9926 64.3811 43.9537C64.4172 43.5776 63.8394 42.9865 63.4241 42.8074C62.2686 42.3238 61.0588 41.9656 59.831 41.6253C59.6324 41.5715 59.2171 41.8581 59.0726 42.0731C58.4046 43.1656 57.7004 43.5418 56.5087 43.2373C56.8337 43.0582 57.0684 42.9865 57.249 42.8253C57.6823 42.4313 58.2059 42.0731 58.4768 41.5895C58.9823 40.6223 58.7657 39.3685 58.1518 38.9386C57.4837 38.4908 56.0392 38.6699 55.2808 39.3147C53.6197 40.7297 53.385 43.2731 54.8836 44.8493C57.4295 47.518 60.1018 50.0435 63.1533 52.1391C63.4603 52.3899 63.7492 52.5332 64.0922 52.7302Z" fill="black" stroke="black" stroke-miterlimit="10"/>
<path d="M49.6471 12.8416C48.9609 13.6297 48.1665 14.4536 47.4984 15.3492C47.3178 15.6 47.2998 16.2089 47.4803 16.4776C48.0581 17.3373 48.672 18.215 49.4485 18.8956C53.7277 22.6928 58.6029 25.2362 64.3447 26.1854C69.4366 27.0273 74.4561 26.8302 79.4577 25.6123C81.6605 25.075 81.8772 24.7884 81.3897 22.6032C81.2633 22.0301 81.0647 21.4569 80.9022 20.9375C69.256 23.1047 58.7293 21.2599 49.6471 12.8416Z" fill="#0367B3" stroke="#0367B3" stroke-miterlimit="10"/>
<path d="M78.2661 16.3705C72.7771 8.74036 63.3157 6.16115 53.9084 10.3882C54.1793 10.5852 54.396 10.7643 54.6307 10.9255C59.4878 13.9883 64.8324 15.6541 70.4839 16.4959C72.9396 16.872 75.3952 16.9974 77.8328 16.4959C77.9592 16.4601 78.0675 16.4242 78.2661 16.3705Z" fill="#0367B3" stroke="#0367B3" stroke-miterlimit="10"/>
<path d="M62.5757 73.4176C62.2146 72.7907 61.9076 72.2713 61.6007 71.734C61.5645 71.6623 61.5465 71.519 61.4923 71.5011C59.7228 70.9817 59.8312 69.1906 59.1811 67.9726C58.4408 66.5755 58.7839 64.9994 59.0547 63.4948C59.1631 62.9217 59.2534 62.3306 59.3798 61.632C56.7075 62.4201 54.7393 64.068 52.7171 65.6083C52.3018 65.3217 51.9406 65.071 51.5615 64.8202C50.4781 64.0859 49.1781 64.4083 48.6725 65.6262C48.203 66.7367 48.1308 67.901 48.6183 69.0115C49.3586 70.713 50.3337 72.2355 51.6337 73.6146C52.4282 74.4744 53.0782 75.4057 54.2518 75.5849C55.3171 75.7281 56.4186 75.5849 57.5019 75.5669C58.8381 74.0445 60.8604 73.9908 62.5757 73.4176Z" fill="black" stroke="black" stroke-miterlimit="10"/>
<path d="M63.388 42.0372C61.9977 39.4579 62.9185 37.0937 63.4602 34.7294C63.9658 32.4905 65.1214 30.5203 66.4937 28.6575C66.295 28.2993 66.0964 27.959 65.8797 27.5829C64.5617 28.0844 63.2436 28.5501 61.9435 29.0874C61.5102 29.2665 61.149 29.6247 60.7518 29.8934C60.6615 29.8217 60.5893 29.7501 60.499 29.6785C59.9935 31.5412 59.5059 33.404 59.0004 35.2667C58.8379 35.8399 58.7295 36.431 58.5309 36.9862C58.2781 37.7027 58.1156 38.2758 58.9101 38.8311C59.2351 39.046 59.217 39.7445 59.3976 40.2102C59.5059 40.4789 59.6504 40.8729 59.8671 40.9446C60.9685 41.3386 62.088 41.6431 63.388 42.0372Z" fill="white"/>
<path d="M88.9551 29.3922C88.9551 27.8698 88.1245 26.5265 86.9509 26.0787C85.3619 25.4876 83.0327 25.8637 82.1118 26.8668C81.534 27.4937 81.5701 27.8698 82.2202 28.4788C82.7077 28.9445 83.141 29.5176 83.9355 29.4101C83.9897 29.4101 84.0619 29.4281 84.098 29.4639C84.5674 30.0549 85.1272 30.5923 85.4883 31.2371C85.8675 31.9177 86.3911 32.2222 87.1134 31.8998C88.6662 31.2371 88.9551 30.8251 88.9551 29.3922Z" fill="black" stroke="black" stroke-miterlimit="10"/>
<path d="M59.6322 18.7528C60.4086 19.0215 61.0948 19.2902 61.799 19.4693C61.9976 19.523 62.3768 19.326 62.5031 19.1469C63.1893 18.1439 63.8212 17.105 64.5796 15.9229C63.7671 15.6721 63.0087 15.2781 62.2504 15.296C61.799 15.296 61.2212 15.8512 60.9142 16.299C60.4086 17.0334 60.0836 17.8752 59.6322 18.7528Z" fill="#FFEB15" stroke="#FFEB15" stroke-miterlimit="10"/>
<path d="M70.6104 21.2605C70.6104 19.8276 70.6104 18.538 70.6104 17.1409C69.9784 17.0335 69.2562 16.926 68.552 16.8185C68.245 18.1798 67.9742 19.4515 67.6672 20.8844C68.57 20.9918 69.4909 21.1172 70.6104 21.2605Z" fill="#FFEB15" stroke="#FFEB15" stroke-miterlimit="10"/>
<path d="M61.4019 14.9378C60.7699 14.687 60.0838 14.4184 59.2893 14.1139C58.5129 15.2244 57.7726 16.3169 56.942 17.517C57.7726 17.911 58.5309 18.2692 59.2712 18.6096C59.9935 17.3558 60.6977 16.1736 61.4019 14.9378Z" fill="#FFEB15" stroke="#FFEB15" stroke-miterlimit="10"/>
<path d="M71.0258 17.2124C71.0258 18.5916 71.0258 19.8812 71.0258 21.2424C71.7481 21.2424 72.5245 21.2424 73.5356 21.2424C73.3912 20.0603 73.2829 18.896 73.1204 17.7497C73.1023 17.6064 72.8856 17.4094 72.7412 17.3736C72.1995 17.302 71.6398 17.2661 71.0258 17.2124Z" fill="#FFEB15" stroke="#FFEB15" stroke-miterlimit="10"/>
<path d="M52.2118 14.4182C52.9521 14.9556 53.6743 15.475 54.3785 15.9944C55.2994 15.0272 56.1661 14.1137 57.123 13.1286C56.6716 12.8779 56.1841 12.5017 55.6244 12.3047C55.3716 12.2151 54.9383 12.4122 54.6674 12.5913C53.8549 13.1286 53.0965 13.7376 52.2118 14.4182Z" fill="#FFEB15" stroke="#FFEB15" stroke-miterlimit="10"/>
<path d="M73.6263 17.4093C73.7527 18.681 73.8611 19.899 74.0055 21.296C74.7458 21.2423 75.6486 21.1886 76.8042 21.099C76.3347 19.9527 75.9917 18.878 75.468 17.9108C75.0528 17.1407 74.2222 17.4093 73.6263 17.4093Z" fill="#FFEB15" stroke="#FFEB15" stroke-miterlimit="10"/>
<path d="M66.4033 16.4065C66.0964 16.3169 65.8075 16.2453 65.5366 16.1557C65.0672 15.9945 64.7963 16.0841 64.5616 16.5856C64.038 17.6423 63.406 18.6453 62.8282 19.6842C62.8824 19.7558 62.9185 19.8096 62.9727 19.8275C65.0491 20.4902 65.0491 20.4902 65.7172 18.4841C65.9158 17.7856 66.1505 17.1229 66.4033 16.4065Z" fill="#FFEB15" stroke="#FFEB15" stroke-miterlimit="10"/>
<path d="M75.6666 17.2662C76.0097 18.0543 76.2625 18.6096 76.4791 19.2007C76.6958 19.7738 76.8764 20.3649 77.1111 21.0455C77.7069 20.9739 78.3389 20.8843 79.2598 20.7589C78.6459 19.541 78.1764 18.3767 77.4903 17.3916C77.2917 17.105 76.4069 17.3021 75.6666 17.2662Z" fill="#FFEB15" stroke="#FFEB15" stroke-miterlimit="10"/>
<path d="M56.5989 17.3376C57.3753 16.1734 58.1156 15.0987 58.8379 14.0241C57.8268 13.236 57.6101 13.236 56.6712 14.1674C56.0392 14.7943 55.4975 15.5107 54.8114 16.2809C55.4795 16.657 56.0573 16.9973 56.5989 17.3376Z" fill="#FFEB15" stroke="#FFEB15" stroke-miterlimit="10"/>
<path d="M68.0825 16.8183C66.8366 16.3347 66.8367 16.3526 66.4755 17.4272C66.1686 18.3765 65.8436 19.3437 65.4824 20.4005C66.0061 20.5259 66.5116 20.6512 67.1617 20.8124C67.4867 19.4512 67.7936 18.1258 68.0825 16.8183Z" fill="#FFEB15" stroke="#FFEB15" stroke-miterlimit="10"/>
<path d="M54.8291 11.6238C54.468 11.588 54.0346 11.391 53.7818 11.5343C52.8429 12.0179 51.9582 12.609 50.9109 13.2538C51.3082 13.612 51.5609 13.8448 51.8679 14.1493C52.861 13.3971 53.8541 12.6448 54.8291 11.9104C54.8291 11.803 54.8291 11.7134 54.8291 11.6238Z" fill="#FFEB15" stroke="#FFEB15" stroke-miterlimit="10"/>
<path d="M77.8332 16.9796C78.5013 18.2692 79.0791 19.3977 79.7291 20.6335C79.8916 20.5977 80.2166 20.544 80.7944 20.4365C80.1083 19.2365 79.5305 18.1618 78.8444 17.1408C78.736 16.9617 78.2305 17.0334 77.8332 16.9796Z" fill="#FFEB15" stroke="#FFEB15" stroke-miterlimit="10"/>
<path d="M60.048 26.0068C60.2466 26.8307 60.4091 27.5292 60.6258 28.4248C61.3841 27.7621 62.0161 27.2068 62.8105 26.5262C61.7814 26.3292 60.9869 26.1859 60.048 26.0068Z" fill="white"/>
<path d="M61.7808 28.4607C62.9364 28.0308 64.092 27.5831 65.3198 27.1353C63.7489 26.383 63.442 26.4905 61.7808 28.4607Z" fill="white"/>
<path d="M53.5655 10.8002C52.1932 10.7823 51.3446 11.857 50.2793 12.4839C50.2793 12.5734 50.2793 12.6451 50.2793 12.7346C50.514 12.8063 50.821 12.9854 50.9474 12.9138C51.8682 12.3406 52.771 11.6958 53.6558 11.0868C53.6377 10.9794 53.6016 10.8898 53.5655 10.8002Z" fill="#FFEB15" stroke="#FFEB15" stroke-miterlimit="10"/>
<path d="M59.7583 27.8519C59.5777 25.6488 59.5597 25.6309 57.718 25.0756C58.0971 25.613 58.386 26.0249 58.6749 26.419C58.9819 26.8488 59.3069 27.2787 59.7583 27.8519Z" fill="white"/>
<path d="M78.1939 33.7983C77.9953 33.7983 76.2258 33.7983 76.2258 33.7983L75.8647 33.9774L75.1785 34.461L73.5896 35.9834L74.366 37.076L76.1536 39.5298L76.7675 40.497L79.4398 40.3358L80.8481 39.8702L82.2926 39.0283L82.5454 38.491L82.3107 37.5954L81.2634 36.3775L79.7287 35.2491L78.1939 33.7983Z" fill="black"/>
<path d="M70.4297 34.8549L69.0213 36.6639L66.8546 40.1566L65.3018 39.064L64.6879 39.4401L64.4892 37.7744L66.5115 34.1563L67.4504 32.9205L68.6782 33.1533L69.7977 33.3145L70.4297 34.0489V34.8549Z" fill="black"/>
<path d="M66.4213 27.2785C66.7824 28.3353 66.963 28.3353 68.0103 27.2785C67.4686 27.2785 66.9811 27.2785 66.4213 27.2785Z" fill="black" stroke="black" stroke-miterlimit="10"/>
<path d="M65.7534 34.6938C65.2839 35.5535 64.7784 36.3058 64.4353 37.1297C64.2006 37.685 64.0922 38.3477 64.1283 38.9388C64.1645 39.4403 64.4714 40.0313 65.1214 39.5298C65.5367 39.8164 65.9159 40.0851 66.3854 40.4075C66.1687 40.9806 65.302 41.518 65.8076 42.5031C66.927 40.6224 68.0646 38.7955 69.1118 36.9327C69.5813 36.0909 68.9854 35.2491 68.0826 35.4461C67.7757 35.5177 67.3784 35.8939 67.3243 36.1804C67.234 36.7178 67.6854 36.8432 68.1729 36.8073C68.3535 36.7894 68.516 36.7715 68.7326 36.7536C68.1007 37.7745 67.5048 38.7417 66.7826 39.9239C66.277 39.5119 65.7895 39.1179 65.2478 38.6701C65.2298 38.688 65.1034 38.8134 64.8506 39.1C64.8145 38.5268 64.6159 38.0253 64.7784 37.7029C65.5187 36.2879 66.3312 34.9087 67.1979 33.5475C67.5771 32.9564 68.6424 32.8311 69.166 33.2967C69.6716 33.7624 70.5202 34.0848 70.2674 35.052C70.2494 35.1416 70.3216 35.267 70.3577 35.3924C70.8091 34.8908 70.8813 34.5326 70.5383 33.8878C70.3577 33.5475 70.3577 33.0997 69.5813 33.1714C68.5882 33.2609 67.559 32.849 66.5479 32.6519C66.5659 32.7594 66.602 32.8669 66.6201 32.9743C66.3492 33.2788 66.0965 33.6012 65.7895 33.8699C65.3562 34.2819 65.3381 34.3356 65.7534 34.6938Z" fill="black"/>
<path d="M76.7318 40.2997C76.6235 40.5684 76.2985 40.855 76.9485 40.9446C77.5443 41.0341 78.068 41.3923 78.6458 40.7833C78.8263 40.5863 79.3861 40.7475 79.7652 40.7475C79.8013 40.8371 79.8194 40.9446 79.8555 41.0341C79.9819 40.8192 80.0902 40.6042 80.2347 40.3714C80.4333 40.443 80.6139 40.5326 80.8305 40.6222C81.1194 39.5833 81.6972 39.6012 82.5098 40.3356C82.5098 39.243 82.5639 38.3116 82.4737 37.3981C82.4375 37.0578 82.0945 36.7354 81.8597 36.3593C81.8417 36.3772 82.0042 36.2697 82.3653 36.0011C81.7334 35.8757 81.3181 35.804 80.65 35.6787C80.9931 35.5533 81.2097 35.4637 81.6431 35.3204C80.6139 34.7294 79.1694 35.213 79.3319 33.7084C76.7318 33.4398 76.7318 33.4398 76.6054 33.8517C78.068 33.7443 79.0069 34.5861 79.8916 35.5533C80.5236 36.2339 81.2458 36.825 81.9139 37.4698C82.4917 38.025 82.4737 38.7057 81.8236 39.0639C80.2528 39.9415 78.5735 40.5684 76.6957 40.2997H76.7318Z" fill="black"/>
<path d="M67.3239 43.6492C69.1114 43.7388 70.899 43.8283 72.6865 43.9179C72.6865 43.7925 72.7046 43.685 72.7046 43.5597C72.0726 43.488 71.4226 43.488 70.8087 43.3268C70.5017 43.2552 70.1587 42.9507 70.0323 42.6641C69.8337 42.2163 70.1587 41.9835 70.592 41.8581C70.8448 41.7865 71.0976 41.6253 71.2601 41.4282C71.6573 40.9984 71.5129 40.4431 70.9351 40.264C70.4115 40.1207 69.8878 39.9774 69.3462 39.9774C69.0031 39.9774 68.335 40.2282 68.335 40.3178C68.3711 40.8014 68.4975 41.3387 68.7684 41.7327C68.985 42.0372 69.617 42.1626 69.3281 42.6462C69.1656 42.9149 68.6781 43.0223 68.317 43.1119C67.992 43.2014 67.6308 43.1835 67.2878 43.2014C67.3419 43.3626 67.3239 43.5059 67.3239 43.6492Z" fill="black"/>
<path d="M73.662 34.3891C73.6078 34.6936 73.5717 34.8906 73.5536 35.1055C73.5356 35.3025 73.5175 35.4996 73.4995 35.6787C72.6508 35.6249 71.8564 35.5712 71.0439 35.5175C71.0439 35.607 71.0258 35.6966 71.0258 35.7861C71.9286 35.9294 72.8495 36.0906 73.5898 36.216C74.1134 35.7145 74.5106 35.213 75.0162 34.9085C75.594 34.5503 75.6301 34.1383 75.3412 33.5293C75.2148 33.8159 75.0704 34.1025 74.9259 34.407C74.5467 34.3891 74.1314 34.3891 73.662 34.3891Z" fill="black"/>
<path d="M77.1824 38.0791C77.2907 37.9716 77.7241 37.685 77.706 37.488C77.6157 36.9149 77.3629 36.2521 76.5865 36.3775C76.2615 36.4313 75.8282 36.7537 75.7379 37.0402C75.5754 37.5955 76.2073 38.0791 77.1824 38.0791Z" fill="white"/>
<path d="M72.5785 45.4404C74.2577 46.0673 76.3523 44.7777 76.7134 42.9507C75.7022 44.4015 74.2758 45.1538 72.5785 45.4404Z" fill="black"/>
<path d="M69.1299 45.5478C68.0285 44.9925 66.7645 44.7238 66.1326 43.5059C65.7895 44.491 67.559 45.7269 69.1299 45.5478Z" fill="black"/>
<path d="M76.6953 40.3175C75.8106 39.0995 74.9258 37.8815 74.0411 36.6636C73.9869 36.7173 73.9147 36.7531 73.8605 36.8069C74.5286 38.186 75.305 39.4935 76.7314 40.3175C76.7314 40.2995 76.6953 40.3175 76.6953 40.3175Z" fill="black"/>
<path d="M77.1104 64.2471L80.0897 63.3873L81.7508 63.2619L83.9176 63.1187L86.5718 63.5127L88.5219 64.2471L90.4539 65.0351L91.3567 64.0679L91.7539 64.7307L91.5914 69.9249L90.7247 72.2892L89.3344 74.94L87.3482 76.9998L84.8204 78.576L81.5703 79.9014L77.6521 81.0835L74.1131 82.2836L71.6936 82.4268L70.4658 81.8L69.5088 80.4924L68.8407 78.9163L68.2088 77.9491L67.2518 77.5729L66.6379 76.7311L65.4642 73.9191L65.1934 72.1996L64.9587 70.8204L65.7351 69.3517L67.4323 69.0293L68.7504 69.5667L69.563 69.5129L70.7005 68.6532L72.2353 67.1487L74.7992 65.3934L77.1104 64.2471Z" fill="black" stroke="black" stroke-miterlimit="10"/>
<path d="M68.2993 35.4102C68.534 35.4102 68.841 35.446 69.1118 35.8221C69.2202 35.9654 69.3104 36.2878 69.2563 36.5028C69.2382 36.5744 69.1479 36.6819 69.0757 36.6998C68.9132 36.7535 68.5701 36.7714 68.5701 36.7714C68.5701 36.7714 68.1368 36.8252 67.9923 36.8073C67.884 36.8073 67.7034 36.8073 67.5409 36.7177C67.4687 36.6819 67.3784 36.6281 67.3243 36.4849C67.2882 36.4132 67.2882 36.2162 67.3062 36.1445C67.3604 36.0013 67.5048 35.7505 67.6673 35.643C67.9021 35.5177 68.0465 35.4102 68.2993 35.4102Z" fill="white"/>
</g>
<defs>
<filter id="filter0_d" x="36" y="0" width="67" height="97" filterUnits="userSpaceOnUse" color-interpolation-filters="sRGB">
<feFlood flood-opacity="0" result="BackgroundImageFix"/>
<feColorMatrix in="SourceAlpha" type="matrix" values="0 0 0 0 0 0 0 0 0 0 0 0 0 0 0 0 0 0 127 0"/>
<feOffset dy="4"/>
<feGaussianBlur stdDeviation="5"/>
<feColorMatrix type="matrix" values="0 0 0 0 0 0 0 0 0 0 0 0 0 0 0 0 0 0 0.3 0"/>
<feBlend mode="normal" in2="BackgroundImageFix" result="effect1_dropShadow"/>
<feBlend mode="normal" in="SourceGraphic" in2="effect1_dropShadow" result="shape"/>
</filter>
<linearGradient id="paint0_linear" x1="40" y1="10" x2="40" y2="90" gradientUnits="userSpaceOnUse">
<stop offset="0.421875" stop-color="#FFFF58"/>
<stop offset="0.692708" stop-color="#FFBE16"/>
<stop offset="1" stop-color="#FFBE16"/>
</linearGradient>
</defs>
</svg>
