<svg width="164" height="38" viewBox="0 0 164 38" fill="none" xmlns="http://www.w3.org/2000/svg">
<path d="M27.0681 28.7057C27.1138 29.3476 27.2809 29.6608 27.9648 30.2087C28.3144 30.5375 28.6336 30.7567 28.7399 30.9759C28.9071 31.3204 28.8008 32.0406 28.3296 32.6355C27.8888 33.0896 27.6761 33.2931 26.7642 33.481C25.5179 33.6845 24.3324 33.8254 23.0102 33.935C21.2015 33.9977 19.3929 33.9977 17.5995 33.9037C15.4869 33.7941 14.8485 33.0113 14.8334 30.8194C14.8182 27.234 14.8334 23.6643 14.8334 20.0789C14.8334 19.7814 14.8182 19.4839 14.7877 19.2021C14.6662 17.9183 14.0583 17.1981 12.736 17.1667C12.4624 17.1511 12.2192 17.1511 11.9152 17.1354C11.4897 17.1041 11.2617 16.8693 11.2617 16.4309C11.2769 12.4697 11.2921 8.50861 11.2921 4.54747C11.2921 4.25 11.4137 4.10909 11.6872 4.09343C11.8392 4.07777 11.9912 4.06212 12.1281 4.07777C13.2223 4.17171 14.3166 4.25 15.4109 4.34394C15.4869 4.34394 15.5629 4.37525 15.7301 4.40656C15.1221 4.82929 15.2589 5.40859 15.2589 5.95657C15.2589 12.2192 15.2589 12.595 15.2589 15.8986C15.2589 16.3526 15.2589 16.4779 15.2589 16.7127C15.2589 16.9945 15.3805 17.292 15.8973 17.3077C16.7636 17.3233 17.6298 17.3077 18.5114 17.3233C18.6634 17.3233 19.1498 17.3233 19.2105 17.3233C19.1498 17.3859 18.9978 17.5112 18.9066 17.6678C18.7546 17.9339 18.7241 18.3253 18.7241 18.5758C18.7089 22.0047 18.7241 25.4335 18.7241 28.8623C18.7241 29.8173 19.0585 30.2087 19.9857 30.2244C21.3535 30.2401 22.7213 30.2087 24.1044 30.2244C24.9099 30.2244 25.4723 29.833 25.8066 29.0815C26.1258 28.3456 26.4146 27.5784 26.7186 26.8426C26.7794 26.7017 26.9314 26.3415 26.9769 26.2006C26.9921 26.185 27.0073 27.9385 27.0681 28.7057Z" fill="white"/>
<path d="M0 34.0761C0.471153 33.6533 0.942309 33.2463 1.39826 32.7922C3.90601 30.3028 5.41066 27.2341 6.0186 23.727C6.32258 22.0204 6.50495 20.3295 6.67213 18.6073C6.71774 18.1376 6.39857 17.7775 5.98821 17.5739C5.85142 17.5113 5.63864 17.4174 5.41066 17.2921C5.54745 17.2765 5.85142 17.2921 5.98821 17.2921C7.35607 17.2921 8.73914 17.2921 10.107 17.2921C10.9429 17.2921 11.1101 17.433 11.0037 18.3098C10.8213 19.8128 10.6389 21.3159 10.3046 22.7719C9.74226 25.23 8.70874 27.4689 7.09769 29.3947C5.36507 31.4614 3.17648 32.8548 0.744726 33.8882C0.516748 33.9821 0.273572 34.0761 0.0303964 34.1543C0.0151982 34.1387 0.0151982 34.1074 0 34.0761Z" fill="white"/>
<path d="M1.68701 6.48894C1.7782 6.47328 1.8238 6.45763 1.85419 6.47328C3.83 7.14652 5.66902 8.03895 6.97609 9.77684C7.64482 10.6693 8.02478 11.6713 7.888 12.8142C7.67522 14.7087 5.95779 15.5541 4.42274 14.5051C4.24036 14.3799 4.05798 14.1294 4.04278 13.9102C3.754 11.3268 2.97889 8.93138 1.7478 6.67682C1.70221 6.64551 1.70221 6.58288 1.68701 6.48894Z" fill="white"/>
<path d="M26.1717 8.19548C25.7157 8.33639 25.6548 8.3677 25.5637 8.43033C25.4725 8.50861 25.1077 8.80609 24.9101 8.99397C22.7824 11.2798 21.5057 12.4541 18.7851 14.3172C18.6788 14.3955 18.4052 14.5677 18.4356 14.5364C18.4508 14.5208 18.39 14.5364 18.314 14.5521C18.3444 14.4268 18.39 14.3329 18.4204 14.2233C19.3019 11.7026 20.1531 9.18185 21.0345 6.64547C21.1865 6.19142 21.3841 6.06617 21.7944 6.25405C23.1624 6.849 24.5302 7.49093 25.9132 8.08588C26.0804 8.16416 26.0652 8.16416 26.1717 8.19548Z" fill="white"/>
<path d="M21.7485 17.2763C21.8093 17.2449 22.1437 17.1197 22.2349 17.0257C22.7213 16.5717 23.5572 15.5697 23.8612 15.1626C24.7123 14.1136 24.4539 14.2075 25.4114 14.9591C26.2321 15.6166 27.9495 17.0571 28.1775 17.2606C28.1775 17.2606 28.1775 17.2606 28.1775 17.2763C26.0801 17.2763 23.8764 17.2763 21.7485 17.2763Z" fill="white"/>
<path d="M111.238 14.4112C112.924 13.5501 114.672 13.3466 116.497 13.785C117.226 14.1764 117.94 14.239 118.67 14.0041C119.171 13.8006 119.46 13.7067 119.521 13.7536L120.585 16.7597C120.767 17.3547 120.843 17.7148 120.798 17.8087C120.311 18.341 119.886 18.3724 119.521 17.887C118.305 16.1335 117.044 15.1941 115.721 15.0688C114.155 14.7244 112.803 15.3037 111.693 16.791C110.6 18.8577 110.159 21.1436 110.402 23.6173C110.57 25.0421 111.071 26.3416 111.891 27.5002C112.97 28.8154 114.323 29.2851 115.919 28.9406C117.454 28.4239 118.123 27.4219 117.925 25.9502C118.077 25.2769 117.834 24.682 117.196 24.1966C116.603 24.1184 116.36 23.8365 116.466 23.3668C116.466 23.0067 116.497 22.8032 116.557 22.7562C116.649 22.7093 116.938 22.6779 117.409 22.6779H121.072C121.77 22.5057 122.044 22.7406 121.922 23.4138C121.892 23.7582 121.649 24.0401 121.193 24.2593C120.585 24.6194 120.342 25.3709 120.479 26.5138V28.6275C120.479 29.1285 120.448 29.4103 120.403 29.4573C120.326 29.5199 120.053 29.5669 119.582 29.5825C118.488 29.6765 117.287 29.9426 115.995 30.381C114.977 30.6785 113.67 30.5532 112.074 30.0209C109.87 28.8153 108.517 27.1088 108.016 24.8699C107.621 23.5234 107.575 21.9577 107.879 20.1572C108.031 17.8087 109.156 15.8986 111.238 14.4112Z" fill="white"/>
<path d="M125.782 18.4662C127.47 17.9808 128.929 17.9808 130.191 18.4975C131.315 19.0141 131.923 19.8596 132.014 21.0495L132.09 28.1889C132.151 28.8152 132.44 29.0031 132.942 28.7526C133.094 28.6586 133.23 28.7526 133.337 29.05C133.625 29.692 133.215 30.193 132.136 30.5374C131.285 30.8975 130.57 30.5374 129.962 29.4728C129.841 29.2223 129.658 29.144 129.415 29.2223L127.652 30.2243C126.953 30.5374 126.269 30.647 125.57 30.5844C124.202 30.5218 123.32 29.7859 122.911 28.3768C122.606 26.999 123.199 25.7622 124.659 24.6662C125.95 23.8364 127.364 23.3197 128.898 23.0849C129.643 23.0066 129.932 22.6308 129.796 21.9732C129.78 21.347 129.643 20.7677 129.401 20.2667C128.807 19.5151 128.108 19.2333 127.318 19.4212C127.045 19.4055 126.786 19.5308 126.512 19.7813C126.209 20.1571 126.041 20.5328 125.996 20.8929C126.026 21.4566 125.814 21.9263 125.342 22.302C124.613 22.7561 124.005 22.6621 123.472 22.0046C123.047 21.1904 123.184 20.3919 123.899 19.5778C124.37 19.0924 124.992 18.7167 125.782 18.4662ZM128.731 24.3844L128.26 24.5096C127.151 24.7914 126.209 25.4647 125.479 26.5293C124.902 28.2359 125.449 29.0657 127.151 29.0344C127.713 28.9718 128.352 28.643 129.036 28.0637C129.643 27.547 129.886 26.999 129.765 26.4354C129.75 25.5116 129.78 24.8854 129.841 24.5409C129.962 24.1025 129.598 24.0556 128.731 24.3844Z" fill="white"/>
<path d="M139.218 19.1396C140.646 18.0436 142.12 17.8244 143.626 18.482C143.975 18.6229 144.355 18.9987 144.75 19.5936C144.887 19.7815 145.069 19.8598 145.266 19.7815C146.938 18.0906 148.671 17.6835 150.48 18.5446C151.65 19.5466 152.183 20.7209 152.091 22.036C152.045 23.8835 152.03 25.731 152.045 27.5785C152.075 28.2048 152.456 28.6432 153.17 28.8937C153.504 28.9093 153.611 29.1598 153.52 29.6295C153.52 29.9896 153.489 30.1775 153.428 30.1932C153.352 30.2401 153.079 30.2715 152.608 30.2715H149.021C148.55 30.2401 148.307 29.974 148.307 29.4886C148.246 29.1285 148.368 28.9406 148.687 28.925C149.446 28.6588 149.796 28.1735 149.751 27.4689L149.781 21.7542C149.689 20.7679 149.28 20.079 148.58 19.6875C147.668 19.4684 146.832 19.7971 146.058 20.6896C145.434 21.3628 145.191 22.1143 145.328 22.9285V27.5472C145.358 28.1735 145.707 28.6275 146.361 28.878C146.832 28.9093 146.954 29.3321 146.741 30.1619C146.696 30.2245 146.422 30.2558 145.92 30.2558H142.409C141.908 30.2558 141.635 30.0523 141.589 29.6295C141.589 29.1755 141.725 28.925 141.984 28.878C142.592 28.7214 142.956 28.2361 143.063 27.4376C143.002 25.778 143.002 24.1184 143.063 22.4588C143.139 21.7386 142.972 21.0653 142.561 20.4234C142.076 19.7658 141.619 19.484 141.194 19.5936C140.57 19.5936 139.947 19.9537 139.325 20.6583C138.792 21.2689 138.534 21.9264 138.565 22.5997C138.549 24.1654 138.549 25.7467 138.595 27.3123C138.503 28.0639 138.853 28.5805 139.628 28.8937C139.902 28.9563 140.023 29.1598 140.023 29.5043C140.023 29.9114 139.993 30.1305 139.932 30.1775C139.841 30.2245 139.552 30.2558 139.081 30.2558H135.692C135.191 30.2558 134.916 30.2245 134.872 30.1619C134.826 30.0679 134.795 29.8644 134.795 29.5826L134.826 29.0502C134.872 28.9876 135.129 28.878 135.6 28.7371C136.224 28.3144 136.452 27.7664 136.285 27.0775V21.9734C136.254 21.3002 135.905 20.8775 135.251 20.7365C134.597 20.8775 134.385 20.5174 134.613 19.6249C134.658 19.5623 134.916 19.4997 135.388 19.437C136.163 19.3744 136.953 19.1709 137.789 18.8577C138.26 18.6542 138.519 18.6542 138.565 18.8577C138.64 19.3431 138.838 19.437 139.218 19.1396Z" fill="white"/>
<path d="M158.125 18.3097C159.25 17.9809 160.298 18.0435 161.256 18.4976C162.608 19.2491 163.46 20.4233 163.809 22.0203C163.977 22.8188 164.037 23.4294 163.977 23.8365C163.901 23.9148 163.627 23.9617 163.156 23.9617C161.226 23.9461 159.28 23.9617 157.335 24.0087C156.97 24.1496 156.833 24.5097 156.94 25.0577C156.924 25.6057 157.062 26.2163 157.365 26.9052C157.988 28.0951 158.688 28.69 159.448 28.7214C160.405 28.9562 161.439 28.4708 162.533 27.2809C162.959 26.8739 163.308 26.733 163.566 26.8426C163.871 27.0148 163.871 27.3592 163.597 27.8446C162.123 30.1618 160.39 31.0229 158.414 30.4279C156.986 30.1305 155.891 29.2067 155.161 27.641C154.341 25.6996 154.325 23.6329 155.085 21.441C155.861 19.6562 156.879 18.6072 158.125 18.3097ZM160.542 20.0006C159.448 19.2804 158.475 19.5779 157.639 20.8774C157.319 21.5506 157.213 22.0829 157.289 22.4587C157.427 22.6466 157.73 22.7249 158.217 22.6779C159.22 22.6935 160.253 22.6779 161.302 22.6309C161.515 22.443 161.591 22.1456 161.484 21.7855C161.377 21.0652 161.074 20.486 160.542 20.0006Z" fill="white"/>
<path d="M69.5638 16.384H64.1987V17.0729H69.5638V16.384Z" fill="white"/>
<path d="M35.7773 14.4586C37.4644 13.5975 39.2122 13.3939 41.036 13.8323C41.7655 14.2237 42.4799 14.2864 43.2093 14.0515C43.7109 13.848 43.9997 13.754 44.0605 13.801L45.1244 16.8071C45.3067 17.402 45.3827 17.7621 45.3372 17.8561C44.8508 18.3884 44.4253 18.4197 44.0605 17.9344C42.8446 16.1808 41.5831 15.2414 40.2609 15.1162C38.6954 14.7717 37.3427 15.351 36.2333 16.8384C35.139 18.9051 34.6983 21.1909 34.9414 23.6647C35.1086 25.0895 35.6102 26.389 36.4308 27.5476C37.5099 28.8627 38.8626 29.3324 40.4584 28.988C41.9935 28.4713 42.6623 27.4693 42.4646 25.9975C42.6166 25.3243 42.3734 24.7294 41.7351 24.244C41.1424 24.1657 40.8992 23.8839 41.0056 23.4142C41.0056 23.0541 41.036 22.8506 41.0968 22.8036C41.188 22.7566 41.4768 22.7253 41.9479 22.7253H45.6107C46.3098 22.5531 46.5835 22.7879 46.4618 23.4612C46.4315 23.8056 46.1883 24.0874 45.7323 24.3066C45.1244 24.6667 44.8812 25.4182 45.018 26.5612V28.6748C45.018 29.1758 44.9876 29.4577 44.942 29.5046C44.866 29.5673 44.5924 29.6142 44.1213 29.6299C43.027 29.7238 41.8263 29.99 40.5344 30.4284C39.5161 30.7259 38.2091 30.6006 36.6132 30.0683C34.4094 28.8627 33.0568 27.1561 32.5552 24.9172C32.1601 23.5708 32.1145 22.0051 32.4184 20.2046C32.5704 17.8717 33.6952 15.946 35.7773 14.4586Z" fill="white"/>
<path d="M50.794 18.9047C51.2956 18.6855 51.5539 18.8107 51.5539 19.2961V26.4355C51.2956 27.3906 51.6147 28.1577 52.4962 28.737C53.8945 29.4103 55.1408 28.9719 56.2503 27.3749C56.4326 27.0931 56.5694 26.7643 56.6302 26.3572C56.6454 24.8072 56.6302 23.2102 56.5846 21.5976C56.4478 21.2375 56.2046 21.0183 55.8702 20.94C55.3535 20.8617 55.0496 20.7835 54.9736 20.7208C54.928 20.6582 54.8976 20.4703 54.8976 20.1885C54.8976 19.9067 54.9128 19.7501 54.9431 19.6718C55.004 19.5935 55.2775 19.5309 55.7487 19.4839C56.5694 19.4213 57.3597 19.2178 58.1349 18.9047C58.6516 18.7011 58.91 18.8107 58.91 19.2648V27.3749C58.834 28.3456 59.1684 28.8779 59.9283 28.9562C60.6426 28.8936 60.8554 29.3163 60.5667 30.2244C60.4907 30.287 60.217 30.3184 59.7459 30.3184H57.0405C56.7062 30.2714 56.5694 30.0992 56.6454 29.8017C56.7062 29.4886 56.615 29.3163 56.3871 29.285C56.3111 29.3007 56.1134 29.4259 55.8247 29.6451C54.3201 30.7411 52.7394 30.9133 51.1132 30.1305C50.0341 29.4886 49.4261 28.5805 49.2894 27.4062C49.2741 25.6996 49.2894 23.9931 49.3349 22.2865C49.4869 21.6289 49.1829 21.1592 48.4078 20.8774C47.9367 20.7991 47.6631 20.7365 47.6023 20.6895C47.5415 20.3451 47.5264 20.0163 47.5719 19.6718C47.6327 19.6092 47.9214 19.5466 48.4382 19.4996C49.031 19.4683 49.8213 19.2648 50.794 18.9047Z" fill="white"/>
<path d="M64.989 18.5133C66.676 18.0279 68.1351 18.0279 69.3966 18.5446C70.5365 19.0613 71.1292 19.9067 71.2204 21.0966L71.2964 28.2361C71.3571 28.8623 71.646 29.0502 72.1475 28.7997C72.2995 28.7058 72.4362 28.7997 72.5427 29.0972C72.8314 29.7391 72.421 30.2401 71.3419 30.5846C70.4908 30.9447 69.7765 30.5846 69.1686 29.5199C69.047 29.2694 68.8647 29.1911 68.6215 29.2694L66.8585 30.2714C66.1593 30.5846 65.4754 30.6942 64.7763 30.6315C63.4083 30.5689 62.5269 29.833 62.1165 28.4239C61.8125 27.0462 62.4052 25.8093 63.8643 24.7133C65.1562 23.8835 66.5696 23.3668 68.1047 23.132C68.8494 23.0537 69.1382 22.6779 69.0014 22.0204C68.9862 21.3941 68.8494 20.8148 68.6063 20.3138C68.0135 19.5623 67.3144 19.2804 66.5241 19.4683C66.2505 19.4527 65.9921 19.5779 65.7185 19.8284C65.4145 20.2042 65.2474 20.58 65.2018 20.9401C65.2322 21.5037 65.0194 21.9734 64.5483 22.3492C63.8187 22.8032 63.2108 22.7093 62.6789 22.0517C62.2533 21.2375 62.3901 20.439 63.1044 19.6249C63.5755 19.1395 64.1987 18.7794 64.989 18.5133ZM67.9376 24.4471L67.4664 24.5724C66.3569 24.8542 65.4145 25.5275 64.6851 26.5921C64.1075 28.2987 64.6546 29.1285 66.3569 29.0972C66.9192 29.0345 67.5576 28.7058 68.2415 28.1265C68.8494 27.6098 69.0926 27.0618 68.971 26.4982C68.9558 25.5744 68.9862 24.9482 69.047 24.6037C69.1686 24.1497 68.8038 24.1027 67.9376 24.4471Z" fill="white"/>
<path d="M80.3398 18.3253C81.5556 17.9496 82.8172 18.2001 84.1546 19.0769C85.1273 19.9849 85.568 21.0496 85.4768 22.2865C85.4313 23.7425 85.4161 25.1986 85.4313 26.6547C85.2641 27.7976 85.5833 28.5648 86.4192 28.9406C86.8296 28.9093 86.9815 29.1441 86.8903 29.6451C86.8903 30.0052 86.8599 30.2088 86.7991 30.2557C86.7079 30.3027 86.4192 30.334 85.948 30.334H82.574C82.0724 30.334 81.7988 30.3027 81.7532 30.2401C81.7076 30.1461 81.6772 29.9426 81.6772 29.6608L81.7076 29.1284C81.7532 29.0658 82.042 28.9406 82.5587 28.737C82.9387 28.4865 83.1362 28.189 83.1515 27.8133L83.1059 21.6446C82.6803 20.2198 81.9052 19.5779 80.7957 19.7031C79.1847 20.1102 78.1816 21.2531 77.7712 23.1476V27.9072C77.8624 28.33 78.1512 28.6587 78.6376 28.8779C79.1695 28.9249 79.367 29.2067 79.2303 29.7234C79.2303 30.0678 79.1847 30.2557 79.1087 30.287C77.7104 30.334 76.3122 30.3497 74.9139 30.334C74.4427 30.334 74.1692 30.3027 74.0932 30.2557C73.8348 29.4572 73.9716 29.0188 74.4732 28.9406C75.2483 28.6901 75.5826 28.1577 75.4915 27.3436C75.4763 25.5274 75.4763 23.6799 75.5218 21.8011C75.3546 21.2218 74.9595 20.9087 74.3667 20.8461C73.774 20.8461 73.5916 20.4546 73.8196 19.6875C73.8652 19.6248 74.154 19.5622 74.6707 19.5153C75.3698 19.4683 76.145 19.2647 77.0265 18.9046C77.528 18.6541 77.7864 18.7481 77.7864 19.1551C77.832 19.5309 77.8928 19.7501 77.9688 19.8127C78.06 19.844 78.2879 19.6875 78.6223 19.3274C79.2151 18.7794 79.7926 18.4506 80.3398 18.3253Z" fill="white"/>
<path d="M91.5099 18.5601C93.1059 17.9808 94.5341 18.0121 95.7963 18.6854C96.2363 18.9828 96.5562 19.1081 96.7386 19.0768C96.9962 19.0611 97.3005 18.8889 97.681 18.5601C98.3034 18.153 98.9423 18.0434 99.5647 18.247C100.356 18.6071 100.689 19.1551 100.599 19.9222C100.432 20.5015 100.036 20.7677 99.4134 20.7051C99.1091 20.6268 98.8506 20.3606 98.6379 19.9066C98.1365 19.5308 97.7561 19.5935 97.5132 20.0788C97.5132 20.1728 97.5737 20.3919 97.681 20.7051C98.2429 22.0985 98.1824 23.398 97.4985 24.5879C97.0118 25.3864 96.4343 25.8874 95.7505 26.1223C94.7467 26.5607 93.6532 26.7016 92.467 26.5607C92.148 26.4511 91.8748 26.5294 91.6466 26.8112C91.6163 26.9364 91.6768 27.0773 91.8134 27.2026C91.9958 27.3905 92.3762 27.5314 92.9382 27.594C94.1692 27.7975 95.7349 28.2046 97.6498 28.8152C99.4437 29.7077 99.8534 30.8663 98.8965 32.291C98.4409 32.886 97.8322 33.2774 97.0576 33.4339C94.4277 34.2168 91.7988 34.1855 89.1845 33.34C88.2422 32.9486 87.8015 32.244 87.8926 31.2264C88.0902 30.4905 88.5614 29.9112 89.2909 29.4572C90.0812 29.2066 90.218 28.8152 89.686 28.2672C89.1997 27.6723 89.3365 27.046 90.1116 26.3884C90.294 26.2319 90.3699 26.0283 90.294 25.8091C89.1389 24.7758 88.6829 23.5233 88.9261 22.0359C89.1693 20.4702 90.0204 19.3273 91.5099 18.5601ZM92.863 29.5668C91.9207 29.5668 91.0691 30.0208 90.3092 30.9289C90.142 31.4612 90.3396 31.8839 90.9171 32.1658C91.8748 32.4632 93.2581 32.5259 95.0511 32.3536C95.8412 32.291 96.4801 31.9935 96.966 31.4769C97.0879 31.195 97.042 30.9602 96.7991 30.741C95.9476 30.2556 94.6404 29.8642 92.863 29.5668ZM93.7292 19.6561C92.4221 19.6091 91.6163 20.3763 91.3275 21.9576C91.3123 22.3177 91.3275 22.6935 91.3731 23.1006C91.4187 23.8364 91.8134 24.4314 92.5587 24.9011C94.0941 25.4021 95.1116 24.8698 95.5827 23.3197C95.6588 22.7091 95.6588 22.0516 95.5525 21.3783C95.2491 20.2823 94.6404 19.7031 93.7292 19.6561Z" fill="white"/>
</svg>
