<svg width="120" height="28" viewBox="0 0 120 28" fill="none" xmlns="http://www.w3.org/2000/svg">
<path d="M19.8059 21.1517C19.8393 21.6247 19.9616 21.8554 20.462 22.2592C20.7178 22.5014 20.9514 22.663 21.0292 22.8245C21.1515 23.0783 21.0737 23.6089 20.7289 24.0473C20.4064 24.3819 20.2507 24.5319 19.5835 24.6703C18.6716 24.8203 17.8042 24.9241 16.8367 25.0049C15.5133 25.051 14.1899 25.051 12.8776 24.9818C11.3318 24.901 10.8647 24.3242 10.8537 22.7091C10.8425 20.0672 10.8537 17.4369 10.8537 14.7951C10.8537 14.5759 10.8425 14.3567 10.8202 14.149C10.7313 13.203 10.2865 12.6724 9.31896 12.6493C9.11875 12.6377 8.94081 12.6377 8.71839 12.6262C8.40704 12.6031 8.24023 12.4301 8.24023 12.1071C8.25137 9.18834 8.26244 6.26961 8.26244 3.35087C8.26244 3.13168 8.35144 3.02785 8.55159 3.01632C8.66279 3.00478 8.774 2.99324 8.87414 3.00478C9.67478 3.074 10.4755 3.13168 11.2762 3.2009C11.3318 3.2009 11.3874 3.22397 11.5098 3.24704C11.0649 3.55853 11.165 3.98538 11.165 4.38916C11.165 9.00375 11.165 9.28063 11.165 11.7148C11.165 12.0494 11.165 12.1417 11.165 12.3147C11.165 12.5224 11.254 12.7416 11.6321 12.7531C12.266 12.7646 12.8998 12.7531 13.5449 12.7646C13.6561 12.7646 14.012 12.7646 14.0564 12.7646C14.012 12.8108 13.9008 12.9031 13.834 13.0184C13.7228 13.2146 13.7005 13.503 13.7005 13.6876C13.6894 16.2141 13.7005 18.7405 13.7005 21.267C13.7005 21.9708 13.9452 22.2592 14.6236 22.2707C15.6245 22.2822 16.6253 22.2592 17.6373 22.2707C18.2267 22.2707 18.6382 21.9823 18.8828 21.4285C19.1164 20.8863 19.3277 20.321 19.5501 19.7788C19.5946 19.675 19.7058 19.4097 19.7392 19.3058C19.7503 19.2943 19.7614 20.5864 19.8059 21.1517Z" fill="white"/>
<path d="M0 25.1087C0.344746 24.7972 0.689494 24.4973 1.02312 24.1627C2.85806 22.3284 3.95902 20.0672 4.40385 17.4831C4.62627 16.2256 4.75972 14.9797 4.88205 13.7106C4.91542 13.3645 4.68188 13.0992 4.38161 12.9492C4.28153 12.9031 4.12583 12.8339 3.95902 12.7416C4.05911 12.73 4.28153 12.7416 4.38161 12.7416C5.38249 12.7416 6.39449 12.7416 7.39536 12.7416C8.007 12.7416 8.12934 12.8454 8.05147 13.4914C7.91806 14.599 7.78458 15.7065 7.53997 16.7793C7.12848 18.5906 6.37225 20.2403 5.19343 21.6593C3.92566 23.1821 2.32426 24.2088 0.544921 24.9703C0.378108 25.0395 0.200175 25.1087 0.0222413 25.1664C0.0111206 25.1548 0.0111206 25.1318 0 25.1087Z" fill="white"/>
<path d="M1.23438 4.78139C1.3011 4.76985 1.33446 4.75832 1.3567 4.76985C2.80241 5.26592 4.14804 5.9235 5.10443 7.20405C5.59375 7.86163 5.87177 8.59997 5.77168 9.44213C5.61599 10.838 4.35933 11.461 3.23613 10.6881C3.10268 10.5958 2.96923 10.4112 2.95811 10.2497C2.74681 8.34617 2.17965 6.58108 1.27886 4.91983C1.2455 4.89676 1.2455 4.85061 1.23438 4.78139Z" fill="white"/>
<path d="M19.1499 6.03884C18.8163 6.14267 18.7718 6.16574 18.7051 6.21189C18.6384 6.26957 18.3714 6.48876 18.2269 6.6272C16.67 8.31153 15.7358 9.17676 13.7451 10.5496C13.6673 10.6073 13.4671 10.7342 13.4894 10.7111C13.5005 10.6996 13.456 10.7111 13.4004 10.7227C13.4227 10.6304 13.456 10.5611 13.4783 10.4804C14.1233 8.62301 14.7461 6.76564 15.391 4.89673C15.5022 4.56217 15.6469 4.46988 15.9471 4.60831C16.948 5.0467 17.9489 5.5197 18.9608 5.95808C19.0832 6.01577 19.072 6.01577 19.1499 6.03884Z" fill="white"/>
<path d="M15.9136 12.7301C15.958 12.707 16.2027 12.6147 16.2695 12.5455C16.6253 12.2109 17.237 11.4726 17.4594 11.1726C18.0822 10.3997 17.8931 10.4689 18.5937 11.0227C19.1942 11.5072 20.4509 12.5685 20.6177 12.7185C20.6177 12.7185 20.6177 12.7185 20.6177 12.7301C19.083 12.7301 17.4705 12.7301 15.9136 12.7301Z" fill="white"/>
<path d="M81.3938 10.6188C82.6279 9.98432 83.907 9.83434 85.2417 10.1574C85.7756 10.4458 86.2981 10.4919 86.832 10.3189C87.1989 10.1689 87.4102 10.0997 87.4544 10.1343L88.2332 12.3493C88.3666 12.7877 88.4223 13.053 88.3888 13.1222C88.0326 13.5145 87.7214 13.5376 87.4544 13.1799C86.5651 11.8878 85.6421 11.1956 84.6743 11.1034C83.5287 10.8496 82.5394 11.2764 81.7271 12.3724C80.9269 13.8952 80.6043 15.5795 80.7821 17.4023C80.9048 18.4521 81.2717 19.4096 81.872 20.2633C82.6614 21.2324 83.6514 21.5785 84.8192 21.3247C85.942 20.944 86.4316 20.2056 86.2867 19.1212C86.3981 18.6251 86.2203 18.1868 85.7535 17.8291C85.3195 17.7714 85.1418 17.5638 85.2196 17.2177C85.2196 16.9524 85.2417 16.8024 85.286 16.7678C85.3531 16.7332 85.5643 16.7101 85.9091 16.7101H88.5893C89.1004 16.5832 89.301 16.7562 89.2117 17.2523C89.1896 17.5061 89.0119 17.7138 88.6778 17.8753C88.2332 18.1406 88.0554 18.6944 88.1554 19.5365V21.094C88.1554 21.4631 88.1332 21.6708 88.0997 21.7054C88.044 21.7515 87.8441 21.7861 87.4994 21.7977C86.6985 21.8669 85.8199 22.063 84.8748 22.386C84.1297 22.6052 83.1732 22.5129 82.0055 22.1207C80.393 21.2324 79.403 19.9749 79.0362 18.3252C78.7471 17.3331 78.7135 16.1794 78.9362 14.8527C79.0476 13.1222 79.8705 11.7148 81.3938 10.6188Z" fill="white"/>
<path d="M92.0361 13.6068C93.2709 13.2491 94.3387 13.2491 95.2616 13.6298C96.0846 14.0106 96.5293 14.6335 96.5957 15.5103L96.6513 20.7709C96.6963 21.2324 96.9075 21.3708 97.2744 21.1862C97.3858 21.117 97.4857 21.1862 97.5635 21.4054C97.7748 21.8784 97.4743 22.2476 96.6849 22.5014C96.0624 22.7667 95.5393 22.5014 95.0946 21.7169C95.0054 21.5323 94.8719 21.4747 94.6941 21.5323L93.4043 22.2707C92.8926 22.5014 92.3922 22.5822 91.8805 22.536C90.8797 22.4899 90.2345 21.9477 89.9347 20.9094C89.712 19.8942 90.146 18.9828 91.2138 18.1752C92.1588 17.5638 93.1931 17.1831 94.3159 17.01C94.8612 16.9524 95.0724 16.6755 94.9725 16.1909C94.9611 15.7295 94.8612 15.3026 94.6834 14.9335C94.2495 14.3797 93.7377 14.1721 93.1595 14.3105C92.9597 14.299 92.7705 14.3913 92.57 14.5758C92.348 14.8527 92.2252 15.1296 92.1923 15.3949C92.2145 15.8102 92.0589 16.1563 91.7141 16.4332C91.1802 16.7678 90.7355 16.6986 90.3458 16.214C90.0346 15.6141 90.1346 15.0258 90.6577 14.4259C91.0025 14.0682 91.4579 13.7914 92.0361 13.6068ZM94.1938 17.9676L93.849 18.0599C93.0375 18.2675 92.348 18.7636 91.8141 19.5481C91.3915 20.8055 91.7919 21.417 93.0375 21.3939C93.4486 21.3478 93.9161 21.1055 94.4165 20.6786C94.8612 20.2979 95.0389 19.8942 94.9504 19.4788C94.939 18.7982 94.9611 18.3367 95.0054 18.0829C95.0946 17.7599 94.8276 17.7253 94.1938 17.9676Z" fill="white"/>
<path d="M101.867 14.1029C102.912 13.2953 103.991 13.1338 105.092 13.6183C105.348 13.7222 105.626 13.999 105.915 14.4374C106.015 14.5759 106.148 14.6335 106.293 14.5759C107.516 13.3299 108.784 13.03 110.108 13.6645C110.964 14.4028 111.353 15.268 111.286 16.2371C111.253 17.5984 111.242 18.9597 111.253 20.321C111.275 20.7825 111.553 21.1055 112.076 21.2901C112.32 21.3016 112.398 21.4862 112.332 21.8323C112.332 22.0976 112.309 22.2361 112.265 22.2476C112.209 22.2822 112.009 22.3053 111.664 22.3053H109.04C108.695 22.2822 108.517 22.0861 108.517 21.7285C108.472 21.4631 108.562 21.3247 108.795 21.3132C109.351 21.117 109.607 20.7594 109.574 20.2403L109.596 16.0295C109.529 15.3027 109.229 14.7951 108.717 14.5066C108.05 14.3451 107.438 14.5874 106.871 15.245C106.415 15.741 106.238 16.2948 106.338 16.8947V20.298C106.36 20.7594 106.615 21.094 107.093 21.2786C107.438 21.3016 107.527 21.6131 107.372 22.2246C107.338 22.2707 107.138 22.2938 106.771 22.2938H104.202C103.835 22.2938 103.635 22.1438 103.602 21.8323C103.602 21.4978 103.702 21.3132 103.891 21.2786C104.335 21.1632 104.602 20.8056 104.68 20.2172C104.636 18.9943 104.636 17.7715 104.68 16.5486C104.736 16.0179 104.614 15.5219 104.313 15.0489C103.958 14.5643 103.624 14.3567 103.313 14.4374C102.857 14.4374 102.4 14.7028 101.945 15.2219C101.555 15.6718 101.366 16.1564 101.389 16.6524C101.378 17.8061 101.378 18.9713 101.411 20.1249C101.344 20.6787 101.6 21.0594 102.167 21.2901C102.368 21.3362 102.456 21.4862 102.456 21.74C102.456 22.04 102.434 22.2015 102.39 22.2361C102.323 22.2707 102.111 22.2938 101.767 22.2938H99.2869C98.92 22.2938 98.7195 22.2707 98.6866 22.2246C98.6531 22.1553 98.6309 22.0054 98.6309 21.7977L98.6531 21.4055C98.6866 21.3593 98.8751 21.2786 99.2198 21.1747C99.6759 20.8632 99.8429 20.4595 99.7209 19.9519V16.191C99.6981 15.6949 99.4425 15.3834 98.9643 15.2796C98.4861 15.3834 98.3304 15.1181 98.4975 14.4605C98.5303 14.4143 98.7195 14.3682 99.0642 14.3221C99.6317 14.2759 100.21 14.1259 100.822 13.8952C101.166 13.7452 101.355 13.7452 101.389 13.8952C101.444 14.2528 101.589 14.3221 101.867 14.1029Z" fill="white"/>
<path d="M115.701 13.4914C116.524 13.2492 117.291 13.2953 117.992 13.6299C118.982 14.1836 119.605 15.0489 119.86 16.2256C119.983 16.8139 120.027 17.2639 119.983 17.5638C119.927 17.6215 119.727 17.6561 119.382 17.6561C117.97 17.6446 116.546 17.6561 115.123 17.6907C114.856 17.7945 114.756 18.0599 114.834 18.4637C114.822 18.8674 114.923 19.3174 115.145 19.825C115.601 20.7017 116.113 21.1401 116.669 21.1632C117.369 21.3362 118.126 20.9786 118.927 20.1018C119.238 19.8019 119.493 19.6981 119.683 19.7788C119.905 19.9057 119.905 20.1595 119.705 20.5172C118.626 22.2246 117.358 22.8591 115.912 22.4207C114.867 22.2015 114.067 21.5208 113.533 20.3672C112.932 18.9367 112.921 17.4138 113.477 15.7987C114.044 14.4836 114.79 13.7106 115.701 13.4914ZM117.47 14.7374C116.669 14.2067 115.957 14.4259 115.346 15.3834C115.112 15.8795 115.034 16.2717 115.089 16.5486C115.19 16.687 115.412 16.7447 115.768 16.7101C116.502 16.7217 117.258 16.7101 118.026 16.6755C118.181 16.5371 118.237 16.3179 118.159 16.0525C118.081 15.5219 117.859 15.095 117.47 14.7374Z" fill="white"/>
<path d="M50.9002 12.0724H46.9746V12.5801H50.9002V12.0724Z" fill="white"/>
<path d="M26.1785 10.6539C27.4129 10.0194 28.6917 9.86938 30.0263 10.1924C30.56 10.4808 31.0827 10.527 31.6165 10.3539C31.9835 10.2039 32.1948 10.1347 32.2393 10.1693L33.0178 12.3843C33.1512 12.8227 33.2068 13.0881 33.1735 13.1573C32.8176 13.5495 32.5062 13.5726 32.2393 13.215C31.3496 11.9229 30.4266 11.2307 29.4591 11.1384C28.3137 10.8846 27.3239 11.3114 26.5121 12.4074C25.7114 13.9302 25.3889 15.6145 25.5668 17.4373C25.6891 18.4871 26.0561 19.4447 26.6566 20.2984C27.4462 21.2674 28.436 21.6135 29.6037 21.3597C30.7269 20.979 31.2162 20.2407 31.0716 19.1562C31.1828 18.6602 31.0049 18.2218 30.5378 17.8642C30.1041 17.8065 29.9261 17.5988 30.004 17.2527C30.004 16.9874 30.0263 16.8374 30.0708 16.8028C30.1375 16.7682 30.3488 16.7451 30.6935 16.7451H33.3736C33.8852 16.6182 34.0854 16.7913 33.9964 17.2873C33.9742 17.5411 33.7962 17.7488 33.4626 17.9103C33.0178 18.1756 32.8398 18.7294 32.9399 19.5716V21.129C32.9399 21.4982 32.9176 21.7058 32.8843 21.7404C32.8287 21.7866 32.6285 21.8212 32.2838 21.8327C31.4831 21.9019 30.6045 22.0981 29.6593 22.4211C28.9142 22.6403 27.9578 22.548 26.7901 22.1557C25.1775 21.2674 24.1878 20.0099 23.8208 18.3602C23.5317 17.3681 23.4983 16.2144 23.7207 14.8877C23.8319 13.1688 24.6549 11.7498 26.1785 10.6539Z" fill="white"/>
<path d="M37.1661 13.9299C37.5331 13.7684 37.7221 13.8606 37.7221 14.2183V19.4789C37.5331 20.1826 37.7666 20.7479 38.4116 21.1748C39.4347 21.6708 40.3466 21.3478 41.1585 20.1711C41.2919 19.9634 41.392 19.7212 41.4365 19.4212C41.4476 18.2791 41.4365 17.1024 41.4031 15.9141C41.303 15.6488 41.1251 15.4873 40.8804 15.4296C40.5023 15.3719 40.2799 15.3142 40.2243 15.2681C40.191 15.222 40.1687 15.0835 40.1687 14.8759C40.1687 14.6682 40.1798 14.5528 40.202 14.4952C40.2466 14.4375 40.4467 14.3913 40.7915 14.3567C41.392 14.3106 41.9703 14.1606 42.5374 13.9299C42.9155 13.7799 43.1046 13.8606 43.1046 14.1952V20.1711C43.049 20.8864 43.2937 21.2786 43.8497 21.3363C44.3724 21.2901 44.5281 21.6016 44.3168 22.2707C44.2612 22.3169 44.061 22.34 43.7162 22.34H41.7367C41.4921 22.3054 41.392 22.1785 41.4476 21.9593C41.4921 21.7285 41.4254 21.6016 41.2586 21.5786C41.203 21.5901 41.0583 21.6824 40.8471 21.8439C39.7461 22.6515 38.5895 22.7784 37.3996 22.2015C36.61 21.7285 36.1652 21.0594 36.0651 20.1942C36.054 18.9367 36.0651 17.6792 36.0985 16.4217C36.2097 15.9372 35.9873 15.5911 35.4201 15.3835C35.0753 15.3258 34.8752 15.2796 34.8307 15.245C34.7862 14.9912 34.7751 14.749 34.8085 14.4952C34.8529 14.449 35.0642 14.4029 35.4424 14.3683C35.876 14.3452 36.4543 14.1952 37.1661 13.9299Z" fill="white"/>
<path d="M47.553 13.6414C48.7874 13.2838 49.855 13.2838 50.7781 13.6645C51.6121 14.0452 52.0458 14.6681 52.1126 15.5449L52.1682 20.8055C52.2126 21.267 52.424 21.4054 52.7909 21.2209C52.9021 21.1516 53.0022 21.2209 53.0801 21.44C53.2914 21.913 52.9911 22.2822 52.2015 22.536C51.5787 22.8014 51.0561 22.536 50.6113 21.7515C50.5223 21.5669 50.3889 21.5093 50.2109 21.5669L48.9209 22.3053C48.4094 22.536 47.9089 22.6168 47.3974 22.5706C46.3964 22.5245 45.7515 21.9823 45.4512 20.944C45.2288 19.9288 45.6625 19.0174 46.7301 18.2098C47.6754 17.5984 48.7096 17.2177 49.8328 17.0446C50.3777 16.987 50.589 16.7101 50.4889 16.2256C50.4778 15.7641 50.3777 15.3372 50.1998 14.9681C49.7661 14.4143 49.2545 14.2067 48.6762 14.3451C48.4761 14.3336 48.287 14.4259 48.0868 14.6104C47.8644 14.8873 47.7421 15.1642 47.7087 15.4295C47.731 15.8449 47.5752 16.1909 47.2306 16.4678C46.6967 16.8024 46.2519 16.7332 45.8627 16.2486C45.5513 15.6487 45.6514 15.0604 46.174 14.4605C46.5188 14.1028 46.9747 13.8375 47.553 13.6414ZM49.7105 18.0137L49.3657 18.106C48.5539 18.3137 47.8644 18.8097 47.3306 19.5942C46.908 20.8517 47.3084 21.4631 48.5539 21.44C48.9654 21.3939 49.4325 21.1516 49.9329 20.7248C50.3777 20.3441 50.5557 19.9403 50.4667 19.525C50.4555 18.8443 50.4778 18.3829 50.5223 18.1291C50.6113 17.7945 50.3443 17.7599 49.7105 18.0137Z" fill="white"/>
<path d="M58.7852 13.503C59.6748 13.2261 60.5979 13.4107 61.5765 14.0568C62.2883 14.7259 62.6108 15.5104 62.544 16.4217C62.5107 17.4946 62.4995 18.5675 62.5107 19.6404C62.3883 20.4826 62.6219 21.0479 63.2335 21.3248C63.5338 21.3017 63.645 21.4747 63.5783 21.8439C63.5783 22.1092 63.556 22.2592 63.5115 22.2938C63.4448 22.3284 63.2335 22.3515 62.8888 22.3515H60.42C60.0529 22.3515 59.8528 22.3284 59.8194 22.2823C59.7861 22.2131 59.7638 22.0631 59.7638 21.8554L59.7861 21.4632C59.8194 21.417 60.0307 21.3248 60.4088 21.1748C60.6868 20.9902 60.8314 20.771 60.8425 20.4941L60.8092 15.9487C60.4978 14.8989 59.9306 14.4259 59.1188 14.5182C57.94 14.8182 57.206 15.6603 56.9058 17.0563V20.5633C56.9725 20.8748 57.1838 21.1171 57.5397 21.2786C57.9289 21.3132 58.0734 21.5209 57.9734 21.9016C57.9734 22.1554 57.94 22.2938 57.8844 22.3169C56.8613 22.3515 55.8382 22.363 54.815 22.3515C54.4703 22.3515 54.2701 22.3284 54.2145 22.2938C54.0255 21.7055 54.1255 21.3824 54.4925 21.3248C55.0597 21.1402 55.3043 20.7479 55.2377 20.148C55.2265 18.8098 55.2265 17.4485 55.2599 16.0641C55.1375 15.6373 54.8484 15.4065 54.4147 15.3604C53.981 15.3604 53.8475 15.072 54.0143 14.5067C54.0477 14.4605 54.259 14.4144 54.6371 14.3798C55.1487 14.3452 55.7158 14.1952 56.3609 13.9299C56.7278 13.7453 56.9169 13.8145 56.9169 14.1144C56.9502 14.3913 56.9947 14.5528 57.0503 14.599C57.117 14.6221 57.2838 14.5067 57.5285 14.2413C57.9622 13.8376 58.3848 13.5953 58.7852 13.503Z" fill="white"/>
<path d="M66.9586 13.676C68.1264 13.2492 69.1714 13.2722 70.095 13.7683C70.417 13.9875 70.651 14.0798 70.7845 14.0567C70.973 14.0452 71.1957 13.9183 71.474 13.676C71.9294 13.3761 72.3969 13.2953 72.8524 13.4453C73.4312 13.7106 73.6753 14.1144 73.6089 14.6797C73.4869 15.1065 73.1971 15.3027 72.7417 15.2565C72.519 15.1988 72.3299 15.0027 72.1743 14.6681C71.8074 14.3913 71.529 14.4374 71.3513 14.795C71.3513 14.8643 71.3955 15.0258 71.474 15.2565C71.8852 16.2833 71.8409 17.2408 71.3405 18.1176C70.9844 18.7059 70.5618 19.0751 70.0615 19.2481C69.327 19.5712 68.5269 19.675 67.6589 19.5712C67.4255 19.4904 67.2256 19.5481 67.0586 19.7557C67.0365 19.848 67.0808 19.9519 67.1807 20.0441C67.3142 20.1826 67.5925 20.2864 68.0037 20.3326C68.9045 20.4825 70.0501 20.7825 71.4512 21.2324C72.7638 21.89 73.0636 22.7437 72.3634 23.7935C72.0301 24.2319 71.5847 24.5203 71.0179 24.6357C69.0936 25.2125 67.17 25.1894 65.2571 24.5665C64.5676 24.278 64.2451 23.7589 64.3118 23.009C64.4564 22.4668 64.8012 22.04 65.3349 21.7054C65.9132 21.5208 66.0133 21.2324 65.6241 20.8286C65.2683 20.3902 65.3683 19.9288 65.9355 19.4443C66.0689 19.3289 66.1245 19.1789 66.0689 19.0174C65.2237 18.256 64.8901 17.3331 65.068 16.2371C65.246 15.0835 65.8688 14.2413 66.9586 13.676ZM67.9487 21.7862C67.2592 21.7862 66.6361 22.1207 66.08 22.7898C65.9577 23.1821 66.1023 23.4936 66.5249 23.7012C67.2256 23.9204 68.2378 23.9666 69.5497 23.8397C70.1279 23.7935 70.5954 23.5743 70.9509 23.1936C71.0401 22.986 71.0065 22.8129 70.8288 22.6514C70.2057 22.2938 69.2492 22.0054 67.9487 21.7862ZM68.5825 14.4836C67.6261 14.449 67.0365 15.0142 66.8251 16.1794C66.814 16.4448 66.8251 16.7216 66.8586 17.0216C66.8919 17.5638 67.1807 18.0022 67.726 18.3483C68.8495 18.7175 69.594 18.3252 69.9387 17.1831C69.9944 16.7332 69.9944 16.2486 69.9166 15.7526C69.6946 14.945 69.2492 14.5182 68.5825 14.4836Z" fill="white"/>
</svg>
