<svg width="36" height="32" viewBox="0 0 36 32" fill="none" xmlns="http://www.w3.org/2000/svg">
<path d="M20 28C26.6274 28 32 22.6274 32 16C32 9.37258 26.6274 4 20 4C13.3726 4 8 9.37258 8 16C8 22.6274 13.3726 28 20 28Z" fill="url(#paint0_linear)"/>
<path d="M12.7998 18H11.7998V13.9H10.7998V13.2L12.7998 13V18Z" fill="black"/>
<path d="M17.7999 16.2C17.7999 16.8 17.5999 17.2 17.2999 17.6C16.9999 18 16.5999 18.1 16.0999 18.1C15.5999 18.1 15.1999 17.9 14.8999 17.6C14.5999 17.3 14.3999 16.8 14.3999 16.2V14.8C14.3999 14.2 14.5999 13.8 14.8999 13.4C15.1999 13 15.5999 13 16.0999 13C16.5999 13 16.9999 13.2 17.2999 13.5C17.5999 13.8 17.7999 14.3 17.7999 14.9V16.2ZM16.7999 14.8C16.7999 14.5 16.6999 14.2 16.5999 14.1C16.4999 13.9 16.2999 13.8 16.0999 13.8C15.8999 13.8 15.6999 13.9 15.5999 14.1C15.4999 14.3 15.3999 14.5 15.3999 14.8V16.4C15.3999 16.7 15.4999 17 15.5999 17.2C15.6999 17.4 15.8999 17.5 16.0999 17.5C16.2999 17.5 16.4999 17.4 16.5999 17.2C16.6999 17 16.7999 16.8 16.7999 16.4V14.8Z" fill="black"/>
<path d="M21.7999 16.2C21.7999 16.8 21.5999 17.2 21.2999 17.6C20.9999 17.9 20.5999 18.1 20.0999 18.1C19.5999 18.1 19.1999 17.9 18.8999 17.6C18.5999 17.3 18.3999 16.8 18.3999 16.2V14.8C18.3999 14.2 18.5999 13.8 18.8999 13.4C19.1999 13 19.5999 13 20.0999 13C20.5999 13 20.9999 13.2 21.2999 13.5C21.5999 13.8 21.7999 14.3 21.7999 14.9V16.2ZM20.7999 14.8C20.7999 14.5 20.6999 14.2 20.5999 14.1C20.4999 13.9 20.2999 13.8 20.0999 13.8C19.8999 13.8 19.6999 13.9 19.5999 14.1C19.4999 14.3 19.3999 14.5 19.3999 14.8V16.4C19.3999 16.7 19.4999 17 19.5999 17.2C19.6999 17.4 19.8999 17.5 20.0999 17.5C20.2999 17.5 20.4999 17.4 20.5999 17.2C20.6999 17 20.7999 16.8 20.7999 16.4V14.8Z" fill="black"/>
<path d="M25.7999 16.2C25.7999 16.8 25.5999 17.2 25.2999 17.6C24.9999 17.9 24.5999 18.1 24.0999 18.1C23.5999 18.1 23.1999 17.9 22.8999 17.6C22.5999 17.3 22.3999 16.8 22.3999 16.2V14.8C22.3999 14.2 22.5999 13.8 22.8999 13.4C23.1999 13 23.5999 13 24.0999 13C24.5999 13 24.9999 13.2 25.2999 13.5C25.5999 13.8 25.7999 14.3 25.7999 14.9V16.2ZM24.7999 14.8C24.7999 14.5 24.6999 14.2 24.5999 14.1C24.4999 13.9 24.2999 13.8 24.0999 13.8C23.8999 13.8 23.6999 13.9 23.5999 14.1C23.4999 14.3 23.3999 14.5 23.3999 14.8V16.4C23.3999 16.7 23.4999 17 23.5999 17.2C23.6999 17.4 23.8999 17.5 24.0999 17.5C24.2999 17.5 24.4999 17.4 24.5999 17.2C24.6999 17 24.7999 16.8 24.7999 16.4V14.8Z" fill="black"/>
<path d="M28.4999 15.3H29.6999V16.2H28.4999V17.6H27.5999V16.2H26.3999V15.3H27.5999V13.9H28.4999V15.3Z" fill="black"/>
<defs>
<linearGradient id="paint0_linear" x1="20" y1="28" x2="20" y2="4" gradientUnits="userSpaceOnUse">
<stop stop-color="#BA6541"/>
<stop offset="1" stop-color="#FFD8A1"/>
</linearGradient>
</defs>
</svg>
