<svg width="36" height="32" viewBox="0 0 36 32" fill="none" xmlns="http://www.w3.org/2000/svg">
<circle cx="18" cy="16" r="12" fill="url(#paint0_linear)"/>
<circle cx="18" cy="16" r="10" fill="url(#paint1_linear)"/>
<path d="M16.8574 14.9844H17.7598C18.1895 14.9844 18.5078 14.877 18.7148 14.6621C18.9219 14.4473 19.0254 14.1621 19.0254 13.8066C19.0254 13.4629 18.9219 13.1953 18.7148 13.0039C18.5117 12.8125 18.2305 12.7168 17.8711 12.7168C17.5469 12.7168 17.2754 12.8066 17.0566 12.9863C16.8379 13.1621 16.7285 13.3926 16.7285 13.6777H15.0352C15.0352 13.2324 15.1543 12.834 15.3926 12.4824C15.6348 12.127 15.9707 11.8496 16.4004 11.6504C16.834 11.4512 17.3105 11.3516 17.8301 11.3516C18.7324 11.3516 19.4395 11.5684 19.9512 12.002C20.4629 12.4316 20.7188 13.0254 20.7188 13.7832C20.7188 14.1738 20.5996 14.5332 20.3613 14.8613C20.123 15.1895 19.8105 15.4414 19.4238 15.6172C19.9043 15.7891 20.2617 16.0469 20.4961 16.3906C20.7344 16.7344 20.8535 17.1406 20.8535 17.6094C20.8535 18.3672 20.5762 18.9746 20.0215 19.4316C19.4707 19.8887 18.7402 20.1172 17.8301 20.1172C16.9785 20.1172 16.2812 19.8926 15.7383 19.4434C15.1992 18.9941 14.9297 18.4004 14.9297 17.6621H16.623C16.623 17.9824 16.7422 18.2441 16.9805 18.4473C17.2227 18.6504 17.5195 18.752 17.8711 18.752C18.2734 18.752 18.5879 18.6465 18.8145 18.4355C19.0449 18.2207 19.1602 17.9375 19.1602 17.5859C19.1602 16.7344 18.6914 16.3086 17.7539 16.3086H16.8574V14.9844Z" fill="#714819"/>
<defs>
<linearGradient id="paint0_linear" x1="18" y1="4" x2="18" y2="28" gradientUnits="userSpaceOnUse">
<stop stop-color="#CC8533"/>
<stop offset="1" stop-color="#FFEADB"/>
</linearGradient>
<linearGradient id="paint1_linear" x1="18" y1="26" x2="18" y2="6" gradientUnits="userSpaceOnUse">
<stop offset="0.229327" stop-color="#CB8533"/>
<stop offset="1" stop-color="#F5D9B7"/>
</linearGradient>
</defs>
</svg>
