<svg width="36" height="32" viewBox="0 0 36 32" fill="none" xmlns="http://www.w3.org/2000/svg">
<circle cx="18" cy="16" r="12" fill="#FFD8A1"/>
<path d="M19.7285 11.3809V12.7754H19.5645C18.7988 12.7871 18.1816 12.9863 17.7129 13.373C17.248 13.7598 16.9688 14.2969 16.875 14.9844C17.3281 14.5234 17.9004 14.293 18.5918 14.293C19.334 14.293 19.9238 14.5586 20.3613 15.0898C20.7988 15.6211 21.0176 16.3203 21.0176 17.1875C21.0176 17.7422 20.8965 18.2441 20.6543 18.6934C20.416 19.1426 20.0762 19.4922 19.6348 19.7422C19.1973 19.9922 18.7012 20.1172 18.1465 20.1172C17.248 20.1172 16.5215 19.8047 15.9668 19.1797C15.416 18.5547 15.1406 17.7207 15.1406 16.6777V16.0684C15.1406 15.1426 15.3145 14.3262 15.6621 13.6191C16.0137 12.9082 16.5156 12.3594 17.168 11.9727C17.8242 11.582 18.584 11.3848 19.4473 11.3809H19.7285ZM18.0762 15.6523C17.8027 15.6523 17.5547 15.7246 17.332 15.8691C17.1094 16.0098 16.9453 16.1973 16.8398 16.4316V16.9473C16.8398 17.5137 16.9512 17.957 17.1738 18.2773C17.3965 18.5938 17.709 18.752 18.1113 18.752C18.4746 18.752 18.7676 18.6094 18.9902 18.3242C19.2168 18.0352 19.3301 17.6621 19.3301 17.2051C19.3301 16.7402 19.2168 16.3652 18.9902 16.0801C18.7637 15.7949 18.459 15.6523 18.0762 15.6523Z" fill="black"/>
</svg>
