<svg width="103" height="97" viewBox="0 0 103 97" fill="none" xmlns="http://www.w3.org/2000/svg">
<circle cx="35" cy="44" r="29.5" fill="url(#paint0_linear)" stroke="#046549"/>
<path d="M51 34.6286L29.0571 57L19 46.7465L21.5783 44.1178L29.0571 51.7241L48.4217 32L51 34.6286Z" fill="#198163"/>
<g filter="url(#filter0_d)">
<path d="M87.0776 32.6158C87.1317 32.8845 87.1678 33.1531 87.2401 33.4039C88.0706 35.8577 88.5582 38.3474 88.4859 40.9445C88.4679 41.8938 88.2693 42.8789 89.2985 43.5595C89.5512 43.7207 89.5874 44.2401 89.7138 44.5984C89.786 44.7954 89.7679 45.0282 89.8763 45.1715C91.4652 47.1238 91.9527 49.4523 92.1694 51.8524C92.3499 53.9122 92.8194 56.0078 91.9166 58.0317C91.8444 58.2108 91.8985 58.4437 91.8985 58.6586C91.9347 61.6139 91.9888 64.5693 91.9888 67.5246C91.9888 72.3427 89.9485 75.9249 85.7053 78.4325C81.9677 80.6535 77.6523 81.0655 73.7522 82.7312C73.7341 82.7491 73.698 82.7491 73.6619 82.7491C71.6577 83.0894 70.2493 82.5521 69.4729 81.0834C69.1298 80.4565 68.9312 79.7579 68.6423 79.1131C68.5159 78.8266 68.3714 78.4146 68.1367 78.325C66.8367 77.8414 66.3492 76.6951 65.7894 75.6205C64.9588 74.0443 63.8755 73.5786 62.1421 74.098C61.3296 74.3488 60.517 74.5458 59.7226 74.7966C59.4156 74.8861 59.0906 75.0294 58.8739 75.2622C58.0614 76.122 57.1044 76.5698 55.9127 76.3906C54.2155 76.1399 52.5001 75.907 51.4529 74.2592C51.2543 73.9368 50.9654 73.6681 50.7126 73.3995C49.1056 71.6084 47.8236 69.6381 47.6792 67.1843C47.5528 65.0708 49.0153 63.7633 50.9112 64.1573C51.5432 64.2827 52.139 64.6051 52.6807 64.82C53.7099 64.0678 54.6669 63.2259 55.7502 62.5991C56.8517 61.9543 58.0795 61.5244 59.2351 60.9333C59.4879 60.8079 59.6865 60.4855 59.8129 60.2169C60.4809 58.7303 61.0768 57.1899 61.8171 55.7212C62.2685 54.8435 62.9546 54.0734 63.4963 53.3032C61.1129 51.333 58.6212 49.5956 56.7253 47.2134C56.6169 47.0701 56.4905 46.9268 56.328 46.8552C54.8835 46.085 54.0891 44.8312 53.5654 43.3446C52.8251 41.3027 54.1252 38.8489 56.2558 38.3474C56.8336 38.222 57.0322 37.9354 57.1767 37.4339C57.8809 35.0338 58.6031 32.6337 59.3434 30.2336C59.6142 29.356 59.3976 28.5679 58.9642 27.8156C57.6822 25.6125 56.0572 23.8035 53.6016 22.8005C53.0599 22.5856 52.5724 22.1915 52.0848 21.8333C50.0806 20.4362 48.257 18.86 46.9569 16.7644C46.5236 16.0838 46.5958 15.5107 47.0291 14.8838C48.5097 12.6807 50.6223 11.1583 52.9335 10.0299C57.0322 8.0238 61.4379 7.28944 66.0061 8.04171C66.5117 8.13127 66.7825 7.98798 67.0172 7.55811C67.252 7.14616 67.5589 6.77002 67.8298 6.37598C67.9381 6.4118 68.0464 6.44762 68.1548 6.48344C68.1909 6.93122 68.1548 7.39691 68.2631 7.82678C68.3353 8.11336 68.534 8.5074 68.7687 8.57905C72.9758 10.1194 76.4606 12.6091 79.0787 16.245C80.7579 18.5914 82.1121 21.081 82.2385 24.0901C82.2566 24.6095 82.2205 25.0215 81.6607 25.2543C80.8121 25.6125 79.9635 25.9887 79.1329 26.3648C78.8981 26.4723 78.6634 26.5618 78.4467 26.6693C78.4648 26.7409 78.4829 26.7947 78.5009 26.8663C79.4037 27.0992 80.2885 27.332 81.1732 27.547C81.8052 26.0961 82.8163 25.3618 84.2969 25.2722C84.8025 25.2364 85.3261 25.2543 85.8317 25.2722C87.9804 25.326 88.9373 26.4723 89.479 28.2813C90.0929 30.3411 89.479 31.362 87.4929 32.3471C87.3484 32.4188 87.222 32.5083 87.0776 32.6158Z" fill="white"/>
<path d="M87.0773 32.616C87.2398 32.5085 87.3481 32.4189 87.4926 32.3652C89.4788 31.3801 90.0927 30.3412 89.4788 28.2994C88.9371 26.4724 87.9982 25.344 85.8314 25.2903C85.3259 25.2724 84.8022 25.2724 84.2967 25.2903C82.8341 25.3799 81.8049 26.1321 81.1729 27.565C80.2882 27.3322 79.4035 27.0993 78.5006 26.8844C78.4826 26.8127 78.4645 26.759 78.4465 26.6874C78.6812 26.5799 78.9159 26.4903 79.1326 26.3829C79.9812 26.0067 80.8118 25.6306 81.6605 25.2724C82.2021 25.0395 82.2563 24.6276 82.2383 24.1082C82.1119 21.117 80.7396 18.6094 79.0604 16.2631C76.4603 12.6271 72.9755 10.1375 68.7504 8.59711C68.5156 8.50756 68.317 8.11351 68.2448 7.84485C68.1364 7.41498 68.1726 6.94929 68.1365 6.50151C68.0281 6.46569 67.9198 6.42987 67.8114 6.39404C67.5406 6.78809 67.2336 7.16422 66.9989 7.57618C66.7642 8.00605 66.4933 8.13142 65.9878 8.05978C61.4196 7.30751 57.0139 8.04187 52.9152 10.0479C50.604 11.1763 48.4914 12.6988 47.0108 14.9018C46.5775 15.5466 46.5052 16.1019 46.9386 16.7825C48.2386 18.896 50.0804 20.4543 52.0665 21.8514C52.554 22.1917 53.0416 22.5857 53.5832 22.8186C56.0208 23.8037 57.6639 25.6306 58.9459 27.8337C59.3792 28.586 59.5959 29.374 59.3251 30.2517C58.5848 32.6518 57.8625 35.0519 57.1583 37.452C57.0139 37.9535 56.7972 38.2221 56.2375 38.3654C54.1069 38.849 52.8068 41.3029 53.5471 43.3626C54.0708 44.8314 54.8652 46.103 56.3097 46.8732C56.4542 46.9628 56.5986 47.0882 56.7069 47.2314C58.6028 49.6136 61.0946 51.3689 63.478 53.3212C62.9363 54.0914 62.2502 54.8616 61.7988 55.7392C61.0585 57.19 60.4807 58.7304 59.7945 60.2349C59.6681 60.5036 59.4695 60.826 59.2167 60.9514C58.0611 61.5245 56.8333 61.9544 55.7319 62.6171C54.6486 63.244 53.6916 64.0858 52.6624 64.8381C52.1207 64.6232 51.5248 64.3008 50.8929 64.1754C48.997 63.7813 47.5344 65.1068 47.6608 67.2024C47.8053 69.6562 49.0873 71.6264 50.6943 73.4175C50.947 73.7041 51.2359 73.9728 51.4346 74.2773C52.4638 75.9251 54.1971 76.1579 55.8944 76.4087C57.0861 76.5878 58.0431 76.14 58.8556 75.2803C59.0723 75.0654 59.3973 74.9221 59.7043 74.8146C60.4987 74.5639 61.3293 74.3489 62.1238 74.1161C63.8572 73.5966 64.9405 74.0623 65.7711 75.6385C66.3308 76.7132 66.8184 77.8595 68.1184 78.3431C68.3531 78.4327 68.4976 78.8446 68.624 79.1312C68.9129 79.776 69.1295 80.4745 69.4545 81.1014C70.231 82.5701 71.6393 83.0896 73.6436 82.7672C73.6797 82.7672 73.6977 82.7672 73.7338 82.7492C77.634 81.0835 81.9494 80.6716 85.687 78.4506C89.9121 75.943 91.9705 72.3429 91.9705 67.5427C91.9705 64.5873 91.8983 61.632 91.8802 58.6767C91.8802 58.4617 91.826 58.2289 91.8983 58.0498C92.8011 56.0258 92.3497 53.9302 92.1511 51.8704C91.9344 49.4703 91.4288 47.1419 89.8579 45.1896C89.7496 45.0463 89.7676 44.7955 89.6954 44.6164C89.569 44.2582 89.5329 43.7388 89.2801 43.5776C88.2509 42.897 88.4496 41.9118 88.4676 40.9626C88.5218 38.3654 88.0523 35.8579 87.2217 33.422C87.1495 33.1354 87.1315 32.8667 87.0773 32.616ZM59.8668 67.5964C59.7584 67.5248 59.632 67.471 59.5237 67.3994C59.3431 65.6083 59.0723 63.8172 59.7765 62.044C60.3182 60.6827 60.896 59.3394 61.4376 57.9781C62.2682 55.9184 63.5141 54.1452 64.9766 52.5152C65.1933 52.2645 65.6628 52.1928 66.0239 52.0854C66.6739 51.9063 67.36 51.7988 68.0101 51.5839C68.7684 51.3152 69.4907 50.957 70.3393 50.5987C70.5379 51.8346 71.4588 51.6734 72.1268 52.0316C73.2102 52.6227 73.5713 51.5839 74.5464 51.4047C74.4019 52.0137 74.438 52.6048 74.1491 52.963C72.6866 54.8795 71.7477 57.0288 71.0254 59.2856C70.249 61.7395 71.4949 63.3336 74.0408 63.1724C74.1852 63.1545 74.3477 63.1545 74.4922 63.1186C77.7242 62.4559 80.6132 61.0588 83.2855 59.1961C83.6647 58.9274 84.6036 58.82 84.7481 59.017C85.2717 59.7692 85.8495 59.5006 86.4273 59.3215C87.0773 59.1245 87.6009 58.5334 88.3954 59.0707C88.5579 59.1782 89.1718 58.7125 89.5149 58.4259C89.6774 58.2826 89.6954 57.9423 89.8579 57.4229C90.2913 58.014 90.5982 58.4259 90.9052 58.8558C91.0857 58.82 91.2844 58.802 91.6094 58.7483C91.501 60.2708 91.4469 61.7037 91.2844 63.1186C91.2302 63.6022 90.9052 64.05 90.7788 64.3187C89.9663 64.1933 89.4246 64.1217 88.8107 64.0321C88.7565 63.7993 88.6843 63.5306 88.6301 63.2977C88.1065 63.3694 87.4565 63.6739 87.1676 63.4769C85.8495 62.5455 84.4411 62.9933 83.0508 63.0112C82.3285 63.0112 81.5882 63.1365 80.866 63.1903C82.0938 63.3515 83.2855 63.2619 84.4772 63.3694C85.6509 63.4769 86.8065 63.8172 87.962 64.05C88.3051 64.3008 88.7023 64.4441 89.0996 64.6232C89.3704 64.7485 89.6413 64.8918 89.894 65.0709C90.1107 65.2321 90.2913 65.4292 90.526 65.6441C90.7968 65.1963 90.9955 64.856 91.1941 64.5336C91.3024 64.5515 91.3927 64.5694 91.501 64.5873C91.501 65.7337 91.5371 66.8979 91.501 68.0442C91.3746 70.1398 90.833 72.0742 89.7135 73.8832C88.2329 76.2654 86.1384 77.8774 83.5202 78.8088C80.6313 79.8297 77.7423 80.7611 74.8533 81.7462C71.7116 82.8209 70.574 82.3373 69.3101 79.2924C69.0031 78.5401 68.6962 77.8237 67.7934 77.5371C67.5406 77.4655 67.2878 77.1789 67.1614 76.9281C66.6378 75.7639 66.1142 74.5997 65.6808 73.4175C65.4822 72.8981 65.5183 72.2891 65.3558 71.7518C64.9766 70.4622 65.7711 69.3338 67.1253 69.3517C67.6309 69.3517 68.1364 69.495 68.6059 69.6562C69.1115 69.8353 69.5268 69.7995 69.924 69.4234C70.249 69.1189 70.6282 68.8681 70.9713 68.5815C73.4088 66.4501 76.0992 64.7306 79.2409 63.7993C79.3673 63.7634 79.4757 63.6201 79.584 63.5306C75.4131 64.0858 72.2171 66.271 69.5809 69.2442C68.8226 69.0472 68.1545 68.7786 67.4503 68.689C65.6447 68.4562 64.2002 70.0682 64.76 71.6264C64.9766 72.2354 64.9766 72.9339 65.103 73.8116C63.7308 73.2026 62.4307 72.9339 62.0335 71.4294C61.9793 71.2145 61.6543 71.0891 61.4918 70.8921C61.2932 70.6592 61.0043 70.4264 60.9321 70.1398C60.8418 69.7816 60.9501 69.4054 60.9501 69.0293C60.8779 68.9756 60.8237 68.9218 60.7515 68.8681C60.6612 69.1189 60.5709 69.3696 60.4807 69.6383C60.3543 69.5846 60.2279 69.5129 60.1015 69.4592C60.1557 68.6353 60.1918 67.7934 60.264 66.7546C60.1015 67.1128 59.9751 67.3636 59.8668 67.5964ZM89.0996 44.2582C87.2217 43.6134 87.0592 43.6492 86.7342 44.6164C86.3009 44.5448 85.8675 44.4552 85.4161 44.4373C85.1272 44.4194 84.8383 44.4731 84.5494 44.5627C84.1703 44.6702 83.7911 44.8134 83.448 44.9926C83.1591 45.1538 82.7619 45.3329 82.6535 45.6015C82.4188 46.1926 82.1841 46.4971 81.4618 46.2463C81.0104 46.1031 80.3604 45.9777 79.9812 46.1747C79.2048 46.5867 78.2298 46.6762 77.7423 47.5897C77.5798 47.8763 77.1103 48.0016 76.677 48.2703C76.5867 47.3389 76.1172 47.4643 75.5394 47.715C75.1603 47.8763 74.7269 47.93 74.3116 48.0195C73.3547 48.2345 72.2713 48.0375 71.531 48.8972C71.5129 48.933 71.4227 48.8972 71.3143 48.8972C70.6462 47.7867 69.4545 48.1449 68.5156 47.8583C68.2628 47.4822 67.9739 47.0882 67.6128 46.9807C67.1434 46.8374 66.6017 46.909 65.9878 46.8732C66.2947 46.2463 66.6559 45.7986 65.8433 45.4224C65.5183 45.2791 65.3739 44.6702 65.2114 44.2582C65.085 43.9537 65.1391 43.5418 64.9405 43.3089C63.3877 41.2312 62.9724 39.0461 63.6585 36.5027C64.3266 33.9593 65.1391 31.5234 66.6739 29.392C67.5948 28.1203 68.6601 27.0277 70.5199 27.2784C71.5491 27.4217 72.6144 27.3501 73.6616 27.2784C75.3589 27.171 77.02 26.4724 78.7715 27.3143C79.8549 27.8337 81.1729 27.8516 82.0216 28.8725C82.4188 29.3561 82.8341 29.8218 83.5744 29.8039C83.7008 29.8039 83.8633 29.983 83.9716 30.1084C84.2425 30.4308 84.4953 30.7532 84.7661 31.0935C85.1092 31.4338 85.3981 31.792 85.705 32.1324C86.03 32.5085 86.5537 32.7951 86.6981 33.2249C87.619 36.0191 88.1607 38.8849 87.9259 41.8402C87.8718 42.4671 87.5468 43.2014 88.5579 43.4701C88.7385 43.488 88.8287 43.8462 89.0996 44.2582ZM64.0919 52.7302C63.7488 52.5331 63.4599 52.3899 63.1891 52.2108C60.1376 50.1151 57.4653 47.5718 54.9194 44.9209C53.4207 43.3447 53.6555 40.8013 55.3166 39.3864C56.075 38.7416 57.5375 38.5445 58.1875 39.0102C58.8014 39.4222 59.0362 40.6939 58.5126 41.6611C58.2598 42.1447 57.7181 42.5029 57.2847 42.897C57.1222 43.0582 56.8694 43.1298 56.5444 43.3089C57.7542 43.6134 58.4403 43.2373 59.1084 42.1447C59.2529 41.9118 59.6681 41.6432 59.8668 41.6969C61.0765 42.0372 62.3043 42.3775 63.4599 42.879C63.8933 43.0582 64.453 43.6492 64.4169 44.0254C64.3447 45.0821 65.1391 45.512 65.5905 46.2463C65.1211 47.3031 65.1933 47.4464 66.4031 47.5539C66.8364 47.5897 67.2878 47.6255 67.7573 47.6613C67.7934 48.5211 68.1726 48.8255 69.0031 48.6464C69.2379 48.5927 69.5448 48.7897 69.8157 48.8793C70.4115 49.0763 71.0435 49.5062 71.5671 49.4166C72.9755 49.13 74.3477 48.6285 75.8103 48.1807C75.8825 49.13 76.37 49.1121 76.8937 48.8255C77.4353 48.5211 77.9951 48.1987 78.4465 47.7867C79.3312 46.9628 80.3063 46.4434 81.5341 46.8553C82.2202 47.0882 82.6174 46.8911 82.9244 46.2822C83.0508 46.0135 83.3036 45.6732 83.5564 45.6194C84.6939 45.4045 85.7231 44.5269 87.0051 45.0105C87.0773 45.0463 87.2037 44.9209 87.312 44.8851C87.2579 44.6343 87.2037 44.4373 87.1495 44.1507C88.7746 44.4552 89.6774 45.4582 90.3274 46.7837C91.8441 49.9181 91.8802 53.2496 91.6455 56.599C91.6094 57.1184 91.2663 57.602 91.0496 58.1393C89.8399 57.19 89.8579 57.208 89.1176 58.2826C88.9912 58.4796 88.3412 58.5871 88.2871 58.5155C87.8537 57.8886 87.4204 58.211 86.9509 58.3901C86.5537 58.5513 86.1384 58.6946 85.687 58.8558C85.6147 58.5334 85.4703 58.211 85.5606 58.1393C86.012 57.7095 86.5176 57.3333 87.0051 56.9393C86.987 56.9214 86.969 56.9035 86.9509 56.8856C84.6758 57.8707 82.4008 58.8379 80.0354 59.8588C80.4688 59.8946 80.8118 59.9125 81.1729 59.9305C78.6993 61.1484 76.3339 62.4917 73.5352 62.7962C72.7769 62.8858 72.1991 62.6171 71.9824 62.0261C71.6032 60.9872 71.3143 59.9125 71.8199 58.7483C73.2463 55.4348 75.1061 52.4257 77.7062 49.8644C77.652 49.8107 77.5978 49.7569 77.5437 49.7032C76.7131 50.4375 75.8825 51.154 75.0519 51.9063C74.2936 49.9002 73.5172 52.0854 72.7227 51.8167C72.6324 51.6018 72.5241 51.3868 72.3796 51.0286C71.4768 51.9242 70.9893 51.4406 70.574 50.6167C70.5199 50.5092 70.3393 50.3838 70.231 50.3838C69.4365 50.4017 68.6601 50.4555 67.9559 50.4913C67.8656 50.7599 67.8476 51.1898 67.685 51.2615C67.1614 51.4406 66.5475 51.6734 66.0419 51.5659C65.3558 51.4047 65.0308 51.6018 64.7058 52.1033C64.5252 52.2645 64.3086 52.4794 64.0919 52.7302ZM49.647 12.8421C58.7292 21.2603 69.2379 23.1051 80.9202 20.9379C81.0827 21.4752 81.2632 22.0305 81.4077 22.6036C81.8952 24.7888 81.6785 25.0754 79.4757 25.6127C74.4741 26.8307 69.4726 27.0277 64.3627 26.1859C58.6209 25.2366 53.7457 22.6753 49.4664 18.896C48.69 18.2154 48.0761 17.3378 47.4983 16.478C47.3178 16.2093 47.3358 15.6183 47.5164 15.3496C48.1845 14.4541 48.9609 13.6301 49.647 12.8421ZM78.2298 16.3706C78.0312 16.4243 77.9229 16.4601 77.7965 16.4959C75.3408 16.9974 72.9033 16.8721 70.4476 16.4959C64.7961 15.6541 59.4515 13.9884 54.5944 10.9256C54.3597 10.7823 54.161 10.6032 53.8721 10.3882C63.2794 6.1612 72.7408 8.7404 78.2298 16.3706ZM62.5752 73.4175C60.8598 73.9907 58.8376 74.0265 57.4834 75.5669C56.4 75.5848 55.2986 75.7281 54.2333 75.5848C53.0596 75.4236 52.4096 74.4743 51.6151 73.6146C50.3151 72.2175 49.3401 70.713 48.5998 69.0114C48.1122 67.9009 48.1845 66.7188 48.6539 65.6262C49.1776 64.4082 50.4595 64.0679 51.5429 64.8202C51.904 65.0709 52.2651 65.3217 52.6985 65.6083C54.7208 64.0679 56.7069 62.4201 59.3612 61.632C59.2348 62.3485 59.1265 62.9216 59.0362 63.4948C58.7653 64.9993 58.4223 66.5755 59.1626 67.9726C59.8126 69.1905 59.7043 70.9637 61.4738 71.5011C61.5279 71.519 61.546 71.6622 61.5821 71.7339C61.9071 72.2712 62.2141 72.8086 62.5752 73.4175ZM63.3877 42.0372C62.0877 41.6432 60.9682 41.3387 59.8668 40.9446C59.6501 40.873 59.5056 40.479 59.3973 40.2103C59.2167 39.7446 59.2348 39.064 58.9098 38.8311C58.0973 38.2759 58.2778 37.6848 58.5306 36.9863C58.7292 36.431 58.8556 35.84 59.0001 35.2668C59.5056 33.404 59.9932 31.5413 60.4987 29.6785C60.589 29.7502 60.6612 29.8218 60.7515 29.8935C61.1487 29.6248 61.5099 29.2666 61.9432 29.0875C63.2432 28.5501 64.5794 28.0844 65.8794 27.5829C66.0961 27.9591 66.2947 28.2994 66.4933 28.6576C65.1211 30.5204 63.9655 32.4906 63.4599 34.7295C62.9363 37.0937 62.0154 39.4759 63.3877 42.0372ZM88.9551 29.392C88.9551 30.8428 88.6662 31.2368 87.1495 31.9174C86.4273 32.2398 85.9036 31.9353 85.5245 31.2547C85.1633 30.6099 84.6036 30.0547 84.1341 29.4815C84.098 29.4457 84.0258 29.4099 83.9716 29.4278C83.1591 29.5352 82.7438 28.9621 82.2563 28.4964C81.6063 27.8874 81.5702 27.5292 82.148 26.8844C83.0688 25.8814 85.3981 25.5052 86.987 26.0963C88.1426 26.5083 88.9551 27.8695 88.9551 29.392ZM59.632 18.7527C60.0834 17.8572 60.4084 17.0154 60.914 16.2989C61.221 15.8511 61.7988 15.2959 62.2502 15.2959C63.0085 15.278 63.7488 15.6899 64.5794 15.9228C63.8391 17.087 63.1891 18.1438 62.503 19.1468C62.3766 19.3438 61.9974 19.5229 61.7988 19.4692C61.0946 19.308 60.3904 19.0214 59.632 18.7527ZM70.6101 21.2603C69.4907 21.117 68.5698 21.0095 67.6489 20.8842C67.9739 19.4513 68.2448 18.1796 68.5337 16.8183C69.2379 16.9258 69.9601 17.0512 70.5921 17.1407C70.6101 18.5378 70.6101 19.8274 70.6101 21.2603ZM61.4015 14.9377C60.6973 16.1556 59.9932 17.3557 59.2709 18.6094C58.5306 18.2691 57.7723 17.9109 56.9417 17.5169C57.7723 16.3168 58.5306 15.2242 59.289 14.1137C60.0834 14.4182 60.7696 14.6869 61.4015 14.9377ZM71.0254 17.2124C71.6213 17.2661 72.181 17.3019 72.7408 17.3915C72.8852 17.4094 73.1019 17.6243 73.1199 17.7676C73.2824 18.9139 73.4088 20.0602 73.5352 21.2603C72.506 21.2603 71.7477 21.2603 71.0254 21.2603C71.0254 19.8811 71.0254 18.5915 71.0254 17.2124ZM52.211 14.4182C53.0957 13.7376 53.8541 13.1286 54.6486 12.5734C54.9194 12.3943 55.3347 12.1973 55.6055 12.2868C56.1653 12.4838 56.6708 12.86 57.1042 13.1107C56.1653 14.0958 55.2805 15.0093 54.3596 15.9765C53.6735 15.475 52.9513 14.9377 52.211 14.4182ZM73.6255 17.4094C74.2214 17.3915 75.0519 17.1407 75.4672 17.9109C75.9909 18.8781 76.3339 19.9528 76.8034 21.0991C75.6478 21.1886 74.745 21.2424 74.0047 21.2961C73.8602 19.917 73.7519 18.699 73.6255 17.4094ZM66.4031 16.4064C66.1503 17.1228 65.9156 17.8034 65.6989 18.4662C65.0127 20.4722 65.0127 20.4722 62.9544 19.8095C62.9002 19.7916 62.8821 19.7199 62.8099 19.6662C63.3877 18.6453 64.0197 17.6422 64.5433 16.5676C64.7961 16.084 65.0489 15.9765 65.5183 16.1377C65.8072 16.2452 66.0961 16.3168 66.4031 16.4064ZM75.6658 17.2661C76.4061 17.3019 77.2909 17.1228 77.5076 17.4094C78.1937 18.3945 78.6451 19.5408 79.2771 20.7588C78.3562 20.8842 77.7242 20.9558 77.1284 21.0454C76.8937 20.3647 76.7131 19.7737 76.4964 19.2005C76.2617 18.6094 76.0089 18.0542 75.6658 17.2661ZM56.5986 17.3378C56.0569 17.0154 55.4791 16.675 54.8111 16.281C55.4791 15.5108 56.0389 14.7944 56.6708 14.1675C57.6097 13.2361 57.8264 13.2361 58.8376 14.0242C58.1153 15.0989 57.3931 16.1735 56.5986 17.3378ZM68.0823 16.8183C67.7753 18.1258 67.4864 19.4513 67.1614 20.8125C66.5114 20.6513 66.0239 20.5259 65.4822 20.4006C65.8433 19.3438 66.1503 18.3766 66.4753 17.4273C66.8364 16.3526 66.8545 16.3526 68.0823 16.8183ZM54.8291 11.6241C54.8291 11.7137 54.8291 11.8032 54.8472 11.8928C53.8721 12.6271 52.8791 13.3794 51.886 14.1317C51.561 13.8272 51.3262 13.5943 50.929 13.2361C51.9582 12.6092 52.8429 12.0002 53.7999 11.5166C54.0346 11.3913 54.468 11.5883 54.8291 11.6241ZM77.8326 16.9795C78.2118 17.0333 78.7173 16.9616 78.8437 17.1407C79.5118 18.1617 80.1076 19.2542 80.7938 20.4364C80.216 20.5438 79.8729 20.6155 79.7285 20.6334C79.0784 19.3796 78.5006 18.2691 77.8326 16.9795ZM60.0473 26.0067C60.9862 26.1859 61.7807 26.3291 62.828 26.5262C62.0335 27.2247 61.4015 27.762 60.6432 28.4247C60.4084 27.5113 60.2459 26.8307 60.0473 26.0067ZM61.7807 28.4606C63.4419 26.5083 63.7488 26.4008 65.3197 27.1351C64.0919 27.5829 62.9363 28.0128 61.7807 28.4606ZM53.5652 10.8002C53.6013 10.8897 53.6194 10.9793 53.6555 11.0689C52.7527 11.6957 51.8679 12.3226 50.9471 12.8958C50.8207 12.9853 50.5137 12.7883 50.279 12.7167C50.279 12.6271 50.279 12.5555 50.279 12.4659C51.3443 11.8569 52.1929 10.7823 53.5652 10.8002ZM59.7584 27.8516C59.3251 27.2784 59.0001 26.8486 58.6751 26.4187C58.3681 26.0067 58.0973 25.5948 57.7181 25.0754C59.5598 25.6306 59.5779 25.6485 59.7584 27.8516ZM66.4211 27.2784C66.9809 27.2784 67.4684 27.2784 68.0101 27.2784C66.9628 28.3352 66.7822 28.3352 66.4211 27.2784Z" fill="black"/>
<path d="M59.8668 67.5966C59.9751 67.3638 60.0834 67.131 60.264 66.7727C60.2098 67.8295 60.1557 68.6534 60.1015 69.4773C60.2279 69.531 60.3543 69.6027 60.4807 69.6564C60.5709 69.4057 60.6612 69.1549 60.7515 68.8862C60.8237 68.94 60.8779 68.9937 60.9501 69.0474C60.9321 69.4236 60.8418 69.8176 60.9321 70.1579C61.0043 70.4266 61.2751 70.6774 61.4918 70.9102C61.6543 71.1072 61.9793 71.2326 62.0335 71.4475C62.4307 72.9521 63.7308 73.2207 65.103 73.8297C64.9766 72.9521 64.9766 72.2535 64.76 71.6446C64.2002 70.0684 65.6447 68.4743 67.4503 68.7071C68.1545 68.7967 68.8406 69.0654 69.5809 69.2624C72.2171 66.2891 75.413 64.0861 79.584 63.5487C79.4757 63.6383 79.3673 63.7816 79.2409 63.8174C76.0992 64.7488 73.4088 66.4682 70.9713 68.5997C70.6282 68.8862 70.249 69.1549 69.924 69.4415C69.5268 69.7997 69.1115 69.8534 68.6059 69.6743C68.1364 69.5131 67.6128 69.3698 67.1253 69.3698C65.7711 69.3519 64.9766 70.4803 65.3558 71.7699C65.5183 72.3073 65.4822 72.9163 65.6808 73.4357C66.1322 74.6178 66.6378 75.8 67.1614 76.9463C67.2698 77.197 67.5406 77.4836 67.7934 77.5552C68.6962 77.8418 68.9851 78.5583 69.3101 79.3105C70.556 82.3375 71.7115 82.839 74.8533 81.7644C77.7423 80.7792 80.6493 79.83 83.5202 78.8269C86.1384 77.8776 88.2329 76.2836 89.7135 73.8835C90.833 72.0744 91.3927 70.1221 91.4649 68.0444C91.501 66.8981 91.4649 65.7339 91.4649 64.5876C91.3566 64.5697 91.2663 64.5517 91.158 64.5338C90.9593 64.8741 90.7607 65.1966 90.4899 65.6443C90.2552 65.4294 90.0746 65.2324 89.8579 65.0712C89.6051 64.8921 89.3524 64.7488 89.0635 64.6234C88.6843 64.4443 88.287 64.301 87.9259 64.0502C86.7703 63.8174 85.6147 63.495 84.4411 63.3696C83.2494 63.2442 82.0396 63.3517 80.8299 63.1905C81.5521 63.1189 82.2924 63.0114 83.0147 63.0114C84.3869 63.0114 85.8134 62.5457 87.1315 63.4771C87.4204 63.6741 88.0704 63.3875 88.594 63.298C88.6482 63.5129 88.7204 63.7995 88.7746 64.0323C89.3885 64.1219 89.9301 64.1935 90.7427 64.3189C90.8691 64.0323 91.1941 63.5845 91.2482 63.1189C91.4288 61.7039 91.483 60.271 91.5913 58.7306C91.2844 58.7844 91.0677 58.8202 90.8871 58.8381C90.5802 58.4082 90.2732 57.9963 89.8399 57.4052C89.6774 57.9246 89.6774 58.2649 89.4968 58.4082C89.1718 58.6948 88.5398 59.1605 88.3773 59.053C87.5829 58.5157 87.0412 59.1068 86.4092 59.3038C85.8314 59.4829 85.2536 59.7337 84.73 58.9993C84.6036 58.8023 83.6466 58.9276 83.2674 59.1784C80.5771 61.0591 77.6881 62.4382 74.4741 63.1009C74.3297 63.1368 74.1672 63.1368 74.0227 63.1547C71.4768 63.3338 70.2309 61.7218 71.0074 59.268C71.7296 57.0112 72.6685 54.8618 74.1311 52.9453C74.4019 52.5871 74.3839 51.996 74.5283 51.3871C73.5533 51.5662 73.1922 52.605 72.1088 52.0139C71.4588 51.6557 70.5198 51.8169 70.3212 50.5811C69.4726 50.9393 68.7504 51.2975 67.992 51.5662C67.342 51.7811 66.6739 51.8886 66.0058 52.0677C65.6447 52.1752 65.1933 52.2468 64.9586 52.4975C63.496 54.1275 62.2321 55.9186 61.4196 57.9604C60.8779 59.3217 60.3001 60.665 59.7584 62.0263C59.0542 63.7816 59.3251 65.5906 59.5056 67.3817C59.632 67.4713 59.7584 67.525 59.8668 67.5966Z" fill="white"/>
<path d="M89.1001 44.2584C88.8473 43.8643 88.739 43.5061 88.5404 43.4524C87.5473 43.1837 87.8542 42.4493 87.9084 41.8225C88.1431 38.8492 87.6195 36.0013 86.6806 33.2072C86.5361 32.7773 86.0125 32.4908 85.6875 32.1146C85.3805 31.7743 85.1097 31.4161 84.7486 31.0758C84.4777 30.7534 84.225 30.4131 83.9541 30.0907C83.8458 29.9653 83.6833 29.7862 83.5569 29.7862C82.8166 29.822 82.4013 29.3384 82.0041 28.8548C81.1554 27.8339 79.8373 27.8159 78.754 27.2965C77.0025 26.4547 75.3414 27.1532 73.6441 27.2607C72.5968 27.3323 71.5315 27.3861 70.5023 27.2607C68.6426 27.0099 67.5772 28.1025 66.6564 29.3742C65.1216 31.5236 64.3091 33.9416 63.641 36.4849C62.9729 39.0462 63.3702 41.2314 64.923 43.2912C65.1036 43.5419 65.0675 43.936 65.1938 44.2405C65.3564 44.6524 65.5008 45.2435 65.8258 45.4047C66.6383 45.7808 66.2772 46.2286 65.9703 46.8555C66.5661 46.8734 67.1078 46.8018 67.5953 46.963C67.9745 47.0883 68.2453 47.4824 68.4981 47.8406C69.437 48.1093 70.6287 47.769 71.2968 48.8794C71.4051 48.8794 71.4774 48.8974 71.5135 48.8794C72.2538 48.0197 73.3371 48.2167 74.2941 48.0018C74.7094 47.9122 75.1247 47.8585 75.5219 47.6973C76.0997 47.4466 76.5692 47.3212 76.6595 48.2526C77.0928 47.9839 77.5623 47.8585 77.7248 47.5719C78.2123 46.6585 79.2054 46.5689 79.9637 46.157C80.3429 45.9599 80.9749 46.0674 81.4443 46.2286C82.1666 46.4614 82.3832 46.157 82.636 45.5838C82.7444 45.3151 83.1416 45.136 83.4305 44.9748C83.7736 44.7957 84.1527 44.6524 84.5319 44.545C84.8028 44.4554 85.1097 44.4017 85.3986 44.4196C85.85 44.4375 86.2833 44.545 86.7167 44.5987C87.0598 43.6494 87.2223 43.6136 89.1001 44.2584ZM76.6956 40.3179C78.5734 40.5866 80.2526 39.9418 81.8235 39.0821C82.4735 38.7238 82.4735 38.0432 81.9138 37.488C81.2457 36.8432 80.5235 36.2521 79.8915 35.5715C78.9887 34.6043 78.0498 33.7624 76.6053 33.8699C76.7317 33.458 76.7317 33.458 79.3318 33.7266C79.1693 35.2491 80.6137 34.7655 81.6429 35.3386C81.2096 35.4998 80.9929 35.5715 80.6499 35.6968C81.3179 35.8222 81.7332 35.8939 82.3652 36.0192C81.986 36.2879 81.8235 36.3954 81.8596 36.3775C82.0943 36.7536 82.4374 37.076 82.4735 37.4163C82.5638 38.3298 82.5096 39.2612 82.5096 40.3537C81.6971 39.6194 81.1193 39.6015 80.8304 40.6403C80.6137 40.5508 80.4332 40.4791 80.2346 40.3896C80.0901 40.6224 79.9818 40.8373 79.8554 41.0523C79.8193 40.9627 79.8012 40.8553 79.7651 40.7657C79.3859 40.7657 78.8262 40.6045 78.6456 40.8015C78.0678 41.4105 77.5442 41.0523 76.9484 40.9627C76.2983 40.8553 76.6233 40.5866 76.7317 40.3179C75.3233 39.494 74.5288 38.2044 73.8608 36.8073C73.9149 36.7536 73.9872 36.7178 74.0413 36.664C74.9261 37.882 75.8108 39.1 76.6956 40.3179ZM65.7536 34.6938C65.3383 34.3356 65.3563 34.2819 65.8078 33.8878C66.1147 33.6192 66.3675 33.2968 66.6383 32.9923C66.6203 32.8848 66.5842 32.7773 66.5661 32.6699C67.5772 32.8669 68.6064 33.2788 69.5995 33.1893C70.3759 33.1176 70.3759 33.5654 70.5565 33.9057C70.8815 34.5505 70.8093 34.9267 70.3759 35.4103C70.3398 35.267 70.2495 35.1595 70.2857 35.07C70.5384 34.1028 69.6898 33.7624 69.1842 33.3147C68.6606 32.8311 67.5953 32.9744 67.2161 33.5654C66.3494 34.9088 65.5369 36.3058 64.7966 37.7208C64.6341 38.0432 64.8327 38.5447 64.8688 39.1179C65.1216 38.8313 65.248 38.7059 65.2661 38.688C65.8078 39.1358 66.2772 39.5119 66.8008 39.9418C67.5231 38.7597 68.1189 37.7925 68.7509 36.7715C68.5342 36.7894 68.3537 36.8073 68.1912 36.8252C67.7217 36.8611 67.2522 36.7357 67.3425 36.1984C67.3967 35.9118 67.7939 35.5177 68.1009 35.464C68.9856 35.267 69.5995 36.1088 69.1301 36.9506C68.0828 38.8134 66.9453 40.6403 65.8258 42.521C65.3202 41.5359 66.1869 40.9985 66.4036 40.4254C65.9522 40.103 65.555 39.8343 65.1397 39.5477C64.4897 40.0313 64.1827 39.4582 64.1466 38.9567C64.0924 38.3656 64.2188 37.7029 64.4535 37.1476C64.7786 36.2879 65.2841 35.5356 65.7536 34.6938ZM67.3245 43.6494C67.3245 43.5061 67.3425 43.3628 67.3425 43.2195C67.6856 43.2016 68.0467 43.2195 68.3717 43.13C68.7328 43.0404 69.2204 42.9329 69.3829 42.6643C69.6718 42.1807 69.0578 42.0553 68.8231 41.7508C68.5523 41.3747 68.4259 40.8194 68.3898 40.3358C68.3898 40.2463 69.0398 39.9776 69.4009 39.9955C69.9245 39.9955 70.4662 40.1388 70.9898 40.2821C71.5676 40.4433 71.7121 41.0165 71.3149 41.4463C71.1343 41.6433 70.8815 41.7866 70.6468 41.8762C70.2134 42.0016 69.8884 42.2344 70.087 42.6822C70.2134 42.9688 70.5565 43.2733 70.8635 43.3449C71.4774 43.5061 72.1274 43.5061 72.7593 43.5778C72.7593 43.7031 72.7413 43.8106 72.7413 43.936C70.8996 43.8285 69.112 43.739 67.3245 43.6494ZM73.6621 34.3893C74.1497 34.3893 74.565 34.3893 74.9441 34.3893C75.0886 34.0669 75.215 33.7983 75.3594 33.5117C75.6483 34.1207 75.6122 34.5326 75.0344 34.8908C74.5288 35.2132 74.1316 35.7148 73.608 36.1984C72.8496 36.073 71.9468 35.9297 71.044 35.7685C71.044 35.6789 71.0621 35.5894 71.0621 35.4998C71.8746 35.5536 72.6691 35.6073 73.5177 35.661C73.5358 35.4819 73.5358 35.2849 73.5719 35.0879C73.5719 34.9088 73.608 34.6938 73.6621 34.3893ZM77.1831 38.079C76.2261 38.079 75.5941 37.5954 75.7386 37.0402C75.8289 36.7536 76.2622 36.4312 76.5872 36.3775C77.3636 36.2521 77.5984 36.9148 77.7067 37.488C77.7248 37.685 77.2734 37.9716 77.1831 38.079ZM72.5788 45.4405C74.2941 45.1539 75.7025 44.4017 76.7136 42.9509C76.3525 44.7778 74.258 46.0495 72.5788 45.4405ZM69.1301 45.548C67.5592 45.745 65.7897 44.4912 66.1328 43.5061C66.7647 44.7241 68.0287 44.9927 69.1301 45.548Z" fill="white"/>
<path d="M64.0922 52.7303C64.3089 52.4795 64.5256 52.2825 64.67 52.0317C64.995 51.5302 65.3381 51.3332 66.0062 51.4944C66.5117 51.6198 67.1256 51.3869 67.6493 51.1899C67.8118 51.1362 67.8298 50.7063 67.9201 50.4197C68.6243 50.3839 69.4188 50.3302 70.1952 50.3123C70.3216 50.3123 70.4841 50.4377 70.5382 50.5451C70.9355 51.369 71.4411 51.8526 72.3439 50.9571C72.5064 51.3153 72.5966 51.5481 72.6869 51.7452C73.4633 52.0138 74.2578 49.8287 75.0162 51.8347C75.8648 51.1004 76.6773 50.366 77.5079 49.6317C77.5621 49.6854 77.6162 49.7391 77.6704 49.7929C75.0884 52.3541 73.2286 55.3632 71.7841 58.6768C71.2785 59.8589 71.5674 60.9157 71.9466 61.9545C72.1633 62.5635 72.7411 62.8143 73.4994 62.7247C76.2801 62.4202 78.6635 61.059 81.1372 59.8589C80.7761 59.841 80.433 59.8052 79.9996 59.7873C82.365 58.7663 84.6401 57.7991 86.9151 56.814C86.9332 56.8319 86.9512 56.8498 86.9693 56.8678C86.4818 57.2618 85.9762 57.6379 85.5248 58.0678C85.4526 58.1394 85.597 58.4618 85.6512 58.7843C86.1026 58.623 86.5179 58.4798 86.9151 58.3186C87.3846 58.1215 87.836 57.7991 88.2513 58.4439C88.3054 58.5335 88.9555 58.4081 89.0819 58.2111C89.8402 57.1364 89.8041 57.1185 91.0139 58.0678C91.2305 57.5305 91.5736 57.029 91.6097 56.5274C91.8444 53.1781 91.8083 49.8466 90.2916 46.7121C89.6597 45.3867 88.7568 44.4016 87.1137 44.0792C87.186 44.3658 87.2221 44.5628 87.2762 44.8136C87.1679 44.8673 87.0415 44.9748 86.9693 44.9389C85.7054 44.4553 84.6762 45.333 83.5206 45.5479C83.2678 45.6016 83.0331 45.942 82.8886 46.2106C82.5817 46.8196 82.1844 47.0166 81.4983 46.7838C80.2705 46.3718 79.3135 46.8912 78.4107 47.7152C77.9593 48.1271 77.4176 48.4674 76.8579 48.754C76.3343 49.0406 75.8467 49.0585 75.7745 48.1092C74.2939 48.557 72.9397 49.0764 71.5313 49.3451C71.0077 49.4525 70.3577 49.0048 69.7799 48.8077C69.5091 48.7182 69.2021 48.5212 68.9674 48.5749C68.1368 48.754 67.7576 48.4495 67.7215 47.5898C67.252 47.554 66.8187 47.5361 66.3673 47.4823C65.1395 47.3749 65.0673 47.2495 65.5548 46.1748C65.1034 45.4404 64.3089 44.9927 64.3811 43.9538C64.4172 43.5777 63.8394 42.9866 63.4241 42.8075C62.2686 42.3239 61.0588 41.9657 59.831 41.6254C59.6324 41.5716 59.2171 41.8582 59.0726 42.0731C58.4046 43.1657 57.7004 43.5419 56.5087 43.2374C56.8337 43.0583 57.0684 42.9866 57.249 42.8254C57.6823 42.4314 58.2059 42.0732 58.4768 41.5895C58.9823 40.6223 58.7657 39.3686 58.1518 38.9387C57.4837 38.4909 56.0392 38.67 55.2808 39.3148C53.6197 40.7298 53.385 43.2732 54.8836 44.8494C57.4295 47.5181 60.1018 50.0436 63.1533 52.1392C63.4603 52.39 63.7492 52.5333 64.0922 52.7303Z" fill="black" stroke="black" stroke-miterlimit="10"/>
<path d="M49.6471 12.8418C48.9609 13.6299 48.1665 14.4538 47.4984 15.3494C47.3178 15.6001 47.2998 16.2091 47.4803 16.4778C48.0581 17.3375 48.672 18.2151 49.4485 18.8958C53.7277 22.6929 58.6029 25.2363 64.3447 26.1856C69.4366 27.0274 74.4561 26.8304 79.4577 25.6124C81.6605 25.0751 81.8772 24.7885 81.3897 22.6034C81.2633 22.0302 81.0647 21.4571 80.9022 20.9376C69.256 23.1049 58.7293 21.26 49.6471 12.8418Z" fill="#0367B3" stroke="#0367B3" stroke-miterlimit="10"/>
<path d="M78.2661 16.3705C72.7771 8.74036 63.3157 6.16115 53.9084 10.3882C54.1793 10.5852 54.396 10.7643 54.6307 10.9255C59.4878 13.9883 64.8324 15.6541 70.4839 16.4959C72.9396 16.872 75.3952 16.9974 77.8328 16.4959C77.9592 16.4601 78.0675 16.4242 78.2661 16.3705Z" fill="#0367B3" stroke="#0367B3" stroke-miterlimit="10"/>
<path d="M62.5757 73.4174C62.2146 72.7905 61.9076 72.2711 61.6007 71.7337C61.5645 71.6621 61.5465 71.5188 61.4923 71.5009C59.7228 70.9815 59.8312 69.1904 59.1811 67.9724C58.4408 66.5753 58.7839 64.9991 59.0547 63.4946C59.1631 62.9214 59.2534 62.3304 59.3798 61.6318C56.7075 62.4199 54.7393 64.0678 52.7171 65.6081C52.3018 65.3215 51.9406 65.0708 51.5615 64.82C50.4781 64.0857 49.1781 64.4081 48.6725 65.626C48.203 66.7365 48.1308 67.9007 48.6183 69.0112C49.3586 70.7128 50.3337 72.2353 51.6337 73.6144C52.4282 74.4742 53.0782 75.4055 54.2518 75.5846C55.3171 75.7279 56.4186 75.5846 57.5019 75.5667C58.8381 74.0443 60.8604 73.9906 62.5757 73.4174Z" fill="black" stroke="black" stroke-miterlimit="10"/>
<path d="M63.388 42.0373C61.9977 39.4581 62.9185 37.0938 63.4602 34.7296C63.9658 32.4907 65.1214 30.5204 66.4937 28.6577C66.295 28.2995 66.0964 27.9591 65.8797 27.583C64.5617 28.0845 63.2436 28.5502 61.9435 29.0875C61.5102 29.2667 61.149 29.6249 60.7518 29.8935C60.6615 29.8219 60.5893 29.7503 60.499 29.6786C59.9935 31.5414 59.5059 33.4041 59.0004 35.2669C58.8379 35.84 58.7295 36.4311 58.5309 36.9864C58.2781 37.7028 58.1156 38.276 58.9101 38.8312C59.2351 39.0461 59.217 39.7447 59.3976 40.2104C59.5059 40.479 59.6504 40.8731 59.8671 40.9447C60.9685 41.3388 62.088 41.6433 63.388 42.0373Z" fill="white"/>
<path d="M88.9551 29.3924C88.9551 27.87 88.1245 26.5266 86.9509 26.0789C85.3619 25.4878 83.0327 25.8639 82.1118 26.8669C81.534 27.4938 81.5701 27.87 82.2202 28.479C82.7077 28.9446 83.141 29.5178 83.9355 29.4103C83.9897 29.4103 84.0619 29.4282 84.098 29.4641C84.5674 30.0551 85.1272 30.5925 85.4883 31.2373C85.8675 31.9179 86.3911 32.2224 87.1134 31.9C88.6662 31.2373 88.9551 30.8253 88.9551 29.3924Z" fill="black" stroke="black" stroke-miterlimit="10"/>
<path d="M59.6322 18.7528C60.4086 19.0215 61.0948 19.2902 61.799 19.4693C61.9976 19.523 62.3768 19.326 62.5031 19.1469C63.1893 18.1439 63.8212 17.105 64.5796 15.9229C63.7671 15.6721 63.0087 15.2781 62.2504 15.296C61.799 15.296 61.2212 15.8512 60.9142 16.299C60.4086 17.0334 60.0836 17.8752 59.6322 18.7528Z" fill="#FFEB15" stroke="#FFEB15" stroke-miterlimit="10"/>
<path d="M70.6104 21.2603C70.6104 19.8274 70.6104 18.5378 70.6104 17.1408C69.9784 17.0333 69.2562 16.9258 68.552 16.8184C68.245 18.1796 67.9742 19.4513 67.6672 20.8842C68.57 20.9917 69.4909 21.117 70.6104 21.2603Z" fill="#FFEB15" stroke="#FFEB15" stroke-miterlimit="10"/>
<path d="M61.4019 14.9377C60.7699 14.6869 60.0838 14.4183 59.2893 14.1138C58.5129 15.2243 57.7726 16.3168 56.942 17.5169C57.7726 17.9109 58.5309 18.2692 59.2712 18.6095C59.9935 17.3557 60.6977 16.1736 61.4019 14.9377Z" fill="#FFEB15" stroke="#FFEB15" stroke-miterlimit="10"/>
<path d="M71.0258 17.2124C71.0258 18.5916 71.0258 19.8812 71.0258 21.2424C71.7481 21.2424 72.5245 21.2424 73.5356 21.2424C73.3912 20.0603 73.2829 18.896 73.1204 17.7497C73.1023 17.6064 72.8856 17.4094 72.7412 17.3736C72.1995 17.302 71.6398 17.2661 71.0258 17.2124Z" fill="#FFEB15" stroke="#FFEB15" stroke-miterlimit="10"/>
<path d="M52.2118 14.4181C52.9521 14.9554 53.6743 15.4748 54.3785 15.9942C55.2994 15.027 56.1661 14.1136 57.123 13.1285C56.6716 12.8777 56.1841 12.5016 55.6244 12.3046C55.3716 12.215 54.9383 12.412 54.6674 12.5911C53.8549 13.1285 53.0965 13.7374 52.2118 14.4181Z" fill="#FFEB15" stroke="#FFEB15" stroke-miterlimit="10"/>
<path d="M73.6263 17.4091C73.7527 18.6808 73.8611 19.8988 74.0055 21.2959C74.7458 21.2421 75.6486 21.1884 76.8042 21.0988C76.3347 19.9525 75.9917 18.8779 75.468 17.9107C75.0528 17.1405 74.2222 17.4091 73.6263 17.4091Z" fill="#FFEB15" stroke="#FFEB15" stroke-miterlimit="10"/>
<path d="M66.4033 16.4063C66.0964 16.3168 65.8075 16.2451 65.5366 16.1556C65.0672 15.9944 64.7963 16.0839 64.5616 16.5854C64.038 17.6422 63.406 18.6452 62.8282 19.6841C62.8824 19.7557 62.9185 19.8095 62.9727 19.8274C65.0491 20.4901 65.0491 20.4901 65.7172 18.484C65.9158 17.7855 66.1505 17.1228 66.4033 16.4063Z" fill="#FFEB15" stroke="#FFEB15" stroke-miterlimit="10"/>
<path d="M75.6666 17.2665C76.0097 18.0546 76.2625 18.6098 76.4791 19.2009C76.6958 19.774 76.8764 20.3651 77.1111 21.0457C77.7069 20.9741 78.3389 20.8845 79.2598 20.7591C78.6459 19.5412 78.1764 18.377 77.4903 17.3918C77.2917 17.1053 76.4069 17.3023 75.6666 17.2665Z" fill="#FFEB15" stroke="#FFEB15" stroke-miterlimit="10"/>
<path d="M56.5989 17.3375C57.3753 16.1733 58.1156 15.0987 58.8379 14.024C57.8268 13.2359 57.6101 13.2359 56.6712 14.1673C56.0392 14.7942 55.4975 15.5106 54.8114 16.2808C55.4795 16.6569 56.0573 16.9972 56.5989 17.3375Z" fill="#FFEB15" stroke="#FFEB15" stroke-miterlimit="10"/>
<path d="M68.0825 16.8183C66.8366 16.3347 66.8367 16.3526 66.4755 17.4272C66.1686 18.3765 65.8436 19.3437 65.4824 20.4005C66.0061 20.5259 66.5116 20.6512 67.1617 20.8124C67.4867 19.4512 67.7936 18.1258 68.0825 16.8183Z" fill="#FFEB15" stroke="#FFEB15" stroke-miterlimit="10"/>
<path d="M54.8291 11.624C54.468 11.5882 54.0346 11.3912 53.7818 11.5345C52.8429 12.0181 51.9582 12.6091 50.9109 13.2539C51.3082 13.6122 51.5609 13.845 51.8679 14.1495C52.861 13.3972 53.8541 12.645 54.8291 11.9106C54.8291 11.8031 54.8291 11.7136 54.8291 11.624Z" fill="#FFEB15" stroke="#FFEB15" stroke-miterlimit="10"/>
<path d="M77.8332 16.9795C78.5013 18.2691 79.0791 19.3975 79.7291 20.6334C79.8916 20.5975 80.2166 20.5438 80.7944 20.4363C80.1083 19.2363 79.5305 18.1616 78.8444 17.1407C78.736 16.9616 78.2305 17.0332 77.8332 16.9795Z" fill="#FFEB15" stroke="#FFEB15" stroke-miterlimit="10"/>
<path d="M60.048 26.0068C60.2466 26.8307 60.4091 27.5293 60.6258 28.4248C61.3841 27.7621 62.0161 27.2069 62.8105 26.5263C61.7814 26.3292 60.9869 26.1859 60.048 26.0068Z" fill="white"/>
<path d="M61.7808 28.4609C62.9364 28.031 64.092 27.5833 65.3198 27.1355C63.7489 26.3832 63.442 26.4907 61.7808 28.4609Z" fill="white"/>
<path d="M53.5655 10.8C52.1932 10.7821 51.3446 11.8568 50.2793 12.4837C50.2793 12.5732 50.2793 12.6449 50.2793 12.7344C50.514 12.8061 50.821 12.9852 50.9474 12.9135C51.8682 12.3404 52.771 11.6956 53.6558 11.0866C53.6377 10.9791 53.6016 10.8896 53.5655 10.8Z" fill="#FFEB15" stroke="#FFEB15" stroke-miterlimit="10"/>
<path d="M59.7583 27.8519C59.5777 25.6488 59.5597 25.6309 57.718 25.0757C58.0971 25.613 58.386 26.025 58.6749 26.419C58.9819 26.8489 59.3069 27.2788 59.7583 27.8519Z" fill="white"/>
<path d="M78.1939 33.7983C77.9953 33.7983 76.2258 33.7983 76.2258 33.7983L75.8647 33.9775L75.1785 34.4611L73.5896 35.9835L74.366 37.0761L76.1536 39.5299L76.7675 40.4971L79.4398 40.3359L80.8481 39.8702L82.2926 39.0284L82.5454 38.4911L82.3107 37.5955L81.2634 36.3775L79.7287 35.2491L78.1939 33.7983Z" fill="black"/>
<path d="M70.4297 34.8548L69.0213 36.6638L66.8546 40.1565L65.3018 39.0639L64.6879 39.4401L64.4892 37.7743L66.5115 34.1563L67.4504 32.9204L68.6782 33.1533L69.7977 33.3145L70.4297 34.0488V34.8548Z" fill="black"/>
<path d="M66.4213 27.2783C66.7824 28.3351 66.963 28.3351 68.0103 27.2783C67.4686 27.2783 66.9811 27.2783 66.4213 27.2783Z" fill="black" stroke="black" stroke-miterlimit="10"/>
<path d="M65.7534 34.6937C65.2839 35.5535 64.7784 36.3057 64.4353 37.1296C64.2006 37.6849 64.0922 38.3476 64.1283 38.9387C64.1645 39.4402 64.4714 40.0312 65.1214 39.5297C65.5367 39.8163 65.9159 40.085 66.3854 40.4074C66.1687 40.9805 65.302 41.5179 65.8076 42.503C66.927 40.6223 68.0646 38.7954 69.1118 36.9326C69.5813 36.0908 68.9854 35.249 68.0826 35.446C67.7757 35.5176 67.3784 35.8938 67.3243 36.1803C67.234 36.7177 67.6854 36.8431 68.1729 36.8072C68.3535 36.7893 68.516 36.7714 68.7326 36.7535C68.1007 37.7744 67.5048 38.7416 66.7826 39.9238C66.277 39.5118 65.7895 39.1178 65.2478 38.67C65.2298 38.6879 65.1034 38.8133 64.8506 39.0999C64.8145 38.5267 64.6159 38.0252 64.7784 37.7028C65.5187 36.2878 66.3312 34.9087 67.1979 33.5474C67.5771 32.9563 68.6424 32.831 69.166 33.2967C69.6716 33.7623 70.5202 34.0847 70.2674 35.0519C70.2494 35.1415 70.3216 35.2669 70.3577 35.3923C70.8091 34.8907 70.8813 34.5325 70.5383 33.8877C70.3577 33.5474 70.3577 33.0996 69.5813 33.1713C68.5882 33.2608 67.559 32.8489 66.5479 32.6519C66.5659 32.7593 66.602 32.8668 66.6201 32.9743C66.3492 33.2787 66.0965 33.6011 65.7895 33.8698C65.3562 34.2818 65.3381 34.3355 65.7534 34.6937Z" fill="black"/>
<path d="M76.7318 40.2997C76.6235 40.5684 76.2985 40.855 76.9485 40.9445C77.5443 41.0341 78.068 41.3923 78.6458 40.7833C78.8263 40.5863 79.3861 40.7475 79.7652 40.7475C79.8013 40.8371 79.8194 40.9445 79.8555 41.0341C79.9819 40.8191 80.0902 40.6042 80.2347 40.3714C80.4333 40.443 80.6139 40.5326 80.8305 40.6221C81.1194 39.5833 81.6972 39.6012 82.5098 40.3355C82.5098 39.243 82.5639 38.3116 82.4737 37.3981C82.4375 37.0578 82.0945 36.7354 81.8597 36.3593C81.8417 36.3772 82.0042 36.2697 82.3653 36.001C81.7334 35.8757 81.3181 35.804 80.65 35.6786C80.9931 35.5533 81.2097 35.4637 81.6431 35.3204C80.6139 34.7293 79.1694 35.2129 79.3319 33.7084C76.7318 33.4397 76.7318 33.4397 76.6054 33.8517C78.068 33.7442 79.0069 34.5861 79.8916 35.5533C80.5236 36.2339 81.2458 36.825 81.9139 37.4698C82.4917 38.025 82.4737 38.7056 81.8236 39.0638C80.2528 39.9415 78.5735 40.5684 76.6957 40.2997H76.7318Z" fill="black"/>
<path d="M67.3239 43.6493C69.1114 43.7389 70.899 43.8284 72.6865 43.918C72.6865 43.7926 72.7046 43.6851 72.7046 43.5598C72.0726 43.4881 71.4226 43.4881 70.8087 43.3269C70.5017 43.2553 70.1587 42.9508 70.0323 42.6642C69.8337 42.2164 70.1587 41.9836 70.592 41.8582C70.8448 41.7866 71.0976 41.6254 71.2601 41.4283C71.6573 40.9985 71.5129 40.4432 70.9351 40.2641C70.4115 40.1208 69.8878 39.9775 69.3462 39.9775C69.0031 39.9775 68.335 40.2283 68.335 40.3179C68.3711 40.8015 68.4975 41.3388 68.7684 41.7328C68.985 42.0373 69.617 42.1627 69.3281 42.6463C69.1656 42.915 68.6781 43.0224 68.317 43.112C67.992 43.2015 67.6308 43.1836 67.2878 43.2015C67.3419 43.3627 67.3239 43.506 67.3239 43.6493Z" fill="black"/>
<path d="M73.662 34.389C73.6078 34.6935 73.5717 34.8905 73.5536 35.1055C73.5356 35.3025 73.5175 35.4995 73.4995 35.6786C72.6508 35.6249 71.8564 35.5712 71.0439 35.5174C71.0439 35.607 71.0258 35.6965 71.0258 35.7861C71.9286 35.9294 72.8495 36.0906 73.5898 36.216C74.1134 35.7145 74.5106 35.2129 75.0162 34.9085C75.594 34.5502 75.6301 34.1383 75.3412 33.5293C75.2148 33.8159 75.0704 34.1025 74.9259 34.4069C74.5467 34.389 74.1314 34.389 73.662 34.389Z" fill="black"/>
<path d="M77.1824 38.0793C77.2907 37.9718 77.7241 37.6853 77.706 37.4882C77.6157 36.9151 77.3629 36.2524 76.5865 36.3777C76.2615 36.4315 75.8282 36.7539 75.7379 37.0405C75.5754 37.5957 76.2073 38.0793 77.1824 38.0793Z" fill="white"/>
<path d="M72.5785 45.4403C74.2577 46.0672 76.3523 44.7776 76.7134 42.9507C75.7022 44.4015 74.2758 45.1538 72.5785 45.4403Z" fill="black"/>
<path d="M69.1299 45.5477C68.0285 44.9925 66.7645 44.7238 66.1326 43.5059C65.7895 44.491 67.559 45.7268 69.1299 45.5477Z" fill="black"/>
<path d="M76.6953 40.3175C75.8106 39.0995 74.9258 37.8815 74.0411 36.6636C73.9869 36.7173 73.9147 36.7531 73.8605 36.8069C74.5286 38.186 75.305 39.4935 76.7314 40.3175C76.7314 40.2995 76.6953 40.3175 76.6953 40.3175Z" fill="black"/>
<path d="M77.1104 64.2471L80.0897 63.3873L81.7508 63.2619L83.9176 63.1187L86.5718 63.5127L88.5219 64.2471L90.4539 65.0351L91.3567 64.0679L91.7539 64.7307L91.5914 69.9249L90.7247 72.2892L89.3344 74.94L87.3482 76.9998L84.8204 78.576L81.5703 79.9014L77.6521 81.0835L74.1131 82.2836L71.6936 82.4268L70.4658 81.8L69.5088 80.4924L68.8407 78.9163L68.2088 77.9491L67.2518 77.5729L66.6379 76.7311L65.4642 73.9191L65.1934 72.1996L64.9587 70.8204L65.7351 69.3517L67.4323 69.0293L68.7504 69.5667L69.563 69.5129L70.7005 68.6532L72.2353 67.1487L74.7992 65.3934L77.1104 64.2471Z" fill="black" stroke="black" stroke-miterlimit="10"/>
<path d="M68.2993 35.4102C68.534 35.4102 68.841 35.446 69.1118 35.8221C69.2202 35.9654 69.3104 36.2878 69.2563 36.5027C69.2382 36.5744 69.1479 36.6818 69.0757 36.6998C68.9132 36.7535 68.5701 36.7714 68.5701 36.7714C68.5701 36.7714 68.1368 36.8251 67.9923 36.8072C67.884 36.8072 67.7034 36.8072 67.5409 36.7177C67.4687 36.6819 67.3784 36.6281 67.3243 36.4848C67.2882 36.4132 67.2882 36.2162 67.3062 36.1445C67.3604 36.0012 67.5048 35.7505 67.6673 35.643C67.9021 35.5176 68.0465 35.4102 68.2993 35.4102Z" fill="white"/>
</g>
<defs>
<filter id="filter0_d" x="36" y="0" width="67" height="97" filterUnits="userSpaceOnUse" color-interpolation-filters="sRGB">
<feFlood flood-opacity="0" result="BackgroundImageFix"/>
<feColorMatrix in="SourceAlpha" type="matrix" values="0 0 0 0 0 0 0 0 0 0 0 0 0 0 0 0 0 0 127 0"/>
<feOffset dy="4"/>
<feGaussianBlur stdDeviation="5"/>
<feColorMatrix type="matrix" values="0 0 0 0 0 0 0 0 0 0 0 0 0 0 0 0 0 0 0.3 0"/>
<feBlend mode="normal" in2="BackgroundImageFix" result="effect1_dropShadow"/>
<feBlend mode="normal" in="SourceGraphic" in2="effect1_dropShadow" result="shape"/>
</filter>
<linearGradient id="paint0_linear" x1="35" y1="14" x2="35" y2="74" gradientUnits="userSpaceOnUse">
<stop offset="0.526042" stop-color="#4ED695"/>
<stop offset="1" stop-color="#16834E"/>
</linearGradient>
</defs>
</svg>
