<svg width="20" height="20" viewBox="0 0 20 20" fill="none" xmlns="http://www.w3.org/2000/svg">
<path d="M10 20C15.5228 20 20 15.5228 20 10C20 4.47715 15.5228 0 10 0C4.47715 0 0 4.47715 0 10C0 15.5228 4.47715 20 10 20Z" fill="white"/>
<path d="M10.005 17.692C10.003 17.692 10.002 17.692 10 17.692C9.92703 17.692 9.85303 17.672 9.78803 17.631L5.04503 14.66C4.98203 14.62 4.93303 14.565 4.90003 14.501C4.88703 14.475 4.87703 14.448 4.87003 14.421C4.85703 14.369 4.85303 14.314 4.86203 14.259C4.86303 14.25 4.86503 14.241 4.86703 14.233L6.41103 7.178C6.42303 7.119 6.44803 7.064 6.48403 7.016L9.67703 2.654C9.75403 2.548 9.87703 2.489 10.002 2.49C10.128 2.489 10.25 2.548 10.327 2.654L13.52 7.016C13.53 7.029 13.539 7.043 13.547 7.057C13.553 7.067 13.558 7.077 13.562 7.087C13.576 7.116 13.586 7.147 13.592 7.178L15.136 14.233C15.138 14.242 15.14 14.251 15.141 14.259C15.149 14.314 15.146 14.369 15.133 14.421C15.126 14.448 15.116 14.475 15.103 14.501C15.071 14.565 15.022 14.62 14.958 14.66L10.216 17.631C10.152 17.672 10.078 17.692 10.005 17.692ZM6.64903 14.721L9.28703 16.374L8.76103 14.721H6.64903ZM11.243 14.721L10.717 16.374L13.355 14.721H11.243ZM9.60103 14.721L10.002 15.982L10.403 14.721H9.60103ZM11.498 13.921H14.06L12.42 11.026L11.498 13.921ZM9.34603 13.921H10.658L11.882 10.077L10.002 6.759L8.12203 10.077L9.34603 13.921ZM5.94403 13.921H8.50603L7.58403 11.026L5.94403 13.921ZM12.751 9.987L13.791 11.822L13.13 8.8L12.751 9.987ZM6.87603 8.799L6.21503 11.821L7.25503 9.986L6.87603 8.799ZM10.405 5.847L12.213 9.038L12.758 7.328L10.405 4.113V5.847ZM7.24703 7.328L7.79103 9.038L9.60003 5.847V4.114L7.24703 7.328Z" fill="black"/>
</svg>
