<svg width="48" height="48" viewBox="0 0 48 48" fill="none" xmlns="http://www.w3.org/2000/svg">
<g filter="url(#filter0_d)">
<path d="M34.3314 32.5104H13.6689C14.5002 29.4823 14.9158 26.4739 14.9158 23.4458C14.7773 19.1906 17.0533 14.3417 21.5064 12.9167V12.0656C21.5064 11.9469 21.5262 11.8281 21.546 11.7094H20.5367C20.2992 11.7094 20.121 11.5114 20.121 11.2937V10.2052C20.121 9.96769 20.3189 9.76978 20.5367 9.76978H27.4242C27.6617 9.76978 27.8398 9.96769 27.8398 10.2052V11.2937C27.8398 11.5312 27.6419 11.7094 27.4242 11.7094H26.4148C26.4346 11.8281 26.4544 11.9271 26.4544 12.0656V12.9167C30.9273 14.3417 33.1835 19.1708 33.045 23.4458C33.0846 26.4542 33.5002 29.4823 34.3314 32.5104Z" fill="url(#paint0_linear)"/>
<path d="M32.3125 37.2603H15.6875C13.7281 37.2603 12.125 35.6571 12.125 33.6978H35.875C35.875 35.6571 34.2719 37.2603 32.3125 37.2603Z" fill="url(#paint1_linear)"/>
</g>
<path d="M22.9515 22.571C22.9208 22.571 22.8901 22.571 22.867 22.5633C22.7057 22.5556 22.5597 22.5095 22.4982 22.3481C22.4367 22.179 22.5059 22.0406 22.6135 21.9099C22.6211 21.8946 22.6365 21.8792 22.6519 21.8715C23.0207 21.6947 23.0437 21.3642 23.036 21.0183C23.036 20.0498 23.036 19.089 23.0284 18.1205C23.0284 17.7208 22.8516 17.3672 22.698 17.0059C22.6596 16.906 22.6672 16.783 22.6519 16.6677C22.7671 16.6908 22.8901 16.6908 22.9899 16.7446C23.2435 16.8676 23.4894 16.9982 23.7275 17.152C24.2423 17.4825 24.4651 17.9437 24.3883 18.574C24.3038 19.1966 24.2808 19.8269 24.227 20.4572C24.227 20.511 24.227 20.5648 24.227 20.6647C24.3345 20.5878 24.4114 20.5417 24.4882 20.4879C25.0875 20.0652 25.5255 19.4733 26.0249 18.9429C26.2016 18.7585 26.3783 18.5663 26.5627 18.3895C26.7548 18.205 27.016 18.1666 27.2312 18.3126C27.5539 18.5279 27.8228 18.8046 27.9995 19.1582C28.1378 19.4272 28.0226 19.6808 27.7306 19.7577C27.4463 19.8346 27.2158 19.9806 26.9699 20.142C26.1171 20.7185 25.2565 21.2796 24.396 21.8254C24.2116 21.9407 24.1501 22.0944 24.1425 22.3019C24.1425 22.4249 24.2039 22.4557 24.3038 22.4249C24.834 22.2635 25.3334 22.0329 25.7252 21.6255C25.9557 21.3872 26.1709 21.3411 26.4475 21.4872C26.6319 21.5871 26.8086 21.7024 26.9699 21.8254C27.2004 22.0022 27.2312 22.2405 27.0391 22.4634C26.9315 22.5863 26.8009 22.7016 26.6549 22.7708C26.071 23.0552 25.5946 23.478 25.1413 23.9161C25.026 24.0237 25.026 24.1544 25.1259 24.2774C25.1874 24.3542 25.2565 24.4234 25.3257 24.4926C25.5792 24.777 25.61 25.0922 25.4256 25.415C24.9723 26.2067 24.9185 27.0522 25.172 27.9131C25.2796 28.2667 25.5639 28.405 25.9019 28.4742C26.8701 28.6741 27.7921 28.505 28.7064 28.1821C28.8908 28.113 28.9215 28.0515 28.837 27.8747C28.6296 27.4519 28.4144 27.0368 28.1993 26.6141C28.1609 26.5372 28.1301 26.4604 28.0994 26.3758C28.0379 26.2144 28.0687 26.0683 28.1916 25.9607C28.3222 25.8454 28.4836 25.8762 28.6219 25.953C28.7141 26.0068 28.8063 26.076 28.8754 26.1529C29.4056 26.6909 29.9588 27.2136 30.3737 27.8593C30.4044 27.9131 30.4659 27.9515 30.5274 27.99C30.6964 28.113 30.804 28.2744 30.7732 28.4896C30.7425 28.7202 30.5965 28.8585 30.3891 28.9431C29.0906 29.4427 27.7536 29.7041 26.3553 29.6195C25.7636 29.5811 25.1874 29.4965 24.6803 29.166C24.5189 29.0584 24.3576 28.897 24.2577 28.7279C23.7967 27.9285 23.7583 27.0599 23.9043 26.1683C23.9504 25.9069 24.0195 25.6456 24.0733 25.3766C24.0963 25.2613 24.104 25.1383 24.1194 25.0153C24.104 25.0076 24.0887 24.9922 24.0656 24.9845C23.9811 25.0691 23.8966 25.1536 23.8121 25.2382C22.721 26.3604 21.5992 27.4519 20.3084 28.3512C20.0318 28.5434 19.7399 28.7125 19.4556 28.8893C19.0637 29.1276 18.6335 29.2275 18.1955 29.2967C18.134 29.3044 18.0418 29.2736 18.0111 29.2198C17.988 29.1891 18.0034 29.0891 18.0341 29.043C18.111 28.9354 18.1955 28.8278 18.3031 28.7432C19.2404 27.9285 20.2085 27.1521 21.1229 26.3143C21.968 25.538 22.7594 24.7001 23.5816 23.8931C23.5969 23.8777 23.62 23.8469 23.6507 23.8085C23.2128 23.9392 22.7979 24.0775 22.3676 24.1851C21.8374 24.3158 21.3073 24.4234 20.7771 24.5233C20.6542 24.5464 20.5159 24.531 20.3929 24.508C19.955 24.4004 19.6169 24.1313 19.325 23.8008C19.2635 23.7316 19.202 23.5779 19.2404 23.5318C19.3019 23.4549 19.4325 23.4395 19.5324 23.3934C19.5478 23.3857 19.5708 23.3934 19.5862 23.3934C20.4083 23.5395 21.1843 23.2781 21.9604 23.0937C22.2062 23.0322 22.4521 22.963 22.698 22.8938C22.8977 22.8477 22.9285 22.8016 22.9515 22.571Z" fill="#D30900"/>
<path d="M20.6007 19.5195C20.885 19.5195 21.1923 19.7809 21.2922 20.1345C21.3691 20.3881 21.3998 20.6571 21.4613 20.9185C21.5458 21.2797 21.6457 21.641 21.7379 21.9946C21.7532 22.0484 21.784 22.0945 21.784 22.156C21.784 22.2098 21.7763 22.279 21.7455 22.3021C21.7148 22.3251 21.6303 22.3251 21.5919 22.3021C21.0003 21.9485 20.447 21.5565 20.1397 20.9031C20.0014 20.6033 19.9784 20.2959 20.0321 19.973C20.0936 19.6886 20.3087 19.5195 20.6007 19.5195Z" fill="#D30900"/>
<defs>
<filter id="filter0_d" x="4.125" y="1.76978" width="39.75" height="43.4905" filterUnits="userSpaceOnUse" color-interpolation-filters="sRGB">
<feFlood flood-opacity="0" result="BackgroundImageFix"/>
<feColorMatrix in="SourceAlpha" type="matrix" values="0 0 0 0 0 0 0 0 0 0 0 0 0 0 0 0 0 0 127 0"/>
<feOffset/>
<feGaussianBlur stdDeviation="4"/>
<feColorMatrix type="matrix" values="0 0 0 0 1 0 0 0 0 0.6 0 0 0 0 0 0 0 0 1 0"/>
<feBlend mode="normal" in2="BackgroundImageFix" result="effect1_dropShadow"/>
<feBlend mode="normal" in="SourceGraphic" in2="effect1_dropShadow" result="shape"/>
</filter>
<linearGradient id="paint0_linear" x1="24.0002" y1="9.76978" x2="24.0002" y2="32.5104" gradientUnits="userSpaceOnUse">
<stop stop-color="#FECA1C"/>
<stop offset="1" stop-color="#F7F6BB"/>
</linearGradient>
<linearGradient id="paint1_linear" x1="24" y1="33.6978" x2="24" y2="37.2603" gradientUnits="userSpaceOnUse">
<stop stop-color="#FECA1C"/>
<stop offset="1" stop-color="#F7F6BB"/>
</linearGradient>
</defs>
</svg>
