<svg width="30" height="30" viewBox="0 0 30 30" fill="none" xmlns="http://www.w3.org/2000/svg">
<path d="M0 15C0 6.71575 6.71575 0 15 0C23.2843 0 30 6.71575 30 15C30 23.2843 23.2843 30 15 30C6.71575 30 0 23.2843 0 15Z" fill="#55ACEE"/>
<path d="M14.5508 12.1922L14.5823 12.7112L14.0576 12.6477C12.1481 12.4041 10.4798 11.5778 9.06331 10.1902L8.37088 9.50168L8.1925 10.0101C7.81475 11.1436 8.05606 12.3405 8.843 13.1455C9.26269 13.5904 9.16825 13.654 8.44431 13.3892C8.1925 13.3044 7.97213 13.2409 7.95119 13.2726C7.87775 13.3468 8.12956 14.3107 8.32887 14.6921C8.60169 15.2217 9.15775 15.7407 9.76631 16.0479L10.2804 16.2915L9.67188 16.3021C9.08431 16.3021 9.06331 16.3127 9.12631 16.5351C9.33613 17.2236 10.165 17.9546 11.0883 18.2723L11.7389 18.4947L11.1723 18.8337C10.3329 19.321 9.34663 19.5964 8.36038 19.6176C7.88819 19.6282 7.5 19.6705 7.5 19.7023C7.5 19.8082 8.78006 20.4014 9.525 20.6344C11.7598 21.3229 14.4144 21.0264 16.4079 19.8506C17.8243 19.0138 19.2408 17.3507 19.9018 15.7407C20.2585 14.8827 20.6153 13.315 20.6153 12.5629C20.6153 12.0757 20.6467 12.0121 21.2343 11.4296C21.5805 11.0906 21.9058 10.7198 21.9688 10.6139C22.0736 10.4127 22.0632 10.4127 21.5281 10.5927C20.6363 10.9105 20.5103 10.8681 20.951 10.3915C21.2763 10.0525 21.6644 9.43812 21.6644 9.25806C21.6644 9.22631 21.5071 9.27924 21.3287 9.37456C21.1399 9.48049 20.7202 9.63937 20.4054 9.73474L19.8388 9.91481L19.3247 9.56524C19.0414 9.37456 18.6427 9.16274 18.4329 9.09918C17.8978 8.95087 17.0794 8.97206 16.5968 9.14156C15.2852 9.61824 14.4563 10.8469 14.5508 12.1922Z" fill="white"/>
</svg>
