<?xml version="1.0" encoding="utf-8"?>
<!-- Generator: Adobe Illustrator 22.0.1, SVG Export Plug-In . SVG Version: 6.00 Build 0)  -->
<svg version="1.1" id="레이어_2_1_" xmlns="http://www.w3.org/2000/svg" xmlns:xlink="http://www.w3.org/1999/xlink" x="0px"
	 y="0px" viewBox="0 0 210 324" style="enable-background:new 0 0 210 324;" xml:space="preserve">
<style type="text/css">
	.st0{fill:#FFFFFF;}
	.st1{fill:#EB1A21;}
	.st2{fill:#FFC40A;}
	.st3{fill:url(#SVGID_1_);}
	.st4{fill:#FFFDFD;}
</style>
<g>
	<g>
		<path class="st0" d="M208.5,76.8c0,16.7,0,33.4,0,50.2c-1.7,0.7-1.9,2.6-2.9,3.8c-0.5,0.6-0.9,1.2-2,1c-2.8-0.6-5.1-3.8-4.9-6.8
			c0.1-2,0.4-3.9,0.5-5.9c0.1-1.4,0.4-3.3-1.6-3.4c-1.7-0.1-1.7,1.7-1.8,3c-0.1,1.5-0.2,2.9-0.4,4.4c-0.2,1.1,0.2,2.7-1.2,2.8
			c-1,0.1-2.2-0.6-3.1-1.2c-1.3-0.7-1.2-2.2-1.6-3.4c-1.9-5.7-5.3-8.7-9.1-8s-6.4,4.5-6.3,10.4c0,3.4-1.3,5.4-4.1,7.3
			c-0.7-1.3-1.1-2.4-1.7-3.3c-1.2-1.7-0.9-5.7-4-4.2c-2.3,1.1,0.1,3.8,0.9,5.6c2.7,6.7,2.7,7.3-3.2,12.5c-1.1-1.7-2-3.4-3.3-4.9
			c-1.4-1.6-2.2-5.6-4.5-4.1c-2.7,1.8,0.9,4.1,1.8,6.1c0.7,1.6,1.8,3.1,3,4.5c1.4,1.7,1.4,3.2,0.2,4.9c-1.3,1.8-1.8,4.1-3.7,6
			c-1.9-2.1-3.5-3.9-5.1-5.6c-0.8-0.8-1.9-1.6-3-0.5c-0.9,0.9-0.3,1.9,0.4,2.6c1.5,1.8,2.9,3.5,4.5,5.2c1.4,1.5,2,2.9,0.9,4.8
			c-1.1,1.9-1.2,4.4-3.1,6.2c-2.2-1.9-4.3-3.8-6.4-5.6c-0.9-0.7-1.9-1.7-3-0.6c-1.4,1.3-0.1,2.4,0.8,3.2c1.8,1.7,3.7,3.3,5.4,5
			c2,1.9,2.1,7.3,0.2,9.2c-1,1-1.8,0.1-2.5-0.4c-2.2-1.5-4.3-3-6.5-4.5c-1-0.7-2.2-1.3-3-0.1c-0.9,1.2,0.1,2.2,1,2.9
			c2.7,1.9,5.3,3.9,8.1,5.5c1.4,0.8,1.9,1.7,1.5,3.2s-0.3,3.2-1.7,4.6c-5-2.5-9.8-4.8-12.5-10.3c-3.3-6.5-8.9-10.8-15.6-13.6
			c-3.8-1.6-7.7-2.8-11.7-3.8c-13.9-3.4-28.1-4.3-42.4-4.8c-2.3-0.1-4.6-0.1-6.5-1.6c-7.2-5.7-12.5-12.5-13.8-21.8
			c-1.5-10.5-0.8-20.9,0.3-31.4c0.2-1.8,0.7-3.4,2.2-4.7c4.2-3.6,5.5-8.6,4.9-13.8c-0.3-3.2,0.8-4.6,3.5-6
			c10.2-5.1,20.4-10.5,30.5-15.8c1.2-0.6,3.3-1,2.7-2.9c-0.6-2-2.4-1-3.8-0.7c-2.7,0.5-5.5,1.1-8.2,1.6c-11.3,2.2-22.5,6.2-34.3,3.3
			c-0.3-0.1-0.7,0-1,0C25.8,63,17.9,72.5,20,84.8c0.8,4.3,1.6,8.7,3,12.9c2.8,8.2,3.6,16.6,3.5,25.2c0,13.9-1,27.8-1.6,41.7
			c-0.9,20.6,7.6,36.4,24.8,47.6c5.7,3.7,11.9,6.3,18.4,8.1c3.9,1,7.5,2,8.7,6.6c0.2,0.9,1.1,1.8,1.9,2.2c3.1,1.8,3.7,4.8,4,8
			c0.5,5.5,0.7,11.1,0.5,16.7c-0.1,3.2-1.1,4.9-4.3,5c-0.5,0-1,0.1-1.5,0.2c-5.4,0.9-5.3,0.9-6.7-4.3c-0.8-3-0.4-4.9,2.4-6.4
			c1.6-0.8,3-2,4.4-3.1c0.8-0.6,1.4-1.5,0.5-2.5c-0.6-0.7-1.5-0.7-2.2-0.2c-1.5,0.9-3,2-4.5,2.9c-0.8,0.5-1.6,1.5-2.6,0.7
			c-0.9-0.8-1.1-2-0.6-3.2c0.8-1.8,1.6-3.6,1.8-5.6c0.5-3.8-0.7-6.8-3.3-8.1c-3.1-1.5-5.7-0.3-8.2,1.6c-1.1,0.9-2.1,2.1-3.2,3
			c-0.8,0.6-1.9,0.7-2.8,0.2c-0.8-0.5-0.5-1.5-0.4-2.3c0.3-1.8,0.7-3.5,0.9-5.3c0.1-0.9-0.3-1.7-1.2-1.9s-1.6,0.4-1.9,1.2
			c-0.6,2.2-1.2,4.4-1.5,6.7c-0.3,2.8-1.7,4-4.5,3.6c-0.1-1.9,1-3.2,1.4-4.8c0.4-1.3,1.1-2.7-0.7-3.3c-1.4-0.5-1.9,0.8-2.4,1.9
			c-1,1.9-1.1,4.4-3.1,6c-3.3-7.4-3.3-7.4,2.1-12.6c0.6-0.6,1.2-1.1,1.8-1.7c0.8-0.9,1.6-1.9,0.4-2.9c-0.9-0.8-1.8-0.2-2.7,0.4
			c-2,1.4-3.3,3.7-5.6,4.7c-4.1-7.2-4.1-7.2,1.6-11.8c0.5-0.4,1-0.8,1.5-1.2c0.9-0.8,1.7-1.8,0.7-2.9c-0.8-0.9-1.8-0.4-2.7,0.2
			c-2,1.3-3.7,3.2-6.2,4.2c-2.6-4.7-6.7-9.2-0.3-13.9c0.1-0.1,0.2-0.3,0.3-0.4c0.5-0.9,0.8-1.9-0.2-2.6c-0.7-0.5-1.5-0.2-2.2,0.4
			c-1.4,1.1-2.1,2.9-4.3,3.8c-1.3-2.2-2.7-4.4-4-6.6c-0.2-0.4-0.4-1.1-0.1-1.4c1.1-1.6,2.3-3.2,3.5-4.7c0.2-0.3,0.4-0.5,0.5-0.8
			c0.4-0.8,0.6-1.6-0.2-2.2c-0.8-0.7-1.6-0.4-2.2,0.1s-1,1.3-1.7,1.8c-1.1,0.8-1.3,3.6-3.7,1.7c-2.7-2.1-3.4-4.7-1.9-6.9
			c1.2-1.8,2.5-3.5,3.7-5.2c0.7-1.1,1.8-2.4,0.2-3.4c-1.5-1-2.3,0.6-3.1,1.6c-0.9,1.2-1.6,2.5-2.6,3.6c-0.8,0.9-1.2,3.3-3.2,1.7
			c-1.3-1-2.8-2.2-1.5-4.5c1.1-1.8,1.6-3.9,2.1-6c0.4-1.7,2.5-4.2-0.2-5c-2.2-0.7-2.3,2.2-2.9,3.8c-0.7,1.7-1.2,3.4-1.8,5.1
			c-0.5,1.6-1.5,0.7-2.3,0.4C2,115.8,2,59.4,2,3c31.5,0,62.9,0,94.4,0C88,17.5,85.3,33.1,88.8,49.4c5.6,26.1,21.4,43.8,47,51.2
			c26.2,7.6,49.1,0.5,68.3-19C205.6,80.1,206.1,77.5,208.5,76.8z"/>
		<g>
			<path d="M209.2,140c-4-4.3-9-7.9-15.8-11.4c-1-0.5-2-1-3-0.6c-0.8,0.3-1.4,0.9-2,2.1c-1.6,3.3-3.3,5.1-5,5.3
				c-1.8,0.2-4-1.1-6.7-4.1c-0.3-0.3-0.6-0.4-0.9-0.6c-0.1,0-0.3-0.1-0.4-0.2l-0.6-0.3l-0.5,0.5c-3.2,3-5.6,6.6-7.9,10
				c-10.8,16-17.6,35.2-21,58.6c-1.7,11.8-2.3,24.8-2,40.8c0,2,0.1,3.3-0.3,3.8c-0.3,0.5-1.5,0.7-3.5,1.2c-6.6,1.5-11.2,3.6-14.8,7
				l-0.4,0.4l0.1,0.6c0.3,1.3,1.2,2.1,1.8,2.7c0.3,0.3,0.6,0.5,0.8,0.8c1.9,2.6,2.2,4.7,1.1,6.7c-1.1,2-3.1,2.9-6.3,2.7h-0.1
				c-2.8-0.2-4.2-0.2-5.1,0.6c-0.9,0.9-1,2.3-1,4.9c-0.3,16.7,3.2,33.7,10.3,50.5l0.3,0.6h83.3V140.3L209.2,140z"/>
			<path d="M67,250.1c-0.3-1.3-0.7-2.6-1.9-3.2c-1-0.4-2.2-0.3-3.9,0.6c-1.7,0.8-3.3,0.9-4.6,0.1c-1.5-0.9-2.5-2.8-2.7-5.3
				c0-0.4,0-0.8,0.1-1.2c0.1-1,0.3-2.3-0.5-3.7l-0.3-0.5l-0.6,0.1c-4.4,0.5-8.1,1.8-11.3,4.1c-1.1,0.8-1.9,1.1-2.3,1
				c-0.4-0.1-0.8-0.8-1.4-2c-0.3-0.7-0.5-1.5-0.8-2.2c-0.1-0.3-0.2-0.6-0.3-0.9c-3.6-11.6-7.2-20.8-11.3-28.9
				c-5.3-10.4-12.2-22.4-22.5-31.7L1,174.8v147.8h67.6l0.2-0.7c1.6-4.6,2-9.4,2.4-14.1c0.1-0.7,0.1-1.4,0.2-2.1
				c1.9-20.1,0.5-38-4.2-54.9C67.2,250.6,67.1,250.4,67,250.1z"/>
		</g>
		<g>
			<path class="st1" d="M99.8,2l-0.3,0.5c-15,24.5-12.2,55.5,7,77.3c11.5,13,28.5,20.7,46.7,21.1c0.5,0,1,0,1.4,0
				c17.5,0,34.2-6.9,45.8-19c1.3-1.4,2.5-2.9,3.5-4.4c1.6-2.2,3.1-4.2,5.2-5.8l0.4-0.3V2H99.8z"/>
			<path class="st1" d="M33,65.8c-4.8,1.2-8,4.2-9.5,8.9c-0.2,0.7-0.5,1.6,0,2.6c0.5,0.9,1.5,1.3,2.2,1.5c1.6,0.5,3.2,0.7,4.7,0.7
				c7.1,0,13.7-4.6,16.3-11.9l0.4-1L46,66.3C40.3,64.9,36.9,64.8,33,65.8z"/>
		</g>
		<g>
			<path class="st2" d="M185.3,118.1c-1.3-1.7-3-2.5-4.5-2.2c-1.6,0.2-2.8,1.4-3.6,3.3c-1,2.6-1.1,5.2-0.4,7.9l0.1,0.2
				c0.8,2.7,1.8,6,5.7,6.5c0.1,0,0.2,0,0.3,0c0.8,0,1.5-0.3,2.2-0.9c1.5-1.4,2.5-4.1,2.5-7.2C187.6,123.1,186.6,119.7,185.3,118.1z"
				/>
			<path class="st2" d="M65.7,231.5c-1.3-0.7-2.9-0.6-4.6,0.4c-3.2,2-5.1,5.1-5.8,9.4v0.1c0,2.2,0.7,3.9,2,4.7
				c0.5,0.3,1.1,0.4,1.7,0.4c0.9,0,1.8-0.3,2.8-0.9c3.7-2.2,5.7-5.8,5.7-10.2C67.6,233.7,67,232.2,65.7,231.5z"/>
			<path class="st2" d="M116.6,252.9c-2-0.2-3.6,0.6-4.3,2.2c-0.7,1.4-0.4,3,0.9,4.7c2.1,2.7,5.1,4.4,8.8,4.9h0.1c0.1,0,0.1,0,0.2,0
				c1.2,0,3.2-0.1,4.3-1.9c0.8-1.4,0.6-3.1-0.6-4.7C123.8,254.9,120.6,253.2,116.6,252.9z"/>
		</g>
		<g>
			<path d="M131.7,184l-0.6-1.3l-1,1c-1.2,1.3-1.1,2.6-1,3.4c0,0.2,0,0.4,0,0.5c0,2.5-0.2,5.7-1.4,8.8c-0.9,2-1.6,3.1-2.1,3.2
				c-0.5,0.1-1.6-0.7-3.2-2.4l-0.1-0.1c-0.3-0.3-0.7-0.8-1.4-0.9c-0.5,0-1,0.1-1.6,0.6l-0.4,0.3l0.1,0.5c0.1,0.6,0.1,1.1,0.2,1.7
				c0.3,2.5,0.7,5-0.1,7.5c-0.4,1.3-0.9,2-1.4,2.2c-0.6,0.2-1.4,0-2.7-0.7c-0.5-0.3-1-0.7-1.5-1.1c-1-0.9-2.2-1.8-3.9-2l-1-0.1
				l-0.1,1c-0.3,3.6,1,6.5,4.3,8.8c0.8,0.6,1.1,1.1,1,1.3c0,0.2-0.4,0.6-1.6,1c-3.4,1-6.7,0.1-9.5-0.8c-0.3-0.1-0.6-0.3-0.9-0.5
				c-0.9-0.5-2.2-1.4-3.8-0.4l-0.4,0.2l-0.1,0.5c-0.2,1.5,0.4,2.6,0.9,3.5c0.1,0.1,0.2,0.3,0.2,0.4c0.1,0.3,0.3,0.5,0.5,0.8
				c0.6,1,0.7,1.2,0.3,1.7c-0.1,0.1-0.1,0.1-0.1,0.1c-0.1,0-0.4-0.1-0.6-0.2c-0.6-0.3-1.5-0.7-2.5-0.2l-0.5,0.3v0.6
				c-0.2,3.3,0.4,5.3,1.8,6.3c1.5,1.1,3.8,1.1,7.4,0c2.8-0.9,4.5-1.5,5.2-1.1s1.3,2,2.2,4.8c0.1,0.4,0.4,0.7,0.6,0.9
				c0.1,0,0.1,0.1,0.2,0.2l0.6,0.6l0.7-0.5c1.5-1.1,1.8-2.6,2-3.9c0.1-0.6,0.2-1.3,0.5-1.8c0.4-0.9,1-1.4,1.5-1.5s1.2,0.3,1.8,1
				c0.4,0.5,0.6,1.1,0.8,1.8c0.3,1,0.7,2.2,1.8,3l0.7,0.6l0.6-0.6c1.6-1.6,2.1-3.7,2.5-5.5l0.1-0.3c0.8-3.5,1.2-7.2,1.1-11.5
				c0-1.4,0.4-1.7,0.8-1.9c0.7-0.3,1.1-0.1,2.2,1.2c0.2,0.3,0.4,0.7,0.6,1.1c0.4,1,1.1,2.3,2.8,2.8l1.1,0.3l0.2-1.1
				C137.9,204.7,136.8,194.1,131.7,184z"/>
			<path d="M92.8,222.6c-1.8-2.2-3.9-4.7-7.6-1.7c-0.6,0.5-1.1,0.3-2.4-0.7l-0.3-0.2c-0.2-0.2-0.5-0.5-0.7-0.8c-0.6-0.8-1.4-1.8-3-2
				l-1-0.1l-0.1,1c-0.3,3-0.4,6.5,2.6,9.2c0.7,0.6,1.5,1.4,2.7,1.4c0.1,0,0.1,0,0.2,0c0.7,0,1.3-0.4,1.9-1.1c1.7-2,4.1-2.4,7.7-2.4
				H95l-1.4-1.6C93.2,223.1,93,222.9,92.8,222.6z"/>
		</g>
		<path d="M208.5,140.7c-4.4-4.8-9.7-8.2-15.5-11.1c-1.5-0.8-2.6-1.4-3.8,1c-3.6,7.4-7.6,7.8-13.3,1.5c-0.2-0.2-0.5-0.3-1-0.5
			c-3.1,2.8-5.4,6.4-7.8,9.9c-11.8,17.6-17.8,37.4-20.8,58.2c-1.9,13.5-2.3,27.1-2,40.7c0.1,5,0.1,4.9-4.6,6
			c-5.3,1.2-10.3,3-14.4,6.7c0.4,1.6,1.7,2.1,2.4,3.2c1.7,2.4,2.7,5,1.2,7.8s-4.3,3.4-7.2,3.2c-5.1-0.3-5.1-0.4-5.2,4.5
			c-0.3,17.4,3.4,34.1,10.2,50.1c-4.3,0-8.5,0-12.8,0c1.4-1.3,3.2-1.5,4.9-2.1c1.9-0.7,2.6-1.6,1.8-3.7c-0.7-1.9-1.1-3.8-3.9-3.1
			c-2.2,0.6-4.5,1-6.7,1.4c-1.2,0.2-2.5,0.2-2.7-1.2c-0.3-1.5,1.1-1.8,2.2-2.1c2.2-0.5,4.4-1,6.7-1.5c1.3-0.3,2.2-0.8,1.7-2.3
			c-0.8-2.3-0.5-5.2-2.3-6.8c-1.5-1.4-3.7,0.1-5.6,0.5c-2.1,0.3-4.1,0.6-3.9-2.5c0.8-0.2,1.5-0.5,2.3-0.7c7.5-1.8,7.5-1.8,5.6-9.1
			c0-0.2-0.1-0.3-0.1-0.5c-0.2-0.8-0.5-1.6-1.5-1.6s-1.4,0.6-1.7,1.4c-1.5,3.6-3,7.1-4.4,10.7c-2.1,0.9-2.4,2.9-3,4.8
			c-0.6,2-1.2,4.1-1.8,6.1c-0.2,0.8-0.6,1.6-1.6,1.6s-1.3-0.8-1.5-1.6c-0.2-1-0.6-1.9-0.7-2.8c-0.4-2.5-1.7-2.8-3.9-2
			c-2.1,0.7-4,2.2-6.5,1.6c0-2.9,3.7-3.4,3.7-6.1c-1.8-1.4-4.6-0.5-6.1-3c2.7-1.3,5.5-1.8,8.1-2.1c3.3-0.5,4.6-2,5.5-5.1
			c3.4-11.7,4.7-23.6,2.8-35.4c-1.1-7-4.6-13.6-4.8-20.9c0-0.8-0.8-1.6-1.6-1.6c-0.9-0.1-1.4,0.7-1.6,1.6c-0.6,2.6-0.8,5.3,0.4,7.7
			c2.1,4.3,2.1,8.8,1.7,13.4c-0.5,6.1-1.9,12-4,17.7c-1.7,4.9-2.6,9.8-2.1,14.9c0.1,1,0.8,2.3-0.9,2.8c-4.3-5.2-4.3-5.2-7.9-2.6
			c0.4,0.3,0.7,0.8,1.1,0.9c1.2,0.5,2.8,0.8,2.1,2.6c-0.5,1.3-1.9,0.9-3,0.7c-1.8-0.3-3.5-0.6-5.3-0.9c-1.8,7.4-1.7,7.6,5.1,9.7
			c0.3,0.1,0.7,0.1,0.9,0.3c1.2,0.6,3.3,0.7,2.6,2.8c-0.6,1.5-2.2,0.8-3.5,0.6c-0.3-0.1-0.6-0.2-1-0.2c-5.4-1.4-6.1-0.8-6,4.8
			c0,1.5,0.4,2.5,1.9,2.9c1.9,0.5,3.8,1.1,5.6,1.8c1.5,0.6,4.4,0.6,3.7,2.9c-0.7,2.5-3.1,0.8-4.7,0.4c-7.2-2-7.2-2.1-8.4,5.3
			c-1.3,0-2.6,0-3.9,0c1.8-5.2,2.1-10.6,2.6-15.9c1.8-18.4,0.9-36.6-4.2-54.5c-0.7-2.5-0.7-4.6-4.6-2.7c-4.6,2.2-8.3-0.7-8.7-6
			c-0.1-1.4,0.7-2.9-0.3-4.4c-3.9,0.4-7.6,1.6-10.9,3.9c-2.8,1.9-3.9,1.6-5.2-1.4c-0.5-1-0.7-2.2-1.1-3.3c-3-9.9-6.6-19.6-11.3-28.8
			c-5.9-11.5-12.5-22.6-22.3-31.4c0-1.6,0-3.3,0-4.9c0.8,0.4,1.8,1.2,2.3-0.4c0.6-1.7,1.1-3.4,1.8-5.1c0.7-1.5,0.7-4.5,2.9-3.8
			c2.8,0.9,0.6,3.4,0.2,5c-0.5,2.1-1.1,4.2-2.1,6c-1.4,2.3,0.2,3.4,1.5,4.5c2,1.6,2.4-0.8,3.2-1.7c1-1.1,1.7-2.4,2.6-3.6
			c0.8-1,1.6-2.5,3.1-1.6c1.6,1,0.5,2.3-0.2,3.4c-1.2,1.8-2.5,3.5-3.7,5.2c-1.5,2.2-0.8,4.7,1.9,6.9c2.3,1.8,2.6-1,3.7-1.7
			c0.7-0.5,1.1-1.3,1.7-1.8s1.5-0.8,2.2-0.1s0.5,1.5,0.2,2.2c-0.1,0.3-0.3,0.6-0.5,0.8c-1.2,1.6-2.4,3.1-3.5,4.7
			c-0.2,0.3-0.1,1,0.1,1.4c1.3,2.2,2.7,4.4,4,6.6c2.2-0.8,2.9-2.7,4.3-3.8c0.7-0.5,1.5-0.9,2.2-0.4c1,0.7,0.7,1.7,0.2,2.6
			c-0.1,0.1-0.2,0.3-0.3,0.4c-6.5,4.8-2.3,9.2,0.3,13.9c2.5-0.9,4.2-2.8,6.2-4.2c0.8-0.5,1.8-1.1,2.7-0.2c1.1,1.1,0.2,2.1-0.7,2.9
			c-0.5,0.4-1,0.8-1.5,1.2c-5.8,4.6-5.8,4.6-1.6,11.8c2.3-1,3.7-3.2,5.6-4.7c0.8-0.6,1.7-1.2,2.7-0.4c1.2,1.1,0.4,2.1-0.4,2.9
			c-0.5,0.6-1.2,1.2-1.8,1.7c-5.4,5.2-5.4,5.2-2.1,12.6c2-1.6,2.1-4.1,3.1-6c0.6-1,1-2.3,2.4-1.9c1.8,0.6,1.1,2,0.7,3.3
			c-0.5,1.5-1.5,2.9-1.4,4.8c2.8,0.4,4.2-0.8,4.5-3.6c0.3-2.3,0.9-4.5,1.5-6.7c0.2-0.8,0.9-1.4,1.9-1.2c0.9,0.2,1.3,1,1.2,1.9
			c-0.2,1.8-0.6,3.5-0.9,5.3c-0.1,0.8-0.4,1.8,0.4,2.3c0.9,0.5,2,0.5,2.8-0.2c1.2-0.9,2.1-2.1,3.2-3c2.4-1.9,5.1-3.1,8.2-1.6
			c2.6,1.2,3.8,4.3,3.3,8.1c-0.2,2-1,3.8-1.8,5.6c-0.5,1.2-0.3,2.4,0.6,3.2c1,0.8,1.8-0.2,2.6-0.7c1.5-1,3-2,4.5-2.9
			c0.7-0.4,1.6-0.5,2.2,0.2c0.9,1,0.3,1.9-0.5,2.5c-1.4,1.1-2.8,2.3-4.4,3.1c-2.8,1.5-3.3,3.4-2.4,6.4c1.4,5.2,1.3,5.2,6.7,4.3
			c0.5-0.1,1-0.2,1.5-0.2c3.3-0.1,4.2-1.9,4.3-5c0.2-5.6,0-11.1-0.5-16.7c-0.3-3.1-0.9-6.1-4-8c-0.8-0.5-1.7-1.4-1.9-2.2
			c-1.2-4.6-4.8-5.5-8.7-6.6c-6.5-1.8-12.7-4.4-18.4-8.1c-17.3-11.1-25.8-27-24.8-47.6c0.6-13.9,1.6-27.8,1.6-41.7
			c0-8.5-0.8-17-3.5-25.2c-1.4-4.2-2.2-8.6-3-12.9c-2.2-12.3,5.8-21.8,18.3-21.9c0.3,0,0.7-0.1,1,0c11.8,2.9,23-1.1,34.3-3.3
			c2.7-0.5,5.5-1.1,8.2-1.6c1.4-0.3,3.2-1.3,3.8,0.7c0.6,1.9-1.5,2.2-2.7,2.9c-10.2,5.3-20.3,10.7-30.5,15.8c-2.7,1.3-3.9,2.7-3.5,6
			c0.5,5.2-0.7,10.2-4.9,13.8c-1.5,1.3-2,2.9-2.2,4.7c-1,10.5-1.8,20.9-0.3,31.4c1.4,9.3,6.7,16.2,13.8,21.8
			c1.9,1.5,4.2,1.5,6.5,1.6c14.3,0.5,28.5,1.5,42.4,4.8c4,1,7.9,2.2,11.7,3.8c6.7,2.8,12.3,7.1,15.6,13.6c2.8,5.5,7.6,7.7,12.5,10.3
			c1.4-1.3,1.3-3.1,1.7-4.6c0.4-1.4-0.1-2.3-1.5-3.2c-2.8-1.7-5.4-3.6-8.1-5.5c-1-0.7-1.9-1.7-1-2.9s2.1-0.6,3,0.1
			c2.2,1.5,4.3,3,6.5,4.5c0.8,0.5,1.5,1.4,2.5,0.4c1.9-1.9,1.8-7.3-0.2-9.2c-1.8-1.7-3.7-3.3-5.4-5c-0.9-0.9-2.2-1.9-0.8-3.2
			c1.1-1,2.1-0.1,3,0.6c2.1,1.8,4.2,3.7,6.4,5.6c1.9-1.8,2-4.3,3.1-6.2s0.5-3.4-0.9-4.8c-1.6-1.6-3-3.4-4.5-5.2
			c-0.6-0.8-1.2-1.7-0.4-2.6c1.1-1.1,2.1-0.4,3,0.5c1.7,1.7,3.3,3.6,5.1,5.6c1.9-1.9,2.5-4.2,3.7-6c1.2-1.7,1.2-3.2-0.2-4.9
			c-1.1-1.4-2.2-2.9-3-4.5c-0.9-2-4.5-4.3-1.8-6.1c2.2-1.5,3.1,2.4,4.5,4.1c1.2,1.5,2.2,3.2,3.3,4.9c5.9-5.3,6-5.8,3.2-12.5
			c-0.7-1.8-3.2-4.5-0.9-5.6c3-1.4,2.8,2.6,4,4.2c0.6,0.9,1.1,2,1.7,3.3c2.8-1.9,4.1-3.9,4.1-7.3c-0.1-5.9,2.5-9.7,6.3-10.4
			c3.8-0.7,7.3,2.3,9.1,8c0.4,1.2,0.3,2.7,1.6,3.4c1,0.5,2.1,1.3,3.1,1.2c1.4-0.2,1.1-1.8,1.2-2.8c0.2-1.5,0.2-2.9,0.4-4.4
			c0.1-1.3,0.1-3,1.8-3c2.1,0.1,1.7,2,1.6,3.4c-0.1,2-0.4,3.9-0.5,5.9c-0.2,3,2.2,6.2,4.9,6.8c1,0.2,1.5-0.4,2-1
			c1-1.3,1.2-3.1,2.9-3.8C208.5,131.5,208.5,136.1,208.5,140.7z M108.3,215.1c-1.8-3.6-2.6-6.9-2.3-10.4c0.1-1.5,0.3-3,1.9-3.7
			c1.7-0.7,2.7,0.4,3.8,1.4c1.4,1.3,2.6,3.3,5.3,3.2c0-1.7,0.1-3.2,0-4.6c-0.2-1.6-0.5-3.2-0.8-4.8s-0.1-2.9,1.5-3.7
			c1.5-0.8,2.8-0.5,4.1,0.4c1.1,0.8,1.6,2.5,3.4,2.4c4.2-10.8-0.2-22-10.3-26.6c-3.3-1.5-6.7-2.6-10.2-3.5
			c-8.3-2.1-16.7-3.2-25.2-4.1c-8.6-0.8-17.3-0.9-26-1.1c-1.4,0-3.9,0-3.5-1.7c0.8-3.3-1.6-4.3-3.1-6c-5.4-6.5-9.3-13.5-9.6-22.5
			c-0.3-8.7-0.1-17.3,0.5-26c0.1-1.3,0.8-2.6-0.3-3.8c-1.6-1.8-0.6-2.7,1-3.8c6.3-4.1,8.6-11,6-17.9c-0.4-1.2-1-2.4-2.4-1.3
			c-5.1,3.9-10.8,4.3-16.8,3.4c-2-0.3-2.1,1-1.9,2.4c0.4,4.1,1,8.2,2.4,12c4.1,10.8,4.3,22.1,4,33.4c-0.3,11.9-1,23.9-1.5,35.8
			c-0.1,1.5-0.6,3.2,0.6,4.7c1.6-1.1,2.5-2.7,4.1-3.1c2.4-0.6,1.6,2.6,3.2,3.3c1.2-1.9,1.5-4,3.5-4.9c0.8-0.4,1.6-0.6,2.2,0.2
			c0.4,0.6,0.1,1.2-0.5,1.7c-1.4,1-2,2.4-2.1,4.2c-0.3,3.4-1.2,3.7-4.2,2c-1.1-0.6-1.5-3.1-3.4-1.8c-1.2,0.9-1.7,2.4-2.1,3.8
			c-0.6,1.8-0.3,3.6,0.2,5.3c2.4,9.1,6.8,17,13.8,23.4c8.2,7.5,18,11.8,28.5,14.8c2.4,0.7,3.2-0.1,3.9-2.1c0.7-2,2-3.6,4.2-3.5
			c2.1,0.1,2,2.2,2.6,3.7c1.1,2.6,2.2,2.7,4.4,0.7c0.1-0.1,0.2-0.3,0.3-0.4c3.4-3.5,3.5-3.5,4.7,1c0.3,1.1,0.6,2.3,2.2,2
			c1.1-1.2,0.3-2.5,0.3-3.7c0.1-4.1,1.5-5,5.1-3.1C102.2,213.6,104.6,215,108.3,215.1z M130.8,184.5c-1.2,1.2-0.7,2.3-0.7,3.3
			c0,3.1-0.3,6.2-1.5,9.1c-2,4.8-3.4,5-6.9,1c-0.4-0.4-0.7-1.1-1.7-0.3c0.4,3.1,1.1,6.3,0.1,9.6c-1,3.2-2.6,3.7-5.5,2.1
			c-1.7-0.9-2.8-2.7-5-3c-0.3,3.5,1.1,5.9,3.9,8c2.2,1.7,1.8,3.3-0.9,4.1c-3.4,1-6.8,0.3-10.1-0.8c-1.2-0.4-2.3-1.9-3.9-1
			c-0.2,1.4,0.5,2.4,1,3.4c0.6,1.1,1.7,2.2,0.7,3.5c-1.1,1.4-2.3-0.7-3.5,0c-0.3,5.9,1.8,7.3,7.9,5.3c6.5-2.1,6.5-2.1,8.6,4.4
			c0.1,0.2,0.4,0.4,0.6,0.7c1.8-1.3,1.4-3.6,2.2-5.3c1.2-2.4,3.2-2.7,5-0.6c1.2,1.4,0.9,3.5,2.5,4.7c1.5-1.5,1.9-3.5,2.3-5.3
			c0.9-3.7,1.2-7.4,1.1-11.2c0-1.2,0.2-2.4,1.5-2.8c1.5-0.6,2.4,0.4,3.3,1.4c0.9,1.1,1,3.1,2.9,3.6
			C136.6,206.6,136.4,195.5,130.8,184.5z M118.6,233c-1.7,3.8-3.2,7.5-8.2,6.4c-0.4,1.9-0.4,3.5-0.1,5.1c0.9,4.9,1.7,5.7,6.7,5.9
			c2,0.1,4.6,2,5.8-0.6c1-2.3-2.1-3.2-3.3-4.8c-0.7-1.1-2-2.1-0.6-3.3c1.1-1,2.1,0.1,3,0.8c0.4,0.3,0.7,0.7,1.1,1
			c4.4,4.2,4.4,4.2,9.4,0.5c-0.9-1.8-2.6-2.9-3.8-4.4c-0.6-0.8-1.2-1.7-0.4-2.6c1-1.2,2.1-0.4,2.9,0.4c1.7,1.6,3.3,3.2,4.9,4.8
			c1.1,1.1,2.3,1,3.6,0.5c1.4-0.5,1.2-1.7,1.3-2.9c0.2-2.4-0.4-4.1-3-4.7c-1.7-0.4-3.4-1.2-5-1.9c-1-0.4-1.9-1-1.6-2.1
			c0.4-1.4,1.6-1.3,2.8-1c2.1,0.5,4,1.9,6.5,1.7c0.1-0.9,0.2-1.5,0.2-2.2c0.1-5.1-0.5-5.6-5.3-3.7c-1.6,0.6-2.5,0.1-3.2-1.2
			c-0.5-0.9-0.4-2.4-2.2-2.5c-0.5,4.7-1.4,9.4-4.2,13.4c-2.1,3-4.5,2.8-6.3-0.5C119.3,234.6,119.1,234,118.6,233z M87.6,284.8
			c0-1.8,0.4-3.1-0.1-4c-1.6-3.3-0.4-6.3,0.6-9.4c1.9-5.9,3.4-12,4-18.2c0.4-3.5,0.3-6.9-1.3-10.1c-2.1-4.1-1.7-8.2-0.4-12.4
			c0.3-0.8,1.5-1.7,0.5-2.6c-1-0.9-2.2-0.3-3.2,0.3c-1.7,1.2-2.7,2.8-2.3,5c2.1,11.9,1,23.8-0.1,35.8c-0.6,6.7-0.6,6.7-7,8.5
			c-1,0.3-2.2,0.3-3.2,1.3c1.5,1.1,3.7,0.5,5,1.8c0.4,1.6-2.2,2.5-1.1,4.3C82,284.6,84.2,280.5,87.6,284.8z M108.9,231.1
			c-2.4,0.7-4,1.5-5.5,1.5c-2.9,0.2-3.4,1.6-3.1,4.2c0.7,5.1,2,9.9,4.3,14.5c0.7,1.4,1.7,2.7,1.1,4.6c-1.2,3.5,0.2,7.1-0.1,10.7
			c-0.1,1.4,0.6,2.2,2,2.2c1.9,0,4,0.9,5.3-1.3c1.2-2.2,0.6-3.9-1.2-5.7c-1.9-1.9-2.8-4.4-2.1-7.2c0.2-0.8,0.5-1.6,0-2.3
			C105.6,245.6,106.1,238.8,108.9,231.1z M45.7,67.3c-5.5-1.3-8.7-1.5-12.5-0.5c-4.5,1.1-7.4,3.9-8.8,8.3c-0.5,1.5-0.1,2.3,1.6,2.8
			C34.1,80.4,42.8,75.8,45.7,67.3z M92.8,302.6c0.6-0.2,1.3-0.2,1.8-0.5c2-1.6,5,0.6,6-0.5c1.5-1.6,1.4-4.5,2.8-6.6
			c1.3-1.9,1.9-4.2,3.1-6.1c1.7-2.6-2.8-2.7-1.7-4.8c1-1.8,4.2-1,4.6-3.9c0.3-2.4,1.5-4.7,1.4-7.1c-5.2-1.2-5.2-1.2-6,3.4
			c-0.7,4.4-1.7,8.7-2.7,13c-0.8,3.6-2.5,5.9-6.4,6.3c-1.3,0.1-3-0.1-4.1,1.8C95.7,298.4,94.3,300.2,92.8,302.6z M74.2,63
			c-0.1-0.3-0.2-0.6-0.3-0.8c-6.7,1.4-13.4,3-20.2,4c-4.4,0.6-5.8,3.7-7.6,6.8c-0.6,1.1-0.4,2.2,0.6,3.1c0.9,0.8,1.8,0.3,2.7-0.1
			C57.7,71.6,65.9,67.3,74.2,63z M186.6,125.6c0-2.3-1-5.5-2.1-6.9c-2.2-2.8-5.1-2.5-6.4,0.8c-0.9,2.3-1,4.8-0.3,7.2
			c0.8,2.7,1.6,5.6,4.9,6C184.9,132.9,186.6,129.6,186.6,125.6z M56.4,241.5c-0.1,3.6,2.1,5.1,5,3.4c3.4-2.1,5.2-5.4,5.3-9.3
			c0.1-3.2-2.2-4.4-4.9-2.7C58.4,234.8,56.9,237.9,56.4,241.5z M122.2,263.6c1.5,0,2.9-0.1,3.6-1.4s0.3-2.6-0.5-3.6
			c-2.2-2.9-5.2-4.4-8.8-4.7c-1.3-0.1-2.7,0.3-3.3,1.6c-0.6,1.3,0,2.5,0.8,3.6C116.1,261.8,119,263.1,122.2,263.6z M137.5,190.2
			c0.6,4.4,1.1,8.7,1.7,13c0,0.3,0.1,0.7,0.2,1c0.3,0.8,0.9,1.5,1.8,1.4c0.7-0.1,1-0.7,1.1-1.4c0.2-1.8,0.4-3.6,0.7-5.3
			C143.8,192.7,143.8,192.7,137.5,190.2z M92.7,224c-2.2-2.6-3.6-5-6.9-2.4c-1.4,1.1-2.7,0-3.9-0.9c-1.1-0.8-1.4-2.5-3.3-2.7
			c-0.3,3.3-0.2,6.1,2.3,8.3c1,0.9,2.1,1.8,3.3,0.4C86.4,224.4,89.2,224,92.7,224z M76.5,268.3c4.7,0,5,0,5.5-1.6
			c0.5-1.4,1.1-3.2,0.3-4.2c-1.3-1.9-3.2,0-4.9-0.1c-0.8,0-1.6,0.2-2.4,0.4c-0.9,0.2-2.1,0.4-2.1,1.6c-0.1,1.3,0,2.8,1.2,3.5
			C75,268.4,76.3,268.3,76.5,268.3z M77,276.3c1-1.1,4.4,0.2,4.2-2.9c-0.1-2.8-2.7-1.5-4.2-1.7c-1.7-0.2-3.3,0-2.9,2.5
			C74.3,275.6,74.6,276.8,77,276.3z M141.4,214.3c-0.1-1,0.5-2.4-0.1-3.8c-0.2-0.4-0.7-0.8-1.1-0.8c-0.3,0-0.9,0.5-1,0.8
			c-0.5,3-0.9,6-1.2,9.1c-0.1,0.8,0.8,1.4,1.6,1.6c1.1,0.2,1.3-0.7,1.3-1.5C141.1,218,141.2,216.4,141.4,214.3z"/>
		<path class="st0" d="M71.8,321.6c1.2-7.4,1.2-7.4,8.4-5.3c1.5,0.4,3.9,2.1,4.7-0.4c0.7-2.4-2.2-2.3-3.7-2.9
			c-1.8-0.7-3.7-1.3-5.6-1.8c-1.6-0.4-1.9-1.4-1.9-2.9c-0.1-5.6,0.6-6.2,6-4.8c0.3,0.1,0.6,0.2,1,0.2c1.3,0.2,2.9,1,3.5-0.6
			c0.8-2-1.3-2.2-2.6-2.8c-0.3-0.1-0.6-0.2-0.9-0.3c-6.8-2.1-6.9-2.3-5.1-9.7c1.7,0.3,3.5,0.6,5.3,0.9c1.1,0.2,2.5,0.6,3-0.7
			c0.7-1.8-1-2-2.1-2.6c-0.4-0.2-0.7-0.6-1.1-0.9c3.7-2.5,3.7-2.5,7.9,2.6c1.7-0.5,1-1.8,0.9-2.8c-0.5-5.2,0.3-10,2.1-14.9
			c2-5.7,3.4-11.6,4-17.7c0.4-4.6,0.4-9.1-1.7-13.4c-1.2-2.4-1-5.1-0.4-7.7c0.2-0.9,0.6-1.7,1.6-1.6c0.8,0.1,1.6,0.8,1.6,1.6
			c0.3,7.3,3.7,13.9,4.8,20.9c2,11.8,0.6,23.8-2.8,35.4c-0.9,3.1-2.2,4.7-5.5,5.1c-2.7,0.4-5.5,0.8-8.1,2.1c1.5,2.4,4.3,1.6,6.1,3
			c0,2.7-3.7,3.2-3.7,6.1c2.5,0.6,4.4-0.9,6.5-1.6c2.2-0.7,3.5-0.4,3.9,2c0.1,1,0.5,1.9,0.7,2.8c0.2,0.8,0.5,1.6,1.5,1.6
			s1.3-0.8,1.6-1.6c0.6-2,1.2-4.1,1.8-6.1c0.6-1.8,0.9-3.9,3-4.8l-0.1-0.1c-0.2,3.1,1.9,2.9,3.9,2.5c1.9-0.3,4.1-1.8,5.6-0.5
			c1.7,1.7,1.5,4.5,2.3,6.8c0.5,1.5-0.4,2-1.7,2.3c-2.2,0.5-4.5,1-6.7,1.5c-1.1,0.3-2.4,0.6-2.2,2.1c0.3,1.4,1.5,1.5,2.7,1.2
			c2.2-0.4,4.5-0.8,6.7-1.4c2.8-0.7,3.2,1.3,3.9,3.1c0.8,2,0,3-1.8,3.7c-1.7,0.6-3.5,0.9-4.9,2.1C100,321.6,85.9,321.6,71.8,321.6z"
			/>
		<path d="M100.3,3c-14.9,24.3-11.8,54.9,6.9,76.1c23.7,26.8,67.7,27.9,92.5,2.1c3.1-3.3,5.2-7.5,8.8-10.3c0,2,0,3.9,0,5.9
			c-2.4,0.8-2.9,3.3-4.5,4.9c-19.1,19.5-42.1,26.5-68.3,19c-25.6-7.4-41.4-25.1-47-51.2C85.3,33.1,88,17.5,96.4,3
			C97.7,3,99,3,100.3,3z"/>
		<path class="st0" d="M108.3,215.1c-3.7-0.1-6.1-1.5-8.5-2.8c-3.7-1.9-5-1-5.1,3.1c0,1.2,0.8,2.6-0.3,3.7c-1.6,0.2-1.9-0.9-2.2-2
			c-1.3-4.5-1.3-4.5-4.7-1c-0.1,0.1-0.2,0.3-0.3,0.4c-2.1,2-3.3,1.9-4.4-0.7c-0.6-1.5-0.5-3.6-2.6-3.7c-2.2-0.1-3.6,1.6-4.2,3.5
			c-0.7,2-1.5,2.8-3.9,2.1c-10.5-3-20.3-7.3-28.5-14.8c-7-6.4-11.4-14.3-13.8-23.4c-0.5-1.8-0.8-3.5-0.2-5.3
			c0.5-1.4,0.9-2.9,2.1-3.8c1.9-1.4,2.3,1.1,3.4,1.8c2.9,1.7,3.8,1.4,4.2-2c0.2-1.8,0.7-3.2,2.1-4.2c0.6-0.4,0.9-1.1,0.5-1.7
			c-0.6-0.8-1.4-0.6-2.2-0.2c-2,0.9-2.3,3-3.5,4.9c-1.5-0.7-0.7-3.9-3.2-3.3c-1.6,0.4-2.5,2-4.1,3.1c-1.2-1.6-0.6-3.2-0.6-4.7
			c0.5-11.9,1.1-23.9,1.5-35.8c0.3-11.3,0-22.6-4-33.4c-1.4-3.8-2-7.9-2.4-12c-0.1-1.4-0.1-2.8,1.9-2.4c6,0.9,11.7,0.5,16.8-3.4
			c1.4-1.1,1.9,0.2,2.4,1.3c2.6,6.8,0.3,13.8-6,17.9c-1.6,1.1-2.7,1.9-1,3.8c1,1.2,0.4,2.5,0.3,3.8c-0.6,8.7-0.7,17.3-0.5,26
			c0.3,8.9,4.1,15.9,9.6,22.5c1.4,1.7,3.9,2.8,3.1,6c-0.4,1.6,2,1.6,3.5,1.7c8.7,0.2,17.3,0.3,26,1.1c8.5,0.8,16.9,1.9,25.2,4.1
			c3.5,0.9,6.9,2,10.2,3.5c10.1,4.6,14.5,15.8,10.3,26.6c-1.7,0.1-2.2-1.7-3.4-2.4c-1.3-0.9-2.7-1.2-4.1-0.4
			c-1.6,0.8-1.8,2.2-1.5,3.7c0.3,1.6,0.7,3.2,0.8,4.8c0.1,1.4,0,2.9,0,4.6c-2.7,0.1-3.8-1.9-5.3-3.2c-1.1-1-2.2-2.2-3.8-1.4
			c-1.6,0.7-1.7,2.2-1.9,3.7C105.6,208.2,106.5,211.5,108.3,215.1z M104.4,194.6c-3.4,0.2-5.9-1.4-8.6-2.4c-0.9-0.3-1.8-1-2.7-0.2
			c-1.1,1-0.6,2.2,0,3.1c1,1.7,2.3,3.3,3.7,5.3c-4.6-0.2-8.2-1.3-11.5-3.6c-0.8-0.5-1.6-1.3-2.6-0.3s-0.2,1.8,0.4,2.6
			c1.8,2.4,3.1,4.8,2.2,8.2c-4.5-2-8.4-4.4-12.8-5.8c-7.9-2.6-14.6-7.3-20.8-12.7c-8.8-7.8-9.3-12.9-2.8-22.8
			c0.4-0.7,1.2-1.4,0.4-2.2c-1-1-1.8,0-2.4,0.6c-5.4,4.7-6.7,12.3-3.1,18.8c2.4,4.4,6.2,7.5,9.9,10.7c8.9,7.9,20.8,10.2,30.7,16.1
			c1.9,1.2,2.9-0.1,3.5-1.9c0.7-2.1,0-4.1-0.1-6c1.2-0.6,1.9-0.1,2.7,0.1c3.1,0.6,6.1,1.3,9.2,0.6c1.1-0.2,2.5,0.1,2.9-1.3
			c0.5-1.6-1.1-1.7-1.9-2.4c-1.1-0.8-2.6-1.3-3.2-3.4c4,1.4,7.8,2.2,11.7,2c0.8,0,1.7,0,2-1c0.2-0.9-0.3-1.5-1.1-1.9
			c-1.9-1.2-4-2.3-5.3-5.2c4.7,1,8.8,1.5,12.7,0c1.3-0.5,3.2-0.8,3.1-2.6c-0.1-1.6-1.8-1.6-3-2c-3-0.9-5.9-2-8.4-3.9
			c-0.7-0.6-1.7-1.5-2.5-0.4c-0.8,1,0.3,1.8,0.9,2.4c1.9,1.9,4.9,2.4,7.3,4.4c-4.2,1.1-7.7,0-11.1-1c-1-0.3-2-0.5-2.8,0.3
			c-1,1-0.4,2.2,0.2,3.1C102.1,191.4,103.2,192.9,104.4,194.6z M76.4,189.8c-8.7-2.1-15.1-5.9-20.2-12c-0.8-1-1.6-2.1-2.4-3.1
			c-0.5-0.6-1.1-0.7-1.7-0.1c-0.4,0.3-0.5,0.9-0.2,1.3c0.4,0.7,0.8,1.4,1.3,2.1c5.7,7.7,13.6,12.2,22.7,14.4c3.4,0.8,4.1,0,2.9-3.6
			c-1.1-3.3-2.5-6.5-3.8-9.8c1.9-0.5,3.2,0.2,4.7,0.4c4.1,0.7,8.1,0.7,12.2,0.2c1-0.1,2.3-0.4,2.3-1.5c-0.1-1.8-1.6-1.2-2.6-1.1
			c-11.2,1.5-21-2.3-30.3-7.7c-1-0.6-2-1.2-3-1.7c-0.7-0.4-1.6-0.7-2.1,0.2c-0.4,0.8,0.2,1.6,0.9,2c2.8,1.6,5.6,3.5,8.6,4.8
			C71.9,177.5,73.8,183.2,76.4,189.8z"/>
		<path class="st0" d="M118.6,233c0.5,1,0.7,1.6,1,2.1c1.8,3.3,4.2,3.5,6.3,0.5c2.8-4,3.8-8.6,4.2-13.4c1.8,0.1,1.7,1.5,2.2,2.5
			c0.7,1.3,1.6,1.8,3.2,1.2c4.8-1.9,5.4-1.5,5.3,3.7c0,0.6-0.1,1.3-0.2,2.2c-2.4,0.2-4.4-1.2-6.5-1.7c-1.2-0.3-2.4-0.5-2.8,1
			c-0.3,1.1,0.6,1.8,1.6,2.1c1.7,0.7,3.3,1.4,5,1.9c2.6,0.7,3.3,2.3,3,4.7c-0.1,1.1,0.1,2.4-1.3,2.9c-1.3,0.5-2.5,0.6-3.6-0.5
			c-1.6-1.6-3.2-3.2-4.9-4.8c-0.8-0.8-1.9-1.6-2.9-0.4c-0.8,0.9-0.2,1.8,0.4,2.6c1.2,1.5,3,2.6,3.8,4.4c-5,3.7-5,3.7-9.4-0.5
			c-0.4-0.3-0.7-0.7-1.1-1c-0.9-0.7-1.8-1.8-3-0.8c-1.4,1.2-0.1,2.3,0.6,3.3c1.1,1.6,4.3,2.5,3.3,4.8c-1.1,2.6-3.8,0.7-5.8,0.6
			c-5-0.2-5.8-1-6.7-5.9c-0.3-1.6-0.4-3.2,0.1-5.1C115.4,240.5,116.9,236.8,118.6,233z"/>
		<path class="st0" d="M87.6,284.8c-3.4-4.3-5.6-0.2-8.4,0.2c-1.1-1.8,1.4-2.7,1.1-4.3c-1.4-1.3-3.5-0.7-5-1.8c0.9-1,2.1-1,3.2-1.3
			c6.3-1.8,6.3-1.7,7-8.5c1.1-11.9,2.2-23.8,0.1-35.8c-0.4-2.2,0.5-3.9,2.3-5c0.9-0.6,2.1-1.3,3.2-0.3c1,0.9-0.2,1.7-0.5,2.6
			c-1.3,4.2-1.7,8.3,0.4,12.4c1.6,3.2,1.7,6.6,1.3,10.1c-0.7,6.2-2.1,12.3-4,18.2c-1,3.1-2.2,6.1-0.6,9.4
			C88,281.7,87.6,283,87.6,284.8z"/>
		<path class="st0" d="M108.9,231.1c-2.8,7.7-3.3,14.6,0.8,21.1c0.5,0.8,0.2,1.5,0,2.3c-0.7,2.8,0.2,5.3,2.1,7.2
			c1.7,1.7,2.4,3.5,1.2,5.7c-1.3,2.3-3.4,1.3-5.3,1.3c-1.4,0-2.1-0.8-2-2.2c0.3-3.6-1.1-7.2,0.1-10.7c0.6-1.8-0.4-3.1-1.1-4.6
			c-2.2-4.6-3.6-9.5-4.3-14.5c-0.4-2.5,0.1-4,3.1-4.2C104.9,232.5,106.5,231.8,108.9,231.1z"/>
		<path class="st0" d="M92.8,302.6c1.5-2.4,2.9-4.2-1.1-5.1c1.1-1.9,2.8-1.6,4.1-1.8c3.9-0.4,5.5-2.7,6.4-6.3c1-4.3,1.9-8.6,2.7-13
			c0.8-4.7,0.8-4.7,6-3.4c0.1,2.5-1.1,4.7-1.4,7.1c-0.4,2.9-3.6,2.1-4.6,3.9c-1.1,2,3.4,2.2,1.7,4.8c-1.3,1.9-1.8,4.2-3.1,6.1
			c-1.4,2.1-1.3,5-2.8,6.6c-1,1.1-4-1.1-6,0.5C94.1,302.4,93.4,302.4,92.8,302.6z"/>
		<path class="st0" d="M74.2,63c-8.2,4.3-16.5,8.6-24.7,12.9c-0.9,0.5-1.8,1-2.7,0.1s-1.2-2-0.6-3.1c1.8-3.1,3.2-6.2,7.6-6.8
			c6.8-0.9,13.4-2.6,20.2-4C74,62.4,74.1,62.7,74.2,63z"/>
		<path class="st0" d="M137.5,190.2c6.3,2.5,6.3,2.5,5.5,8.6c-0.2,1.8-0.4,3.6-0.7,5.3c-0.1,0.7-0.4,1.4-1.1,1.4
			c-0.9,0.1-1.5-0.6-1.8-1.4c-0.1-0.3-0.1-0.6-0.2-1C138.6,198.9,138,194.6,137.5,190.2z"/>
		<path class="st0" d="M76.5,268.3c-0.2,0-1.4,0.1-2.3-0.4c-1.2-0.7-1.3-2.2-1.2-3.5c0.1-1.2,1.2-1.4,2.1-1.6
			c0.8-0.2,1.6-0.4,2.4-0.4c1.7,0,3.6-1.8,4.9,0.1c0.8,1.1,0.1,2.9-0.3,4.2C81.4,268.3,81.1,268.4,76.5,268.3z"/>
		<path class="st0" d="M106.3,298.2c1.5-3.6,3-7.1,4.4-10.7c0.3-0.8,0.8-1.5,1.7-1.4c1,0,1.3,0.8,1.5,1.6c0,0.2,0.1,0.3,0.1,0.5
			c1.9,7.3,1.9,7.3-5.6,9.1c-0.8,0.2-1.5,0.5-2.3,0.7C106.2,298,106.3,298.2,106.3,298.2z"/>
		<path class="st0" d="M77,276.3c-2.3,0.5-2.6-0.7-2.9-2.1c-0.4-2.5,1.2-2.7,2.9-2.5c1.5,0.2,4.1-1.2,4.2,1.7
			C81.3,276.5,78,275.2,77,276.3z"/>
		<path class="st0" d="M141.4,214.3c-0.2,2.1-0.3,3.7-0.5,5.3c-0.1,0.8-0.2,1.7-1.3,1.5c-0.8-0.1-1.7-0.7-1.6-1.6
			c0.3-3,0.7-6.1,1.2-9.1c0.1-0.3,0.7-0.8,1-0.8c0.4,0,0.9,0.4,1.1,0.8C141.9,211.9,141.3,213.3,141.4,214.3z"/>
		<path d="M104.4,194.6c-1.2-1.7-2.2-3.1-3.2-4.6c-0.6-1-1.2-2.1-0.2-3.1c0.8-0.8,1.8-0.6,2.8-0.3c3.4,1,6.9,2.1,11.1,1
			c-2.4-2-5.3-2.5-7.3-4.4c-0.7-0.7-1.7-1.4-0.9-2.4c0.8-1.1,1.8-0.2,2.5,0.4c2.5,2,5.4,3,8.4,3.9c1.2,0.4,2.9,0.4,3,2
			c0.1,1.8-1.8,2.1-3.1,2.6c-4,1.5-8,1-12.7,0c1.3,2.9,3.3,4,5.3,5.2c0.8,0.5,1.3,1,1.1,1.9c-0.3,1-1.2,1-2,1
			c-3.9,0.2-7.7-0.6-11.7-2c0.6,2.1,2.1,2.6,3.2,3.4c0.9,0.6,2.4,0.8,1.9,2.4c-0.4,1.4-1.9,1.1-2.9,1.3c-3.1,0.7-6.2,0-9.2-0.6
			c-0.8-0.2-1.5-0.7-2.7-0.1c0.1,1.9,0.8,3.9,0.1,6c-0.6,1.9-1.6,3.1-3.5,1.9c-9.9-5.9-21.8-8.2-30.7-16.1
			c-3.7-3.3-7.5-6.4-9.9-10.7c-3.6-6.4-2.3-14.1,3.1-18.8c0.7-0.6,1.4-1.7,2.4-0.6c0.7,0.8,0,1.5-0.4,2.2c-6.5,9.9-5.9,15,2.8,22.8
			c6.1,5.5,12.8,10.1,20.8,12.7c4.4,1.4,8.3,3.8,12.8,5.8c0.9-3.4-0.5-5.8-2.2-8.2c-0.6-0.8-1.3-1.6-0.4-2.6c1-1,1.8-0.2,2.6,0.3
			c3.3,2.3,7,3.4,11.5,3.6c-1.4-2-2.7-3.6-3.7-5.3c-0.6-0.9-1.1-2.2,0-3.1c0.9-0.8,1.8-0.2,2.7,0.2
			C98.4,193.2,101,194.8,104.4,194.6z"/>
		<path d="M76.4,189.8c-2.6-6.6-4.5-12.3-10.9-15.1c-3-1.3-5.7-3.1-8.6-4.8c-0.7-0.4-1.4-1.2-0.9-2c0.5-0.9,1.4-0.6,2.1-0.2
			c1,0.5,2,1.1,3,1.7c9.4,5.5,19.2,9.2,30.3,7.7c1-0.1,2.6-0.7,2.6,1.1c0,1.1-1.3,1.3-2.3,1.5c-4.1,0.5-8.2,0.5-12.2-0.2
			c-1.4-0.2-2.8-1-4.7-0.4c1.3,3.3,2.7,6.5,3.8,9.8c1.2,3.6,0.6,4.4-2.9,3.6c-9.2-2.2-17-6.7-22.7-14.4c-0.5-0.7-0.9-1.4-1.3-2.1
			c-0.3-0.5-0.1-1,0.2-1.3c0.6-0.5,1.2-0.5,1.7,0.1c0.8,1,1.6,2.1,2.4,3.1C61.3,183.9,67.7,187.7,76.4,189.8z"/>
		<circle cx="37.2" cy="71.1" r="1.8"/>
		
			<linearGradient id="SVGID_1_" gradientUnits="userSpaceOnUse" x1="105" y1="910" x2="105" y2="1234" gradientTransform="matrix(1 0 0 1 0 -910)">
			<stop  offset="0" style="stop-color:#EB1A21"/>
			<stop  offset="1" style="stop-color:#A51A21"/>
		</linearGradient>
		<path class="st3" d="M210,324c-70,0-140,0-210,0C0,216,0,108,0,0c70,0,140,0,210,0C210,108,210,216,210,324z M199.9,162.6
			c0-46.5-0.2-87.6-0.2-134.1c0-9.4-3.5-18.1-13-18.1c-50.8,0-101-0.4-151.8-0.4c-4,0-8.3,0.5-12.3,0.7c-5.9,0.2-11.3,6.1-11.3,11.8
			c0,93.3-0.4,182.4-0.4,275.8c0,1.5,0.2,1.6,0.3,3.1c0.7,6.6,5,12.6,11.3,12.6c55.5,0,107.4,0.2,162.9,0.3c1.9,0,3.6-0.7,5.3-1.7
			c5.5-3,9.5-6,9.5-12.1C200.1,254,199.9,208.9,199.9,162.6z"/>
		<path d="M200.8,161.4c0.1-9.1,0-18.3,0.1-27.6c0.2-36.3,0.1-72.7,0-109c0-9.1-6.8-15.3-16-15.3c-52.8,0-105.7,0-158.5,0
			c-9.4,0-15.6,6.2-15.6,15.8c0,38.4,0.2,76.7,0.1,115.1c0,29.5-0.4,58.9-0.5,88.4c-0.1,23.5-0.1,47-0.1,70.4
			c0,8,6.5,15.3,13.7,15.3c54.3,0.1,108.6,0,162.9,0c2.2,0,4-0.5,5.9-1.8c5.1-3.5,8.1-7.9,8-14.4
			C200.7,252.7,200.8,207.1,200.8,161.4z M186.5,310.2c-3,0-3.7,0-3.7,0s-103.1,0-154.7,0c-8.3,0-13.1-4.5-13-14.9
			c0-22.8,0-45.6,0.1-68.4c0.1-28.6,0.5-57.2,0.5-85.9c0.1-37.3-0.2-75.1-0.1-112.3c0-7.9,2.5-14.8,12.6-14.8
			c50.2,0,105.1,0.2,155.3,0.2c8.7,0,13,5.3,12.6,14.1c0,35.2,0,106.5,0,106.5v27c0,0,0,91.6,0.1,135.9
			C196,304.4,191.2,309.6,186.5,310.2z"/>
	</g>
	<g>
		<g>
			
				<ellipse transform="matrix(9.053396e-02 -0.9959 0.9959 9.053396e-02 -127.5293 412.3638)" class="st1" cx="162" cy="276" rx="34.7" ry="34.7"/>
			<path d="M162,312.2c-19.9,0-36.2-16.2-36.2-36.2s16.2-36.2,36.2-36.2s36.2,16.2,36.2,36.2S181.9,312.2,162,312.2z M162,242.8
				c-18.3,0-33.2,14.9-33.2,33.2s14.9,33.2,33.2,33.2s33.2-14.9,33.2-33.2S180.3,242.8,162,242.8z"/>
		</g>
		<g>
			<path class="st4" d="M147.9,270.4c0.1,0.2,0.7,0.8,1.4,0.8l0,0c0.4,0,0.7-0.2,1-0.5c0.2-0.2,1.5-1.6,1.5-2.4
				c0-0.3-0.2-0.7-1.2-2.2c-0.6-0.9-1.4-2.3-1.5-2.7c-0.2-0.9-0.8-1.3-1.7-1.3c-0.5,0-1,0.1-1.2,0.4c-0.3,0.3-0.4,0.7-0.4,1.5
				s0.2,1.9,0.7,3.3C147,268.7,147.5,269.7,147.9,270.4z"/>
			<path class="st4" d="M183.1,286.2c-0.5-1.1-1-2-1.8-1.9c-0.7,0.1-1,1.1-1,3.9v3.2l-1.4,0.7c-0.4,0.2-0.6,0.2-2.1,0.2
				c-0.5,0-1.2,0-2.2,0c-2.9,0.1-4.7,0.2-5.8,0.3c-0.3,0-0.5,0-0.8,0.1c-0.9,0.1-1.7-0.1-2.5-0.5s-1.3-0.9-1.6-1.5
				c-0.2-0.5-0.1-1.1,0-1.7c0-0.2,0.1-0.3,0.1-0.4c0.2-0.6,0.3-1.1,0.5-2.5c0.2-1.8,0.7-4.6,2-8.4c0.1-0.4,0.1-1.1-1.1-1.8
				c-0.7-0.4-1.4-0.8-2.2-1.1c-0.2-0.1-0.3-0.1-0.4-0.2c0.2-0.1,0.6-0.2,1.1-0.3c1.2-0.3,2.4-0.5,3.5-0.6c1,0,2,0.2,3.2,0.8
				c2,1,2.1,1,2.2,1c0.5,0,0.8-0.5,1.3-1.8c0.4-1.3,0.5-1.8,0.2-2.1c-0.1-0.2-0.5-0.5-2.9-1.9c-2-1.2-3.3-1.6-4-1.1
				c-0.3,0.2-0.6,0.5-0.6,1.3v0.1c-0.3,0-0.9,0.1-3.1,0.6c-1.1,0.3-1.6,0.3-1.8,0.4v-0.1c0-0.1,0-0.5,0.9-0.9
				c1.1-0.5,3.6-2.8,7.8-6.9c2.3-2.2,3.7-3.6,4.3-4.4c0.6-0.9,0.9-1.7,0.8-2.4c-0.1-0.7-0.6-1.4-1.5-1.9c-0.8-0.5-1.1-0.7-1.3-0.8
				c-0.3-0.4-0.7-0.6-1.1-0.8c-0.5-0.2-1-0.3-1.4-0.2c-0.6,0.1-1,0.5-1,1.1c0,0.5,0.3,1.1,0.9,1.9c0.4,0.6,0.4,0.8,0.4,0.8
				s-0.1,0.3-0.7,1.5c-0.6,1-2.1,3-4.4,5.9c-2,2.5-3,3.6-3.5,4c0-0.3,0-0.8,0-1.3c0-0.6,0-1.4,0.1-2.5c0.2-4,0.4-6.7,0.6-8.1
				c0.2-1.6,0.5-2.2,0.7-2.6c0.5-0.9,0.7-1.5,0.5-2.1c-0.2-0.5-0.7-1.1-1.7-1.8c-0.5-0.3-1-0.6-1.5-0.8c-1.3-0.5-2.1-0.6-2.6-0.3
				c-0.3,0.2-0.4,0.5-0.4,0.8s0.1,0.7,1.1,1.7c0.3,0.3,0.4,0.7,0.4,1.2c0,0.6-0.1,2.1-0.3,4.5c-0.8,9.6-1.3,14.7-1.3,15.5
				c0,0.1,0,0.1,0,0.1s-0.1,0-0.3,0c-0.4,0-1.1,0.1-3.4,0.9c-4.3,1.7-7.8,2.7-10.3,2.8c-1.9,0.1-2.8,0.4-2.9,1
				c-0.2,0.9,0.6,1.7,1.3,2.3c1,0.9,1.8,1.2,2.5,1c0.1,0,0.4-0.2,1.5-0.6c0.9-0.3,1.8-0.6,2.7-0.9s2-0.6,3.2-1
				c0.9-0.3,1.7-0.5,2.4-0.7c0,0.2,0,0.5,0,0.8c-0.1,1.1-1.6,3.9-8.4,10.8c-4.1,4.1-5.1,4.5-5.3,4.5c-1.3,0-1.4,0.8-1.4,1.1
				c0,0.5,0.3,0.9,0.8,1c1.1,0.2,2.9-0.5,5.3-2.1c1.3-0.9,3.2-2.5,5.6-4.8c2.4-2.3,4.3-4.3,5.6-5.8c0.9-1.1,1.5-2.2,2-3.1
				c0.2-0.4,0.8-1.7,0.1-2.4c-0.2-0.2-0.5-0.4-1.4-0.6l1.1-0.3c1.1-0.3,1.6-0.3,1.9-0.3c0.1,0,0.2,0,0.3,0.1
				c0.1,0.5,0.4,1.1,1.1,1.7l0.7,0.8l-0.9,3.6c-0.6,2.6-1,5-1.1,7.2c-0.2,1.5-0.2,2.5-0.1,3c0.1,0.6,0.4,1.2,1,2
				c0.9,1.1,2,1.8,3.3,2.3c1.4,0.5,3.7,0.4,7,0.4c1.1,0,2.3,0,3.6,0c1.9,0,3,0,3.6,0.1c0.3,0,0.5,0,0.7,0c0.5,0,0.8-0.1,1.5-0.3
				l0.3-0.1c1.4-0.5,2.2-1.8,2.5-3.9C184.3,290.1,184,288.1,183.1,286.2z"/>
		</g>
	</g>
	<g>
		<path class="st0" d="M39.5,305.2H27.8v-56.7l-9.3,4.6v-12.1l10.3-5.7h10.7V305.2z"/>
	</g>
</g>
</svg>
