<?xml version="1.0" encoding="utf-8"?>
<!-- Generator: Adobe Illustrator 22.0.1, SVG Export Plug-In . SVG Version: 6.00 Build 0)  -->
<svg version="1.1" id="레이어_1" xmlns="http://www.w3.org/2000/svg" xmlns:xlink="http://www.w3.org/1999/xlink" x="0px"
	 y="0px" viewBox="0 0 210 324" style="enable-background:new 0 0 210 324;" xml:space="preserve">
<style type="text/css">
	.st0{fill:url(#SVGID_1_);}
	.st1{fill:#010101;}
	.st2{fill:#FEFEFE;}
	.st3{fill:#050505;}
	.st4{fill:#FFC40A;}
	.st5{fill:#EB1A21;}
	.st6{fill:#DFDFDF;}
	.st7{fill:#FFFFFF;}
</style>
<g>
	<g>
		
			<linearGradient id="SVGID_1_" gradientUnits="userSpaceOnUse" x1="105" y1="908" x2="105" y2="1232" gradientTransform="matrix(1 0 0 1 0 -908)">
			<stop  offset="0" style="stop-color:#EB1A21"/>
			<stop  offset="1" style="stop-color:#A51A21"/>
		</linearGradient>
		<path class="st0" d="M210,324c-69.6,0-140.3,0-210,0c0-4.1,0-8.5,0-12.7C0,209.2,0,0,0,0h4.8c0,0,133.9,0,200.9,0c1.3,0,3,0,4.3,0
			C210,107.7,210,216.4,210,324z"/>
		<path class="st1" d="M200.3,161.5c0,45.7-0.1,91.3,0.1,137c0,6.6-3,10.9-8,14.4c-1.8,1.3-3.7,1.8-5.9,1.8c-54.3,0-108.6,0-162.9,0
			c-7.2,0-13.7-7.3-13.7-15.3c0-23.5,0-47,0.1-70.4c0.1-29.5,0.5-58.9,0.5-88.4c0.1-38.4-0.1-76.7-0.1-115.1
			c0-9.6,6.1-15.8,15.6-15.8c52.8,0,105.7,0,158.5,0c9.2,0,15.5,6.3,15.5,15.4c0,36.3,0.2,72.5,0,108.8
			C199.8,143.1,199.8,152.3,200.3,161.5z"/>
		<path d="M22.2,309.8c-5.7-3.1-7.7-7.8-7.6-14.4c0.2-46.9,0.1-93.8,0.1-140.7c0-1.9-0.1-3.9-0.2-5.8c3.1-1,5.7-2.6,7.3-5.6
			c1.6-2.9,4.5-2.7,6.6-1.1c9.1,6.8,16.6,14.5,19.9,26.2c8.1,28.5,19.2,55.8,37.1,79.8c2,2.7,3.8,3.3,6.9,3.1
			c13.4-0.8,26.8-1.5,40.2-2.2c2.3-0.1,4.9,0.4,6.3-2c1.4-2.6-0.9-4.4-2.1-6.2c-16.1-25.4-27.4-52.9-35.5-81.8
			c-5.1-18.3-8.4-36.9-11.1-55.7c-0.8-5.7,0.6-10.7,4.4-14.9c6.5-7,13.2-13.7,21.4-18.8c2.6-1.6,5.1-2.2,7.3,0.4
			c1.9,2.2,4.2,2,6.4,0.7c3.6-2.1,5.4-0.2,6.6,2.8c5.8,14.4,10.8,29.1,13.6,44.3c1.8,9.8,3.1,19.7,3.8,29.7c1,14.8,1.7,29.6,1,44.5
			c-0.7,15.9-1.8,31.8-3.8,47.6c-0.3,2.2-0.7,4.4-0.4,6.7c0.3,3.6,1.9,5.1,5.6,4.1c0.7-0.2,1.7-0.2,2.5-0.4c3.6-0.8,5.5,0.1,5.5,4.2
			c0,3.4,2.2,5.4,5.5,4.8c4.2-0.8,5.3,2.1,5.7,4.8c1.8,11.7,2.4,23.5,0.6,35.4c-0.5,2.9-1.7,5.7-2.8,8.4c-0.8,2.1-2.1,2.6-4,2.6
			c-3.1-0.1-6.1,0-9.2,0c-44.1,0-88.2,0-132.4,0C25.7,310.2,23.9,310.6,22.2,309.8z"/>
		<path class="st2" d="M18.3,120.1c-3.1-0.4-3.8-2.1-3.8-5.2c0.1-29.3,0.3-58.6-0.1-87.8c-0.1-6.9,6-13.1,13-13
			c51.7,0.3,103.4,0.2,155,0.2c8.3,0,12.9,4.5,12.9,12.8c0,90.1,0,180.2,0.1,270.3c0,6-2.9,9.6-7.6,12.5c-2.3,0.9-4.8,0.4-7.2,0.3
			c-1.5,0-5.1,1.4-2.9-2.8c0.3-0.6-0.6-0.5-0.8-0.7c-3.5-3.6-2.7-6.2,2.4-7.7c-3.7-1.6-4.2-4-1.8-7.5c0.4-0.5,1.9-0.2,1-1.9
			c-2.9-5.2-2.5-6.1,2.5-8.8c0.6,0-0.3-0.7,0-0.1c0.1,0.2,0,0.3-0.4,0.3c-3.9-0.4-5.9-4.4-3.5-7.8c1-1.4,0.9-1.2-0.2-2.3
			c-2.7-2.6-2.2-6.5,0.8-9.4c-3.9-0.7-4.9-2.6-2.3-5.3c2.5-2.6,4.4-5.5,5.6-8.9c0.8-2.2,1-4.3-0.7-6c-1.8-1.9-4.1-1.2-6.1-0.3
			c-2.8,1.3-5.1,3.4-8.6,2.9c-1.6-0.2-2.2,1.6-2.9,2.9c-1.2,2.2-3.1,3.2-5.5,3.6c-0.6,0.1-1.3,0.1-1.8,0c-3.1-0.7-1.8-4.4-4.2-6.2
			c-1.8-1.4-1.3-5,1.5-6.6c1.2-0.7,0.9-0.7,0.2-1.7c-3.1-4.1-1.3-9.3,3.7-11.5c-2.2,0.3-3.7-0.4-3.9-2.7c-0.3-3.4,2.4-4.2,4.5-4.9
			c-1.8,0.4-3.2-0.2-3.8-2.6c-1.1-4.5,0.7-8.5,4.7-10.5c0.6,0.1-0.2-0.7,0-0.1c0.1,0.3-0.1,0.2-0.4,0.2c-2,0-3.1-0.9-3.2-2.8
			c-0.2-2.1,1-3.3,2.8-4c-1-1-2.8-1.3-2.8-3.1c0-1.7,0-3.3,0-5c0-2.9,0.8-5.1,4-5.8c-4.8-2.8-4.8-4.9-0.2-9.1
			c-4.8-2.5-5.3-8.5-0.9-12.1c-3.4-2.2-4.5-5-2.4-7.8c1.3-1.8,0.6-2.2-0.4-3.4c-2.2-2.6-1.6-8.8,0.8-11.3c0.1-0.1,1.2-0.3,0.3-0.8
			c-3.6-2-5.6-9.1-2.9-11.7c1.7-1.6,0.8-1.3-0.4-1.7c-1.2-0.4-1.6-1.5-1.9-2.6c-0.7-2.3,0.2-4,1.7-5.6c-2.1-0.7-3-2.1-3.5-4.4
			c-0.5-2,2-3.2,0.8-4.5c-4.2-4.8-4.2-6.5,0.6-10.7c0.6-0.3-0.4-0.5,0-0.1c-1.7,1.6-3.6,1.7-5,0c-2-2.6-2.5-5.4,0.4-7.9
			c-0.4-0.5-0.9,0-1.4-0.1c-3.2-0.7-4.4-4-3.8-5.8c1-3.3-1.5-3.9-2.6-5.6c-1.4-2.4-1.8-4.8,0.6-6.9c-4.5-0.3-5.6-1.6-4.3-5.7
			c1.1-3.4,1.9-6.8,1.1-10.4c-0.6-2.7-1.9-5-4.6-5.6c-2.8-0.6-4.9,1.1-6.4,3.4c-2,3.1-3.2,6.4-2.9,10.2c0.1,2.1-0.2,4.2-2.8,4.6
			c-2.7,0.3-3.1-1.8-3.4-3.9c0.7,6.1-0.2,8.6-3.6,9.1c-4.4,0.6-3.6-3.3-4.6-5.5c-0.2-0.8-0.6,0.4-0.1,0c0.2-0.1,0.3,0,0.3,0.3
			c0.3,3.7,2.7,7.6-1.7,10.6c-1.5,1-2.6,2.4-4.6,1.7c-2.1-0.7-2.3-2.5-2.6-4.2c-0.2-1.1-0.3-2.2-0.3-2.5c0.5,1.7,0.5,4.3,1.4,6.7
			c1,2.8,0.1,5.3-2.9,6.2c-2.8,0.8-3.6-1.4-4.8-3.5C87,74.9,87,66.7,87.2,58.3c0.1-2.6,0-5.3-0.1-7.9c-0.2-7.2-0.3-7.5-7.1-7.3
			c-16,0.6-32,0.6-48,1c-3.3,0.1-4.6,1.4-4.3,4.7c2.4,27,5.6,53.9,11,80.4c1.1,5.1,0.5,9.4-1.8,13.9c-1.1,2.1-2.3,3-4.6,2
			c-2.1-0.9-3.7-2.2-2.8-4.8c0.6-1.7,1.1-3.4,1.6-4.8c-0.3,0.6-0.3,1.5-0.6,2.3c-0.6,1.7-1.5,3.4-3.7,3s-2.8-1.9-2.6-4.2
			C24.7,130.1,22.5,124.7,18.3,120.1z"/>
		<path class="st3" d="M18.3,120.1c4.5,1.1,5.7,4.8,6.8,8.6c0.6,2.2,0.7,4.4,0.7,6.7c0,1.3-1,3.4,0.9,3.8c2.4,0.4,1.7-2.2,2.3-3.5
			c0.9-2.1,1.4-4.3,2.1-6.4c0.3-0.8,0.9-1.4,1.8-1.3c1.2,0.2,1.5,1.3,1.2,2.2c-0.7,2.8-1.4,5.7-2.4,8.4c-1,2.9-0.3,4.6,2.6,5.4
			c2.5-5.8,3.4-11.4,2-17.8c-5.3-25.8-8.5-52-10.4-78.4c-0.4-5.3-0.3-5.4,5.1-5.5c17.5-0.3,35-0.7,52.4-1c4.9-0.1,5.1,0,5.2,5.2
			c0.2,7.6,0.3,15.2,0.5,22.8c0.1,2.2-0.2,4.5,2.4,5.8c1.1,0.6,1,2.3,1.4,3.5c0.8,2.1,0.5,4.5,2.2,6.3c2.2-1,2.5-2.7,2-4.8
			c-0.8-3.8-1.4-7.6-2-11.5c-0.2-1.1-0.4-2.5,1-2.9c1.8-0.5,2.1,1,2.4,2.3c0.7,3.5,1.3,6.9,2,10.5c6-3.1,6.1-3.4,5-9.4
			c-0.4-2.4-0.9-4.8-1.3-7.2c-0.2-1.2-0.1-2.5,1.3-2.7c1.5-0.2,1.7,1.1,2,2.2c0.9,3.3,0.8,6.7,2.2,9.9c3.5-0.8,4.2-3.1,3.6-6.2
			c-0.4-2.4-0.7-4.8-0.9-7.2c-0.1-1,0.2-2.1,1.4-2.2c1.1-0.1,1.7,0.9,1.9,1.8c0.7,2.9,0.3,6.1,1.9,8.9c2.4-0.9,1.5-2.8,1.5-4.3
			c0.2-4.7,1.6-9,4.8-12.4c4.5-4.8,10.4-3.3,12.4,2.9c1.3,4,0.9,8-0.5,11.9c-0.6,1.6-1.6,3.3,0.5,4.8c2.1-0.9,2.6-3.2,3.9-4.7
			c0.8-0.9,1.6-1.9,2.8-0.9c0.9,0.7,0.6,1.8,0.1,2.6c-1,1.7-2,3.4-3.2,4.9c-1.8,2.2-2,4.3,0,6.6c1.8,0.1,2.4-1.7,3.6-2.6
			c1-0.7,2-2.1,3.3-0.7c1.1,1.3-0.1,2.4-1,3.3c-0.3,0.4-0.6,0.8-1,1c-3.7,2.4-3.4,5.4-1.1,8.9c1.7-0.7,2.3-2.4,3.5-3.6
			c1-1,1.9-2.9,3.4-1.4c1.5,1.3-0.1,2.6-0.9,3.7c-0.7,1.1-1.5,2.1-2.4,3c-2.2,2.3-2.7,4.7-0.7,7.3c1.6,0,2.4-1.4,3.7-2
			c1.8-0.9,3.7-4.4,5.5-1.9c1.7,2.4-2.2,3.2-3.6,4.8c-0.8,0.9-2,1.7-3,2.4c-1.2,0.9-1.4,2-1.1,3.4c0.4,2.4,1.1,3.6,3.8,1.9
			c1.6-1,3.9-3.8,5.3-1.4c1.6,2.7-2.2,3.4-3.9,4.4c-3.2,1.8-4.1,3.8-1.8,7c1.8-1.1,3.4-2.1,5.1-3c0.8-0.4,1.6-0.3,2.1,0.4
			c0.5,0.8,0.3,1.6-0.4,2.2c-1.3,1-2.5,2.1-3.9,2.8c-2.4,1.4-3,3.2-1.8,5.7c2.4-0.1,3.2-2.4,4.9-3.5c1-0.6,2-1.4,3-0.2
			c0.7,0.9,0.2,1.8-0.5,2.6c-0.8,0.8-1.5,1.8-2.5,2.3c-5.2,3.1-4.3,7.5-3,12.1c1.9,0,2.6-1.6,3.7-2.3c1.4-0.9,2.7-3.5,4.3-1.7
			c1.9,2.1-1.2,3-2.3,4.4c-0.4,0.5-0.9,1-1.4,1.3c-5,3-4.4,7.2-2.9,11.8c1.9-0.3,2.9-1.7,4.2-2.6c1-0.6,2.1-1.2,3,0
			c0.7,1,0,1.9-0.8,2.5c-1.3,1.2-2.7,2.4-4.1,3.4c-2.4,1.6-3,3.5-1.9,6.1c2.5-0.5,3.8-2.6,5.9-3.5c0.8-0.3,1.6-0.4,2.2,0.3
			c0.6,0.8,0.3,1.6-0.3,2.2c-0.9,0.9-1.9,1.8-3,2.4c-4.9,2.5-5.9,6.4-4.1,11.3c1.7-0.1,2.4-1.6,3.6-2.3c1.4-0.8,2.7-3.4,4.3-1.4
			c1.5,1.9-1.1,2.9-2.3,4.1c-1.3,1.4-2.8,2.7-4.4,3.9c-1.6,1.3-2.1,2.7-1.3,4.6c1.9,0.2,3.1-1.1,4.6-1.7c1.3-0.5,2.9-2,3.8-0.2
			c1.1,2.1-1.2,2.5-2.4,3.4c-0.3,0.2-0.6,0.3-0.9,0.5c-6.4,3.5-6.4,3.5-5.6,11.4c1.5,0.5,2.4-0.7,3.5-1.2c1.6-0.6,3.7-3.2,4.9-0.7
			c1.2,2.3-2,2.8-3.4,3.8c-1.3,1-2.8,1.7-4.2,2.4c-1.1,0.6-2,1.5-1.1,2.7c0.7,1,1.7,0.1,2.6-0.2c1.5-0.5,3-1.2,4.5-1.8
			c1-0.4,2-0.2,2.3,1c0.3,0.9-0.3,1.6-1,2c-0.9,0.5-1.7,0.8-2.6,1.2c-7.1,3.2-7.1,3.2-6.7,11.3c2.6-0.1,4.4-1.9,6.5-2.9
			c1.2-0.5,2.5-1.3,3.3,0.4c0.6,1.3-0.6,2-1.6,2.6c-2.4,1.4-4.8,2.6-7.2,4c-1.2,0.7-2.2,1.4-1.4,3.3c2-0.1,3.4-1.5,5.1-2.3
			c1.2-0.5,2.6-1.6,3.4-0.1c1.1,1.8-0.8,2.5-2,3.2c-0.8,0.5-1.7,1-2.5,1.4c-5.6,3.1-5.6,3.1-5.5,9.8c1.8,0.3,2.9-1.1,4.3-1.8
			c1.2-0.6,2.5-1.4,3.4,0.1c0.8,1.6-0.7,2.2-1.8,2.9c-1.5,0.9-3,2-4.6,2.7c-2.6,1.1-3,3-2.4,5.5c1.7-0.4,2.3-1.9,3.3-2.9
			c0.9-0.9,1.9-2.3,3.2-1.3c1.7,1.3,0.1,2.6-0.8,3.7c-1.2,1.5-2.5,2.9-4.1,4.8c3.3,0.5,5.5-0.3,7-3.1c0.9-1.7,1.7-3.5,2.7-5.1
			c0.8-1.3,1.3-3.6,3.3-2.6c1.9,0.9,0.1,2.7-0.2,3.9c1.8,1.1,2.8,0.2,3.8-0.6c1.5-1,3-1.9,4.8-2.3c5.2-1.3,8.6,1.7,8,7
			c-0.5,3.8-2.5,7-5,9.8c-0.8,0.8-1.6,1.6-2.4,2.4c-0.5,0.5-0.6,1.2-0.2,1.8c0.5,0.7,1.1,0.4,1.7,0.1c1.1-0.7,2.1-1.5,3.2-2.2
			c1.2-0.8,2.6-2.1,3.8-0.4c0.9,1.4-0.6,2.3-1.6,3.1c-1.3,1-2.5,2-3.9,2.9c-1.6,1-2,2.2-1.8,4.1c0.3,2.4,0.9,3.6,3.7,2.5
			c1.7-0.7,4.5-2.8,5.4-0.1c0.9,2.7-2.6,2.9-4.3,3.3c-4.4,1-4,3.7-3.2,7.2c2.8-0.5,4.6-2.6,6.8-3.7c0.9-0.4,1.9-0.8,2.6,0.1
			c1,1.2,0,2.1-0.9,2.8c-2.1,1.5-4.2,3-6.5,4.2c-2.2,1.2-2.8,2.8-2,5.1c1.8,0.2,2.8-1,4.1-1.5s2.9-2,3.8-0.3
			c1.2,2.1-1.1,2.6-2.4,3.4c-1.5,1-3.1,1.8-4.7,2.6c-1.7,0.9-2.3,2.6-1.7,4.1c0.7,1.6,2.2,0.1,3.4,0c2-0.1,5-2.9,5.8,0.1
			c0.8,2.7-3.1,2.4-5,3.3c-2.4,1.2-6.1,0.7-5.7,5.3c2,0.4,3.7-0.8,5.5-1.2c1.2-0.3,2.7-1.1,3.4,0.6s-1,2.1-2.1,2.6
			c-1.7,0.7-3.5,1.3-6.3,2.4c4.3,1.3,7.6,0.7,10.8,0.4c-3.4,1.7-7,0.6-10.5,0.9c-2.6,0.2-1.9-2-2.5-3.8c-2.4,4.1-6.1,3.9-9.8,3.9
			c-45.3,0-90.6,0-136,0c-2.4,0-4.9,0.4-7.1-0.9c2.1,0.1,4.2,0.4,6.3,0.4c45.9,0,91.8,0,137.7,0c5.6,0,5.6,0,6.7-5.7
			c2.6-13.1,3.1-26.3,0.6-39.6c-0.5-2.7-0.7-5.1-4.9-4.3c-3.8,0.7-6.3-1.9-6.1-6.3c0.2-3.5-1.5-3.3-3.7-2.8
			c-2.7,0.6-5.2,1.8-7.4,3.5c-0.9,0.7-1.8,1.6-3,1c-1.5-0.8-1-2.2-0.9-3.5c1.1-9.5,2.4-18.9,3.3-28.4c3.9-41.8,4.1-83.4-7.2-124.4
			c-2.4-8.7-5.4-17.3-9.2-25.5c-1-2.1-1.6-3.7-4.4-1.7c-2.8,2-5.9,1.5-8.2-1.2c-1.1-1.3-2-1.7-3.6-0.7c-9.5,5.8-17.9,12.8-23.8,22.3
			c-2.1,3.3-2.8,6.7-2.3,10.6c6.5,50.1,21,97.3,48.6,140c3.2,4.9,2.3,6.5-3.4,6.9c-15.2,0.9-30.3,1.7-45.5,2.6
			c-3.3,0.2-5.3-0.8-7.3-3.4c-17.9-24.5-29.3-52-37.8-80.9c-3.1-10.6-9.9-18.3-18.7-24.5c-1.9-1.4-3.4-2.1-4.9,0.7
			c-1.7,3.2-5,3.8-8.3,4c4-1.8-0.2-3.6,0-5.4c7.2-4.9,7.3-13.9,0-19C14.4,121.8,18.8,123.1,18.3,120.1z"/>
		<path class="st4" d="M14.5,124.4c2-1.9,3.7-1.3,5.3,0.6c3.4,4.1,3.3,14.5-0.2,18.4c-1.7,1.9-3.4,2.3-5.2,0.1
			C14.5,137.1,14.5,130.7,14.5,124.4z"/>
		<path class="st5" d="M137.5,246.4c-2.4,1.1-5,0.8-7.6,1c-12.3,0.7-24.5,1.2-36.8,2.1c-3.3,0.2-5.3-0.9-7.2-3.5
			c-16.1-22.5-26.8-47.5-34.8-73.8c-10-32.6-15.7-66-19.4-99.9c-0.8-7.4-1.2-14.8-2.2-22.2c-0.4-3.6,0.8-4.4,4.1-4.5
			c15.5-0.2,31-0.6,46.5-1c4.9-0.1,4.9-0.1,5,5.1c0.3,34.8,4,69.1,12.6,102.8c8.1,31.9,20.5,62,38,89.9c0.6,1,1.2,1.9,1.7,2.9
			C137.6,245.7,137.5,246,137.5,246.4z"/>
		<path class="st4" d="M122.7,63.9c-0.1-4.8,1-8.2,3.2-11c1.1-1.4,2.5-2.7,4.5-2.2c1.7,0.4,2.4,2,2.8,3.6c1.2,4.7,0.1,8.9-2.5,12.8
			c-1.1,1.7-2.5,3.2-4.7,2.8c-2.5-0.5-3-2.6-3.3-4.8C122.7,64.3,122.7,63.5,122.7,63.9z"/>
		<path class="st4" d="M180.1,244.4c-0.1,4.9-6.6,12.3-11,12.8c-2.6,0.3-3.5-1-3.4-3.4c0.3-4.4,6.5-11.4,10.7-12.1
			C179,241.3,180.1,242.5,180.1,244.4z"/>
		<path class="st6" d="M39.2,142.4c1.1,1.4,1.3,3,1.6,4.5c0.2,0.9,0.5,2.1-0.8,2.3s-2.1-0.9-2.2-2C37.5,145.5,38,143.9,39.2,142.4z"
			/>
		<g>
			<path d="M46.2,80.8c0.3-0.6,0.7-0.8,1.3-0.4s1.6,1.2,2.8,2.5c1.1,1.2,1.8,2.1,2.1,2.6s0.4,1,0.2,1.5c-0.3,0.9-0.7,1.5-1.2,1.9
				s-1.2,1.6-2,3.7c-0.9,2.3-2.2,5.7-3.9,10.5c-1.7,4.7-2.6,7.3-2.6,7.8c-0.1,0.5,1,0.1,3.3-0.9c1.7-0.7,2.7-1.4,2.9-1.9
				c1.1-2.5,1.3-4.2,0.8-5c-0.4-0.7-0.6-1.5-0.6-2.2s0.2-1.2,0.6-1.4c0.4-0.3,1.1,0,2.3,0.8s1.9,1.5,2.1,2.1
				c0.2,0.6-0.9,3.6-3.4,8.9c-2.5,5.4-4.1,9-4.8,10.8s-1.1,2.7-1,2.8c0.1,0.1,1-0.6,2.6-2.1c4-3.7,6.4-5.1,7.1-4.3
				c0.4,0.5,0.3,1-0.3,1.6c-0.7,0.6-1.1,1.2-1.2,1.8c-0.2,0.6-0.4,0.9-0.7,0.9s-0.8,0.5-1.4,1.3c-0.8,0.7-2,2.1-3.6,4l-2.7,2.8
				l-1.5-0.9c-0.6-0.3-1-0.7-1.3-1.1c-0.3-0.4-0.4-1-0.5-1.8c-0.1-1.4-0.1-2.2,0.1-2.3c0.4-0.3,2-3.7,4.9-10.4
				c0.3-0.6,0.2-0.9-0.1-0.8c-0.4,0-1.1,0.4-2.1,1.1c-1.9,1.2-3.3,2-4,2.3c-0.8,0.3-1.3,0.3-1.7,0c-0.5-0.6-0.8-1.4-0.9-2.4
				c0-1.1,0.2-1.7,0.7-1.9c0.5-0.3,1.6-2.9,3.6-7.9c1.9-5,3.3-9.3,4.3-12.9c0.6-2.3,1.1-3.8,1.5-4.4c0.4-0.5,0.5-1.1,0.4-1.8
				c-0.1-0.7-0.4-1.2-0.9-1.4c-0.5-0.3-0.9-0.9-1.1-1.6C45.8,81.8,45.9,81.2,46.2,80.8z M55.4,129.5c2-1.5,3.1-2,3.4-1.4
				c0,0.4-0.8,1.5-2.5,3.5c-1.7,1.9-3.8,4.6-6.5,7.9c-2.7,3.4-4.1,5.1-4.2,5.1c-0.3,0-1-0.5-2-1.5c-1.1-1-1.7-1.8-1.9-2.2
				c-0.1-0.6-0.1-1.1,0-1.4c0.1-0.3,0.4-0.5,0.8-0.5c0.4,0,0.9,0.1,1.4,0.3c0.6,0.4,1.1,0.5,1.5,0.3c0.3-0.2,1.1-1,2.2-2.4
				c0.6-0.7,1.1-1.3,1.5-1.8s1-1.1,1.6-1.7c0.6-0.6,1-0.9,1.3-1.2c0.3-0.2,0.8-0.7,1.7-1.5C54.6,130.2,55.1,129.7,55.4,129.5z
				 M73.5,96.6c0-0.4,0-0.9,0.3-1.5c0.2-0.5,0.5-0.8,0.8-0.9c0.6-0.1,1.6,0.2,3.3,0.8c1.6,0.6,2.7,1.1,3.1,1.5
				c0.5,0.4,0.7,0.8,0.8,1.1c0.1,0.3,0,0.8-0.1,1.4c-0.2,0.7-0.5,1.2-0.7,1.3c-0.3,0.1-0.9,0.1-1.9,0c-2.6-0.3-5,0.1-7.3,1.2
				c-1.7,0.8-2.6,1.2-2.6,1.3c0,0.1,0.2,0.3,0.6,0.4c0,0.1,0.2,0.1,0.3,0.1c0.7,0.5,1.9,1.4,3.5,2.8l1.3,1.1l-0.6,5.6
				c-0.5,3.6-1.1,6.9-1.9,10s-1.1,4.6-1.1,4.7c0.1,0.1,1.6-0.3,4.5-1s4.8-1.1,5.8-1.2c0.9-0.1,1.7-0.6,2.2-1.7
				c0.6-1.1,1.1-1.6,1.5-1.6s1.2,0.5,2.3,1.6c1.2,1.2,2.2,2.1,3.2,2.8c0.5,0.4,0.8,0.8,1.1,1.2c0.2,0.4,0.3,1,0.3,1.8
				c0.1,1.4-0.2,2.2-0.8,2.3c-0.6,0.1-1.6-0.4-2.9-1.4l-2.2-1.8l-5.2,0.6c-6.8,0.8-12.5,2.4-16.9,5c-1.7,0.9-2.8,1.5-3.3,1.7
				s-1.1,0.1-1.7-0.3c-0.7-0.3-1.3-0.8-1.7-1.4c-0.4-0.6-0.5-1.1-0.2-1.6c0.1-0.3,0.7-0.5,1.8-0.6s2.6-0.7,4.7-1.6
				c1.5-0.7,2.5-1.3,2.9-1.7s1-1.5,1.7-3.2c0.7-1.9,1.3-4.3,1.9-7.1c0.6-2.9,0.8-5.3,0.9-7.4c0.1-0.9,0-1.6-0.1-2
				c-0.2-0.5-0.6-1.1-1.2-1.9c-1.1-1.3-1.6-2.2-1.5-2.8c0.1-0.6-0.1-0.9-0.5-0.7c-0.5,0.2-1.7,1-3.4,2.4c-2.3,1.8-3.6,2.8-3.9,2.8
				c-0.3,0-0.8-0.5-1.6-1.7c-0.8-1.1-1.2-2-1.3-2.4c-0.1-0.5,0.6-0.8,1.9-0.6c1.3,0.1,2.7-0.4,4.3-1.7c1.6-1.3,3.6-2.5,6.1-3.6
				C72.3,97.6,73.5,96.9,73.5,96.6z"/>
		</g>
		<g>
			<path d="M68.4,178.3c0.2-0.5,0.4-0.8,0.7-0.8c0.3,0,0.6,0.1,0.9,0.5c0.2,0.2,0.9,0.4,2.1,0.5c1.2,0,1.9,0.2,2.3,0.6
				c0.4,0.4,0.6,1.2,0.8,2.6c0.1,1.2,0.4,1.7,0.7,1.6c0.1,0,0.2-0.3,0.3-0.8c0.1-1,1.1-1.4,2.9-1.1c1.9,0.4,2.9,1.2,3.1,2.5
				c0.1,0.4,0,0.9-0.2,1.4s-0.5,0.8-0.7,0.9c-0.3,0.1-0.9,0-1.8-0.1c-0.9-0.2-1.5-0.2-1.9-0.2c-0.4,0.1-0.8,0.4-1.3,0.9
				s-0.9,1.2-1.2,2.3c-0.3,1-0.3,1.9-0.2,2.8c0.1,0.5,0.6,0.9,1.6,1.4s2.3,1.3,4,2.6l2.8,2l-1.5,3.9l-2.7-2.7
				c-2.8-2.5-4.4-3.4-4.6-2.6c0,0.1-0.1,0.1-0.1,0.2c-0.3,3.2-1.1,6.5-2.4,10s-2.6,5.8-3.8,7c-1.1,1-1.7,1.1-1.7,0.4
				c-0.1-0.6,0.3-1.5,1.1-2.7c1.1-1.6,2-3.6,2.7-6.2c0.4-1.8,0.9-4.7,1.4-8.7s0.7-6.1,0.6-6.3c-0.1-0.1-0.6,0.3-1.5,1.2
				c-0.4,0.3-1.3,1-2.6,2.1c-1.4,1.1-2.3,2-2.9,2.7c-1.1,1.1-1.9,1.6-2.4,1.6s-1.3-0.5-2.5-1.7c-1.5-1.3-2-2.2-1.7-2.8
				c0.3-0.5,0.9-0.6,1.6-0.2c0.7,0.4,1.5,0.5,2.3,0.1c0.4-0.2,2.1-1.3,5.2-3.4c3.1-2,4.7-3.2,4.8-3.4c0,0,0-0.6,0-1.9
				c0-1.3-0.3-2.1-0.7-2.5c-0.6-0.4-1-0.8-1.4-1c-0.3-0.2-0.6-0.5-1-0.8s-0.6-0.7-0.8-0.9C68.5,178.9,68.4,178.6,68.4,178.3z
				 M65.2,158c0.3-0.7,0.7-1.1,1-1c0.3,0,0.8,0.5,1.5,1.3c0.7,0.9,1.4,1.7,1.8,2.2c1,1.1,1.5,1.9,1.7,2.5c0.1,0.5,0.1,1.7-0.2,3.6
				c-0.1,0.7-0.2,1.3-0.2,1.8s-0.1,1-0.1,1.6c0.4-0.1,0.9-0.4,1.4-0.9c0.5-0.6,0.8-1.1,0.8-1.7c0.1-0.7,0.4-1.2,0.8-1.2
				c0.5-0.1,1.3,0.2,2.5,0.7c1.2,0.6,2,0.8,2.4,0.8s0.7,0.4,0.8,1.3c0.1,1,0.1,1.8-0.2,2.4c-0.3,0.6-0.5,0.9-0.7,0.9
				s-0.8-0.1-1.6-0.5c-0.8-0.4-1.4-0.6-1.8-0.5s-1.1,0.5-2.2,1.4c-3.2,2.2-4.7,3.6-4.7,4.2c0.1,0.4-0.6,1.8-2,4.3s-2.2,3.5-2.6,3
				c-0.5-0.4-0.5-0.7-0.2-1.1c0.8-1,1.7-3.7,2.8-8c1-4.3,1.4-7.5,1.3-9.5c-0.1-1.2-0.2-2.1-0.3-2.5c-0.1-0.4-0.5-0.9-1-1.4
				c-0.8-0.7-1.3-1.3-1.5-1.9C64.6,159.2,64.7,158.6,65.2,158z M96.1,188.8c-0.1-0.6,0.2-0.9,0.7-0.9c0.5-0.1,1.5,0.2,2.9,0.9
				s2.2,1.2,2.4,1.5c0.2,0.5-0.1,1.7-0.7,3.4c-0.7,1.8-1.6,3.8-2.8,6c-1.2,2.6-1.9,3.9-1.9,4s1.5-0.1,4.4-0.6
				c2.9-0.4,4.4-0.8,4.3-1.2c-0.1-1,0-1.6,0.6-1.8c0.5-0.2,1.3,0,2.2,0.6c1.1,0.8,1.9,1,2.2,0.7c0.4-0.3,1.1,0.1,2,1
				c0.9,1,1.4,1.9,1.6,2.8s-0.1,1.6-0.7,2.2c-0.4,0.3-0.8,0.5-1.1,0.4c-0.3-0.1-0.9-0.4-1.7-0.9c-0.9-0.6-1.7-0.9-2.4-1
				c-0.7-0.1-2.5,0.1-5.4,0.5c-6.8,0.9-12.2,2.8-16.3,5.6c-2.1,1.3-3.7,2-4.7,2.2c-1,0.1-2.1-0.3-3.2-1.4c-0.9-0.7-1.2-1.3-1-1.8
				s0.9-0.7,2.1-0.7c1.1,0,2.9-0.6,5.4-1.7c2.6-1.2,4-1.8,4.3-1.8c2-0.7,3.4-1.5,4.2-2.6c0.7-1.1,1.9-4,3.6-8.9l1.2-3.1l-1.1-1.3
				C96.6,190.1,96.2,189.3,96.1,188.8z M96.4,169.8c0.8-0.6,1.4-0.9,1.9-0.9s1.2,0.4,2.2,1.1l1.8,1.3l-1,2.3c-0.7,1.5-1,2.4-0.9,2.7
				c0.1,0.4-0.3,2.1-1,5s-1.2,4.6-1.5,5c-0.4,0.5-0.9,0.6-1.5,0.3c-1-0.6-2.4-0.5-4.2,0.3c-1.8,0.8-3.1,1.9-4,3.3
				c-0.6,1-1,1.6-1.3,1.6c-0.4,0.1-0.8-0.4-1.3-1.3c-0.5-0.9-0.7-1.6-0.6-2c0.2-0.3-0.1-1.7-0.8-4.2c-0.7-2.4-1.4-4-2.2-4.7
				c-1.8-1.6-1.8-2.6,0-2.8c1.9-0.3,3.3,1.2,4,4.5c0.6,2.4,1,3.8,1.2,4.3s0.4,0.6,0.7,0.4c4-2.3,6.4-3.6,7.1-3.9
				c0.7-0.3,1.2-0.7,1.3-1c0.2-0.4,0.3-1.5,0.4-3.4c0.3-2.9,0.3-4.3,0.2-4.3c-0.1,0-0.2,0.1-0.4,0.3c-0.4,0.3-1.4,0.7-2.9,1.2
				s-2.6,1.1-3.5,1.8c-0.6,0.6-1.3,0.8-2,0.7s-1.1-0.5-1.2-1.2s2.1-2.1,6.5-4.2C94.7,171.3,95.7,170.5,96.4,169.8z M92.8,158.8
				c0.1-0.8,0.4-1.2,0.9-1.2s1.6,0.2,3.2,0.8c1.4,0.6,2.3,1.2,2.8,1.8c0.4,0.5,0.5,1.3,0.3,2.2c-0.2,0.6-0.4,0.9-0.7,1
				c-0.3,0.1-1.1,0-2.3-0.2c-1.2-0.2-2.1-0.2-2.7-0.2c-0.6,0.1-1.6,0.4-3,1.1c-2,1-3.7,2-5.3,3c-1.2,0.7-1.9,1.1-2.2,1.2
				c-0.3,0.1-0.7-0.1-1.2-0.7c-0.7-0.5-1.1-1.3-1.2-2.3c-0.1-0.6-0.1-1,0-1.2s0.5-0.2,1.2-0.2c1.1,0.1,3.1-0.6,5.9-2
				C91.3,160.4,92.7,159.4,92.8,158.8z M85.6,194.6c-0.1-0.8,0-1.4,0.2-1.7c0.3-0.3,0.6-0.3,1.1,0c0.4,0.3,0.8,0.8,1.2,1.5
				c0.5,1.2,1.4,1,2.5-0.7c1.4-1.8,2.1-2.1,2.3-1c0.1,0.8-0.2,1.9-0.9,3.5c-0.7,1.6-1.1,2.8-1,3.4c0,0.7-0.1,1.3-0.4,2
				c-0.3,0.6-0.5,1-0.9,1c-0.2,0-1-1.1-2.2-3.5C86.3,196.8,85.7,195.3,85.6,194.6z"/>
		</g>
	</g>
	<g>
		<path class="st7" d="M39.5,305.2H27.8v-56.7l-9.3,4.6v-12.1l10.3-5.7h10.7C39.5,235.2,39.5,305.2,39.5,305.2z"/>
	</g>
</g>
</svg>
