<?xml version="1.0" encoding="utf-8"?>
<!-- Generator: Adobe Illustrator 22.0.1, SVG Export Plug-In . SVG Version: 6.00 Build 0)  -->
<svg version="1.1" id="레이어_3" xmlns="http://www.w3.org/2000/svg" xmlns:xlink="http://www.w3.org/1999/xlink" x="0px"
	 y="0px" viewBox="0 0 210 324" style="enable-background:new 0 0 210 324;" xml:space="preserve">
<style type="text/css">
	.st0{fill:#F7A084;}
	.st1{fill:#EB1A21;}
	.st2{fill:#FFFFFF;}
	.st3{fill:#005CA9;}
	.st4{fill:url(#SVGID_1_);}
	.st5{fill:#FFFDFD;}
</style>
<g>
	<g>
		<g>
			<g>
				<path class="st0" d="M72.1,105.5c-0.6-0.3-1.2-0.6-1.9-1.1c-1.2-0.8-1.3-1.3-1.2-1.4c0-0.1,0.1-0.6,1.4-1.3
					c0.4-0.2,0.8-0.4,1.3-0.7c1.2-0.6,2.6-1.2,3.6-2.8l0.5-0.7L75,97c-3-2.7-6.6-2.8-10-3h-0.3c-2.4-0.1-3.9-0.2-4.5-0.7
					c-0.5-0.5-0.7-1.8-1.1-4.2c-0.4-2.7-0.9-5.9-2.2-8.8c-0.5-1.3-1.3-2.1-2.2-2.3c-0.9-0.3-1.9,0-3.1,0.8c-0.5,0.3-0.9,0.6-1.4,0.9
					c-2.4,1.6-4.9,3.3-6.6,6c-0.3,0.5-0.8,1.1-1.3,1.1c-0.5,0.1-1.1-0.5-1.5-0.9c-2.9-3.1-6.7-4.1-9.7-4.6c-2.7-0.5-4.3-0.8-5.3,0.1
					c-1.1,0.9-1.1,2.5-1.2,5.1c0,2.1-0.1,3.6-0.5,4s-1.9,0.4-4,0.4c-1.5,0-2.8,0.1-3.4,1S16.4,94,17,95.4c1.1,3.1,2.6,6.4,4.5,10.4
					c0.9,2,1,2.8-0.4,3.9c-3,2.2-4,5.8-4.5,8.2c-0.6,3.2-0.9,5,0.1,6.2c1,1.1,2.8,1,5.6,0.8c0.3,0,0.6,0,0.9,0h0.5
					c0.8,0,1.3,0.1,1.5,0.4s0.2,0.9-0.1,1.8c-0.1,0.4-0.3,0.7-0.4,1.1c-0.6,1.5-1.2,3.1-0.6,5.1l0.3,0.8l0.9-0.1
					c4.6-0.8,5.9-1.5,9.5-5.1c1-1,2.2-2.2,2.6-2.2c0.3,0.1,1.2,1.4,2.1,2.7l0.1,0.1c3.2,4.8,7,7.9,11.6,9.3L52,139l0.4-0.7
					c1-1.6,0.9-3.1,0.9-4.4c0-0.6,0-1.1,0.1-1.6s0.2-1.2,0.7-1.4c0.4-0.3,1-0.2,1.5,0c0.7,0.2,1.4,0.6,2,0.9
					c1.3,0.8,2.3,0.9,3.2,0.5c0.9-0.5,1.4-1.4,1.5-3c0.2-2.7,0.1-5.5-0.4-8.6c-0.5-2.9-0.5-3,2.4-3.5c3.1-0.6,5.9-1.8,8.4-3.7
					c2.6-2,3.9-3.3,3.8-4.8C76.1,107.5,74.6,106.6,72.1,105.5z M49.3,107.8c0,1.5-0.6,2.9-1.7,3.9c-1.2,1.2-3,1.9-4.8,1.9
					c-3.5,0-6.5-2.7-6.5-5.9c0-3.1,3-5.9,6.5-5.9l0,0c1.8,0,3.5,0.7,4.7,1.9C48.7,105,49.3,106.4,49.3,107.8z"/>
				<path class="st0" d="M73.6,41.1c-2.9-0.4-5.8,0.1-8.5,0.6L64,42c-1.2,0.2-3.4,0.6-4,0.1c-0.5-0.5-0.3-2.7-0.3-3.9
					c0.2-3.3-0.3-6.8-1.7-10.5c-0.4-1.1-1-2.4-2.3-2.7c-1-0.2-2,0.1-3.2,1.1c-1.1,0.9-2.3,1.7-3.5,2.5c-0.7,0.4-1.4,0.9-2.1,1.4
					c-0.7,0.5-1.4,0.7-1.9,0.6c-0.6-0.2-1.1-0.9-1.4-1.5c-0.6-1.1-1.1-2.3-1.7-3.7c-0.3-0.7-0.6-1.4-0.9-2.2l-0.5-1.1l-1,0.6
					c-4.4,2.8-6.2,6.6-7.8,10.6c-0.8,2-1.4,2.9-1.9,3.2c-0.7,0.3-2.2-0.4-3.7-1.1L26,35.2c-2.7-1.3-5.4-2.7-8.2-3.9l-0.4-0.2
					c-1-0.5-2.5-1.2-3.9-0.1c-1.4,1.1-0.9,2.6-0.6,3.5c0.1,0.2,0.2,0.5,0.2,0.7c0.2,1.1,0.6,2.6,0.3,3c-0.2,0.3-1.6,0.6-2.6,0.8
					c-0.2,0-0.4,0.1-0.6,0.1c-0.3,0-0.6,0.1-0.9,0.1c-1.6,0.4-2.8,0.7-3.3,1.7S5.9,43,6.6,44.6c1.7,4,4.5,7.5,8.5,10.6
					c1,0.8,1.9,1.5,1.9,2c0.1,0.5-0.8,1.5-1.6,2.4c-0.4,0.4-0.7,0.8-1.1,1.2c-0.5,0.6-1,1.1-1.5,1.8c-1.7,2.1-3.6,4.7-4.7,7.8
					c-0.4,1.1-0.7,2.3,0,3.2c0.8,1,2.3,0.9,2.8,0.9c0.8-0.1,1.5-0.3,2.2-0.5c1.5-0.4,2.4-0.7,3.2,0c0.5,0.4,0.4,0.9,0.3,2.1
					s-0.3,2.7,0.8,4.1l0.4,0.6l0.7-0.2c4.5-1.5,8.9-3.8,13.1-6.8l0.3-0.2c1.1-0.8,2.1-1.5,2.6-1.7c0.2,0.4,0.5,1.6,0.8,2.8v0.2
					c0.7,3,1.6,5.2,2.9,7.1l0.2,0.4c0.6,0.9,1.3,1.9,2.5,2.1c0.1,0,0.2,0,0.4,0c0.7,0,1.4-0.3,2.2-0.9l0.1-0.1
					c1.1-0.9,2.3-1.8,2.4-3.3c0.1-0.9-0.4-1.8-1.3-2.8c-0.4-0.4-0.7-1-1.1-1.6l-0.2-0.3c-1.1-1.8-1.1-2.4-1-2.5
					c0.1-0.2,0.5-0.5,2.4-0.8c0.5-0.1,0.9-0.1,1.4-0.2c1.5-0.1,3.2-0.3,4.6-1.5l0.3-0.3v-0.4c0-1.5-0.8-2.6-1.5-3.5
					c-0.2-0.3-0.5-0.6-0.7-0.9c-1.1-2-1-2.5-1-2.6c0.1-0.1,0.5-0.5,2.8-0.7c1.2-0.1,2.4,0,3.6,0.1h0.2c3.3,0.2,6.4,1.1,9.4,2
					c0.9,0.3,2.3,0.6,3.3-0.2c1.1-0.9,0.9-2.6,0.8-3.2c-0.2-2.1-0.4-4.6,0.1-7c1.2-3.8,1.9-7,5.9-7.8c1.2-0.2,2.5-1.2,2.3-2.8
					C76,41.5,74.2,41.2,73.6,41.1z M47,54.5c0,3.7-3,6.9-6.6,7.1c-3.6,0.2-6.8-2.9-7-6.6c-0.1-2,0.6-3.9,1.9-5.4
					c1.2-1.3,2.9-2.1,4.6-2.1c1.8,0,3.5,0.7,4.9,2C46.2,50.8,47,52.6,47,54.5z"/>
				<path class="st0" d="M149.8,106.2c-2-3.1-5-4.1-8-5.1c-0.5-0.2-1-0.3-1.5-0.5h-0.1c-1.7-0.6-3-1.1-3.2-1.5s0.2-1.7,0.7-3.5
					l0.2-0.5c0.9-3,1.9-6.1,0.4-9.7l-0.4-0.9l-0.9,0.3c-0.4,0.1-0.7,0.3-1.1,0.4c-0.7,0.3-1.3,0.5-2,0.8c-3.9,1.8-4.3,1.6-6.2-2.2
					c-0.3-0.5-0.5-1.1-0.6-1.7c-0.3-1.2-0.9-1.9-1.7-2.2c-0.8-0.2-1.8,0.1-2.7,1c-1.9,1.7-3.9,3.8-4.8,6.8c-0.2,0.6-0.5,1.4-1,1.6
					c-0.4,0.2-1.1,0-2.1-0.5c-4.5-2.4-8.3-3.9-12.1-4.8h-0.2c-2.4-0.6-4.8-1.2-7.4-0.1L94.6,84v0.7c0,1.6,0.7,2.6,1.3,3.4
					c0.2,0.3,0.4,0.6,0.6,0.8c0.7,1.3,0.7,2,0.6,2.2c-0.2,0.4-0.8,0.7-1.9,0.9c-1.2,0.3-2.5,0.3-3.8,0.4c-0.6,0-1.3,0.1-1.9,0.1
					c-1.6,0.1-2.9,0.3-3.4,1.4c-0.6,1,0,2.3,0.7,3.7c2.2,4.2,5.5,7.7,9.7,10.3c1.1,0.7,1.5,1,1.6,1.2c-0.1,0.2-0.6,0.5-1.8,1.1
					c-3.7,1.8-6.4,4.6-8.4,8.5l-0.3,0.6l0.4,0.5c0.9,1.3,2.1,1.4,2.9,1.4c0.2,0,0.4,0,0.6,0.1c0.5,0.1,1.1,0.2,1.6,0.3
					c1.7,0.3,3.1,0.5,3.9,1.8c0.5,0.9,0.2,1.5-0.6,2.7c-0.4,0.6-0.7,1.2-0.9,1.9c-0.4,1.1-0.6,2.4,0.1,3.3c0.8,0.9,2.1,0.7,3.4,0.5
					c3-0.6,5.8-1.8,8.6-2.9l0.4-0.2c3.2-1.3,3.2-1.3,4.8,1.7c1.1,2.1,2.5,3.9,4.1,5.3c1,0.9,1.9,1.6,2.8,1.6c0.1,0,0.3,0,0.4,0
					c1-0.2,1.6-1.3,2.2-2.6c1.6-3.6,1.8-3.7,5.3-2.2c2.2,0.9,3.6,1.3,4.7,0.6c1.1-0.8,1.2-2.2,1-4.8c-0.1-1.1-0.3-2.2-0.5-3
					c-0.4-1.7-0.8-3.8-0.5-4.3c0.3-0.4,2.4-0.4,4.2-0.4c3.4,0,6.9,0.1,10.2-1.2l0.5-0.2l0.1-0.6c0-0.2,0.1-0.4,0.1-0.5
					c0.1-0.3,0.1-0.5,0-0.8c-0.3-1.2-1.1-2.1-1.8-2.8c-0.3-0.4-0.6-0.7-0.9-1.1c-0.8-1.2-1.1-2-0.9-2.6c0.2-0.5,0.9-1,2.1-1.4
					c0.3-0.1,0.6-0.2,0.9-0.2c1-0.2,2.2-0.4,3.2-1.7l0.4-0.6L149.8,106.2z M127,108.6c0,3.2-2.5,5.6-6,5.6c0,0,0,0-0.1,0
					c-1.7,0-3.3-0.6-4.4-1.7c-1-1-1.6-2.3-1.6-3.8s0.6-2.9,1.7-4s2.6-1.7,4.2-1.7h0.1C124.4,103.1,127,105.5,127,108.6z"/>
			</g>
			<g>
				<path d="M202.7,190.5c-0.5,0-1,0.1-1.5,0.1c-22.4,1.3-44.7,1.6-66.2,0.7c-38.7-1.5-69.8-6.4-97.9-15.5
					C26.2,172.4,15.8,168,6,163c-0.8-0.4-1.7-0.8-2.5-1.1c-0.4-0.2-0.8-0.3-1.1-0.5L1,160.8v74.9l0.6,0.3c0.2,0.1,0.5,0.2,0.8,0.3
					c0.5,0.2,0.9,0.4,1.3,0.6c25.5,16.6,55.2,27.6,90.8,33.7c20.7,3.5,42.6,5.3,67,5.3c13.4,0,27.6-0.5,42.8-1.6h0.5
					c1.3-0.1,2.8-0.2,4.2-1l0.5-0.3v-81.9l-0.7-0.2C206.7,190.1,204.7,190.3,202.7,190.5z M100.9,200.8c0,0.2,0,0.4,0,0.6h-0.3v1
					c0,0.7,0,1.3,0,2c0,1.4,0,2.9,0,4.3c0,1-0.3,1.7-0.7,2c-0.4,0.3-1,0.4-1.9,0.3c-4-0.7-8-1.3-12-2c-1.2-0.2-1.8-0.8-1.8-2
					l-0.1-2.4c-0.1-3.4-0.2-6.8-0.3-10.3c0-0.8,0.2-1.4,0.5-1.7s0.8-0.4,1.4-0.4c0.3,0,0.6,0,0.8,0.1c1.5,0.2,3.1,0.5,4.6,0.7
					c2.4,0.4,5,0.8,7.5,1.1c1.9,0.2,2.5,1,2.3,2.8C100.8,198.2,100.8,199.5,100.9,200.8z M137.2,204.2c0.1,1.2,0.1,2.5,0.1,3.8
					c0,1,0,2,0,3.1c0,0.4,0,0.9-0.2,1.1c-0.2,0.2-0.7,0.3-1.1,0.3l0,0h-3.2c-3.3,0-6.7,0-10,0c-0.7,0-1.1-0.1-1.3-0.3
					c-0.2-0.2-0.3-0.8-0.3-1.2c0.1-1.6,0-3.2,0-4.9c0-0.7,0-1.5,0-2.3c0.2-1,0-2.2-0.1-3.2c-0.3-2-0.4-3.3,0.6-4.1
					c1-0.9,2.9-0.6,4.7-0.4c0.9,0.1,1.8,0.2,2.7,0.2c1,0,1.9-0.1,2.8-0.2c2-0.2,4-0.5,5,0.5c1,0.9,0.8,2.7,0.5,4.5
					C137.3,202,137.2,203.2,137.2,204.2z M175,203.4c0,0.3,0,0.6,0,0.9v1c0,0.6,0,1.1,0,1.7c0,1.2,0,2.5,0,3.7
					c0,1.1-0.1,2.3-0.3,2.5s-1.7,0.2-2.6,0.1c-1.3-0.1-2.8,0.1-4.1,0.3c-2.8,0.3-5.5,0.6-6.9-0.9c-1.3-1.3-1-3.9-0.7-6.7
					c0.2-1.3,0.3-2.7,0.3-4c-0.1-2.5-0.1-4.2,0.4-4.8c0.5-0.5,2.1-0.5,4.6-0.5c0.8,0,1.7,0,2.6,0c1.6,0,3.2,0,4.8,0
					c0.8,0,1.4,0.1,1.6,0.3c0.3,0.3,0.4,0.9,0.3,1.8C175,200.4,175,201.9,175,203.4z M65.7,200.3c-0.1,1.5-0.3,3.1-0.3,4.6
					c0,0.6-0.2,1-0.5,1.2c-0.4,0.3-1,0.3-1.7,0.2c-2.2-0.5-4.5-1.1-6.6-1.7c-1.4-0.4-2.8-0.7-4.3-1.1c-0.8-0.2-1.1-0.5-1.1-2v-8.3
					h-0.5c0-0.4,0-0.7,0-1.1c0-1.5,0-3.1,0-4.7c0.1-1.1,0.2-1.8,0.5-2s0.9-0.2,2,0c0,0,0.1,0.1,0.3,0.1c1.5,0.6,3.1,1,4.8,1.3
					c2.8,0.6,5.5,1.1,6.6,3.2C66.4,192.9,66,196.5,65.7,200.3z M15,179.1c0-1.6,0-3.2,0-4.8c0-0.8,0.2-1.3,0.5-1.5
					c0.1-0.1,0.2-0.1,0.4-0.1c0.2,0,0.6,0.1,0.9,0.2c2.6,1.1,5.3,2.3,7.9,3.4c1,0.4,1.9,0.9,2.9,1.3c0.8,0.3,1.1,0.9,1,1.8
					c-0.3,4.9-0.7,9.8-1,14.7c-0.1,1-0.3,1.2-0.4,1.3c-0.2,0.1-0.7,0.1-1.5-0.3c-0.2-0.1-0.4-0.2-0.6-0.3c-0.6-0.3-1.1-0.6-1.8-0.8
					c-3.6-1-6.1-2.4-7.5-4.3c-1.6-2.1-1.8-4.8-0.8-8.3v-0.1L15,179.1z"/>
				<path d="M113.8,317.2c-1.3-0.2-2.6-0.4-3.9-0.7c-30.1-6.4-52.6-13.3-73.2-22.4c-11.5-5.1-21.6-10.6-30.7-17
					c-0.2-0.1-0.4-0.3-0.6-0.5c-0.9-0.7-1.9-1.5-3.5-1.3L1,275.5v46.1h126.4l-4-1.9C120.3,318.2,117,317.7,113.8,317.2z"/>
				<path d="M208.5,178c-6-0.2-11.9,0.2-17.7,0.7c-3.3,0.3-6.7,0.5-10.1,0.7c-1.8,0.1-3.3,0.3-4.1,1.3c-1,1.1-1.1,2.9-0.8,6.2
					c0.2,2.5,1.4,3.8,3.6,3.8c0.1,0,0.3,0,0.5,0c3.4-0.3,6.9-0.3,10.3-0.4c6.1-0.1,12.3-0.3,18.5-1.4l0.8-0.2V178H208.5z"/>
				<path d="M31.5,161.2l-0.7-0.2l-0.4,0.5c-1.3,1.6-1.2,3.1-1.2,4.4c0,0.3,0,0.5,0,0.8c-0.1,5.4,0.2,5.8,5.4,7.5
					c4.8,1.6,9.2,2.9,13.6,4.1c1.3,0.4,2.3,0.6,3.2,0.6c0.6,0,1-0.1,1.4-0.4c1-0.7,1-2.1,1-4.2c0-0.4,0-0.8,0.1-1.3
					c0.2-1.8,0.4-4.6-2.6-5.6c-4.7-1.6-9.5-3-14.2-4.4C35.3,162.4,33.4,161.8,31.5,161.2z"/>
				<path d="M141.4,190.7c5,0.1,10.1,0.2,15.1,0.3c0,0,0,0,0.1,0c2.1,0,3.3-1.3,3.4-3.4c0-1.3,0-2.6,0-3.9c0-1.2-0.3-2.2-1-2.8
					c-0.7-0.7-1.7-1-3.1-1c-1.7,0-3.4,0-5.1,0c-0.4,0-0.8,0-1.2,0v-0.1h-2.2c-0.9,0-1.8,0-2.7,0c-2.8,0-4.9,0.2-6,1.6
					c-1.1,1.3-1.1,3.4-0.6,6.1C138.1,188.2,138.5,190.6,141.4,190.7z"/>
				<path d="M100.9,182.9c0,4.5,0.3,5.1,4.8,5.6c3.4,0.4,6.9,0.7,10.3,0.9l3.3,0.3c0.3,0,0.6,0.1,0.9,0.1c0.9,0,1.8-0.2,2.4-1.2
					c1.2-2.1,0.9-4.5,0.7-6.5l-0.1-0.8c-0.3-2.5-2.4-2.6-3.6-2.6c-0.3,0-0.5,0-0.8,0c-1.7-0.2-3.5-0.4-5.2-0.5
					c-0.7-0.1-1.5-0.1-2.2-0.2l-1-0.1l0,0h-0.5c-1.1-0.1-2.3-0.2-3.4-0.3c-2.3-0.2-3.8-0.3-4.7,0.5
					C100.9,178.9,100.9,180.4,100.9,182.9z"/>
				<path d="M86.8,179.4c0-1.8,0.1-4.6-3.5-5.2c-2.6-0.4-5.2-0.9-7.7-1.4c-1.6-0.3-3.2-0.6-4.8-0.9c-0.6-0.1-2.1-0.4-3.2,0.8
					c-1.4,1.6-1.3,4.2-0.7,6.2c0.6,1.9,2,4.1,4,4.5c3.5,0.8,7,1.3,9.7,1.7c1.3,0.2,2.4,0.4,3.2,0.4c0.8,0,1.5-0.2,2-0.6
					c1-0.8,1-2.3,0.9-4.9l0,0C86.8,179.9,86.8,179.7,86.8,179.4z"/>
				<path d="M109.3,17.6c1.3,6.8,3.5,13.2,5.9,19.6c1.3,3.6,4.1,4.1,6.5,4.5c0.4,0.1,0.9,0.2,1.3,0.3s0.7,0.1,1,0.1
					c2,0,2.8-1.7,3.3-2.8c0.2-0.5,0.4-0.9,0.6-1.2c0.3-0.4,0.6-0.8,0.8-1.2c0.2-0.3,0.4-0.6,0.6-0.9c4.2-5.8,4.1-6.3-0.9-11.4
					c-2.6-2.6-5.1-4.7-7.8-6.4c-2.9-1.8-5.4-2.9-7.9-3.5c-1.3-0.3-2.3-0.2-2.9,0.4C109.4,15.7,109.1,16.5,109.3,17.6L109.3,17.6z"/>
				<path d="M61.8,40.5c0.5,0.4,1.1,0.5,1.8,0.5c0.4,0,0.9-0.1,1.2-0.1c9-1.6,15.8-7,21-16.4c0.3-0.5,0.2-1,0.1-1.3
					c0-0.1,0-0.1,0-0.2l-0.1-0.7L85,22.1c-4.2-0.8-9.9-0.1-15.7,2.1c-8.3,3.1-9.3,4.7-8.7,13.4C60.7,38.6,60.9,39.8,61.8,40.5z"/>
				<path d="M91.8,56c0.6,1.7,1.5,2.6,2.6,2.9c0.2,0,0.4,0.1,0.5,0.1c0.9,0,1.9-0.5,3-1.6c0.9-0.9,1.4-2,1.6-3
					c1.5-5.4,2.4-10.1,2.7-14.9v-0.1v-0.1c0-0.2,0-0.4,0-0.6c0-0.6-0.1-1.3-0.2-2.1c-0.3-1.9-0.7-3.1-1.7-3.6s-2.2,0-3.9,1
					c-4,2.4-7,5.6-9,9.5c-0.7,1.4-1.5,3.5,0.5,5.6C89.8,51.1,90.9,53.6,91.8,56z"/>
				<path d="M178.7,88.7c0.6-0.7,0.7-1.6,0.4-2.8c-1.6-5.9-5.2-10.5-10.5-13.3c-1.6-0.8-3.9-0.5-6.1,0.8c-1.7,1.1-3.6,3.1-3.6,5.4
					c-0.5,3.2,1.1,5.7,5,7.7c3.8,1.9,7.8,2.5,11.6,3c0.3,0,0.6,0.1,0.8,0.1C177.4,89.5,178.2,89.2,178.7,88.7z"/>
				<path d="M145.7,101.5c1.5,1,2.7,1.8,3.8,2.7l0.1,0.1c1.7,1.5,2.9,2.6,2.6,4.1c-0.1,0.6-0.5,0.8-2,0.9c-0.7,0.1-1.4,0.1-2,0.4
					c-0.1,0-0.3,0-0.4,0.1c-0.1,0-0.3,0.1-0.4,0.1c-0.6,0.1-1.4,0.3-1.8,1c-0.3,0.5-0.3,1.1-0.1,1.8c0.3,1.2,1.3,1.9,2.6,1.9
					c0.3,0,0.7-0.1,1.1-0.2c6.5-1.9,15.1-7.7,17.7-17.9l0.3-1.1l-1.2-0.1c-6.9-0.6-14.4-0.9-22.4,3L142,99l1.4,1
					C144.2,100.5,145,101,145.7,101.5z"/>
				<path d="M164.7,128.4c-1.4,1.1-2.1,2.6-2.9,4.1c-0.2,0.4-0.4,0.7-0.6,1.1c-0.3,0.6-0.4,1.3-0.2,1.9c0.2,0.5,0.6,1,1.1,1.2
					s1,0.5,1.5,0.8c1.4,0.8,2.9,1.6,4.7,1.6c0.4,0,0.8,0,1.2-0.1c6-1.2,11.1-4.3,16-9.9l0.8-0.9l-1.1-0.6
					C179.6,124.4,169,124.9,164.7,128.4z"/>
				<path d="M158.6,48.2c0.5,0.1,0.9,0.3,1.4,0.4c1.8,0.6,3.7,1.2,5.7,1.2c1.5,0,3-0.4,4.6-1.3c3.6-2.3,6.5-5.5,8.5-9.4
					c0.6-1.2,1.1-2.5,0.5-3.5c-0.7-1-2.1-1.1-3.5-1h-0.1c-3,0.4-5.4,0.9-7.8,1.9c-3.9,1.6-6.9,3.6-9.3,6c-1,1-1.9,2.7-1.5,4.1
					C157.2,47.4,157.8,48,158.6,48.2z"/>
				<path d="M26,145.8c0.2,1.3,0.6,2.2,1.4,2.7c0.4,0.3,1,0.4,1.5,0.4s1.1-0.1,1.7-0.3c4.7-1.5,10.4-9.8,9.9-14.5
					c-0.2-2-1.2-3.5-2.7-4.4c-1.6-0.9-2.7,0.3-3.3,0.9c-0.2,0.2-0.4,0.4-0.6,0.5c-0.5,0.3-0.9,0.7-1.4,1c-0.8,0.6-1.6,1.2-2.5,1.6
					c-4,1.7-4.5,5.3-4.7,8.5v0.1l0.1,0.9C25.7,144,25.9,144.9,26,145.8z"/>
			</g>
			<g>
				<path class="st1" d="M208.8,275.4c-2.1-0.6-4.2-0.4-6.2-0.2c-0.5,0-1,0.1-1.5,0.1c-31.5,2.3-60.3,1.9-88-1.2
					c-39.6-4.5-72.5-14.6-100.6-30.8c-2.3-1.3-4.6-2.8-6.8-4.2c-1.1-0.7-2.1-1.3-3.2-2L1,236.2v36.9l0.7,0.2c0.1,0,0.3,0.1,0.4,0.1
					c0.1,0,0.2,0.1,0.2,0.1c26.7,19.4,57.1,29.2,80.6,35.6c15.7,4.3,33.1,8,54.8,11.6c0.2,0,0.4,0.1,0.5,0.1
					c0.7,0.1,1.3,0.2,1.8,0.6l0.3,0.2h69.2v-46L208.8,275.4z"/>
				<path class="st1" d="M123.5,212.5l1.7-0.1c0.8,0,1.6,0,2.4,0.1c0.6,0,1.3,0.1,1.9,0.1c1.3,0,2.7-0.2,4.1-1l1-0.5l-0.6-0.9
					c-2.2-3.1-3.5-4.6-5.1-4.5c-0.5,0-1,0.2-1.4,0.6c0.4-0.6,0.6-1.3,0.5-2.1c0-0.6-0.2-1.2-0.5-1.8c0.5,0.3,1.1,0.6,1.8,0.6
					c0.1,0,0.1,0,0.2,0c2.4-0.1,4.4-2.2,4.9-5.1l0.2-1l-1-0.1c-3-0.4-5.5-0.7-8.6,0.3l-1.3,0.4l0.8,1.1c0.3,0.4,0.5,0.7,0.7,1.1
					c0.1,0.1,0.2,0.3,0.3,0.4c-0.7-0.5-1.5-1-2.5-1.5l-1.2-0.6l-0.2,1.4c-0.5,3.6-0.7,6.5,0.2,9.6l0.3,1.1l1-0.5c1-0.5,2.1-1,3-1.7
					c-0.6,0.8-1.2,1.9-1.8,3.2L123.5,212.5z"/>
				<path class="st1" d="M136.3,210.1l0.3-1.4c0.7-2.8,0.7-5.4-0.1-8.5l-0.4-1.4l-1.2,0.9c-2.6,1.9-4.3,3.2-4.3,4.9s1.8,3,4.4,4.7
					L136.3,210.1z"/>
				<path class="st1" d="M51.1,188l-0.1,1.8c-0.2,3.1-0.3,6.3,0.4,9.8l0.3,1.4l1.2-0.7c2.9-1.8,4.3-3.4,4.3-5.2
					c0-0.4-0.1-0.9-0.2-1.3c0.4,0.3,0.9,0.6,1.4,0.8c0.3,0.1,0.7,0.2,1,0.2c2.1,0,3.4-2.2,4.5-3.9l0.6-1l-0.9-0.5
					c-2.4-1.4-5-2.7-8.5-2.4l-1.2,0.1l0.4,1.2c0.3,1,0.6,2,1,2.9c-0.7-0.7-1.6-1.4-2.6-2.1L51.1,188z"/>
				<path class="st1" d="M64.4,204.5l0.5-2.1c0.8-3.5,0.8-6.1,0-8.7l-0.3-1.2l-1.1,0.6c-2,1.1-3.5,1.9-3.8,3.3
					c-0.2,0.9,0.1,1.7,0.9,3c-0.6-0.6-1.2-1.1-2.2-1.4c-2.9-0.7-4.7,2.8-5.4,4.1l-0.5,0.9l1,0.4c2.8,1.2,5.1,2,7.9,2
					c0.1,0,0.2,0,0.3,0H63l-0.3-1.2c-0.3-1.2-0.7-2.5-1.3-3.7c0.5,0.6,1.1,1.4,1.7,2.2L64.4,204.5z"/>
				<path class="st1" d="M100.3,208l0.1-1.2c0.3-2.8,0.4-5.4,0-9.1l-0.2-1.6l-1.3,0.8c-0.5,0.3-1.1,0.6-1.6,0.9
					c-0.5,0.3-1,0.5-1.4,0.8c0.7-0.7,1.4-1.6,2.2-2.8l0.8-1.1l-1.3-0.4c-3-1-6.5-2-10.6-1.4l-1.5,0.2l0.8,1.3c2.2,3.5,4,5.9,6.2,5.9
					c0,0,0,0,0.1,0c0.6,0,1.3-0.2,1.9-0.6c-0.6,0.7-0.9,1.5-0.8,2.5c0.1,0.5,0.3,1.1,0.5,1.6c-0.8-0.7-1.6-1.1-2.4-1.1
					c-2-0.1-3.6,1.6-5.5,4.5l-0.9,1.3L87,209c0.9,0.1,1.8,0.3,2.6,0.5c1.7,0.4,3.5,0.8,5.3,0.8c0.6,0,1.3,0,1.9-0.1l1.4-0.2
					l-0.7-1.3c-0.6-1-1.1-1.8-1.6-2.6c0.9,0.7,1.9,1.2,3.1,1.6L100.3,208z"/>
				<path class="st1" d="M90.6,201.5c0.1-1.6-1.3-2.8-4.7-5.5l-1.3-1.1l-0.3,1.7c-0.5,3.2-0.6,5.8,0.7,8.5l0.5,1l0.9-0.6
					C89.1,203.9,90.5,203,90.6,201.5z"/>
				<path class="st1" d="M17.7,174.4h-1.9l1.1,1.5c0.6,0.9,1,1.8,1.4,2.8c0.1,0.2,0.2,0.4,0.3,0.6c-0.4-0.4-0.8-0.9-1.4-1.2
					l-0.9-0.6l-0.5,1c-0.9,1.8-0.8,3.4-0.7,4.8c0,0.3,0,0.5,0,0.8c0,0.1,0,0.3,0,0.4c0,0.8,0,1.8,0.8,2.5c0.3,0.3,0.7,0.4,1.2,0.4
					c0.2,0,0.5,0,0.7-0.1c1.2-0.3,2.2-1,2.6-1.9c0.3-0.6,0.5-1.5,0-2.7c-0.1-0.2-0.2-0.4-0.3-0.7c0-0.1-0.1-0.2-0.1-0.4
					c0.5,0.6,1.1,1,2,1.3c0.3,0.1,0.5,0.1,0.8,0.1c1.9,0,3.8-2.2,4.6-4.6l0.3-0.9l-0.9-0.3c-0.7-0.3-1.5-0.6-2.2-1
					C22.6,175.4,20.6,174.4,17.7,174.4z"/>
				<path class="st1" d="M22.6,184.9c-0.4,1.5,0.7,3.2,3.1,6.5l1.4,2l0.4-2.4c0.1-0.6,0.2-1.2,0.3-1.7c0.4-2.5,0.8-4.6,0.2-6.9
					l-0.3-1.2l-1.1,0.5C24.3,182.8,22.9,183.5,22.6,184.9z"/>
				<path class="st1" d="M19.9,186.5c-0.5,0.2-2.2,0.9-2.6,2.6c-0.2,0.6-0.3,2.1,1.9,3c0.3,0.1,0.6,0.3,1,0.5
					c0.8,0.4,1.6,0.9,2.8,0.9c0.3,0,0.6,0,0.9-0.1l0.6-0.1l0.2-0.5c0.5-1.7-0.2-2.9-0.9-3.8c-0.2-0.3-0.4-0.6-0.5-0.9
					C22.5,186.5,21.2,185.9,19.9,186.5z"/>
				<path class="st1" d="M161.6,210.7l1.1-0.8c2.4-1.7,3.9-2.8,4-4.4c0.1-1.6-1.4-3-4-5.4l-1.3-1.2l-0.3,1.7
					c-0.6,3.1-0.8,5.8,0.1,8.7L161.6,210.7z"/>
				<path class="st1" d="M174.6,201.2l-0.3-1.1l-1,0.5c-0.6,0.3-1.1,0.6-1.6,0.9c0.5-0.8,1-1.9,1.3-3.1l0.3-1.1l-1.1-0.2
					c-3.1-0.5-5.7-0.9-8.8,0.3l-1.1,0.4l0.6,1c0.3,0.4,0.5,0.8,0.7,1.3c0.9,1.7,2,3.7,4.2,3.7c0.1,0,0.3,0,0.4,0
					c0.5-0.1,1-0.2,1.5-0.5c-0.6,0.9-0.7,1.8-0.6,2.5c0,0.6,0.2,1.2,0.5,1.8c-0.6-0.4-1.2-0.6-1.9-0.6c0,0,0,0-0.1,0
					c-1.9,0-3.5,1.8-4.3,4.7l-0.2,0.9l0.9,0.3c1.2,0.4,2.4,0.6,3.6,0.6c1.2,0,2.3-0.2,3.5-0.5l0.9-0.3l-0.2-0.9
					c-0.2-0.9-0.5-1.7-0.8-2.3c0.7,0.6,1.6,1,2.8,1.2l1.2,0.2v-1.2c0-0.8,0-1.6,0.1-2.3C175.2,205.3,175.3,203.3,174.6,201.2z"/>
				<path class="st1" d="M114.8,64.3c0.6,0.4,2.4,1.5,2.4,1.9s-1.6,1.8-2.2,2.4c-1.2,1.1-2.4,2.2-3.6,3.5c-0.7,0.8-1.9,1.9-1.5,3.5
					c0.5,1.9,2.2,2,3.2,2c0.2,0,0.4,0,0.5,0c0.9,0.1,1.7,0.2,2.6,0.2c0.6,0,1.2,0.1,1.8,0.1c0.1,0,0.2,0,0.4,0.8
					c0.2,0.7,0.5,2.1,2,2.3l0.4,0.1l0.3-0.3c0.5-0.4,0.9-0.8,1.4-1.2c1-0.8,1.9-1.6,2.8-2.2c0.7-0.4,1.2-0.6,1.5-0.5
					c0.1,0,0.5,0.3,0.8,1.6c0.8,3.9,1.2,5.7,2.6,6.5c1.4,0.7,3.1,0,6.6-1.5c0.9-0.4,2.6-1.1,2.9-1c0.3,0.2,0.5,1.9,0.7,2.8
					c0,0.2,0,0.4,0.1,0.6c0,0.5,0.1,1.1,0.3,1.6c0.3,0.8,0.9,2,2.1,2.2c0.1,0,0.2,0,0.3,0c0.7,0,1.4-0.4,2.1-1.2
					c0.3-0.4,0.6-0.8,0.9-1.2c0.2-0.3,0.4-0.5,0.6-0.8c1.2-1.4,1.9-2.3,2.4-2.5c0.5-0.1,1.6,0.3,3.3,1c0.4,0.2,0.9,0.4,1.3,0.6
					c1.3,0.6,2.3,0.6,3.1,0.1c1.3-0.8,1.4-2.5,1.4-3.1c0.1-1.9-0.2-3.7-0.5-5.6c-0.3-1.4-0.5-2.6-0.3-2.9s1.5-0.7,2.9-1
					c2.2-0.6,4.4-1.5,6.5-2.9c2.3-1.4,3.6-2.4,3.7-3.7c0.1-1.4-1.1-2.5-3.3-4.3c-0.2-0.2-0.4-0.3-0.6-0.5c-0.2-0.1-0.4-0.3-0.6-0.5
					c-0.6-0.5-0.9-1-0.9-1.3c0-0.2,0.2-0.6,1.3-1.2c0.4-0.2,0.8-0.4,1.2-0.6c1.4-0.7,3-1.4,3.7-3.3l0.1-0.4l-0.1-0.4
					c-0.6-1.6-2-2.2-2.7-2.5c-3.1-1.4-6.4-1.8-8.9-2c-1.8-0.1-3.1-0.2-3.5-0.6c-0.4-0.4-0.5-1.7-0.6-3.7c0-0.6-0.1-1.1-0.1-1.7
					c0-1.1-0.1-2.2-0.2-3.3c-0.3-3.4-0.6-5.5-2.1-6.5c-1.4-1-3.5-0.4-6.7,0.5h-0.1c-1.7,0.5-2.7,0.8-3.2,0.6s-1.1-1.1-1.9-2.7
					c-0.8-1.4-1.6-2.1-2.7-2.3c-1.3-0.3-2.6,0.4-3.5,1.1c-3.8,2.7-6.5,6.2-8.2,10.3c-0.8,2-1.3,2.5-3.5,1.7
					c-3.3-1.2-6.9-2.3-10.9-1.8l-0.8,0.1l-0.1,0.8c-0.3,2,0.5,3.4,1.2,4.6c0.3,0.5,0.6,1,0.7,1.6c0.3,0.9,0.3,1.5,0.1,1.9
					c-0.2,0.4-0.7,0.7-1.5,0.8c-0.2,0.1-0.4,0.1-0.7,0.2c-0.6,0.1-1.1,0.3-1.6,0.3c-1.4,0.2-2.3,0.7-2.8,1.5c-0.6,1.2,0,2.5,0.5,3.4
					C110.1,60.2,112.1,62.6,114.8,64.3z"/>
				<path class="st1" d="M45,74.6c-0.3,1.4,0.6,2.3,1.2,3c0.1,0.1,0.2,0.2,0.3,0.3c1,1.2,2.5,1.5,3.9,0.6c0.4-0.2,0.8-0.5,1.2-0.7
					c0.4-0.3,0.9-0.6,1.3-0.8c2.5-1.4,2.5-1.4,4,1.2s2.5,5.8,2.8,9.4c0.3,3.8,2.1,5.4,5.8,5.5c4,0.1,7.6,1.1,10.7,3.1
					c1.9,1.2,2,1.7,2,1.8c0,0.1-0.1,0.5-1.9,1.6c-0.2,0.1-0.3,0.2-0.5,0.2c-0.3,0.1-0.6,0.3-0.9,0.5c-0.2,0.1-0.4,0.2-0.7,0.3
					c-0.8,0.3-2.2,1-2,2.8c0.2,1.6,1.6,2.2,2.5,2.5c0.2,0.1,0.4,0.2,0.6,0.3c1.6,0.8,3.1,1.5,3.2,1.9s-1,1.9-1.9,3.2
					c-0.6,0.8-1.3,2-1.1,3.2c0.1,0.8,0.6,1.4,1.4,2c0.5,0.4,1.1,0.5,1.6,0.5c0.2,0,0.4,0,0.6-0.1c1.2-0.3,1.7-1.5,2.1-2.3l0.1-0.2
					c0.4-0.8,1-1.7,1.6-1.8c0.6-0.1,1.5,0.5,2.1,1c0.9,0.7,1.8,1.1,2.8,1s2-0.7,2.9-1.7c0.3-0.3,0.7-0.7,1.1-1
					c0.9-0.7,1.9-1.6,2.4-3.1l0.2-0.6l-0.5-0.4c-2.8-2.5-6.3-6.1-8.5-10.6c-0.6-1.2-1.9-4-1.5-4.7s3.6-0.7,4.8-0.7
					c0.4,0,0.7,0,1.1,0.1c1.5,0.2,3.8,0.4,4.7-1.7c0.8-1.9-0.6-3.2-1.5-4.2c-0.4-0.4-0.8-0.8-1-1.1c-0.5-0.9-1.2-1.4-2-1.5
					c-0.3-0.1-0.6,0-0.8,0c0.4-0.5,0.6-1.1,0.8-1.7c0.2,0.3,0.4,0.6,0.7,0.8c0.6,0.4,1.5,0.6,2.5,0.4c6.3-1.3,12.2,1.1,17.5,3.2
					c1.9,0.8,3.3,1.2,4.4,0.6c1-0.6,1.3-2,1.5-4.1c0.1-1.3-0.1-2.2-0.6-2.9c-0.7-0.9-1.9-1-2.7-1c-0.4,0-0.8,0-1.2,0
					c-0.8,0-1.5,0-2.2-0.1c-1.8-0.2-2.1-0.5-2.2-0.6s-0.2-0.6,0.5-2c0.6-1.4,1.3-2.7,2.1-4c0.3-0.6,0.7-1.2,1-1.9l0.6-1.1l-1.2-0.4
					c-3.1-1-5-1.6-5.4-2.4s0.1-2.6,1-5.6c0-0.1,0.1-0.1,0.1-0.2l0.2-0.5c0.3-0.7,0.8-1.9-0.2-3c-1.3-1.5-2.9-0.8-3.8-0.5
					c-2.9,1.1-5.6,2.7-7.9,4.3c-0.5,0.4-1.8,1.2-2.2,1.2c-0.3-0.4-0.6-1.9-0.8-2.6c-0.5-1.9-1-3.7-1.7-5.3c-1.1-2.5-2.5-5-5.4-6.2
					L84,47.5l-0.4,0.3c-1.3,0.8-1.8,2.1-2.2,3.2c-0.5,1.2-0.8,1.9-1.6,2c-1.4,0.3-2.4-0.5-3.8-1.9c-0.5-0.5-1-1-1.5-1.4
					c-1-0.7-1.9-1-2.7-0.7c-0.8,0.3-1.4,1-1.8,2.2c-1,3-0.9,6.1-0.7,8.7c0.2,2.8,0.4,5.5-0.1,6c-0.5,0.4-3-0.2-6.2-1.1
					c-0.6-0.2-1.2-0.3-1.8-0.5c-3-0.9-6.2-1.8-9.5-1l-0.5,0.1L51,63.9c-0.5,1.3,0,2.2,0.4,2.9c1.2,2,2.4,4,2.2,4.5
					c-0.2,0.4-2.6,0.9-5,1.3h-0.1c-0.1,0-0.3,0-0.4,0.1c-0.2,0-0.4,0.1-0.5,0.1C46.8,72.7,45.4,72.9,45,74.6z"/>
				<path class="st1" d="M139.6,169.9c0.9,0.9,1.9,1.3,2.7,1.1c0.9-0.2,1.6-0.9,2.2-2.3c1-2.5,1.5-5.3,1.6-8.5
					c0-1.1,0.1-4.2,0.8-4.6c0.7-0.4,3.6,1,4.6,1.6c2.8,1.4,6.2,3,10.1,3.4c1.5,0.2,2.9,0.2,3.7-0.7s0.5-2.2,0.1-3.7
					c-0.5-1.7-0.8-2.9-0.6-3.3c0.2-0.4,1.5-0.8,3.3-1.4l0.5-0.2c0.3-0.1,0.6-0.2,0.9-0.3c1.1-0.3,1.8-0.9,2.1-1.6
					c0.3-0.8,0.2-1.7-0.4-2.8c-1.6-2.9-4.1-6.6-8.5-8.7c-1.5-0.7-2.8-1.5-3.1-2.2c-0.2-0.7,0.4-1.9,1.3-3.6c1.7-3,3.2-5.9,4-9.3
					c0.3-1.4,0.1-2.4-0.5-3.1c-0.6-0.6-1.6-0.8-3-0.5c-0.5,0.1-1.1,0.2-1.6,0.3l-0.8,0.1c-1.5,0.3-2.6,0.5-2.9,0.3
					c-0.4-0.2-0.8-1.3-1.3-2.9c-0.1-0.2-0.1-0.3-0.1-0.5c-0.2-0.7-0.6-2.2-2.4-2.2c0,0,0,0-0.1,0c-1,0-2.4,0.5-2.9,2.5
					c-0.6,2.3-2.3,3.5-5.4,3.8c-0.7,0.1-1.4,0.1-2,0.2c-1.7,0.2-3.5,0.4-5.2,0.5c-0.9,0.1-2.1,0.2-2.7,1.1c-0.5,0.6-0.6,1.4-0.4,2.4
					c0.4,1.9,0.3,3.8,0.3,5.8c0,1-0.1,2,0,3.1v1h1c0.2,0,0.4,0,0.6,0c-1.7,0.6-3.2,1.7-4.1,3.2c-0.1-2.2-1.3-3.6-3.9-4.8
					c-1.2-0.6-2.1-0.6-2.9-0.3c-0.7,0.3-1.2,1-1.5,2.1c-0.2,0.6-0.2,1.2-0.2,1.8c0,0.4,0,0.8-0.1,1.2c-0.1,0.8-0.4,1.4-0.8,1.5
					c-0.4,0.2-0.8-0.1-1.1-0.3c-4.2-2.7-7.7-0.9-10.8,0.7c-0.5,0.3-1.1,0.6-1.6,0.8c-1.3,0.6-3.9,1.9-3.8,4.4
					c0.1,2.3,2.1,2.6,3.3,2.7c0.5,0.1,0.9,0.1,1.2,0.3c0.5,0.2,0.9,0.3,1.4,0.3c0.2,0,0.5,0.1,0.7,0.1c1.3,0.4,2,0.9,2.2,1.5
					s-0.3,1.5-1.3,2.5c-0.3,0.3-0.7,0.6-1.1,0.9c-1,0.7-2.3,1.6-2.7,3.4l-0.2,0.7l0.6,0.4c3.1,1.9,6.1,1.5,9,1h0.1
					c2-0.3,3.5-0.6,3.9-0.3s0.6,1.7,0.9,3.6c0.5,3.3,1.5,5.7,3.2,7.7c0.8,0.9,1.6,1.7,2.7,1.7c0,0,0,0,0.1,0c1.2,0,2-0.9,2.6-1.6
					c1.7-2.1,3-3.7,3.8-3.8s2.2,1.1,4.3,2.9C139.2,169.5,139.4,169.7,139.6,169.9z"/>
				<path class="st1" d="M104,136.8c2.1,0.2,4.2,0.3,6.3,0.5l3.4,0.3l0.3-0.7c0.7-1.8-0.1-2.9-0.6-3.6c-0.1-0.1-0.2-0.2-0.3-0.4
					c-2.4-3.8-2.9-4-7.1-2.5l-0.4,0.1c-2.2,0.8-4.4,1.6-6.6,2c-3.7,0.7-4.9,0.3-5.3-0.2c-0.3-0.4-0.6-1.6,0.9-4.8
					c0.7-1.5,1.1-2.7,0.6-3.6c-0.5-1.1-1.9-1.4-3.5-1.7c-1.1-0.2-2.7-0.5-4.4,1l-0.6,0.6l0.4,0.6c-1-0.5-2-0.9-3.2-1
					c1.1-1,2-3.1,2.2-3.6c1-2.5,0.6-3.3,0.4-3.6c-0.5-0.9-1.2-1.4-2-1.5s-1.7,0.3-2.4,1c-0.6,0.6-1.1,1.3-1.5,2
					c-0.3,0.4-0.5,0.8-0.8,1.2c-0.4,0.6-0.9,0.8-1.2,0.8c-0.1,0-0.2,0-0.3-0.3c-1-2-2.2-3.2-3.7-3.7c-2.2-0.7-4.5,0.5-6.8,1.8
					c-0.3,0.2-0.6,0.3-1,0.3c-1.3,0.1-2.3,0.6-2.9,1.4c-0.9,1.2-0.8,2.7-0.7,4c0.4,3,0.3,6.2-0.3,9.5c-0.3,1.9-0.7,2.4-0.9,2.5
					s-0.8,0-2.5-0.9c-0.2-0.1-0.4-0.2-0.6-0.4c-0.8-0.5-1.9-1.3-3.4-0.6l-0.3,0.1l-0.2,0.3c-0.8,1.3-0.7,2.7-0.7,4
					c0,0.4,0,0.9,0,1.3c-0.1,1.2-0.3,1.7-1,2.1c-4.7,2.7-4.2,7-3.8,10.9l0.1,1.2l0.8,0.1c2.3,0.2,4.1-0.6,5.7-1.4
					c0.5-0.3,1.1-0.5,1.6-0.7c0.9-0.3,2.7-1,3.3-0.7c0.5,0.3,0.9,2.1,1,3c0.1,0.4,0.1,0.8,0.2,1.2c0.2,1.4,0.4,3,1.7,4.3l0.5,0.5
					l0.6-0.3c4.4-2,6.7-4.1,9.1-8.1c0.8-1.4,2.3-3.9,2.8-4c0.6,0.1,2.1,2.7,3,4.2c2.1,3.5,4.3,6.9,8,8.7l0.6,0.3l0.5-0.5
					c1.2-1.1,1.5-2.2,1.7-3.1c0.1-0.2,0.1-0.5,0.2-0.7c0.5-1.5,1-2.4,1.6-2.6c0.6-0.3,1.6,0,3.1,0.8c0.2,0.1,0.4,0.3,0.6,0.4
					c0.8,0.6,2,1.6,3.9,0.7l0.5-0.2l0.1-0.6c0.4-4.1,0.3-8.5-0.4-13.7c-0.2-1.6-0.4-3.2,0.1-3.6C100.6,136.6,102.3,136.6,104,136.8z
					"/>
				<path class="st1" d="M165.7,24c0.1,0,0.1,0,0.2,0c3.9,0,7.5-1.2,10.7-3.4c1.4-1,4.4-3.2,3.5-6.7c-0.9-3.6-4.6-4.1-6.2-4.3
					c-3.7-0.5-7.4,0.3-11,2.1c-2.2,1.2-5.9,3.1-5.6,7.5C157.4,22.1,160.8,24,165.7,24z"/>
				<path class="st1" d="M179,115.4c0.6,0.3,1.2,0.4,1.9,0.4c1.4,0,2.7-0.6,4.1-1.9c3-2.7,4.8-6.3,5.1-10.4v-0.1c0-2,0-4.9-2.8-6.2
					c-3.2-1.5-5.6,0.8-6.5,1.5c-3.1,2.8-4.7,6.4-4.9,10.7C175.8,112.5,176.9,114.4,179,115.4z"/>
				<path class="st1" d="M186.3,159.5c-1.1,0.1-4.6,0.2-5.6,3.6c-0.9,3,1.4,5.1,2.1,5.8c2.3,2.1,5.2,3.3,8.9,3.5h0.1h0.1
					c1.8-0.1,4.8-0.4,5.9-3.4c1.3-3.5-1.6-5.8-2.6-6.6C192.6,160.3,189.5,159.3,186.3,159.5z"/>
				<path class="st1" d="M18.1,22.2c0.9,0.6,1.9,0.9,2.8,0.9c0.6,0,1.2-0.2,1.8-0.5c1.3-0.7,2-2.2,1.9-4.1c-0.1-3.8-1.8-6.7-4.9-8.5
					c-1.5-0.8-2.9-1-4.1-0.3c-1.3,0.7-2,2.1-2.2,4.1l0,0l0,0C13.5,17.4,15.1,20.3,18.1,22.2z"/>
				<path class="st1" d="M42.8,101.2L42.8,101.2c-3.9,0-7.4,3-7.5,6.5s3.2,6.6,7.2,6.7c0.1,0,0.2,0,0.2,0c2.1,0,4.2-0.8,5.6-2.3
					c1.3-1.3,1.9-2.8,1.9-4.4C50.2,104.3,46.7,101.2,42.8,101.2z"/>
				<path class="st1" d="M39.9,62.3c0.1,0,0.1,0,0.2,0c2,0,3.9-0.7,5.3-2.1c1.5-1.5,2.3-3.5,2.3-5.8c0-4.4-3.1-7.4-7.5-7.5
					c-2.2-0.1-4.2,0.8-5.7,2.3c-1.4,1.5-2.2,3.4-2.1,5.5C32.5,58.8,35.9,62.2,39.9,62.3z"/>
				<path class="st1" d="M120.9,115.2C120.9,115.2,121,115.2,120.9,115.2c3.7,0,6.9-2.9,7-6.3s-2.9-6.6-6.6-6.7
					c-1.9-0.1-3.9,0.7-5.3,2.1c-1.3,1.3-2,2.9-2,4.5C114,112.1,117.3,115.1,120.9,115.2z"/>
			</g>
			<path class="st2" d="M2,146.6C2,98.4,2,50.2,2,2c68.8,0,137.7,0,206.5,0c0,58,0,116,0,174.1c-1.8-0.5-3.6-0.1-5.4,0
				c-38,2.9-75.9,3-113.7-2.8c-29.2-4.4-57.3-12.2-83.8-25.5C4.5,147.3,3.4,146.5,2,146.6z M109.8,150.8c-0.5,2.2-2,2.7-3.1,3.6
				c-2.9,2.5-2.8,4,0.7,5.7c2.6,1.2,5.4,1.6,8.2,1.1c3.2-0.6,4.9,0.2,5.3,3.6c0.4,2.8,1.9,5.2,3.9,7.2c3.1,3,4.8,2.9,7.5-0.7
				c2.5-3.3,2.7-3.5,5.4-0.6c4.4,4.9,6.9,3.8,8.9-2.6c0.3-1.1,0.5-2.2,0.9-3.3c0.7-2.1,0.1-4.5,1.5-6.7c4.5,2.1,8.9,4,13.7,4.5
				c5.3,0.6,6,0.1,6.2-5.2c2.9,1.3,5.2,3.4,8.2,4.3c1.1,0.3,1.1,1.4,1.4,2.3c2,7,8.3,10.9,15.3,9.7c6.1-1,8.2-6.5,4.3-11.3
				c-3.6-4.5-9.7-6.1-15.6-4.2c-4.9,1.6-9.5-0.4-11.9-5.2c5.1-2.4,5.1-2.4,2.3-7.4c-0.2-0.4-0.5-0.8-0.7-1.3c-1.9-3.3-2-3.4,1.4-4.7
				c4.4-1.6,8.2-4.1,11.4-7.5c1.5-1.6,4.3-2.8,3.3-5.5c-0.9-2.4-3.7-2.4-5.9-2.8c-2.8-0.5-5.6-0.8-8.6-1.2c1.7-3.3,3.1-5.9,7.1-5.2
				c1.8,0.3,3.5-0.8,4.9-1.9c4.3-3.6,6.4-8.3,6.1-13.8c-0.1-3-1.3-5.6-4.1-6.7c-2.7-1.1-5.2-0.1-7.3,1.6c-4.5,3.7-7.2,8.6-6.1,14.2
				c1.2,6.4-2.5,9.2-6.4,12.3c-1-0.6-0.8-1.3-0.9-1.9c-0.4-4.5-0.7-4.7-5-4.1c-0.6,0.1-1.3,0.3-1.9,0.4c-1.1,0.2-2.3,0.7-3.1-0.6
				c-0.8-1.4-0.8-2.8,0.4-4.1c0.9-0.9,1.9-1.8,2.8-2.7c3.7-3.6,6.8-7.6,8.7-12.4c1.3-3.3,1-3.9-2.6-4.4c-4.1-0.6-8.1-0.7-12.2-0.2
				c-4.9,0.5-9.4,2.3-14.1,4c0.2-4.3,0.3-4.8,2.1-4.4c2.5,0.6,3.1-0.8,4.2-2.4c3-4.5,3-4.4,8.1-2.4c1.2,0.5,2.9,1.8,3.6,0.9
				c2.7-3.3,4.9-0.7,7.2,0.1c3.9,1.4,7.9,2.2,12,2.3c4.1,0.1,4.9-0.9,3.9-5c-1.3-5.6-4.3-10.2-8.9-13.7c-1.2-0.9-2.2-1.7-0.8-3.5
				c2.6-3.2,2.4-3.3-0.5-6.3c-2.6-2.6-2.6-2.6,0.6-4.8c0.4-0.3,0.8-0.5,1.3-0.8c2.2-1.3,2.6-3,0.5-4.7c-2.2-1.8-1.7-3,0.3-4.6
				c3.7-2.9,6.2-6.7,8-11c1.4-3.5,0.8-4.5-2.9-4.6c-6.2-0.1-11.9,1.7-17.2,5c-1.2,0.7-2.1,2.1-4,1.8c-0.7-2.3-1.1-4.8-2.2-6.9
				c-1.5-2.8-4.6,0.2-6.7-1.3c-0.2-1.4,0.7-2.2,1.4-3.1c1.5-1.8,3.2-3.2,5.4-4.2c2-1,3.3,0.9,5,1.3c6.8,1.6,13,0.3,18.4-4.2
				c2.4-2,3.8-4.7,2.9-7.9c-0.9-3.2-3.5-4.6-6.6-5.1c-4.5-0.8-8.8-0.3-12.9,1.8c-3.8,2-6.9,4.5-7.3,9.2c-0.1,0.8-0.1,1.8-0.9,2.2
				c-4.5,2.4-7.3,6.4-10.2,10.5c-2.1-1.6-3.1-5.2-6.4-3.6c-2.5,1.2-3.6-0.1-4.9-1.7c-2.7-3.3-5.8-6.2-9.3-8.7
				c-3.7-2.6-7.6-4.5-12-5.3c-3.2-0.6-4.3,0.4-4.1,3.6c0.1,1.5,0.4,2.9,0.8,4.4c1.1,5,2.6,9.8,4.4,14.6c0.8,1.9,1.4,3.6-1.2,4.9
				c-2.2,1.1-2.2,3-1.1,5.1c0.4,0.7,0.7,1.5,1.1,2.2c0.8,1.5,0.6,2.7-1.2,2.9c-2.9,0.4-5.5,1.2-7.5,4.5c-0.5-3.4,0.6-5.7,1-8.1
				c0.7-4.4,1.1-8.8-0.1-13.2c-1-3.7-1.6-4-5.1-2.2c-4.7,2.4-8.8,5.7-11.6,10.3c-0.4,0.7-0.7,1.9-1.3,2c-3.2,0.8-4.6,2.9-5.4,5.9
				c-0.3,1.2-1.4,1.3-2.4,0.6s-1.9-1.5-0.7-2.8c0.3-0.4,0.8-0.6,1.1-1c2.2-2.6,2.2-3.2-0.4-5.5c-0.6-0.5-1.5-0.7-1.5-1.9
				c2-1.8,4.1-3.5,6.1-5.4c2.6-2.5,4.8-5.4,6-8.9c1-3.2,0.3-4.3-3-4.5c-0.8-0.1-1.6,0-2.5,0.1c-7.1,0.4-14,1.8-20.1,5.7
				c-2.1,1.3-3.2,1-4.2-1.1c-0.2-0.4-0.5-0.9-0.7-1.3c-1.3-2-2.6-2.2-4.3-0.4c-1.2,1.3-2.5,2.6-4,3.6c-3.5,2.5-4.5,2.1-5.6-2.1
				c-1.2-4.7-2.5-5.1-6.6-2.2c-2.7,2-4.2,4.9-6.4,7.8c-2.3-3.7-5.2-6.3-4.6-11.1c0.5-4.5-2.1-8.2-6.1-10.4s-7.6-0.4-8.5,4
				c-1.1,5.6,3.6,12.3,9.3,13c4.8,0.6,6.4,2.5,6.6,8c-0.7,0.4-1.2,0-1.8-0.3c-3.2-1.6-6.4-3.4-9.9-4.2c-4.9-1.2-6.3,0-5,4.7
				c0.8,2.9-0.1,3.8-2.8,4.2c-4.3,0.7-5.1,2.3-3.5,6.4c1.7,4.4,4.1,8.2,7.9,11.1c2.3,1.8,2.3,3.2,0.3,5.1c-0.8,0.8-1.5,1.7-2.2,2.7
				c-2.3,3.1-4.2,6.3-4.8,10.1c-0.5,3,0.4,3.9,3.4,3.7c0.7,0,1.3-0.2,1.9-0.3c3.6-0.4,3.6-0.4,3.5,3.1c-0.1,4.1,0.3,4.3,4,3.2
				c3.7-1.1,4.3-0.6,4.3,3.1c0,3.2-0.2,3.3-4.9,3c-3.8-0.3-4.5,0.3-3.7,4c0.9,4.2,2.7,8.1,4.6,11.9c1,2,1.1,3.5-0.5,5.3
				c-3.2,4-4.1,8.8-4.4,13.8c-0.1,2.3,0.8,3.4,3.1,3.3c0.5,0,1-0.1,1.5,0c4.2,0.1,4.2,0.1,3.4,4c-0.2,1.3-1.1,3,0,3.7
				c2.6,1.9,1.7,4.3,1.8,6.7c0,1.8,0.1,3.6,0.5,5.4c1,4,3.1,5,6.9,3.6c4.3-1.6,7-4.7,9-8.6c0.8-1.6,1.1-3.5,2.4-4.7
				c0.9-0.1,1.6,0.4,2.3,0.8c3.9,2.4,3.9,2.4,2.8,6.9c-0.5,2.2-0.7,4.5-0.4,6.8c0.5,4.1,1.6,4.8,5.5,3.5c2-0.7,4-2.6,5.9-2
				c2.7,0.8,1.4,4,2.1,6c1,2.9,1.8,3.4,4.7,2.1c3.4-1.7,6.2-4.1,8.6-7.1c0.8-1.1,1-2.9,2.9-2.9c1.3,0.9,1.8,2.4,2.6,3.6
				c2,2.8,4.3,5.4,7.2,7.3c2.5,1.7,3.7,1.2,4.8-1.6c0.6-1.5,0.2-3.3,1.4-4.6c1.5-0.3,2.4,0.9,3.5,1.4c1.9,0.8,2.9,4,5.3,2.6
				c2.2-1.2,0.9-3.9,1-5.9c0.2-4.9,0.2-5.1,5.1-3.7C108.5,150.3,109.1,150.5,109.8,150.8z"/>
			<path d="M2,146.6c1.4,0,2.5,0.8,3.6,1.3c26.5,13.3,54.6,21,83.8,25.5c37.8,5.7,75.7,5.6,113.7,2.8c1.8-0.1,3.6-0.5,5.4,0
				c0,1,0,2,0,2.9c-9.3-0.4-18.5,1-27.8,1.4c-4,0.2-4.4,1.2-4,6.4c0.2,2,1,3,3,2.9c9.6-0.7,19.2,0,28.7-1.8c0,1.3,0,2.6,0,3.9
				c-2.4-0.8-4.9-0.3-7.3-0.2c-22.1,1.3-44.2,1.6-66.3,0.7c-33.3-1.3-66.2-5.2-98.1-15.5c-10.8-3.5-21.2-7.8-31.2-13
				c-1.2-0.6-2.4-1-3.6-1.6c0-1.3,0-2.6,0-3.9c3,2.3,6.4,3.7,9.8,5.4c0.8,0.4,1.8,0.9,2.4-0.4c1.5-2.9-0.1-8.1-3-9.5
				c-3.1-1.5-6.2-2.9-9.2-4.3C2,148.5,2,147.5,2,146.6z M31.2,162.2c-1.3,1.6-0.9,3.1-0.9,4.5c-0.1,4.9-0.1,4.9,4.7,6.5
				c4.5,1.5,9,2.9,13.5,4.1c4,1.1,4.4,0.9,4.3-3c0-2.1,1.1-5-1.8-6C44.4,166.1,37.7,164.2,31.2,162.2z M148.6,180.8v-0.1
				c-1.3,0-2.6,0-3.9,0c-5.6,0-6.6,1.1-5.7,6.5c0.3,1.5,0.9,2.4,2.4,2.5c5,0.1,10.1,0.2,15.1,0.3c1.6,0,2.4-0.8,2.4-2.4
				c0-1.3,0-2.6,0-3.9c0-2.1-1.1-2.9-3.1-2.8C153.5,180.9,151,180.8,148.6,180.8z M111.3,178.8C111.3,178.9,111.3,178.9,111.3,178.8
				c-1.6-0.1-3.3-0.2-4.9-0.4c-4.5-0.4-4.6-0.3-4.5,4.4c0,4.1,0,4.2,3.9,4.6c4.4,0.5,8.8,0.8,13.2,1.1c1,0.1,2.2,0.3,2.7-0.6
				c1.2-2.1,0.7-4.5,0.4-6.7c-0.2-2.1-2.1-1.6-3.5-1.8C116.2,179.3,113.8,179.1,111.3,178.8z M85.8,180.1c0-2.1,0.4-4.4-2.6-4.9
				c-4.2-0.7-8.3-1.5-12.5-2.3c-0.8-0.1-1.6-0.2-2.3,0.5c-2,2.2-0.2,8.4,2.8,9.1c3.2,0.7,6.4,1.2,9.6,1.7
				C85.8,185,85.8,184.9,85.8,180.1z M167.4,190v-0.1c1.6,0,3.2,0,4.9,0c1.5,0,2.2-0.9,2.5-2.4c1-5.3-0.1-6.8-5.4-6.7
				c-1.9,0-3.9,0.1-5.8,0.1c-1.2,0-2.1,0.5-2.5,1.9c-1.4,5.1,0.2,7.3,5.3,7.3C166.8,190,167.1,190,167.4,190z M16.6,161.5
				c-0.7,3.2,0.6,5.3,4.1,6.3c1.7,0.5,3.3,1.3,5,2c0.8,0.3,1.5,0.6,2.2-0.2c1.1-1.3,0.5-8.4-1-9.1c-2.6-1.3-5.4-2.3-8.1-3.3
				c-1.5-0.5-2.1,0.3-2.1,1.7C16.5,159.7,16.6,160.5,16.6,161.5z M99.8,182.2c0-4.4,0-4.5-4.5-5.2c-0.5-0.1-1-0.1-1.5-0.2
				c-6-0.7-6.5-0.2-6,5.7c0.2,2,0.9,3,2.9,3.2c1.5,0.2,2.9,0.4,4.4,0.5C99.7,186.8,99.7,186.8,99.8,182.2z M131.4,189.2
				c5.7,0.3,6.1-0.2,5.6-5.9c-0.1-1.7-0.6-2.8-2.5-2.8c-2.4-0.1-4.9-0.3-7.3-0.4c-1.3-0.1-2.1,0.3-2.5,1.7c-1.4,4.9,0.2,7.2,5.3,7.4
				C130.4,189.3,130.9,189.2,131.4,189.2z M54.9,174.4c0.3,1.7-0.9,4.3,2.1,5.1c2.2,0.6,4.4,1.1,6.6,1.6c1,0.2,1.8-0.2,2.2-1.3
				c1.5-4.5-0.2-7.7-4.9-8.9c-0.5-0.1-0.9-0.3-1.4-0.4C54.9,169.3,54.9,169.4,54.9,174.4z"/>
			<path d="M208.5,276.4c-2.4-0.7-4.9-0.2-7.3,0c-29.4,2.2-58.8,2.1-88.2-1.2c-35.6-4.1-69.7-12.9-101-30.9c-3.4-2-6.7-4.1-10-6.2
				c0-1,0-2,0-2.9c0.7,0.3,1.5,0.6,2.2,1c27.6,18,58.2,28,90.4,33.5c36.4,6.2,72.9,6.2,109.6,3.7c1.5-0.1,3-0.1,4.3-0.9
				C208.5,273.7,208.5,275,208.5,276.4z"/>
			<path d="M122.9,320.6c-4.2-2-8.8-2.2-13.3-3.1c-25.1-5.4-49.8-12.1-73.4-22.5c-10.8-4.8-21.1-10.3-30.8-17
				c-1-0.7-1.9-1.8-3.4-1.6c0-1.3,0-2.6,0-3.9c0.3,0.1,0.7,0.1,0.9,0.3c24.2,17.6,51.7,27.7,80.3,35.5c18,4.9,36.3,8.5,54.7,11.5
				c1,0.2,2,0.2,2.8,0.9C134.8,320.6,128.9,320.6,122.9,320.6z"/>
			<path class="st2" d="M2,149.5c3.1,1.4,6.2,2.8,9.2,4.3c2.9,1.4,4.5,6.6,3,9.5c-0.7,1.3-1.6,0.8-2.4,0.4c-3.3-1.6-6.8-3.1-9.8-5.4
				C2,155.4,2,152.4,2,149.5z"/>
			<path d="M120.2,203.6c0.5-2.5-1.4-6.1,0.8-8c1.9-1.6,5.3-0.4,8.1-0.4c2.9,0,6.5-1.3,8.5,0.5c2.1,1.9,0.4,5.6,0.6,8.4
				c0.2,2.3,0,4.6,0.1,6.9c0.1,1.7-0.7,2.4-2.3,2.4c-4.4,0-8.8-0.1-13.2,0c-1.9,0-2.7-0.7-2.6-2.6
				C120.3,208.5,120.2,206.3,120.2,203.6z M122.8,208.6c2.3-1.1,4.4-2.4,4.3-4.4c-0.1-2.1-2.1-3.6-4.5-4.8
				C122.1,202.7,121.9,205.5,122.8,208.6z M125.2,211.4c2.8-0.1,5.4,0.8,8-0.7C129.4,205.2,128.5,205.2,125.2,211.4z M125.3,197.9
				c1.3,1.9,2.3,4.1,4.2,4s3.5-1.8,3.9-4.3C130.7,197.2,128.3,196.9,125.3,197.9z M135.6,200.6c-5.2,3.7-5.2,4.5,0.1,8
				C136.4,205.9,136.4,203.5,135.6,200.6z"/>
			<path d="M49.7,194.2c0-2.3-0.1-4.6,0-6.9c0.2-2.9,1-3.5,3.7-2.9c0.2,0,0.3,0.1,0.5,0.2c4,1.7,9.9,1.2,11.8,4.9
				c2.4,4.5,0.7,10.2,0.7,15.4c0,2.1-1.5,2.8-3.4,2.4c-3.7-0.9-7.3-1.9-10.9-2.8c-1.6-0.4-1.9-1.6-1.9-3c0-2.4,0-4.9,0-7.3
				C50,194.2,49.8,194.2,49.7,194.2z M52.4,199.4c5.3-3.2,5.1-5.8-0.4-9.6C51.8,193,51.7,196,52.4,199.4z M55.2,187.9
				c0.7,2.5,1.5,5,3.6,5.7c1.9,0.6,3.2-1.6,4.3-3.4C60.6,188.7,58.3,187.7,55.2,187.9z M61.6,204.5c-0.7-2.5-1.4-5-3.5-5.5
				c-1.8-0.4-3.2,1.5-4.2,3.6C56.4,203.7,58.7,204.6,61.6,204.5z M63.8,202.2c0.7-3.2,0.8-5.6,0-8.2
				C59.4,196.4,59.4,196.6,63.8,202.2z"/>
			<path d="M101.6,202.4c0,2.1,0.1,4.2,0,6.3c-0.1,2.3-1.1,3.7-3.7,3.2c-4-0.7-8-1.3-12-2c-1.7-0.3-2.6-1.3-2.6-3
				c-0.1-4.2-0.3-8.5-0.3-12.7c-0.1-2.6,1.5-3.4,3.8-3c4,0.6,8,1.3,12.1,1.8c2.4,0.3,3.4,1.5,3.2,3.9c-0.1,1.8,0,3.6,0,5.4
				C101.8,202.4,101.7,202.4,101.6,202.4z M97.2,195.4c-3.3-1.1-6.5-1.9-10.1-1.4C91.2,200.4,92.8,201.7,97.2,195.4z M87.2,208
				c3.3,0.5,6.2,1.7,9.6,1.2C92.7,202.1,90.8,202.7,87.2,208z M99.4,197.9c-2.3,1.5-5,2.2-4.7,4.4c0.3,1.9,2.2,3.6,4.7,4.4
				C99.7,203.8,99.8,201.3,99.4,197.9z M85.3,196.8c-0.5,3.1-0.6,5.5,0.6,7.9C91,201.6,91,201.3,85.3,196.8z"/>
			<path d="M14,181.2c0-2.3,0-4.6,0-6.9c0-2.1,1-3.2,3.1-2.3c3.6,1.5,7.2,3.1,10.8,4.7c1.2,0.5,1.7,1.5,1.6,2.8
				c-0.3,4.9-0.7,9.8-1,14.7c-0.2,2.3-1.4,2.7-3.3,1.8c-0.7-0.4-1.5-0.8-2.2-1C16,193,11.8,189.2,14,181.2z M26.3,178.2
				c-2.6-0.9-4.8-2.9-8.6-2.8c1.8,2.7,1.9,5.9,4.5,6.7C23.7,182.5,25.6,180.6,26.3,178.2z M16.6,179c-0.9,1.9-0.6,3.5-0.6,5.1
				c0,1-0.3,2.7,1.5,2.3c1.4-0.3,2.7-1.4,1.9-3.2C18.9,181.7,18.5,180.1,16.6,179z M26.5,190.8c0.5-3.2,1.2-5.6,0.5-8.2
				C22.5,184.8,22.4,185.1,26.5,190.8z M23.5,192.3c0.5-1.7-0.7-2.7-1.3-4c-0.4-0.8-0.9-1.3-1.9-0.9c-0.9,0.4-1.8,0.9-2,1.9
				c-0.3,0.9,0.5,1.5,1.3,1.8C20.8,191.6,21.9,192.7,23.5,192.3z"/>
			<path d="M176,205.3c0,1.8,0,3.6,0,5.4c-0.1,3.6-0.1,3.8-3.9,3.6c-4-0.2-9.1,1.8-11.8-0.9c-2.4-2.4-0.6-7.5-0.7-11.3
				c-0.1-6.3,0-6.3,6.5-6.3c2.3,0,4.6,0.1,6.9,0c2.4-0.1,3.2,0.9,3,3.2C175.9,201.1,176,203.2,176,205.3L176,205.3z M172,198.1
				c-2.9-0.5-5.4-0.9-8.2,0.3c1.3,2.1,2.1,4.7,4.3,4.4C170,202.6,171.4,200.5,172,198.1z M162.1,201c-0.6,3.1-0.8,5.6,0.1,8.2
				C166.9,205.8,167,205.3,162.1,201z M173.7,201.5c-2.1,0.9-3.8,2.3-3.6,4.2c0.1,1.7,1.4,3.5,4,3.9
				C174,206.8,174.5,204.3,173.7,201.5z M170.9,212c-0.5-2-1.5-4-3.2-4s-2.8,1.9-3.3,4C166.7,212.7,168.7,212.7,170.9,212z"/>
			<path d="M109.8,150.8c-0.8-0.3-1.4-0.5-2-0.7c-4.8-1.3-4.9-1.2-5.1,3.7c-0.1,2,1.2,4.7-1,5.9c-2.4,1.3-3.4-1.9-5.3-2.6
				c-1.2-0.5-2-1.7-3.5-1.4c-1.2,1.3-0.9,3.1-1.4,4.6c-1.1,2.8-2.3,3.3-4.8,1.6c-2.9-1.9-5.2-4.5-7.2-7.3c-0.9-1.2-1.3-2.6-2.6-3.6
				c-1.9,0.1-2.1,1.9-2.9,2.9c-2.4,3-5.2,5.5-8.6,7.1c-2.8,1.4-3.7,0.8-4.7-2.1c-0.7-2.1,0.6-5.2-2.1-6c-2-0.6-3.9,1.3-5.9,2
				c-3.8,1.4-5,0.7-5.5-3.5c-0.3-2.3-0.1-4.6,0.4-6.8c1.1-4.5,1.1-4.5-2.8-6.9c-0.7-0.4-1.3-1-2.3-0.8c-1.4,1.2-1.6,3.1-2.4,4.7
				c-2,3.9-4.8,7.1-9,8.6c-3.8,1.4-6,0.4-6.9-3.6c-0.4-1.7-0.5-3.6-0.5-5.4c-0.1-2.4,0.8-4.8-1.8-6.7c-1-0.8-0.2-2.5,0-3.7
				c0.8-3.9,0.8-4-3.4-4c-0.5,0-1,0-1.5,0c-2.3,0.1-3.3-1-3.1-3.3c0.2-5,1.2-9.8,4.4-13.8c1.5-1.9,1.4-3.4,0.5-5.3
				c-1.9-3.8-3.6-7.7-4.6-11.9c-0.8-3.7-0.2-4.3,3.7-4c4.7,0.4,4.9,0.2,4.9-3c0-3.7-0.7-4.1-4.3-3.1c-3.8,1.1-4.1,0.8-4-3.2
				c0.1-3.5,0.1-3.5-3.5-3.1c-0.7,0.1-1.3,0.2-1.9,0.3c-3,0.2-4-0.8-3.4-3.7c0.7-3.8,2.6-7,4.8-10.1c0.7-0.9,1.3-1.9,2.2-2.7
				c2-1.9,2-3.3-0.3-5.1C8.6,52.2,6.1,48.3,4.5,44c-1.6-4.1-0.8-5.8,3.5-6.4c2.7-0.4,3.6-1.3,2.8-4.2c-1.3-4.7,0.1-5.9,5-4.7
				c3.5,0.8,6.7,2.6,9.9,4.2c0.6,0.3,1.1,0.6,1.8,0.3c-0.3-5.5-1.8-7.4-6.6-8c-5.6-0.7-10.4-7.4-9.3-13c0.9-4.4,4.6-6.2,8.5-4
				c4,2.2,6.7,5.9,6.1,10.4c-0.6,4.8,2.3,7.5,4.6,11.1c2.2-2.9,3.7-5.8,6.4-7.8c4-3,5.4-2.5,6.6,2.2c1.1,4.3,2,4.7,5.6,2.1
				c1.5-1,2.8-2.3,4-3.6c1.7-1.8,3.1-1.6,4.3,0.4c0.3,0.4,0.5,0.8,0.7,1.3c0.9,2.1,2.1,2.4,4.2,1.1c6.1-3.9,13-5.4,20.1-5.7
				c0.8,0,1.6-0.1,2.5-0.1c3.2,0.2,4,1.3,3,4.5c-1.1,3.5-3.4,6.4-6,8.9c-2,1.9-4.1,3.7-6.1,5.4c0,1.2,0.9,1.4,1.5,1.9
				c2.6,2.3,2.6,3,0.4,5.5c-0.3,0.4-0.8,0.6-1.1,1c-1.2,1.3-0.3,2,0.7,2.8c1,0.7,2,0.6,2.4-0.6c0.8-3,2.3-5.1,5.4-5.9
				c0.6-0.1,0.9-1.3,1.3-2c2.8-4.6,6.8-7.9,11.6-10.3c3.5-1.8,4.1-1.5,5.1,2.2c1.2,4.4,0.8,8.7,0.1,13.2c-0.4,2.4-1.5,4.7-1,8.1
				c2-3.2,4.6-4.1,7.5-4.5c1.8-0.2,2-1.4,1.2-2.9c-0.4-0.7-0.7-1.5-1.1-2.2c-1-2-1.1-4,1.1-5.1c2.6-1.3,2-2.9,1.2-4.9
				c-1.9-4.7-3.3-9.6-4.4-14.6c-0.3-1.4-0.7-2.9-0.8-4.4c-0.2-3.2,0.9-4.2,4.1-3.6c4.4,0.9,8.4,2.8,12,5.3c3.5,2.5,6.6,5.4,9.3,8.7
				c1.3,1.6,2.5,2.9,4.9,1.7c3.3-1.6,4.3,2,6.4,3.6c3-4.1,5.8-8.1,10.2-10.5c0.8-0.4,0.8-1.4,0.9-2.2c0.4-4.7,3.5-7.2,7.3-9.2
				c4.1-2.2,8.4-2.6,12.9-1.8c3.1,0.5,5.7,1.9,6.6,5.1c0.9,3.2-0.5,5.8-2.9,7.9c-5.4,4.5-11.6,5.8-18.4,4.2c-1.7-0.4-3-2.2-5-1.3
				c-2.1,1-3.9,2.4-5.4,4.2c-0.7,0.9-1.6,1.7-1.4,3.1c2,1.4,5.2-1.5,6.7,1.3c1.1,2.1,1.5,4.6,2.2,6.9c1.8,0.3,2.8-1.1,4-1.8
				c5.3-3.3,11-5.1,17.2-5c3.7,0.1,4.3,1,2.9,4.6c-1.7,4.3-4.3,8.1-8,11c-2,1.6-2.4,2.8-0.3,4.6c2,1.7,1.7,3.3-0.5,4.7
				c-0.4,0.3-0.9,0.5-1.3,0.8c-3.2,2.1-3.2,2.1-0.6,4.8c2.9,2.9,3.1,3.1,0.5,6.3c-1.5,1.8-0.5,2.6,0.8,3.5c4.6,3.5,7.6,8.1,8.9,13.7
				c1,4.2,0.2,5.2-3.9,5c-4.1-0.1-8.1-0.9-12-2.3c-2.4-0.8-4.6-3.4-7.2-0.1c-0.8,0.9-2.4-0.4-3.6-0.9c-5.2-2-5.2-2.1-8.1,2.4
				c-1,1.5-1.7,3-4.2,2.4c-1.8-0.4-1.9,0-2.1,4.4c4.6-1.8,9.2-3.6,14.1-4c4.1-0.4,8.2-0.3,12.2,0.2c3.6,0.5,4,1.2,2.6,4.4
				c-2,4.8-5.1,8.8-8.7,12.4c-0.9,0.9-1.9,1.8-2.8,2.7c-1.2,1.2-1.3,2.6-0.4,4.1c0.8,1.3,2,0.8,3.1,0.6c0.6-0.1,1.3-0.3,1.9-0.4
				c4.3-0.7,4.7-0.4,5,4.1c0.1,0.6-0.1,1.3,0.9,1.9c3.9-3.1,7.6-5.9,6.4-12.3c-1.1-5.7,1.6-10.6,6.1-14.2c2.1-1.7,4.7-2.7,7.3-1.6
				c2.9,1.2,4,3.8,4.1,6.7c0.2,5.6-1.9,10.2-6.1,13.8c-1.4,1.2-3.1,2.3-4.9,1.9c-4.1-0.7-5.4,1.9-7.1,5.2c3,0.4,5.9,0.7,8.6,1.2
				c2.2,0.4,5,0.4,5.9,2.8c1,2.7-1.7,4-3.3,5.5c-3.2,3.3-7,5.8-11.4,7.5c-3.4,1.3-3.4,1.3-1.4,4.7c0.2,0.4,0.5,0.8,0.7,1.3
				c2.8,5,2.8,5-2.3,7.4c2.5,4.8,7,6.8,11.9,5.2c5.9-1.9,12-0.3,15.6,4.2c3.9,4.8,1.8,10.3-4.3,11.3c-7.1,1.2-13.4-2.8-15.3-9.7
				c-0.3-1-0.3-2-1.4-2.3c-3-0.9-5.3-3.1-8.2-4.3c-0.2,5.3-0.9,5.7-6.2,5.2c-4.8-0.5-9.2-2.4-13.7-4.5c-1.4,2.2-0.8,4.6-1.5,6.7
				c-0.4,1.1-0.5,2.2-0.9,3.3c-2,6.4-4.5,7.5-8.9,2.6c-2.6-2.9-2.9-2.7-5.4,0.6c-2.7,3.6-4.4,3.7-7.5,0.7c-2.1-2-3.6-4.4-3.9-7.2
				c-0.4-3.4-2.1-4.2-5.3-3.6c-2.8,0.5-5.6,0.1-8.2-1.1c-3.5-1.7-3.7-3.2-0.7-5.7C107.8,153.5,109.3,153,109.8,150.8z M74.3,97.7
				c-2.8-2.5-6.2-2.6-9.6-2.7c-5.8-0.3-5.7-0.2-6.6-5.7c-0.4-2.9-1-5.8-2.1-8.6c-0.8-2-1.9-2.4-3.8-1.1c-2.8,2-5.8,3.7-7.7,6.7
				c-1.2,1.9-2.7,2.2-4.4,0.4c-2.5-2.6-5.7-3.7-9.2-4.3c-5.1-0.9-5.2-0.8-5.3,4.3c-0.1,5.4-0.2,5.4-5.4,5.4c-2.9,0-3.2,0.4-2.2,3.2
				c1.3,3.5,2.8,7,4.4,10.4c0.9,2,1.4,3.6-0.7,5.1c-2.5,1.8-3.6,4.7-4.1,7.6c-1.2,5.9-0.9,6.2,4.6,5.8c0.5,0,1,0,1.5,0
				c2.5,0,3.1,1.3,2.4,3.5c-0.6,1.8-1.6,3.5-1,5.6c4.4-0.7,5.5-1.3,9-4.8s3.5-3.4,6.2,0.8c2.7,4.1,6.2,7.4,11.1,8.9
				c1.2-2,0.6-3.9,0.8-5.6c0.3-2.1,1.5-2.8,3.4-2.3c0.8,0.2,1.5,0.6,2.2,1c2.1,1.3,3,0.3,3.2-1.8c0.2-2.8,0.1-5.5-0.4-8.3
				c-0.6-3.4-0.2-4,3.2-4.7c3-0.6,5.6-1.7,8-3.5c4.5-3.4,4.6-4.4-0.2-6.5c-0.7-0.3-1.5-0.8-2.1-1.2c-2.3-1.6-2.2-2.9,0.2-4.4
				C71.2,99.9,73.1,99.6,74.3,97.7z M40.2,23.6c-4.2,2.6-5.9,6.3-7.4,10.1c-1.7,4.4-2.7,4.7-7,2.6c-2.8-1.4-5.6-2.8-8.4-4.1
				c-1-0.4-2.2-1.2-3.2-0.4c-1.1,0.9-0.2,2.1,0,3.2c0.9,3.9,0.7,4.2-3,5c-0.5,0.1-1,0.1-1.5,0.2c-3.1,0.7-3.3,1.1-2,4
				c1.8,4.2,4.6,7.5,8.2,10.2c3,2.3,3,2.9,0.5,5.8c-0.8,1-1.8,1.9-2.6,3c-1.8,2.3-3.5,4.7-4.6,7.5c-0.6,1.7-0.7,2.9,1.8,2.7
				c2.1-0.2,4.3-1.8,6.1-0.2c1.8,1.5-0.5,4.2,1.2,6.3c4.6-1.5,8.9-3.8,12.8-6.6c4.2-3,4.1-3,5.2,1.7c0.6,2.4,1.4,4.7,2.8,6.8
				c0.9,1.3,1.7,3,3.8,1.4c1.6-1.3,3.2-2.5,1.1-4.7c-0.6-0.6-1-1.3-1.4-2c-2-3.3-1.5-4.3,2.1-4.9c1.9-0.3,4-0.1,5.6-1.4
				c0-1.7-1.3-2.6-2-3.9c-2-3.5-1.5-4.5,2.7-4.8c1.3-0.1,2.6,0,3.9,0.1c3.3,0.2,6.5,1.1,9.6,2c2.1,0.6,3.1,0.1,2.8-2.3
				c-0.3-2.4-0.4-4.9,0.1-7.3c0.8-3.7,1.6-7.5,6.3-8.4c0.7-0.1,1.6-0.7,1.5-1.7s-1.1-1.2-1.9-1.3c-3.1-0.4-6.2,0.3-9.3,0.8
				c-5.2,0.9-5.8,0.4-5.4-4.8c0.3-3.5-0.4-6.8-1.6-10.1c-0.8-2.1-1.8-2.9-3.9-1.2c-1.7,1.5-3.8,2.6-5.7,3.9
				c-2.1,1.5-3.7,0.8-4.8-1.3C41.9,27.8,41.2,26,40.2,23.6z M148.9,106.7c-2.1-3.3-5.7-4-9-5.2c-4.6-1.6-4.6-1.6-3.2-6.2
				c0.9-3.1,2-6.1,0.6-9.6c-1.2,0.4-2.1,0.7-3,1.1c-4.3,2-5.4,1.6-7.5-2.7c-0.3-0.6-0.5-1.2-0.7-1.8c-0.5-1.9-1.6-1.8-2.8-0.7
				c-2,1.8-3.7,3.7-4.5,6.3c-0.8,2.7-2.3,2.8-4.4,1.6c-3.8-2-7.7-3.7-11.8-4.7c-2.3-0.5-4.6-1.1-7-0.2c0,1.8,1.1,2.6,1.7,3.8
				c1.4,2.6,0.9,4-2,4.6c-1.9,0.4-3.9,0.4-5.9,0.6c-3.1,0.3-3.4,0.8-1.9,3.6c2.2,4.1,5.3,7.4,9.3,9.9c2.9,1.8,2.8,2.5-0.3,4
				c-3.7,1.8-6.2,4.6-7.9,8.1c0.9,1.2,2,0.9,2.9,1.2c2.2,0.5,4.8,0.3,6.1,2.6c1.2,2.1-0.9,3.6-1.4,5.4c-0.7,2.3-0.2,3,2.4,2.5
				c3.1-0.6,5.9-1.8,8.8-3c3.9-1.6,4.2-1.5,6.1,2.1c1,1.9,2.3,3.6,3.9,5c2.2,1.9,2.6,1.8,3.8-0.7c1.8-4.2,2.6-4.5,6.6-2.8
				c3.9,1.7,4.6,1.2,4.3-3.2c-0.1-1-0.3-1.9-0.5-2.9c-1.3-5.7-1.1-5.9,4.6-5.8c3.4,0,6.8,0.1,9.8-1.2c0.1-0.6,0.2-0.7,0.1-0.9
				c-0.4-1.5-1.7-2.4-2.5-3.6c-1.9-2.9-1.5-4.4,1.7-5.5C146.4,107.9,147.9,108.1,148.9,106.7z M113,42.5c-0.4,2.4,1.3,3.9,1.9,5.7
				c0.7,2.1,0.2,3.5-2.1,4.1c-0.8,0.2-1.6,0.4-2.4,0.5c-2.5,0.3-2.5,1.6-1.5,3.4c1.6,2.9,3.6,5.4,6.4,7.3c3.8,2.4,3.7,2.8,0.3,5.9
				c-1.2,1.1-2.4,2.2-3.5,3.4c-0.7,0.7-1.5,1.5-1.2,2.5c0.4,1.4,1.8,1.2,2.9,1.3c1.5,0.2,2.9,0.2,4.4,0.4c1.8,0.2,0.7,2.8,2.4,3.1
				c1.5-1.2,2.8-2.5,4.3-3.4c2.1-1.3,3.2-0.6,3.7,1.8c1.4,7,1.4,7,7.8,4.3c4.1-1.8,4.3-1.6,4.9,2.5c0.1,0.6,0.1,1.3,0.3,1.9
				c0.6,1.4,1.4,2.4,2.8,0.8c0.5-0.6,1-1.3,1.5-1.9c2.8-3.4,2.8-3.4,6.9-1.8c0.5,0.2,0.9,0.4,1.3,0.6c2.2,1,3-0.1,3.1-2.1
				c0.1-1.8-0.2-3.6-0.5-5.4c-0.8-4-0.8-4,3.3-5.1c2.3-0.6,4.3-1.5,6.3-2.7c4.3-2.7,4.3-3.1,0.4-6.4c-0.4-0.3-0.8-0.6-1.1-0.9
				c-1.9-1.7-1.5-2.9,0.6-4.2c1.6-1,3.7-1.4,4.5-3.4c-0.4-1.1-1.3-1.6-2.2-2c-2.7-1.3-5.6-1.7-8.6-1.9c-4.7-0.3-4.7-0.3-5-5.2
				c-0.1-1.6-0.1-3.3-0.3-4.9c-0.7-6.6-1.1-6.9-7.5-5.1c-4.1,1.2-4.2,1.3-6.4-2.5c-1.4-2.4-2.7-2.3-4.7-0.9
				c-3.6,2.6-6.2,5.8-7.8,9.9c-1,2.4-2,3.3-4.8,2.3C120.1,43,116.7,42.1,113,42.5z M52,64.1c-0.3,0.9,0,1.5,0.3,2.1
				c3.5,6,3.5,6-3.5,7.2c-0.2,0-0.3,0-0.5,0.1c-0.9,0.2-2.1,0-2.4,1.3c-0.2,1.1,0.6,1.8,1.2,2.6c0.7,0.9,1.7,1,2.6,0.4
				c0.8-0.5,1.6-1.1,2.5-1.6c3-1.7,3.6-1.5,5.4,1.5c1.8,3,2.6,6.4,2.9,9.8c0.3,3.2,1.5,4.5,4.9,4.6c3.9,0.1,7.8,1.1,11.2,3.2
				c3.3,2.1,3.3,3.2,0.1,5.1c-0.4,0.3-0.9,0.4-1.3,0.7c-0.9,0.6-2.4,0.7-2.3,2.2c0.2,1.3,1.6,1.5,2.6,2c4.6,2.3,4.7,2.3,1.7,6.6
				c-1,1.5-1.4,2.7,0.1,3.7c1.7,1.1,2.4-0.6,2.9-1.6c1.3-2.8,2.9-3.2,5.3-1.2c1.5,1.3,3,0.9,4.3-0.6c1-1.2,2.7-1.9,3.3-3.8
				c-3.5-3.1-6.7-6.6-8.8-10.9c-2.9-6-2.4-6.9,4.2-6.8c1.7,0,4.1,0.9,4.9-1c0.8-1.8-1.5-3-2.4-4.5s-2-1.3-3.2-0.3
				c-1.3,1-2.8,1.6-4.5,1.6c-3,0-5.4-1.1-6.8-4c-1.2-2.5-0.8-4.8,0.9-6.9c1.9-2.3,4.5-3.2,7.5-2.4c3,0.8,4.8,2.7,5.3,5.8
				c0.2,1.6,0.6,2.9,2.7,2.5c6.5-1.3,12.3,0.9,18.1,3.3c3.7,1.5,4.1,1.2,4.5-2.6c0.2-2-0.6-2.7-2.4-2.8c-1.1,0-2.3,0-3.4-0.1
				c-3.2-0.3-3.8-1.1-2.5-4c0.9-2,2.1-4,3.2-6c-7.1-2.2-7.1-2.2-5-9.2c0-0.2,0.1-0.3,0.2-0.5c0.3-0.8,0.7-1.5,0.1-2.3
				c-0.8-0.9-1.8-0.6-2.7-0.2c-2.8,1.1-5.3,2.6-7.7,4.2c-3.3,2.2-3.6,2-4.5-2c-0.4-1.7-1-3.5-1.7-5.1c-1-2.4-2.3-4.6-4.9-5.7
				C82,50,82.5,53.5,80,54c-2.7,0.6-4.2-2.1-6.1-3.5c-1.6-1.2-2.4-0.5-2.9,0.9c-0.9,2.7-0.9,5.5-0.7,8.3c0.6,8.1,0.6,8.1-7.5,5.9
				C59.3,64.6,55.7,63.2,52,64.1z M134.7,134c1.9,0,3.4-0.1,4.8,0c4.3,0.5,7.5,3.4,8.1,7.4c0.6,4.1-1.6,7.7-5.6,9.3
				c-3.4,1.3-6.5,0.6-9.2-1.6c-2.7-2.1-3.4-5.1-2.8-8.4c0.6-3.6-0.1-5-3.1-6.4c-1.5-0.7-2.6-0.6-3,1.1c-0.2,0.9-0.1,2-0.3,2.9
				c-0.4,2.1-1.8,3.1-3.5,1.9c-4.4-2.8-7.8-0.1-11.4,1.6c-1.4,0.7-3.3,1.7-3.2,3.4c0.1,2.1,2.5,1.5,3.9,2.1c0.6,0.3,1.3,0.2,1.9,0.4
				c3.4,1,3.9,3.2,1.3,5.7c-1.2,1.2-3.1,1.7-3.6,3.8c2.8,1.7,5.5,1.4,8.3,0.9c5.3-0.9,5.3-1,6,4.1c0.4,2.7,1.2,5.1,3,7.1
				c1.3,1.4,2.3,2,3.9,0.1c4.3-5.4,4.4-5.3,9.5-1c0.2,0.2,0.5,0.4,0.7,0.7c1.5,1.5,2.5,0.9,3.3-0.8c1.1-2.6,1.5-5.3,1.5-8.2
				c0.1-6.4,1-6.9,6.9-3.9c3.1,1.6,6.3,2.9,9.7,3.3c3.2,0.3,3.5-0.2,2.7-3.2c-1.2-4.4-1.2-4.4,3.4-5.9c0.5-0.2,0.9-0.3,1.4-0.5
				c1.7-0.5,2-1.5,1.1-3c-2-3.5-4.3-6.5-8.1-8.3c-4.3-2.1-4.5-3-2.2-7.1c1.6-2.9,3.2-5.7,3.9-9c0.4-1.9-0.2-2.9-2.3-2.4
				c-0.8,0.2-1.6,0.3-2.4,0.5c-4,0.8-4,0.8-5.4-3.2c-0.3-0.9-0.3-2.1-1.6-2.1c-1.1,0-1.7,0.7-2,1.8c-0.9,3.1-3.3,4.2-6.3,4.5
				c-2.4,0.3-4.9,0.6-7.3,0.7c-1.6,0.1-2.6,0.5-2.2,2.3C135,127.8,134.6,130.7,134.7,134z M87.8,123.9c0.8,1.3,1.6,2.3,2.3,3.4
				c1.8,2.9,1.2,5.6-0.8,8.2c-2.3,2.9-6.7,3.9-10.3,2.5c-3.3-1.3-5.2-4.3-5.1-7.7c0.2-3.6,2.6-6.2,6.9-7.3c0.6-0.2,1.3-0.1,1.9-0.3
				c1.2-0.4,3.4-5.1,2.8-6.2c-0.7-1.3-1.9-1.3-2.8-0.3c-0.9,0.9-1.5,2.1-2.3,3.2c-1,1.3-2.5,1.7-3.2,0.3c-2.5-5-5.7-3.4-9.2-1.5
				c-0.4,0.2-0.9,0.4-1.4,0.4c-2.7,0.3-3,2-2.7,4.2c0.4,3.3,0.3,6.5-0.3,9.8c-0.7,3.7-1.6,4.1-4.9,2.4c-1-0.5-1.8-1.5-3.1-1
				c-0.9,1.5-0.4,3.2-0.5,4.8c-0.1,1.2-0.3,2.2-1.5,2.9c-4.3,2.4-3.7,6.3-3.2,10.3c2.8,0.3,4.7-1.2,6.8-2c4.2-1.6,4.8-1.2,5.6,3
				c0.3,1.7,0.1,3.6,1.6,5c4.2-1.9,6.4-3.9,8.6-7.7c3.5-6,3.9-6,7.6,0.2c2,3.3,4.1,6.6,7.6,8.4c1.2-1.1,1.2-2.3,1.6-3.4
				c1.2-3.7,2.7-4.3,6.2-2.4c1.1,0.6,1.9,2,3.7,1.1c0.4-4.4,0.2-9-0.4-13.5c-0.6-4.9-0.1-5.4,4.9-5c3,0.2,6.1,0.5,9,0.7
				c0.6-1.6-0.3-2.3-0.8-3.1c-2.2-3.5-2.2-3.5-6.1-2.1c-2.3,0.8-4.6,1.7-7,2.2c-5.7,1.2-8.6,0.1-5.5-6.5c1.3-2.8,0.9-3.3-2.1-3.9
				C90.3,123,89.2,122.7,87.8,123.9z M110.3,17.5c1.3,6.8,3.5,13.1,5.8,19.4c1.3,3.6,4.4,3.5,7.1,4.2c2.8,0.6,2.9-2.1,4-3.5
				c0.5-0.6,0.9-1.4,1.4-2c3.9-5.4,3.9-5.4-0.8-10.1c-2.3-2.4-4.8-4.5-7.6-6.2c-2.4-1.5-4.9-2.8-7.6-3.4
				C111.1,15.3,110,15.6,110.3,17.5z M84.8,23.1c-4-0.8-9.5-0.1-15.1,2c-7.9,2.9-8.7,4.2-8,12.4c0.2,2.2,0.8,2.8,3,2.4
				c9.6-1.7,15.8-7.7,20.3-15.8C85,23.8,84.9,23.4,84.8,23.1z M101.2,39.4c0-0.7,0-1.7-0.2-2.6c-0.5-3.3-1.2-3.7-4.1-1.9
				c-3.7,2.3-6.7,5.2-8.7,9.1c-0.8,1.6-1,3,0.3,4.5c1.9,2.1,3,4.6,4,7.2c1,2.7,2.4,3,4.5,1c0.7-0.7,1.1-1.6,1.4-2.5
				C100,49.4,100.9,44.6,101.2,39.4z M165.9,23c3.7,0,7.1-1.1,10.1-3.3c1.9-1.4,3.8-3,3.1-5.6s-3-3.2-5.4-3.5
				c-3.7-0.5-7.2,0.3-10.4,2c-2.6,1.4-5.3,3-5.1,6.5C158.4,21.5,161.6,23,165.9,23z M160,78.9c-0.6,3.1,1.4,5.2,4.4,6.7
				c3.6,1.8,7.4,2.4,11.3,2.9c1.8,0.2,3-0.4,2.5-2.4c-1.5-5.6-4.9-10-10-12.6C165.2,72,159.8,75.4,160,78.9z M143.9,99.1
				c2.6,1.8,4.6,2.9,6.3,4.4c1.6,1.3,3.6,2.9,3.1,5.2c-0.5,2.1-3,1.4-4.6,2c-0.1,0.1-0.3,0.1-0.5,0.1c-0.9,0.3-2.2,0.2-1.8,1.7
				c0.3,1.2,1.4,1.3,2.4,1c6.8-1.9,14.6-7.9,17-17.2C158.5,95.6,151.5,95.5,143.9,99.1z M138.6,135.4c-4.3,0-7.8,3.1-7.9,7.1
				c-0.1,4.2,3.5,7.5,8,7.5c4.4,0,7.8-3.1,7.9-7.1C146.8,138.6,143.3,135.4,138.6,135.4z M184.8,128.4c-5.4-3-15.5-2.4-19.5,0.8
				c-1.6,1.3-2.3,3.2-3.2,4.9c-0.3,0.6-0.2,1.4,0.4,1.7c2.2,1,4.1,2.8,6.8,2.2C175.7,136.7,180.6,133.2,184.8,128.4z M175.8,35.5
				c-2.6,0.4-5.2,0.9-7.6,1.9c-3.4,1.4-6.5,3.2-9,5.8c-1.2,1.2-2.1,3.5-0.3,4.1c3.4,1,7.2,2.7,10.8,0.4c3.5-2.3,6.2-5.3,8.1-9
				C179.2,36.1,178.6,35.4,175.8,35.5z M89.8,130.9c0.1-3.8-3.2-6.7-7.4-6.7c-4,0-7.2,2.8-7.4,6.3c-0.2,3.6,3.2,6.9,7.3,7
				C86.3,137.7,89.7,134.6,89.8,130.9z M189.1,103.4c0-2.2-0.1-4.3-2.2-5.3c-2.1-1-3.8,0-5.3,1.4c-2.9,2.7-4.4,6.1-4.6,10
				c-0.1,2,0.3,4,2.5,4.9c1.9,0.8,3.5-0.1,4.9-1.3C187.3,110.5,188.8,107.1,189.1,103.4z M26.4,142.3c0.1,0.8,0.4,2.1,0.5,3.3
				c0.3,2.2,1.5,2.6,3.4,2c4.2-1.4,9.6-9.2,9.2-13.5c-0.2-1.5-0.9-2.9-2.2-3.6c-1.3-0.7-1.9,0.8-2.8,1.4c-1.3,0.9-2.6,2.1-4,2.7
				C27.3,136.1,26.6,138.7,26.4,142.3z M191.8,171.3c1.9-0.1,4.2-0.4,5-2.7c0.9-2.3-0.5-4.1-2.3-5.5c-2.4-1.9-5.2-2.8-8.2-2.7
				c-2,0.1-4,0.6-4.6,2.9c-0.6,2,0.4,3.5,1.8,4.7C185.8,170.2,188.5,171.1,191.8,171.3z M83.5,85.4c3.3-0.1,6-2.9,5.8-5.9
				s-2.7-5.1-6-5.1c-3.6,0-6,2.2-6,5.5C77.3,83.1,80.1,85.5,83.5,85.4z M14.4,13.7c0.1,3.1,1.4,5.8,4.2,7.6c2.6,1.7,5,0.3,4.9-2.8
				c-0.1-3.3-1.5-6-4.4-7.7C16.6,9.4,14.6,10.6,14.4,13.7z"/>
			<g>
				<path class="st3" d="M175.2,181.4c-1-1.2-2.8-1.7-5.8-1.7c-2,0-3.9,0.1-5.9,0.1c-1.8,0.1-2.9,0.9-3.4,2.6
					c-0.8,3-0.7,5.1,0.4,6.5c1.1,1.4,3,2.1,5.8,2.1h2v-0.1h0.5c1.1,0,2.3,0,3.4,0c1.9,0,3.1-1.1,3.5-3.2
					C176.4,184.4,176.2,182.6,175.2,181.4z"/>
				<path class="st3" d="M27.2,159.6c-2.6-1.3-5.5-2.3-8.2-3.4c-1.2-0.4-2-0.2-2.4,0.1c-0.5,0.3-1.1,1-1.1,2.5c0,0.6,0,1.1,0,1.7
					v0.8c-0.7,3.7,1,6.3,4.8,7.4c1.1,0.3,2.1,0.7,3.2,1.2c0.6,0.2,1.1,0.5,1.7,0.7c0.4,0.2,1,0.4,1.6,0.4s1.2-0.2,1.8-0.8
					c1.2-1.3,0.9-5.2,0.5-7.2C28.6,161.1,28.1,160,27.2,159.6z"/>
				<path class="st3" d="M95.4,176.1c-0.4-0.1-0.7-0.1-1.1-0.1h-0.4c-3-0.4-5.1-0.5-6.3,0.6c-1.2,1.1-1.1,3.2-0.8,6.2
					c0.1,1.6,0.7,3.8,3.7,4.1c0.6,0.1,1.2,0.1,1.8,0.2c0.9,0.1,1.7,0.2,2.6,0.3c1.1,0.1,2,0.2,2.7,0.2c1,0,1.6-0.2,2.1-0.6
					c0.9-0.8,0.9-2.1,0.9-4.7l0,0C100.8,177.3,100.4,176.8,95.4,176.1z"/>
				<path class="st3" d="M134.5,179.5c-1.5-0.1-3-0.2-4.4-0.2c-1-0.1-1.9-0.1-2.9-0.2c-1.9-0.1-3.1,0.7-3.6,2.4
					c-0.8,2.8-0.7,4.9,0.4,6.4c1,1.4,3,2.2,5.9,2.3c0.3,0,0.7,0,1,0h0.4c0.7,0,1.4,0.1,2,0.1c1.8,0,3-0.2,3.8-1.1
					c1.1-1.1,1-3.1,0.8-6C137.9,182.2,137.6,179.6,134.5,179.5z"/>
				<path class="st3" d="M61.1,169.8c-0.2,0-0.4-0.1-0.6-0.2c-0.3-0.1-0.5-0.1-0.8-0.2c-2.5-0.6-3.8-0.9-4.8-0.1c-1,0.8-1,2.2-1,5.1
					v0.1v0.1c0.1,0.3,0,0.8,0,1.3c-0.1,1.4-0.2,3.8,2.8,4.6c2.1,0.6,4.3,1.1,6.7,1.6c0.2,0,0.5,0.1,0.7,0.1c1.2,0,2.2-0.7,2.6-2.1
					c0.9-2.5,0.8-4.7-0.2-6.5C65.6,171.7,63.7,170.4,61.1,169.8z"/>
			</g>
			<path d="M42.8,101c4.1,0,7.5,3.1,7.5,6.9s-3.3,6.9-7.5,6.8c-4,0-7.5-3.2-7.5-6.9C35.3,104.2,38.8,101,42.8,101z M42.8,102.2
				c-3.4,0-6.4,2.5-6.5,5.5s2.8,5.6,6.2,5.7c3.6,0.1,6.8-2.6,6.7-5.7C49.2,104.8,46.2,102.2,42.8,102.2z"/>
			<path d="M39.9,46.4c4.3-0.1,8.1,3.7,8.1,8.1c0,4.2-3.5,7.9-7.6,8.1c-4.1,0.2-7.8-3.3-8-7.6C32.1,50.5,35.6,46.5,39.9,46.4z
				 M40.2,47.9c-3.9,0-6.9,2.9-6.9,6.7c0.1,3.5,3.1,6.6,6.6,6.6c3.9,0.1,6.7-2.9,6.7-6.9C46.6,50.5,44,47.9,40.2,47.9z"/>
			<path d="M128,108.6c0,3.7-3,6.6-7,6.6s-7-2.7-7-6.5c0-3.7,3.1-6.7,6.9-6.7C124.9,102.1,128,105,128,108.6z M120.9,114.2
				c3.1,0,5.9-2.5,6-5.3s-2.6-5.5-5.6-5.7c-3.2-0.1-6.3,2.6-6.3,5.5C115,111.5,117.9,114.2,120.9,114.2z"/>
			<path d="M138.3,53c5.7-0.1,10.3,4.1,10.4,9.6c0.1,5.4-4.4,9.9-10,10c-5.9,0.1-10.7-4.3-10.7-9.8C128.1,57.3,132.6,53,138.3,53z
				 M138.2,71.3c5.2,0.1,9.4-3.7,9.4-8.6c0-4.6-4.1-8.6-8.9-8.7c-5.1-0.2-9.3,3.8-9.3,8.7C129.4,67.6,133,71.1,138.2,71.3z"/>
			<g>
				<path d="M34.3,96.2c1.6,0.7,3.3,1.4,3.4,3.6c0.1,1.2-0.7,1.8-1.8,1.8c-1.6,0-3.8-2.6-3.5-4.1C32.6,96.6,33.3,96.1,34.3,96.2z"/>
				<path d="M50.9,113.3c1.6,0.7,3.3,1.4,3.4,3.6c0.1,1.2-0.7,1.8-1.8,1.8c-1.6,0-3.8-2.6-3.5-4.1C49.2,113.7,49.9,113.2,50.9,113.3
					z"/>
				<path d="M53.3,98.6c-0.6,1.6-1.2,3.4-3.4,3.6c-1.2,0.2-1.8-0.6-1.9-1.7c-0.1-1.6,2.3-4,3.9-3.8C52.8,96.9,53.3,97.6,53.3,98.6z"
					/>
				<path d="M36.8,115.1c-0.6,1.6-1.2,3.4-3.4,3.6c-1.2,0.2-1.8-0.6-1.9-1.7c-0.1-1.6,2.3-4,3.9-3.8
					C36.3,113.4,36.9,114.1,36.8,115.1z"/>
				<path d="M32.8,108.9c-1.6,0.8-3.2,1.6-4.9,0.2c-1-0.7-0.9-1.7-0.2-2.5c1-1.2,4.4-1.2,5.4,0C33.6,107.4,33.5,108.3,32.8,108.9z"
					/>
				<path d="M57.4,108.9c-1.6,0.8-3.2,1.6-4.9,0.2c-1-0.7-0.9-1.7-0.2-2.5c1-1.2,4.4-1.2,5.4,0C58.2,107.3,58.1,108.2,57.4,108.9z"
					/>
			</g>
			<g>
				<path d="M112.6,96.5c1.6,0.7,3.3,1.4,3.4,3.6c0.1,1.2-0.7,1.8-1.8,1.8c-1.6,0-3.8-2.6-3.5-4.1C110.9,96.9,111.6,96.4,112.6,96.5
					z"/>
				<path d="M129.2,113.6c1.6,0.7,3.3,1.4,3.4,3.6c0.1,1.2-0.7,1.8-1.8,1.8c-1.6,0-3.8-2.6-3.5-4.1
					C127.5,114,128.2,113.5,129.2,113.6z"/>
				<path d="M131.6,98.9c-0.6,1.6-1.2,3.4-3.4,3.6c-1.2,0.2-1.8-0.6-1.9-1.7c-0.1-1.6,2.3-4,3.9-3.8C131,97.2,131.6,97.9,131.6,98.9
					z"/>
				<path d="M115.1,115.4c-0.6,1.6-1.2,3.4-3.4,3.6c-1.2,0.2-1.8-0.6-1.9-1.7c-0.1-1.6,2.3-4,3.9-3.8
					C114.6,113.7,115.2,114.4,115.1,115.4z"/>
				<path d="M111.1,109.2c-1.6,0.8-3.2,1.6-4.9,0.2c-1-0.7-0.9-1.7-0.2-2.5c1-1.2,4.4-1.2,5.4,0
					C111.9,107.7,111.8,108.5,111.1,109.2z"/>
				<path d="M135.7,109.2c-1.6,0.8-3.2,1.6-4.9,0.2c-1-0.7-0.9-1.7-0.2-2.5c1-1.2,4.4-1.2,5.4,0
					C136.5,107.6,136.4,108.5,135.7,109.2z"/>
			</g>
			<g>
				<path d="M54.3,53.7c-1.5,1-3,2-4.9,0.9C48.3,54,48.3,53,48.9,52c0.9-1.3,4.3-1.7,5.3-0.7C54.9,52,54.9,52.9,54.3,53.7z"/>
				<path d="M30.8,58.2c-1.5,1-3,2-4.9,0.9c-1.1-0.6-1.1-1.6-0.5-2.5c0.9-1.3,4.3-1.7,5.3-0.7C31.4,56.6,31.5,57.4,30.8,58.2z"/>
				<path d="M41.8,68.2c-1-1.4-2.2-2.8-1.2-4.8c0.5-1.1,1.5-1.2,2.5-0.7c1.4,0.8,2,4.1,1,5.3C43.5,68.7,42.7,68.8,41.8,68.2z"/>
				<path d="M37.1,45.4c-1-1.4-2.2-2.8-1.2-4.8c0.5-1.1,1.5-1.2,2.5-0.7c1.4,0.8,2,4.1,1,5.3C38.8,45.9,37.9,46,37.1,45.4z"/>
				<path d="M44.4,45.4c0.2-1.7,0.4-3.6,2.5-4.3c1.1-0.4,1.9,0.2,2.2,1.2c0.4,1.5-1.5,4.4-3,4.5C45.3,47,44.6,46.4,44.4,45.4z"/>
				<path d="M31,66c0.2-1.7,0.4-3.6,2.5-4.3c1.1-0.4,1.9,0.2,2.2,1.2c0.4,1.5-1.5,4.4-3,4.5C31.8,67.5,31.1,67,31,66z"/>
				<path d="M30.5,50.1c-1.5-0.8-3.2-1.7-3-3.9c0-1.2,0.9-1.7,2-1.6c1.6,0.2,3.5,2.9,3.1,4.4C32.3,49.9,31.5,50.3,30.5,50.1z"/>
			</g>
			<g>
				<path d="M155.5,62.5c-1.5,1-3,2-4.9,0.9c-1.1-0.6-1.1-1.6-0.5-2.5c0.9-1.3,4.3-1.7,5.3-0.7C156.1,60.9,156.1,61.7,155.5,62.5z"
					/>
				<path d="M127,66c-1.5,1-3,2-4.9,0.9c-1.1-0.6-1.1-1.6-0.5-2.5c0.9-1.3,4.3-1.7,5.3-0.7C127.6,64.4,127.7,65.2,127,66z"/>
				<path d="M142.1,79.1c-1-1.4-2.2-2.8-1.2-4.8c0.5-1.1,1.5-1.2,2.5-0.7c1.4,0.8,2,4.1,1,5.3C143.7,79.6,142.9,79.7,142.1,79.1z"/>
				<path d="M134.3,51.3c-1-1.4-2.2-2.8-1.2-4.8c0.5-1.1,1.5-1.2,2.5-0.7c1.4,0.8,2,4.1,1,5.3C136,51.8,135.1,51.9,134.3,51.3z"/>
				<path d="M144.7,52.3c0.2-1.7,0.4-3.6,2.5-4.3c1.1-0.4,1.9,0.2,2.2,1.2c0.4,1.5-1.5,4.4-3,4.5C145.5,53.8,144.8,53.3,144.7,52.3z
					"/>
				<path d="M128.2,75.8c0.2-1.7,0.4-3.6,2.5-4.3c1.1-0.4,1.9,0.2,2.2,1.2c0.4,1.5-1.5,4.4-3,4.5C129,77.4,128.4,76.8,128.2,75.8z"
					/>
				<path d="M127.3,56.6c-1.6-0.7-3.3-1.5-3.3-3.7c-0.1-1.2,0.7-1.8,1.8-1.8c1.6,0,3.8,2.7,3.4,4.2C129,56.2,128.3,56.7,127.3,56.6z
					"/>
				<path d="M151.2,73.1c-1.7-0.5-3.5-1-3.8-3.1c-0.3-1.2,0.5-1.9,1.6-2c1.6-0.2,4.1,2.1,4,3.6C152.9,72.5,152.2,73.1,151.2,73.1z"
					/>
			</g>
			<g>
				<path d="M97.7,78.4c-1.5,1-3,2-4.9,0.9c-1.1-0.6-1.1-1.6-0.5-2.5c0.9-1.3,4.3-1.7,5.3-0.7C98.3,76.7,98.3,77.6,97.7,78.4z"/>
				<path d="M74.2,82.9c-1.5,1-3,2-4.9,0.9c-1.1-0.6-1.1-1.6-0.5-2.5c0.9-1.3,4.3-1.7,5.3-0.7C74.8,81.3,74.9,82.1,74.2,82.9z"/>
				<path d="M85.2,92.9c-1-1.4-2.2-2.8-1.2-4.8c0.5-1.1,1.5-1.2,2.5-0.7c1.4,0.8,2,4.1,1,5.3C86.9,93.4,86.1,93.5,85.2,92.9z"/>
				<path d="M80.5,70.2c-1-1.4-2.2-2.8-1.2-4.8c0.5-1.1,1.5-1.2,2.5-0.7c1.4,0.8,2,4.1,1,5.3C82.2,70.6,81.3,70.7,80.5,70.2z"/>
				<path d="M87.8,70.1c0.2-1.7,0.4-3.6,2.5-4.3c1.1-0.4,1.9,0.2,2.2,1.2c0.4,1.5-1.5,4.4-3,4.5C88.7,71.7,88,71.1,87.8,70.1z"/>
				<path d="M74.4,90.7c0.2-1.7,0.4-3.6,2.5-4.3c1.1-0.4,1.9,0.2,2.2,1.2c0.4,1.5-1.5,4.4-3,4.5C75.2,92.2,74.5,91.7,74.4,90.7z"/>
				<path d="M73.9,74.9c-1.5-0.8-3.2-1.7-3-3.9c0-1.2,0.9-1.7,2-1.6c1.6,0.2,3.5,2.9,3.1,4.4C75.7,74.6,74.9,75,73.9,74.9z"/>
			</g>
			<g>
				<path d="M82.7,141.3c0.4,1.7,0.9,3.5-0.8,4.9c-0.9,0.8-1.9,0.6-2.5-0.3c-1-1.3-0.3-4.6,1.1-5.3
					C81.4,140.2,82.2,140.5,82.7,141.3z"/>
				<path d="M72.7,131.3c-1.7,0.5-3.4,1.1-4.9-0.4c-0.9-0.8-0.7-1.8,0.1-2.5c1.2-1.1,4.6-0.6,5.3,0.7
					C73.7,129.8,73.5,130.7,72.7,131.3z"/>
				<path d="M75,124.3c-1.6-0.8-3.2-1.6-3.2-3.8c0-1.2,0.8-1.8,1.9-1.7c1.6,0.1,3.7,2.8,3.3,4.3C76.8,124,76,124.5,75,124.3z"/>
				<path d="M90.2,143.7c-1.6-0.8-3.2-1.6-3.2-3.8c0-1.2,0.8-1.8,1.9-1.7c1.6,0.1,3.7,2.8,3.3,4.3C91.9,143.4,91.2,143.9,90.2,143.7
					z"/>
				<path d="M75,139c-1.3,1.2-2.6,2.4-4.7,1.6c-1.1-0.4-1.4-1.4-0.9-2.4c0.7-1.5,3.9-2.4,5.2-1.5C75.4,137.3,75.5,138.2,75,139z"/>
			</g>
			<g>
				<path d="M123.5,139.3c1.7-0.6,3.4-1.2,4.9,0.4c0.9,0.8,0.7,1.8-0.1,2.5c-1.2,1.1-4.6,0.6-5.3-0.7
					C122.5,140.7,122.7,139.9,123.5,139.3z"/>
				<path d="M149.3,141.8c1.7-0.6,3.4-1.2,4.9,0.4c0.9,0.8,0.7,1.8-0.1,2.5c-1.2,1.1-4.6,0.6-5.3-0.7
					C148.3,143.2,148.5,142.4,149.3,141.8z"/>
				<path d="M140.2,127.3c0.7,1.6,1.4,3.3-0.1,5c-0.8,0.9-1.8,0.8-2.5,0c-1.1-1.1-0.9-4.5,0.3-5.4
					C138.7,126.4,139.5,126.5,140.2,127.3z"/>
				<path d="M141,152.5c0.7,1.6,1.4,3.3-0.1,5c-0.8,0.9-1.8,0.8-2.5,0c-1.1-1.1-0.9-4.5,0.3-5.4C139.5,151.7,140.4,151.8,141,152.5z
					"/>
				<path d="M130.9,149.7c-0.7,1.6-1.3,3.3-3.5,3.5c-1.2,0.1-1.8-0.7-1.8-1.8c0-1.6,2.5-3.9,4-3.6C130.5,148,131,148.7,130.9,149.7z
					"/>
				<path d="M151.1,133.2c-0.7,1.6-1.3,3.3-3.5,3.5c-1.2,0.1-1.8-0.7-1.8-1.8c0-1.6,2.5-3.9,4-3.6
					C150.7,131.5,151.2,132.2,151.1,133.2z"/>
			</g>
		</g>
		
			<linearGradient id="SVGID_1_" gradientUnits="userSpaceOnUse" x1="105" y1="910" x2="105" y2="1234" gradientTransform="matrix(1 0 0 1 0 -910)">
			<stop  offset="0" style="stop-color:#EB1A21"/>
			<stop  offset="1" style="stop-color:#A51A21"/>
		</linearGradient>
		<path class="st4" d="M210,324c-70,0-140,0-210,0C0,216,0,108,0,0c70,0,140,0,210,0C210,108,210,216,210,324z M199.9,162.6
			c0-46.5-0.2-87.6-0.2-134.1c0-9.4-3.5-18.1-13-18.1c-50.8,0-101-0.4-151.8-0.4c-4,0-8.3,0.5-12.3,0.7c-5.9,0.2-11.3,6.1-11.3,11.8
			c0,93.3-0.4,182.4-0.4,275.8c0,1.5,0.2,1.6,0.3,3.1c0.7,6.6,5,12.6,11.3,12.6c55.5,0,107.4,0.2,162.9,0.3c1.9,0,3.6-0.7,5.3-1.7
			c5.5-3,9.5-6,9.5-12.1C200.1,254,199.9,208.9,199.9,162.6z"/>
		<path d="M200.8,161.4c0.1-9.1,0-18.3,0.1-27.6c0.2-36.3,0.1-72.7,0-109c0-9.1-6.8-15.3-16-15.3c-52.8,0-105.7,0-158.5,0
			c-9.4,0-15.6,6.2-15.6,15.8c0,38.4,0.2,76.7,0.1,115.1c0,29.5-0.4,58.9-0.5,88.4c-0.1,23.5-0.1,47-0.1,70.4
			c0,8,6.5,15.3,13.7,15.3c54.3,0.1,108.6,0,162.9,0c2.2,0,4-0.5,5.9-1.8c5.1-3.5,8.1-7.9,8-14.4
			C200.7,252.7,200.8,207.1,200.8,161.4z M186.5,310.2c-3,0-3.7,0-3.7,0s-103.1,0-154.7,0c-8.3,0-13.1-4.5-13-14.9
			c0-22.8,0-45.6,0.1-68.4c0.1-28.6,0.5-57.2,0.5-85.9c0.1-37.3-0.2-75.1-0.1-112.3c0-7.9,2.5-14.8,12.6-14.8
			c50.2,0,105.1,0.2,155.3,0.2c8.7,0,13,5.3,12.6,14.1c0,35.2,0,106.5,0,106.5v27c0,0,0,91.6,0.1,135.9
			C196,304.4,191.2,309.6,186.5,310.2z"/>
	</g>
	<g>
		<g>
			
				<ellipse transform="matrix(4.531192e-02 -0.999 0.999 4.531192e-02 -121.0397 425.3471)" class="st1" cx="162" cy="276" rx="34.7" ry="34.7"/>
			<path d="M162,312.2c-19.9,0-36.2-16.2-36.2-36.2s16.2-36.2,36.2-36.2s36.2,16.2,36.2,36.2S181.9,312.2,162,312.2z M162,242.8
				c-18.3,0-33.2,14.9-33.2,33.2s14.9,33.2,33.2,33.2s33.2-14.9,33.2-33.2S180.3,242.8,162,242.8z"/>
		</g>
		<g>
			<path class="st5" d="M147.9,270.4c0.1,0.2,0.7,0.8,1.4,0.8l0,0c0.4,0,0.7-0.2,1-0.5c0.2-0.2,1.5-1.6,1.5-2.4
				c0-0.3-0.2-0.7-1.2-2.2c-0.6-0.9-1.4-2.3-1.5-2.7c-0.2-0.9-0.8-1.3-1.7-1.3c-0.5,0-1,0.1-1.2,0.4c-0.3,0.3-0.4,0.7-0.4,1.5
				s0.2,1.9,0.7,3.3C147,268.7,147.5,269.7,147.9,270.4z"/>
			<path class="st5" d="M183.1,286.2c-0.5-1.1-1-2-1.8-1.9c-0.7,0.1-1,1.1-1,3.9v3.2l-1.4,0.7c-0.4,0.2-0.6,0.2-2.1,0.2
				c-0.5,0-1.2,0-2.2,0c-2.9,0.1-4.7,0.2-5.8,0.3c-0.3,0-0.5,0-0.8,0.1c-0.9,0.1-1.7-0.1-2.5-0.5s-1.3-0.9-1.6-1.5
				c-0.2-0.5-0.1-1.1,0-1.7c0-0.2,0.1-0.3,0.1-0.4c0.2-0.6,0.3-1.1,0.5-2.5c0.2-1.8,0.7-4.6,2-8.4c0.1-0.4,0.1-1.1-1.1-1.8
				c-0.7-0.4-1.4-0.8-2.2-1.1c-0.2-0.1-0.3-0.1-0.4-0.2c0.2-0.1,0.6-0.2,1.1-0.3c1.2-0.3,2.4-0.5,3.5-0.6c1,0,2,0.2,3.2,0.8
				c2,1,2.1,1,2.2,1c0.5,0,0.8-0.5,1.3-1.8c0.4-1.3,0.5-1.8,0.2-2.1c-0.1-0.2-0.5-0.5-2.9-1.9c-2-1.2-3.3-1.6-4-1.1
				c-0.3,0.2-0.6,0.5-0.6,1.3v0.1c-0.3,0-0.9,0.1-3.1,0.6c-1.1,0.3-1.6,0.3-1.8,0.4v-0.1c0-0.1,0-0.5,0.9-0.9
				c1.1-0.5,3.6-2.8,7.8-6.9c2.3-2.2,3.7-3.6,4.3-4.4c0.6-0.9,0.9-1.7,0.8-2.4c-0.1-0.7-0.6-1.4-1.5-1.9c-0.8-0.5-1.1-0.7-1.3-0.8
				c-0.3-0.4-0.7-0.6-1.1-0.8c-0.5-0.2-1-0.3-1.4-0.2c-0.6,0.1-1,0.5-1,1.1c0,0.5,0.3,1.1,0.9,1.9c0.4,0.6,0.4,0.8,0.4,0.8
				s-0.1,0.3-0.7,1.5c-0.6,1-2.1,3-4.4,5.9c-2,2.5-3,3.6-3.5,4c0-0.3,0-0.8,0-1.3c0-0.6,0-1.4,0.1-2.5c0.2-4,0.4-6.7,0.6-8.1
				c0.2-1.6,0.5-2.2,0.7-2.6c0.5-0.9,0.7-1.5,0.5-2.1c-0.2-0.5-0.7-1.1-1.7-1.8c-0.5-0.3-1-0.6-1.5-0.8c-1.3-0.5-2.1-0.6-2.6-0.3
				c-0.3,0.2-0.4,0.5-0.4,0.8s0.1,0.7,1.1,1.7c0.3,0.3,0.4,0.7,0.4,1.2c0,0.6-0.1,2.1-0.3,4.5c-0.8,9.6-1.3,14.7-1.3,15.5
				c0,0.1,0,0.1,0,0.1s-0.1,0-0.3,0c-0.4,0-1.1,0.1-3.4,0.9c-4.3,1.7-7.8,2.7-10.3,2.8c-1.9,0.1-2.8,0.4-2.9,1
				c-0.2,0.9,0.6,1.7,1.3,2.3c1,0.9,1.8,1.2,2.5,1c0.1,0,0.4-0.2,1.5-0.6c0.9-0.3,1.8-0.6,2.7-0.9s2-0.6,3.2-1
				c0.9-0.3,1.7-0.5,2.4-0.7c0,0.2,0,0.5,0,0.8c-0.1,1.1-1.6,3.9-8.4,10.8c-4.1,4.1-5.1,4.5-5.3,4.5c-1.3,0-1.4,0.8-1.4,1.1
				c0,0.5,0.3,0.9,0.8,1c1.1,0.2,2.9-0.5,5.3-2.1c1.3-0.9,3.2-2.5,5.6-4.8c2.4-2.3,4.3-4.3,5.6-5.8c0.9-1.1,1.5-2.2,2-3.1
				c0.2-0.4,0.8-1.7,0.1-2.4c-0.2-0.2-0.5-0.4-1.4-0.6l1.1-0.3c1.1-0.3,1.6-0.3,1.9-0.3c0.1,0,0.2,0,0.3,0.1
				c0.1,0.5,0.4,1.1,1.1,1.7l0.7,0.8l-0.9,3.6c-0.6,2.6-1,5-1.1,7.2c-0.2,1.5-0.2,2.5-0.1,3c0.1,0.6,0.4,1.2,1,2
				c0.9,1.1,2,1.8,3.3,2.3c1.4,0.5,3.7,0.4,7,0.4c1.1,0,2.3,0,3.6,0c1.9,0,3,0,3.6,0.1c0.3,0,0.5,0,0.7,0c0.5,0,0.8-0.1,1.5-0.3
				l0.3-0.1c1.4-0.5,2.2-1.8,2.5-3.9C184.3,290.1,184,288.1,183.1,286.2z"/>
		</g>
	</g>
	<g>
		<g>
			<path class="st2" d="M39,305.9l-5.1-2.3c-3.4-1.7-6.4-4-8.4-7.1s-3.3-6.8-3.7-11l-0.3-3.4h17.2l0.5,2.6c0.2,1.1,0.5,2,0.9,2.8
				c0.5,0.6,0.9,1.1,1.7,1.4c0.8,0.3,1.9,0.6,2.9,0.6c1.9,0,3.3-0.5,4.2-1.2c0.9-0.9,1.2-2.2,1.2-4v-1.7c0-2.2-0.5-3.7-1.2-4.8
				c-0.5-0.5-1.2-1.2-3.3-1.2h-8.2v-16.9h8.2c1.6,0,2-0.5,2.5-0.9c0.6-0.8,0.9-2,0.9-3.9v-1.6c0-1.6-0.3-2.6-0.9-3.3
				c-0.2-0.3-0.9-0.9-2.9-0.9c-0.8,0-1.6,0.2-2.2,0.5c-0.6,0.3-1.1,0.8-1.6,1.6s-0.9,1.9-1.2,3.3l-0.5,2.5H22.6l0.5-3.6
				c0.5-4.2,1.9-8.1,3.7-11.2c2-3.3,4.7-5.7,7.9-7.4c3.1-1.7,6.8-2.5,10.7-2.5c6.5,0,11.8,1.9,15.5,5.3c3.7,3.6,5.7,8.7,5.7,14.9
				v1.6c0,3.9-1.1,7.3-3.1,10.1c-0.8,1.1-1.7,2.2-2.8,3.1c1.4,1.1,2.6,2.3,3.6,3.7c2.2,3.3,3.4,7.3,3.4,11.9v1.6
				c0,4.3-0.9,8.2-2.6,11.3c-1.9,3.3-4.5,5.7-7.9,7.4c-3.3,1.7-7.3,2.5-11.8,2.5H39C39,305.4,39,305.9,39,305.9z"/>
			<path d="M45.4,235.4c5.7,0,10.2,1.6,13.3,4.5c3.1,2.9,4.8,7.3,4.8,12.7v1.6c0,3.3-0.8,5.9-2.5,8.4c-1.7,2.3-4,4-7.1,5.3
				c3.4,0.8,6,2.5,7.9,5.1c1.9,2.6,2.8,6,2.8,10.2v1.6c0,3.9-0.8,7.1-2.3,9.9c-1.6,2.8-3.7,4.8-6.5,6.2c-2.9,1.4-6.4,2.2-10.4,2.2
				c-3.9,0-5.7,0-5.7,0s-1.6-0.6-4.5-2c-2.9-1.4-5.3-3.4-7.1-6c-1.7-2.6-2.8-5.9-3.1-9.6h11.2c0.3,1.7,0.8,2.9,1.6,4
				c0.8,1.1,1.7,1.9,2.9,2.5c1.2,0.6,2.6,0.8,4.2,0.8c2.8,0,4.8-0.8,6.4-2.2c1.6-1.4,2.2-3.6,2.2-6.2v-1.7c0-2.9-0.6-5.1-2-6.8
				c-1.2-1.6-3.3-2.3-5.6-2.3h-5.1v-10.7h5.1c2,0,3.7-0.6,4.8-2c1.1-1.4,1.7-3.3,1.7-5.7v-1.6c0-2.3-0.6-4.2-1.9-5.4
				c-1.2-1.2-2.9-1.9-5.3-1.9c-1.4,0-2.6,0.3-3.7,0.9s-2,1.4-2.8,2.6c-0.8,1.2-1.2,2.6-1.7,4.3h-11c0.5-3.9,1.6-7.1,3.4-9.9
				c1.7-2.8,4-4.8,6.7-6.2C38.9,236.1,42,235.4,45.4,235.4 M45.4,229.1c-4.5,0-8.5,0.9-12.1,2.8c-3.7,1.9-6.8,4.8-9.1,8.5
				c-2.2,3.6-3.7,7.8-4.2,12.4l-0.9,7h7h8.2v2.8V273v5.9h-9.3h-6.8l0.6,6.8c0.5,4.8,1.9,9,4.2,12.4c2.3,3.6,5.6,6.4,9.6,8.4l4.5,2
				l1.2,0.6h1.4h5.7c5,0,9.3-0.9,13.2-2.8c4-2,7.1-5,9.3-8.8c2-3.6,2.9-7.9,2.9-12.9v-1.6c0-5.4-1.2-10.1-3.9-13.8
				c-0.5-0.8-1.1-1.4-1.7-2.2c0.3-0.3,0.6-0.8,0.9-1.1c2.5-3.4,3.6-7.4,3.6-11.9v-1.6c0-7.1-2.3-13-6.7-17.2
				C58.7,231.3,52.8,229.1,45.4,229.1L45.4,229.1z M42.9,256.4l0.3-1.6c0.2-1.1,0.5-1.7,0.8-2.2c0.2-0.3,0.3-0.5,0.5-0.5
				c0.2-0.2,0.5-0.2,0.8-0.2c0.3,0,0.6,0,0.8,0c0,0.2,0.2,0.5,0.2,0.9v1.6c0,0.9-0.2,1.4-0.2,1.7h-0.2L42.9,256.4L42.9,256.4z
				 M41.5,279.1h4.2c0.6,0,0.9,0.2,0.9,0.2c0.3,0.3,0.6,1.2,0.6,2.8v1.7c0,0.9-0.2,1.6-0.5,1.9c-0.2,0.2-0.8,0.5-2,0.5
				c-0.8,0-1.2-0.2-1.7-0.3c-0.2-0.2-0.3-0.2-0.5-0.3c0-0.2-0.3-0.5-0.5-1.4L41.5,279.1L41.5,279.1z"/>
		</g>
	</g>
</g>
</svg>
