<?xml version="1.0" encoding="utf-8"?>
<!-- Generator: Adobe Illustrator 22.0.1, SVG Export Plug-In . SVG Version: 6.00 Build 0)  -->
<svg version="1.1" id="레이어_2_1_" xmlns="http://www.w3.org/2000/svg" xmlns:xlink="http://www.w3.org/1999/xlink" x="0px"
	 y="0px" viewBox="0 0 210 324" style="enable-background:new 0 0 210 324;" xml:space="preserve">
<style type="text/css">
	.st0{fill:#FFFFFF;}
	.st1{fill:#EB1A21;}
	.st2{fill:#FFC40A;}
	.st3{fill:#005CA9;}
	.st4{fill:url(#SVGID_1_);}
</style>
<g>
	<g>
		<path class="st0" d="M110,2c31.5,0,63,0,94.5,0c0,105.8,0,211.5,0,317.3c-67.5,0-135,0-202.5,0C2,213.5,2,107.8,2,2
			c21.5,0,43.1,0,64.6,0c0.7,4.1,2.5,7.7,5,11c5.4,6.7,12.5,10,20.7,11.4c2.5,0.4,5.1,0.7,7.7,0.9c1.9,0.2,2.4,1.5,2.5,3
			c0.1,1.7-1.5,1.4-2.5,1.6c-5.3,1-10.5,0.7-15.8,0.2c-7.4-0.6-13.9,1.7-19.1,7.2c-1.1,1.1-2.4,2.5-1.4,4.3c1,1.6,2.6,0.9,3.9,0.7
			c4.7-0.7,9,0,13.4,2.3c5.3,2.8,11.5,4.8,17.2,3.2c5.9-1.7,7.8,2,10.6,5.3c0.9,1.1,0.8,2,0.3,3.1c-2.2,4.6-3.6,9.4-4.7,14.4
			c-0.6,2.6-2.6,3.1-4.5,1.2c-0.9-0.9-1.6-2-2.4-3.1c-5.4-6.9-11.8-12.4-19.6-16.3c-10.6-5.2-21.9-6.1-33.4-4.8
			c-1.3,0.1-2.8,0.2-3,1.8s1.2,2.1,2.5,2.5c0.9,0.3,1.8,0.6,2.7,1c5.7,2.2,11.2,5,15.7,9.4c2.5,2.5,4.7,5.2,6,8.9
			c-0.6-0.2-0.8-0.1-0.8-0.2c-0.9-1-1.7-1.9-2.6-2.9c-8.4-9.5-19.4-14.3-31.4-16.7c-1.2-0.3-2.7-0.6-3.3,1c-0.5,1.3,0.6,2.1,1.4,2.8
			c1.6,1.4,3.6,2.6,4.3,4.6c2,5.7,3.7,11.6,6.9,17c-2,0.6-3.2,0.1-4.5-0.2c-5.6-1.2-11.2-1.2-16.8-0.7c-2.2,0.2-4.4,0.7-6.7,1
			c-1.4,0.2-2.7,0.7-2.7,2.2c0,1.6,1.5,1.9,2.8,2.2c0.2,0,0.3,0.1,0.5,0.1c5.8,1.4,10.5,4.5,14.3,9.3c8.1,10.2,17.8,17.9,31.1,19.8
			c1.1,0.2,2.3,0.3,2.5,1.8c0.9,5.4,2.4,10.6,2.7,15.8c-1,0.6-1.4,0.2-1.8-0.1c-9.9-6.3-20.6-7.8-31.9-5.5c-2.3,0.5-4.1-0.2-5.9-1.3
			c-3-1.8-5.2-4.3-7.3-7.1c-1-1.3-1.8-2.7-2.8-4c-0.5-0.7-1.2-1.1-2.1-0.8c-0.8,0.2-1.3,0.9-1.4,1.8c0,1.8-0.2,3.6,0.1,5.4
			c1.3,9.7,5.3,18.7,7.9,28c0.2,0.8,0.8,1.4,1.2,2.1c0.5,1,1.6,1.7,0.9,3.2c-2.7,0.3-5.3-0.8-7.8-1.6c-1.2-0.4-2.4-1.2-3.6,0
			c-1.3,1.3-0.6,2.7-0.1,4.1c2.4,6.1,5,12.1,9.9,16.5c0.7,0.6,1.9,1.3,1.2,2.3c-2.2,3.1-1.6,7-3.4,10.1c-3.1,5.5-4.1,11.4-3.6,17.5
			c0.6,8.3,1.5,16.5,2.4,24.8c0.2,1.6,0.6,3.3,1.4,4.7c1.4,2.6,1.3,5.1,0.6,7.9c-1.1,4.5-1.5,9.3,2.2,12.9c2,1.9,2,3.5,1.5,6
			c-3.1,13.3-1.7,26,6.3,37.3c2.7,3.8,2.6,7.5,0.8,11.5c-0.7,1.6-1.6,3.2-2.3,4.9c-0.4,1-0.2,2,0.7,2.6c1,0.6,1.8,0.2,2.5-0.6
			c0.4-0.5,0.8-1,1.2-1.6c4.4-6.2,10.3-10.2,17.2-13c4.6-1.9,9.5-2.9,14.4-4c7.7-1.7,14.8-4.6,18.3-12.7c0.8-2,2.5-1.8,4-2
			c1.6-0.2,1.6,1.4,1.9,2.3c5.3,15.7,17,24.4,31.6,30c2.2,0.8,4,1.8,5.5,3.7c2.1,2.8,3.7,2.5,4.9-1c1.4-3.9,1.9-7.9,1-12
			c-0.2-1.1-1.1-2.5,0.4-3.7c2.2,0.8,4.4,1.6,6.7,2.4c9.6,3.2,19.2,3.7,28.8-0.2c7.1-2.8,7.7-2.7,12.9,2.9c0.9,1,1.9,1.9,3.3,1.2
			c1.5-0.7,1.4-2,1-3.4c-0.3-1.1-0.5-2.2-0.9-3.3c-2-6.3-5.1-11.9-9-17.2c-0.9-1.2-2.1-2.2-2.1-3.8c0.1-3.8-0.9-7.3-2.2-11.2
			c5.4-0.8,10.3-0.2,15.3-0.4c1.4-0.1,3.1,0.4,3.9-1.1c0.9-1.7-0.6-2.7-1.5-3.8c-20.7-24.8-35.4-53.1-46.8-83.3
			c-0.4-1.1-1.4-2.2-0.5-3.7c0.6,0.2,1.3,0.4,1.8,0.7c10.1,4.7,19.9,4.2,29.5-1.5c1-0.6,2-1,3-1.5c3.3-1.6,6.2-1.1,8.8,1.6
			c0.6,0.6,1.1,1.2,1.7,1.8c0.8,0.9,1.8,1.6,3,1c1.2-0.5,1.4-1.7,1.4-2.9c0-6-1.9-11.2-6-15.6c-1-1.1-2.2-2.2-3.7-3.7
			c5.4-0.6,9.1,1.6,12.9,3.7c1.1,0.6,2.2,1.7,3.5,0.5c1.2-1.1,0.5-2.4,0-3.6c-3.4-8.8-8.3-16.5-16.1-22.1c-0.9-0.7-2.5-0.9-2.4-2.7
			c4.9-2.1,9.6-4.5,13.9-7.8c1.6-1.2,4.3-2.1,3.7-4.6c-0.6-2.7-3.4-1.8-5.4-2c-5.3-0.5-10.6-0.9-15.5-3.3c-6.1-3-12.5-5.2-19.2-6.3
			c-11.2-2-21.8-0.6-31.1,6.6c-0.6,0.5-1.2,1.2-2.1,0.6c-3.9-14.7-4.9-11.7,5.4-22.3c1.8-1.9,4-3.3,6.2-4.7c7.4-4.4,15.1-5,23.1-1.8
			c2.9,1.1,5.5,2.7,8.1,4.4c1.2,0.8,2.5,1.8,3.9,0.3c1.1-1.2,0.4-2.4-0.3-3.6c-0.4-0.7-0.8-1.4-1.3-2.1
			c-9.3-13.9-22.3-18.5-38.1-15.8c-7.3,1.2-14.2,3.9-21.5,7.3c0.4-5.2,2.1-9.6,3.8-13.9c0.8-2.1,1.9-2.4,4.1-1.9
			c5.6,1.5,11.4,2.3,17,0c1.2-0.5,2.2-0.2,3.2,0.5c5.5,3.8,11.8,5.3,18.2,5.8c5.5,0.4,9.8,2.6,13.5,6.5c1,1,2,2.5,3.7,1.3
			c1.5-1,0.8-2.6,0.5-4c-1.5-5.8-5.3-10-9.7-13.6c-5.7-4.6-12.1-7.9-18.8-10.9c-0.6-0.3-1.2-0.5-1.7-0.8c-0.4-0.3-1.3-0.3-0.8-1.2
			c0.3-0.1,0.7-0.2,1-0.1C158,44,168.8,34,179.9,24.7c1.8-1.5,0.9-3.3-1.4-3.8c-1.1-0.2-2.2-0.1-3.4-0.1c-7.4,0-14.8-0.2-22.1,0.7
			c-2.2,0.3-3.7,0-3.8-2.8c-0.1-2.1-1.6-3.5-2.9-5C140.4,7.4,126.9,4.6,119,8c-1,0.4-2.1,1.5-3,0.2C114.4,5.6,111.5,4.5,110,2z"/>
		<g>
			<path class="st1" d="M66.9,255.9c2.4,0.4,4.8,0.5,7.1,0.7c3.3,0.2,6.7,0.4,9.9,1.3c0.5,0.1,1.1,0.2,1.5,0.2
				c2.3,0,4.1-1.4,5.4-2.7c5.2-4.9,6.2-15.4,2.1-21.2c-1.1-1.5-2.7-2.2-4.1-2.8c-0.6-0.2-1.1-0.4-1.6-0.7c-2-1-3.2,0.5-3.9,1.4
				c-0.2,0.3-0.4,0.6-0.6,0.7c-4,3.4-8.4,4.2-13.4,2.4c-4.3-1.5-8.3-4.1-12.6-8.3l-0.8-0.8l-0.7,1c-4.2,5.9-5.2,12.7-2.8,18.4
				C54.8,250.9,60.1,254.8,66.9,255.9z"/>
			<path class="st1" d="M84.3,259.5c-0.6-0.1-1.1-0.2-1.7-0.3c-3-0.6-6.2-1.2-9.4-1.3c-3.9,0-7.4-0.5-10.7-1.5
				c-7.6-2.3-11.8-7.3-12.2-14.8c-0.4-5.4-2-5.7-6-5.8H44c-5.9,0-9.7,3-11.1,8.7c-0.5,2-0.8,4-0.8,6c-0.1,3.2,0.8,5.8,2.5,7.4
				s4.1,2.2,7.2,1.9c2-0.2,2.8,0.4,3.9,2.3c3.9,6.4,8.5,8.3,15.8,6.6l0.2-0.1c0.7-0.2,1.5-0.3,2.2-0.7c1.5-0.6,2.4-0.4,3.6,0.8
				c4.2,4.5,9.7,5.6,14.6,6c0.3,0,0.5,0,0.8,0c3.7,0,6.5-2.4,7-6.3C90.5,264.2,88,260.2,84.3,259.5z"/>
			<path class="st1" d="M27.2,232.5c0.7,0,1.4-0.3,2.1-0.8c0.6-0.5,1-1.3,1.1-2.1c0.1-1.6-0.8-3.2-1.6-4.1c-2.8-3.2-2.9-7-2.7-11.2
				c0.4-7.9,2-15.6,3.4-21.5c2.5-10.7,7.7-14.8,18.9-15h0.2c1.3,0,3.1,0,3.8-2.3c0.6-2,1.8-3.5,3.1-5.2c0.4-0.5,0.7-0.9,1.1-1.4
				l0.5-0.7l-0.6-0.6c-3.9-4.1-7.4-4.6-12-1.8c-4,2.5-7.8,3.6-12.5,3.6l0,0c-5.6,0-8.7,2.9-9.4,9c0,0.4-0.1,0.8-0.1,1.2
				c0,0.8,0,1.5-0.4,2.1c-4.8,6.4-4.6,13.8-4.1,20.3c0.2,2.5,0.6,5.1,0.9,7.5c0.6,3.8,1.1,7.8,1.1,11.7c0,3.4,1,6.5,3,8.8
				C24.5,231.6,25.9,232.5,27.2,232.5z"/>
			<path class="st1" d="M142.1,13.3c-5.2-3.3-11.3-4.8-18.1-4.5c-4.5,0.2-8.3,3.7-9.3,8.4c-0.6,2.8-0.6,5.2,0,7.3
				c0.5,1.7,1.9,2.1,2.9,2.5c0.6,0.2,1.2,0.4,1.5,0.8c0.3,0.3,0.6,0.5,0.8,0.6c0.1,0.1,0.3,0.2,0.3,0.2c3.4,4.1,6.9,6,11.2,6.2
				c0.9,0,2,0.7,2.9,1.8c1,1.2,2.1,1.6,3.1,1.6c1.1,0,2.2-0.5,2.8-0.8c5.9-3,6.8-8.6,6.8-14.2C147.3,21.6,147.3,16.6,142.1,13.3z"/>
			<path class="st1" d="M68.9,196.3c-0.5-1.4-0.9-2.7-0.9-4c0.2-6.3-4.3-8.5-8.3-10.5l-0.3-0.1c-3.7-1.8-5.8-0.4-7.9,2.2
				c-4.4,5.6-3.5,11.9-2.5,16.1c0.7,2.7,0.7,5.1,0,7.6c-1.4,5.8-0.9,10.5,1.6,14.4l0.1,0.1c0.5,0.8,1.3,2.1,2.8,2.1
				c0.3,0,0.6,0,0.9-0.1c0.9-0.3,2-1,2.3-3.1c0.6-5.8,4.7-8.7,8.7-10.9l0.6-0.3c2.2-1.1,5.1-2.7,3.5-6.5
				C70.4,200.7,69.6,198.4,68.9,196.3z"/>
			<path class="st1" d="M126.5,35.4c-2-0.1-2.8-0.6-3.5-1.9c-1.9-3.5-5.2-4.9-7.9-5.7c-2.4-0.8-4.4-0.7-5.9,0.2
				c-1.5,0.9-2.5,2.6-3.1,5.2c-0.5,2.3-0.5,4.8-0.2,8.1c0.7,7,4.6,11.6,11.2,13.3c1.7,0.4,3.4,0.6,5,0.8c0.7,0.1,1.5,0.2,2.2,0.3
				l1,0.1v-0.2c0.2,0,0.4,0,0.6,0c6.4-0.3,10.8-4.2,11-9.9C137.3,40,133.1,35.9,126.5,35.4z"/>
			<path class="st1" d="M47.9,179.1c-7.4-1.1-13.6,3-16.1,10.8c-2.7,8.4-3.8,17-4.5,25.1v0.1c-0.1,1.6-0.3,3.6,1.4,5.9l1,1.4
				l0.7-1.5c2.7-5.8,7.2-10.2,14-13.8c3.2-1.7,4.1-3.5,3.4-7c-1.1-5.5-1.7-11.3,2.3-16.4c1-1.3,0.9-2.2,0.7-2.8
				C50.3,179.9,49.4,179.3,47.9,179.1z"/>
			<path class="st1" d="M119.3,255.9c-1.3-1.3-2.6-2.4-3.6-3.8c-1.8-2.3-3.4-4.2-5.8-4.5c-1.5-0.2-3.1,0.4-4.8,1.7H105
				c-0.2,0-0.4,0.1-0.6,0.2c-0.9,0.4-1.9,0.1-3.1-0.1c-1.5-0.4-3.5-0.8-4.9,0.8c-0.8,0.9-1.5,2-2.1,3c-0.8,1.3-1.5,2.6-2.6,3.5
				c-1.6,1.3-3.2,3.1-1.3,6.2c0.9,1.5,1.1,3.4,1.2,5.1c0.1,2.1,0.6,3.6,1.8,4.6c0.8,0.7,1.9,1,3.3,1c0.5,0,1,0,1.5-0.1
				c3.1-0.5,5.8-2.1,7.9-4.7s4.1-3.5,6.6-2.8h0.2l1.7-0.1c1.2-0.1,2.4-0.1,3.5-0.2c0.6-0.1,1.3-0.3,2.1-0.6c1.8-0.8,2.8-1.7,3.1-2.9
				c0.2-1.2-0.3-2.4-1.6-3.8C120.9,257.4,120.1,256.6,119.3,255.9z"/>
			<path class="st1" d="M59.9,216.7c-2.4,3.7-2.3,8.2,0.2,10.8c4.4,4.4,9,6.7,14.1,7l0,0c0.1,0,0.3,0,0.4,0c3,0,5.6-1.2,8.1-3.7
				c0.7-0.7,2.3-2.4,0.8-4.3c-0.8-1-1.4-2.3-2-3.6c-1.3-2.8-2.7-5.9-6.8-6.9c-0.8-0.2-1.5-1.3-2.1-2.2l-0.3-0.4
				c-2.5-3.7-3.1-3.9-6.8-1.7C63.6,212.8,61.4,214.4,59.9,216.7z"/>
			<path class="st1" d="M35.3,235.9c0.3,0.1,0.6,0.1,0.9,0.1c0.7,0,1.4-0.2,2.3-0.7c2.1-1.2,4.7-1.1,7-1.1c0.3,0,0.6,0.1,1,0.1
				c1.3,0.2,3.7,0.6,4.4-2.3c0.1-0.5,0.3-1,0.5-1.5c0.7-1.7,1.7-4.1-0.9-6.6c-2.1-1.9-3.2-4.7-3.4-9.1c-0.1-1.2,0-2.3,0-3.7
				c0-0.7,0-1.5,0-2.3v-1.6l-1.5,0.8c-5.2,2.7-8.8,5.5-11.5,9.1c-3.6,4.7-4,10-1.4,15.7C33.4,234.2,34,235.5,35.3,235.9z"/>
			<path class="st1" d="M73.6,169.4c-2.6-0.6-5.2-1.2-8-1.3c-7-0.1-10.4,2.7-12.5,10.1l-0.4,1.4l1.5-0.1c3.4-0.3,6.1,0.4,8.3,2.2
				c1.4,1.2,3.1,2.4,4.9,2.4c0.2,0,0.3,0,0.5,0c1.4-0.2,2.6-1,3.8-2.6c0.4-0.5,1.4-0.8,2.2-1c0.2-0.1,0.5-0.1,0.8-0.2
				c4.6-1.5,4.9-2,3.5-6.4l-0.1-0.3c-0.7-2.3-2-3.6-4.3-4.1L73.6,169.4z"/>
			<path class="st1" d="M81.6,219.3c1,6.5,8,12.5,14.4,12.5c0.1,0,0.1,0,0.2,0c1.2,0,2.4-0.2,3-1.1c0.6-0.9,0.2-2.1-0.4-3.2
				c-1.3-2.7-2.6-5.5-3.9-8.1c-0.7-1.3-1.3-2.7-2-4.1c-1.6-3.2-4.8-4.8-7.7-3.7C82.9,212.4,81.2,216.2,81.6,219.3z"/>
			<path class="st1" d="M73.5,182.1c-2.7,1.3-4.1,3.3-4.3,6.1c-0.2,2.5-0.1,5.6,1.8,9l0.5,1l0.9-0.6c3.3-2.3,6.7-1.3,10.7,0.2
				l1.1,0.4l0.3-1.1c0.1-0.3,0.1-0.5,0.2-0.7c0.1-0.4,0.2-0.8,0.1-1.3c-1-3.1-2-6.2-3-9.3c-0.6-2-1.5-3.9-3.1-4.6
				C77.2,180.6,75.3,181.3,73.5,182.1z"/>
			<path class="st1" d="M33.1,240.1c0.5-1.4,0.5-2.7-0.1-3.9c-0.6-1.1-1.7-1.8-3.1-2.1c-0.6-0.1-1.1-0.1-1.6-0.1
				c-0.6,0-1.1,0-1.6-0.2c-1.4-0.5-2.5-0.5-3.3,0.1c-0.8,0.5-1.3,1.6-1.4,3.2c-0.1,0.7-0.2,1.5-0.3,2.2c-0.1,0.3-0.1,0.6-0.1,0.9
				v0.1v0.1c0,3,0.6,6.8,4.7,8.7c0.7,0.3,1.5,0.6,2.3,0.6c0.4,0,0.9-0.1,1.3-0.3c0.8-0.5,1.3-1.5,1.4-3c0.1-1.7,0.8-3.3,1.5-5
				C32.8,240.8,32.9,240.4,33.1,240.1z"/>
			<path class="st1" d="M97.3,233.4c-0.8,0.2-1.4,0.6-1.7,1.1c-0.5,0.8-0.2,1.8,0,2.5c0.1,0.2,0.1,0.4,0.2,0.7
				c0.1,0.6,0.2,1.2,0.3,1.8c0.3,1.3,0.5,2.6,0.6,3.8c0.1,4.2,3.1,4.7,5.7,4.8c0.2,0,0.3,0,0.5,0c1.3,0,2.8-0.5,4.3-1.3
				c0.5-0.3,1.3-0.9,1.5-1.8c0.1-0.6,0-1.3-0.4-1.9c-0.7-1-1.3-2-2-3.1c-1.2-1.8-2.3-3.6-3.5-5.4c-1.4-2.2-3.6-1.6-5-1.2L97.3,233.4
				z"/>
			<path class="st1" d="M106.3,27.3c0.2,0.1,0.5,0.1,0.7,0.1c1.7,0,3.5-1.2,4.8-2.1c1.4-0.9,1.3-2.4,1.2-3.5c0-0.5-0.1-1,0-1.4
				l0.1-0.4l-0.2-0.3c-0.1-0.1,0-0.7,0.1-1c0.2-0.8,0.4-1.9-0.3-2.7c-0.5-0.6-1.3-0.9-2.4-1c-1.9-0.1-3.6,0.5-4.7,1.7
				c-1.2,1.2-1.8,2.8-1.7,4.7c0,0.3,0,0.6,0,0.9C103.7,24.1,103.7,26.7,106.3,27.3z"/>
			<path class="st1" d="M68.7,166.8c0.6,0,1.3,0.2,2,0.4c0.8,0.2,1.8,0.5,2.8,0.5c0.5,0,0.9,0,1.4-0.2l0.9-0.2l-0.1-0.9
				c-0.6-4.3-1.7-6.6-5.5-7.3c-3.6-0.7-4.5,2.4-4.8,3.5c-0.4,1.3-0.3,2.3,0.3,3.1C66.3,166.4,67.3,166.7,68.7,166.8z"/>
		</g>
		<path class="st2" d="M89.5,208.7c-0.7-7.4-5.8-9.4-10.5-10.8c-3.3-0.9-6.3,0.6-7.4,3.8c-1.3,3.4,1.1,11.1,4,13.1
			c0.7,0.5,1.6,1,2.7,1c0.2,0,0.5,0,0.7-0.1c0.9-0.3,1.7-1,2.3-2.3c1.4-3,3.7-4.2,7-3.7l1.3,0.2L89.5,208.7z"/>
		<path class="st3" d="M185.1,259.4c-0.3-0.5-0.6-0.9-0.8-1.2c-0.4-0.6-0.7-1-1-1.5c-19.8-24.9-35.8-55.1-48.6-92.4
			c-8.7-25.3-15.6-52.6-21.1-83.6c-0.9-5.1-1.4-5.5-6.3-5.5c-14.1,0-28.3,0-42.4,0c-1.7,0-3,0-3.7,0.8s-0.6,2-0.4,4
			c0.5,3.7,1,7.4,1.6,11.1l0.2,1.6c4,25.4,9.9,58.8,20.3,91.6c5,15.9,12.4,36.5,24.9,55.2c5.1,7.7,10.6,14,16.7,19.2
			c2.1,1.8,4.2,2.6,6.7,2.6c0,0,0,0,0.1,0c11.7-0.1,23.6-0.1,35-0.1c5.2,0,10.4,0,15.5,0c0.5,0,0.9-0.1,1.5-0.2
			c0.3,0,0.7-0.1,1.1-0.2l1.6-0.2L185.1,259.4z"/>
		<g>
			<path d="M99.1,22.7c0.1,0,0.2,0,0.3,0c2.5,0,2.8-2.1,3-3.2c0.6-3.4,2.8-5.3,7-6c0.4-0.1,0.8,0,1.2,0c1.2,0,2.6,0.1,3.8-1.1
				L115,12l-0.2-0.6c-1.4-3.6-4.2-5.5-7-7c-1.6-0.9-3.2-1.6-4.8-2.3c-0.7-0.3-1.4-0.6-2.1-1L100.6,1H69.5l-0.1,0.9
				c-0.2,3.1,1.2,5.5,2.9,7.8C79.4,20.1,90.4,22.1,99.1,22.7z"/>
			<path d="M192.6,149.3c-4.5-9.5-10.2-15.7-18-19.5c-0.3-0.1-0.5-0.2-0.8-0.4c-0.4-0.2-0.9-0.4-1.2-0.6c-0.5-0.4-0.8-0.8-0.8-1
				s0.3-0.6,1-1c0.6-0.3,1.3-0.5,2-0.7c0.5-0.2,1.1-0.3,1.6-0.5c4.7-1.9,9.3-4,13.1-7.8l1.4-1.4l-2-0.3c-7-0.9-13.6-2.9-20.1-6.1
				c-3.6-1.8-7.8-3-13.2-4c-12.3-2.2-22.2,0-30.4,6.7c-1.7,1.4-3.1,3.1-2.3,6.4c4.1,16.4,8.3,30.7,12.7,43.7
				c0.9,2.6,2.3,4.4,4.5,5.7c5.4,3.2,10.8,4.7,16,4.7c5.3,0,10.5-1.6,15.5-4.9c4.3-2.8,8.2-3,12.1-0.6c1.3,0.8,2.2,0.6,2.9-0.5
				l0.2-0.3l-0.1-0.4c-0.9-5.6-4.1-10-9.8-13.5c-1.2-0.7-1.7-1.1-1.5-2c0.1-0.7,0.5-1.5,2.3-1.8c3-0.5,6-0.3,9.1,0.6
				c0.3,0.1,0.6,0.3,1,0.4c1,0.5,2.5,1.2,4.3,0.4l1-0.4L192.6,149.3z"/>
			<path d="M174.1,282.6c-2.7-3.7-4.4-6.8-4.4-11.2c0-6.1-2.8-8.6-9.3-8.7c-9.6,0-19.3,0-28.9,0h-3.3c-0.2,0-0.4,0-0.7-0.1
				c-0.9-0.1-2.2-0.2-3.2,1c-2.8,3.6-6.8,3.6-11.1,3.6h-0.3c-1.7,0-3.6,0-5.3,1.8c-5.4,5.7-10.3,7.1-16.1,4.5l-1.3-0.6l-0.1,1.4
				c-0.2,2.1,0.4,3.6,0.9,5l0.2,0.5c2.7,7.8,7.8,14.3,15.6,20.1c3.8,2.8,8.1,4.6,12.2,6.3c2.7,1.1,5.5,2.3,8.1,3.7l1.1,0.6l0.4-1.1
				c1.5-4.6,1.1-8.9-1.2-13.8c-0.8-1.7-0.8-2.5,0.1-3.3c0.6-0.6,1.1-0.4,2.3,0.2c0.2,0.1,0.4,0.2,0.6,0.3c0.6,0.3,1.3,0.6,1.9,0.9
				c1.7,0.8,3.5,1.6,5.2,2.2c11.9,4.3,22.2,4.1,31.6-0.8c2-1.1,4.2-0.6,6.5-0.2l0.4,0.1c0.1,0,0.3,0.1,0.5,0.3
				c0.7,0.4,2.1,1.1,3.4-0.4l0.4-0.4l-0.2-0.6C178.8,289.9,176.7,286.1,174.1,282.6z"/>
			<path d="M27.1,168.4c1.9-0.6,3.8-0.7,5.9-0.8c3.5-0.2,7.1-0.5,10.6-3c4.2-3.1,9-2.9,13,0.5c1.8,1.5,3.2,2.4,4.6,1.9
				c1.4-0.4,2.1-2.1,2.8-4.7c1-3.8,2.4-4.9,6.1-4.9c0.2,0,0.3,0,0.5,0c0.7,0.1,1.9,0.2,2.7-1.2l0.2-0.3l-0.1-0.4
				c-0.4-1.7-0.8-3.4-1.2-5.2c-1-4.3-2-8.8-2.9-13.3c-0.6-2.8-2.3-4.4-3.9-5.6c-9.4-7.1-19.8-9.5-30.9-7.1
				c-5.2,1.1-8.7-0.6-12.4-3.6c-0.5-0.4-1-1-1.5-1.5c-0.9-1-1.9-2.1-3.5-2.9l-1.6-0.8l0.1,1.8c0.3,4.1,1.3,7.9,3.4,11.9
				c0.2,0.4,0.5,0.8,0.7,1.2c0.5,0.7,0.8,1.2,0.8,1.8c-0.6,6.5,2.4,11.5,6.1,16.8c1.3,1.9,1.2,2.4,1.1,2.5s-0.4,0.6-2.7,0.8
				c-1.8,0.2-3.6-0.1-5.7-0.5c-1.2-0.2-2.5-0.4-3.9-0.5l-1.5-0.1l0.5,1.4c1.7,5.4,4,9.5,7.3,13l0.1,0.1c1.1,1.2,2.6,2.8,4.4,2.8
				C26.4,168.5,26.8,168.4,27.1,168.4z"/>
			<path d="M77.1,275.3c-3.6-0.7-6.5-2-8.7-3.9c-2-1.7-3.9-2.1-6.5-1.4c-7.4,1.8-12.8-0.2-16.6-6.1c-0.8-1.2-2-2.6-4.4-2.4
				c-5,0.2-8.2-2.1-9.7-7.2L31,254c-0.3-0.9-0.7-2.6-2.6-2.5c-1.8,0.1-2.2,1.8-2.4,2.7v0.2c-3.3,13.6-1.6,25,5.1,35
				c2.3,3.4,3.6,6.3,3.4,10.9l-0.1,2.2l1.7-1.4c6.6-5.3,13.7-8.6,23-10.8c3.4-0.8,6.7-1.7,9.8-2.5c4.4-1.3,7.8-3.7,10.2-7.4
				c0.6-0.9,1.3-2.3,0.8-3.5C79.5,276.2,78.6,275.6,77.1,275.3z"/>
			<path d="M33,90.6c6.4,8,13.5,13.1,21.8,15.7c0.3,0.1,0.6,0.2,1,0.3c1.4,0.5,2.9,1,4.5,1c0.7,0,1.4-0.1,2.2-0.3l0.8-0.2l-0.1-0.9
				c-0.4-2.7-0.8-5.4-1.2-8c-1-6.2-1.9-12.3-2.8-18.3c-0.8-5.3-0.8-5.4,5-6.8l1.5-0.4l-1-1.2c-6.4-8.1-14.6-13.3-26-16.5l-2-0.6
				l0.8,1.9c0.3,0.6,0.5,1.2,0.8,1.7c0.5,1,0.8,1.7,0.9,2.4c0.9,5.7,3.2,11.2,7.4,17.3c0.2,0.3,0.4,0.5,0.6,0.8c0.9,1,1,1.3,0.6,1.9
				c-0.4,0.7-0.9,0.6-2.3,0.2c-0.2-0.1-0.3-0.1-0.5-0.2c-5.4-1.7-10.9-2.6-16.4-2.8c-0.3,0-0.5,0-0.8,0c-1.8-0.1-3.8-0.2-6,1.4
				l-1.3,1l1.4,0.8C26.9,83.4,30.2,87,33,90.6z"/>
			<path d="M113.9,75c0.3,1.6,0.6,3.3,0.9,5c0.7,4.3,1.4,8.7,2.9,13.3l0.6,1.7l1.2-1.3c13.3-15.6,26-19.8,41.1-13.4l2.9,1.2
				l-1.6-2.6c-2.6-4.2-6.2-7.2-11.2-9.2c-12.3-4.9-23.8-1.9-34.5,2.1C114.5,72.3,113.7,73.5,113.9,75z"/>
			<path d="M96.6,72.2c-9-14.8-31.3-25.8-44.3-21.8L50.2,51l1.9,1.2c0.2,0.1,0.4,0.3,0.6,0.4c0.4,0.3,0.8,0.5,1.2,0.7
				c9.1,4.8,14.6,10.5,17.3,17.9c0.8,2.3,2.6,2.6,3.8,2.6l0,0c4.9,0,9.8,0,14.9,0h7.6L96.6,72.2z"/>
			<path d="M83,42.7c3.7,1.9,8.1,2.9,13.1,2.9c0.1,0,0.3,0,0.4,0c6.7-0.1,7.6-1,7.7-7.9v-0.3c0-0.2,0-0.4,0-0.6
				c0.3-1.8,0.1-3.1-0.7-3.9c-0.8-0.8-2-1-3.8-0.7c-5.4,1-10.9,0.7-16,0.1c-5.2-0.5-10,1-14.2,4.6l-2,1.7l2.6,0.1
				C74.2,39,78,40.1,83,42.7z"/>
			<path d="M147.6,38.5c11.8,0,19.8-6.9,27-12.9l1.9-1.6l-2.4-0.2c-9.1-0.7-16.1-0.6-22.6,0.3c-1.7,0.2-2.7,1.2-2.8,2.8
				c-0.2,3.1-1.4,6-4,10l-1,1.4l1.7,0.1C146.1,38.5,146.8,38.5,147.6,38.5z"/>
			<path d="M140.5,57.1c2.1,1,4.3,1.7,6,2.2c3.6,1.1,6.7,1.5,9.8,1.5c1.7,0,3.3,0.6,5.2,1.4c1.4,0.6,3,1.3,4.8,1.7l2.7,0.6l-1.7-2.2
				c-7.4-9.6-17.3-14.1-26.8-18.4l-1-0.5l-0.3,1.1c-0.2,0.7-0.4,1.3-0.6,1.9c-0.3,1.2-0.6,2.2-1,3.2C135.8,54.4,136,55,140.5,57.1z"
				/>
		</g>
		<path d="M110,2c1.5,2.5,4.4,3.6,6,6.1c0.9,1.3,2,0.3,3-0.2c7.9-3.4,21.4-0.6,27.3,5.7c1.3,1.4,2.8,2.9,2.9,5
			c0.1,2.8,1.6,3.1,3.8,2.8c7.4-0.9,14.8-0.7,22.1-0.7c1.1,0,2.3-0.1,3.4,0.1c2.4,0.5,3.2,2.3,1.4,3.8C168.8,34,158,44,141.8,40.2
			c-0.3-0.1-0.6,0.1-1,0.1c-0.5,0.9,0.4,1,0.8,1.2c0.5,0.3,1.2,0.6,1.7,0.8c6.6,3,13.1,6.3,18.8,10.9c4.5,3.6,8.3,7.8,9.7,13.6
			c0.4,1.4,1,3-0.5,4c-1.6,1.1-2.7-0.4-3.7-1.3c-3.7-3.9-8-6.1-13.5-6.5c-6.4-0.5-12.7-2-18.2-5.8c-1-0.7-2-0.9-3.2-0.5
			c-5.7,2.2-11.4,1.5-17,0c-2.1-0.6-3.2-0.2-4.1,1.9c-1.8,4.3-3.5,8.7-3.8,13.9c7.3-3.4,14.2-6.1,21.5-7.3
			c15.9-2.7,28.9,1.9,38.1,15.8c0.5,0.7,0.9,1.4,1.3,2.1c0.6,1.1,1.4,2.4,0.3,3.6c-1.3,1.5-2.6,0.5-3.9-0.3
			c-2.6-1.7-5.2-3.2-8.1-4.4c-8-3.2-15.7-2.6-23.1,1.8c-2.2,1.3-4.4,2.8-6.2,4.7c-10.4,10.7-9.3,7.6-5.4,22.3
			c0.9,0.5,1.5-0.2,2.1-0.6c9.3-7.2,19.9-8.6,31.1-6.6c6.7,1.2,13.1,3.3,19.2,6.3c4.9,2.4,10.2,2.9,15.5,3.3c1.9,0.2,4.8-0.7,5.4,2
			c0.5,2.5-2.2,3.3-3.7,4.6c-4.2,3.3-9,5.7-13.9,7.8c0,1.8,1.5,2,2.4,2.7c7.8,5.5,12.7,13.2,16.1,22.1c0.5,1.2,1.2,2.5,0,3.6
			c-1.3,1.2-2.4,0.1-3.5-0.5c-3.8-2.1-7.5-4.3-12.9-3.7c1.6,1.5,2.7,2.6,3.7,3.7c4.1,4.4,5.9,9.6,6,15.6c0,1.2-0.2,2.4-1.4,2.9
			s-2.2-0.2-3-1c-0.6-0.6-1.1-1.2-1.7-1.8c-2.5-2.7-5.5-3.2-8.8-1.6c-1,0.5-2,1-3,1.5c-9.6,5.7-19.4,6.2-29.5,1.5
			c-0.6-0.3-1.2-0.4-1.8-0.7c-0.8,1.4,0.1,2.5,0.5,3.7c11.5,30.2,26.1,58.5,46.8,83.3c0.9,1.1,2.4,2.1,1.5,3.8
			c-0.8,1.6-2.5,1.1-3.9,1.1c-4.9,0.2-9.9-0.4-15.3,0.4c1.3,3.8,2.3,7.4,2.2,11.2c0,1.6,1.2,2.6,2.1,3.8c3.9,5.3,7,10.9,9,17.2
			c0.3,1.1,0.6,2.2,0.9,3.3c0.3,1.3,0.4,2.7-1,3.4c-1.4,0.7-2.4-0.2-3.3-1.2c-5.3-5.6-5.8-5.7-12.9-2.9c-9.6,3.8-19.2,3.4-28.8,0.2
			c-2.3-0.8-4.5-1.6-6.7-2.4c-1.5,1.2-0.6,2.6-0.4,3.7c0.9,4.1,0.3,8.1-1,12c-1.2,3.5-2.8,3.8-4.9,1c-1.5-2-3.3-2.9-5.5-3.7
			c-14.6-5.6-26.3-14.3-31.6-30c-0.3-1-0.3-2.5-1.9-2.3c-1.5,0.1-3.2,0-4,2c-3.4,8.1-10.5,11-18.3,12.7c-4.9,1.1-9.7,2.1-14.4,4
			c-6.8,2.8-12.8,6.8-17.2,13c-0.4,0.5-0.7,1.1-1.2,1.6c-0.7,0.8-1.6,1.2-2.5,0.6s-1.1-1.6-0.7-2.6c0.7-1.7,1.5-3.2,2.3-4.9
			c1.8-4,1.9-7.7-0.8-11.5c-8.1-11.3-9.4-24-6.3-37.3c0.6-2.5,0.6-4-1.5-6c-3.7-3.5-3.3-8.4-2.2-12.9c0.7-2.9,0.8-5.3-0.6-7.9
			c-0.8-1.4-1.2-3.1-1.4-4.7c-0.9-8.3-1.8-16.5-2.4-24.8c-0.4-6.1,0.6-12,3.6-17.5c1.7-3.1,1.2-7.1,3.4-10.1
			c0.8-1.1-0.5-1.7-1.2-2.3c-5-4.5-7.5-10.5-9.9-16.5c-0.5-1.4-1.2-2.8,0.1-4.1c1.1-1.2,2.4-0.4,3.6,0c2.6,0.8,5.1,1.9,7.8,1.6
			c0.6-1.5-0.5-2.2-0.9-3.2c-0.3-0.7-1-1.4-1.2-2.1c-2.6-9.4-6.6-18.3-7.9-28c-0.2-1.8-0.1-3.6-0.1-5.4c0-0.9,0.5-1.6,1.4-1.8
			c0.8-0.2,1.6,0.1,2.1,0.8c0.9,1.3,1.8,2.7,2.8,4c2,2.7,4.3,5.3,7.3,7.1c1.8,1.1,3.6,1.8,5.9,1.3c11.3-2.3,22-0.8,31.9,5.5
			c0.4,0.2,0.8,0.7,1.8,0.1c-0.2-5.2-1.8-10.5-2.7-15.8c-0.2-1.4-1.4-1.6-2.5-1.8c-13.2-1.9-23-9.7-31.1-19.8
			c-3.8-4.8-8.5-7.9-14.3-9.3c-0.2,0-0.3-0.1-0.5-0.1c-1.3-0.3-2.8-0.6-2.8-2.2s1.3-2,2.7-2.2c2.2-0.3,4.4-0.8,6.7-1
			c5.6-0.5,11.2-0.5,16.8,0.7c1.2,0.3,2.5,0.7,4.5,0.2c-3.2-5.4-4.9-11.2-6.9-17c-0.7-2-2.7-3.2-4.3-4.6c-0.8-0.7-1.9-1.5-1.4-2.8
			c0.6-1.6,2.1-1.2,3.3-1c12.1,2.5,23,7.2,31.4,16.7c0.9,1,1.7,1.9,2.6,2.9c0.1,0.1,0.2,0.1,0.8,0.2c-1.3-3.7-3.5-6.4-6-8.9
			c-4.5-4.4-9.9-7.1-15.7-9.4c-0.9-0.3-1.8-0.7-2.7-1c-1.3-0.4-2.7-0.9-2.5-2.5c0.2-1.7,1.8-1.7,3-1.8c11.5-1.3,22.8-0.4,33.4,4.8
			c7.8,3.9,14.2,9.4,19.6,16.3c0.8,1,1.5,2.2,2.4,3.1c1.9,1.9,3.9,1.4,4.5-1.2c1.1-4.9,2.5-9.8,4.7-14.4c0.5-1.1,0.6-2-0.3-3.1
			c-2.8-3.3-4.7-7-10.6-5.3c-5.8,1.6-12-0.4-17.2-3.2c-4.4-2.4-8.7-3.1-13.4-2.3c-1.4,0.2-3,1-3.9-0.7c-1.1-1.8,0.3-3.1,1.4-4.3
			c5.2-5.5,11.7-7.8,19.1-7.2c5.3,0.4,10.6,0.8,15.8-0.2c1-0.2,2.5,0.2,2.5-1.6c-0.1-1.5-0.6-2.8-2.5-3c-2.6-0.2-5.1-0.5-7.7-0.9
			C84.2,22.9,77,19.6,71.6,13c-2.6-3.2-4.4-6.8-5-11c1.3,0,2.6,0,3.9,0c-0.2,2.8,1.2,5,2.7,7.2c6.3,9.2,15.7,11.8,26,12.5
			c1.7,0.1,2.1-0.9,2.3-2.4c0.8-4.3,3.8-6.1,7.8-6.8c1.5-0.2,3.2,0.5,4.5-0.9c-1.3-3.3-3.8-5-6.5-6.5c-2.3-1.1-4.6-2-7-3.1
			C103.6,2,106.8,2,110,2z M184.3,260c-0.9-1.3-1.3-2-1.8-2.6c-22.1-27.7-37.2-59.2-48.8-92.7c-9.4-27.3-16.1-55.3-21.2-83.7
			c-0.8-4.7-0.9-4.7-5.3-4.7c-14.1,0-28.3,0-42.4,0c-3.3,0-3.5,0.1-3.1,3.7c0.5,4.2,1.2,8.4,1.8,12.6c4.8,30.9,10.8,61.6,20.3,91.5
			c6.1,19.3,13.5,38,24.7,55c4.7,7.1,10.1,13.5,16.6,19c1.8,1.5,3.6,2.4,6.1,2.4c16.9-0.1,33.7,0,50.6-0.1
			C182.4,260.3,183,260.1,184.3,260z M188.7,117c-7.3-0.9-14-3-20.4-6.2c-4-2-8.5-3.1-12.9-3.9c-10.7-1.9-20.8-0.7-29.6,6.5
			c-1.8,1.5-2.6,2.9-1.9,5.4c3.7,14.7,7.8,29.3,12.6,43.6c0.8,2.3,2,3.9,4.1,5.1c10.2,5.9,20.3,6.5,30.5-0.1
			c4.2-2.8,8.6-3.4,13.1-0.7c0.5,0.3,1.1,0.8,1.7-0.1c-1-5.9-4.5-9.8-9.4-12.8c-1.1-0.7-2.3-1.4-2-3c0.3-1.7,1.6-2.4,3.1-2.6
			c3.2-0.5,6.4-0.3,9.5,0.6c1.4,0.4,2.7,1.7,4.6,0.9c-4-8.4-9.4-15.1-17.6-19.1c-0.7-0.4-1.5-0.6-2.2-1c-1.7-1.2-1.6-2.7,0.3-3.7
			c1.1-0.6,2.4-0.8,3.6-1.3C180.5,122.7,185,120.7,188.7,117z M91.2,274.5c-0.2,2.1,0.5,3.6,1,5.1c2.9,8.3,8.3,14.5,15.3,19.6
			c6.1,4.6,13.5,6.2,20.2,9.9c1.5-4.8,0.8-9-1.2-13c-0.8-1.6-1.1-3.1,0.4-4.4c1.4-1.2,2.7-0.3,4,0.3c2.3,1,4.7,2.2,7.1,3.1
			c10.3,3.8,20.6,4.5,30.8-0.8c2.5-1.3,5-0.7,7.5-0.2c1,0.2,1.9,1.5,3.1,0.2c-1.4-4-3.4-7.7-5.9-11.1c-2.6-3.5-4.6-7-4.6-11.8
			c0-5.7-2.6-7.6-8.3-7.7c-10.8,0-21.5,0-32.3,0c-1.1,0-2.2-0.5-3.1,0.6c-3.1,3.9-7.5,4-11.9,4c-1.8,0-3.4-0.1-4.8,1.5
			C103.7,274.8,98.3,277.8,91.2,274.5z M15.3,152.2c1.6,5.1,3.8,9.1,7.1,12.6c1.2,1.3,2.7,3.1,4.4,2.5c5.3-1.6,11.1,0.1,16.1-3.6
			c4.4-3.2,9.6-3.4,14.3,0.6c3.4,2.9,4.5,2.4,5.7-2.2c1.1-4.2,2.9-5.6,7.2-5.6c0.8,0,1.6,0.4,2.2-0.7c-1.3-6.1-2.8-12.2-4.1-18.4
			c-0.5-2.3-1.8-3.7-3.5-5c-9-6.8-19.2-9.3-30.1-6.9c-5.5,1.2-9.3-0.7-13.2-3.8c-1.6-1.3-2.6-3.2-4.9-4.3c0.3,4.3,1.5,8,3.2,11.5
			c0.6,1.1,1.8,2.1,1.6,3.5c-0.6,6.3,2.5,11.2,5.9,16.1c2.3,3.3,1.7,4.5-2.3,4.9C22,153.5,19.1,152.6,15.3,152.2z M35.5,300.5
			c7.5-6,15.2-9.1,23.4-11c3.3-0.8,6.5-1.6,9.8-2.5c4-1.1,7.3-3.3,9.6-6.9c1.3-2,1.2-3.2-1.4-3.7c-3.3-0.7-6.5-1.9-9.2-4.1
			c-1.8-1.5-3.4-1.8-5.7-1.2c-7.2,1.8-13.4,0.1-17.7-6.5c-0.9-1.3-1.8-2.1-3.5-2c-5.6,0.2-9.1-2.5-10.7-7.9c-0.3-0.9-0.5-2.1-1.7-2
			c-1.1,0.1-1.3,1.2-1.6,2.2c-3,12.1-2.1,23.7,5,34.2C34.1,292.1,35.7,295.3,35.5,300.5z M64,72.1c-6.8-8.6-15.3-13.3-25.6-16.2
			c0.8,1.8,1.6,3.1,1.8,4.4c1,6.3,3.7,11.7,7.3,16.9c0.8,1.1,2.3,2.2,1.2,3.8c-1,1.6-2.6,0.8-3.9,0.4c-5.3-1.6-10.6-2.5-16.1-2.7
			c-1.9-0.1-4-0.5-6.2,1.1c4.8,2.6,8.2,6.1,11.4,10.1c5.6,7.1,12.6,12.6,21.3,15.4c2.2,0.7,4.4,1.7,7.1,1c-1.4-9-2.7-17.6-4-26.3
			C57.4,74.2,57.8,73.6,64,72.1z M56.1,227.5c-8.2,11.7-2.8,25.2,11,27.4c5.7,0.9,11.5,0.4,17.1,1.9c2.4,0.7,4.3-0.6,6-2.3
			c4.7-4.5,5.8-14.6,2-19.9c-1.3-1.8-3.5-2.2-5.3-3.2c-1.7-0.9-2.4,1.1-3.4,2c-4.3,3.7-9.1,4.4-14.4,2.6
			C64.1,234.3,59.9,231.2,56.1,227.5z M44,236.8c-5.4,0-8.8,2.6-10.1,7.9c-0.5,1.9-0.7,3.9-0.8,5.8c-0.2,5.8,2.9,8.9,8.6,8.2
			c2.6-0.3,3.7,0.7,4.9,2.7c3.7,6.1,7.9,7.7,14.7,6.1c0.8-0.2,1.6-0.3,2.3-0.7c1.8-0.8,3.3-0.5,4.7,1.1c3.7,4.1,8.8,5.2,14,5.7
			c3.6,0.3,6.2-1.8,6.7-5.4s-1.6-7.2-4.8-7.8c-3.6-0.7-7.2-1.6-10.9-1.6c-3.7,0-7.4-0.5-10.9-1.5c-7.8-2.3-12.4-7.4-12.9-15.7
			C49,236.8,47.9,236.9,44,236.8z M55.7,168.2c-3.4-3.6-6.3-4.4-10.7-1.7c-4.1,2.5-8.2,3.7-13,3.7c-5.3,0-7.8,2.8-8.4,8.1
			c-0.2,1.3,0.2,2.6-0.7,3.8c-4.4,5.9-4.5,12.7-3.9,19.6c0.5,6.5,2.1,12.8,2,19.3c0,3,0.8,5.8,2.8,8.2c1.2,1.5,3.1,3.2,4.8,1.7
			c1.4-1.2,0.5-3.6-0.6-4.9c-3.1-3.5-3.2-7.7-3-11.9c0.3-7.3,1.7-14.6,3.4-21.7c2.7-11.2,8.3-15.5,19.9-15.8c1.4,0,2.6,0.1,3.1-1.6
			C52.2,172.4,54.1,170.4,55.7,168.2z M146.2,23.1c0.2-2.7-0.7-6.4-4.6-8.9c-5.4-3.4-11.3-4.6-17.5-4.3c-4.2,0.2-7.5,3.5-8.3,7.6
			c-0.5,2.2-0.6,4.6,0,6.8c0.6,2,3,1.5,4.2,2.8c0.3,0.4,0.9,0.5,1.2,0.9c2.7,3.3,5.9,5.7,10.5,5.8c1.4,0,2.7,1.1,3.7,2.2
			c1.5,1.8,2.9,1.4,4.7,0.5C144.8,34,146.2,29.8,146.2,23.1z M68.5,203.4c1.6-4.1-1.6-7.4-1.4-11.1c0.2-5.8-4-7.7-7.9-9.7
			c-2.9-1.4-4.6-0.7-6.6,1.9c-3.7,4.7-3.6,9.9-2.3,15.3c0.6,2.7,0.7,5.2,0,8.1c-1.1,4.6-1.3,9.4,1.5,13.6c0.6,0.9,1.2,2,2.6,1.6
			c1-0.3,1.4-1.2,1.6-2.2c0.6-5.9,4.5-9.1,9.2-11.7C67.5,207.9,70.1,206.9,68.5,203.4z M124.5,54.9c0-0.1,0-0.1,0-0.2
			c0.5,0,1,0,1.4,0c5.9-0.2,9.8-3.7,10.1-9c0.2-5.1-3.6-8.9-9.6-9.3c-1.9-0.1-3.4-0.6-4.4-2.4c-1.6-2.9-4.3-4.3-7.3-5.2
			c-4.3-1.3-6.8,0.1-7.7,4.7c-0.5,2.6-0.4,5.2-0.2,7.8c0.7,6.5,4.2,10.9,10.5,12.4C119.7,54.3,122.2,54.5,124.5,54.9z M161,79.3
			c-2.7-4.3-6.4-7.1-10.8-8.8c-11.6-4.7-22.7-2-33.8,2.2c-1,0.4-1.7,1-1.5,2.2c1.1,5.8,1.7,11.8,3.8,18.2
			C130.3,79.5,143.2,71.8,161,79.3z M29.5,220.4c3.2-6.8,8.4-11,14.4-14.2c2.7-1.4,3.5-2.7,2.9-6c-1.2-5.9-1.6-11.9,2.5-17.2
			c1.2-1.6,0.6-2.6-1.5-2.9c-6.7-1-12.6,2.6-15,10.1c-2.6,8-3.7,16.4-4.4,24.9C28.2,216.7,27.9,218.3,29.5,220.4z M112.9,264.9
			c1.8-0.1,3.4-0.2,5-0.3c0.6-0.1,1.3-0.3,1.8-0.5c2.9-1.3,3.3-2.8,1.2-5.1c-2-2.1-4.3-3.9-6.1-6.2c-2.5-3.3-4.9-6-9.2-2.6
			c-0.2,0.2-0.6,0.2-0.9,0.3c-2.6,1.2-5.7-1.7-7.7,0.4c-1.8,1.9-2.6,4.8-4.8,6.6c-1.8,1.4-2.5,2.7-1.1,4.9c1,1.6,1.3,3.6,1.3,5.6
			c0.1,3.6,1.9,5.1,5.4,4.6c3-0.5,5.5-2.1,7.3-4.4C107.4,265.3,109.8,264,112.9,264.9z M95.8,72.7C87,58.1,65.1,47.5,52.7,51.3
			c0.7,0.4,1.2,0.7,1.7,1c7.9,4.2,14.5,9.6,17.7,18.4c0.6,1.5,1.5,1.9,2.9,1.9C81.7,72.7,88.4,72.7,95.8,72.7z M74.2,233.5
			c3.1,0.1,5.6-1.2,7.7-3.4c0.8-0.8,1.7-1.8,0.8-3c-2.7-3.4-2.9-8.8-8.2-10.1c-1.3-0.3-2.2-1.8-3-3.1c-2.2-3.3-2.3-3.3-5.4-1.4
			c-2.1,1.2-4.1,2.6-5.4,4.7c-2.1,3.1-2.3,7.1,0.1,9.5C64.5,230.5,68.8,233.2,74.2,233.5z M46.2,208.9c-4.8,2.5-8.4,5.2-11.2,8.9
			c-3.5,4.6-3.7,9.5-1.3,14.7c0.9,2,1.8,3.3,4.3,2c2.3-1.3,4.9-1.2,7.5-1.2c1.6,0,3.7,1.2,4.4-1.5c0.6-2.3,2.7-4.5-0.1-7.1
			c-2.8-2.5-3.5-6.1-3.7-9.8C46.1,213.2,46.2,211.4,46.2,208.9z M70.2,37.8c4.8,0.2,9.1,1.8,13.3,4c4,2.1,8.5,2.8,13.1,2.8
			c6.2-0.1,6.6-0.5,6.7-6.9c0-0.3,0-0.7,0-1c0.5-2.7-0.4-3.9-3.3-3.4c-5.4,1-10.8,0.7-16.3,0.2C78.8,33,74.2,34.4,70.2,37.8z
			 M54.1,178.5c3.7-0.4,6.6,0.4,9,2.4c2.7,2.3,5.1,3.6,7.8,0c0.7-0.9,2.2-1.2,3.4-1.6c4.2-1.4,4.1-1.3,2.9-5.4
			c-0.6-1.9-1.6-3-3.6-3.4c-2.6-0.6-5.3-1.3-8-1.3C59.2,169,56.2,171.3,54.1,178.5z M173.9,24.8c-7.6-0.5-15-0.7-22.4,0.3
			c-1.1,0.1-1.8,0.7-1.9,1.8c-0.2,3.7-1.8,6.9-4.2,10.5C157.6,38.3,165.8,31.7,173.9,24.8z M140,44.7c-0.6,2.1-1,3.6-1.5,5.1
			c-1.6,4.4-1.7,4.5,2.4,6.4c1.9,0.9,3.9,1.5,5.9,2.1c3.1,0.9,6.2,1.5,9.5,1.4c3.4-0.1,6.1,2.2,10.2,3.1
			C159.3,53.6,150,49.2,140,44.7z M96.2,230.8c2.4,0,2.8-0.6,1.7-2.9c-1.9-4.1-3.9-8.1-5.9-12.2c-1.3-2.8-4-4.1-6.4-3.2
			c-1.8,0.7-3.4,4.1-3,6.6C83.6,225.2,90.2,230.9,96.2,230.8z M88.5,208.8c-0.6-6.6-5-8.6-9.7-9.9c-2.9-0.8-5.3,0.6-6.2,3.1
			c-1.1,3,1.1,10.2,3.7,12c1.7,1.2,3.1,1.4,4.2-0.9C81.9,209.8,84.5,208.2,88.5,208.8z M83.6,196.8c0.2-0.8,0.4-1.1,0.3-1.4
			c-1-3.1-2-6.2-3-9.3c-1.5-4.4-2.9-5-6.9-3.1c-2.2,1.1-3.5,2.7-3.7,5.3c-0.2,2.8,0.1,5.5,1.7,8.4C75.7,194.1,79.6,195.3,83.6,196.8
			z M22.5,240.2c0,3.5,0.9,6.3,4.1,7.8c2,0.9,3.3,0.9,3.5-1.9c0.1-2.3,1.2-4.3,2-6.4c0.9-2.2-0.2-4.2-2.4-4.6
			c-1.1-0.2-2.3,0-3.3-0.3c-2.3-0.8-3.2,0.1-3.4,2.4C22.9,238.2,22.6,239.3,22.5,240.2z M102.5,247c1.3,0.1,2.8-0.3,4.2-1.2
			c0.9-0.5,1.5-1.2,0.8-2.3c-1.8-2.8-3.7-5.7-5.5-8.5c-1.2-1.8-2.9-1.1-4.3-0.7c-1.9,0.5-0.9,2-0.7,3.2c0.3,1.9,0.8,3.8,0.9,5.7
			C97.9,246.3,99.7,247,102.5,247z M112.1,20.2c-0.8-1.2,1.6-4.1-1.9-4.2c-3.3-0.1-5.5,2-5.4,5.3c0,1.8-0.5,4.5,1.7,5
			c1.4,0.3,3.3-0.9,4.8-1.9C112.7,23.6,111.8,21.8,112.1,20.2z M74.7,166.4c-0.7-4.5-1.8-5.9-4.7-6.5c-2.3-0.4-3.1,0.9-3.6,2.8
			c-0.6,2.2,0.4,3,2.4,3C70.6,165.8,72.4,167,74.7,166.4z"/>
		<g>
			
				<linearGradient id="SVGID_1_" gradientUnits="userSpaceOnUse" x1="105" y1="-128" x2="105" y2="-452" gradientTransform="matrix(1 0 0 -1 0 -128)">
				<stop  offset="0" style="stop-color:#EB1A21"/>
				<stop  offset="1" style="stop-color:#A51A21"/>
			</linearGradient>
			<path class="st4" d="M210,324c-70,0-140,0-210,0C0,216,0,108,0,0c70,0,140,0,210,0C210,108,210,216,210,324z M199.9,162.6
				c0-46.5-0.2-87.6-0.2-134.1c0-9.4-3.5-18.1-13-18.1c-50.8,0-101-0.4-151.8-0.4c-4,0-8.3,0.5-12.3,0.7
				c-5.9,0.2-11.3,6.1-11.3,11.7c0,93.3-0.4,182.4-0.4,275.8c0,1.5,0.2,1.6,0.3,3.1c0.7,6.6,5,12.6,11.3,12.6
				c55.5,0,107.4,0.2,162.9,0.3c1.9,0,3.6-0.7,5.3-1.7c5.5-3,9.5-6,9.5-12.1C200.1,254,199.9,208.9,199.9,162.6z"/>
			<path d="M200.8,161.4c0.1-9.1,0-18.3,0.1-27.6c0.2-36.3,0.1-72.7,0-109c0-9.1-6.8-15.3-16-15.3c-52.8,0-105.7,0-158.5,0
				c-9.4,0-15.6,6.2-15.6,15.8c0,38.4,0.2,76.7,0.1,115.1c0,29.5-0.4,58.9-0.5,88.4c-0.1,23.5-0.1,47-0.1,70.4
				c0,8,6.5,15.3,13.7,15.3c54.3,0.1,108.6,0,162.9,0c2.2,0,4-0.5,5.9-1.8c5.1-3.5,8.1-7.9,8-14.4
				C200.7,252.7,200.8,207.1,200.8,161.4z M186.5,310.2c-3,0-3.7,0-3.7,0s-103.1,0-154.7,0c-8.3,0-13.1-4.5-13-14.9
				c0-22.8,0-45.6,0.1-68.4c0.1-28.6,0.5-57.2,0.5-85.9c0.1-37.3-0.2-75.1-0.1-112.3c0-7.9,2.5-14.8,12.6-14.8
				c50.2,0,105.1,0.2,155.3,0.2c8.7,0,13,5.3,12.6,14.1c0,35.2,0,106.5,0,106.5v27c0,0,0,91.6,0.1,135.9
				C196,304.4,191.2,309.6,186.5,310.2z"/>
		</g>
		<g>
			<path d="M92.6,106.5c-0.1-0.6,0.1-0.9,0.7-1c0.4,0,1.3,0.1,2.6,0.5c1.6,0.4,2.7,1,3.2,1.6c0.5,0.7,0.8,1.8,0.8,3.5v2.6l1.5-0.5
				c1-0.3,1.6-0.6,1.8-0.8c0.2-0.2,0.3-0.5,0.2-1c-0.1-1.1,0.8-1.4,2.8-0.7c0.4,0.1,0.8,0.3,1.4,0.5c1.7,0.7,2.8,1.3,3.2,1.7
				c0.4,0.5,0.4,1.1-0.1,2c-0.3,0.5-0.6,0.8-0.8,0.8c-0.2,0-0.7-0.1-1.5-0.4c-1-0.4-2-0.6-3-0.5s-2.2,0.4-3.6,1.1
				c-1.1,0.4-1.7,0.8-1.9,1c-0.2,0.3-0.3,0.7-0.2,1.3c0.1,1.8,0.2,2.8,0.4,3c0.1,0,0.5-0.1,1.3-0.4s1.3-0.9,1.5-1.8s0.4-1.4,0.6-1.5
				c0.3,0,1.4,0.3,3.2,1.1c1.8,0.8,2.8,1.4,3.2,1.7c0.5,0.4,0.8,0.8,0.8,1s-0.2,0.6-0.7,1.2l-1,1.4l-2-1.1c-0.9-0.4-1.6-0.6-1.9-0.6
				s-0.8,0.2-1.6,0.6c-1.1,0.6-1.9,1-2.5,1.3c-0.4,0.2-0.6,0.5-0.7,0.8s-0.2,1-0.2,2.2l0.1,2.4l1.4-0.3c1.1-0.2,2.2-0.6,3.4-1
				c1.3-0.5,4-1,8-1.8c0.1,0,0.1-0.5,0.1-1.4c-0.1-0.6,0-1.1,0.1-1.3c0.1-0.2,0.5-0.4,1-0.4c0.7-0.1,1.5,0.2,2.5,0.9
				c1,0.7,2,1.2,3,1.7c1,0.4,1.5,1,1.7,1.8c0.2,0.8-0.1,1.5-0.8,2.1c-0.7,0.4-1.3,0.4-2-0.2c-0.4-0.2-0.9-0.4-1.7-0.4
				c-0.8,0-2.2,0.1-4.3,0.3c-1.5,0.2-2.7,0.3-3.5,0.4c-0.8,0.1-1.4,0.2-1.8,0.3c-0.3,0.1-0.9,0.3-1.7,0.5c-0.8,0.2-1.6,0.5-2.4,0.8
				c-1.8,0.5-3,1.1-3.5,1.7c-0.6,0.6-1.2,0.8-1.9,0.5c-0.4-0.2-0.9-0.2-1.6-0.2c-0.6,0.1-1.4,0.2-2.2,0.5c-0.8,0.2-1.6,0.5-2.3,0.7
				c-0.7,0.2-1.5,0.5-2.4,0.8c-0.8,0.3-1.5,0.5-1.9,0.6c-0.9,0.3-2.1,1-3.5,2s-2.3,1.9-2.5,2.4c-0.2,0.4-0.6,0.7-1.2,0.7
				c-0.5,0.1-1.8-0.3-4-1.2c-2.2-0.8-3.3-1.4-3.3-1.8c-0.1-1.1,1.2-1.4,4-1c1.1,0.2,1.9,0.2,2.4,0c0.5-0.1,1.4-0.6,2.7-1.4
				c2.8-1.8,6.9-3.3,12.5-4.6c1.1-0.3,1.7-0.8,1.8-1.4c0.1-0.6,0.3-1,0.6-1c0.2,0,0.3-0.5,0.4-1.5s0-1.6-0.2-1.8
				c-0.4-0.3-1.7,0.1-3.9,1.2c-1.9,0.9-3.3,1.5-4.2,1.6c-0.9,0.2-1.5,0-2-0.5s-0.6-1-0.4-1.6c0.2-0.5,0.6-0.8,1.3-0.8
				c1.1,0,3.3-0.7,6.6-2.1l2.4-1.1l-0.2-2.2c-0.1-1.1-0.2-1.7-0.3-1.8c-0.1-0.1-0.4-0.1-0.9,0.1c-0.9,0.3-1.9,0.9-3.2,1.6
				c-1.3,0.8-2.1,1.4-2.4,1.8c-0.4,0.5-0.8,0.6-1.2,0.5c-0.4-0.2-1.3-0.9-2.8-2.1c-0.9-0.8-1.6-1.5-1.9-2.3c-0.4-0.8-0.4-1.3,0-1.7
				c0.4-0.3,0.7-0.2,0.7,0.1c0,0.4,0.3,0.5,0.8,0.5c0.5-0.1,1,0.1,1.3,0.4c0.6,0.5,2.9,0,6.9-1.5c1.5-0.6,2.5-1.2,2.8-1.6
				c0.3-0.5,0.4-1.5,0.2-3.1c-0.1-0.6-0.2-1.1-0.5-1.4c-0.2-0.4-0.8-0.8-1.6-1.2C93.6,107.8,92.7,107.1,92.6,106.5z M105.4,134.8
				c0.2-0.4,0.8-0.6,1.6-0.6c0.9,0,1.4,0.1,1.7,0.4c0.2,0.3,0.9,0.6,2.1,1.1c2.3,1,2.8,2.2,1.5,3.6c-0.4,0.4-0.4,2.3,0,5.8
				s0.7,7.4,1.1,11.6c0.4,4.2,0.5,7.1,0.1,8.6c-0.5,1.7-1,2.7-1.6,2.8c-0.5,0.2-1.6-0.3-3.1-1.4c-1.5-1.1-2.3-2-2.4-2.5
				c-0.1-0.7,0-1,0.2-1.1c0.2,0,0.8,0.1,1.7,0.5c1,0.4,1.5,0.5,1.7,0.2c0.9-1.1,0.3-8-1.6-20.8c-0.3-2.3-0.6-3.7-0.8-4.3
				c-0.2-0.5-0.5-0.9-1-1c-1.1-0.4-2.7,0-4.7,1.2c-0.3,0.2-0.5,0.3-0.5,0.4c0,0.1,0.2,0.3,0.6,0.7c0.5,0.7,0.6,1.4,0.4,2.3
				c-0.2,0.8-0.2,2.2,0,4.2s0.4,3,0.6,3.1c0.3,0.1,0.5-0.1,0.6-0.5c0.4-0.8,1.4-1,3.1-0.5s2.5,1.5,2.1,2.8c-0.1,0.4-0.4,0.7-0.8,1.1
				c-0.4,0.6-0.7,0.9-0.9,0.8c-0.2,0-0.6-0.2-1.2-0.6c-0.6-0.4-1.1-0.6-1.5-0.5c-0.4,0-1.5,0.4-3.3,0.9c-3,1-4.9,1.7-5.8,2.1
				c-0.9,0.4-1.4,0.8-1.6,1.1c-0.2,0.4-0.1,2.1,0.2,4.9c0.2,2.4,0.2,4,0,5s-0.8,1.4-1.6,1.4c-0.7-0.1-1.1-0.7-1.2-1.9
				c-0.4-4.1-0.6-10.4-0.7-18.9c0-2-0.1-3.3-0.2-4.1c-0.1-0.7-0.3-1.3-0.7-1.8c-1-1.3-1.1-2-0.1-2.2c0.6-0.2,1.4,0.1,2.5,0.9
				l1.5,1.1l-0.1,5c0,4.8,0,7.2,0.2,7.2c0,0,0.2,0.1,0.3,0c0.4-0.2,1.4-0.6,2.9-1.3s2.3-1.1,2.4-1.3s0.2-1.4,0.2-3.5s0-3.6,0.1-4.5
				c0.1-0.8-0.2-1.3-0.8-1.6c-0.6-0.3-1.5-0.3-2.5,0c-1,0.2-1.7,0.1-2.1-0.3c-0.5-0.5-0.5-1,0-1.6s1.2-0.9,2.1-1
				c0.8-0.1,2.4-0.6,4.9-1.6C103.7,135.7,105.1,135.1,105.4,134.8z"/>
		</g>
		<g>
			<path d="M107.7,199.9c0.2-0.5,0.4-0.7,0.8-0.8c0.3,0,0.6,0.1,0.9,0.5c0.2,0.2,0.9,0.4,2.1,0.5c1.2,0,2,0.2,2.3,0.6
				c0.4,0.4,0.6,1.2,0.8,2.4c0.1,1.1,0.3,1.7,0.6,1.6c0.1,0,0.2-0.3,0.3-0.7c0.2-1,1.2-1.3,3-1.1c1.9,0.4,2.9,1.2,3.1,2.4
				c0,0.4,0,0.8-0.3,1.3c-0.2,0.5-0.5,0.7-0.8,0.8s-0.9,0-1.8-0.1c-0.9-0.2-1.6-0.2-1.9-0.2c-0.4,0.1-0.8,0.4-1.4,0.9
				s-1,1.2-1.3,2.1c-0.3,1-0.4,1.9-0.3,2.7c0.1,0.4,0.6,0.9,1.5,1.3c1,0.4,2.3,1.3,4,2.5l2.7,1.9l-1.6,3.7l-2.7-2.6
				c-2.8-2.4-4.3-3.3-4.5-2.6c0,0.1-0.1,0.1-0.1,0.2c-0.4,3-1.3,6.2-2.7,9.5c-1.4,3.3-2.8,5.5-4.1,6.6c-1.2,0.9-1.8,1.1-1.7,0.4
				c-0.1-0.5,0.3-1.4,1.1-2.6c1.1-1.5,2.1-3.4,2.9-5.9c0.5-1.7,1-4.5,1.7-8.3c0.6-3.8,0.9-5.8,0.7-6c-0.1-0.1-0.7,0.3-1.6,1.1
				c-0.4,0.3-1.3,1-2.7,2c-1.4,1-2.4,1.9-3,2.5c-1.2,1-2,1.5-2.5,1.5s-1.3-0.5-2.4-1.6c-1.5-1.3-2-2.1-1.7-2.7
				c0.4-0.5,0.9-0.6,1.7-0.2c0.7,0.4,1.5,0.5,2.3,0.2c0.4-0.2,2.2-1.3,5.4-3.2c3.1-1.9,4.8-3,5-3.2c0,0,0.1-0.6,0.1-1.8
				s-0.2-2-0.7-2.4c-0.6-0.4-1-0.7-1.3-0.9s-0.6-0.5-1-0.8c-0.3-0.3-0.6-0.6-0.8-0.9C107.7,200.4,107.7,200.1,107.7,199.9z
				 M105,180.5c0.4-0.7,0.7-1,1-1s0.8,0.5,1.5,1.3c0.7,0.9,1.3,1.6,1.8,2.1c1,1.1,1.5,1.9,1.6,2.4s0,1.7-0.3,3.4
				c-0.1,0.7-0.2,1.2-0.3,1.7c-0.1,0.5-0.1,1-0.1,1.5c0.4-0.1,0.9-0.4,1.4-0.9s0.8-1.1,0.9-1.6c0.1-0.7,0.4-1.1,0.9-1.2
				c0.5-0.1,1.3,0.2,2.5,0.7s2,0.8,2.4,0.7s0.7,0.4,0.8,1.3c0.1,0.9,0,1.7-0.3,2.3c-0.3,0.5-0.6,0.8-0.8,0.8c-0.2,0-0.8-0.1-1.6-0.5
				c-0.8-0.4-1.4-0.6-1.8-0.5s-1.1,0.5-2.2,1.3c-3.3,2.1-4.9,3.4-4.8,4c0,0.4-0.7,1.8-2.1,4.1c-1.5,2.3-2.4,3.3-2.7,2.9
				c-0.5-0.3-0.5-0.7-0.2-1.1c0.9-1,1.9-3.5,3-7.6s1.6-7.1,1.5-9c0-1.2-0.1-2-0.2-2.4s-0.5-0.8-1-1.4c-0.8-0.6-1.3-1.2-1.5-1.8
				C104.3,181.6,104.5,181.1,105,180.5z M135.5,210.1c-0.1-0.6,0.2-0.9,0.7-0.9c0.5-0.1,1.5,0.2,2.9,0.9s2.2,1.1,2.4,1.4
				c0.1,0.5-0.1,1.6-0.8,3.3s-1.7,3.6-3,5.7c-1.3,2.5-2,3.7-2,3.8s1.5-0.1,4.5-0.5s4.4-0.8,4.4-1.2c-0.1-1,0.1-1.6,0.6-1.7
				c0.5-0.2,1.3,0,2.3,0.6c1.1,0.8,1.9,1,2.2,0.7c0.5-0.3,1.1,0.1,2,1s1.4,1.8,1.5,2.6s-0.1,1.5-0.7,2.1c-0.4,0.3-0.8,0.4-1.1,0.4
				c-0.3-0.1-0.9-0.4-1.7-0.9c-0.9-0.5-1.7-0.8-2.4-0.9c-0.7-0.1-2.5,0.1-5.5,0.4c-6.9,0.8-12.5,2.5-16.6,5.2
				c-2.2,1.2-3.8,1.9-4.8,2s-2.1-0.3-3.2-1.3c-0.9-0.7-1.2-1.3-0.9-1.7c0.2-0.5,1-0.7,2.2-0.6c1.1,0,2.9-0.5,5.5-1.6
				s4.1-1.6,4.4-1.7c2.1-0.6,3.5-1.4,4.3-2.4s2-3.8,3.8-8.4l1.3-2.9l-1.1-1.2C135.9,211.3,135.5,210.6,135.5,210.1z M136.2,192
				c0.8-0.6,1.4-0.9,1.9-0.9s1.2,0.4,2.2,1l1.8,1.3l-1.1,2.2c-0.7,1.4-1.1,2.3-1,2.6c0,0.4-0.3,2-1.1,4.8s-1.4,4.4-1.6,4.8
				c-0.4,0.5-0.9,0.6-1.6,0.3c-1-0.6-2.4-0.5-4.2,0.3s-3.2,1.8-4.1,3.1c-0.6,1-1.1,1.5-1.4,1.5c-0.4,0-0.8-0.4-1.3-1.3
				c-0.5-0.9-0.7-1.5-0.6-1.9c0.2-0.3-0.1-1.6-0.7-4c-0.6-2.3-1.4-3.8-2.1-4.5c-1.8-1.6-1.7-2.5,0-2.7c2-0.2,3.3,1.2,4,4.3
				c0.6,2.3,0.9,3.6,1.1,4.1s0.4,0.6,0.7,0.4c4.1-2.2,6.5-3.4,7.3-3.7c0.7-0.3,1.2-0.6,1.4-1c0.2-0.3,0.4-1.4,0.5-3.2
				c0.3-2.7,0.4-4.1,0.3-4.1c-0.1,0-0.2,0.1-0.5,0.3c-0.5,0.3-1.4,0.7-2.9,1.2s-2.7,1-3.6,1.7c-0.6,0.5-1.3,0.8-2,0.7
				s-1.1-0.5-1.2-1.2c-0.1-0.6,2.1-2,6.7-4C134.4,193.4,135.5,192.7,136.2,192z M132.8,181.5c0.1-0.8,0.4-1.1,1-1.2
				c0.5,0,1.6,0.2,3.3,0.8c1.4,0.6,2.3,1.2,2.8,1.7c0.4,0.5,0.5,1.2,0.2,2.1c-0.2,0.6-0.4,0.9-0.7,1s-1.1,0-2.4-0.2
				c-1.2-0.2-2.1-0.3-2.7-0.2s-1.6,0.4-3,1c-2,0.9-3.8,1.8-5.4,2.8c-1.2,0.6-1.9,1-2.3,1.1c-0.3,0.1-0.7-0.1-1.2-0.7
				c-0.7-0.5-1.1-1.3-1.2-2.2c-0.1-0.6-0.1-1,0.1-1.1c0.1-0.2,0.5-0.2,1.2-0.2c1.1,0.1,3.1-0.5,6-1.8
				C131.3,183,132.8,182,132.8,181.5z M124.6,215.6c-0.1-0.8,0-1.3,0.3-1.6s0.7-0.3,1.1,0s0.8,0.8,1.2,1.4c0.5,1.1,1.4,0.9,2.6-0.6
				c1.4-1.7,2.2-2,2.4-0.9c0.1,0.7-0.2,1.8-1,3.3s-1.2,2.6-1.1,3.3c0,0.6-0.1,1.3-0.4,1.9c-0.3,0.6-0.6,0.9-0.9,1
				c-0.2,0-1-1.1-2.2-3.4C125.4,217.7,124.7,216.2,124.6,215.6z"/>
		</g>
	</g>
	<g>
		<g>
			<path class="st0" d="M43.7,306c-4.5,0-8.5-0.9-11.8-2.8c-3.5-1.9-6-4.7-7.8-8.3c-1.7-3.5-2.5-7.5-2.5-12.2c0-2.7,0.3-5.5,0.9-8.5
				c0.6-2.8,1.6-5.8,2.7-8.6c0.2-0.5,0.5-0.9,0.6-1.4c0.2-0.5,0.5-0.9,0.6-1.4l14.9-30.4h19.5l-2.7,4.7c-4.5,8.2-9.4,17.1-12.2,22.4
				c4.1,0,7.7,0.9,10.7,2.8c3.1,1.9,5.5,4.7,7.1,8.2c1.6,3.5,2.2,7.4,2.2,12.1c0,4.9-0.9,8.9-2.5,12.4c-1.7,3.6-4.4,6.4-7.8,8.3
				C52.1,305.1,48.1,306,43.7,306z M43.4,276.2c-2,0-2.8,0.8-3.3,1.4c-0.9,1.3-1.4,3.1-1.4,5.6c0,2.2,0.5,3.6,1.3,4.5
				c0.3,0.3,1.3,1.3,3.6,1.3c2.5,0,3.5-0.9,3.8-1.3c0.9-0.9,1.3-2.5,1.3-4.5c0-2.5-0.5-4.4-1.4-5.6C46.6,277,45.7,276.2,43.4,276.2z
				"/>
			<path d="M55.4,235.4c0,0-15.8,28.4-14.7,28.4l0,0c1.4-0.8,3.1-1.3,5.2-1.3c3.6,0,6.6,0.8,9.1,2.4c2.5,1.6,4.5,3.8,5.8,6.9
				c1.3,3,2,6.6,2,10.8l0,0c0,4.2-0.8,8-2.2,11c-1.6,3.1-3.6,5.3-6.6,7.1c-2.8,1.6-6.3,2.4-10.4,2.4s-7.4-0.8-10.4-2.4
				c-2.8-1.6-5-3.9-6.6-6.9c-1.6-3-2.2-6.6-2.2-11l0,0c0-2.5,0.3-5,0.9-7.7c0.6-2.7,1.4-5.5,2.5-8.2c0.2-0.5,0.3-0.9,0.6-1.4
				c0.2-0.5,0.5-0.9,0.6-1.3l14.1-28.7h12.1 M43.7,292.4c2.7,0,4.5-0.8,6-2.4c1.4-1.6,2-3.8,2-6.7l0,0c0-3.3-0.8-5.8-2.2-7.5
				c-1.4-1.7-3.5-2.7-6.3-2.7c-2.5,0-4.4,0.9-5.8,2.7s-2,4.2-2,7.5l0,0c0,3,0.6,5.2,2,6.7C39,291.6,41,292.4,43.7,292.4 M55.4,229.1
				H43.2h-3.9l-1.7,3.5l-14.1,28.7c-0.2,0.5-0.5,0.9-0.8,1.6c-0.2,0.5-0.5,1.1-0.6,1.6c-1.3,3-2.2,6.1-2.8,9.1
				c-0.6,3.1-1.1,6.3-1.1,9.1c0,5.3,0.9,9.9,3,13.8c2,4.2,5.2,7.4,9.1,9.6c3.8,2,8.3,3.1,13.3,3.1s9.6-1.1,13.3-3.1
				c3.9-2.2,7.1-5.5,9.1-9.7c1.9-3.9,2.8-8.6,2.8-13.8s-0.8-9.6-2.5-13.3c-1.9-4.1-4.7-7.4-8.3-9.6c-2.2-1.4-4.7-2.4-7.4-2.8
				c2.8-5.2,6.4-11.9,10-18.2l5.2-9.3L55.4,229.1L55.4,229.1z M43.7,286.1c-0.5,0-1.1,0-1.4-0.3c-0.2-0.2-0.5-0.9-0.5-2.5
				c0-2.7,0.6-3.6,0.8-3.8c0-0.2,0.2-0.2,0.8-0.2c1.1,0,1.3,0.3,1.4,0.3c0.2,0.2,0.8,1.1,0.8,3.6c0,1.4-0.3,2.4-0.5,2.5
				C44.8,285.9,44.3,286.1,43.7,286.1L43.7,286.1z"/>
		</g>
	</g>
</g>
</svg>
