<?xml version="1.0" encoding="utf-8"?>
<!-- Generator: Adobe Illustrator 22.0.1, SVG Export Plug-In . SVG Version: 6.00 Build 0)  -->
<svg version="1.1" id="레이어_2_1_" xmlns="http://www.w3.org/2000/svg" xmlns:xlink="http://www.w3.org/1999/xlink" x="0px"
	 y="0px" viewBox="0 0 210 324" style="enable-background:new 0 0 210 324;" xml:space="preserve">
<style type="text/css">
	.st0{fill:#FFFFFF;}
	.st1{fill:#EB1A21;}
	.st2{fill:#FFC40A;}
	.st3{fill:url(#SVGID_1_);}
</style>
<g>
	<g>
		<path d="M208.8,192.5c-17.2-16.2-38.7-23.7-65.9-22.8c-6.2,0.2-11.1-0.8-16.1-3.3c-11.6-5.8-24.9-9.3-42.9-11.5
			c-24-2.9-49.8-2.9-81,0.3H2.5v165.3H209V192.7L208.8,192.5z"/>
		<path class="st0" d="M3,152.7C3,102.8,3,52.9,3,3c51.2,0,102.4,0,153.7,0c-1.3,7-4.7,13.1-9.1,18.6c-0.8,1-1.7,2.4-3.1,2
			c-3.9-1.3-7.6-1.4-11.3,0.7c-0.4,0.2-1,0-1.4-0.1c-2.5-0.5-4.9,0.1-7.2,0.8c-1.8,0.5-3.5,0.5-5.3,0.3c-5.6-0.7-10.7,0.3-14.9,4.3
			c-1.1,1.1-2.5,1.5-3.9,1.8c-7.2,1.7-12.6,6.6-18.7,10.2c-0.4,0.2-0.7,0.7-1.1,1c-0.6,0.6-1.1,1.3-0.9,2.1c0.3,1.2,1.4,1.3,2.3,1.3
			c4.6,0,9.1-0.1,13.7-0.2c4.6,0,9.1,0.2,13.6,1.2c4.3,0.9,4.6,1.8,2,5.2c-3.2,4.1-4.8,8.5-3,13.6c0.3,1,0.3,1.9-0.2,2.8
			c-2.3,4.3-1.9,8.3,0.6,12.4c-6.8-1.8-14,0.1-17.7,4.6c2,0.8,3.5-0.5,5.2-1c2.2-0.7,4.2-1.7,6.6-1.8c2.1-0.1,3.9,0.3,4.6,2.8
			c-3.4,1.2-7.4,0.8-10.5,3.7c2.9,0.7,5.4-1.6,7.9-0.3c-0.1,1.1-0.8,1.5-1.6,1.7c-4.7,1.2-9.5,2.3-13.5,5.4
			c-1.1,0.9-2.2,0.3-2.7-0.9c-3-7-9.2-10.3-15.5-13.5c-1.2-0.6-3.2-2.1-3.9-0.8c-1.2,2.2,1.7,2,2.8,3c0.1,0.1,0.3,0.1,0.4,0.2
			c1.8,1.2,1.9,2.1,0.2,3.3c-3.2,2.5-7.1,3.1-11,3.5c-5.2,0.4-10.4-0.2-15.5-1.3c-2.6-0.5-4.4-0.1-6,1.9c-2.6,3.2-6.2,4.7-9.9,6
			c-2.7,1-5.5,1-7.7-1.4c-1.8-2.1-2-5.5-0.4-8.3c1.2-2.1,3-3.4,5.2-4.1c2.3-0.8,4.8-1.1,7.2-1c9,0.5,17-2.3,24.4-7.3
			c2.2-1.5,4.9-2.6,6.5-5.1c2.4-3.7,5.9-6.1,10.1-7.2c3-0.7,4.9-2.2,5.4-5.4c0.2-1.6,0.8-3.5,2.9-3.3c1.8,0.2,0.7,2.2,1.3,3.3
			c0.1,0.2,0.4,0.4,0.8,0.8c1.3-1.4,0.6-3.5,1.5-5c1-1.7,2.3-2.2,4.1-1.6c2,0.6,2.4,1.9,1.7,3.8c-0.4,1.1-1.5,2.2-0.6,3.7
			c1.6-1,1.8-2.7,2.6-4.1c0.7-1.3,1.2-2.7,1.9-3.9c0.6-1,1.4-1.9,2.8-1.6c1.4,0.3,1.5,1.6,1.7,2.7c1.3,6.4-3.9,13.5-10.5,14.5
			c-3.8,0.6-7.3,1.8-10.5,3.8c-0.9,0.6-2.1,1-1.9,2.7c1.5,0.8,2.7-0.4,3.9-1c2.6-1.4,5.3-2.6,8.3-2.8c3.8-0.3,7.4,0.2,9.7,4.3
			c-3,0.7-5.7,1.1-8.3,2c-2.5,0.8-5.6,0.8-7.4,4c2.9,0.6,4.9-0.8,7-1.3c3.3-0.9,6.6-1.8,10.1-1.4c1.6,0.2,6.3,5.4,7.2,4
			c1.6-2.2-5-5.2-5.4-6.7c-0.6-2.1-1.5-4-3.4-5.1c-2.5-1.4-2.2-2.7-0.4-4.5c3.3-3.3,4.7-7.4,4.3-12c-0.4-5.1-3.5-6.6-7.6-3.5
			c-1.5,1.1-2.6,1.4-4.4,0.9c-3.9-1.3-7.3,1-10.8,2.1c-1.1,0.4-2.1,1.4-2.2,2.5c-0.4,4.6-3.7,5.9-7.4,7.1c-1.7,0.5-3.3,1.6-4.6,2.8
			c-1.8,1.6-3.2,1.8-4.9-0.1c-4.3-4.7-9.7-5.6-15.7-4.8c-2.1,0.3-4.2,0.3-6.3-0.3c-3.5-0.9-7.1-1-10.7-0.5c-4.2,0.6-8.4,1-12.6,0.7
			c-3.2-0.2-6.2,0.6-8.7,2.7c-2.2,1.8-2,3.2,0.6,4.2C8,67,8.8,67.2,9.6,67.4c7.9,2.3,15.4,5.4,22.6,9.2c1.2,0.6,2.8,1,3.5,2.7
			c-1.9,1.7-4.3,1.1-6.5,1.3c-7.7,0.9-11.4,4.1-12.7,11.8c-0.3,1.7-0.8,3-2,4.3c-3,3.2-3,7.1-2.4,11c0.3,2,1.6,2.5,3.1,1.1
			c1.9-1.8,3.6-3.8,5.3-5.8c1-1.1,2-2.1,3.7-2.1c6.1,0.1,11-2.8,15.3-6.7c1.8-1.6,3.5-2,5.8-1.6c4.8,0.8,9.7,1.4,14.6,1.1
			c4.3-0.3,8.4-1.1,12.1-3.5c4.6-3,4.9-3,8.8,0.8c1,1,2,2.2,2.8,3.4c1.7,2.7,1.4,3.3-1.3,4.9c-4.4,2.6-9.3,3.8-13.8,6.2
			c-1.1,0.6-2.7,1.2-2.3,2.7c0.5,1.8,2.1,1,3.3,0.7c1.1-0.2,2.2-0.5,3.4-0.6c2.9-0.3,5.9-0.3,8.7,0.8c3,1.2,3.3,1.7,1.8,4.6
			c-0.9,1.8-1.7,3.5-1.9,5.5c-0.3,2.4-1,4.7-2.5,6.8c-1.6,2.2-1.8,4.9-1.4,7.5c0.4,2.5,1.6,3.1,3.7,1.7c1.7-1.2,3.3-2.7,4.8-4.2
			c1.4-1.4,3-2.4,5.1-2.5c5-0.2,9.6-1.9,13.7-4.8c5.8-4.2,12.1-6.6,19.5-6.5c4.8,0.1,9.4-1.3,12.5-5.5c1.2-1.6,2.4-1.3,3.8-0.4
			c3.1,2,5.3,4.7,7.4,7.7c5.4,7.9,12.6,12.3,22.4,11.1c7.2-0.8,14,0.1,19.9,4.6c1,0.8,2.3,1.7,3.6,0.8c1.4-1,0.9-2.7,0.5-4.1
			c-0.3-0.9-0.6-2.1-1.3-2.6c-5.1-3.7-8.6-9.3-13.8-12.8c-2.2-1.5-3.8-2.8-4.2-5.5c-0.2-1.5-1.1-2.7-2.3-3.7
			c-3.6-3-5.6-7.4-10.4-9.3c-2.8-1.1-2.3-3.1,0.8-4.4c3.8-1.6,6.7-4.2,7.7-8.2c1.1-4.4,0.9-9,2.5-13.4c0.5-1.4,0-2.9-0.9-4.2
			c-0.6-1-1.6-2.4-2.5-2c-3,1.4-6.5-0.1-9.3,1.8c-1.4,0.9-3,1.2-4.6,1.6c-5.8,1.2-10.7,4-13.9,9.1c-1.3,2-2.9,3-5.1,3.3
			c-4.7,0.8-9.2,2.3-13.4,4.6c-1.4,0.7-2.7,1-4.2,0.8c-2.1-0.3-4.2-0.4-6.3,0.1c-1.6,0.3-2.4-0.3-3-1.7c-0.5-1.2-1.3-2.3-1.2-3.6
			c2.5-0.4,3.2-2.5,4.4-4.2c1.6-2.4,2.7-5.5,5.6-6.6c4.8-1.9,7.4-5.6,9.2-10.2c1.7-4.4,5.1-7,9.8-7.9c5-1,9.8-2.7,13.6-6.2
			c1.6-1.5,3.2-1.5,4.9-0.4c1.7,1,3.4,2,4.9,3.2c7,5.8,12.3,13.1,16,21.3c2.7,6,8.8,9.2,15.2,7.6c3.8-1,4.4-2.4,2.3-6
			c-1-1.7-2.5-3-3-5c-2.1-7.9-7.2-14.5-10.7-21.8c-2.3-4.7-4.4-9.7-7.5-14.1c0.5-0.5,0.7-1,1.1-1.2c5.6-2.7,7.7-7.2,6.7-13.2
			c-0.2-1-0.5-2.1,0.1-2.9c2.5-3.6,1.2-7.2-0.1-10.7c9.1,0,18.3,0,27.4,0c0,62,0,124,0,185.9c-1.3-0.4-2.2-1.4-3.2-2.2
			c-10.4-8.6-22.3-14-35.4-16.9c-10.1-2.2-20.3-2.6-30.6-2.1c-3,0.1-5.7-0.3-8.4-1.8c-9.2-4.8-18.9-7.9-29-10.1
			c-25.5-5.6-51.4-5.7-77.4-4.5C17.3,151.8,10.1,152.3,3,152.7z"/>
		<g>
			<path class="st1" d="M192,130.4c-1.9-3.1-5.1-4.7-8.2-6c-4.7-1.9-9.6-2.9-13.9-3.6c-0.3,0-0.6-0.1-0.9-0.1
				c-0.4,0-1.4-0.1-1.6-0.3c0,0,0-0.1,0-0.3c0-0.1,0.1-0.2,0.1-0.2c0.2-0.1,1.1,0.1,1.6,0.2c0.4,0.1,0.7,0.2,1.1,0.2
				c2.3,0.3,4.5,0.8,7.1,1.2c1.1,0.2,2.3,0.4,3.6,0.7l2.6,0.5l-1.6-2.1c-2.7-3.5-5.6-4.5-8.1-5.4c-4.9-1.7-10.3-2.7-17.5-3.1
				c-0.3,0-0.5,0-0.8,0c-1,0-1.8-0.1-2.4-0.4c0.7-0.2,1.5-0.1,2.3-0.1c0.3,0,0.6,0,0.9,0.1c5,0.2,9.8,1,13.4,1.8
				c0.8,0.2,2.4,0.5,3.2-0.8c1.1-1.6-0.1-3.1-0.6-3.8c-1.9-2.5-4.6-3.4-6.8-3.9c-4.2-1-8.6-1.3-13.4-0.9c-0.4,0-0.7,0.1-1.1,0.1
				c-0.9,0.1-1.7,0.3-2.4,0c2.7-0.8,5.5-0.7,8.5-0.7c2.5,0.1,5.1,0.1,7.8-0.3l2.5-0.4l-2.1-1.4c-3.5-2.3-6.2-2.7-8.6-2.9
				c-4.9-0.3-9-0.1-12.9,0.6h-0.2c-0.7,0.1-1.1,0.2-1.4,0c2.4-1,5-1,7.8-1.1c2.2-0.1,4.4-0.1,6.6-0.7l1.5-0.3l-0.9-1.2
				c-1.9-2.6-4.4-2.8-6.4-3h-0.2c-2.9-0.3-6-0.1-9.5,0.6c-0.2,0-0.3,0.1-0.5,0.1c-0.7,0.2-1.2,0.3-1.7,0.1c5.1-1.8,10-2,14.8-0.7
				c5.9,1.7,10-1.2,13.6-4.2c2.1-1.7,3-4.1,2.4-6.6l-0.2-0.9l-0.9,0.1c-1.4,0.1-2.3,1-3.1,1.7c-0.5,0.5-1,0.9-1.5,1.1
				c0.7-1,1.6-2,2.5-3c2.9-3.2,6.1-6.8,5.3-12.7l-0.2-1.6l-1.3,0.9c-2.8,1.9-4.9,4.3-6.8,6.6c-1.3,1.5-2.5,3-3.9,4.2
				c0.7-1,1.5-2,2.3-3c1.6-2,3.3-4,4.4-6.8l0.6-1.7l-1.8,0.3c-6.1,1.1-8.9,5.4-11.6,9.5c-0.5,0.8-1,1.5-1.5,2.3
				c0.3-0.9,0.7-1.8,1.2-2.6c0.6-1.1,1.2-2.3,1.4-3.7l0.1-1.3l-1.3,0.2c-4.8,0.8-7.8,2.8-9.9,6.9c-1.2,2.3-2.6,3.3-5.7,3.7
				c-12.2,1.9-21.5,8-27.6,18.1c-1.7,2.9-3.7,4.1-6.9,4.5c-6.4,0.7-11.4,2.6-15.4,5.9c-4.1,3.4-5.8,8.6-3.9,12
				c2,3.6,6.8,4.8,12.1,3.1c0.6-0.2,1.2-0.4,1.7-0.6l0.6-0.3c4.3-1.7,8.5-4.1,12.9-7.4c1.7-1.3,3.2-1.7,5.2-1.6
				c4,0.3,8.2-0.1,12.4-1.2c1.6-0.4,3.6-1.1,5.2-2.5c0.8-0.7,1.8-1.8,1.6-3.1c-0.2-1.3-1.5-2-2.4-2.5c-0.4-0.2-0.9-0.3-1.3-0.4
				c-0.6-0.1-1.1-0.3-1.3-0.5c0.7-0.2,1.4,0,2.4,0.3c0.2,0.1,0.4,0.1,0.6,0.2c5.7,1.7,10.4,4.8,13.9,9.3l1.1,1.4
				c1.2,1.6,2.5,3.2,3.8,4.7c3.7,4.4,8.5,6.8,14.4,6.9c1.9,0.1,3.8-0.1,5.5-0.3c6.1-0.6,11.3,0.4,15.9,3.1c0.1,0.1,0.2,0.1,0.3,0.2
				c0.3,0.2,1,0.7,1.7,0.7c0.6,0,1.2-0.3,1.9-1.1l0.5-0.6L192,130.4z"/>
			<path class="st1" d="M83.6,108.3c1.8,0.8,3.1,1.2,4.2,1.2c1.7,0,3-1,5.5-3.4l0.8-0.8l-0.8-0.7c-4.4-3.8-10.4-3.9-16.2-0.2
				l-1.8,1.1l2,0.7c0.7,0.2,1.4,0.5,2.1,0.7C80.8,107.4,82.2,107.8,83.6,108.3z"/>
			<path class="st1" d="M92.6,102.9c1.3,1.2,2.7,2.5,4.7,2.5c0.3,0,0.5,0,0.8,0c2.5,0,5.2-0.3,7.8-2.4l1.1-0.9l-1.2-0.7
				c-5.6-3.3-10.6-4-15.7-2.3l-2.4,0.8L90,101C90.9,101.4,91.7,102.2,92.6,102.9z"/>
			<path class="st1" d="M105.8,100.6c0.4,0.2,0.8,0.2,1.2,0.2c0.6,0,1.3-0.2,2-0.6c1.4-0.8,2.4-2.3,2.6-3.8c0.1-0.9-0.1-1.7-0.5-2.3
				c-0.8-1.1-2.3-1.3-3.2-1.4c-2.8-0.4-7-0.5-10.9,2.5l-1.4,1.1l1.6,0.7C100,98.1,102.7,99.3,105.8,100.6z"/>
			<path class="st1" d="M82.8,124.9L82.8,124.9c-0.7,0-1.3,0.3-1.9,0.8c-1.2,1.2-2.7,3.2-1.6,6.6l0.3,1.2l1.1-0.6
				c1.9-1,3.3-2.1,4.5-3.7c0.8-1.1,0.7-2.4-0.3-3.5C84.3,125.2,83.6,124.9,82.8,124.9z"/>
			<path class="st1" d="M113.5,93.6c1.3,0,2.2-1.1,4-3.7l0.8-1.1l-1.2-0.4c-3.4-1.2-5.8,0.3-7.5,1.7l-1,0.9l1.1,0.7
				C111.4,92.9,112.6,93.6,113.5,93.6z"/>
		</g>
		<g>
			<path class="st2" d="M192.2,71.3L192,71c-2.3-3-5.1-5.6-8.6-7.7c-0.3-0.2-0.6-0.3-1-0.5c-0.7-0.3-1.1-0.5-1.4-0.9
				c0.7,0,1.4,0.3,2.3,0.8c1,0.5,2.2,1.1,3.6,1.2h1.4l-0.4-1.3c-2.3-7.5-8.2-10.2-14.5-13c1.1,0.1,2.1,0.5,3.2,0.9
				c1.1,0.4,2.3,0.9,3.6,1l1.1,0.1l-0.1-1.1c-0.2-3.9-2.5-6.2-4.7-8.5l-0.2-0.2c-1.6-1.6-3.5-2-5.4-2.4c-0.8-0.2-1.6-0.3-2.4-0.6
				c0.5-0.2,1.1-0.2,1.9-0.1c1.1,0.1,2.3,0.1,3.5-0.6l0.6-0.4l-0.2-0.7c-1.3-5.1-5.5-6.9-9.4-8.6c-0.9-0.4-1.8-0.8-2.8-1.2
				c7.5-1.9,13.1-6.5,17.5-14.2c1.2-2,2.2-4.8-0.4-8.2l-1-1.4L177.5,5c-2.9,6.6-7.4,11.2-13.7,14l-0.3,0.1c-0.5,0.2-0.8,0.4-1.1,0.3
				c1.1-1,2.4-1.7,3.7-2.4c1.7-0.9,3.4-1.8,4.8-3.3c2.5-2.7,5.3-5.9,6.3-10.3l0.3-1.2h-9.7l-0.3,0.5c-0.6,1-1.1,2.1-1.7,3.1
				c-1.4,2.8-2.9,5.6-4.8,8.1c0.7-1.9,1.7-3.6,2.7-5.2s2-3.3,2.7-5.2l0.5-1.3h-8.1l-0.2,0.7c-3.9,14.6-12.3,25.7-25.1,33l-0.3,0.2
				c-3.8,2.2-7.8,4.4-11.4,7.2c-3.2,2.5-10,11.2-11.6,14.8c-2,4.7-1.4,7.7,1.8,9.9c3,2,8.5,1,11.1-2.2c0.9-1,1.6-2.3,2.1-3.7
				c2.5-6.9,6.6-10.5,13.1-11.3c2.6-0.3,5.3-1.3,8.1-3c0.1-0.1,0.3-0.2,0.4-0.2c1-0.6,2.5-1.3,2.5-3.2v-0.2l-0.1-0.2
				c-0.5-1.4-1.7-1.6-2.4-1.7c-0.1,0-0.2,0-0.4-0.1c-0.2,0-0.4-0.1-0.6-0.1c-0.2,0-0.5-0.1-0.6-0.1v-0.1c0.1-0.1,0.8-0.1,1.2-0.1
				h0.3c3.5,0.1,7,1.2,10.6,3.3c4.9,2.8,9.3,7,13.8,13.1c3.3,4.4,6,9.2,8.4,13.6c1.9,3.5,5,5.3,9.1,5.3c0.1,0,0.1,0,0.2,0h0.1
				c1.1,0,2.9,0,3.8-1.6C193.9,73.4,192.9,72.1,192.2,71.3z"/>
			<path class="st2" d="M96.4,37.2c0.4,0.3,0.7,0.5,1.2,0.5c8,0.1,15.9,0.9,23.6,2.4c0.6,0.1,1.2,0.2,1.9,0.2c0.8,0,1.7-0.2,2.6-0.7
				c1.5-0.9,2.9-1.7,4.4-2.5c2.2-1.3,4.4-2.5,6.6-3.8c0.5-0.3,2.1-1.2,1.5-3.1c-0.4-1.4-1.7-2.6-3.6-3.3c-2.6-1-5.4-0.8-7.2,0.3
				l-1.1,0.7l1.9,1.7c0.8,0.7,1.6,1.3,2.3,2c-0.8-0.4-1.6-0.8-2.5-1.3c-3.2-1.9-6.3-3.1-9.5-3.5c-3-0.4-6.4-0.4-10.1,2.3l-1.8,1.3
				l2.2,0.4c1,0.2,1.9,0.4,2.9,0.5c4.6,0.8,8.6,1.6,12.2,3.9c-0.6,0-1.2-0.3-1.8-0.6c-0.3-0.1-0.6-0.3-0.8-0.4
				c-5.3-2.1-10.6-2.9-15.8-2.3c-3.9,0.4-6.9,1.3-9.7,3l-1.5,0.9l1.5,0.9C96,36.9,96.3,37.1,96.4,37.2z"/>
			<path class="st2" d="M111.7,46.2c1.6,0.4,2.7,0.7,3.6,0.7c2,0,3-1.3,5.4-4.9l0.9-1.3l-1.5-0.3c-8.9-1.7-15.9-2.3-22.5-2
				c-2.9,0.1-6.2,0.4-9.4,1.6c-0.1,0-0.3,0.1-0.4,0.1c-0.9,0.3-2.6,0.8-2.5,3.4v1h4c2.2,0,4.4,0,6.6,0c4.8,0,10.4,0.2,15.7,1.6
				L111.7,46.2z"/>
			<path class="st2" d="M177.5,17.5c-2.8,2.9-5.4,5-8.2,7.2c-0.7,0.6-1.4,1.1-2.1,1.7l-1.1,0.9l1.2,0.8c1.2,0.8,2.4,1.1,3.4,1.1
				c1.9,0,3.5-1,4.8-1.8c0.2-0.1,0.4-0.3,0.6-0.4c3.1-1.9,4.1-4.8,3.2-8.9l-0.4-1.8L177.5,17.5z"/>
			<path class="st2" d="M113.2,69.2c-1.4-0.8-2.9-0.4-3.8,1c-1,1.5-1.9,3.6-0.3,6.5l0.5,1l0.9-0.7c1.7-1.2,2.5-2.7,3.2-3.9l0.2-0.4
				C114.7,71.2,114.4,69.9,113.2,69.2z"/>
			<path class="st2" d="M57.6,64.9c-0.3-0.2-0.6-0.5-0.8-0.7c-0.6-0.5-1.2-1.1-2-1.5c-1.9-1.1-4.5-2.2-8-0.6l-1.2,0.5l1.9,2.3
				c0.7,0.9,1.4,1.6,2,2.4c0.2,0.2,0.2,0.3,0.2,0.4c0,0-0.1,0-0.5-0.3s-0.8-0.7-1.2-1c-0.6-0.5-1.2-1.1-1.9-1.5
				c-5.5-3.8-11.2-5.1-17.8-4l-2.1,0.3l1.6,1.4c1.7,1.5,3.4,2.3,4.8,3.1c0.8,0.4,1.6,0.8,2.3,1.3c0.5,0.4,1.1,0.6,1.6,0.9
				c1,0.5,1.9,1,2.5,1.8c-0.9-0.3-1.7-0.7-2.4-1.2c-0.3-0.2-0.5-0.3-0.8-0.4c-4.5-2.5-9.5-5.1-15.1-6.2c-4-0.8-7.9-1.3-11.6,1.7
				l-1.4,1.1l1.7,0.6c10.3,3.5,20.4,8.1,31,14c1,0.6,2,0.8,3,0.8c1.3,0,2.5-0.4,3.5-0.8c3.3-1.3,6.6-3,10.1-5.4
				c2.6-1.8,4.1-2.9,4.2-4.4C61.4,68,60,66.8,57.6,64.9z"/>
			<path class="st2" d="M19,97.5c-1.3-1-2.8-0.6-3.8,0.8c-1.2,1.6-2.2,3.5-1.2,6.4l0.3,1l1-0.3c2.3-0.7,3.4-2.4,4.4-3.8l0.1-0.1
				C20.5,100,20.3,98.4,19,97.5z"/>
		</g>
		<polygon class="st2" points="108.7,82.5 107.4,81 106.6,78.9 101.3,75.2 101.5,73.1 98.9,70 95.1,68 95.1,67.6 97.7,65 
			100.8,61.2 101.8,55 101.4,49.5 98.5,47.7 95.3,49.1 92.6,50.8 91.4,50.8 87.4,50.1 83.6,51.3 78.8,53.7 78.5,55.6 77.2,57.3 
			76.3,59.3 73.8,61.4 69.4,62.9 65.9,65.7 62,66.5 53.7,60.5 43.1,60.5 38.5,59.5 33.8,59.1 26.1,59.8 18.5,60.5 14.6,60.2 
			10.1,60.6 11.7,67.9 22.9,71.9 34.5,77.5 37.1,80 35.4,80.6 28.6,81.3 23.2,82.3 19.1,85.9 17,90.4 16,94.5 13.8,97.4 11.6,101.6 
			12.2,107.5 15,107.5 17.6,105.2 20.9,102 23.5,100.2 27.8,100.2 32.5,98.9 37.3,95.9 41.1,92.9 42.7,92.3 46.9,93 53.6,93.6 
			60.3,93.6 65.8,92.4 71.4,89.9 74.2,87.4 77.6,88.2 80.3,90.6 83,93.2 84.6,96.4 86.3,99.1 91.6,99.3 95.1,96.2 100.6,94.1 
			105.6,92.9 108.8,90.9 108.8,87.9 110.4,85.8 		"/>
		<path d="M159.6,3c-3.9,14.7-12.3,26-25.5,33.6c-4,2.3-7.9,4.5-11.6,7.3c-3.2,2.4-9.8,10.9-11.2,14.4c-1.8,4.2-1.3,6.8,1.4,8.7
			c2.5,1.7,7.4,0.7,9.8-2c0.8-1,1.5-2.2,1.9-3.4c2.4-6.6,6.6-11,13.9-12c2.7-0.4,5.3-1.5,7.8-2.9c1.1-0.6,2.4-1.1,2.5-2.6
			c-0.4-1-1.3-1-2-1.1c-0.9-0.2-2.3-0.1-2-1.5c0.2-1.2,1.6-1,2.5-0.9c4,0.1,7.7,1.4,11.1,3.4c5.8,3.3,10.2,8.1,14.1,13.4
			c3.2,4.3,5.9,9,8.4,13.7c1.9,3.4,4.7,4.8,8.4,4.7c1.1,0,2.4,0,3.1-1.1c0.7-1.2-0.3-2.2-0.9-3c-2.3-3-5.1-5.5-8.4-7.4
			c-1.2-0.7-2.9-0.9-3.1-2.9c2.7-1.3,4.4,1.6,7.2,1.6c-2.4-8.1-9.6-10.4-16.7-13.7c4.3-1.9,6.8,1,10.1,1.2c-0.2-3.6-2.5-5.8-4.7-8
			c-2.4-2.4-6.1-1.7-8.9-3.5c1.8-2.7,4.5-0.5,6.7-1.8c-1.8-6.7-8.7-7.1-14-10.5c9.6-1.6,15.3-7,19.5-14.3c1.1-1.9,1.9-4.2-0.3-7.1
			c-3,7-7.8,11.7-14.3,14.5c-1,0.4-2.1,1.2-3.3-0.3c2.5-3,6.7-3.7,9.3-6.5c2.7-2.9,5.1-5.9,6-9.9c1.6,0,3.3,0,4.9,0
			c1.3,3.6,2.6,7.1,0.1,10.7c-0.6,0.8-0.3,1.9-0.1,2.9c1.1,6.1-1,10.5-6.7,13.2c-0.4,0.2-0.7,0.7-1.1,1.2c3.1,4.4,5.2,9.4,7.5,14.1
			c3.5,7.3,8.5,13.9,10.7,21.8c0.5,2,2.1,3.3,3,5c2,3.6,1.5,5-2.3,6c-6.4,1.6-12.4-1.5-15.2-7.6c-3.7-8.3-9-15.5-16-21.3
			c-1.5-1.2-3.2-2.2-4.9-3.2c-1.7-1.1-3.3-1.1-4.9,0.4c-3.8,3.6-8.6,5.3-13.6,6.2c-4.8,0.9-8.1,3.5-9.8,7.9
			c-1.8,4.6-4.3,8.2-9.2,10.2c-2.9,1.1-4,4.2-5.6,6.6c-1.2,1.7-1.9,3.9-4.4,4.2l0,0c-2.4-4.1-2.8-8.1-0.6-12.4
			c0.5-0.9,0.5-1.8,0.2-2.8c-1.7-5.2-0.1-9.5,3-13.6c2.6-3.4,2.3-4.4-2-5.2c-4.5-0.9-9-1.2-13.6-1.2s-9.1,0.1-13.7,0.2
			c-1,0-2-0.1-2.3-1.3c-0.2-0.9,0.4-1.5,0.9-2.1c0.3-0.4,0.6-0.8,1.1-1c6.1-3.6,11.5-8.6,18.7-10.2c1.4-0.3,2.8-0.7,3.9-1.8
			c4.2-4.1,9.3-5.1,14.9-4.3c1.8,0.2,3.5,0.3,5.3-0.3c2.3-0.7,4.7-1.3,7.2-0.8c0.5,0.1,1.1,0.3,1.4,0.1c3.7-2.1,7.4-2,11.3-0.7
			c1.4,0.5,2.3-1,3.1-2c4.4-5.5,7.8-11.6,9.1-18.6C157.6,3,158.6,3,159.6,3z M109,29.9c6.3,1.3,12.1,1.7,17.2,5.9
			c-2.5,1.3-3.9,0.1-5.3-0.5c-4.9-1.9-10-2.8-15.3-2.3c-3.2,0.3-6.2,1-9.3,2.8c0.8,0.5,1.1,0.8,1.4,0.8c8,0.1,15.9,0.9,23.8,2.4
			c1.3,0.2,2.6,0.4,3.8-0.3c3.7-2.1,7.4-4.2,11-6.4c0.7-0.4,1.4-0.9,1.1-2c-0.8-2.7-6.5-4.2-9.4-2.4c1.2,1.1,2.5,2.1,3.7,3.2
			c0.2,0.2,0.2,0.6,0.1,0.9c-0.2,0.5-0.7,0.8-1.1,0.6c-1-0.5-2-1-3-1.6c-2.8-1.7-5.9-2.9-9.1-3.3C115.4,27.4,112.4,27.5,109,29.9z
			 M119.9,41.4c-7.7-1.5-15-2.4-22.3-2c-3.1,0.2-6.2,0.4-9.1,1.5c-1,0.4-2.3,0.4-2.3,2.5c3.2,0,6.4,0,9.6,0c5.4,0,10.7,0.3,16,1.7
			C116.4,46.4,116.4,46.5,119.9,41.4z M178.2,18.2c-3.5,3.7-6.9,6.1-10.5,9c3.3,2.1,5.6,0.2,7.7-1.1C178,24.6,179.2,22.2,178.2,18.2
			z M109.9,76.2c1.7-1.2,2.4-2.7,3.1-4c0.4-0.8,0.5-1.6-0.4-2.1c-1-0.6-1.9-0.2-2.5,0.7C109.2,72.3,108.7,73.9,109.9,76.2z"/>
		<path d="M3,152.7c7.1-0.4,14.3-0.9,21.4-1.3c25.9-1.2,51.8-1.1,77.4,4.5c10.1,2.2,19.9,5.3,29,10.1c2.7,1.4,5.4,1.9,8.4,1.8
			c10.3-0.5,20.5-0.1,30.6,2.1c13.1,2.9,25,8.2,35.4,16.9c1,0.8,1.9,1.8,3.2,2.2c0,1.3,0,2.6,0,3.9c-18.4-17.4-40.8-23.5-65.5-22.7
			c-5.8,0.2-11-0.7-16.3-3.3c-13.4-6.6-28-9.6-42.7-11.5c-27-3.3-53.9-2.4-80.9,0.3C3,154.7,3,153.7,3,152.7z"/>
		<path d="M168.4,3c-2.2,4-4,8.2-6.9,11.8c-0.2,0.3-0.8,0.3-2.1,0.8c1.2-5,4.5-8.4,6-12.5C166.4,3,167.4,3,168.4,3z"/>
		<path d="M108.7,81.6c0.5,1,0.8,2.1,1.3,3.3c0.5,1.4,1.4,2.1,3,1.7c2.1-0.4,4.2-0.4,6.3-0.1c1.5,0.2,2.9-0.1,4.2-0.8
			c4.2-2.2,8.7-3.8,13.4-4.6c2.2-0.4,3.8-1.4,5.1-3.3c3.2-5.1,8.1-7.9,13.9-9.1c1.6-0.3,3.2-0.7,4.6-1.6c2.9-1.9,6.3-0.3,9.3-1.8
			c0.9-0.4,1.9,1,2.5,2c0.8,1.3,1.3,2.8,0.9,4.2c-1.5,4.4-1.4,9-2.5,13.4c-1,4.1-3.9,6.6-7.7,8.2c-3.1,1.3-3.6,3.4-0.8,4.4
			c4.8,1.8,6.9,6.3,10.4,9.3c1.1,1,2.1,2.2,2.3,3.7c0.4,2.7,2.1,4,4.2,5.5c5.2,3.5,8.7,9.1,13.8,12.8c0.7,0.5,1.1,1.6,1.3,2.6
			c0.4,1.4,0.9,3-0.5,4.1c-1.3,0.9-2.6,0-3.6-0.8c-6-4.5-12.7-5.4-19.9-4.6c-9.8,1.1-17-3.3-22.4-11.1c-2-3-4.3-5.7-7.4-7.7
			c-1.4-0.9-2.6-1.2-3.8,0.4c-3.1,4.2-7.8,5.6-12.5,5.5c-7.4-0.1-13.6,2.2-19.5,6.5c-4,2.9-8.7,4.6-13.7,4.8c-2.1,0.1-3.7,1-5.1,2.5
			c-1.5,1.5-3.1,3-4.8,4.2c-2,1.5-3.3,0.9-3.7-1.7c-0.4-2.6-0.3-5.3,1.4-7.5c1.5-2.1,2.2-4.3,2.5-6.8c0.3-2,1-3.7,1.9-5.5
			c1.5-2.9,1.2-3.4-1.8-4.6c-2.8-1.1-5.7-1.1-8.7-0.8c-1.1,0.1-2.2,0.4-3.4,0.6c-1.2,0.2-2.8,1.1-3.3-0.7c-0.4-1.6,1.1-2.1,2.3-2.7
			c4.5-2.4,9.4-3.6,13.8-6.2c2.7-1.6,3-2.2,1.3-4.9c-0.8-1.2-1.7-2.4-2.8-3.4c-3.9-3.8-4.2-3.8-8.8-0.8c-3.7,2.4-7.8,3.2-12.1,3.5
			c-4.9,0.3-9.8-0.3-14.6-1.1c-2.3-0.4-4,0-5.8,1.6c-4.3,3.9-9.2,6.8-15.3,6.7c-1.7,0-2.7,0.9-3.7,2.1c-1.7,2-3.4,4-5.3,5.8
			c-1.5,1.4-2.9,0.9-3.1-1.1c-0.5-3.9-0.6-7.9,2.4-11c1.2-1.2,1.7-2.6,2-4.3c1.3-7.6,5-10.9,12.7-11.8c2.2-0.2,4.6,0.4,6.5-1.3
			c-0.7-1.7-2.3-2.1-3.5-2.7c-7.3-3.7-14.8-6.9-22.6-9.2C8.8,67.2,8,67,7.2,66.7c-2.6-1-2.8-2.4-0.6-4.2c2.5-2.1,5.5-2.9,8.7-2.7
			c4.3,0.3,8.4-0.1,12.6-0.7c3.6-0.5,7.2-0.4,10.7,0.5c2.1,0.6,4.2,0.5,6.3,0.3c5.9-0.7,11.4,0.2,15.7,4.8c1.7,1.9,3.1,1.7,4.9,0.1
			c1.3-1.2,2.9-2.2,4.6-2.8c3.7-1.2,7-2.5,7.4-7.1c0.1-1.1,1.1-2.1,2.2-2.5c3.5-1.1,6.9-3.4,10.8-2.1c1.8,0.6,2.9,0.2,4.4-0.9
			c4.1-3,7.2-1.6,7.6,3.5c0.4,4.6-1,8.7-4.3,12c-1.8,1.8-2.1,3.1,0.4,4.5c2,1.1,2.8,2.9,3.4,5.1c0.4,1.5,6.9,4.5,5.4,6.7
			c-0.9,1.4-5.6-3.8-7.2-4c-3.5-0.5-6.8,0.5-10.1,1.4c-2.1,0.6-4.1,1.9-7,1.3c1.8-3.2,4.9-3.2,7.4-4c2.6-0.8,5.3-1.3,8.3-2
			c-2.3-4.2-5.9-4.6-9.7-4.3c-3,0.2-5.6,1.5-8.3,2.8c-1.2,0.6-2.4,1.8-3.9,1c-0.2-1.7,1-2.1,1.9-2.7c3.2-2,6.7-3.2,10.5-3.8
			c6.7-1,11.8-8.1,10.5-14.5c-0.2-1.1-0.3-2.4-1.7-2.7c-1.3-0.2-2.2,0.6-2.8,1.6c-0.8,1.2-1.3,2.6-1.9,3.9c-0.7,1.4-0.9,3.1-2.6,4.1
			c-0.9-1.5,0.2-2.6,0.6-3.7c0.7-1.9,0.2-3.2-1.7-3.8c-1.8-0.6-3.1-0.1-4.1,1.6c-0.9,1.5-0.2,3.6-1.5,5c-0.4-0.4-0.7-0.5-0.8-0.8
			c-0.5-1.1,0.5-3.1-1.3-3.3c-2-0.2-2.6,1.7-2.9,3.3c-0.5,3.2-2.4,4.7-5.4,5.4c-4.3,1-7.8,3.5-10.1,7.2c-1.6,2.5-4.2,3.5-6.5,5.1
			c-7.3,5-15.4,7.8-24.4,7.3c-2.5-0.1-4.9,0.2-7.2,1c-2.2,0.8-4.1,2-5.2,4.1c-1.6,2.8-1.4,6.2,0.4,8.3c2.2,2.5,5,2.4,7.7,1.4
			c3.7-1.4,7.3-2.9,9.9-6c1.7-2,3.4-2.4,6-1.9c5.1,1.1,10.3,1.7,15.5,1.3c3.9-0.3,7.8-1,11-3.5c1.7-1.3,1.6-2.1-0.2-3.3
			c-0.1-0.1-0.3-0.1-0.4-0.2c-1-1-3.9-0.8-2.8-3c0.7-1.4,2.7,0.2,3.9,0.8c6.3,3.2,12.5,6.6,15.5,13.5c0.6,1.3,1.6,1.8,2.7,0.9
			c4-3.1,8.8-4.1,13.5-5.4c0.8-0.2,1.5-0.6,1.6-1.7c-2.6-1.3-5,1-7.9,0.3c3.1-2.9,7-2.5,10.5-3.7c-0.7-2.6-2.5-3-4.6-2.8
			c-2.3,0.1-4.4,1.1-6.6,1.8c-1.6,0.5-3.1,1.8-5.2,1C94.7,81.3,102,79.5,108.7,81.6L108.7,81.6z M156.6,81.7c1.4-5,6.3-7.8,8.3-13.1
			c-8,1.5-9.8,8.6-14.5,14.1c-0.7-4.5,2.5-6.6,2.8-9.7c-4.2,0.7-7.1,2.4-9.2,6.4c-1.5,2.8-3.4,3.8-6.4,4.3
			c-11.6,1.8-20.8,7.6-26.9,17.6c-1.9,3.2-4.1,4.6-7.6,4.9c-5.4,0.6-10.6,2.1-14.9,5.7c-3.8,3.1-5.3,7.8-3.7,10.7
			c1.8,3.2,6,4.2,10.9,2.6c0.8-0.3,1.5-0.6,2.3-0.9c4.6-1.8,8.8-4.4,12.7-7.3c1.8-1.4,3.5-2,5.8-1.8c4.1,0.3,8.1-0.2,12.1-1.2
			c1.8-0.5,3.4-1.1,4.8-2.3c1.9-1.7,1.7-2.9-0.6-4c-1.2-0.6-3-0.2-3.5-2.3c1.6-1.2,3.1-0.5,4.6,0c5.8,1.7,10.7,4.8,14.4,9.6
			c1.6,2.1,3.2,4.1,4.9,6.1c3.5,4.3,8.2,6.4,13.7,6.6c1.8,0.1,3.6-0.1,5.4-0.3c5.8-0.6,11.4,0.2,16.5,3.2c0.7,0.4,1.5,1.5,2.6,0.1
			c-1.8-2.9-4.7-4.3-7.7-5.6c-4.4-1.8-9-2.7-13.7-3.6c-1.2-0.2-3.7,0-3.3-1.9c0.4-1.8,2.5-0.7,3.9-0.5c3.2,0.5,6.5,1.1,10.7,1.9
			c-2.5-3.2-5.1-4.2-7.7-5c-5.6-1.9-11.4-2.7-17.3-3.1c-1.6-0.1-3.5,0.2-4.8-1.7c1.7-1.2,3.4-0.8,4.9-0.8c4.6,0.1,9.1,0.9,13.6,1.8
			c0.8,0.2,1.7,0.4,2.3-0.4c0.6-1,0-1.9-0.6-2.6c-1.6-2.1-3.9-3-6.3-3.5c-4.3-1-8.7-1.2-13.1-0.9c-1.8,0.1-3.8,1.1-5.7-1.2
			c5.7-2.6,11.6-0.6,18.2-1.6c-3.1-2-5.5-2.6-8.1-2.7c-4.2-0.2-8.5-0.2-12.7,0.5c-1.2,0.2-2.5,0.6-3.3-1.4
			c4.9-2.5,10.3-1.1,15.6-2.3c-1.7-2.3-3.9-2.4-5.9-2.6c-3.1-0.3-6.2,0-9.2,0.6c-1.3,0.3-2.8,0.9-4.3-1.1c5.8-2.4,11.4-2.9,16.9-1.3
			c5.4,1.5,9.1-1,12.7-4c1.6-1.3,2.6-3.3,2.1-5.6c-2.5,0.3-3.2,3.7-6.6,2.9c3-5.3,9.8-8.6,8.7-16.6
			C164.6,72.6,162.2,78.8,156.6,81.7z M9.9,64.3c11,3.8,21.2,8.6,31.2,14.1c1.9,1,3.8,0.7,5.6,0c3.5-1.4,6.8-3.2,9.9-5.3
			c4.9-3.4,4.9-3.7,0.4-7.3c-0.9-0.7-1.7-1.5-2.7-2.1c-2.1-1.2-4.3-1.8-7.1-0.6c1.2,1.5,2.2,2.5,3.1,3.7c0.4,0.5,0.6,1.2,0.1,1.7
			c-0.6,0.5-1.2,0.2-1.7-0.2c-1-0.8-1.9-1.8-3-2.5c-4.9-3.4-10.2-5-17.1-3.8c2.6,2.3,5,2.9,7,4.3c1.8,1.2,4.5,1.6,5.2,4.8
			c-2.4-0.1-3.8-1.2-5.3-2c-4.7-2.6-9.5-5-14.8-6.1C17,62.1,13.3,61.5,9.9,64.3z M77.6,105.3c2.2,0.7,4.4,1.3,6.4,2.2
			c4.2,1.7,4.9,1.7,8.6-2C88.5,101.9,83,101.8,77.6,105.3z M90.3,100c2.7,1.2,4.2,4.4,7,4.4c2.5,0.1,5.3-0.1,7.9-2.2
			C100.2,99.4,95.5,98.3,90.3,100z M97.7,96.1c3,1.2,5.8,2.4,8.6,3.6c1.7,0.7,4.1-1.2,4.4-3.3c0.3-2-1.4-2.4-2.8-2.5
			C104.3,93.4,100.8,93.7,97.7,96.1z M14.9,104.4c2-0.6,3-2.1,3.9-3.5c0.6-0.9,0.5-1.9-0.4-2.5c-1-0.7-1.8-0.2-2.4,0.6
			C14.9,100.3,14.1,101.8,14.9,104.4z M80.3,132.1c2-1,3.1-2.1,4.1-3.4c0.6-0.8,0.4-1.5-0.2-2.1c-0.8-0.8-1.8-0.9-2.5-0.1
			C80.3,127.9,79.5,129.5,80.3,132.1z M116.7,89.4c-2.6-0.9-4.5-0.2-6.5,1.5C113.9,93.4,113.9,93.4,116.7,89.4z"/>
		<circle cx="23.8" cy="90.1" r="1.1"/>
		<circle cx="88.3" cy="119.2" r="1.1"/>
		<circle cx="114.3" cy="62.2" r="1.1"/>
		<g>
			
				<linearGradient id="SVGID_1_" gradientUnits="userSpaceOnUse" x1="105" y1="454" x2="105" y2="778" gradientTransform="matrix(1 0 0 1 0 -454)">
				<stop  offset="0" style="stop-color:#EB1A21"/>
				<stop  offset="1" style="stop-color:#A51A21"/>
			</linearGradient>
			<path class="st3" d="M210,324c-70,0-140,0-210,0C0,216,0,108,0,0c70,0,140,0,210,0C210,108,210,216,210,324z M199.9,162.6
				c0-46.5-0.2-87.6-0.2-134.1c0-9.4-3.5-18.1-13-18.1c-50.8,0-101-0.4-151.8-0.4c-4,0-8.3,0.5-12.3,0.7
				c-5.9,0.2-11.3,6.1-11.3,11.7c0,93.3-0.4,182.4-0.4,275.8c0,1.5,0.2,1.6,0.3,3.1c0.7,6.6,5,12.6,11.3,12.6
				c55.5,0,107.4,0.2,162.9,0.3c1.9,0,3.6-0.7,5.3-1.7c5.5-3,9.5-6,9.5-12.1C200.1,254,199.9,208.9,199.9,162.6z"/>
			<path d="M200.8,161.4c0.1-9.1,0-18.3,0.1-27.6c0.2-36.3,0.1-72.7,0-109c0-9.1-6.8-15.3-16-15.3c-52.8,0-105.7,0-158.5,0
				c-9.4,0-15.6,6.2-15.6,15.8c0,38.4,0.2,76.7,0.1,115.1c0,29.5-0.4,58.9-0.5,88.4c-0.1,23.5-0.1,47-0.1,70.4
				c0,8,6.5,15.3,13.7,15.3c54.3,0.1,108.6,0,162.9,0c2.2,0,4-0.5,5.9-1.8c5.1-3.5,8.1-7.9,8-14.4
				C200.7,252.7,200.8,207.1,200.8,161.4z M186.5,310.2c-3,0-3.7,0-3.7,0s-103.1,0-154.7,0c-8.3,0-13.1-4.5-13-14.9
				c0-22.8,0-45.6,0.1-68.4c0.1-28.6,0.5-57.2,0.5-85.9c0.1-37.3-0.2-75.1-0.1-112.3c0-7.9,2.5-14.8,12.6-14.8
				c50.2,0,105.1,0.2,155.3,0.2c8.7,0,13,5.3,12.6,14.1c0,35.2,0,106.5,0,106.5v27c0,0,0,91.6,0.1,135.9
				C196,304.4,191.2,309.6,186.5,310.2z"/>
		</g>
	</g>
	<g>
		<path class="st0" d="M29.5,306.2c-3.7-1.8-6.4-4.4-8.5-7.5c-2-3.3-2.9-7.2-2.9-11.4V286c0-3.9,1.1-7.5,3.1-11
			c2-3.5,4.8-6.1,8.3-7.7c-2.9-1.5-5.3-3.7-7-6.4c-1.7-2.8-2.8-5.9-2.8-9v-2c0-4,0.9-7.7,2.8-10.9s4.6-5.5,7.9-7.2
			c3.5-1.7,7.4-2.6,12-2.6s8.5,0.9,12,2.6s6.1,4,7.9,7.2c1.8,3.1,2.8,6.6,2.8,10.9v2c0,3.3-0.9,6.3-2.8,9c-1.8,2.8-4.2,5-7.2,6.4
			c3.5,1.8,6.3,4.4,8.3,7.9c2,3.5,3.1,7.2,3.1,11v1.3c0,4.4-0.9,8.1-2.9,11.4c-2,3.3-4.8,5.9-8.5,7.5c-3.7,1.7-7.9,2.8-12.7,2.8
			S33.2,307.9,29.5,306.2z M48.3,295.2c1.7-0.9,3.1-2.2,4-3.9c0.9-1.7,1.5-3.5,1.5-5.7v-0.7c0-2-0.6-3.9-1.5-5.5s-2.2-2.8-4-3.7
			c-1.8-0.9-3.7-1.3-6.1-1.3c-2.4,0-4.2,0.4-6.1,1.3c-1.8,0.9-3.1,2.2-4,3.7c-0.9,1.7-1.5,3.5-1.5,5.5v0.7c0,2.2,0.6,4,1.5,5.7
			c0.9,1.7,2.2,2.9,4,3.9c1.7,0.9,3.7,1.3,6.1,1.3C44.6,296.5,46.4,295.9,48.3,295.2z M47.3,260.8c1.5-0.9,2.6-2,3.5-3.7
			c0.9-1.7,1.3-3.3,1.3-5.3V251c0-1.8-0.4-3.7-1.3-5.1c-0.9-1.5-2-2.6-3.5-3.3c-1.5-0.7-3.1-1.1-5.1-1.1c-2,0-3.7,0.4-5.1,1.1
			s-2.6,1.8-3.5,3.3c-0.9,1.5-1.3,3.1-1.3,5.1v0.7c0,2,0.4,3.9,1.3,5.3c0.9,1.5,2,2.8,3.5,3.5c1.5,0.9,3.1,1.3,5.1,1.3
			C44.2,261.9,45.9,261.5,47.3,260.8z"/>
	</g>
</g>
</svg>
