<?xml version="1.0" encoding="utf-8"?>
<!-- Generator: Adobe Illustrator 22.0.1, SVG Export Plug-In . SVG Version: 6.00 Build 0)  -->
<svg version="1.1" id="레이어_2_1_" xmlns="http://www.w3.org/2000/svg" xmlns:xlink="http://www.w3.org/1999/xlink" x="0px"
	 y="0px" viewBox="0 0 210 324" style="enable-background:new 0 0 210 324;" xml:space="preserve">
<style type="text/css">
	.st0{fill:#FFC40A;}
	.st1{fill:#E07CC4;}
	.st2{fill:#EB1A21;}
	.st3{fill:#005CA9;}
	.st4{fill:#FFFFFF;}
	.st5{fill:url(#SVGID_1_);}
</style>
<g>
	<g>
		<g>
			<path class="st0" d="M106.8,89.7L106.8,89.7c-0.4-2.1-1.9-2.5-2.8-2.5c-3.1-0.1-5.9,2.1-6.8,5c-0.8,2.6-1.6,5.3-2.3,8l-0.2,0.6
				c0,0.1-0.1,0.3-0.1,0.4c-0.3,0.7-0.8,2.4,0.9,3.2c0.3,0.1,0.5,0.2,0.8,0.2c1.1,0,1.9-1.1,2.3-1.7c2.4-3.4,4.8-6.9,7.3-10.4
				C106.4,91.9,107,91,106.8,89.7z"/>
			<g>
				<path class="st1" d="M71.1,89.2c0-0.8-0.1-2.1-1.4-2.8c-1.7-0.9-2.8,0.4-3.3,1c-0.1,0.2-0.3,0.3-0.4,0.5
					c-1.4,1.2-3.1,2.1-5.4,2.9c-1.3,0.5-3.2,1.3-3.5,2.9c-0.4,1.6,0.9,3.1,2,4.1c1.4,1.4,2.9,2.1,4.6,2.1l0,0c1.6,0,3.2-0.8,4.6-2.1
					c2.1-2.2,2.6-4.9,2.9-7.5v-0.2v-0.2C71.1,89.7,71.1,89.4,71.1,89.2z"/>
				<path class="st1" d="M38.1,37.4c0.7,0.5,1.4,0.7,2,0.7c0.3,0,0.5,0,0.8-0.1c0.8-0.3,1.5-1,1.9-2.1c0.3-0.8,0.6-1.7,0.8-2.4
					c0.1-0.3,0.2-0.5,0.2-0.8v-0.3c0.2-3.1-2.4-7-5.1-7.9c-2.1-0.7-3.9-0.2-5.3,1.3c-1.9,2.1-1.6,4.1-0.9,5.4
					C34,33.9,35.7,35.9,38.1,37.4z"/>
				<path class="st1" d="M33.1,55.4l-1.7-1.2l0.1,2.1c0.2,3.9,0.4,7.5-0.6,11.2c-0.6,2,0.3,2.8,1.2,3.1c0.4,0.1,0.7,0.2,1.1,0.2
					c0.7,0,1.5-0.3,2.1-0.8c1.6-1.3,2.4-3.2,2.3-5.3C37.4,62,36.8,58.1,33.1,55.4z"/>
				<path class="st1" d="M26.4,60.8L26.4,60.8c0.3,0,0.5,0,0.7-0.1c0.9,0,2-0.1,2.6-0.9c0.4-0.5,0.5-1.2,0.4-2.1
					C30,57.4,30,57.1,30,56.8c-0.3-1.8-0.6-4.3-3.4-5.1c-0.9-0.3-1.8,0-2.7,0.6c-1.4,1-2.4,3-2.5,4.7c-0.1,3.6,2.8,3.7,4.7,3.8H26.4
					z"/>
				<path class="st1" d="M44.9,35.2l-1.6,2.1c-2.1,2.9-3.9,4.5-5.9,6.1c-1.1,0.8-1.2,1.7-1.1,2.2c0.1,0.5,0.4,1.3,1.9,1.8
					c0.5,0.2,1,0.3,1.5,0.3c1.5,0,2.9-0.8,3.9-2.4c1.3-1.9,1.7-4.1,1.3-7.6L44.9,35.2z"/>
				<path class="st1" d="M84.8,104.3c-0.1-0.1-0.1-0.2-0.2-0.3c-0.7-1.2-1.4-2.4-2-3.6c-0.1-0.1-0.1-0.3-0.2-0.4
					c-0.2-0.5-0.7-1.9-2.3-1.6c-1.7,0.3-1.7,1.9-1.7,2.5c0,0.2,0,0.4,0,0.5v0.1v0.1c0,1.7,0.3,4.1,2.6,5.6c0.8,0.5,1.4,0.7,2,0.7
					c0.8,0,1.4-0.4,1.8-0.8C86,106.2,85.2,104.9,84.8,104.3z"/>
				<path class="st1" d="M64.3,87c0.1,0,0.2,0,0.3,0c0.8,0,1.6-0.3,2.3-0.9c0.8-0.7,1.3-1.7,1.3-2.7c0.1-2.6-2.3-3.1-3.6-3.3H64
					h-0.2c-0.1,0-0.3,0-0.4,0c-0.8,0.1-1.7,0.2-2.3,0.9c-0.4,0.5-0.5,1.1-0.4,1.8C61.1,85.3,62.4,86.8,64.3,87z"/>
				<path class="st1" d="M26.6,61.8h-0.3l-0.1,0.1c-0.1,0-0.2,0-0.3,0c-0.5,0-1.3-0.1-1.9,0.5c-0.4,0.4-0.5,0.9-0.5,1.6
					c0.1,2.2,1.8,4.2,3.8,4.7c0.3,0.1,0.5,0.1,0.7,0.1c0.4,0,0.8-0.1,1.2-0.3c0.8-0.6,1-1.6,1.1-2.4c0-0.2,0.1-0.4,0.1-0.6
					c0.2-1.1,0.1-2-0.5-2.6C29.1,61.7,27.6,61.7,26.6,61.8z"/>
				<path class="st1" d="M32,39.1c0.3,1.5,0.8,3.3,2.8,4.1l0.4,0.2l0.4-0.2c0.2-0.1,0.4-0.2,0.5-0.2c1.2-0.5,2.8-1.2,2.5-2.8
					c-0.3-2.2-2.1-3.2-3.6-4c-0.3-0.2-0.6-0.4-0.9-0.6c-0.6-0.4-1.3-0.4-1.8,0c-0.8,0.6-0.8,1.8-0.6,2.5
					C31.9,38.5,31.9,38.8,32,39.1z"/>
			</g>
			<path class="st0" d="M50.7,143.8c-0.6-1-1.9-1.3-3.1-1.5c-0.2,0-0.5-0.1-0.7-0.1h-0.3l-0.2,0.1c0,0-0.1,0-0.2,0
				c-0.4,0.1-1.1,0.2-1.5,0.8c-0.3,0.5-0.6,0.9-0.9,1.4c-1,1.5-2.1,3-2.1,4.7c0,2.7,2.3,5.3,3.4,6.2c0.7,0.7,1.6,1,2.6,1
				c0.5,0,1.1-0.1,1.6-0.4c4.3-2,3.1-5,2.2-7c-0.4-1.1-0.9-2.1-0.6-2.9C51.1,145.2,51,144.4,50.7,143.8z"/>
			<path class="st0" d="M37.3,135.2L37.3,135.2c-2.2,0-3.4,1.3-3.8,3.9c-0.3,2,0.6,4.4,2.1,6.2c1.1,1.3,2.4,1.9,3.6,1.9l0,0
				c2.2,0,3.6-1.3,4-3.9v-0.1c0.2-2.1-0.6-4.4-2-6C40.1,135.9,38.7,135.2,37.3,135.2z"/>
			<path class="st0" d="M37.7,159.8c0.1,0,0.1,0,0.2,0c2.7,0,4.6-1.9,4.7-4.7c0.1-1.4-0.4-2.8-1.3-3.7c-0.8-0.9-2-1.4-3.1-1.5
				c-2.6-0.1-4.8,2.1-4.9,4.8c-0.1,1.4,0.4,2.8,1.2,3.7C35.2,159.3,36.4,159.8,37.7,159.8z"/>
			<path class="st0" d="M56.8,153.3L56.8,153.3c3.6-0.1,3.6-3.2,3.7-4.3l0,0c0-2.1-1-4.2-2.4-5.4c-0.9-0.8-1.9-1.1-2.9-1
				c-3.3,0.4-3.3,3.6-3.2,4.8C52,150.5,54.3,153.3,56.8,153.3z"/>
			<path class="st0" d="M48.8,141.6L48.8,141.6c1.4,0,3.1-0.7,3.4-3.5V138c0.1-1.8-0.7-3.8-2-5.2c-0.8-0.9-1.8-1.4-2.7-1.4
				c-1.1,0-1.9,0.3-2.6,0.9c-0.7,0.7-1.1,1.8-1.1,3.2c0,1.6,0.8,3.4,2.1,4.7C46.8,141.1,47.8,141.6,48.8,141.6z"/>
			<path class="st0" d="M39.9,134.2c0.1,0,0.1,0,0.2,0c2.3-0.2,2.4-2,2.5-2.9c0-0.2,0-0.4,0.1-0.6v-0.2c0.1-2.4-0.9-4.9-2.3-6.1
				c-0.7-0.6-1.5-0.9-2.4-0.8c-2.4,0.4-2.6,2.7-2.6,3.8c-0.1,2,0.8,4.4,2.2,5.7C38.3,133.8,39.1,134.2,39.9,134.2z"/>
			<path class="st0" d="M113.7,62.3c0.1,0,0.1,0,0.2,0c0.6,0,1.3-0.3,1.9-0.9c1.5-1.4,2.9-4.3,2.8-6.7l0,0c-0.1-1.6-2-1.7-3.2-1.8
				H115c-0.9-0.1-1.8,0.4-2.7,1.3c-1.1,1.1-2.1,2.9-2,4.4C110.5,60.7,111.7,62.1,113.7,62.3z"/>
			<g>
				<path class="st2" d="M49,157.1c-0.5,0.1-1,0.1-1.4,0.1c-0.1,0-0.3,0-0.4,0c-0.2,0-0.4-0.1-0.5-0.1c-1.2-0.2-2.8-0.5-4,1.1
					c-1.3,1.8-3.2,2.6-5.6,2.6H37c-1.7,0-2.7,1-2.8,3.1c-0.1,2.4,0.7,4.3,2.5,5.7c2.2,1.7,4.6,2.6,7,2.6c1.4,0,2.7-0.3,4.1-0.8
					c4-1.7,6.4-5.1,6.7-9.5c0.1-1.6,0.1-3.3-1-4.3C52.5,156.8,50.9,156.8,49,157.1z"/>
				<path class="st2" d="M68.3,144.3c-1.6-1.4-3.6-2-5.6-1.8c-0.7,0.1-1.3,0.4-1.6,0.8c-0.5,0.7-0.4,1.5-0.3,2.1v0.2
					c0.9,7.3,0.4,8-6.3,9.1l-1,0.2l0.2,1c0.5,2.2,1.9,3.6,4.1,4.2c1,0.2,1.9,0.4,2.9,0.4c2.3,0,4.5-0.7,6.3-2.1c2.5-2,4-5.1,4-8.5
					C70.8,147.8,69.9,145.8,68.3,144.3z"/>
				<path class="st2" d="M34.6,150.2c2-1.7,1.1-3.2,0.3-4.4c-1.7-2.9-4.1-3.5-7.2-1.9c-3.6,1.9-5.6,4.7-5.6,8.1
					c-0.1,2.5,0.6,4.7,2.1,6.1c1.3,1.2,3,1.9,5,1.9c0.2,0,0.4,0,0.6,0c0.7,0,1.7-0.2,2.3-1c0.4-0.6,0.5-1.3,0.3-2.3
					C31.8,154.1,32.6,151.9,34.6,150.2z"/>
				<path class="st2" d="M108.4,63.6c-0.2-0.1-0.4-0.2-0.6-0.3c-1.6-0.9-2.8-2.2-3.9-3.5c-1.2-1.4-3-2.1-4.7-1.8
					c-1.8,0.3-3.2,1.6-3.9,3.5c-0.9,2.4-0.8,4.4,0.2,5.9c1.2,1.8,3.8,2.7,7.6,2.8l0,0h0.3c1.2,0,2.7-0.1,4.3-0.9l0.1-0.1
					c1-0.5,2.4-1.3,2.7-2.8C110.7,64.6,109.2,63.9,108.4,63.6z"/>
				<path class="st2" d="M52.3,134.6c0.4,0.9,0.7,1.8,0.7,2.7c-0.2,2.7,1.1,4.2,3.7,4.5c0.5,0.1,1,0.1,1.6,0.1
					c1.9,0,4.1-0.5,5.5-2.8c1.2-2.1,0.9-4.4-0.9-6.3c-1.8-1.9-4.2-2.9-7.4-3c-1.7-0.1-3,0-3.7,0.9c-0.6,0.9-0.3,2.1,0.4,3.6
					L52.3,134.6z"/>
				<path class="st2" d="M100.2,56.2c0.5,0.2,0.9,0.3,1.3,0.3c1.7,0,3.2-1.6,4.2-2.8c0.3-0.4,0.7-0.7,1-1.1c0.5-0.5,1-1.1,1.5-1.7
					c0.7-0.9,0.7-1.7,0.6-2.1c-0.1-0.5-0.5-1.2-1.7-1.6c-0.8-0.3-1.6-0.4-2.3-0.6c-0.3-0.1-0.5-0.1-0.7-0.2h-0.2h-0.2
					c-0.2,0-0.4,0-0.5,0.1c-0.3,0-0.6,0.1-0.8,0.1h-0.2c-1.8,0.4-4.3,1-4.9,3.7C97,52.6,98.3,55.2,100.2,56.2z"/>
				<path class="st2" d="M121.4,62.1h0.2c3.1-0.1,5.4-0.9,6.6-2.3c0.7-0.8,1-1.7,0.8-2.6c-0.4-3.6-3.6-3.8-5.5-3.9
					c-1-0.1-2.1,0.5-3,1.5c-1.2,1.2-2.3,3.5-2.1,5.4c0.1,0.6,0.3,1.1,0.6,1.4c-1.7-0.5-2.5,1.1-2.9,1.8c-0.1,0.1-0.1,0.3-0.2,0.4
					c-0.5,0.8-1.2,1-2.3,1.2c-0.2,0-0.4,0.1-0.6,0.1c-1.3,0.3-1.9,1.4-1.7,2.9c0.1,1.1,0.9,1.8,2,2c0.6,0.1,1.1,0.2,1.7,0.2l0.9,0.1
					h0.1c0.3,0,0.6-0.1,1-0.1c0.7-0.1,1.5-0.2,2.3-0.3c1.8-0.3,2.9-1.6,3.1-3.5c0.1-1.9-0.6-3.4-1.9-4.3c0.2,0,0.4,0,0.6,0
					C121.1,62.1,121.2,62.1,121.4,62.1z"/>
				<path class="st2" d="M28.5,138.6c0,0.7,0.1,2.7,2.1,2.8h0.1c1.7,0,1.9-1.8,2-2.6c0-0.2,0-0.3,0.1-0.5c0.3-1.5,1.1-2.6,2.2-3.9
					c0.9-1.1,0.8-2.4-0.2-3.4c-0.5-0.5-1-0.7-1.5-0.7c-0.9,0-1.5,0.8-1.8,1.1c-1.4,1.6-2.9,3.6-3,6.5v0.1v0.1
					C28.5,138.3,28.5,138.4,28.5,138.6z"/>
			</g>
			<g>
				<path class="st1" d="M7.7,130.5c0.7,1.1,1.4,2.2,2.2,3.2c3.2,4.3,7.3,7.6,12.3,9.8c1,0.4,1.8,0.7,2.5,0.7c0.6,0,1.1-0.2,1.5-0.5
					c0.9-0.7,1.2-1.8,0.9-3.6c-0.5-3.4,0.8-6.3,3.9-8.8c2.2-1.8,3.3-3.5,3.9-6.1c0.4-1.5,1.1-2.6,2.2-2.9c1.2-0.3,2.6,0.2,3.9,1.5
					c0.9,0.9,1.6,2.1,2,3.6c0.6,2,1.9,3,4,2.9c1.9,0,3-0.8,3.8-2.4c1.4-3,3.3-6,6-9.1c1.1-1.3,1.6-2.8,1.4-4.6
					c-0.8-10-5.2-16.7-13.3-20.6c-4.9-2.3-8.7-1.7-11.8,1.7c-1.4,1.6-2.4,2-3.8,1.5c-3.9-1.3-6.4,1.6-7.2,2.5
					c-1.2,1.4-2.1,1.7-3.4,1.3c-2.7-0.7-4.7,1-6.3,2.3c-1.4,1.2-2.5,2.7-3.6,4.2c-0.7,1-1.4,1.9-2.1,2.7l-0.3,0.3v18.5l0.2,0.3
					C7,129.5,7.4,130,7.7,130.5z"/>
				<path class="st1" d="M26.6,165.1c0.4-0.9,1.6-3.2-1.1-4.8c-4.4-2.7-5.7-6.7-3.9-12.7c0.8-2.7-0.6-3.7-2-4.4
					c-4.6-2.4-8.1-6.2-11.3-9.7l-1.7-2v47.7l1.1-0.1C16.2,178,22.5,173.3,26.6,165.1z"/>
				<path class="st1" d="M94.9,132.7c1.5-1.2,1.4-2.6,1.1-3.6l-0.2-0.7c-0.8-2.5-1.8-5.4-4.3-7.1c-0.7-0.5-1.5-0.9-2.2-1.2
					c-2.1-1-3.8-1.8-3.9-4.5c0-1-1.2-1.5-2.3-1.9l-0.3-0.1c-2.7-1.1-5.7-1.8-8.8-2h-0.1c0,0,0,0-0.1,0c-7,0-12.8,3.2-17.8,9.7
					c-0.3,0.3-0.6,0.7-0.9,1c-1.2,1.3-2.6,3-2.1,5c0.5,1.7,2.2,1.8,3.4,1.8c0.6,0,1.3,0,1.7,0.2s0.8,0.4,1.3,0.5
					c0.6,0.2,1.1,0.4,1.6,0.7c3.8,2.4,4.3,4.1,2.4,8c-0.3,0.6-0.7,1.6-0.3,2.5c0.4,0.8,1.3,1,1.9,1.2c0.2,0,0.3,0.1,0.4,0.1
					c4.3,1.4,6.3,3.6,6.6,7.2c0.2,3,2.9,3.5,4.1,3.6c1.2,0.2,2.3,0.3,3.4,0.3c4.3,0,8.5-1.4,12.3-4.1c4.6-3.2,5.6-7.7,2.8-12.7
					C93.5,134.7,93.6,133.8,94.9,132.7z"/>
				<path class="st1" d="M50.5,175.7c-0.2-1-0.9-2.6-3.5-2.4c-1.5,0.1-3,0.2-4.4,0.1c-4.8-0.6-8.3-3.8-8.7-8.2c0-0.2,0-0.4,0-0.7
					c0-0.9,0.1-2.9-2.3-3.1c-2.6-0.3-3.4,1.7-3.9,3.1c-2.5,6.1-6.7,10.6-12.7,13.3c-3.2,1.5-3.6,4-3.6,6.6s1.5,4.5,4.2,5.4
					c1.4,0.4,2.5,1,3.4,2.5c3.4,5.6,6.5,7,13.1,5.7c0.4-0.1,0.7-0.2,1-0.3c1.2-0.3,1.9-0.5,2.8,0c1.4,0.7,2.7,1,4,1
					c2.4,0,4.7-1,6.7-2c0.6-0.3,1.1-0.6,1.6-1c1-0.6,1.9-1.3,3-1.3c3.7-0.2,4-2.9,4.3-4.6l0.1-0.5c0.2-1.4,0-2.4-0.6-3.3
					C52.7,182.8,51.2,179.3,50.5,175.7z"/>
				<path class="st1" d="M90.1,162.5c0-0.9,0.1-1.8-0.1-2.7c-0.6-4.5-2.7-6.1-7.4-5.5c-2.8,0.3-5.1,0.3-7.1-0.1
					c-1.2-0.2-3.1-0.6-4.3,1.5c-2.4,4.3-6.1,5.9-11.7,4.9c-0.1,0-0.2,0-0.4-0.1c-0.8-0.2-1.9-0.4-2.7,0.2c-0.3,0.2-0.7,0.7-0.8,1.5
					c-0.3,3.5-1.7,6.4-4.2,8.9c-0.8,0.8-0.7,2-0.6,2.8v0.2c0.8,6.5,3.6,11.7,8.5,15.4c1.2,0.9,2.4,1.4,3.6,1.4
					c0.5,0,0.9-0.1,1.4-0.3c1.4-0.5,2.3-1.8,2.7-3.7c0.5-2.4,1.5-2.9,3.8-3.2c4.3-0.5,7.7-1.4,10.6-3.1c1.7-1,4.2-2.4,3.4-5.8
					c-0.1-0.5-0.1-1.1,0.8-1.6c3.4-2,4.8-5.2,4.2-9.7C90.1,163.2,90.1,162.8,90.1,162.5z"/>
				<path class="st1" d="M107,72.7c-1-2.1-3.1-1.8-4.7-1.7c-0.7,0.1-1.4,0.2-1.9,0.1c-3-0.5-5.2-1.9-6.2-3.9
					c-0.9-1.9-0.7-4.2,0.6-6.6c0.5-0.9,1.1-1.6,1.8-2.1c0.4-0.3,1.8-1.2,1.6-2.4c-0.2-0.8-1-1.4-2.4-1.7l-1.1-0.2
					c-2.7-0.5-5.4-1-7.9-0.9c-5.7-0.1-9.7,0.8-13.1,2.9c-2.7,1.6-4.3,3.8-4.4,6.2c-0.1,2.3,1.3,4.6,3.8,6.3c1.6,1.1,2.3,2.2,2.5,4.2
					c0.7,4.8,3.6,8.6,8.4,10.6c3.2,1.3,6.6,2.7,10.3,3.5c1.7,0.3,3.2,0.6,4.5,0.6c1.4,0,2.7-0.3,3.7-1c2-1.3,2.8-3.9,3.4-7.5
					c0.1-0.6,0.3-1.3,0.6-2C107.1,75.6,107.6,74,107,72.7z"/>
				<path class="st1" d="M126.1,63.4c-1.8,0-2.7,0.8-3.1,2.6c-1,4.5-2.4,5.5-7.5,5.1c-6.1-0.4-6.7,0-8.4,6.1
					c-0.6,2.4-0.9,4.6-0.8,6.8c0.1,2.4,0.7,3.9,1.8,4.8c1,0.8,2.3,1.1,4.1,0.8c2.1-0.3,4.3-0.2,6.6-0.1c1.6,0.1,3.3,0.1,5.2,0.1
					c1,0.3,1.9,0.4,2.9,0.4c4.4,0,8.3-2.5,12.1-4.9c0.9-0.6,1.8-1.1,2.7-1.7c1.6-1,3.4-3,2.4-6.8C142.3,69.5,133.8,63.2,126.1,63.4z
					"/>
				<path class="st1" d="M100.1,34.2c2.9,2.3,4.9,5.3,6.3,9.5c0.7,2.2,1.4,3.9,2.7,4.4c0.3,0.1,0.5,0.1,0.8,0.1
					c1.1,0,2.5-0.7,4.1-1.7l0.1-0.1c2.6-1.6,4.4-2.5,6-1.1c2.2,1.8,3.7,1.2,5.4,0.6h0.1c1.6-0.6,3.3-1.1,5.2-1.4
					c1.9-0.4,4.2-1.1,4.9-4c0.8-3.2-1.8-5-2.7-5.8c-3.1-2.3-6.5-4.8-9.9-7.1c-2.4-1.6-6.1-3.4-10.3-0.9c-0.7,0.4-1.6,0.3-2.6,0.2
					l-0.5-0.1c-3.9-0.1-7,0.5-9.1,1.8c-1.5,0.9-2.4,1.6-2.4,2.7C98.1,32.5,99.1,33.4,100.1,34.2z"/>
				<path class="st1" d="M76.3,53.9c0.3,0,0.6,0,1-0.1c5.6-1.4,11.1-1.1,16.3-0.5c0.9,0.1,3.3,0.3,3.6-2.2c0.3-2.6,1.8-3.8,5.3-4.5
					c1.2-0.2,2.1-0.7,2.5-1.4c0.6-1,0.3-2.1-0.1-3.2c-2-6.1-8-10-15.6-10.2l0,0c-3.4-0.1-7.9,0.8-9.4,3.5c-2.6,4.8-4.6,10-6.3,14.3
					c-0.5,1.2-0.3,2.6,0.5,3.4C74.5,53.3,75.2,53.9,76.3,53.9z"/>
				<path class="st1" d="M148.2,62.4c-0.7-2.7-2.1-4.9-3.7-7.3l-0.1-0.1c-0.9-1.3-1.1-1.8-0.5-2.6c0.9-1.3,1.2-2.5,0.9-3.6
					c-0.5-1.5-2.3-2.2-3.5-2.6c-2.2-0.7-4.3-1.3-6.6-1.2c-4-0.2-7.7,0.8-11.3,2.9l-0.1,0.1c-1,0.6-2.6,1.5-2.3,3.3
					c0.3,2,2,1.9,2.8,1.9c0.2,0,0.5,0,0.7,0c2.5,0.6,3.7,1.2,4.2,2s0.4,2.2-0.2,4.6c-0.8,2.8,1,3.3,2.3,3.7
					c4.2,1.2,7.6,3.1,10.4,5.9c0.8,0.8,1.9,1.8,3.2,1.8c0.1,0,0.2,0,0.3,0c1.4-0.2,2.3-1.4,3-2.5C148.6,66.8,148.8,64.9,148.2,62.4z
					"/>
			</g>
			<g>
				<path class="st3" d="M204.9,251.4v-17.1l-0.7-0.2c-1.5-0.5-2.9-0.5-4.3-0.4c-0.4,0-0.7,0-1.1,0c-12.3,0-24.7,0-37,0h-9.3
					c-1.9,0-3.9,0-5.8,0c-4.5,0-9.2,0.1-13.8-0.1c-4-0.2-6.5,1.4-7.7,5c-0.1,0.3-0.3,0.7-0.5,1c-0.1,0.2-0.2,0.3-0.3,0.5
					c-0.3,0.7-1.1,2.2-1.4,2.3c-0.4,0-1.6-1.1-2.2-1.6c-1.5-1.4-3.2-2.6-4.7-3.8c-0.6-0.5-1.2-1-1.9-1.5c-1-0.8-2.4-1.8-4.4-1.8l0,0
					c-8.8,0-17.6,0-26.4,0.1h-5.9c-3.9,0-4.1,3.5-4.3,5.2c-0.1,0.9,0.1,1.5,0.6,2c0.3,0.3,0.6,0.4,0.9,0.5c-0.3,0-0.5,0-0.8,0.1
					c-1.4,0.2-3.1,1.9-4,3.3c-0.5,0.9-1.1,2.1-0.7,3.2c0.4,1,1,1.5,1.6,1.8c-2.6,0.1-4.5,1.2-5.6,3.6c-0.2,0.5-0.7,1-1.1,1.6
					c-1,1.2-2.2,2.8-1.3,4.5c0.4,0.8,1.1,1.1,1.9,1.3h-6.4c-15.4,0-30.9,0-46.3,0c-0.3,0-0.7,0-1,0c-1.3,0-2.6-0.1-4,0.4l-0.7,0.2
					v13.8l0.9,0.1c0.7,0.1,1.4,0.1,2.1,0.2c3.9,0.4,7.9,0.8,11.7-0.9c6.8-3.1,14.1-3.7,23.2-2.1c3.4,0.6,6.8,1.8,10,2.9
					c1.6,0.6,3.3,1.1,5,1.6c0.7,0.2,1.6,0.5,2.5,0.5c1.2,0,2.5-0.5,3.4-2.3c1.8-3.3,3.9-6.6,6.8-10.4c0.3-0.4,1.3-1.7,0.7-2.8
					c-0.5-1-1.8-1.2-2.9-1.2h-3.3c0.1,0,0.2,0,0.4,0c0.7-0.1,1.4-0.1,1.9-0.1h0.1h0.1c0.7-0.1,1.4-0.1,2.2,0
					c1.8,0.1,3.8,0.2,5.5-1.4c2-1.8,4.3-3.8,6.8-5.5c0.5-0.3,1.6-1,1.3-2.4c-0.2-0.9-0.8-1.2-1.3-1.4H87c9.5,0,19,0,28.6,0
					c-1.1,0.1-2.3,0.3-3.4,0.6l-3,0.9l3,1c6.2,2.2,12,5.5,17.5,8.7c1,0.6,2.1,1.2,3.1,1.8l5,5.3c6.3,6.7,12.7,13.4,19,20.1
					c1.2,1.2,2.5,1.3,3.7,1.3c5.1-0.1,10.1-0.2,14.9-0.1c0.5,0,1,0,1.6-0.1c0.7-0.1,2.1-0.2,2.4,0c0,0.1,0,0.2,0,0.2
					c-0.2,0.2-1.5,0.1-2.1,0s-1.1-0.1-1.6-0.1c-2.6,0.1-5.3,0.1-7.8,0.1c-1.4,0-2.8,0-4.2,0s-2.2,0.4-2.6,1.2
					c-0.4,0.8-0.1,1.7,0.7,2.7c0.4,0.5,0.9,1,1.3,1.5c0.3,0.3,0.6,0.6,0.8,1c1.3,1.5,2.6,3.1,3.9,4.6c3.7,4.3,7.5,8.7,10.8,13.4
					l0.3,0.4h0.5c2,0,4,0,6,0c5.1,0,10.3,0,15.5,0.1c0.1,0,0.2,0,0.3,0c1,0,2-0.1,2.7-0.8c0.8-0.8,0.9-1.9,0.9-3.1
					C204.9,291,204.9,270.9,204.9,251.4z M165.4,275.7c5.3,0,10.6,0,16,0c0.5,0,1,0,1.5,0.1c-0.2,0-0.4,0-0.5,0
					c-10.1,0-20.1,0-30.2,0H152c-0.4,0-0.8,0-1.2-0.1H165.4z M134.5,260.8c10.2-0.1,20.7,0,30.7,0h3.5c0.2,0,0.5,0,0.8,0
					c-0.3,0-0.7,0-0.9,0h-0.3c-9.6,0-19.3,0-28.9,0c-0.4,0-0.9,0-1.3,0c-1.2,0-2.4-0.1-3.6,0.2c-0.1-0.1-0.1-0.2-0.2-0.2
					C134.3,260.8,134.4,260.8,134.5,260.8z"/>
				<path class="st3" d="M26.3,260.8c3.6,0,7.1,0,10.7-0.1c5.4,0,10.9-0.1,16.3,0c0.1,0,0.2,0,0.3,0c0.6,0,2.3,0.1,2.6-1.7
					c0.2-1.2-0.7-1.8-1.2-2.2l-0.2-0.1c-7-5.4-12.1-12.2-15-20.3c-0.6-1.7-1.8-2.5-3.7-2.5c-2.7,0-5.4,0-8.1-0.1
					c-6.7-0.1-13.6-0.2-20.4,0.3l-0.9,0.1v26.2h0.9C13.7,260.7,20,260.8,26.3,260.8z"/>
			</g>
			<g>
				<path class="st2" d="M174.9,213.2c-2.3-9.1-5.3-17-9.2-24.2c-13.8-25.7-36.9-38.5-70.6-39.1c-2.8,0-4.2,1-4.8,1.9
					c-0.6,0.9-1.2,2.5-0.2,5.2c2.4,6.5,1.7,11.6-2.2,16l-0.1,0.1c-0.6,0.7-1.4,1.5-1.3,2.6c0.1,2.4-1.2,3.8-3.7,5.4
					c-1,0.7-1.6,1.4-1.8,2.3c-0.2,0.8,0.1,1.7,0.8,2.6c0.3,0.5,0.7,0.9,1,1.4c0.3,0.4,0.6,0.8,0.9,1.3
					c16.3,22.2,38.3,32.9,67.4,32.9c0.1,0,0.1,0,0.2,0c0.2,0,0.5,0,0.7,0c4.7,0,11.1-0.7,19-2.1c2.1-0.4,3.3-0.6,4-1.7
					C175.7,216.7,175.4,215.3,174.9,213.2z"/>
				<path class="st2" d="M164.3,221.3c-3.9,0.3-7.6,0.7-11.4,0.8c-21.4,0.7-39.1-4.7-54-16.5c-6.5-5.2-12.3-11.5-17.8-19.3
					c-1.1-1.6-2.5-2.6-4.1-2.8c-1.3-0.2-2.5,0.2-3.6,1.1c-2.3,1.9-0.7,3.9,0,4.9c0.2,0.3,0.4,0.5,0.5,0.7
					c14.3,24.6,33.7,37.5,59.2,39.3c4.2,0.3,8.2,0.5,12.1,0.5c5.8,0,11.4-0.5,17-2.2c3.4-1,6.9-2.3,9.6-5.4l1.5-1.8l-2.4,0.2
					C168.8,221,166.5,221.2,164.3,221.3z"/>
				<path class="st2" d="M122.9,229.1c-0.9-0.1-2-0.2-3-0.5c-12.6-3.6-23.6-10.1-32.6-19.2c-0.3-0.3-0.5-0.6-0.8-0.9
					c-0.9-1-1.9-2.2-3.7-2.7l-1.2-0.3l-0.1,1.2c-0.3,3.8,1.1,6.5,4.4,8.7l2.8,1.9c10.2,6.7,20.8,13.5,30.5,21.2
					c0.8,0.7,1.9,1.4,3,1.4c0.2,0,0.4,0,0.6-0.1c1.3-0.3,2-1.7,2.4-2.7c0.1-0.3,0.3-0.7,0.5-1c0.1-0.2,0.2-0.4,0.3-0.6
					c1.4-2.6,2-3.8,1.5-4.9C127,229.5,125.7,229.3,122.9,229.1z"/>
			</g>
			<g>
				<path d="M176.7,313c-8-10.9-17.2-21.4-28-32c-0.5-0.5-1-0.9-1.4-1.3c-0.8-0.7-1.6-1.3-2.2-2.1c-11.8-15.9-26.7-24.4-45.8-26.1
					c-7.7-0.7-14.2,1.6-19.9,6.8c-4.8,4.4-9.1,10-13.4,17.6c-0.9,1.6-1.5,2.6-2,2.8c-0.5,0.2-1.6-0.1-3.5-0.6
					c-2.6-0.7-5.2-1.6-7.7-2.4l-0.3-0.1c-6.7-2.2-12-3.2-17.1-3.2c0,0,0,0-0.1,0c-11,0-19.3,4.8-24.7,14.1c-1,1.8-1.9,3.7-2.8,5.5
					c-0.4,0.8-0.8,1.7-1.2,2.5l-0.1,0.2v0.2c0,1.5,0,3,0,4.5c0,3.4,0.1,7-0.1,10.4c-0.1,1.7,0,3,0.8,3.9s2.2,1.1,3.9,1.1
					c0,0,0,0,0.1,0c45-0.1,90.7-0.1,134.9-0.1h31.7L176.7,313z"/>
				<path d="M10.1,104.3c2.9-2.5,5.7-5,10-4.9c1.2,0,2.3-0.6,2.9-1.7c0.9-1.5,0.9-3.7,0-5.4c-1.1-2-2.8-3.4-4.6-4.6
					c-3.5-2.3-7.3-3.8-10.6-5.1l-1.4-0.5v25l1.6-1.3C8.8,105.4,9.5,104.8,10.1,104.3z"/>
				<path d="M55.4,58.2c-0.1,0-0.2,0-0.4,0c-0.7,0-2.1,0.1-2.4,1.6c-0.4,1.5,0.9,2.2,1.5,2.6c0.1,0.1,0.2,0.1,0.3,0.2
					c3.5,2.3,5.8,4.7,7.2,7.7c0.4,0.8,0.5,1.3,0.3,1.6c-0.3,0.4-0.6,0.5-1.7,0.2H60c-0.9-0.2-1.8-0.5-2.6-0.7
					c-1.2-0.4-2.5-0.8-3.7-1c-0.3-0.1-0.6-0.1-0.9-0.2c-1.7-0.4-4.1-0.9-5.4,1.1c-0.9,1.4,0.2,2.8,1.1,3.8c0.3,0.4,0.7,0.8,0.8,1.1
					c0.7,1.2,1.5,2.4,2.5,3.6c2.7,3.1,3.9,3.3,7.4,1c2.1-1.4,4.3-1.9,6.3-1.4c2,0.5,3.6,2,4.8,4.2c1.3,2.4,1.7,5,1.4,8
					c-0.2,1.5-0.2,3.3,1.2,4.7c0.6,0.6,1.6,1.5,2.9,1.4c1.2,0,2.4-0.9,4.1-2.9c2.1-2.5,4.9-3.6,7-2.7c2.4,1,3.6,3,3.8,6.3
					c0.3,6-3,9.5-10.4,11.1l-2.7,0.6l2.5,1.3c0.9,0.5,1.9,0.9,2.8,1.2c3,1.3,4.6,2,4.6,4.7c0,1,1.2,1.5,1.8,1.7
					c4.2,1.4,6,4.9,7.4,9.6c1.6,5.3,5,8.9,10.9,11.2c2.5,1,5.9,2.3,9.5,3.1c1,0.2,1.8,0.4,2.5,0.4c0.6,0,1-0.1,1.5-0.4
					c0.9-0.6,1.1-1.8,1.3-3.7c0.7-5.9-0.5-11.7-3.8-19.1c-0.2-0.4-0.4-0.8-0.6-1.2c-0.5-1-0.9-2-1.3-3c-0.3-0.6,0.1-1.1,0.4-1.3
					c0.2-0.2,0.5-0.4,1.4,0.2c0.6,0.4,1.1,0.9,1.7,1.3c0.7,0.5,1.3,1.1,2,1.6c6.2,4.5,12.4,6.7,18.8,6.6c1.2,0,2.6-0.2,3.2-1.2
					c0.6-1.1,0-2.3-0.6-3.3c-1.2-2-1.9-3.8-1.9-5.7c0-0.3-0.1-0.6-0.1-1c-0.2-1.6-0.2-2.2,0.8-2.7c0.9-0.5,1.7,0,3.1,1.2
					c2.7,2.2,5.1,3.5,7.5,4.4c1.4,0.5,2.9,0.9,3.9,0.1c0.9-0.7,0.9-2,0.7-3.8c-1.4-11-7.4-18.7-17.8-22.8c-1.8-0.7-3.3-0.9-4.8-0.4
					c-5.4,1.6-10.8,1.4-16.5,1.1h-0.3c-9.9-0.4-10.2-0.3-15.9,7.8c-0.3,0.4-0.6,0.9-1,1.3c-0.8,1.1-1.6,2.2-2.3,3.4
					c-0.8,1.6-2.1,2.2-4.2,2.7c-0.8,0.2-1.1,0.2-1.3,0.2c0-0.1,0-0.5,0.2-1.2c1.1-3.4,2.1-6.9,3.2-10.8c1.2-4.2,0.9-4.8-3.2-6
					c-0.5-0.1-1-0.3-1.5-0.4c-1.5-0.4-2.9-0.8-4.1-1.4c-1.1-0.5-2.2-1-3.3-1.4c-2.9-1.2-5.7-2.3-7.1-5l-1.1-2
					c-2.2-4.1-4.5-8.3-7.4-12.3C66.6,61.8,62.4,57.4,55.4,58.2z"/>
				<path d="M32.4,214.8v0.1c0.1,0.4,0,1,0,1.5c-0.1,1.4-0.1,2.9,1,4c0.8,0.7,2.1,1,3.9,0.7c0.1,0.1,0.4,0.6,0.5,1.3
					c0.1,0.6,0.2,1.3,0.2,2c0,0.4,0.1,0.8,0.1,1.1c1.5,13.3,7.7,23.9,18.4,31.5l0.2,0.2c0.9,0.6,1.8,1.3,2.9,1.3c0.2,0,0.3,0,0.5,0
					c0.9-0.2,1.6-0.8,2.3-1.9c5.3-8.5,9.9-16.3,12.1-25.5c1.2-5.2,1.1-9.5-0.4-13.4c-0.3-0.9-1.4-3.6-0.9-4.2
					c0.3-0.4,1.7-0.5,4.1-0.2c1,0.1,2.3,0.1,3.1-0.8c0.7-0.9,0.5-2.1,0.3-3c-1.9-7.2-4.9-13.1-9-18.2c-0.7-0.9-1.6-1.8-2.8-1.9
					c-0.9-0.1-1.8,0.3-2.8,1.2c-1.3,1.2-3.2,2.1-4.3,1.3s-2.8-1.7-4.4-1.2c-1.5,0.5-2.2,2.1-2.7,3.5c0,0.1-0.2,0.2-0.3,0.2
					c-2.4,0.4-4.6,1.5-6.7,2.5c-2.8,1.4-5.4,2.7-8.4,2.5c-2.1-0.1-3.6,0.9-4.5,3C33.2,206.7,32.4,210.7,32.4,214.8z"/>
				<path d="M45.4,53.5c0.7,0,1.3-0.3,1.8-0.5c0.2-0.1,0.3-0.1,0.5-0.2c8.9-2.9,14.1-10.2,14.1-20l0,0l0,0c0-0.1,0-0.3,0-0.5
					c0-0.5,0-1.2-0.1-1.9c-0.3-2-0.7-3.5-1.9-4s-2.6,0.2-4.4,1.4c-2.6,1.8-4.6,4.3-6.4,7.9c-0.7,1.4-1.2,2.9-1.7,4.4
					c-1,2.7-1.9,5.3-3.9,7.4c-1.4,1.5-1,3.7,0.2,5.2C44.2,53.3,44.8,53.5,45.4,53.5z"/>
				<path d="M16.5,83.8c2,0.7,4.2,1.2,6.7,1.3l0,0c0.2,0,0.4,0,0.6,0c5.8,0,10.2-3.2,11.9-9c0.3-0.9,0.7-2.3-0.1-3.3
					c-0.7-0.9-2-0.8-2.9-0.7c-0.8,0.1-1.6,0.2-2.4,0.3c-2.8,0.3-5.6,0.6-8.4,1.6c-2.7,0.9-4.7,2-6.5,3.5c-1.6,1.4-2.6,2.5-2.4,3.7
					C13.4,82.5,14.6,83.1,16.5,83.8z"/>
			</g>
			<g>
				<path class="st2" d="M205,13c0-0.9,0-2-0.7-2.7c-0.6-0.6-1.5-0.7-2.7-0.7C189,9.7,176.3,9.7,164,9.7h-11.8l-0.6,0.5
					c-0.2,0.2-0.5,0.4-0.7,0.5c-2.7,1.8-4.3,4.1-4.6,6.6c-0.3,2.6,0.8,5.2,3.1,7.6c3.8,4,8.8,5.2,13.1,5.9c2,0.3,3.3-0.8,4.3-1.7
					c0.3-0.2,0.6-0.5,0.8-0.7c6.5-4.7,13.5-6.2,20.8-4.4c5.5,1.3,8.7,5.2,10.8,12.7c1.3,4.9,0,9.3-4.1,13.5c-2,2-7.5,2.2-10.5,0.4
					c-2.6-1.5-3.7-4.6-2.9-7.9v-0.1c0.1-0.3,0.2-0.9,0.4-1c0,0,0,0,0.1,0s0.1,0,0.1,0c0,0.1,0,0.5,0,0.7s0,0.4,0,0.6
					c0.2,3.4,1.4,6,3.4,7.4c1.7,1.2,3.9,1.4,6.4,0.6c3.1-1,5.2-3.5,6.3-7.7s0.1-8.8-2.7-12.6s-7.1-6.2-11.4-6.4
					c-5.1-0.2-9,0.5-12.3,2.3c-8.4,4.4-11.9,12-9.8,21.4c0.5,2.3,1.1,4.8,2.4,6.9c1,1.6,1.1,3,0.2,5.2c-1.1,2.9-1.6,6.3-1.3,9.6
					c0.4,5.3,3.2,8.5,8.4,9.6c4.1,0.9,8.1,0.4,11.5-0.2c2.7-0.5,4.5,0,6.2,1.9c2.8,3,6.1,4.5,9.7,4.5c1.6,0,3.3-0.3,5-1l0.6-0.2
					V68.6C204.9,50.5,204.9,31.6,205,13z"/>
				<path class="st2" d="M147.5,9.7H85.9l1.3,1.6c2.6,3.3,6.3,4.1,9.9,4.9l1,0.2c5.2,1.1,10.5,1.7,16,1.7c8.8,0,18.2-1.5,28.7-4.4
					c0.2,0,0.3-0.1,0.5-0.1c1.2-0.3,2.8-0.7,3.6-2.5L147.5,9.7z"/>
			</g>
			<path class="st4" d="M7.6,80.8c0-22.4,0-44.9-0.1-67.3c0-2.3,0.5-2.9,2.9-2.9c24.3,0.1,48.6,0.1,72.9,0.1c2.3,3.5,6,4.9,9.6,6.2
				c5.2,1.8,10.6,2.5,16,2.9c10.8,0.8,21.4-1,31.8-3.6c2.1-0.5,3.4-0.8,3.7,2.2c0.5,5.9,4.1,9.6,9.3,11.8c1.8,0.8,3.8,1.4,5.7,1.9
				c1.7,0.5,2.3,1.3,1.6,3c-2.6,6.5-1.5,12.9,1.1,19.1c1,2.3,1.1,4.4,0.3,6.7c-0.7,2.4-0.9,4.9-0.9,7.4c0,7.5,3.9,12,11.3,13
				c3.2,0.5,6.6,0.4,9.8-0.3c2.5-0.6,4.3,0,6.3,1.8c4.2,4,9.2,5.7,15,3.6c0,48.6,0,97.2,0,145.9c-0.9,0.1-1.8,0.3-2.8,0.3
				c-14.8,0-29.6,0-44.4,0c-1.4,0-2.8,0.2-4.2-0.6c1.1-1,2.4-0.7,3.5-0.9c6.9-1.1,13.3-3.2,18.8-7.7c2.4-1.9,3.4-4.2,2.6-7.4
				c-2.4-9.7-5.5-19.2-10.3-28c-11.2-20.8-28.5-33.3-51.6-37.9c-5.4-1.1-10.8-1.7-16.2-1.9c-1.2,0-3-0.1-2.2-2
				c1.5-3.3,0.8-6.6,0-10.7c6.6,5.5,13.8,8,21.3,9.6c3.7,0.8,4.4,0.3,5.2-3.4c1.3-5.8,0.4-11.4-1.4-17c-0.5-1.5-1.6-3-1.2-4.8
				c2.1,0.3,3.3,1.6,4.8,2.4c5.7,2.9,11.6,4.5,18,3.6c4.2-0.6,4.6-1.6,2.3-5.1c-0.9-1.4-1.9-2.8-2.4-4.5c-0.2-0.8-1-1.9-0.2-2.6
				c0.9-0.8,1.7,0.3,2.4,0.7c3,2.1,6.2,3.6,9.8,4.3c3,0.6,3.8,0,3.7-3c-0.6-11.7-5.2-21-16.1-26.6c-1.2-0.6-2.7-0.9-3.5-2.4
				c2-1.6,4.5-2.7,5.8-5.2c1.4-2.8-0.8-5.8,0.1-8.2c1-2.5,4.2-4,4.5-7.3c0.3-3.4-0.9-6.5-2.6-9.3c-1.1-1.9-1.9-3.6-1.1-6
				c0.9-2.7-0.8-4.8-3.3-6c-1.1-0.5-2.4-0.7-3.6-1c-1.5-0.3-2.6-0.8-2.2-2.8c0.9-4.2-1.5-6.8-4.7-8.8c-1.8-1.2-3.6-2.4-5.3-3.8
				c-3-2.5-6.4-5.4-10.4-4.6c-6.4,1.3-13.6-0.2-19.3,4.4c-0.1,0.1-0.3,0.2-0.4,0.3c-1.5,2.1-3.5,2-5.9,1.6c-4.1-0.6-8.1,0-11.6,2.4
				C77,34.3,71,48.1,71.4,51.5c0,0.2,0,0.3,0.1,0.5c1.7,3.8-2.5,4.5-3.7,6.7c-0.9,1.5-2.4-0.3-3.6-0.9c-4.7-2-9.4-1.9-14.2-0.6
				c-1.2,0.3-2.5,0.8-2.5,2.3c-0.1,1.3,0.9,1.9,1.9,2.4c1.1,0.6,2.3,1.1,3.3,1.7c2,1.3,4.2,2.5,5.4,5.1c-2.8,0.4-4.9-0.8-7.2-0.9
				c-4.8-0.1-4.8-0.2-5.5-5c-0.1-0.8-0.2-1.5-0.4-2.3c-0.8-4.5-0.8-4.5,3.6-6.4c10.2-4.3,15-11.4,14.6-22.1c-0.1-2.8,0.8-6.8-2.2-8
				c-3.4-1.4-6.4,1.5-8.9,3.8c-1.8,1.6-3.2,3.6-5,5.7c-0.9-1.9-1.5-3.5-2.3-5c-0.7-1.6-1.7-3-3-4.1c-3.8-3.5-7.9-3.1-10.7,1
				c-4.9,7.1-0.7,22.3,7.1,24c1.3,0.3,2.4,0.7,2.7,2.2c1.1,6.6,2.1,13.1,3.3,20.5c-3.4-2.5-5.1-4.6-5.2-8.2
				c-0.1-5.7-2.9-10.2-7.8-13.1c-5.9-3.6-11.4-0.5-11.8,6.4c-0.2,4.3,1.4,7.9,4.2,11.1c1.6,1.8,2.4,2.8-0.9,3.6
				c-4.8,1.2-9,3.5-11.9,7.7C10.2,81.1,9,81.2,7.6,80.8z"/>
			<path d="M7.6,80.8c1.5,0.4,2.7,0.3,3.6-1.2c2.8-4.3,7.1-6.6,11.9-7.7c3.2-0.8,2.4-1.8,0.9-3.6c-2.8-3.1-4.4-6.7-4.2-11.1
				c0.4-6.9,5.9-9.9,11.8-6.4c4.8,3,7.6,7.4,7.8,13.1c0.1,3.6,1.8,5.7,5.2,8.2c-1.2-7.4-2.2-14-3.3-20.5c-0.2-1.5-1.4-1.9-2.7-2.2
				c-7.8-1.7-12-16.9-7.1-24c2.8-4.1,6.9-4.5,10.7-1c1.3,1.2,2.3,2.6,3,4.1s1.4,3.1,2.3,5c1.7-2,3.2-4,5-5.7
				c2.5-2.3,5.5-5.2,8.9-3.8c3,1.2,2.1,5.2,2.2,8C64,42.7,59.2,49.8,49,54.1c-4.4,1.8-4.4,1.8-3.6,6.4c0.1,0.8,0.3,1.5,0.4,2.3
				c0.6,4.8,0.6,4.9,5.5,5c2.3,0.1,4.4,1.3,7.2,0.9c-1.2-2.6-3.4-3.8-5.4-5.1c-1.1-0.7-2.2-1.2-3.3-1.7c-1-0.5-1.9-1.2-1.9-2.4
				c0.1-1.6,1.3-2,2.5-2.3c4.8-1.3,9.5-1.4,14.2,0.6c1.2,0.5,2.8,2.4,3.6,0.9c1.3-2.2,5.5-2.9,3.7-6.7c-0.1-0.1-0.1-0.3-0.1-0.5
				c-0.4-3.4,5.6-17.2,8.4-19.1c3.5-2.3,7.5-3,11.6-2.4c2.3,0.3,4.3,0.4,5.9-1.6c0.1-0.1,0.2-0.2,0.4-0.3c5.7-4.5,12.8-3.1,19.3-4.4
				c4-0.8,7.3,2.2,10.4,4.6c1.7,1.4,3.5,2.6,5.3,3.8c3.2,2,5.6,4.6,4.7,8.8c-0.4,1.9,0.7,2.4,2.2,2.8c1.2,0.3,2.5,0.5,3.6,1
				c2.4,1.2,4.2,3.3,3.3,6c-0.8,2.4,0,4.1,1.1,6c1.7,2.8,2.9,5.9,2.6,9.3c-0.3,3.3-3.5,4.7-4.5,7.3c-0.9,2.4,1.3,5.3-0.1,8.2
				c-1.3,2.5-3.7,3.6-5.8,5.2c0.8,1.6,2.3,1.8,3.5,2.4c10.9,5.5,15.4,14.9,16.1,26.6c0.2,3-0.6,3.6-3.7,3c-3.6-0.7-6.8-2.2-9.8-4.3
				c-0.7-0.5-1.5-1.6-2.4-0.7c-0.8,0.7,0,1.8,0.2,2.6c0.5,1.7,1.5,3.1,2.4,4.5c2.3,3.5,1.8,4.5-2.3,5.1c-6.4,0.9-12.3-0.8-18-3.6
				c-1.5-0.8-2.8-2-4.8-2.4c-0.3,1.8,0.7,3.3,1.2,4.8c1.8,5.6,2.7,11.2,1.4,17c-0.8,3.6-1.6,4.1-5.2,3.4c-7.5-1.6-14.7-4-21.3-9.6
				c0.8,4.1,1.5,7.4,0,10.7c-0.8,1.9,0.9,1.9,2.2,2c5.5,0.2,10.9,0.8,16.2,1.9c23.1,4.5,40.4,17.1,51.6,37.9
				c4.8,8.8,7.9,18.3,10.3,28c0.8,3.2-0.2,5.4-2.6,7.4c-5.5,4.5-11.9,6.6-18.8,7.7c-1.1,0.2-2.5-0.1-3.5,0.9
				c1.4,0.9,2.8,0.6,4.2,0.6c14.8,0,29.6,0,44.4,0c0.9,0,1.8-0.2,2.8-0.3c0,0.9,0,1.9,0,2.8c-1.7-0.6-3.4-0.3-5.1-0.3
				c-15.4,0-30.8,0-46.3,0c-6.5,0-13.1,0.2-19.6-0.1c-3.5-0.1-5.6,1.1-6.7,4.3c-0.2,0.6-0.5,1.1-0.8,1.7c-1.9,3.7-2.2,3.7-5.2,1
				c-2.1-1.9-4.3-3.5-6.5-5.3c-1.1-0.9-2.3-1.6-3.8-1.5c-10.7,0-21.5,0-32.2,0.1c-2.9,0-3.1,2.4-3.3,4.3c-0.2,2.1,1.9,1.5,3.1,1.5
				c9.8,0.1,19.6,0,29.4,0.1c1.6,0,3.3-0.4,5.1,0.9c-1.8,1.4-3.5,0.9-5.1,0.9c-9.7,0-19.3,0-29,0c-1.2,0-2.5-0.1-3.7,0.1
				c-1.7,0.2-4.4,3.8-3.9,5.2c0.7,2,2.6,1,4,1.2c1.1,0.1,2.2,0,3.3,0c15.1,0,30.2,0,45.3,0c1.6,0,3.3-0.4,5.3,1.1
				c-5.4,1.5-10.4,0-15.2,1.4c7.5,2.6,14.2,6.8,21,10.7l-0.1-0.1c8.1,8.5,16.2,17.1,24.2,25.6c0.8,0.9,1.7,1,2.9,1
				c5-0.1,9.9-0.2,14.9-0.1c1.8,0,4.9-0.8,4.9,0.9c0,2.1-3,1-4.7,1.1c-4,0.2-8.1,0.1-12.1,0.1c-1.7,0-2.4,0.7-1.2,2.2
				c0.7,0.9,1.4,1.7,2.1,2.5c5,6,10.2,11.7,14.7,18c-1.2,0-2.5,0-3.7,0c-8.4-11.4-17.8-22-27.9-31.9c-1.2-1.2-2.6-2.1-3.7-3.5
				c-11.2-15.2-26-24-45.1-25.7c-7.6-0.7-13.7,1.5-19.1,6.6c-5.4,5-9.6,11-13.2,17.4c-2.2,3.8-2.3,3.9-6.7,2.6
				c-2.7-0.8-5.3-1.7-8-2.5c-5.5-1.8-11.1-3.2-16.9-3.2c-10.5,0-18.6,4.4-23.9,13.6c-1.5,2.5-2.6,5.3-3.9,7.9c0-2.5,0-5,0-7.5
				c1.2-1.6,2.4-3.2,3.4-5s4.4-3.3,3.2-5c-1.1-1.6-4.3-0.7-6.6-0.3c0-0.9,0-1.9,0-2.8c4.5,0.4,9.1,1.3,13.3-0.6
				c7.7-3.5,15.6-3.6,23.8-2.2c5.2,1,10.1,3,15.2,4.5c1.9,0.6,3.6,0.9,4.8-1.3c2-3.7,4.4-7.2,6.9-10.6c1.4-1.9,0.5-2.4-1.4-2.4
				c-0.8,0-1.6,0-2.3,0c-18.5,0-37.1,0-55.6,0c-1.5,0-3.1-0.2-4.6,0.3c0-0.9,0-1.9,0-2.8c15.2,0.8,30.5,0.2,45.7,0.3
				c0.7,0,1.7,0.3,1.9-0.8c0.1-0.7-0.6-1-1.1-1.4c-7.1-5.4-12.3-12.3-15.3-20.8c-0.5-1.4-1.4-1.9-2.8-1.9c-9.5,0-19-0.5-28.4,0.2
				c0-0.9,0-1.9,0-2.8c8.4,0.7,16.7,0.3,25.1,0.2c4.8-0.1,4.8-0.2,4-5c-0.1-0.5-0.1-0.9-0.2-1.4c-0.2-0.9-0.5-1.9-1.8-1.3
				c-2.9,1.4-3-0.9-3.4-2.7c-1.3-6.6-0.8-13,1.6-19.2c1-2.5,0.6-3.3-2.3-2.9c-5.6,0.8-10.1-1.2-12.9-6.3c-0.5-1-1.2-1.8-2.3-2.1
				c-4.1-1.4-6-4.1-5.7-8.5c0.1-1.5-0.6-2-2-1.4c0-1.2,0-2.5,0-3.7c8.6-1.1,14.4-5.8,18.1-13.4c0.7-1.4,0.9-2.5-0.7-3.5
				c-5.4-3.3-6-8.3-4.3-13.8c0.6-1.9-0.2-2.6-1.5-3.2c-4.6-2.4-8.1-6.1-11.6-10c0-1.9,0-3.7,0-5.6c1,1.6,2,3.1,3.1,4.6
				c3.1,4.2,7.1,7.4,11.9,9.5c2.8,1.2,4,0.5,3.6-2.4c-0.6-4.3,1.3-7.4,4.3-9.7c1.9-1.6,3-3.1,3.6-5.5c1-4.2,4.7-5,7.8-1.9
				c1.1,1.1,1.8,2.5,2.3,4c0.5,1.6,1.4,2.2,3.1,2.2c1.4,0,2.3-0.5,2.9-1.8c1.5-3.4,3.7-6.5,6.1-9.3c1-1.1,1.3-2.4,1.2-3.9
				c-0.7-8.8-4.4-15.8-12.7-19.8c-3.9-1.8-7.5-2.1-10.6,1.5c-1.3,1.5-2.8,2.5-4.9,1.8c-2.6-0.9-4.6,0.4-6.2,2.2
				c-1.2,1.4-2.5,2.2-4.5,1.7c-2.2-0.6-3.8,0.8-5.4,2.1c-2.3,1.9-3.6,4.6-5.6,6.8c0-1.9,0-3.7,0-5.6c3.8-3,7-6.8,12.6-6.7
				c2.4,0,3.3-3.2,2-5.6c-1-1.8-2.6-3.1-4.2-4.2c-3.2-2.2-6.8-3.6-10.4-5C7.6,82.7,7.6,81.7,7.6,80.8z M151.3,220.4
				c5.4,0.1,12.5-0.8,19.5-2c3.9-0.7,4.1-1,3.1-5c-2.1-8.3-5-16.4-9.1-24c-14.9-27.9-39.7-38.1-69.7-38.6c-4-0.1-5.3,2.2-4,5.7
				c2.2,6.1,2.2,11.9-2.4,17c-0.5,0.6-1.2,1.3-1.2,1.9c0.1,3.2-1.9,4.8-4.2,6.2c-1.5,1-1.8,2-0.7,3.4c0.7,0.9,1.2,1.8,1.9,2.7
				C100.6,209.8,122.4,220.5,151.3,220.4z M80.5,110.6c3.8,2,7.9,2.3,7.9,6.8c0,0.3,0.7,0.6,1.1,0.8c4.9,1.7,6.8,5.9,8,10.2
				c1.6,5.5,5.3,8.6,10.3,10.6c3,1.2,6.1,2.3,9.3,3c3.4,0.7,3.7,0.6,4.1-2.9c0.8-6.6-1-12.6-3.7-18.5c-0.6-1.4-1.4-2.8-1.9-4.2
				c-0.4-0.9-0.1-1.9,0.7-2.5c0.9-0.7,1.8-0.4,2.6,0.2c1.2,0.9,2.4,2,3.7,2.9c5.4,3.9,11.3,6.5,18.2,6.4c2.6,0,3-0.9,1.7-3
				c-1.1-1.9-2-3.9-2.1-6.1c-0.1-1.6-0.8-3.6,1.2-4.6c1.6-0.8,3,0.3,4.2,1.3c2.2,1.8,4.5,3.3,7.2,4.2c3.1,1,3.7,0.6,3.3-2.6
				c-1.4-10.7-7.1-18-17.1-22c-1.3-0.5-2.7-0.8-4.1-0.4c-5.6,1.7-11.4,1.4-17.1,1.2c-9.6-0.4-9.6-0.3-15.1,7.4
				c-1.1,1.5-2.3,3-3.2,4.6c-1.1,2-2.8,2.7-4.8,3.2c-2.2,0.6-3,0-2.3-2.3c1.1-3.6,2.2-7.2,3.2-10.7c1-3.7,1-3.7-2.5-4.8
				c-1.9-0.6-4-1-5.8-1.9c-3.8-2-8.6-2.7-10.9-6.8c-2.6-4.8-5.1-9.7-8.4-14.1c-3.3-4.3-7.1-7.2-12.7-6.6c-0.7,0.1-1.7-0.1-1.9,0.8
				c-0.2,1,0.7,1.3,1.3,1.7c3.2,2,5.9,4.5,7.6,8.1c0.4,0.8,0.9,1.8,0.3,2.7c-0.7,1.2-1.9,0.8-3,0.6c-2.1-0.5-4.2-1.3-6.3-1.7
				c-1.8-0.3-4.1-1.2-5.2,0.5c-0.8,1.2,1.2,2.6,1.9,3.9c0.7,1.2,1.5,2.4,2.4,3.4c2.4,2.8,3,2.8,6.1,0.8c4.8-3.2,9.8-1.9,12.5,3.2
				c1.4,2.7,1.8,5.6,1.5,8.6c-0.2,1.4-0.2,2.8,0.9,3.9c1.8,1.8,3,1.5,5.5-1.4c2.4-2.8,5.6-4.1,8.2-2.9c3.1,1.3,4.2,4,4.4,7.1
				C92,104.8,88.6,108.9,80.5,110.6z M33.4,214.8c0.3,2.3-1.3,6.1,3.9,5.3c0.9-0.1,1.4,1.2,1.5,2.1c0.2,1.1,0.2,2.2,0.4,3.2
				c1.4,12.9,7.4,23.3,18,30.8c1.6,1.1,3,2.4,4.6-0.2c5-7.9,9.8-15.9,12-25.2c1-4.3,1.3-8.6-0.4-12.9c-2.1-5.5-1.4-6.4,4.2-5.8
				c2.4,0.2,2.8-0.6,2.3-2.6c-1.7-6.5-4.5-12.6-8.8-17.9c-1.2-1.5-2.3-2.3-4.2-0.6c-1.5,1.4-3.9,2.5-5.6,1.4
				c-3.1-2.1-4.5-1.3-5.5,1.8c-0.1,0.4-0.6,0.8-1,0.9c-5.4,0.9-9.6,5.4-15.3,5.1c-1.9-0.1-2.8,0.8-3.5,2.4
				C34.3,206.6,33.3,210.5,33.4,214.8z M73.9,112.6c-7.5,0-12.8,3.7-17,9.3c-1.2,1.6-3.3,3.2-2.8,5.2c0.4,1.7,3.1,0.7,4.6,1.4
				c1,0.5,2.1,0.7,3,1.3c4.1,2.6,4.9,4.8,2.7,9.3c-1.1,2.2,0.5,2,1.5,2.3c4,1.3,6.9,3.5,7.2,8.1c0.1,2,1.6,2.5,3.2,2.7
				c5.5,0.9,10.6-0.5,15-3.6c4.3-3,5-6.9,2.5-11.4c-1.2-2.1-1.6-3.7,0.4-5.3c0.8-0.7,1.1-1.4,0.8-2.5c-0.9-2.7-1.7-5.6-4.1-7.2
				c-2.7-1.8-6.4-2.2-6.6-6.5c0-0.4-1.2-0.9-1.9-1.2C79.7,113.5,76.8,112.8,73.9,112.6z M54.5,189.1c0.1-1.1,0-1.9-0.4-2.6
				c-2.2-3.2-3.8-6.8-4.5-10.6c-0.3-1.3-1.1-1.7-2.4-1.6c-1.5,0.1-3.1,0.2-4.6,0.1c-5.4-0.6-9.2-4.3-9.5-9.1
				c-0.1-1.2,0.5-2.7-1.4-2.9c-1.8-0.2-2.3,1.1-2.9,2.5c-2.6,6.3-7,11-13.2,13.8c-2.7,1.2-3.1,3.3-3,5.7c0,2.3,1.3,3.7,3.5,4.4
				c1.7,0.5,3,1.3,3.9,2.9c3.2,5.3,6,6.5,12,5.2c1.5-0.3,2.9-1,4.5-0.2c3.4,1.8,6.6,0.6,9.8-1c1.7-0.8,3.1-2.3,5-2.4
				C54.2,193.2,54.2,190.9,54.5,189.1z M89.1,163.6c0-1.2,0.1-2.5,0-3.7c-0.5-4-2.2-5.2-6.3-4.7c-2.5,0.3-5,0.4-7.4-0.1
				c-1.3-0.3-2.4-0.4-3.2,1c-2.8,5.1-7.3,6.4-12.7,5.4c-1-0.2-2.6-0.7-2.7,0.8c-0.3,3.8-1.8,6.8-4.4,9.5c-0.5,0.6-0.4,1.5-0.3,2.2
				c0.7,6,3.3,11,8.1,14.7c2.7,2.1,5.4,1.4,6-1.9c0.6-3,2.1-3.7,4.7-4c3.6-0.4,7.1-1.2,10.2-3c1.8-1,3.6-2.1,3-4.7
				c-0.3-1.2,0.2-2.1,1.3-2.7C88.8,170.4,89.6,167.3,89.1,163.6z M171.2,221.8c-6.2,0.4-12.2,1.1-18.3,1.3
				c-20.1,0.7-38.6-4-54.6-16.7c-7-5.6-12.9-12.2-18-19.5c-1.8-2.5-4.2-3.2-6.2-1.5c-2,1.6,0.1,3.1,0.8,4.3
				c13.1,22.5,31.6,36.9,58.4,38.8c9.6,0.7,19.3,1.2,28.8-1.6C165.4,225.9,168.7,224.7,171.2,221.8z M86.9,54.5
				c-4.8,0-8.9,0.5-12.7,2.7c-4.9,2.9-5.2,7.6-0.5,10.8c1.9,1.3,2.7,2.7,3,4.9c0.7,4.7,3.6,8,7.8,9.8c3.3,1.4,6.6,2.7,10.2,3.4
				c7.2,1.5,9.1,0.2,10.4-7.1c0.4-2,1.8-4.3,1.1-5.8c-1-2.2-3.9-0.7-5.9-1c-6.7-1.1-9.4-6.2-6.3-11.9c0.5-1,1.2-1.8,2.2-2.4
				c1.8-1.2,1.3-1.9-0.4-2.2C92.6,55,89.5,54.4,86.9,54.5z M124.2,88.5c6.3,1.7,11.5-2.8,17-6.1c2.1-1.3,2.6-3.3,2-5.7
				c-1.7-6.6-9.8-12.5-17-12.4c-1.3,0-1.8,0.4-2.1,1.8c-1.1,5-3,6.3-8.5,5.9c-5.7-0.4-5.8-0.2-7.3,5.4c-0.6,2.1-0.9,4.3-0.8,6.4
				c0.2,3.6,1.4,5.1,4.7,4.7C115.9,88,119.6,88.7,124.2,88.5z M109.8,27.8c-3.7-0.1-6.6,0.5-8.6,1.7c-2.5,1.5-2.6,2.2-0.4,4
				c3.3,2.6,5.3,6,6.6,10c1.5,4.5,2.1,4.7,6.2,2.2c2.3-1.4,4.9-3.1,7.3-1.1c1.8,1.5,2.9,1,4.5,0.4c1.7-0.7,3.6-1.1,5.4-1.5
				c2-0.4,3.6-1.1,4.1-3.2c0.5-2.2-0.8-3.6-2.3-4.7c-3.2-2.4-6.5-4.8-9.9-7c-2.8-1.9-5.9-2.9-9.2-0.9
				C112.3,28.2,111,27.9,109.8,27.8z M89.3,32.7c-3.4-0.1-7.3,0.8-8.5,3c-2.4,4.6-4.4,9.4-6.2,14.2c-0.6,1.5,0.2,3.4,2.4,2.9
				c5.5-1.4,11.1-1.1,16.7-0.5c1.1,0.1,2.3,0.1,2.5-1.3c0.4-3.7,3.2-4.8,6.2-5.3c2.4-0.4,2.2-1.6,1.6-3.3
				C102.1,36.6,96.5,32.9,89.3,32.7z M134.7,46c-3.9-0.2-7.5,0.8-10.8,2.8c-0.9,0.5-2.1,1.2-1.9,2.4c0.2,1.5,1.7,0.8,2.7,1
				c5.1,1.2,6.1,2.6,4.7,7.8c-0.5,1.9,0.3,2.1,1.6,2.5c4.1,1.2,7.8,3.1,10.8,6.1c2.1,2.2,3.4,2,4.9-0.5c1-1.7,1-3.5,0.6-5.4
				c-0.6-2.6-2.1-4.8-3.5-7c-0.8-1.2-1.6-2.3-0.6-3.8c1.9-2.7,0.3-3.9-2.1-4.7C138.9,46.5,136.8,45.9,134.7,46z M106.4,232.5
				c0.1-0.4,0.2-0.8,0.3-1.2c-7.5-5-14.9-10-22.5-14.9c-2-1.3-4.5-0.9-6.8-1.2c-1.5-0.3-2,0.6-1.5,2c1.5,4.2,1.6,8.5,0.7,12.9
				c-0.3,1.4,0,2.5,1.8,2.5C87.8,232.5,97.1,232.5,106.4,232.5z M22.3,87.7c1.2,1.9,2.1,3.5,3.1,5c1.4,2.4,4.7,3.4,6.6,1.5
				c4.1-3.9,8.3-5.2,13.4-2.1c1.2,0.7,2.3,0.3,2-1.2c-1-5.7-0.1-11.9-5-16.4c-3.3-3-3.1-3.3-4.5,1.2C36,81.2,33.1,85.4,27,86.8
				C25.5,87.2,23.9,86.7,22.3,87.7z M60.9,32.8c0-0.5,0-1.4-0.1-2.4c-0.5-3.8-1.4-4.2-4.7-2c-2.7,1.9-4.6,4.5-6.1,7.5
				c-2,4-2.5,8.6-5.8,12c-1,1.1-0.7,2.7,0.2,3.9c0.9,1.1,2,0.2,3-0.1C55.8,49.1,60.8,42.2,60.9,32.8z M82.5,206.7
				c-0.3,3.5,1,5.9,3.9,7.8c11.3,7.4,22.8,14.7,33.4,23.1c2.2,1.8,3.4,1.5,4.5-1c0.2-0.6,0.6-1.1,0.9-1.6c2.4-4.4,2.4-4.4-2.4-4.9
				c-1.1-0.1-2.2-0.3-3.2-0.6c-12.7-3.6-23.7-10-33-19.4C85.4,208.9,84.5,207.3,82.5,206.7z M47.1,158.2c-1.5-0.2-2.7-0.7-3.7,0.6
				c-1.6,2.1-3.8,3.1-6.5,3c-1.5,0-1.7,1-1.8,2.2c-0.1,2,0.5,3.6,2.2,4.9c3.1,2.4,6.5,3.1,10.1,1.6c3.7-1.5,5.8-4.5,6.1-8.6
				c0.2-3.6-0.6-4.4-4.3-3.8C48.4,158.2,47.6,158.2,47.1,158.2z M48.1,78.5c0.2,5.5,1.1,10.1,1.9,14.8c0.1,0.6,0.4,1.2,0.9,1.6
				c5.3,4.4,8.1,10.1,9.1,16.8c0.1,0.8,0.4,1.5,1.3,1.7c1.1,0.1,5.3-2.7,5.5-3.7c0.6-2.7-1.2-7.4-3.2-7.7c-4.3-0.7-6.9-3.1-8.4-7.2
				c-0.9-2.4-0.9-4.9-0.6-7.3c0.1-1.2,0.8-2.5-0.6-3.4C51.8,82.7,50.4,80.6,48.1,78.5z M23.2,84.2c5.7,0.2,9.9-2.8,11.5-8.2
				c0.5-1.8,0.7-3-1.9-2.7c-3.5,0.5-7.1,0.6-10.5,1.8c-2.2,0.7-4.3,1.7-6.1,3.3c-2.9,2.5-2.7,3.3,0.7,4.6C18.9,83.7,21,84,23.2,84.2
				z M54.5,155.7c0.4,1.9,1.6,2.9,3.4,3.4c6.3,1.6,11.9-2.8,11.9-9.3c0-3.7-3.4-6.8-7-6.3c-1.4,0.2-1.2,1-1.1,2
				C62.7,153.3,61.8,154.6,54.5,155.7z M69.2,259.8c2.4-0.3,5,0.7,7.1-1.2c2.2-2,4.4-3.9,6.9-5.5c0.5-0.3,1.1-0.7,1-1.4
				c-0.2-0.8-1-0.7-1.5-0.7c-3.7,0-7.4,0.1-11.2-0.1c-2.5-0.1-4.2,0.8-5.2,3c-0.8,1.8-3.3,3.4-2.4,5.2
				C64.7,260.6,67.4,259.5,69.2,259.8z M23.2,152c-0.3,4.5,2.5,7.3,6.6,7c1.3-0.1,2-0.5,1.7-2c-0.7-3,0.1-5.6,2.5-7.5
				c1.3-1.1,0.9-1.9,0.1-3.1c-1.5-2.5-3.4-2.9-5.8-1.6C25.1,146.4,23.2,148.8,23.2,152z M67.8,102.5c0,6.2,1,7.3,6.8,7.4
				c4.2,0.1,4.2,0.1,2.7-4.2c-0.4-1.3-0.5-2.7-0.8-4.1c-0.3-1.2-4.3-4-5.4-3.6C69.3,98.9,67.7,100.1,67.8,102.5z M103.1,69.2
				c1.1,0,2.6,0,4.1-0.8c1-0.5,2.1-1.1,2.3-2.2c0.2-1.4-1.2-1.6-2.1-2.1c-1.6-1-2.9-2.3-4.1-3.7c-2.2-2.6-5.8-1.8-6.9,1.4
				C94.6,66.5,96.8,69.1,103.1,69.2z M70.2,90.1c-0.2-0.9,0.2-2.2-0.9-2.8c-1.3-0.7-1.9,0.7-2.6,1.4C65,90.1,63,91,61,91.7
				c-3.5,1.2-3.8,2.8-1.2,5.4c2.4,2.4,5.4,2.4,7.7-0.1C69.4,95.1,69.9,92.7,70.2,90.1z M55.4,130.6c-3.2-0.1-3.5,0.2-2.4,3.1
				c0.5,1.2,1,2.3,0.9,3.6c-0.1,2,0.6,3.2,2.8,3.4c2.5,0.3,4.8,0,6.1-2.3c1-1.7,0.7-3.6-0.8-5.1C60.3,131.4,58,130.7,55.4,130.6z
				 M42.9,32.3c0.1-2.7-2.2-6.1-4.4-6.9c-1.6-0.5-3-0.3-4.2,1c-1.1,1.2-1.6,2.6-0.8,4.2c1.2,2.4,2.8,4.4,5.1,5.8
				c1.6,1,2.6,0.6,3.3-1C42.3,34.3,42.6,33.2,42.9,32.3z M46.7,143.1c-0.3,0.1-0.9,0.1-1.1,0.4c-1.1,1.8-2.9,3.7-2.9,5.6
				c0,1.9,1.5,4,3,5.5c0.8,0.8,2,1,3,0.5c5.4-2.5,0.2-6.2,1.1-9.3C50.5,143.6,48.3,143.5,46.7,143.1z M105.8,89.8
				c-0.2-0.9-0.6-1.6-1.8-1.6c-2.5,0-5.1,1.7-5.8,4.3c-0.9,2.8-1.6,5.7-2.4,8.5c-0.2,0.8-0.9,1.9,0.2,2.4c0.8,0.4,1.4-0.5,1.8-1.1
				c2.4-3.4,4.8-6.9,7.2-10.3C105.5,91.4,106,90.8,105.8,89.8z M42.3,143.2c0.3-3.4-2.3-6.9-5-6.9c-1.9,0-2.5,1.4-2.8,3
				c-0.4,3,2.2,7,4.7,7C41.4,146.2,42,144.7,42.3,143.2z M104,47.4c-0.6,0.1-0.9,0.1-1.2,0.1c-1.8,0.4-3.9,0.8-4.3,3
				c-0.4,2,0.8,4.1,2.2,4.8c1.6,0.8,3.1-0.9,4.3-2.3c0.8-0.9,1.7-1.8,2.5-2.8s0.4-1.8-0.6-2.1C105.8,47.8,104.8,47.6,104,47.4z
				 M121.5,61.1c4.1-0.1,6.8-1.7,6.5-3.9c-0.3-2.7-2.5-2.9-4.5-3c-1.9-0.1-4.4,3.4-4.1,5.7C119.6,61.3,120.6,61.1,121.5,61.1z
				 M38.1,150.9c-2-0.1-3.8,1.7-3.9,3.9c-0.1,2.3,1.3,4,3.5,4.1s3.8-1.5,3.9-3.8C41.7,152.8,40.1,151,38.1,150.9z M59.4,148.9
				c-0.1-3-2.1-5.7-4.1-5.4c-2.2,0.3-2.4,2.1-2.3,3.8c0.1,2.6,1.9,5,3.9,5C59.1,152.2,59.4,150.5,59.4,148.9z M32.5,56.2
				c0.2,3.9,0.4,7.7-0.6,11.5c-0.2,0.7-0.3,1.6,0.6,1.9c0.8,0.3,1.5,0.1,2.2-0.4c1.4-1.2,2-2.8,1.9-4.5
				C36.4,61.4,35.5,58.4,32.5,56.2z M115.8,69.3c1-0.1,2.1-0.2,3.2-0.4c1.4-0.2,2.1-1.2,2.2-2.6c0.1-1.7-0.5-3.1-2.1-3.8
				c-1.5-0.6-1.8,0.8-2.3,1.7c-0.8,1.4-2.2,1.5-3.6,1.8c-0.9,0.2-1.1,1-1,1.8c0.1,0.7,0.6,1.1,1.2,1.2
				C114.2,69.2,114.9,69.2,115.8,69.3z M51.1,137.9c0.1-2.6-1.9-5.5-3.7-5.5c-2-0.1-2.6,1.4-2.6,3.1c0,2.3,2.2,5.1,4,5.1
				C50.6,140.5,51,139.2,51.1,137.9z M26.4,59.8c1.2-0.2,3.2,0.2,2.8-1.9c-0.4-1.9-0.3-4.5-2.8-5.3c-1.7-0.5-3.8,2.1-3.9,4.3
				C22.4,59.7,24.4,59.7,26.4,59.8z M41.7,130.5c0.1-3.1-1.8-6.2-3.5-5.9c-1.6,0.2-1.7,1.6-1.8,2.8c-0.2,2.7,1.8,5.9,3.6,5.7
				C41.8,133,41.5,131.5,41.7,130.5z M117.6,54.7c-0.1-0.9-1.6-0.8-2.7-0.9c-1.6-0.1-3.8,2.8-3.6,4.7c0.1,1.6,0.8,2.7,2.5,2.8
				C115.2,61.5,117.7,57.7,117.6,54.7z M44.2,37.9c-2.2,3-4.1,4.7-6.1,6.3c-1.3,1-0.7,1.9,0.6,2.3c1.9,0.6,3.3-0.2,4.3-1.7
				C44.2,43.1,44.5,41.2,44.2,37.9z M79.4,101.7c0,1.9,0.5,3.7,2.2,4.8c0.8,0.5,1.7,0.8,2.5,0.1c0.7-0.7,0.1-1.4-0.3-2
				c-0.7-1.2-1.4-2.4-2.1-3.6c-0.4-0.6-0.4-1.7-1.4-1.5C79.2,99.7,79.6,100.9,79.4,101.7z M29.5,138c0.1,0.8-0.2,2.3,1.2,2.4
				c1.1,0.1,1-1.4,1.1-2.2c0.3-1.8,1.3-3.1,2.4-4.4c0.6-0.7,0.5-1.4-0.1-2.1c-0.8-0.8-1.4-0.2-1.9,0.4
				C30.8,133.8,29.5,135.5,29.5,138z M63.9,81.1c-1.1,0.2-2.5,0.1-2.2,1.6c0.2,1.5,1,3.1,2.7,3.3c1.5,0.1,2.7-1.3,2.7-2.6
				C67.2,81.5,65.4,81.4,63.9,81.1z M26.7,62.8c-0.5,0.4-2.3-0.6-2.2,1.1c0.1,1.7,1.4,3.3,3.1,3.8c1.8,0.4,1.6-1.4,1.8-2.6
				C29.9,63.1,28.8,62.6,26.7,62.8z M35.2,42.3c1.1-0.5,2.6-1,2.5-2c-0.3-2.1-2.5-2.9-4.1-3.9c-0.9-0.6-1.1,0.7-0.9,1.4
				C33.2,39.5,33.3,41.5,35.2,42.3z"/>
			<path class="st4" d="M7.6,181.8c1.4-0.6,2.1-0.1,2,1.4c-0.3,4.3,1.7,7.1,5.7,8.5c1.1,0.4,1.8,1.1,2.3,2.1
				c2.8,5.1,7.3,7.1,12.9,6.3c2.9-0.4,3.3,0.4,2.3,2.9c-2.5,6.2-2.9,12.7-1.6,19.2c0.4,1.8,0.4,4.1,3.4,2.7c1.3-0.6,1.6,0.3,1.8,1.3
				c0.1,0.4,0.1,0.9,0.2,1.4c0.8,4.8,0.8,4.9-4,5c-8.4,0.1-16.7,0.5-25.1-0.2C7.6,215.5,7.6,198.6,7.6,181.8z"/>
			<path d="M152.5,10.7c-0.4,0.3-0.7,0.6-1.1,0.8c-5,3.3-5.6,8.2-1.3,12.7c3.4,3.6,7.9,4.9,12.6,5.6c2,0.3,3.1-1.2,4.4-2.2
				c6.5-4.8,13.8-6.5,21.6-4.5c7,1.7,9.8,7.1,11.5,13.4c1.5,5.7-0.4,10.4-4.4,14.5c-2.3,2.4-8.4,2.6-11.7,0.5
				c-2.9-1.8-4.2-5.3-3.3-9c0.2-0.9,0.4-2,1.6-1.9c1.3,0.1,1,1.3,1,2.2c0.3,5.8,3.6,8.6,8.5,7.1c3.3-1,4.8-3.9,5.6-7
				c2.2-8.2-4.7-17.4-13.2-17.7c-4.1-0.1-8.1,0.2-11.8,2.1c-8.1,4.2-11.3,11.4-9.3,20.3c0.5,2.3,1,4.6,2.3,6.6
				c1.3,2.1,1.2,3.8,0.3,6.1c-1.1,2.9-1.5,6-1.2,9.2c0.4,4.9,2.9,7.7,7.6,8.7c3.7,0.8,7.5,0.5,11.1-0.2c2.9-0.5,5,0,7.1,2.2
				c3.7,4,8.3,5.3,13.6,3.3c0,0.9,0,1.9,0,2.8c-5.8,2.1-10.8,0.4-15-3.6c-1.9-1.8-3.7-2.4-6.3-1.8c-3.2,0.7-6.5,0.7-9.8,0.3
				c-7.4-1-11.3-5.5-11.3-13c0-2.5,0.2-5,0.9-7.4c0.7-2.3,0.6-4.4-0.3-6.7c-2.6-6.2-3.7-12.6-1.1-19.1c0.7-1.8,0.1-2.6-1.6-3
				c-1.9-0.5-3.9-1.1-5.7-1.9c-5.2-2.2-8.8-6-9.3-11.8c-0.3-3-1.6-2.7-3.7-2.2c-10.5,2.5-21,4.4-31.8,3.6c-5.4-0.4-10.9-1.1-16-2.9
				c-3.6-1.3-7.3-2.7-9.6-6.2c1.6,0,3.1,0,4.7,0c2.6,3.3,6.6,3.9,10.3,4.7c15,3.3,29.7,1.4,44.2-2.7c1.3-0.4,2.8-0.6,3.5-2
				C148.1,10.7,150.3,10.7,152.5,10.7z"/>
			<path d="M7.6,249.1c11.9,0,23.8,0,35.6,0c-0.6,1.1,0.3,0.7,0,1.3c0,0.1-0.2,0.3-0.3,0.3c-11.8,0.7-23.6,0.1-35.4,0.3
				C7.6,250.4,7.6,249.7,7.6,249.1z"/>
			<path d="M7.6,240.7c10.4,0.2,20.8-0.4,31.1,0.3c0,0.5,0,1,0,1.5c-10.4,0-20.7,0-31.1,0C7.6,241.9,7.6,241.3,7.6,240.7z"/>
			<path class="st4" d="M7.6,277.2c2.3-0.4,5.6-1.3,6.6,0.3c1.2,1.8-2.2,3.2-3.2,5c-1,1.7-2.3,3.3-3.4,5
				C7.6,284,7.6,280.6,7.6,277.2z"/>
			<path class="st4" d="M106.4,232.5c-9.3,0-18.6,0-27.9,0c-1.8,0-2.1-1-1.8-2.5c0.9-4.4,0.8-8.7-0.7-12.9c-0.5-1.4-0.1-2.2,1.5-2
				c2.3,0.4,4.8-0.1,6.8,1.2c7.5,4.9,15,9.9,22.5,14.9C106.6,231.7,106.5,232.1,106.4,232.5z"/>
			<path class="st4" d="M22.3,87.7c1.7-1,3.3-0.5,4.8-0.9c6-1.4,9-5.6,10.7-11.1c1.4-4.5,1.2-4.3,4.5-1.2c5,4.6,4.1,10.8,5,16.4
				c0.3,1.6-0.8,2-2,1.2c-5.1-3.1-9.3-1.8-13.4,2.1C30,96,26.7,95,25.3,92.7C24.4,91.1,23.4,89.5,22.3,87.7z"/>
			<path class="st4" d="M48.1,78.5c2.4,2.1,3.7,4.2,5.9,5.5c1.4,0.8,0.8,2.2,0.6,3.4c-0.3,2.5-0.2,4.9,0.6,7.3
				c1.4,4,4.1,6.4,8.4,7.2c2,0.3,3.8,5.1,3.2,7.7c-0.2,1-4.5,3.9-5.5,3.7c-0.9-0.1-1.2-0.9-1.3-1.7c-1-6.7-3.8-12.4-9.1-16.8
				c-0.4-0.4-0.8-1-0.9-1.6C49.1,88.6,48.3,84,48.1,78.5z"/>
			<path class="st4" d="M67.8,102.5c-0.1-2.4,1.4-3.6,3.3-4.4c1.1-0.4,5.1,2.3,5.4,3.6c0.3,1.3,0.4,2.8,0.8,4.1
				c1.4,4.3,1.5,4.2-2.7,4.2C68.9,109.9,67.8,108.7,67.8,102.5z"/>
			<path d="M133.9,262.4c0.1-0.9-2.8-2.6,0.6-2.6c11.4-0.1,22.7,0,34.1,0c0.9,0,2.2-0.1,2,1.1c-0.1,1.1-1.5,0.9-2.4,0.9
				c-9.6,0-19.3,0-28.9,0c-1.9,0-3.7-0.3-5.5,0.4L133.9,262.4z"/>
			<path d="M148.2,274.7c4.6,0,8.4,0,12.2,0c7,0,13.9,0,20.9,0c1.1,0,2.2,0.1,3.2,0.2c0.4,0.1,0.8,0.5,0.7,1
				c-0.1,0.2-0.4,0.6-0.6,0.6c-0.7,0.1-1.5,0.2-2.3,0.2c-10.1,0-20.1,0-30.2,0C150.9,276.8,149.6,276.9,148.2,274.7z"/>
			
				<linearGradient id="SVGID_1_" gradientUnits="userSpaceOnUse" x1="105" y1="-584" x2="105" y2="-908" gradientTransform="matrix(1 0 0 -1 0 -584)">
				<stop  offset="0" style="stop-color:#EB1A21"/>
				<stop  offset="1" style="stop-color:#A51A21"/>
			</linearGradient>
			<path class="st5" d="M210,324c-70,0-140,0-210,0C0,216,0,108,0,0c70,0,140,0,210,0C210,108,210,216,210,324z M199.9,162.6
				c0-46.5-0.2-87.6-0.2-134.1c0-9.4-3.5-18.1-13-18.1c-50.8,0-101-0.4-151.8-0.4c-4,0-8.3,0.5-12.3,0.7
				c-5.9,0.2-11.3,6.1-11.3,11.8c0,93.3-0.4,182.4-0.4,275.8c0,1.5,0.2,1.6,0.3,3.1c0.7,6.6,5,12.6,11.3,12.6
				c55.5,0,107.4,0.2,162.9,0.3c1.9,0,3.6-0.7,5.3-1.7c5.5-3,9.5-6,9.5-12.1C200.1,254,199.9,208.9,199.9,162.6z"/>
			<path d="M200.8,161.4c0.1-9.1,0-18.3,0.1-27.6c0.2-36.3,0.1-72.7,0-109c0-9.1-6.8-15.3-16-15.3c-52.8,0-105.7,0-158.5,0
				c-9.4,0-15.6,6.2-15.6,15.8c0,38.4,0.2,76.7,0.1,115.1c0,29.5-0.4,58.9-0.5,88.4c-0.1,23.5-0.1,47-0.1,70.4
				c0,8,6.5,15.3,13.7,15.3c54.3,0.1,108.6,0,162.9,0c2.2,0,4-0.5,5.9-1.8c5.1-3.5,8.1-7.9,8-14.4
				C200.7,252.7,200.8,207.1,200.8,161.4z M186.5,310.2c-3,0-3.7,0-3.7,0s-103.1,0-154.7,0c-8.3,0-13.1-4.5-13-14.9
				c0-22.8,0-45.6,0.1-68.4c0.1-28.6,0.5-57.2,0.5-85.9c0.1-37.3-0.2-75.1-0.1-112.3c0-7.9,2.5-14.8,12.6-14.8
				c50.2,0,105.1,0.2,155.3,0.2c8.7,0,13,5.3,12.6,14.1c0,35.2,0,106.5,0,106.5v27c0,0,0,91.6,0.1,135.9
				C196,304.4,191.2,309.6,186.5,310.2z"/>
		</g>
		<g>
			<path d="M125.6,189c2.7-5.8,4.9-11.3,6.4-17.1c1-4,4.3-6.1,7.7-5.3c2,0.4,3.2,1.5,1.7,3.4c-3.7,4.9-5.2,10.8-7.9,16.1
				c-3.5,7-6.6,14.2-8,22c-0.4,2.5-1.6,4.3-4.3,4.8c-3.7,0.6-5.3-0.5-5.5-4.3c-0.2-3.3,0-6.6,1.3-9.8c1.1,0.2,1.1,1.2,1.6,1.9
				c0.9,1.1,1.7,0.9,2.3-0.2c0.8-1.3,1-2.8,1-4.3c-0.1-3.6-0.8-4.2-4-2.7c-3.1,1.4-6,1.9-8.9-0.4c-3.2-2.5-3.5-5.8-2.9-9.5
				c0.3-2.1,2-3.8,1.6-6.6c-4.2,2.7-6.6,6.9-11.7,9.3c1.1-3.8,3-6.3,4.1-9.1c0.9-2.2,2.2-4.3-1.1-5.8c-3.4-1.5-4.1-1.4-6.1,2
				c-0.2,0.3-0.5,0.4-1.1,0.9c-1.5-2.6-2.3-5.2-0.5-7.8c1.7-2.5,4.4-1.9,6.8-1.2c1,0.3,1.9,0.6,2.9,0.9c1.8,0.5,2.9,0,3.1-2
				c0.1-1,0.3-2,0.9-2.8c1.4-2.1,3.6-2.5,5.7-1.8c2.3,0.8,1.7,2.7,1.4,4.6c-0.4,2.1-2.9,4.6-0.4,6.4c2,1.4,3.3-1.5,5.1-2.3
				c5.5-2.5,11.2,1.2,10.8,7.2c-0.2,3.2-1.3,6.2-2.9,9C123.7,185.8,123.3,187.3,125.6,189z M122.4,181.3c1.1-2.4,1-4.7,0.2-6.9
				c-0.6-1.6-2-2.4-3.6-1.5c-1.5,0.8-2.3,2.2-1.1,3.7C119.2,178.1,120.2,180.1,122.4,181.3z M113.5,182.3c-1,0.8-1,1.9-0.8,3
				c0.3,1.4,0.5,3.1,2.5,2.9c1.2-0.1,2.4-0.8,2-2.2C116.7,184.2,115.6,182.8,113.5,182.3z"/>
			<path d="M159.6,209.5c-1.6-0.7-1.2-2.2-1.5-3.4c-0.5-2.6-0.9-5.3-1.6-7.8c-1.4-4.9-4.6-8-9.5-9.3c-1.5-0.4-3.1-0.7-4.2,0.7
				c-1.2,1.4,0.3,2.5,0.9,3.5c2.1,3.8,3.7,7.8,4.6,12.1c1.1,5.6-1,9.4-5.2,10.3c-5.4,1.1-10.1-2.1-10.9-7.6
				c-1-7.5,0.5-14.7,5.5-20.6c5.3-6.4,14-6.6,19.8-0.7C163.3,192.6,164.2,202.1,159.6,209.5z M139.1,192.6
				c-2.3,4.9-2.4,9.1-0.7,13.3c0.4,1.2,1.4,1.9,2.8,1.6c1.5-0.3,2.4-1.3,2.2-2.8C142.8,200.7,142.2,196.7,139.1,192.6z"/>
			<path d="M139.8,179.8c1.8-4.4,5.7-6.9,9.9-6.3c1.9,0.3,3.7,0.9,3.6,3.3c-0.1,2.3-1.8,3-3.9,2.8c-1.6-0.2-3.3-0.6-4.9-0.7
				C142.9,178.7,141.6,180.4,139.8,179.8z"/>
		</g>
	</g>
	<g>
		<g>
			<path class="st4" d="M27.8,306l2.4-4.5c4.2-8.3,8.8-17.6,11.3-22.9c-0.2,0-0.5,0-0.6,0c-3.9,0-7.4-0.9-10.4-3
				c-3-1.9-5.3-4.7-6.9-8.2c-1.6-3.3-2.4-7.2-2.4-11.6c0-4.9,0.9-9.1,2.5-12.5c1.7-3.6,4.4-6.4,7.8-8.3c3.3-1.9,7.4-2.8,11.8-2.8
				c4.5,0,8.5,0.9,11.9,2.8c3.5,1.9,6,4.7,7.8,8.5c1.7,3.5,2.5,7.7,2.5,12.5c0,2.7-0.3,5.3-1.1,8.3c-0.6,2.8-1.6,5.6-2.8,8.6
				c-0.2,0.3-0.3,0.8-0.5,1.4c-0.2,0.5-13.6,29.8-13.6,29.8l-0.8,1.9H27.8z M43.4,249.1c-2.2,0-3.1,0.8-3.6,1.4
				c-0.9,1.1-1.4,2.8-1.4,5c0,2.4,0.5,4.1,1.4,5.2c0.5,0.6,1.4,1.4,3.6,1.4c2.2,0,3-0.8,3.6-1.4c0.9-1.1,1.4-2.8,1.4-5.2
				c0-2.4-0.5-3.9-1.4-5C46.5,249.9,45.6,249.1,43.4,249.1z"/>
			<path d="M43.4,235.4c4.1,0,7.4,0.8,10.4,2.5c2.8,1.6,5,3.9,6.6,7.1c1.6,3.1,2.2,6.7,2.2,11.1l0,0c0,2.4-0.3,4.9-0.9,7.5
				c-0.6,2.7-1.6,5.3-2.7,8.2c-0.2,0.5-0.3,0.8-0.5,1.3s-0.3,0.8-0.6,1.3l-13,28.7H33c0,0,14.6-28.4,13.3-28.4l0,0
				c-1.6,0.6-3.5,0.9-5.5,0.9c-3.3,0-6.1-0.8-8.6-2.5c-2.5-1.6-4.4-3.9-5.8-6.9s-2-6.4-2-10.2l0,0c0-4.4,0.8-8,2.2-11.1
				c1.6-3.1,3.6-5.3,6.6-7.1C35.8,236.2,39.3,235.4,43.4,235.4 M43.4,265.2c2.5,0,4.5-0.8,6-2.5c1.4-1.7,2-4.1,2-7.2l0,0
				c0-3-0.6-5.3-2-7.1c-1.4-1.6-3.5-2.5-6-2.5c-2.7,0-4.5,0.8-6,2.5c-1.4,1.7-2,3.9-2,7.1l0,0c0,3.1,0.6,5.5,2,7.2
				C38.6,264.4,40.7,265.2,43.4,265.2 M43.4,229.1c-5,0-9.6,1.1-13.3,3.1c-3.9,2.2-7.1,5.5-9.1,9.7c-1.9,3.9-2.8,8.6-2.8,13.8
				c0,4.9,0.9,9.3,2.7,13c1.9,4.1,4.5,7.2,8,9.4c2.4,1.6,5,2.7,8,3.1c-2.5,5.3-6.1,12.4-9.3,18.7l-4.7,9.1H33h11.8h4.1l1.7-3.6
				l13-28.7c0.2-0.5,0.3-0.8,0.6-1.3c0.2-0.5,0.5-0.9,0.6-1.6c1.3-3.1,2.2-6.1,3-9.1c0.8-3.1,1.1-6.1,1.1-8.9c0-5.3-0.9-10-2.8-14
				c-2-4.2-5.2-7.5-9.1-9.7C52.9,230.2,48.4,229.1,43.4,229.1L43.4,229.1z M43.4,259c-0.5,0-0.9,0-1.3-0.3c-0.2-0.2-0.6-0.9-0.6-3.1
				c0-2.2,0.5-2.8,0.6-3c0.2-0.3,0.9-0.3,1.3-0.3c0.5,0,1.1,0,1.3,0.3c0.3,0.3,0.6,1.3,0.6,3c0,2.4-0.5,3.1-0.6,3.3
				C44.5,258.8,44.3,259,43.4,259L43.4,259z"/>
		</g>
	</g>
</g>
</svg>
