<?xml version="1.0" encoding="utf-8"?>
<!-- Generator: Adobe Illustrator 22.0.1, SVG Export Plug-In . SVG Version: 6.00 Build 0)  -->
<svg version="1.1" id="레이어_2_1_" xmlns="http://www.w3.org/2000/svg" xmlns:xlink="http://www.w3.org/1999/xlink" x="0px"
	 y="0px" viewBox="0 0 210 324" style="enable-background:new 0 0 210 324;" xml:space="preserve">
<style type="text/css">
	.st0{fill:#E07CC4;}
	.st1{fill:#FFC40A;}
	.st2{fill:#EB1A21;}
	.st3{fill:#005CA9;}
	.st4{fill:#FFFFFF;}
	.st5{fill:url(#SVGID_1_);}
</style>
<g>
	<g>
		<g>
			<path class="st0" d="M116.6,207.7c-0.3,1.8,0.7,3.2,2.4,3.7c1.6,0.4,2.9-0.3,3.4-2c1.1-3.4,3.8-5.3,8.1-5.8
				c2.5-0.3,5.2-0.9,7.8-3.4c1-0.9,2.1-1.3,3.2-1c1.2,0.4,2.2,1.6,2.5,3.2c0.4,1.6,0.3,3.2-0.2,4.8c-0.8,2.5,0.5,3.8,1.9,4.8
				c0.8,0.6,1.6,0.9,2.4,0.9c0.8,0,1.5-0.3,2.3-0.8c3.2-2.2,6.9-3.5,10.4-4.5c1.9-0.6,3.1-1.5,3.9-3.1c2.3-4.3,3.6-8.7,3.9-12.7
				v-0.1c0.1-5.5-1.8-9.6-3.5-12.8c-2.6-4.8-6.4-6.7-11.1-5.5c-2.3,0.6-3.6,0.2-4.8-1.1c-1.6-1.9-3.8-2.5-6.8-1.8
				c-1.9,0.4-3.3,0.1-5-1.1c-2.2-1.6-4.4-2-6.4-1.3c-2,0.8-3.5,2.7-4.2,5.5c-2.7,11.5-6.4,22.5-9.3,30.7
				C117.1,205.3,116.7,206.5,116.6,207.7z"/>
			<path class="st0" d="M187.9,226.8c-1.4-1.5-1.6-2-0.9-3c1.8-2.7,0.2-5-0.8-6.5c-7.7-11-21.5-13-33.8-4.9l-1,0.6l0.8,0.9
				c0.7,0.8,1.5,1.5,2.3,2.1c1.2,1,2.2,1.9,2.8,3.2c1.1,2.3,1.9,4.2,1.3,6.3c-0.6,2-2.3,2.8-5.2,3.9l-1.5,0.6l1.2,1.1
				c4.7,4.5,5.7,8.5,3.1,13.1c-1.1,2,0.8,3.7,1.7,4.6c4.2,3.8,9.2,5.7,14.8,5.7c0.5,0,1.1,0,1.7-0.1c5.5-0.4,8.9-3.5,9.3-8.3
				c0.2-3.3,0.6-4.7,3.3-4.9c0.8-0.1,1.4-0.8,1.8-1.3C190.9,237,190.5,229.5,187.9,226.8z"/>
			<path class="st0" d="M163.4,253.5c-2.9-1.4-4.9-2.8-6.6-4.5c-0.9-0.8-2.3-2.3-4.5-1.1c-4.6,2.4-8.9,1.6-13-2.5
				c-0.7-0.7-1.7-1.6-3-1.5c-1.2,0.1-2,1.1-2.7,2.1c-1.2,1.8-3,3-4.9,3.2c-3.7,0.5-5.1,3.1-6,5.8c-0.8,2.3-1.5,5-1.5,8v0.1
				c0,0.4,0.1,0.9,0.1,1.3c0.1,1,0.1,2.1,0.3,3.1c0.1,0.9,0.4,1.8,0.6,2.5c0.8,2.6,2.1,4.2,3.7,4.6c1.5,0.4,3.2-0.3,5-2
				c1.4-1.3,2.3-1.5,4-0.6c3.7,1.9,7.1,3.1,10.4,3.6c0.7,0.1,1.5,0.2,2.2,0.2c1.9,0,3.9-0.6,5.3-2.8c0.7-1.1,1.2-1.3,1.8-1.3
				c7.1,0.3,9.5-4.9,11.6-9.4l0.5-1.1C168.8,256.9,165.8,254.7,163.4,253.5z"/>
			<path class="st0" d="M118.5,248.4c-5.3-3.5-7.1-9-4.4-13.7c0.1-0.2,0.2-0.3,0.4-0.5c0.5-0.7,1.6-2.1,0.1-3.6
				c-2.1-2.2-4.3-0.8-5.2-0.2c-3.1,2-5.2,4-6.8,6.7c-3.4,5.8-7.7,11.5-13,17.5l-0.2,0.2c-0.8,0.9-1.8,2-1.6,3.4
				c0.1,0.8,0.7,1.4,1.6,1.9c4.8,2.5,8.5,5,11.6,7.9c0.5,0.5,1.2,0.7,1.8,0.8c0.1,0,0.3,0.1,0.4,0.1c1.6,0.5,3.3,0.6,4.9,0.8
				c2.1,0.2,4,0.3,5.7,1.3l0.2,0.1h0.2c0.1,0,0.1,0,0.2,0c2.8,0,5.6-3,5.9-6.1c0-0.5,0.1-0.9,0.1-1.4c0.2-2.5,0.3-4.8,1-7.1
				C122.9,251.6,122.7,251.1,118.5,248.4z"/>
			<path class="st0" d="M78.6,55.3c-0.5,0.2-1,0.3-1.4,0.3c-5.5,0.3-6.6-0.6-8-5.9c-0.3-1-0.7-2-2.3-2.3c-3.7-0.6-8.5,1-12.8,4.3
				c-4.1,3.2-6.8,7.2-7.2,10.8c-0.3,3.1,0.8,4.4,1.8,4.9c1.4,0.8,2.7,1.7,4,2.6c3.3,2.3,6.7,4.7,11.5,4.8c2,0,3.9-0.1,5.8-0.2
				c3.3-0.2,6.4-0.4,9.6,0.2l0,0c0.4,0.1,0.9,0.1,1.3,0.1c1.1,0,2-0.3,2.7-0.9c0.9-0.8,1.3-2,1.2-3.6c0-0.4,0-0.8,0-1.2
				c-0.1-1.8-0.1-3.7,0.2-5.4c0.4-2.7,0.2-4.7-0.8-6.7C82.5,54.2,80.2,54.9,78.6,55.3z"/>
			<path class="st0" d="M102.5,63.7c3,0,6,0.1,9,0.3c0.5,0,1,0.1,1.5,0.1c3.6,0,4.8-1.3,5.7-5.4c0.5-2.7,1.3-4.5,3.7-6.1
				c2-1.3,3.1-3.2,3.3-5.3c0.1-2.2-1-4.5-3.1-6.2c-1.6-1.3-3.5-2.2-6.1-2.9c-6.7-1.8-13.5-1.2-20.8,1.7l-1.9,0.8L96,42
				c0.3,0.1,0.5,0.3,0.8,0.4c3.7,2.6,3.7,6.3,3,8.9c-0.8,3.2-3.7,3.9-7.3,4.5c-0.6,0.1-1.3,0.1-2,0c-1.2-0.1-2.7-0.1-4.1,0.5
				l-0.6,0.3v0.7c0.2,4,1.9,5.7,5.8,6.1C95.1,63.6,98.8,63.7,102.5,63.7z"/>
			<path class="st0" d="M70.4,29.9c0.3-0.1,0.6-0.3,0.8-0.5c2.4-2.5,4.2-1.5,7.3,0.3l0.6,0.4c1.5,0.9,2.7,1.5,3.8,1.5
				c0.3,0,0.6-0.1,0.9-0.2c1.3-0.5,2-1.9,2.7-4c1.5-4.6,3.5-7.8,6.3-10.1c1.5-1.2,2.5-2.3,2.3-3.5c-0.1-1.3-1.4-2.1-3.3-3.1
				c-2.7-1.3-5.4-1.4-8.1-1.4s-5.2-0.1-7.3-1.5L76,7.5l-0.4,0.1c-0.4,0.1-0.8,0.1-1.1,0.2c-0.6,0.1-1,0.2-1.5,0.3
				c-5.1,2-9.2,5.4-13.3,8.7c-0.9,0.7-1.7,1.4-2.6,2.1c-1.9,1.5-2.1,3.9-0.5,6.2C57.4,26.3,69.1,30.3,70.4,29.9z"/>
			<path class="st0" d="M88.3,24.7c-0.4,1.2-0.9,2.5-0.2,3.6c0.5,0.8,1.4,1.3,2.7,1.5c3.5,0.6,5.2,2.1,5.6,4.9
				c0.1,0.8,0.4,1.4,0.9,1.7c0.8,0.6,1.9,0.5,2.8,0.4c0.2,0,0.4-0.1,0.5-0.1c4.9-0.4,10.1-0.8,15.3,0.4c0.6,0.1,1.2,0.2,1.7,0.2
				c1.1,0,1.9-0.3,2.5-0.9c0.9-0.9,1.1-2.4,0.6-4.5c-0.4-1.5-1.2-2.7-1.9-3.9l-0.2-0.3c-0.2-0.3-0.4-0.5-0.5-0.8
				c-0.6-0.9-1.2-1.7-1.4-2.7c-1.5-7.3-5.1-10.2-12.5-10C96.6,14.6,90.6,18.5,88.3,24.7z"/>
			<path class="st0" d="M47.2,55.7c0.9,0,1.7-0.5,2.5-1.4c2.8-3.2,6.5-5.5,11.5-6.8c0.9-0.2,1.7-0.5,2.2-1.3s0.3-1.8,0.1-2.6
				c-0.7-2.5-0.8-3.9-0.2-4.8c0.5-0.9,1.9-1.5,4.5-2.1c0.2,0,0.4-0.1,0.7-0.1c0.8,0,1.8-0.1,2.6-1l0.2-0.3V35c0-1-0.3-1.9-1-2.5
				c-4.9-4.6-16.4-5.8-22-2.3c-1.3,0.8-2,1.7-2.2,2.6c-0.1,0.5-0.1,1.2,0.5,2c1.4,1.8,0.8,2.8-0.5,4.8c-0.1,0.2-0.3,0.4-0.4,0.6
				c-1.1,1.7-2.3,3.7-2.9,6c-0.5,2-1,5.1,1.4,7.8C45.1,54.9,46,55.7,47.2,55.7L47.2,55.7z"/>
		</g>
		<g>
			<path class="st1" d="M140.3,224.2c-0.7-1.4-2.1-2.8-3.4-2.9h-0.2l-0.2,0.1c-0.9,0.3-1.7,0.8-2.4,1.3c-0.6,0.4-1.2,0.8-1.8,1.1
				c-1.5,0.6-2.6,2.3-3,4.5c-0.4,1.9-0.3,4.7,1.3,6.2c0.9,0.8,2,1.3,3.3,1.3c0.4,0,0.8,0,1.2-0.1c1.4-0.4,2.4-1.3,2.8-2.5l0.1-0.2
				c0.7-2.1,1.3-4,2.5-5.7C141,226.5,140.9,225.4,140.3,224.2z"/>
			<path class="st1" d="M130.7,222.8c0.2,0,0.4,0.1,0.6,0.1c0.9,0,1.9-0.4,2.7-1c1.5-1.3,2.5-3.4,2.6-5.7c0.1-3.2-1.9-6.2-4.3-6.3
				c-1-0.1-2.1,0.4-3,1.2c-1.5,1.4-2.4,3.7-2.5,6.2v0.1v0.3C127.1,219.5,127.4,222.2,130.7,222.8z"/>
			<path class="st1" d="M123.8,223c-1.4,0-2.7,0.5-3.8,1.5c-1,1-1.6,2.4-1.6,3.8c0,1.4,0.5,2.6,1.5,3.6c0.9,0.9,2.1,1.4,3.4,1.4
				c0.1,0,0.1,0,0.2,0l0,0c1.4-0.1,2.8-0.8,3.8-1.9c0.9-1.1,1.4-2.5,1.3-3.7C128.2,224.8,126.5,223.1,123.8,223z"/>
			<path class="st1" d="M147.8,230.8c-0.2-1.4-0.7-3.9-3.8-4c-1,0-2,0.4-2.8,1.2c-1.3,1.2-2.2,3.2-2.2,5.2c0,1.8,0.5,3.3,1.5,4.2
				c0.6,0.6,1.4,0.9,2.3,0.9c0.1,0,0.3,0,0.4,0c2.6-0.3,4.7-3.5,4.7-7L147.8,230.8z"/>
			<path class="st1" d="M138.8,218.2c0,1.5,0.1,4.6,3.4,5c0.1,0,0.2,0,0.4,0c0.8,0,1.6-0.3,2.3-1c1.3-1.1,2.1-3.1,2.1-5l0,0
				c0-2.8-1.5-4.9-3.6-5c-1-0.1-2.1,0.3-2.9,1.1C139.5,214.5,138.8,216.3,138.8,218.2z"/>
			<path class="st1" d="M77.5,36.4h-0.3c-1.1,0.1-3.3,0.2-3.4,2.8c-0.1,1.8,1.4,4.6,2.8,6c0.7,0.7,1.4,1.1,2.1,1.1c0,0,0,0,0.1,0
				c2.2-0.1,3.6-1.5,3.8-3.9v-0.1c0-1.8-1.2-3.7-2.3-4.7C79.3,36.8,78.4,36.4,77.5,36.4z"/>
			<path class="st1" d="M138.2,211.5c0.3,0.1,0.5,0.1,0.7,0.1c1.8,0,2.8-1.8,3.4-2.9l0.1-0.2c0.5-0.9,1.1-2.2,1-3.7
				c0.1-0.9,0.2-3.5-2.3-4.2c-1.1-0.3-2.8-0.2-4.2,2.4c-0.7,1.2-1.1,2.4-1.3,3.5C135.2,209.2,136.1,211,138.2,211.5z"/>
			<path class="st1" d="M76,35.8c0.6,0,1.3-0.2,1.8-0.5c0.7-0.5,1.1-1.2,1.2-2c0.3-3.3-2.4-3.8-4.3-4.3l-1.6-0.4L73,29.7
				c0,0.3-0.1,0.7-0.2,1c-0.3,1.6-0.8,3.9,2.3,4.9C75.3,35.8,75.7,35.8,76,35.8z"/>
		</g>
		<g>
			<path class="st2" d="M132.7,236.5c-0.9-0.3-1.7-0.7-2.6-1.2c-2.2-1.2-4.6-2.5-7.8-1.2c-0.2,0-0.9-0.3-1.3-0.5
				c-0.2-0.1-0.4-0.2-0.7-0.3c-2.6-1.1-4.1-0.6-5,0.1c-0.9,0.6-2,2-1.8,5c0.3,5.5,5.7,10,12,10h0.1c3.6,0,7-2.3,9.1-6.1
				c0.6-1,1.2-2.4,0.7-3.7C135.1,237.7,134.2,237,132.7,236.5z"/>
			<path class="st2" d="M150.8,231.4l-0.9-0.5l-0.4,1c-2,4.6-3.4,6.6-4.9,7.1c-1.3,0.5-3.2,0-6.4-1.6l-1.2-0.6l-0.2,1.4
				c-0.7,4.9,1.5,7.8,7.2,9.3c1,0.3,1.9,0.4,2.9,0.4c4.1,0,7.6-2.4,9.3-6.7C157.6,237.4,155.6,233.7,150.8,231.4z"/>
			<path class="st2" d="M115.4,228.5c1.5,0,2-1.5,2.3-2.2c0.1-0.2,0.1-0.4,0.2-0.6c1.2-2.2,2.8-3.4,4.9-3.6c0.9-0.1,2.1-0.4,2.8-1.3
				c0.5-0.7,0.6-1.5,0.4-2.5c-0.1-3.9-1.3-5.2-5.1-5.6c-2.6-0.3-5.7,1.1-8.1,3.7c-2.2,2.5-3.1,5.3-2.5,7.7c0.5,2.1,2.1,3.7,4.4,4.3
				C115,228.5,115.2,228.5,115.4,228.5z"/>
			<path class="st2" d="M94.6,42.1c-1-0.3-4-1-5.7,2.1c-0.8,1.4-2.3,2.4-3.6,3.2c-0.2,0.1-0.4,0.2-0.7,0.3c-0.9,0.3-2.3,0.9-2.2,2.7
				c0.1,2.4,2.4,3.3,3.6,3.7c0.9,0.3,1.9,0.5,2.8,0.6c0.3,0,0.6,0.1,0.9,0.1h0.2h0.2c0.6-0.1,1.2-0.2,1.7-0.2c1.4-0.1,2.7-0.3,4-0.9
				c3.1-1.5,2.9-4.5,2.8-5.9C98.5,45.7,97.9,42.9,94.6,42.1z"/>
			<path class="st2" d="M157.9,222.1c-1.1-3.8-3.8-6.4-7.9-7.6l-0.6-0.2l-0.4,0.5c-0.9,1-0.9,2.1-1,3c0,0.5,0,0.9-0.2,1.2
				c-0.3,0.8-0.7,1.6-1.1,2.3l-0.5,1.2c0,0.1-0.1,0.2-0.1,0.3c-0.3,0.5-0.6,1.3-0.4,2.2c0.6,2.3,4.6,4.7,7.5,4.7c0.4,0,0.7,0,1-0.1
				c1.4-0.4,2.6-1.2,3.3-2.5C158.2,225.6,158.4,223.9,157.9,222.1z"/>
			<path class="st2" d="M86.2,36.1c1.5,1.7,3.1,3.6,5.5,4.5l0.3,0.1l0.4-0.1c1.2-0.4,1.7-1.3,2.1-2l0.1-0.2c1.7-3,1.4-4.9,0.8-6
				c-0.6-1.1-2-2.4-5.4-2.6c-1.2-0.1-2.4,0.2-3.4,0.5l-0.2,0.1c-1.6,0.4-2.1,1.2-2.3,1.8c-0.2,0.8,0.1,1.7,0.9,2.7
				C85.4,35.2,85.8,35.6,86.2,36.1z"/>
			<path class="st2" d="M78,48.4c-1.4-0.6-2.3-1-2.6-2c-0.2-0.6-0.6-1-1.1-1.1c-0.2,0-0.5,0-0.7,0c0.4-0.5,0.5-1.1,0.4-1.9
				c-0.4-2.3-1-4-1.9-5.4c-1.4-2.1-3.7-1.5-5.2-1.1c-0.3,0.1-0.5,0.1-0.8,0.2C64.2,37.6,63,39,63,40.8c0,2.2,1.3,3.8,3.6,4.4
				c0.9,0.2,1.8,0.4,2.7,0.5c0.4,0.1,0.8,0.1,1.2,0.2h0.4c0.2,0,0.4,0,0.6,0s0.4,0,0.6-0.1c-0.7,0.5-1.2,1.2-1.2,1.2
				c-1.2,1.6-1.4,3.5-0.4,5.2c1,1.9,2.9,2,4.3,2.2c0.4,0,0.8,0.1,1.2,0.1h0.2h0.2c0.3,0,0.7,0,1.2,0c1.4,0,3.7,0,3.9-2.2
				C81.6,49.8,79.5,49,78,48.4z"/>
			<path class="st2" d="M125.9,212.6L125.9,212.6c0.6,0,1-0.3,1.4-0.7c1.4-1.7,3.2-2.9,5.5-3.5c1.1-0.3,1.8-1.3,1.8-2.6v-0.3
				l-0.1-0.2c0,0,0-0.1-0.1-0.2c-0.2-0.4-0.4-1-1-1.2c-1.6-0.8-3.9,0.3-5.2,1.1c-2.2,1.3-4.4,3.5-4.4,5.4c0,0.6,0.2,1.2,0.6,1.6
				C124.8,212.4,125.4,212.6,125.9,212.6z"/>
		</g>
		<g>
			<path d="M60.6,188.7c0.3,0,0.6,0,0.9-0.1c1.8-0.4,3.2-2.1,4.2-5c5.4-15.8,9.2-32.2,12.3-46.5c1.4-6.2-0.1-10.8-4.8-14.8l-0.6-0.5
				c-1.9-1.7-3.9-3.4-6.2-4.6c-3.3-1.8-8.4-3.9-13.5-2c-4.6,1.7-6.9,0.7-8.7-3.5c-0.7-1.7-2.2-3.1-3.5-4.3l-0.5-0.5
				c-4.7-4.6-10.5-6.1-17.6-4.7c-4.7,1-7.1,3.8-8.2,6c-1.7,3.4-1.8,7.6-0.3,11c1.3,2.9,2.9,5.3,4.8,7.2c1.8,1.8,1.9,3.4,0.3,5.6
				c-3.1,4.2-4.7,9.2-4.8,15.3v0.1v0.1c0.1,0.7,0.1,1.3,0.2,2c0.1,1.4,0.3,2.9,0.5,4.4c1.3,7.2,4.9,12.9,10.1,15.9
				s11.8,3.3,18.7,0.8c1.1-0.4,2.3-0.9,2.7-0.7s0.9,1.5,1.3,2.6l0.3,0.6c1.8,4.5,3.7,9.2,7.3,12.8C57.3,187.8,59,188.7,60.6,188.7z"
				/>
			<path d="M153.9,278.9c-1-1.6-2.6-2.3-4.7-2.1c-3,0.3-6.1-0.3-9.6-1.7c-2.6-1.1-6.1-2-9.8-0.1c-1.6,0.8-3.4,0.6-5.1,0.3
				c-1.1-0.2-1.5-1-2.2-2.2c-0.5-0.9-1-1.9-2.1-2.4c-1.4-0.7-2.7,0.1-3.8,0.8c-1.2,0.7-2,1.1-2.8,0.7c-2-1.1-4.2-1.3-6.2-1.5
				c-0.6-0.1-1.2-0.1-1.7-0.2c-2.4-0.3-5-0.7-6.6-2.4c-2.3-2.5-5.2-4.1-7.9-5.7c-0.7-0.4-1.5-0.8-2.2-1.3c-1.8-1.1-4-2.1-6.2,0.7
				c-1.9,2.4-4.5,3.4-8.3,3.2c-3.4-0.2-6.8-0.1-10.1,0.1c-1.1,0-2.1,0.1-3.2,0.1c-2.8,0.1-4.3,0.2-5.3,1.2c-0.9,1-0.9,2.5-0.7,5.2
				c0.6,11.6,4.9,17.2,15.7,20.5c2.5,0.8,3.2,1.7,3.2,4.2c0,5.1,2.7,8.8,7.9,10.9c4.9,2,9.4,1.3,14.3-2.1c1-0.7,2.3-1.6,2.9-1.4
				c0.3,0.1,0.7,0.6,1.2,1.4c3.6,7.2,9.3,9,15.2,9c1.8,0,3.7-0.2,5.5-0.4c5.4-0.7,9-4,10.9-9.5c0.6-1.9,1.3-3.9,1.7-4s2.2,1,3.9,2.2
				c4.7,3.1,9.7,3.3,14.4,0.5c4.8-2.8,6.9-7.3,6.1-13.1C157.8,285.6,155.9,282.1,153.9,278.9z"/>
			<path d="M138.2,129.2c0.7,0,1.4-0.2,2-0.4s1.3-0.4,2-0.6c3.3-1.1,6.7-2.2,8.9-4.8c4.2-5.1,8.5-4.9,15.3-4
				c6.1,0.8,12.2-1.1,17.1-5.4c5-4.4,8-10.6,8.1-17.1c0.2-9.9-4.3-14.9-14-15.8c-2-0.2-3.6-0.8-5.3-2c-4.5-3.4-9.4-5.5-14.7-6.3
				c-4.6-0.7-8.7,0.2-11.9,2.7s-5.1,6.5-5.5,11.1c-0.5,6.3-1.2,12.6-1.8,18.5c-0.7,6.2-1.5,13.4-2.4,20.4c-0.2,1.2-0.2,2.6,0.8,3.4
				C137.2,129.1,137.7,129.2,138.2,129.2z"/>
			<path d="M132.5,167.1c1.9-0.1,3.8,0.6,5.7,1.3c2.7,0.9,5.4,1.9,8.5,1.1c0.2,0,0.6,0.2,0.8,0.4c2.8,2.9,6.1,2.7,9.3,2.3
				c2.6-0.3,5.1,0.8,6.8,3.1c5.9,7.9,7.4,15.7,4.4,23.8c-0.1,0.4-0.3,0.8-0.5,1.2c-0.6,1.3-1.2,2.7-1.1,4.7l0.1,1.1l1.1-0.1
				c7-0.9,11.1-4.8,12.4-11.7c0.6-3.3,1.5-7.2,2.9-11.1c2.9-8,1.3-15.4-4.7-20.8c-2.9-2.7-4.5-5.6-5.4-10.2
				c-1.1-5.5-4.9-10.5-9.8-13.1c-3.3-1.8-8.8-3.2-15.7-0.3c-4.5,1.9-8.8,4.8-13.3,8.8c-1.2,1.1-2,2.4-2.3,3.8
				c-0.6,2.6-1.1,5.2-1.6,7.7c-0.3,1.4-0.6,2.9-0.9,4.3c-0.2,0.8-0.3,2,0.4,2.9C130.3,166.9,131.2,167.2,132.5,167.1z"/>
			<path d="M193.1,231.6l-1.1-0.9l-0.5,1.3c0,0.1-0.1,0.3-0.2,0.4c-0.1,0.3-0.3,0.7-0.4,1.2l0.1,0.4c-0.5,3.5-0.9,6.5-4.3,8.2
				c-2,1-2.4,3.2-2.5,5.1c-0.2,2.3-1.3,4.1-3.8,6.1c-2.3,1.8-4.9,2.5-8,2.2h-0.1c-1-0.1-2.2-0.2-3,0.5c-0.5,0.4-0.8,1.1-0.9,2
				c-0.4,5.5-3.5,9.6-8,14l-0.7,0.7l0.7,0.7c1.6,1.7,3.2,2.2,4.6,2.7c0.2,0.1,0.4,0.1,0.6,0.2c2.1,0.7,4,1.1,5.9,1.1
				c5.3,0,9.6-2.9,12.4-8.6c1.5-3,2.4-5.7,2.7-8.2c0.3-2,1.1-2.9,3.4-3.9c5.3-2.1,8.9-6.1,9.6-11C200.2,240.8,198,235.6,193.1,231.6
				z"/>
		</g>
		<path class="st3" d="M139.1,67c-0.9-1-2.3-1-4.9-1.2c-12.5-0.5-25.8-1.1-39.2-1.6c-1.3,0-2.3-0.1-3.2-0.2
			c-2.5-0.2-3.9-0.3-4.9,0.6c-1.1,1-1.1,2.6-1.3,6.3c0,0.6,0,1.3-0.1,2c-1.2,30.9-4.9,58.2-11.2,83.7
			c-9.9,40.3-25.7,73.9-48.3,102.6c-0.1,0.1-0.2,0.3-0.4,0.4c-0.6,0.8-1.5,1.7-1.5,3.3v0.4l0.3,0.3c1,1,2,1.1,2.8,1.1
			c0.1,0,0.2,0,0.3,0h0.1c4.8-0.1,9.7-0.2,14.5-0.2c10.8-0.2,22-0.4,33-0.5c2.6,0,4.3-1.3,5.8-2.6c12.2-11.1,22-25.2,29.1-41.9
			c8.7-20.5,15.3-43.1,20.1-69.2c4.5-24.4,7.6-50,9.5-78.3C139.9,69.5,140,68,139.1,67z"/>
		<path class="st4" d="M2,320.8C2,214.9,2,108.9,2,3c68.7,0,137.3,0,206,0c0,105.9,0,211.9,0,317.8C139.3,320.8,70.7,320.8,2,320.8z
			 M78.1,124.4c-0.5-0.4-1.1-0.7-1.5-1.1c-7.1-8-15.5-12.5-26.5-9.4c-1.6,0.4-2.4-0.3-3.2-1.5c-1.1-1.6-2.2-3.2-3.5-4.7
			c-6.5-7.5-15.1-9.6-24.4-6.1c-2.4,0.9-4.2,2.4-5.5,4.6c-3.7,6.1-3.1,12.5,2.4,19.4c2.2,2.7,2.4,4.5,0.6,7.6
			c-6.7,11.2-4.4,26.7,4.8,35.6c4.8,4.7,10.4,6.4,17.1,5.5c2.5-0.3,5.3-2.9,7.3-1.3c2,1.6,2.5,4.8,3.8,7.2c2.1,3.9,4.4,7.7,8.7,9.6
			c3.7,1.7,3.7,1.7,2.2,5.6c-9,22.8-20.8,44-36,63.2c-1.3,1.7-2.8,3.2-4.1,4.9c-1.4,1.9-0.9,2.9,1.5,3.1c1,0.1,2,0,2.9,0
			c7.8-0.1,15.7-0.2,23.5-0.3c5.8-0.1,5.3,0,5.4,4.8c0,1.1,0.2,2.3,0.3,3.4c1.3,9.4,5.9,16.2,15.4,18.8c2.4,0.6,2.9,2,3.3,4.2
			c1,6.8,5.2,10.7,11.7,12.1c4.2,0.9,8.2,0.3,11.7-2.2c2.1-1.5,3.3-1.2,4.6,1c2.8,4.5,7.3,6.4,12.3,7c11.3,1.4,16.3-1.4,21.5-11.7
			c0.1-0.3,0.5-0.4,0.7-0.6c1.5,0.1,2.6,1.3,4,1.8c5.4,2.2,10.8,2.1,15.4-1.4c5-3.9,7.2-9.2,5.6-15.6c-0.7-2.7-1.8-5.2-3-7.7
			c-0.8-1.7-3.3-3.5-1.8-5.1c1.9-2,3.8,0.8,5.5,1.6c12.1,6,22,2,26.4-10.8c0.2-0.5,0.3-0.9,0.4-1.4c0.5-3.6,2.5-5.5,5.8-7.1
			c7.5-3.8,9.8-10,7.2-18.1c-0.8-2.3-1.8-4.6-3.1-6.6s-1.9-4.1-2-6.4c-0.4-8-4.2-13.5-12-16.1c-2.7-0.9-5.6-1.9-7.4-4.9
			c3.4-3,5.8-6.7,6.3-11.3c0.4-3.5,1.5-6.7,2.6-9.9c2.9-8.3,1.8-16-4.3-22.3c-3.1-3.2-4.7-6.6-5.9-10.8c-3.5-12-13.4-18.7-26-14.6
			c-3.6,1.2-6.9,3-10,5.1c-1.1,0.8-2,2.2-4.1,1.8c0.3-2.4,0.7-4.8,0.9-7.2c0.3-2.7,1.4-4.3,4.3-5.1c5.2-1.5,10.4-3.4,14.3-7.3
			c2.9-2.9,5.5-3.6,9.5-2.7c13.3,3,29.9-7.5,30.3-23.6c0.2-8.7-3.7-15.9-11.2-17.3c-5.1-1-9.6-2.9-13.9-5.5
			c-1.5-0.9-3.2-1.6-4.9-2.2c-6.5-2.3-12.8-2.6-18.8,1.3c-0.6,0.4-1.4,1-2.2,0.2c-0.5-1.4-0.1-2.9,0-4.3c0.5-5.2,0.5-5.2-4.7-5.4
			c-4.7-0.2-9.5-0.3-14.2-0.6c-4.3-0.3-4.2-0.3-3.2-4.7c0.5-2.3,1.9-3.6,3.5-5.1c4.5-4.2,4.7-9.5,0.4-13.6c-1.3-1.3-2.2-2.2-1.5-4.2
			c0.9-2.3,0.2-4.6-1-6.6c-1.5-2.7-2.7-5.5-3.6-8.5c-1.2-4.3-4.3-6.9-8.7-7.7c-2.9-0.5-5.8-1.2-8.7-0.3c-1.7,0.5-3.1-0.1-4.4-1.3
			c-3.2-3.1-7.3-4.2-11.7-4.3c-1.6,0-3.3,0.2-4.9-0.4c-4.8-1.9-9-0.5-12.9,2.3c-3.1,2.2-5.9,4.6-9.1,6.6c-2.3,1.4-4.5,3.6-3.9,6.4
			c0.9,4.2-1.4,4.9-4.6,5.6c-4.2,1-5.7,3.4-4.7,7.6c0.5,1.9,0,3.1-0.9,4.5c-1.3,2.1-2.4,4.3-2.9,6.7c-0.7,3.2-0.5,6.4,2,8.6
			c2.2,2,3,3.8,2.2,6.7c-0.9,2.9,0.2,5.6,2.6,7.4c5.7,4.5,11.7,8.2,19.5,7.7c3.9-0.3,7.8-0.7,11.7,0c4.8,0.8,4.8,0.7,4.5,5.4
			c-0.8,12.4-1.9,24.8-3.6,37.1C79.4,121,79.5,122.9,78.1,124.4z"/>
		<path d="M78.1,124.4c1.5-1.6,1.4-3.4,1.6-5.2c1.8-12.3,2.8-24.7,3.6-37.1c0.3-4.6,0.3-4.5-4.5-5.4c-3.9-0.7-7.9-0.2-11.7,0
			c-7.8,0.5-13.8-3.2-19.5-7.7c-2.4-1.9-3.5-4.5-2.6-7.4s0.1-4.7-2.2-6.7c-2.5-2.2-2.8-5.5-2-8.6c0.6-2.4,1.6-4.6,2.9-6.7
			c0.9-1.4,1.3-2.7,0.9-4.5c-1-4.2,0.5-6.5,4.7-7.6c3.1-0.8,5.4-1.4,4.6-5.6c-0.6-2.7,1.6-4.9,3.9-6.4c3.2-2,6.1-4.4,9.1-6.6
			c3.9-2.8,8.1-4.2,12.9-2.3C81.4,7.2,83,7,84.7,7c4.4,0.1,8.5,1.2,11.7,4.3c1.3,1.3,2.7,1.8,4.4,1.3c3-0.9,5.8-0.2,8.7,0.3
			c4.4,0.8,7.5,3.4,8.7,7.7c0.9,3,2.1,5.8,3.6,8.5c1.1,2,1.9,4.3,1,6.6c-0.7,1.9,0.2,2.9,1.5,4.2c4.3,4.2,4.2,9.5-0.4,13.6
			c-1.6,1.5-3,2.8-3.5,5.1c-1,4.4-1.1,4.4,3.2,4.7c4.7,0.3,9.5,0.4,14.2,0.6c5.2,0.2,5.2,0.2,4.7,5.4c-0.1,1.4-0.5,2.9,0,4.3
			c0.8,0.7,1.6,0.2,2.2-0.2c6-3.9,12.4-3.6,18.8-1.3c1.7,0.6,3.4,1.3,4.9,2.2c4.4,2.6,8.8,4.5,13.9,5.5c7.5,1.4,11.4,8.6,11.2,17.3
			c-0.4,16.1-17,26.6-30.3,23.6c-4-0.9-6.6-0.2-9.5,2.7c-3.9,3.9-9.1,5.8-14.3,7.3c-2.8,0.8-4,2.4-4.3,5.1c-0.2,2.4-0.6,4.8-0.9,7.2
			c2.1,0.4,2.9-1,4.1-1.8c3.1-2.1,6.4-4,10-5.1c12.6-4,22.5,2.6,26,14.6c1.2,4.2,2.9,7.6,5.9,10.8c6.1,6.4,7.2,14.1,4.3,22.3
			c-1.1,3.2-2.2,6.4-2.6,9.9c-0.5,4.5-2.9,8.2-6.3,11.3c1.8,3,4.7,4,7.4,4.9c7.8,2.6,11.7,8,12,16.1c0.1,2.4,0.8,4.5,2,6.4
			c1.3,2.1,2.4,4.3,3.1,6.6c2.6,8,0.4,14.3-7.2,18.1c-3.2,1.6-5.3,3.6-5.8,7.1c-0.1,0.5-0.2,1-0.4,1.4
			c-4.3,12.8-14.2,16.8-26.4,10.8c-1.7-0.9-3.6-3.6-5.5-1.6c-1.5,1.6,1,3.5,1.8,5.1c1.2,2.5,2.3,5,3,7.7c1.6,6.5-0.5,11.8-5.6,15.6
			c-4.6,3.5-10,3.6-15.4,1.4c-1.4-0.5-2.4-1.7-4-1.8c-0.2,0.2-0.6,0.4-0.7,0.6c-5.2,10.3-10.2,13.1-21.5,11.7
			c-5.1-0.6-9.6-2.5-12.3-7c-1.3-2.2-2.5-2.5-4.6-1c-3.5,2.4-7.5,3.1-11.7,2.2c-6.6-1.5-10.7-5.4-11.7-12.1
			c-0.3-2.1-0.9-3.5-3.3-4.2c-9.5-2.6-14.2-9.3-15.4-18.8c-0.2-1.1-0.3-2.3-0.3-3.4c-0.1-4.8,0.4-4.9-5.4-4.8
			c-7.8,0.1-15.7,0.2-23.5,0.3c-1,0-2,0.1-2.9,0c-2.4-0.2-2.9-1.2-1.5-3.1c1.3-1.7,2.8-3.2,4.1-4.9c15.3-19.2,27.1-40.4,36-63.2
			c1.5-3.9,1.5-3.9-2.2-5.6c-4.3-1.9-6.6-5.7-8.7-9.6c-1.3-2.4-1.9-5.7-3.8-7.2c-2-1.6-4.8,0.9-7.3,1.3c-6.6,0.9-12.3-0.9-17.1-5.5
			c-9.1-8.9-11.4-24.4-4.8-35.6c1.9-3.1,1.6-4.9-0.6-7.6c-5.5-6.9-6.1-13.4-2.4-19.4c1.3-2.2,3.1-3.7,5.5-4.6
			c9.3-3.5,17.9-1.4,24.4,6.1c1.3,1.5,2.4,3.1,3.5,4.7c0.8,1.2,1.7,1.9,3.2,1.5c11-3,19.4,1.5,26.5,9.4
			C76.9,123.8,77.5,124.1,78.1,124.4z M25.2,263.1c0.8,0.8,1.7,0.8,2.5,0.8c15.9-0.3,31.7-0.6,47.6-0.8c2.2,0,3.7-1,5.2-2.4
			c12.8-11.7,22.1-25.9,28.8-41.6c9.4-22.1,15.7-45.2,20-69c4.8-25.9,7.7-52,9.5-78.2c0.3-4.8,0.2-4.9-4.6-5.1
			c-13.1-0.6-26.1-1.1-39.2-1.6c-8.8-0.3-8-1.9-8.4,7.8c-1.1,28.3-4.4,56.3-11.2,83.9c-9.3,37.6-24.4,72.4-48.5,103
			C26.2,260.8,25.3,261.6,25.2,263.1z M15.3,147.4c0.2,2.1,0.3,4.2,0.7,6.3c2.5,14.3,13.9,20.9,27.5,15.9c3.6-1.3,3.8-1.3,5.3,2.5
			c1.9,4.7,3.7,9.5,7.4,13.1c3.9,3.8,6.7,3.1,8.5-2c5.2-15.2,8.8-30.7,12.3-46.4c1.3-5.9-0.1-10.1-4.5-13.8c-2.1-1.8-4.1-3.7-6.6-5
			c-4-2.1-8.4-3.5-12.7-2c-4.9,1.8-7.9,0.8-10-4c-0.7-1.7-2.4-3.1-3.8-4.5c-4.7-4.6-10.3-5.7-16.7-4.4c-8.4,1.7-10.1,10.2-7.7,15.6
			c1.2,2.6,2.6,4.9,4.6,6.9c2.3,2.3,2.3,4.4,0.4,6.9C16.7,137,15.4,142,15.3,147.4z M56.4,271.4c0.6,11.1,4.5,16.4,15,19.6
			c2.8,0.8,3.9,2.1,4,5.2c0,4.9,2.6,8.1,7.2,10c4.9,2,9.2,0.9,13.3-2c3.1-2.2,4.3-2.2,5.6,0.4c4.3,8.5,11.6,9.1,19.7,8
			c5.2-0.7,8.4-3.9,10.1-8.9c1.9-5.9,2-5.8,7.1-2.4c4.3,2.9,8.9,3.1,13.4,0.5c4.6-2.7,6.3-6.9,5.6-12.1c-0.5-3.8-2.3-7.1-4.3-10.3
			c-0.9-1.4-2.2-1.8-3.8-1.7c-3.5,0.3-6.8-0.4-10-1.7c-3-1.2-5.9-1.7-9-0.2c-1.8,0.9-3.7,0.8-5.7,0.4c-2.7-0.6-2.7-3.8-4.5-4.7
			c-2-1-4,2.8-6.7,1.4c-2.4-1.3-5-1.2-7.6-1.6c-2.6-0.3-5.4-0.7-7.2-2.7c-2.9-3.1-6.5-4.7-10-6.8c-2-1.2-3.3-1.5-4.9,0.5
			c-2.3,2.9-5.4,3.8-9.1,3.6c-4.4-0.3-8.8,0-13.2,0.2C56.2,266.3,56.1,266.5,56.4,271.4z M190.6,96.8c0.2-9.4-3.8-13.9-13.1-14.8
			c-2.2-0.2-4-0.9-5.8-2.2c-4.2-3.2-9-5.3-14.2-6.2c-8.9-1.4-15.6,3.9-16.3,12.9c-0.5,6.2-1.2,12.3-1.8,18.5
			c-0.7,6.8-1.5,13.6-2.4,20.4c-0.4,2.7,0.6,3.2,2.9,2.4c3.7-1.3,8-2.2,10.4-5.2c4.6-5.7,9.8-5.2,16.2-4.4
			C179.1,119.9,190.4,109.3,190.6,96.8z M167.4,204.9c6.6-0.9,10.3-4.3,11.6-10.9c0.7-3.8,1.6-7.5,2.9-11.2
			c2.7-7.3,1.4-14.4-4.4-19.8c-3.4-3.1-4.8-6.4-5.7-10.8c-1.8-8.9-11.6-18-24.1-12.7c-4.9,2.1-9.1,5.1-13,8.6c-1,0.9-1.7,2-2,3.3
			c-0.9,4-1.6,8-2.4,12c-0.4,1.8,0.1,2.7,2.2,2.6c4.8-0.2,9,3.7,14,2.4c0.5-0.1,1.4,0.3,1.8,0.7c2.4,2.5,5.2,2.4,8.4,2
			c3-0.4,5.8,1,7.7,3.5c5.6,7.5,7.9,15.6,4.6,24.8C168.4,201.1,167.3,202.6,167.4,204.9z M167.7,191.7c0-4.9-1.4-8.7-3.4-12.3
			c-2.2-4-5.3-6.2-10-5c-2.2,0.5-4.2,0.4-5.8-1.5s-3.7-2-5.8-1.5c-2.2,0.5-3.8,0.2-5.8-1.3c-4-2.9-7.9-1.3-9,3.6
			c-2.5,10.5-5.8,20.7-9.4,30.8c-0.4,1.1-0.7,2.2-0.9,3.3c-0.2,1.3,0.4,2.2,1.7,2.6c1.2,0.3,1.9-0.4,2.2-1.4c1.4-4.3,4.9-6,9-6.5
			c2.8-0.3,5-1,7.2-3.1c2.9-2.7,6.5-1.2,7.4,2.7c0.4,1.8,0.3,3.6-0.2,5.3c-0.6,1.8,0.2,2.7,1.5,3.7c1.2,0.9,2.3,0.9,3.6,0.1
			c3.3-2.2,7-3.5,10.7-4.7c1.5-0.4,2.6-1.2,3.3-2.6C166.1,199.9,167.4,195.6,167.7,191.7z M152.9,213.3c1.8,2.1,4.1,3.3,5.2,5.5
			c1.1,2.2,2.1,4.5,1.4,7c-0.7,2.6-3,3.5-5.8,4.6c4.5,4.3,6.4,8.8,3.3,14.3c-0.7,1.3,0.6,2.4,1.5,3.3c4.5,4,9.8,5.8,15.7,5.4
			c5-0.3,8.1-3.1,8.3-7.3c0.2-3.1,0.5-5.5,4.3-5.8c0.4,0,0.8-0.5,1.1-0.9c1.9-2.6,1.6-9.5-0.7-12c-1.3-1.4-2.1-2.5-1-4.2
			c1.4-2.1,0.4-3.7-0.8-5.3C178.1,207.5,164.8,205.4,152.9,213.3z M122.2,263.1c0.1,1.5,0.2,2.9,0.4,4.4c0.1,0.8,0.3,1.6,0.6,2.4
			c1.4,4.3,3.8,5.3,7.1,2.2c1.8-1.7,3.1-1.8,5.1-0.8c3.2,1.6,6.5,2.9,10.1,3.5c2.5,0.4,4.9,0.4,6.5-2.2c0.6-1,1.4-1.8,2.7-1.7
			c6.9,0.3,8.9-5.2,11.1-9.9c1.5-3.1,0.4-5-2.8-6.6c-2.5-1.2-4.9-2.7-6.8-4.6c-1-1-1.9-1.7-3.4-0.9c-5.4,2.8-10.1,1.4-14.2-2.7
			c-1.8-1.8-2.9-1.4-4.1,0.5c-1.3,2-3.3,3.3-5.6,3.6c-3.2,0.4-4.3,2.5-5.2,5.1C122.8,257.9,122.2,260.4,122.2,263.1z M114.2,270.1
			c2.2,0.1,4.8-2.5,5-5.2c0.2-2.9,0.3-5.9,1.2-8.7c1.4-4.5,1.4-4.5-2.5-7c-5.7-3.7-7.7-9.8-4.8-15c0.5-0.9,1.8-1.7,0.6-3
			c-1.3-1.3-2.5-1-3.9-0.1c-2.6,1.7-4.8,3.6-6.5,6.4c-3.7,6.3-8.2,12.1-13.1,17.6c-1.1,1.2-2.7,2.8-0.5,3.9
			c4.3,2.2,8.3,4.7,11.8,8.1c0.4,0.4,1.2,0.5,1.8,0.7C107,269.1,110.9,268.2,114.2,270.1z M79.7,74c2.6,0.4,4.1-0.5,4-3.4
			c-0.1-2.3-0.2-4.6,0.1-6.8c0.4-2.2,0.3-4.1-0.7-6.1c-1.6-3.2-4-1.1-6-1c-5.8,0.3-7.5-0.8-9-6.7c-0.2-0.9-0.6-1.4-1.5-1.5
			c-7.3-1.1-18,7-18.8,14.2c-0.2,1.6,0,3.2,1.3,4c4.9,2.7,8.8,7.1,15,7.3C69.4,74.1,74.6,73.1,79.7,74z M95.9,40.8
			c0.4,0.2,0.8,0.5,1.2,0.7c3.6,2.5,4.4,6.2,3.4,10c-1,3.9-4.6,4.6-8.1,5.2c-1.9,0.3-3.9-0.4-5.8,0.5c0.1,3.2,1.2,4.8,4.9,5.1
			c6.7,0.6,13.4,0.3,20,0.7c4.3,0.3,5.2-0.4,6.1-4.5c0.6-2.8,1.5-4.9,4.1-6.7c3.8-2.5,3.6-7,0.1-9.9c-1.7-1.4-3.6-2.2-5.7-2.7
			C109.4,37.4,102.9,38,95.9,40.8z M160.9,272.9c1.6,1.7,3.3,2.1,4.8,2.6c7.5,2.7,13.5,0.2,17.1-7c1.2-2.5,2.2-5.1,2.6-7.9
			c0.3-2.7,1.6-3.7,4.1-4.7c10.8-4.2,12.3-16,3.1-23.6c-0.2,0.5-0.4,0.9-0.5,1.4c-0.5,3.7-0.9,7.4-4.9,9.4c-1.5,0.7-1.9,2.5-2,4.3
			c-0.2,3-1.9,5-4.2,6.8c-2.6,2-5.5,2.7-8.7,2.4c-1.3-0.1-2.8-0.3-3,1.6C168.9,264.4,165.3,268.7,160.9,272.9z M75.8,8.6
			c-1.2,0.2-1.9,0.3-2.5,0.5c-6,2.4-10.7,6.7-15.6,10.7c-1.6,1.2-1.4,3.2-0.3,4.9c0.5,0.8,11.7,4.6,12.6,4.3c0.2,0,0.3-0.1,0.4-0.3
			c3.3-3.4,6.2-1.3,9.1,0.5c3.6,2.2,4.6,1.9,5.9-2.2s3.2-7.8,6.6-10.6c2.8-2.4,2.6-3.2-0.8-4.9C86.3,9,80.3,11.5,75.8,8.6z
			 M104.4,15.3c-7.4,0.3-13,3.9-15.1,9.7c-0.7,1.8-1.1,3.3,1.7,3.8c3.1,0.5,5.9,1.8,6.4,5.7c0.2,1.9,2,1.3,3.2,1.2
			c5.2-0.5,10.4-0.8,15.6,0.4c3.3,0.7,4.5-0.7,3.7-4c-0.3-1.5-1.2-2.7-2-3.9c-0.8-1.2-1.7-2.3-2.1-3.8
			C114.4,17.5,111.2,15.1,104.4,15.3z M70.4,35c0-0.7-0.2-1.3-0.7-1.8c-4.6-4.3-15.5-5.4-20.8-2.2c-1.2,0.7-2.4,1.9-1.4,3.1
			c2.1,2.7,0.4,4.5-0.9,6.6c-1.1,1.8-2.2,3.6-2.7,5.7c-0.7,2.5-0.6,4.8,1.2,6.9c1.2,1.4,2.4,2.2,4,0.4c3.2-3.7,7.4-5.9,12-7.1
			c1.5-0.4,2.1-0.8,1.6-2.7c-1.5-5.4-0.4-6.9,5.1-8.1C68.6,35.5,69.6,35.8,70.4,35z M125.5,247.5c3.1,0.1,6.3-1.9,8.4-5.5
			c1-1.8,1.4-3.5-1.5-4.4c-3.2-1-5.8-4.1-9.7-2.4c-0.7,0.3-1.8-0.4-2.7-0.8c-3.5-1.5-5.6,0.1-5.4,4.1
			C114.7,243.1,119.5,247.5,125.5,247.5z M137.7,238.3c-0.6,4.4,1.2,6.8,6.5,8.2c4.8,1.2,9.1-1,11-5.7c1.3-3.3-0.4-6.4-4.7-8.5
			C146.7,240.9,144.6,241.8,137.7,238.3z M125,218.4c0-3.5-0.8-4.4-4.2-4.8c-4.8-0.6-10.6,5.6-9.5,10.2c0.4,1.9,1.9,3.1,3.7,3.6
			c1.5,0.4,1.6-1.2,2.1-2.2c1.2-2.3,3-3.8,5.6-4.2C124.5,220.9,125.4,220.2,125,218.4z M89.9,53.8c2-0.3,3.8-0.3,5.5-1
			c2.2-1,2.3-2.9,2.2-4.9c-0.2-2.3-0.8-4.2-3.3-4.8c-1.8-0.5-3.5-0.4-4.6,1.6c-0.9,1.6-2.4,2.6-3.9,3.6c-0.9,0.6-2.5,0.7-2.4,2.1
			c0.1,1.7,1.6,2.3,3,2.8C87.6,53.5,88.9,53.6,89.9,53.8z M149.7,215.5c-1.1,1.3-0.5,2.7-1,3.9s-1.1,2.3-1.6,3.5
			c-0.3,0.6-0.7,1.1-0.5,1.8c0.6,2.1,4.9,4.5,7.3,3.9c2.5-0.6,3.9-3.3,3.1-6.2C155.8,218.7,153.2,216.6,149.7,215.5z M136.9,222.3
			c-1.5,0.5-2.6,1.8-4.1,2.4c-2.7,1-3.5,7.1-1.4,9.1c1.7,1.6,4.9,1.2,5.6-1c0.7-2.2,1.4-4.3,2.7-6.2
			C140.4,225.5,138.3,222.4,136.9,222.3z M127.9,217.2c0.2,1.8,0.3,4.1,3,4.6c2.3,0.4,4.6-2.5,4.7-5.7c0.1-2.6-1.5-5.2-3.3-5.3
			C130.1,210.7,128,213.7,127.9,217.2z M92.1,39.6c0.9-0.3,1.3-1.1,1.7-1.8c2.4-4.1,0.9-6.8-3.8-7.1c-1.1-0.1-2.2,0.3-3.3,0.5
			c-1.7,0.4-2.1,1.4-0.8,2.8C87.7,36.2,89.3,38.6,92.1,39.6z M123.4,232.2c2.3-0.1,4.4-2.3,4.1-4.6c-0.2-2.2-1.5-3.6-3.8-3.6
			c-2.4-0.1-4.4,1.9-4.4,4.3C119.4,230.6,121.2,232.3,123.4,232.2z M70.7,45.1c1,0,2.5,0.3,2.2-1.4s-0.8-3.6-1.7-5
			c-1.2-1.8-3.3-0.8-4.9-0.4c-1.3,0.3-2.4,1.2-2.4,2.7c0,1.9,1.2,2.9,2.9,3.4C68.1,44.7,69.3,44.8,70.7,45.1z M146.9,231.3
			c-0.3-1.4-0.4-3.4-2.9-3.5c-2-0.1-3.9,2.6-4,5.4c-0.1,2.6,1.2,4.3,3.1,4.1C145.1,237,147,234.3,146.9,231.3z M76.2,53.7
			c1.5-0.2,4.1,0.4,4.2-1.3c0.2-3.7-5.1-2.3-6-5.7c-0.3-1-1.9,0.3-2.6,1.2c-0.9,1.2-1.1,2.7-0.4,4.1C72.5,53.8,74.5,53.4,76.2,53.7z
			 M146.1,217.3c0-2.2-1.1-3.9-2.7-4c-2-0.1-3.6,2-3.6,4.9c0,1.8,0.2,3.7,2.6,4C144.3,222.4,146.1,219.9,146.1,217.3z M81.5,42.3
			c0-2.2-2.3-5-4-4.9c-1.1,0.1-2.7,0-2.8,1.9c-0.1,2.1,2.5,6.1,3.9,6C80.7,45.3,81.4,43.9,81.5,42.3z M142.4,204.7
			c0.1-1.4-0.1-2.8-1.5-3.2c-1.5-0.4-2.4,0.7-3.1,1.9c-0.5,1-1,2.1-1.2,3.2c-0.3,1.7-0.1,3.5,1.8,4c1.6,0.4,2.4-1.3,3.1-2.6
			C142,207,142.4,205.9,142.4,204.7z M133.6,205.8c-0.2-0.3-0.3-0.8-0.6-1c-2.2-1-8.1,3.1-8.1,5.6c0,0.3,0.1,0.6,0.4,0.9
			c0.4,0.4,0.9,0.5,1.3,0c1.6-2,3.6-3.2,6.1-3.8C133.1,207.3,133.6,206.8,133.6,205.8z M73.9,29.9c-0.2,2-1.3,4,1.4,4.8
			c1.1,0.3,2.5-0.2,2.6-1.5C78.2,30.6,76.1,30.4,73.9,29.9z"/>
		
			<linearGradient id="SVGID_1_" gradientUnits="userSpaceOnUse" x1="105" y1="910" x2="105" y2="1234" gradientTransform="matrix(1 0 0 1 0 -910)">
			<stop  offset="0" style="stop-color:#EB1A21"/>
			<stop  offset="1" style="stop-color:#A51A21"/>
		</linearGradient>
		<path class="st5" d="M210,324c-70,0-140,0-210,0C0,216,0,108,0,0c70,0,140,0,210,0C210,108,210,216,210,324z M199.9,162.6
			c0-46.5-0.2-87.6-0.2-134.1c0-9.4-3.5-18.1-13-18.1c-50.8,0-101-0.4-151.8-0.4c-4,0-8.3,0.5-12.3,0.7c-5.9,0.2-11.3,6.1-11.3,11.8
			c0,93.3-0.4,182.4-0.4,275.8c0,1.5,0.2,1.6,0.3,3.1c0.7,6.6,5,12.6,11.3,12.6c55.5,0,107.4,0.2,162.9,0.3c1.9,0,3.6-0.7,5.3-1.7
			c5.5-3,9.5-6,9.5-12.1C200.1,254,199.9,208.9,199.9,162.6z"/>
		<path d="M200.8,161.4c0.1-9.1,0-18.3,0.1-27.6c0.2-36.3,0.1-72.7,0-109c0-9.1-6.8-15.3-16-15.3c-52.8,0-105.7,0-158.5,0
			c-9.4,0-15.6,6.2-15.6,15.8c0,38.4,0.2,76.7,0.1,115.1c0,29.5-0.4,58.9-0.5,88.4c-0.1,23.5-0.1,47-0.1,70.4
			c0,8,6.5,15.3,13.7,15.3c54.3,0.1,108.6,0,162.9,0c2.2,0,4-0.5,5.9-1.8c5.1-3.5,8.1-7.9,8-14.4
			C200.7,252.7,200.8,207.1,200.8,161.4z M186.5,310.2c-3,0-3.7,0-3.7,0s-103.1,0-154.7,0c-8.3,0-13.1-4.5-13-14.9
			c0-22.8,0-45.6,0.1-68.4c0.1-28.6,0.5-57.2,0.5-85.9c0.1-37.3-0.2-75.1-0.1-112.3c0-7.9,2.5-14.8,12.6-14.8
			c50.2,0,105.1,0.2,155.3,0.2c8.7,0,13,5.3,12.6,14.1c0,35.2,0,106.5,0,106.5v27c0,0,0,91.6,0.1,135.9
			C196,304.4,191.2,309.6,186.5,310.2z"/>
		<g>
			<path d="M106.8,98.5c0-0.6,0.3-0.9,0.9-0.8c0.4,0,1.3,0.4,2.5,1c1.5,0.7,2.5,1.5,2.9,2.2s0.4,1.9,0.1,3.6l-0.5,2.5l1.5-0.2
				c1-0.1,1.7-0.3,1.9-0.4c0.2-0.2,0.4-0.5,0.4-1c0.1-1.1,1.1-1.2,2.9-0.1c0.3,0.2,0.8,0.5,1.3,0.8c1.6,1,2.5,1.8,2.8,2.3
				s0.2,1.2-0.5,2c-0.4,0.4-0.7,0.6-1,0.6c-0.2,0-0.7-0.2-1.4-0.7c-0.9-0.6-1.9-0.9-2.8-1.1c-1-0.1-2.2,0-3.7,0.4
				c-1.2,0.2-1.9,0.4-2.1,0.7c-0.2,0.2-0.4,0.7-0.5,1.3c-0.2,1.8-0.3,2.8-0.1,3c0.1,0.1,0.5,0,1.3-0.1s1.4-0.6,1.8-1.5
				s0.7-1.3,0.8-1.3c0.3,0,1.3,0.6,2.9,1.7s2.5,1.9,2.8,2.3c0.4,0.5,0.6,0.9,0.6,1.1s-0.3,0.6-0.9,1l-1.2,1.2l-1.8-1.4
				c-0.8-0.6-1.4-0.9-1.7-1c-0.3-0.1-0.9,0-1.6,0.3c-1.2,0.4-2.1,0.6-2.7,0.8c-0.4,0.1-0.7,0.4-0.8,0.6c-0.2,0.3-0.3,1-0.6,2.1
				l-0.3,2.4l1.5-0.1c1.1,0,2.3-0.2,3.5-0.4c1.4-0.2,4.1-0.3,8.2-0.2c0.1,0,0.2-0.4,0.3-1.3c0.1-0.6,0.2-1,0.3-1.3
				c0.2-0.2,0.5-0.3,1.1-0.2c0.7,0.1,1.5,0.5,2.3,1.4c0.8,0.8,1.7,1.6,2.6,2.3c0.9,0.6,1.3,1.3,1.4,2.1c0,0.8-0.4,1.5-1.2,1.9
				c-0.7,0.3-1.4,0.1-1.9-0.6c-0.3-0.3-0.8-0.5-1.6-0.7c-0.7-0.2-2.2-0.3-4.3-0.5c-1.5-0.1-2.7-0.2-3.5-0.3c-0.8-0.1-1.4-0.1-1.8,0
				c-0.4,0-0.9,0.1-1.7,0.2c-0.8,0.1-1.6,0.2-2.5,0.3c-1.9,0.2-3.1,0.5-3.8,1c-0.7,0.5-1.3,0.5-1.9,0.2c-0.4-0.3-0.9-0.4-1.5-0.5
				c-0.7-0.1-1.4,0-2.2,0c-0.8,0.1-1.6,0.2-2.4,0.2c-0.8,0.1-1.6,0.2-2.5,0.3c-0.9,0.1-1.5,0.2-2,0.2c-0.9,0.1-2.2,0.6-3.8,1.4
				c-1.6,0.8-2.6,1.4-3,1.9c-0.2,0.4-0.7,0.5-1.3,0.5c-0.5,0-1.7-0.7-3.7-1.9s-2.9-2-2.9-2.4c0.1-1.1,1.5-1.2,4.1-0.2
				c1.1,0.4,1.8,0.5,2.3,0.5s1.5-0.3,3-0.9c3.1-1.2,7.4-1.9,13.1-2.1c1.1-0.1,1.8-0.4,2-1s0.5-0.9,0.8-0.9c0.2,0,0.4-0.4,0.7-1.4
				c0.3-0.9,0.3-1.5,0.1-1.8c-0.3-0.3-1.7-0.2-4,0.5c-2.1,0.5-3.5,0.8-4.4,0.8s-1.5-0.3-1.8-0.9s-0.4-1.1-0.1-1.6s0.8-0.7,1.4-0.6
				c1.1,0.2,3.4,0,6.9-0.8l2.6-0.6l0.2-2.2c0.1-1.1,0.1-1.7,0-1.9c-0.1-0.2-0.4-0.2-0.9-0.1c-0.9,0.1-2,0.5-3.4,1s-2.3,1-2.7,1.3
				c-0.5,0.4-0.9,0.5-1.3,0.2s-1.2-1.1-2.3-2.6c-0.8-0.9-1.3-1.8-1.5-2.6c-0.2-0.8-0.1-1.4,0.3-1.6c0.5-0.2,0.7-0.1,0.7,0.3
				s0.2,0.6,0.7,0.6s0.9,0.3,1.2,0.7c0.5,0.6,2.9,0.6,7-0.2c1.6-0.3,2.6-0.7,3-1.1s0.7-1.4,0.8-3c0.1-0.6,0-1.1-0.2-1.5
				s-0.6-0.9-1.4-1.5C107.5,100,106.8,99.1,106.8,98.5z M113.9,128.7c0.3-0.3,0.9-0.4,1.7-0.3c0.9,0.1,1.4,0.4,1.6,0.7
				c0.1,0.3,0.8,0.8,1.9,1.5c2.1,1.5,2.3,2.7,0.8,3.9c-0.4,0.3-0.8,2.2-1.1,5.7c-0.3,3.5-0.7,7.4-1.1,11.6c-0.4,4.2-0.9,7-1.5,8.5
				c-0.8,1.6-1.5,2.4-2.1,2.5s-1.5-0.6-2.7-1.9c-1.3-1.4-1.9-2.4-1.8-2.9c0.1-0.7,0.2-1,0.4-1c0.2,0,0.8,0.3,1.6,0.9
				c0.9,0.6,1.4,0.8,1.7,0.6c1.1-0.9,1.8-7.8,2.4-20.7c0.1-2.3,0.1-3.8,0-4.3c-0.1-0.6-0.3-0.9-0.8-1.2c-1-0.6-2.6-0.5-4.8,0.2
				c-0.3,0.1-0.5,0.2-0.5,0.3s0.1,0.4,0.4,0.8c0.4,0.8,0.3,1.5,0,2.3c-0.4,0.8-0.6,2.2-0.8,4.1c-0.2,2-0.2,3,0,3.1s0.5,0,0.7-0.3
				c0.6-0.7,1.6-0.7,3.1,0.1c1.6,0.9,2.1,1.9,1.6,3.1c-0.2,0.3-0.5,0.7-1,0.9c-0.5,0.5-0.8,0.7-1,0.7c-0.2-0.1-0.6-0.3-1-0.8
				c-0.5-0.5-1-0.8-1.4-0.8s-1.5,0.1-3.4,0.3c-3.1,0.4-5.2,0.8-6.1,1c-1,0.2-1.6,0.5-1.8,0.8c-0.2,0.4-0.5,2-0.8,4.9
				c-0.2,2.4-0.5,4-0.9,4.9s-1,1.3-1.9,1.1c-0.7-0.2-0.9-0.9-0.8-2.1c0.4-4.1,1.4-10.3,2.9-18.7c0.3-2,0.5-3.3,0.6-4
				c0-0.7-0.1-1.3-0.4-1.9c-0.8-1.5-0.6-2.2,0.3-2.2c0.6-0.1,1.4,0.4,2.3,1.4l1.3,1.4l-1,4.9c-0.9,4.7-1.3,7-1.1,7.1
				c0,0,0.1,0.1,0.3,0.1c0.4-0.1,1.5-0.4,3.1-0.8c1.6-0.4,2.5-0.7,2.6-0.8c0.2-0.2,0.5-1.3,0.8-3.4c0.4-2.1,0.7-3.5,1-4.4
				c0.2-0.7,0.1-1.3-0.5-1.7s-1.4-0.6-2.5-0.4c-1,0-1.7-0.2-2-0.7c-0.4-0.6-0.3-1.1,0.3-1.6c0.6-0.5,1.3-0.7,2.3-0.6
				c0.8,0.1,2.5-0.1,5.1-0.6C112.1,129.2,113.6,128.9,113.9,128.7z"/>
		</g>
		<g>
			<path d="M75.4,188.5c0.3-0.4,0.6-0.5,0.9-0.4s0.5,0.3,0.6,0.7c0.1,0.3,0.6,0.6,1.7,1.1c1,0.4,1.6,0.8,1.8,1.3
				c0.2,0.4,0.2,1.2-0.1,2.4c-0.3,1-0.3,1.5,0,1.6c0.1,0,0.3-0.1,0.5-0.5c0.5-0.8,1.4-0.8,3,0c1.6,0.9,2.2,2,1.9,3.1
				c-0.1,0.4-0.3,0.7-0.6,1.1c-0.4,0.3-0.7,0.5-0.9,0.5c-0.3,0-0.8-0.3-1.5-0.7c-0.7-0.5-1.3-0.7-1.6-0.8c-0.3-0.1-0.8,0.1-1.5,0.3
				c-0.6,0.2-1.2,0.7-1.8,1.5c-0.6,0.7-0.9,1.5-1.1,2.3c-0.1,0.4,0.2,1,0.9,1.7c0.7,0.7,1.6,1.9,2.7,3.5l1.8,2.5l-2.6,2.7l-1.6-3.1
				c-1.7-3-2.7-4.3-3.2-3.7c0,0-0.1,0.1-0.2,0.2c-1.3,2.5-3.1,5-5.4,7.4s-4.2,3.9-5.7,4.5c-1.3,0.4-1.9,0.4-1.6-0.2
				c0.1-0.5,0.7-1.1,1.8-1.9c1.5-0.9,2.9-2.4,4.4-4.2c1-1.3,2.3-3.6,4.1-6.7c1.8-3.2,2.6-4.8,2.6-5c-0.1-0.1-0.7,0-1.7,0.5
				c-0.5,0.1-1.5,0.4-3,0.9c-1.6,0.4-2.7,0.9-3.5,1.3c-1.4,0.5-2.2,0.7-2.7,0.6c-0.4-0.1-1-0.8-1.6-2.2c-0.9-1.6-1.1-2.5-0.6-2.9
				c0.5-0.3,1-0.2,1.5,0.4c0.5,0.6,1.2,0.9,1.9,0.9c0.4,0,2.3-0.4,5.7-1.1c3.4-0.7,5.2-1.1,5.4-1.2c0,0,0.3-0.5,0.7-1.6
				c0.4-1.1,0.5-1.8,0.2-2.3c-0.4-0.6-0.7-1-0.9-1.3c-0.2-0.3-0.4-0.6-0.6-1s-0.3-0.7-0.4-1C75.3,189,75.3,188.8,75.4,188.5z
				 M79.2,170.7c0.5-0.5,0.9-0.7,1.2-0.5c0.3,0.1,0.6,0.7,0.9,1.6c0.3,1,0.6,1.8,0.9,2.4c0.5,1.2,0.7,2.1,0.7,2.6
				c-0.1,0.5-0.5,1.5-1.4,2.9c-0.3,0.5-0.6,1-0.8,1.4c-0.2,0.4-0.4,0.8-0.6,1.3c0.4,0.1,0.9,0,1.6-0.3c0.6-0.3,1.1-0.7,1.3-1.1
				c0.3-0.6,0.7-0.8,1.1-0.7s1.1,0.6,2,1.4c0.8,0.9,1.5,1.3,1.9,1.4c0.4,0.1,0.5,0.5,0.3,1.4c-0.2,0.8-0.5,1.5-1,1.9
				c-0.4,0.4-0.8,0.5-1,0.5s-0.6-0.4-1.3-0.9c-0.6-0.6-1.1-0.9-1.4-1s-1.1,0.1-2.4,0.4c-3.5,0.8-5.4,1.4-5.5,1.9
				c-0.1,0.4-1.1,1.3-3.2,2.9c-2,1.6-3.1,2.1-3.3,1.7c-0.3-0.4-0.2-0.8,0.2-1c1.1-0.6,2.7-2.5,5-5.7s3.7-5.7,4.2-7.4
				c0.4-1.1,0.5-1.8,0.5-2.1c0-0.4-0.1-0.9-0.4-1.5c-0.5-0.8-0.7-1.5-0.7-2C78.3,171.5,78.6,171,79.2,170.7z M96.4,206.3
				c0.1-0.5,0.4-0.7,0.9-0.5c0.5,0.1,1.2,0.7,2.2,1.7s1.6,1.7,1.7,2c0,0.5-0.6,1.3-1.8,2.6c-1.2,1.3-2.6,2.6-4.4,4
				c-1.9,1.7-2.9,2.6-2.9,2.7c0,0,1.3,0.4,4.1,1c2.7,0.6,4.1,0.8,4.2,0.4c0.2-0.9,0.6-1.3,1.1-1.3s1.1,0.4,1.8,1.3
				c0.7,1,1.3,1.5,1.7,1.3c0.5-0.1,1,0.4,1.4,1.5c0.5,1.1,0.6,2,0.5,2.8s-0.6,1.3-1.3,1.6c-0.5,0.1-0.8,0.1-1.1,0
				c-0.3-0.2-0.7-0.6-1.2-1.3c-0.6-0.8-1.2-1.3-1.8-1.6c-0.6-0.3-2.2-0.8-5-1.4c-6.3-1.5-11.7-1.8-16.2-0.8
				c-2.3,0.4-3.9,0.4-4.9,0.2s-1.7-0.9-2.3-2.2c-0.5-0.9-0.6-1.5-0.3-1.8c0.4-0.3,1.1-0.3,2.1,0.2c0.9,0.4,2.7,0.5,5.3,0.4
				c2.6-0.1,4.1-0.1,4.4-0.1c2,0.1,3.5-0.1,4.5-0.8c1-0.6,3-2.7,6.1-6.1l2.1-2.1l-0.6-1.4C96.4,207.6,96.3,206.9,96.4,206.3z
				 M102.9,190.8c0.9-0.3,1.5-0.3,2-0.2c0.4,0.2,0.9,0.7,1.6,1.6l1.1,1.7l-1.6,1.5c-1.1,1-1.7,1.7-1.7,1.9c-0.1,0.4-0.9,1.6-2.5,3.8
				s-2.6,3.4-3,3.6c-0.5,0.3-1,0.2-1.4-0.3c-0.7-0.8-1.9-1.2-3.8-1.1s-3.4,0.5-4.6,1.4c-0.8,0.7-1.4,0.9-1.7,0.9
				c-0.3-0.1-0.6-0.6-0.7-1.5c-0.2-0.9-0.1-1.5,0.1-1.8c0.2-0.2,0.5-1.5,0.6-3.7c0.2-2.2,0-3.8-0.4-4.7c-1-1.9-0.7-2.7,0.9-2.3
				c1.8,0.4,2.5,2.1,2.1,5.1c-0.2,2.2-0.3,3.5-0.3,3.9c0,0.5,0.2,0.6,0.5,0.6c4.3-0.6,6.8-0.9,7.6-0.9c0.7,0,1.2-0.2,1.5-0.4
				s0.8-1.1,1.5-2.7c1.2-2.3,1.7-3.4,1.5-3.5c-0.1,0-0.2,0-0.5,0.1c-0.5,0.1-1.5,0.1-2.9,0.1c-1.5-0.1-2.7,0-3.6,0.3
				c-0.7,0.3-1.4,0.2-2-0.1s-0.8-0.8-0.7-1.4c0.1-0.6,2.5-1,7.1-1.3C100.9,191.4,102,191.2,102.9,190.8z M103.3,180.5
				c0.3-0.6,0.7-0.9,1.2-0.7s1.4,0.7,2.6,1.7c1,1,1.7,1.8,1.9,2.4c0.2,0.6,0,1.2-0.5,1.9c-0.3,0.4-0.7,0.7-1,0.6c-0.3,0-1-0.3-2-1
				c-1-0.6-1.8-0.9-2.3-1s-1.6-0.2-3-0.1c-2,0.1-3.9,0.4-5.6,0.7c-1.2,0.2-2,0.3-2.3,0.2c-0.3,0-0.6-0.4-0.9-1
				c-0.4-0.7-0.5-1.4-0.3-2.3c0.1-0.5,0.3-0.9,0.4-1c0.2-0.1,0.5,0,1.1,0.3c0.9,0.5,2.9,0.6,5.8,0.3
				C101.5,181.3,103.1,181,103.3,180.5z M85.2,207.7c0.2-0.7,0.4-1.2,0.8-1.3c0.3-0.2,0.7,0,1,0.4s0.5,0.9,0.6,1.6
				c0.1,1.2,0.9,1.2,2.4,0.3c1.8-1.1,2.6-1.1,2.4,0c-0.2,0.7-0.8,1.5-1.9,2.6c-1.2,1.1-1.9,1.9-2,2.5c-0.2,0.6-0.5,1.1-1,1.5
				c-0.4,0.4-0.8,0.6-1.1,0.6c-0.2-0.1-0.5-1.3-0.8-3.7C85.2,209.8,85.1,208.3,85.2,207.7z"/>
		</g>
	</g>
	<g>
		<g>
			<path class="st4" d="M27.8,306l2.4-4.5c4.2-8.3,8.8-17.6,11.3-22.9c-0.2,0-0.5,0-0.6,0c-3.9,0-7.4-0.9-10.4-3
				c-3-1.9-5.3-4.7-6.9-8.2c-1.6-3.3-2.4-7.2-2.4-11.6c0-4.9,0.9-9.1,2.5-12.5c1.7-3.6,4.4-6.4,7.8-8.3c3.3-1.9,7.4-2.8,11.8-2.8
				c4.5,0,8.5,0.9,11.9,2.8c3.5,1.9,6,4.7,7.8,8.5c1.7,3.5,2.5,7.7,2.5,12.5c0,2.7-0.3,5.3-1.1,8.3c-0.6,2.8-1.6,5.6-2.8,8.6
				c-0.2,0.3-0.3,0.8-0.5,1.4c-0.2,0.5-13.6,29.8-13.6,29.8l-0.8,1.9H27.8z M43.4,249.1c-2.2,0-3.1,0.8-3.6,1.4
				c-0.9,1.1-1.4,2.8-1.4,5c0,2.4,0.5,4.1,1.4,5.2c0.5,0.6,1.4,1.4,3.6,1.4c2.2,0,3-0.8,3.6-1.4c0.9-1.1,1.4-2.8,1.4-5.2
				c0-2.4-0.5-3.9-1.4-5C46.5,249.9,45.6,249.1,43.4,249.1z"/>
			<path d="M43.4,235.4c4.1,0,7.4,0.8,10.4,2.5c2.8,1.6,5,3.9,6.6,7.1c1.6,3.1,2.2,6.7,2.2,11.1l0,0c0,2.4-0.3,4.9-0.9,7.5
				c-0.6,2.7-1.6,5.3-2.7,8.2c-0.2,0.5-0.3,0.8-0.5,1.3s-0.3,0.8-0.6,1.3l-13,28.7H33c0,0,14.6-28.4,13.3-28.4l0,0
				c-1.6,0.6-3.5,0.9-5.5,0.9c-3.3,0-6.1-0.8-8.6-2.5c-2.5-1.6-4.4-3.9-5.8-6.9s-2-6.4-2-10.2l0,0c0-4.4,0.8-8,2.2-11.1
				c1.6-3.1,3.6-5.3,6.6-7.1C35.8,236.2,39.3,235.4,43.4,235.4 M43.4,265.2c2.5,0,4.5-0.8,6-2.5c1.4-1.7,2-4.1,2-7.2l0,0
				c0-3-0.6-5.3-2-7.1c-1.4-1.6-3.5-2.5-6-2.5c-2.7,0-4.5,0.8-6,2.5c-1.4,1.7-2,3.9-2,7.1l0,0c0,3.1,0.6,5.5,2,7.2
				C38.6,264.4,40.7,265.2,43.4,265.2 M43.4,229.1c-5,0-9.6,1.1-13.3,3.1c-3.9,2.2-7.1,5.5-9.1,9.7c-1.9,3.9-2.8,8.6-2.8,13.8
				c0,4.9,0.9,9.3,2.7,13c1.9,4.1,4.5,7.2,8,9.4c2.4,1.6,5,2.7,8,3.1c-2.5,5.3-6.1,12.4-9.3,18.7l-4.7,9.1H33h11.8h4.1l1.7-3.6
				l13-28.7c0.2-0.5,0.3-0.8,0.6-1.3c0.2-0.5,0.5-0.9,0.6-1.6c1.3-3.1,2.2-6.1,3-9.1c0.8-3.1,1.1-6.1,1.1-8.9c0-5.3-0.9-10-2.8-14
				c-2-4.2-5.2-7.5-9.1-9.7C52.9,230.2,48.4,229.1,43.4,229.1L43.4,229.1z M43.4,259c-0.5,0-0.9,0-1.3-0.3c-0.2-0.2-0.6-0.9-0.6-3.1
				c0-2.2,0.5-2.8,0.6-3c0.2-0.3,0.9-0.3,1.3-0.3c0.5,0,1.1,0,1.3,0.3c0.3,0.3,0.6,1.3,0.6,3c0,2.4-0.5,3.1-0.6,3.3
				C44.5,258.8,44.3,259,43.4,259L43.4,259z"/>
		</g>
	</g>
</g>
</svg>
