<?xml version="1.0" encoding="utf-8"?>
<!-- Generator: Adobe Illustrator 22.0.1, SVG Export Plug-In . SVG Version: 6.00 Build 0)  -->
<svg version="1.1" id="레이어_2_1_" xmlns="http://www.w3.org/2000/svg" xmlns:xlink="http://www.w3.org/1999/xlink" x="0px"
	 y="0px" viewBox="0 0 210 324" style="enable-background:new 0 0 210 324;" xml:space="preserve">
<style type="text/css">
	.st0{fill:#EB1A21;}
	.st1{fill:#FFC40A;}
	.st2{fill:#FFFFFF;}
	.st3{fill:#FFFDFD;}
	.st4{fill:url(#SVGID_1_);}
</style>
<g>
	<path class="st0" d="M186.7,121.5c-3.2-5.2-5.3-9.7-7-14.5l-0.4-1.3l-1.1,0.8c-4.1,3-7.2,6.4-9.6,10.7c-1,1.8-1.6,2.9-2.2,3.1
		c-0.6,0.3-1.8,0-4-0.5c-6.1-1.3-12.8-2.5-19.7-2.4c-1,0-2.4,0.2-3.1,1.2c-0.7,1-0.4,2.4-0.1,3.3c1.8,5.3,4.5,10.3,8,14.6
		c2.1,2.6,3.2,4,3.3,5.1c0.1,1.2-0.7,2.6-2.3,5.5c-3.4,6.3-3.3,6.9,2.2,11.1l0.4,0.3c0.2,0.2,0.5,0.4,0.7,0.6
		c1.4,1.1,2.2,1.7,2.3,2.3s-0.2,1.7-0.9,3.6l-0.4,1.1l1.2,0.2c5.5,0.9,10.9,0.3,16.9-1.9c0.7-0.3,2.1-0.8,2.5-0.6s0.8,1.6,1.1,2.5
		c0.1,0.3,0.2,0.7,0.2,1c0.3,1.2,0.6,2.6,1.8,3.5l0.4,0.3l0.5-0.1c1.7-0.4,2.1-1.6,2.3-2.3l0.1-0.2c4.5-12.4,7-26.2,7.9-43.5
		C187.6,123.8,187.3,122.5,186.7,121.5z"/>
	<path class="st0" d="M203.3,261.4c-1,0.2-2.1,0.4-3.1,0.5c-3.7,0.6-7.5,1.2-11.1,3.1c-3.4,1.8-3.7,1.7-6.2-1.5
		c-3.6-4.7-8-8.5-13.2-11.6c-2.9-1.7-5.4-1.3-7.4,1.4l-0.3,0.4c-0.8,1.1-1.7,2.3-2.4,3.6c-2.4,4.4-4.2,9.2-5.3,14.8
		c-0.6,3.1-1.9,4.6-4.6,5.6c-5.7,2-10.4,5-14,9.1c-2.3,2.5-2.3,4.8,0,7c0.4,0.4,0.9,0.9,1.3,1.3c0.5,0.6,1.1,1.2,1.7,1.7
		c3.9,3.6,8.8,6.4,14.8,8.5c0.5,0.2,1.8,0.6,1.9,1c0.2,0.4-0.3,1.6-0.5,2.2c-0.5,1.2-0.9,2.4-1.4,3.6l-1.2,3h52.2v-53.8L203.3,261.4
		z"/>
	<path class="st0" d="M84.1,16.9c-4.3-0.1-8.7,0.2-13.2,0.9c-2.1,0.3-3,0-3.6-1.4c-1.4-2.8-3.7-4.7-5.9-6.5l-1-0.8H48.2l0.5,1.4
		c2.7,7.2,5.1,14.7,7.2,23.1c0.5,1.9,0.8,3.1,1.8,3.6s2.1,0,4-0.8c7.2-3.1,14.2-7,21-11.8l0.1-0.1c0.9-0.7,1.9-1.3,2.9-1.9
		c0.3-0.2,0.4,0,0.4,0c0.1,0.2,0.1,0.3,0,0.3c-1,1-1.9,1.7-2.8,2.3c-5.9,4.2-12.4,8-19.3,11.1c-0.2,0.1-0.5,0.2-0.7,0.3
		c-1,0.4-2.6,0.9-3.1,3L60,40.2l0.5,0.4c6.6,4.9,13.6,8.7,22.2,13l0.9,0.4l0.4-0.9c0.8-1.6,2-4.1-0.4-6.4c-0.4-0.4-0.8-1-1.2-1.6
		c-0.5-0.7-1-1.5-1.6-2.1c-0.4-0.4-0.9-0.9-0.9-1.4c0-0.4,0.4-1,1.2-1.7c4.4-4.1,7.3-9.4,8.6-15.9c0.6-2.8,0.7-4.4-0.2-5.5
		C88.6,17.2,87,16.9,84.1,16.9z"/>
	<path class="st0" d="M141.2,62.9l0.4,0.8l0.8-0.3c2-0.8,2.8-2.2,3.3-3.3c0.2-0.3,0.3-0.6,0.5-0.9c4.1-6.2,7.9-10.4,12.3-13.5
		c0.1-0.1,0.3-0.2,0.4-0.3c1.2-0.9,1.3-0.8,1.5-0.5c0.1,0.2,0.2,0.2,0.2,0.2c-0.1,0.2-0.5,0.5-0.8,0.7c-0.2,0.2-0.5,0.3-0.7,0.5
		c-0.3,0.3-0.7,0.6-1.1,0.9c-0.4,0.3-0.7,0.5-1.1,0.8c-5,4.3-9.3,9.8-13.3,17.3l-0.5,1l1,0.4c1.9,0.8,3.4,0.7,4.8,0.7
		c0.3,0,0.5,0,0.8,0c9.4-0.1,16.6,0.2,23.2,1.1c0.3,0,0.7,0.1,1,0.1c0.7,0,1.8,0.1,2,0.4c0.1,0.1,0,0.3,0,0.4s-0.1,0.3-0.1,0.4
		c-0.3,0.2-1.4,0-2-0.2c-0.4-0.1-0.8-0.2-1.2-0.2c-6.6-0.8-13.7-1.1-22.1-1c-0.2,0-0.3,0-0.5,0c-1-0.1-2.8-0.2-3.8,2l-0.3,0.6
		l0.4,0.5c5.4,6.5,9.9,14.3,14.5,25.5l0.7,1.6l1-1.4c2.7-3.6,3.2-7,3.7-10.3l0.1-0.9c0.3-2.3,1.2-3.4,3.1-3.9
		c3.7-1.1,6.7-3.6,9.3-7.8c3-4.8,2.5-6.9-2.3-10c-2.6-1.7-5.3-2.8-8-3.5c-1.1-0.2-1.7-0.6-2-1.1s-0.3-1.3,0-2.4
		c1.2-4.8-0.1-9.5-1.3-13c-0.8-2.4-2.4-3.5-5-3.5c-0.1,0-0.1,0-0.2,0c-4.6,0.1-8.2,0.8-11.4,2.1c-3,1.3-5.1,1-7.6-0.8
		c-4.6-3.4-10.4-4.7-17.1-4.1l-2.3,0.2l1.8,1.5C130.4,45.6,136.2,53.2,141.2,62.9z"/>
	<path class="st1" d="M129.7,110.5v-0.3c-0.1-1.3-0.2-3.2-2.4-4c-0.8-0.3-1.3-1.1-1.9-2c-0.1-0.2-0.3-0.5-0.4-0.7
		c-1.8-2.8-4.1-1.3-4.9-0.9c-7.3,4.6-15.7,10.4-22.3,18.2c-0.1,0.1-0.3,0.3-0.4,0.4c-0.8,0.9-2.1,2.2-1.2,4.4l0.2,0.6h0.7
		c6.7,0.1,13.4-0.8,20.1-2.7c0.8-0.2,1.9-0.5,2.1-0.5c0.2,0.2,0.4,1.2,0.6,2.1c1.4,6.2,4.4,11.4,9.8,16.9l1.8,1.8l-0.1-2.6
		C131.1,130,130.5,120.1,129.7,110.5z"/>
	<path class="st0" d="M161.7,101l-0.6-1.4c-4.5-11.1-9-20.2-16.4-28.6l-1.1-1.2l-0.6,1.5c-0.3,0.9-0.7,1.7-0.9,2.4
		c-0.5,1.4-1,2.5-1.4,3.7c-2.7,7.5-5.6,14-8.9,20c-0.2,0.4-0.4,0.8-0.6,1.2c-0.3,0.7-0.8,1.9-1.2,2c-0.1,0-0.2,0-0.3-0.1
		c-0.3-0.1-0.3-0.2-0.3-0.2c-0.1-0.3,0.5-1.1,0.7-1.6c0.3-0.6,0.7-1.1,0.9-1.7c0.1-0.2,0.2-0.4,0.3-0.7c0.1-0.1,0.2-0.3,0.2-0.4
		c3.4-6.4,6.3-13.2,9-20.8c0.1-0.2,0.1-0.3,0.2-0.5c0.4-0.9,1.1-2.5-0.4-4.1l-0.4-0.4l-0.5,0.1c-3.9,0.8-7.5,2.3-11.1,3.9
		c-1.4,0.6-2.2,1.3-2.4,2.3c-0.3,1.3,0.5,2.4,1.1,3.2c1.6,1.9,2.7,4.1,3.3,6.6c1,4.1,0.4,5.2-3.5,6.8c-2.2,0.9-3.5,1.4-4,2.6
		s0.2,2.5,1.4,4.7c0.2,0.4,0.5,0.9,0.8,1.3c0.2,0.4,0.5,0.7,0.7,1.1c0.8,1.5,1.9,2.2,3.2,2.2c0.7,0,1.5-0.2,2.4-0.7
		c3.4-1.7,6.2-4.3,8.9-8.2c1.3-2,2.3-3.4,2.9-3.5c0.6-0.1,1.8,0.9,3.6,2.4l0.1,0.1c3.4,2.7,7.5,5.7,13.4,5.9L161.7,101z"/>
	<path class="st1" d="M139.5,125l-0.1-0.4c-0.4-1-0.8-2-1.1-3.1c-0.6-2-0.6-3.2-0.2-3.8c0.4-0.6,1.5-0.9,3.4-1.1
		c1.9-0.1,3.9,0,5.8,0h0.6c5.4,0.3,9.9-1.8,14.2-3.8c1.4-0.6,2.9-1.3,4.3-1.9l0.9-0.4l-0.3-0.9c-0.7-2-1.8-2.3-2.6-2.6h-0.1
		c-5.8-1.8-12.7-3.9-20-5.3c-1.8-0.4-3.6-0.5-5.3-0.4c-2.5,0.1-5.4,1.9-6.9,3.6c-1,1.1-1.5,2.3-1.5,3.3l0.3,3.9
		c0.6,8.7,1.2,17.7,1.4,27v1.9l1.5-1.1C140.1,135.7,141.8,131.1,139.5,125z"/>
	<path class="st0" d="M79.4,53.6c-0.2-0.4-0.3-0.8-0.8-1c-7-3.8-13.2-7.3-19.1-11.6c-0.9-0.6-1.7-0.9-2.4-0.7
		c-1.2,0.2-1.9,1.2-2.4,2l-0.2,0.3c-4.6,6.5-7.9,13.6-9.7,21.1l-0.1,0.4c-0.2,0.9-0.4,1.8-0.7,2.6c-0.1,0.2-0.2,0.3-0.2,0.3
		c-1-1.1-2-1.5-2.9-1.4c-1.3,0.2-1.9,1.3-2.4,2.2c-0.2,0.4-0.5,0.8-0.7,1c-1.4,1.2-1.9,3.5-0.5,5.2c0.6,0.8,1.3,1,2,1
		c0.8,0,1.5-0.3,2.1-0.5c0.2-0.1,0.3-0.1,0.5-0.2c7-2.6,12.3-7.5,16-14.7c1.6-3.2,2.4-3.5,5.3-2.2c3.8,1.8,7.2,1.8,10.7,0
		c1-0.5,2.2-0.9,3.5-1.3c0.6-0.2,1.3-0.4,2-0.6l1.1-0.4l-0.6-1C79.6,54,79.5,53.8,79.4,53.6z"/>
	<path class="st0" d="M43.5,64.2l0.4-1.4c2-7.3,5.3-14,10.1-21.3l1.1-1.6L53.2,40c-13.4,0.4-23.8-0.8-33.6-3.8
		c1.3-0.7,2.4-0.3,3.7,0c0.4,0.1,0.8,0.2,1.2,0.3c7.5,1.8,15,2.7,22.4,2.7c0.8,0,1.6,0,2.4,0c1.3,0,2.7-0.2,3.8-0.3
		c1.2-0.1,1.8-0.7,2.1-1.1c0.4-0.6,0.6-1.5,0.3-2.4l-0.2-0.7c-0.3-1.3-0.6-2.6-1-3.8c-1.6-5.2-3.2-10.3-4.7-15.4l-2-6.5h-7.1
		l-0.2,0.7c-1.3,4.7-1.4,9.5-1.4,13.7c0,1.4,0,2.7-0.2,3s-1.5,0.3-2.9,0.4c-4.9,0.3-10.1,1-14.8,3.7l-0.3,0.2
		c-1.4,0.8-3.1,1.8-3.8,5.2l-0.6,2.9l1.7-1.5c1.7,5.2,4.7,9.2,9.2,12.3c2.9,2,5.4,4.5,8.1,7.1c2.2,2.2,4.5,4.4,7.1,6.5L43.5,64.2z"
		/>
	<path class="st0" d="M122.1,54.5c2.3,0.4,4.6,1.1,7.1,1.9c3.1,1,3.1,1.1,2.3,4.2c-0.9,3.5-2.6,6.6-4.5,10.2l-1.5,2.8l2.4-0.8
		c1.1-0.4,2.1-0.7,3.1-1.1c2.4-0.8,4.8-1.7,7.3-2.4c1-0.3,2.3-0.8,2.8-1.9c0.5-1.2,0-2.5-0.5-3.5C136,54.7,131,48,125,42.8
		c-0.2-0.1-0.3-0.3-0.5-0.4c-0.8-0.7-1.8-1.8-3.5-1.5l-0.5,0.1l-0.2,0.4c-1.3,2.4-1.4,4.9-1.5,7.4c0,0.5,0,1.1-0.1,1.6
		C118.5,52.7,119.6,54.1,122.1,54.5z"/>
	<path class="st1" d="M111.1,107.6c3.1-2.1,6.3-4.2,9.4-6.3c0.9-0.6,1.5-1.4,1.6-2.3c0.2-1-0.2-2-1-3.2c-1-1.3-3.2-1.4-4.9-1.1
		c-1.8,0.3-3,1.1-3.4,2.2c-1.4,4.4-4.1,8.1-6.7,11.6L105,110l-0.7,0.2c-1.8,0.4-3-0.6-4.4-1.8l-0.1-0.1c-1.1-0.9-1.9-0.9-2.5-0.7
		c-0.5,0.1-1.2,0.5-1.7,1.6c-1.5,3.4-3,7.4-2.3,12.1l0.3,2l12.9-12.6L111.1,107.6z"/>
	<path class="st1" d="M170,107.5c0.1,0,0.2,0,0.3,0h1.3l-0.4-1.3c-0.1-0.3-0.2-0.6-0.2-0.8c-0.1-0.5-0.3-0.9-0.5-1.4
		c-1.7-3.5-2.8-5.3-4.6-5.5c-1.7-0.2-3.3,1.5-5.7,4.9l-0.7,1l1.4,0.6C163.7,106.2,166.5,107.5,170,107.5z"/>
	<path class="st1" d="M147,96.3c-1.8-1.3-2.8-2-3.9-1.7c-1.2,0.3-1.7,1.5-3,4.1l-0.5,1l1,0.4c2.9,1.1,6.1,1.6,9.9,1.6
		c0.3,0,0.6,0,0.8,0l3.1-0.1l-2.5-1.8c-0.5-0.4-1-0.7-1.6-1.1C149.3,98,148.1,97.2,147,96.3z"/>
	<g>
		<path class="st1" d="M99.9,194.1c-0.3-2.1-0.4-4.3-0.4-6.5c0-0.8,0-1.5,0-2.3c0-1,0.1-1.2,0.2-1.2s0.1,0,0.1,0c0.1,0,0.1,0,0.1,0
			c0.1,0.1,0.1,0.7,0.2,0.9c0,0.2,0,0.4,0,0.5c0.1,0.5,0.1,1,0.1,1.6c0,0.4,0,0.8,0.1,1.2c0.4,5.8,1,11.9,2.6,17.8
			c2.8,10,7.5,17.2,14.3,22.2c1.2,0.9,1.8,1.9,2.2,3.6c0.7,3.2,0.9,6.4,0.6,9.9c-0.6,6.9-2.9,13.3-4.9,18.7
			c-0.5,1.4-1.1,2.9-1.6,4.5c-0.4,1.2-0.4,2.2,0.1,2.9c0.7,1.1,2,1.3,3,1.4c2.3,0.2,3.4-1.2,4.2-2.7c0.6-1.2,1.3-2.4,2-3.6
			c1.5-2.7,3.1-5.6,4.5-8.4c3.1-6,6.5-13.1,8.3-20.6c0.9-3.7,2-8.4-1.2-12.5c-0.7-0.9-0.8-1.8,0.5-3.4c4.2-5.3,5.4-11.6,6-17.1
			c0.9-7.7,0.6-15.9-0.7-26.4c-0.4-3.2-0.8-6.2,1.8-8.7c1.7-1.6,2.2-4,2.5-6.2c0.4-2.9-0.6-4.9-3.2-6.4
			c-19.9-11.9-39.9-12.7-59.4-2.4l-0.2,0.1l-0.1,0.1c-3.7,4.3-8.5,4.2-13.6,4c-1,0-2-0.1-3,0c-0.5,0-1,0-1.5,0c-0.8,0-1.5,0.1-2.2,0
			c-4.7-0.2-9.6-0.7-14.1-3c-4.1-2.1-6.2-4.3-7-7.3c-1.8-7.2,0.2-13.6,6-19c1-0.9,1.9-0.9,3.5-0.6c2.7,0.4,5.5,0.7,8.2,1
			c1.9,0.2,3.8,0.4,5.8,0.7c1.4,0.2,2.9,0.1,4.5-0.2c1.8-0.3,2.8-1.6,2.7-3.3c-0.1-1.8-1.6-2-2.3-2.1c-0.2,0-0.3-0.1-0.5-0.1
			c-0.3-0.1-0.7-0.2-1-0.2c1.5,0.1,3,0.2,4.5-0.3l1.1-0.4l-0.6-1c-0.3-0.5-0.6-0.9-0.8-1.4c-0.5-0.8-1-1.5-1-2.1
			c-0.2-3.4-2.6-4.8-4.6-6c-4.1-2.4-7.1-4.7-9.5-7.2c-5.5-5.8-12.6-7.7-21.6-5.8c-2.1,0.4-3.1-0.2-4.2-1.6l-1.1-1.4
			c-2.3-2.9-4.7-6-7.3-8.8c-1.8-1.9-2.4-3.8-2.3-6.4c0.3-6.6-2.6-12.1-8.4-16.4c-1.2-0.9-3.1-1.9-5.4-0.5L5.5,62v3.2l0.7,0.2
			c5.5,1.5,9.7,8.8,8.4,14.7c-0.5,2.3-0.1,4,1.3,5.9c0.7,0.9,1.4,1.8,2.1,2.7c2.7,3.5,5.4,7,7.4,11c0.8,1.6,2.1,2,3.2,2.3l0.6,0.2
			c1,0.2,1.9,0.5,2.8,0.8c0.3,0.1,0.6,0.2,1,0.3c0.5,0.2,1.5,0.5,1.6,0.8c0,0.1,0,0.2,0,0.3c-0.1,0.3-0.2,0.4-0.2,0.4
			c-0.2,0.1-1-0.3-1.4-0.5s-0.7-0.4-1.1-0.5c-5.9-1.9-11-1.8-16.1,0.4l-1.3,0.6l1,1.1c2.9,3.1,5.9,5.1,9.1,6.2l-0.8,2.6
			c-0.2,0.6-0.4,1.2-0.5,1.9c-0.5,1.9-1,3.7-2,5.3c-0.6,0.9-1.4,1.6-2.4,2.3c-1.3,0.9-2.7,2-3.5,3.8l-0.6,1.4h1.5
			c3.2-0.1,5.8-1.3,7.6-3.5c2.1-2.7,2.7-6.6,1.8-11l-0.6-2.5c1.8,0.5,3.7,0.7,5.8,0.6c0.4,0,0.7-0.1,1.1-0.1
			c0.4-0.1,1.4-0.2,1.6-0.1c0,0,0.1,0.1,0.1,0.4s-0.1,0.4-0.1,0.4c-0.4,0.4-2.1,0.4-2.6,0.3c-3.6-0.2-4.2,2-4.3,4.2
			c-0.4,5.7-2.8,9.4-7.4,11.3c-0.7,0.3-1.8,0.8-2.2,1.9c-0.4,1,0,2.2,0.3,3.1c3.3,7.4,1.9,13.1-4.1,17.4c-0.7,0.5-1.5,1.2-1.6,2.1
			c-0.1,0.7,0.2,1.5,0.9,2.3c4.3,4.9,4.5,10.4,0.6,16.6c-2,3.2-2.4,6.1-1.3,9.9c2.1,7.5,4.5,15.4,9.8,22c3.5,4.4,7.9,7.1,13,8.2
			c1.3,0.3,2.3,0.1,3.1-0.4c0.7-0.5,1.2-1.4,1.4-2.6l0.1-0.4c0.2-1.5,0.5-3.1,0.8-4.5c0.1-0.3,0.1-0.7,0.2-1
			c0.1-0.4,0.2-1.2,0.3-1.4c0,0,0.1,0,0.3,0s0.3,0.1,0.3,0.1c0.1,0.2-0.1,1-0.2,1.5c-0.1,0.3-0.1,0.5-0.2,0.8
			c-1,6.3-2,12.4-2.5,18.7c-1.1,15.9,0.7,27.8,6.1,38.5c1.7,3.4,2.7,6.9,3,10.4c0.4,4.4,0.9,5.2,4.8,5.2c0.3,0,0.6,0,1,0
			c2.1,0,3.3-0.1,4-1c0.7-0.8,0.6-2,0.3-3.9c-0.9-6.7-2.4-11.6-4.8-16c-0.9-1.6-1-2.9-0.4-5c1.8-5.9,4.4-11.7,6.9-17.2l0.6-1.3
			c5.1-11.2,6.6-20.2,4.8-29.2c-0.4-2.2-1.2-4.3-2-6.3c-0.2-0.5-0.4-0.9-0.5-1.4c-0.1-0.2-0.1-0.4-0.1-0.5c0,0,0.1-0.1,0.2-0.1
			c0.1,0,0.3,0.1,0.4,0.3c0.9,1.3,1.3,2.8,1.8,4.3c0.2,0.7,0.4,1.3,0.7,2c0.3,0.8,0.3,1.8,0.4,2.8c0.1,1.9,0.2,4.1,2.2,5.1
			c2.1,1,4.4,0.1,6.4-0.6c0.8-0.3,1.6-0.6,2.4-0.8c1.1-0.3,2.3-0.6,3.2-0.9c5.9-1.8,11.2-3.6,16.3-6.5
			C98.3,200,100.6,198.1,99.9,194.1z M54.1,159c1.1,0,2.1,0.2,3.2,0.4c-0.1,0-0.2,0-0.3,0C56,159.2,55.1,159.2,54.1,159z
			 M55.2,165.3c1-0.2,2-0.2,3.2,0C57.3,165.5,56.2,165.4,55.2,165.3z M59.5,171.2c-0.4,0.1-0.9,0.2-1.3,0.2
			C58.6,171.3,59.1,171.2,59.5,171.2z M76.3,165.1c-0.8,0.2-1.7,0.3-2.6,0.2C74.5,165.2,75.3,165.1,76.3,165.1z M74.1,159.4
			c-0.8,0.1-1.7,0.2-2.5,0.1C72.4,159.4,73.3,159.4,74.1,159.4z M109.1,160.5c-0.5,0-1,0-1.5-0.1
			C108.1,160.3,108.6,160.4,109.1,160.5z M87.4,152.9c0.6-0.3,1.2-0.5,1.8-0.7C88.7,152.4,88.1,152.7,87.4,152.9z M91.6,156.7
			c-0.5,0.2-0.9,0.4-1.4,0.5C90.6,157,91.1,156.9,91.6,156.7z M125.3,162.5c-0.6-0.1-1.1-0.3-1.7-0.6
			C124.1,161.9,124.6,162.1,125.3,162.5z M126.2,151.9c0.9,0.2,1.8,0.5,2.8,0.9C128.1,152.6,127.1,152.3,126.2,151.9z M54.5,110
			c-0.2-0.2-0.4-0.4-0.6-0.6c-1.7-1.7-3.4-3.4-6.2-2.4c-0.6,0.2-1.1,0.7-1.3,1.5c-0.3,0.9-0.1,1.8,0.3,2.5c0.9,1.4,2,1.8,3.1,1.8
			c1,0,1.9-0.3,2.9-0.7c0.5-0.2,1-0.3,1.5-0.5l0.7-0.2c-0.2,0.2-0.5,0.3-0.8,0.5c-1.6,0.7-3.5,1.1-4.7,1l0,0l0,0l0,0
			c-3.7,0-6.4-1-8.9-3.2c-0.5-0.5-0.6-0.7-0.6-0.8c0-0.1,0.2-0.4,0.6-0.7c1.9-1.6,4.6-2.3,7.5-2c2.8,0.3,5.2,1.5,6.7,3.2
			c0.4,0.5,0.6,0.9,0.7,1.1L54.5,110z M65.9,120.8c-0.5,0-0.9,0-1.3-0.1c0.6,0,1.2,0.1,1.8,0.1l0,0C66.2,120.9,66,120.8,65.9,120.8z
			"/>
		<path class="st1" d="M75.2,16.3l0.5-0.1c0.6-0.1,1.2-0.1,1.8-0.2l1.3-0.1c2.7-0.2,5.6-0.3,8.3,0.2c3.6,0.7,4.4,1.8,4,5.4
			c-0.7,6.2-3.1,11.7-7,16.5c-2.9,3.7-2.6,4.3,1.1,7.9l0.9,0.8l0.7-1c1.4-2.1,3.2-4.5,5.7-6.2c1.8-1.2,3-1.3,4.4-0.2
			c1.6,1.3,3.3,2.4,5,3.7c0.8,0.6,1.6,1.1,2.4,1.7l1,0.7l0.5-1.1c1.9-4.4,3.8-9.8,2.9-15.6c-0.1-0.8-0.3-2.2-0.2-2.5
			c0.2-0.2,1.7-0.2,2.2-0.2c6,0,10.9-0.3,15.6-0.9c0.5-0.1,1-0.1,1.5-0.2c2.8-0.3,5.7-0.6,8.5-2.2l0.7-0.4l-0.3-0.8
			c-1.6-4.4-4.1-8.4-7.6-12.3L128.9,9h-65l0.8,1.5C68.2,16.8,68.5,17,75.2,16.3z"/>
		<path class="st1" d="M153.8,9l1,1.5c0.4,0.6,0.7,1.2,1.1,1.9c1.2,2.3,2.6,4.9,6.1,5.9c14.9,4.4,28.7,12,40.9,22.5l1.7,1.4V9H153.8
			z"/>
		<path class="st1" d="M203.3,42.4c-0.5-0.3-1-0.7-1.4-1c-9.7-8.7-20.9-15.3-34.4-20.3c-0.2-0.1-0.5-0.2-0.7-0.3
			c-1.4-0.5-2.9-1.1-5.1-1l-1.5,0.1l0.6,1.3c0.5,1.1,1,2.2,1.5,3.2c1.1,2.3,2.2,4.5,3.1,6.8c1,2.3,2.6,3.9,5.1,4.9
			c9.3,3.9,18.4,9.4,28.6,17.3c0.3,0.2,0.5,0.5,0.8,0.7c0.9,0.8,1.9,1.9,3.6,1.9h0.1h1V43.3l-0.4-0.3
			C203.8,42.8,203.6,42.6,203.3,42.4z"/>
		<path class="st1" d="M180.2,175.5l-0.8-1.1l-0.8,1.1c-1.7,2.2-2.8,4.5-3.8,6.8c-0.4,0.9-0.8,1.8-1.3,2.7c-0.9,1.8,0.1,3.4,0.8,4.5
			c6,9,11.4,15.2,17.7,20.1c2.1,1.7,4.4,3.3,7,3.3c1.6,0,3.3-0.6,5.2-2.3l0.3-0.3v-11.4l-0.5-0.3
			C193.8,193.3,186.9,184.7,180.2,175.5z"/>
		<path class="st1" d="M170.4,38.1l-1.1-0.1v1.1c0,0.1,0,0.1,0,0.2c0,0.3,0,0.6,0.1,1c0.2,0.5,0.4,1,0.6,1.5
			c0.3,0.8,0.6,1.6,0.8,2.4c1.1,6.8,4.9,11.2,12.2,14.4c5.6,2.5,10.5,6.5,15.2,10.3c1.5,1.3,3.1,2.6,4.8,3.8l1.6,1.2V59.3l-0.3-0.3
			C190.5,47.3,176.3,38.5,170.4,38.1z"/>
		<path class="st1" d="M195.7,86.2c-4.5-3.5-8.9-6.2-13.4-8.2c-1.1-0.5-2.5-0.9-3.5-0.2c-0.8,0.5-1.2,1.5-1.1,3v0.9c0,2.6,0,5.3,0,8
			c-0.1,3.1,2,4.1,3.5,4.6c6,2,11.5,5.6,17.8,11.8c0.3,0.3,0.5,0.6,0.8,1c0.8,1,1.8,2.3,3.6,2.5l1.1,0.1V94l-0.3-0.3
			C201.9,91.3,199.2,88.9,195.7,86.2z"/>
		<path class="st1" d="M201.4,73c-0.3-0.3-0.6-0.6-1-0.9c-6.9-5.9-12.6-9.9-18.5-13.1c-0.3-0.2-0.6-0.3-0.9-0.5
			c-1.2-0.7-2.6-1.6-4.4-1.5H176l-0.3,0.6c-1.6,3.5,0.7,5.3,2.5,6.7l0.3,0.2c4,3.2,4.1,3.4,2.3,7.9c-1.3,3.2,0.5,4.3,2.4,5.1
			c3.7,1.6,7.3,3.7,11.1,6.5c2,1.5,3.9,3,5.9,4.5l4.2,3.2V74.9l-0.7-0.2C202.9,74.4,202.2,73.7,201.4,73z"/>
		<path class="st1" d="M185.2,161.2l-0.8-1l-0.8,1c-1.2,1.6-1.7,3.2-2.1,4.7c-0.2,0.8-0.5,1.6-0.8,2.3c-1.2,2.6-1,5,0.8,7.5
			c3.7,5.2,8.8,11.9,15.4,17.2c0.3,0.3,0.7,0.6,1,0.8c1.5,1.3,3.1,2.6,5.3,3l1.2,0.2v-15.8l-0.4-0.3
			C196.6,175.7,190.9,168.6,185.2,161.2z"/>
		<path class="st1" d="M125.4,294.3c-0.7-0.9-1.5-1.3-2.3-1.3s-1.6,0.4-2.3,1.3c-1.5,1.8-3.1,3.6-4.4,4.9c-3.3,3.6-3.3,4.2-0.3,8.2
			c1.3,1.7,2.7,3.4,4.1,5c0.6,0.7,1.2,1.5,1.8,2.2l0.3,0.4h27l-2.5-1.8C139,307.4,131.4,301.7,125.4,294.3z"/>
		<path class="st1" d="M190,99.7c-2.9-2-5.5-3.3-8.1-4.2c-1.1-0.4-1.9-0.3-2.5,0.2s-0.9,1.3-0.7,2.4c0.5,4.1,1.7,8.2,3.5,12.4
			c0.4,0.9,1.1,1.6,2.2,2.1c7.1,3.1,12.9,8.4,18.5,13.6l1.7,1.5v-13.9l-0.2-0.3C200.8,109.3,196,103.8,190,99.7z"/>
		<path class="st1" d="M197.2,155.3l-0.7-0.7c-1.8-1.9-3.6-3.9-5.4-6.1c-0.8-0.9-1.6-1.9-2.4-2.9l-0.8-1l-0.7,1.1
			c-1.2,1.8-1.5,3.7-1.8,5.3c-0.1,0.9-0.3,1.8-0.5,2.6c-0.7,2.2-0.4,4.4,1.2,6.6c4.2,6.1,9.6,13,16.9,18.4l1.6,1.2v-19.6l-0.7-0.2
			C201,159.3,199.2,157.4,197.2,155.3z"/>
		<path class="st1" d="M190.6,126.9l-1.5-2.1l-0.4,2.5c-0.3,2.1-0.6,3.8-0.8,5.3c-1.3,8.5-1.2,8.8,4.1,15.5c0.7,0.8,1.4,1.7,2.2,2.8
			c1.4,1.8,3.1,3.4,4.7,4.9l1,0.9c0.1,0.1,0.2,0.2,0.3,0.3c0.6,0.6,1.4,1.4,2.7,1.4c0.2,0,0.5,0,0.7-0.1l0.8-0.2v-15.3l-0.4-0.3
			C198.6,137.9,194.4,132.3,190.6,126.9z"/>
		<path class="st1" d="M198.6,123.6c-2.1-1.9-4.2-3.9-6.7-5.5c-0.3-0.2-0.5-0.4-0.8-0.6c-1.2-0.9-2.6-1.9-4.8-1.7l-2,0.2l1.3,1.5
			c1.9,2.2,3.5,4.8,4.9,7.3c1.2,2.1,2.5,4.2,4.1,6.2c0.5,0.6,0.9,1.2,1.4,1.9c1.8,2.6,3.8,5.2,7,6.6l1.4,0.6v-11.4l-0.4-0.3
			C202.1,126.9,200.3,125.3,198.6,123.6z"/>
		<path class="st1" d="M118.2,311.2c-1.3-1.7-2.7-3.4-4-5.1c-0.4-0.6-1.1-1.4-2.2-1.5c-0.8-0.1-1.5,0.2-2.3,0.9
			c-2.1,1.8-4.6,3.4-6.9,4.9c-1.3,0.8-2.7,1.7-4,2.6l-2.6,1.8h24.9l-1.3-1.6C119.3,312.6,118.7,311.9,118.2,311.2z"/>
		<path class="st1" d="M37.5,231c0.1-3.9,0.4-7.8,0.6-11.6l0.1-1.6c0.1-1.2,0.2-3.4-2.3-3.8c-4.9-0.8-9.5-3.2-14-7.5l-0.8-0.7
			l-0.7,0.8c-0.1,0.2-0.3,0.3-0.4,0.4c-0.3,0.3-0.6,0.6-0.7,1.1c-1.6,13.4,0.3,25.9,5.6,37.1c1.4,3,2.1,5.4,2.2,8
			c0.3,6.2-0.3,12.3-1.8,18.3c-0.2,0.8-0.4,1.4-0.5,2c-0.6,2.1-0.9,3.2-0.2,4.1c0.6,0.9,1.7,1,3.9,1.2c0.7,0.1,1.5,0.2,2.4,0.3h0.2
			c0.1,0,0.1,0,0.2,0c0.5,0.1,0.9,0.2,1.4,0.2c0.7,0,1.3-0.2,1.8-0.5c0.9-0.5,1.4-1.5,1.7-2.9c2.1-9.8,4.3-19.9,2.2-30.6
			C37.6,241.2,37.3,236.6,37.5,231z"/>
		<path class="st1" d="M186.7,227c-7.4-4.9-13.9-11.5-20-20.2c-0.1-0.2-0.2-0.4-0.4-0.6c-0.5-0.9-1.2-2-2.8-2.6l-0.7-0.2l-0.4,0.5
			c-1.6,1.9-2.8,4.2-3.9,6.3c-0.7,1.2-1.3,2.5-2.1,3.7c-1.4,2.3-1.3,4.3,0.5,6.6c4.4,5.7,9.7,12.2,16.2,17.7
			c2.7,2.3,5.8,4.9,9.8,6.2l0.8,0.3l0.4-0.7c1.3-2,2-4.2,2.7-6.3c0.5-1.6,1.1-3.1,1.8-4.6C190.3,230,188.6,228.3,186.7,227z"/>
		<path class="st1" d="M195.1,212.7c-7.7-4.6-13.3-11.5-17.4-16.9c-1-1.3-2-2.7-3.1-4.2l-2.6-3.5l-2.5,4.1c-1.3,2.1-2.5,4-3.8,6
			c-0.7,1.1-1.6,2.9-0.3,5c6.3,10,13.4,17.6,21.9,23.3c0.6,0.4,1.3,0.8,2.2,0.8c0.2,0,0.4,0,0.6-0.1c1.1-0.3,1.8-1.3,2.2-2.2
			c1-1.9,2.3-4.4,3.9-6.7c0.5-0.7,1.2-1.9,0.9-3C197,214,196,213.3,195.1,212.7z"/>
		<path class="st1" d="M104,224.6c1.9,0.9,2.5,2,2.6,4.2c0.3,9.2-1,18.9-4.1,29.7c-0.1,0.4-0.3,0.8-0.4,1.2
			c-0.4,1.2-0.9,2.6-0.6,4.1l0.1,0.4l0.3,0.2c0.7,0.6,1.4,0.7,2.1,0.7c0.4,0,0.8-0.1,1.1-0.1c1-0.2,1.9-0.3,2.6-0.4
			c3.9-0.5,4.3-1,4.1-5c0-0.6-0.1-1.4-0.1-2.2c-0.2-8.1,1.4-14.8,5.1-20.4c2.6-4,2.4-5.7-1.3-8.8c-6.3-5.4-10.7-12.4-13.2-21.5
			c-0.8-2.9-1.2-4.4-2.5-4.9c-1.3-0.6-2.6,0.1-5.6,1.6l-0.3,0.2c-0.9,0.4-1.7,0.9-2.6,1.2c-1.1,0.4-1.8,1-2.1,1.9
			c-0.3,0.8-0.1,1.8,0.6,2.8C93.3,215.3,97.4,221.3,104,224.6z"/>
		<path class="st1" d="M180.4,244.4c-7.9-4.4-14-10.9-18.9-16.7c-1.3-1.6-2.6-3.2-4.1-5c-0.7-0.9-1.5-1.9-2.4-2.9l-1-1.2l-2.3,4.7
			c-1.1,2.4-2.2,4.5-3.2,6.6c-0.9,1.7-0.7,3.3,0.4,4.9c2.9,4.3,6.1,8.8,10.4,12.3c0.2,0.2,0.4,0.3,0.5,0.5c1,0.9,2.2,1.9,3.7,1.8
			c4.4-0.3,7.5,2,10.9,4.5c0.7,0.5,1.4,1.1,2.1,1.6c0.2,0.1,0.3,0.3,0.5,0.4c0.5,0.5,1.2,1.1,2.3,1.1c0.3,0,0.6,0,0.9-0.1l0.3-0.1
			l0.2-0.3c0.8-1.2,1.1-2.5,1.4-3.8c0.2-0.7,0.4-1.4,0.6-2.1C183.8,247.9,183.1,245.9,180.4,244.4z"/>
		<path class="st1" d="M20,66c0.3,0.2,0.5,0.4,0.8,0.6c6.5,6,9.5,12.6,9,20.2v0.1c0,0.5,0,0.9,0,1.4c0,1.1-0.1,2.3,0.1,3.4
			c0.4,2.4,1.9,3.8,3.9,3.8h0.1c2.2-0.1,2.6-1.9,2.9-3c0-0.2,0.1-0.3,0.1-0.4c0.7-2.7,0.6-5.6-0.3-8.4c-0.3-0.9-0.2-1.2-0.1-1.2
			c0-0.1,0.2-0.3,1-0.4c1.9-0.4,3.8-1,6-2c2.3-1.1,3.1-2.6,2.4-4.5c-0.3-0.8-0.8-1.3-1.4-1.5c-0.9-0.3-1.8,0.1-2.5,0.5
			c-0.2,0.1-0.4,0.2-0.5,0.3c-2.2,0.8-4.3,1-6.4,0.7l-0.4-0.1c-1.7-0.3-2.3-0.5-2.4-1.3c-0.1-1.4,0.5-2.8,1.6-3.6
			c0.5-0.4,1.1-0.7,1.8-1c0.3-0.2,0.7-0.3,1-0.5c1.5-0.8,2.7-1.8,3.5-3.1c1.8-2.7-0.2-4.7-1.3-5.7c-2.1-2.1-3.9-0.3-4.6,0.4
			c-1.6,1.5-3.6,2.5-6.1,2.8c-0.6,0.1-1.1,0-1.3-0.1c-0.3-0.2-0.3-0.8-0.3-1.1v-0.2c0-1.8,0.1-3.6,0.2-5.3c0.3-2.3-1.3-3.2-2.4-3.9
			l-0.3-0.2c-1.1-0.7-2.5-0.5-3.4,0.5c-2.1,2.5-2.7,5.6-3.2,8.3C17.2,63.8,18.7,65,20,66z"/>
		<path class="st1" d="M160.7,249.5c-5.1-3.7-8.9-8.9-12.9-14.4l-1-1.4l-4.9,11.6c-0.3,0.8-0.9,2.2-0.1,3.6l0.7,1.1
			c2.5,4.2,5,8.6,9.6,11.4c0.7,0.4,1.5,0.8,2.4,0.8c0.3,0,0.5,0,0.8-0.1c0.8-0.3,1.5-1,1.9-2.1c1-2.4,2.2-4.6,3.8-6.7
			c0.6-0.8,0.9-1.6,0.8-2.3C161.7,250.6,161.4,250,160.7,249.5z"/>
		<path class="st1" d="M153.2,263.2c-5.1-2.4-8.2-7.1-11.7-12.5l-1.1-1.7l-1.9,5.6c-0.9,2.6-1.7,4.9-2.4,7.2
			c-0.4,1.1-0.2,2.2,0.4,3.1c3.1,4.5,7,8.1,11.5,10.7c0.6,0.3,1.2,0.5,1.9,0.5c0.4,0,0.7-0.1,1-0.2c0.8-0.3,1.4-0.9,1.7-1.8
			c0.7-2.1,1.3-4.3,1.8-6.5l0.3-1.2C155.1,264.9,154.5,263.7,153.2,263.2z"/>
		<path class="st1" d="M149.4,304.6c-5.7-2.5-10.3-5.7-14-9.9l-0.4-0.5c-2.3-2.5-3.4-4-1.4-6.7c0.5-0.6,0.7-1.3,0.6-2
			c-0.2-1.2-1.4-2-2.3-2.6l-0.2-0.1c-0.5-0.4-1.1-0.5-1.6-0.4c-0.9,0.2-1.5,1-1.9,1.7c-0.3,0.5-0.6,0.9-0.9,1.4
			c-0.6,0.9-1.1,1.7-1.7,2.4c-1.4,1.8-1.3,3.6,0.2,5.4c6.6,7.9,14.7,14.7,24.1,20.1l0.8,0.5l0.5-0.8c2-2.9,2.9-4.3,2.5-5.6
			C153.2,306.2,151.9,305.6,149.4,304.6z"/>
		<path class="st1" d="M134.4,267.8c-1.2,3.1-2,6.4-2.7,10.6c-0.4,2.4,0.8,3.7,2.2,4.8c0.6,0.5,1.2,0.7,1.8,0.7c1,0,1.8-0.6,2.3-1
			c0.1-0.1,0.2-0.2,0.4-0.3c1.7-1.1,3.4-2.3,5.2-3.4l3.2-2.1l-0.5-0.8c-1.1-1.7-2.5-2.8-3.7-3.7c-0.5-0.4-1-0.8-1.5-1.2
			c-0.4-0.4-0.8-0.8-1.2-1.3c-1-1.2-2.2-2.6-4.3-3l-0.8-0.2L134.4,267.8z"/>
		<path class="st1" d="M109,280.6c0.5,0,1-0.1,1.4-0.2s0.9-0.2,1.2-0.1h0.3c0.5,0,0.9,0,1.3,0c0.8,0,1.5,0,2.2,0
			c1.3,0.1,2.3-0.2,3.1-0.8c1.1-1,1.2-2.5,1.2-3.6c0-2.2-1.1-4.3-3.1-5.5c-2-1.3-4.4-1.4-6.4-0.4c-2.1,1-5.1,6-4.2,8.4
			C106.7,280.2,107.9,280.6,109,280.6z"/>
		<path class="st1" d="M108.3,270.3c0.8-0.8,1.6-1.7,2.2-3.1l0.4-1.1l-1.2-0.2c-1.9-0.4-3.6-0.1-5,0c-0.6,0.1-1.1,0.1-1.6,0.2
			c-3.1,0.2-4.1,2.6-4.6,4.4c-0.3,1.1-0.2,1.9,0.3,2.6c0.4,0.6,1.2,0.9,2.1,1c0.2,0,0.5,0,0.7,0c0.4,0,0.8,0,1.2,0
			c1.6,0,3.3-0.3,4.4-2.3C107.4,271.2,107.8,270.8,108.3,270.3z"/>
		<path class="st1" d="M13.2,146c-1,1.1-2.1,2.4-2.5,4.3l-0.4,1.9l1.8-0.8c3.4-1.6,5.7-4,6.5-7.1c0.9-3.4,0-7.3-2.6-11l-2.2-3.1
			l0.4,3.8c0.1,1.1,0.3,2.1,0.5,3.2c0.3,1.8,0.6,3.6,0.5,5.4C15.1,143.9,14.2,144.8,13.2,146z"/>
		<path class="st1" d="M22,113.5l-0.7-2.2l-1.2,2c-2.1,3.6-2.5,5-2.6,8.8v2.2l1.7-1.4C22.9,119.8,23.4,118.1,22,113.5z"/>
	</g>
	<path d="M203.5,71.9c0,1.3,0,2.5,0,3.8c-1.5-0.5-2.5-1.8-3.7-2.8c-5.7-4.9-11.7-9.4-18.3-13c-1.5-0.8-2.8-1.9-4.7-1.9
		c-1.3,2.9,0.6,4.2,2.5,5.7c4.3,3.4,4.6,4.2,2.6,9c-0.9,2.3,0,3,1.8,3.8c4,1.7,7.8,4,11.3,6.7c2.9,2.1,5.7,4.3,8.5,6.5
		c0,1.6,0,3.1,0,4.7c-2.6-2.7-5.4-5.2-8.4-7.5c-4.1-3.2-8.4-6-13.2-8c-2-0.9-3.3-0.8-3.3,1.8c0,3,0,5.9,0,8.9
		c-0.1,2.1,0.9,3,2.8,3.6c7.2,2.3,12.9,6.8,18.2,12.1c1.2,1.2,1.9,2.9,3.8,3.1c0,1.9,0,3.8,0,5.6c-4.2-5.1-8.6-9.9-14.1-13.6
		c-2.5-1.7-5-3.1-7.9-4.1c-1.4-0.5-2.1,0-1.9,1.6c0.5,4.2,1.7,8.2,3.4,12.1c0.3,0.7,0.9,1.2,1.7,1.6c7.3,3.2,13,8.5,18.8,13.7
		c0,1.3,0,2.5,0,3.8c-4.3-3.1-7.6-7.3-12.1-10.2c-1.5-0.9-2.8-2.3-4.9-2.1c3.6,4.2,5.7,9.2,9,13.5c2.4,3,4.2,6.5,8,8.2
		c0,1.6,0,3.1,0,4.7c-5.3-4.3-9.5-9.7-13.7-15.8c-2.1,15.2-3.2,11.9,5.4,22.8c1.6,2.1,3.6,3.8,5.6,5.7c0.7,0.7,1.5,1.7,2.8,1.4
		c0,1.3,0,2.5,0,3.8c-3.3-0.9-5.5-3.5-7.7-5.8c-2.7-2.8-5.1-5.8-7.8-9c-1.7,2.5-1.4,5.3-2.2,7.7c-0.7,2.1-0.2,3.9,1.1,5.7
		c4.7,6.8,9.9,13.2,16.7,18.2c0,1.3,0,2.5,0,3.8c-7.6-5.3-13.4-12.4-19.1-19.8c-1.7,2.3-1.8,4.7-2.8,6.8c-1.1,2.4-0.8,4.3,0.8,6.5
		c4.4,6.3,9.2,12.2,15.3,17c1.8,1.4,3.4,3.2,5.9,3.6c0,1.3,0,2.5,0,3.8c-10.2-5.3-17.2-14-24.1-23.4c-2.4,3.1-3.4,6.3-5,9.3
		c-0.6,1.3,0.1,2.4,0.8,3.5c4.9,7.4,10.4,14.3,17.5,19.9c3.5,2.8,6.9,4.7,10.8,1c0,1.3,0,2.5,0,3.8c-4,2-5.8,5.9-7.9,9.5
		c-6,10.7-9.5,22.3-12.8,34c-0.1,0.4-0.3,0.9-0.3,1.4c0,3.5,3.4,5.9,6.4,4.4c4.6-2.3,9.5-2.8,14.5-3.3c0,0.9,0,1.9,0,2.8
		c-4.7,0.9-9.5,1.2-14,3.5c-3.9,2-4.7,1.7-7.4-1.8c-3.6-4.6-7.9-8.4-12.9-11.4c-2.5-1.5-4.4-1.1-6.1,1.1c-0.9,1.2-1.9,2.5-2.6,3.8
		c-2.5,4.5-4.2,9.4-5.2,14.5c-0.6,3.1-2,5.2-5.3,6.3c-5.2,1.8-9.8,4.6-13.6,8.8c-1.8,2-2.1,3.7-0.1,5.6c1,1,1.9,2.1,2.9,3
		c4.2,3.9,9.1,6.4,14.5,8.3c3,1,3.1,1.7,2,4.5c-0.7,1.7-1.4,3.5-2.1,5.2c-2.5,0-5,0-7.5,0c-7.8-5.7-15.5-11.5-21.7-19
		c-1-1.3-2-1.3-3,0c-1.4,1.7-2.9,3.3-4.3,4.9c-3,3.3-3.1,3.3-0.3,6.9c1.9,2.5,3.9,4.8,5.9,7.2c-1.3,0-2.5,0-3.8,0
		c-1.9-2.4-3.9-4.8-5.7-7.2c-1-1.3-1.8-1.5-3-0.4c-3.4,2.9-7.3,5.1-10.9,7.6c-2.2,0-4.4,0-6.6,0c0.5-0.4,1-0.8,1.5-1
		c14.8-6.8,25.1-18.3,33.4-31.9c1.4-2.3,2.3-4.8,3-7.4c4.2-16.4,10.2-32.1,17.4-47.4c6.9-14.6,15.4-28.2,23.6-42.1
		c2.9-4.9,4.9-9.4,1.5-15.1c-1.3-2.2-2.1-2.5-4.2-1.8c-4.5,1.5-9.2,2-13.9,1.3c-3.5-0.6-6.6,0.1-9.9,1.3c-2.7,1-3.2,2.2-2.9,4.8
		c1.1,7.8,1.4,15.6,1,23.4c-0.3,5.3-1,10.7-3.4,15.5c-1.9,3.9-4.5,7.4-1.5,11.9c0.4,0.6,0.2,1.5,0.2,2.3c0,4-1,7.7-2.3,11.4
		c-3,8.8-7.1,17-11.7,25c-2.1,3.6-3.8,7.1-2.8,11.4c0.3,1.2,0,2.5-0.1,3.7c-0.1,1.6-0.9,2.6-2.6,2.7c-4.1,0.2-8.1,0.4-12.2,0.5
		c-1.9,0.1-3.1-0.9-2.9-2.8c0.3-2.9-0.9-3.8-3.7-3.7c-4.4,0.1-5.4-1.6-3.8-5.7c0.8-2.2,1.8-4.3,2.5-6.5c3.7-10.4,6-21,5.9-32.1
		c0-1.8,0.5-4-1.5-5.1c-7.1-4-11.7-10.2-15.6-17.1c-0.9-1.7-2.1-1.5-3.5-1c-4.5,1.3-9,2.7-13.5,3.8c-2.2,0.5-3.1,1.5-3.3,3.8
		c-0.6,5.6-2.4,10.9-4.5,16.2c-2.2,5.5-5.2,10.6-7.1,16.3c-1.1,3.4-1.3,6.4,0.3,9.9c4,9,4.9,18.7,5,28.4c0,2.4-0.9,3.8-3.5,3.9
		c-4.4,0.3-8.7,0.8-13.1,0.9c-2.9,0.1-3.9-1.1-3.9-4c0-3.3,1-6.2,3.2-8.6c1.2-1.3,2.4-2.6,2.3-4.4c-0.2-4.8-1.2-9.4-4.2-13.3
		c-1,0.4-1.1,1.1-1.2,1.7c-0.9,7.1-2.4,14.2-4.5,21c-0.3,0.9-0.6,1.8-0.3,2.7c0.8,2.4-0.7,2.7-2.4,2.7c-3.9,0-7.8,0.1-11.7,0
		c-3.4,0-4.1-1.1-3-4.4c0.3-0.9,0.8-1.7,1.2-2.6c3.8-9,6-18.4,5.8-28.3c0-2.2-0.4-4.3-1.4-6.3c-6.4-13.5-8.2-27.8-6.5-42.5
		c0.2-2.2-0.2-3.9-1.2-5.8C9,185,6.3,169.4,8.2,153c1.4-11.8,4.3-23.4,7.8-34.7c1.4-4.4,2.3-8.1-2.3-11.3c-2.6-1.8-1.9-3.3,1-4.7
		c2.7-1.2,5.8-1,8.6-2.5c-2.8-4.6-5.8-8.8-9.1-12.7c-1.9-2.3-3.6-4.2-1.5-7.3c0.8-1.2,0.5-2.7,0-4.1c-1.3-3.4-3-6.5-6.3-8.4
		c0-0.9,0-1.9,0-2.8c5.9,1.6,10.5,9.4,9.1,15.9c-0.4,2.1-0.1,3.4,1.1,5.1c3.4,4.5,7.1,8.8,9.5,13.9c0.6,1.1,1.5,1.5,2.6,1.8
		c1.2,0.3,2.4,0.6,3.6,1c1.3,0.6,3.8,0.8,3.1,2.7c-0.7,2.1-2.7,0.4-4,0c-5-1.6-10-1.9-15.5,0.3c4.3,4.5,8.8,6.9,14.7,6.7
		c1.4-0.1,3.7-1.1,3.8,1.1c0.1,1.9-2.3,1.9-3.7,1.8c-2.5-0.1-3.1,1-3.3,3.3c-0.3,5.5-2.6,10-8,12.2c-1.9,0.8-2.1,1.8-1.3,3.6
		c3.2,7.3,2.4,13.7-4.5,18.6c-1.2,0.9-1.7,1.6-0.5,3c5,5.7,4.4,12,0.7,17.8c-2,3.2-2.1,5.8-1.2,9.1c2.1,7.7,4.5,15.3,9.6,21.7
		c3.2,4,7.3,6.8,12.4,7.8c1.9,0.4,3-0.2,3.3-2.2c0.3-1.7,0.5-3.4,0.9-5.1c0.3-1.3,0.1-3.4,1.9-3.2c1.9,0.3,1,2.3,0.8,3.5
		c-1,6.2-2,12.3-2.4,18.6c-0.9,13.1-0.1,25.9,5.9,37.9c1.7,3.3,2.8,7,3.1,10.8c0.4,4.3,0.5,4.4,4.8,4.3c3.6-0.1,3.8-0.2,3.3-3.7
		c-0.8-5.4-2-10.8-4.7-15.6c-1.1-2-1.1-3.6-0.5-5.7c1.9-6.5,4.8-12.5,7.5-18.7c4.1-9.1,6.7-18.5,4.7-28.6c-0.5-2.6-1.6-5.1-2.5-7.6
		c-0.3-0.8-0.2-1.6,0.8-1.9c0.7-0.2,1.2,0.2,1.6,0.7c1.3,2,1.8,4.3,2.6,6.5c0.9,2.5-0.3,6.1,2,7.3c2.4,1.2,5.4-0.8,8.1-1.5
		c1.1-0.3,2.1-0.6,3.2-0.9c5.5-1.7,11-3.5,16.1-6.4c2.4-1.4,3.6-3.1,3.1-6.1c-0.5-2.9-0.3-5.9-0.4-8.9c0-0.9,0-2.2,1.2-2.3
		c1.6-0.2,1.4,1.3,1.5,2.3c0.1,0.9,0.1,1.9,0.1,2.8c0.4,5.9,1,11.8,2.6,17.6c2.5,8.6,6.5,16.2,13.9,21.7c1.5,1.1,2.2,2.5,2.6,4.2
		c0.8,3.4,1,6.8,0.6,10.2c-0.6,6.6-2.6,12.8-5,19c-0.6,1.5-1.1,2.9-1.6,4.4c-0.7,2.1,0.3,2.8,2.3,3c1.7,0.2,2.5-0.9,3.2-2.2
		c2.2-4,4.4-7.9,6.5-12c3.3-6.5,6.5-13.2,8.2-20.4c0.9-4,1.8-8-1-11.7c-1.3-1.7-0.6-3.2,0.5-4.7c3.9-4.8,5.1-10.6,5.8-16.6
		c1-8.8,0.4-17.5-0.7-26.2c-0.5-3.5-0.8-6.8,2.1-9.6c1.5-1.4,1.9-3.5,2.2-5.6c0.3-2.4-0.4-4.1-2.7-5.4
		c-19.1-11.4-38.5-12.9-58.4-2.4c-4.8,5.5-11.2,4.3-17.3,4.3c-1.3,0-2.5,0.1-3.7,0.1c-5-0.2-10-0.8-14.6-3.1c-3.4-1.7-6.5-4-7.5-7.9
		c-1.9-7.8,0.4-14.5,6.3-20c1.3-1.3,2.7-1.1,4.3-0.9c4.6,0.7,9.3,1.1,14,1.7c1.4,0.2,2.8,0.1,4.2-0.2c1.3-0.2,2-1,1.9-2.2
		s-1.2-1.1-2.1-1.3c-2.1-0.6-4.6,0.3-6.7-2c3.5-1,6.8,0.6,10.1-0.4c-0.8-1.4-1.9-2.6-2-3.8c-0.2-2.8-2.1-4-4.1-5.2
		c-3.5-2.1-6.9-4.4-9.7-7.4c-5.9-6.2-13-7.1-20.7-5.5c-2.5,0.5-3.8-0.2-5.2-1.9c-2.7-3.4-5.4-6.9-8.4-10.1c-1.9-2.1-2.7-4.2-2.6-7.1
		c0.3-6.6-2.8-11.7-8-15.6c-1.4-1.1-2.7-1.4-4.3-0.4c0-1.3,0-2.5,0-3.8c1.8-0.9,3.2-0.1,4.7,0.9s2.7,2.5,4.8,3
		c1.3-5.4,2.2-10.6,7.5-13.5c-3.8-3.8-6.2-7.9-8.3-12.3C13,34.1,13.8,32.6,16,31c4.8-3.6,10.2-5.3,16-5.8c3.8-0.3,3.8-0.4,4-4.1
		s0.3-7.5,1.5-11.1c0.9,0,1.9,0,2.8,0c-1.2,4.4-1.4,8.9-1.3,13.4c0,4.1,0,4.2-4,4.4c-5,0.3-9.9,1-14.4,3.6c-1.4,0.8-3,1.5-3.7,4.7
		c2.7-2.4,4.7-1.1,6.8-0.6c8.1,1.9,16.3,2.8,24.5,2.6c1.2,0,2.5-0.2,3.7-0.3c1.4-0.2,1.8-1,1.5-2.3c-0.3-1.5-0.7-3-1.1-4.5
		c-2.1-7-4.3-14-6.4-21c0.9,0,1.9,0,2.8,0c2.9,7.6,5.2,15.4,7.3,23.2c0.9,3.5,1,3.6,4.4,2.1c7.3-3.2,14.2-7.1,20.8-11.7
		c1-0.7,2-1.4,3.1-2c0.5-0.3,1.2-0.3,1.7,0.3c0.4,0.6,0.4,1.2-0.1,1.7C85,24.4,84,25.3,83,26c-6.1,4.3-12.6,8.1-19.4,11.2
		c-1.2,0.5-2.8,0.6-3.3,2.6c6.8,5,14.3,9,22,12.9c1-2,1.5-3.6-0.2-5.3c-1.1-1.1-1.7-2.7-2.8-3.7c-2-1.8-1.4-3,0.3-4.6
		c4.5-4.2,7.1-9.4,8.3-15.4c1-5,0.5-5.7-4.7-5.8c-4.4-0.1-8.7,0.2-13.1,0.9c-2.1,0.3-3.7,0.1-4.7-1.9c-0.5-3-3-4.9-5.4-6.9
		c1.9,0,3.8,0,5.6,0c3.3,6,3.3,6,9.5,5.3c0.8-0.1,1.6-0.2,2.3-0.2c3.3-0.2,6.6-0.5,9.8,0.1c4.2,0.8,5.3,2.4,4.8,6.5
		c-0.8,6.4-3.1,12-7.2,17.1c-2.5,3.2-2.5,3.2,1,6.5c1.7-2.5,3.5-4.8,6-6.5c1.9-1.3,3.6-1.7,5.6-0.2c2.3,1.8,4.7,3.5,7.4,5.4
		c2.1-5,3.6-9.8,2.8-15.1c-0.5-3.6-0.4-3.8,3-3.8c5.2,0,10.3-0.2,15.4-0.8c3.2-0.4,6.5-0.5,9.6-2.3c-1.7-4.6-4.2-8.5-7.4-12
		c1.6,0,3.1,0,4.7,0c1.2,3.8,3.9,6.7,5.4,10.2c1.5,3.6,1.3,4.1-2.5,5.2c-0.6,0.2-1.2,0.3-1.8,0.4c-6.6,1.5-13.3,2-20,2
		c-1.8,0-3.4,0.1-3.4,2.7c0.2,5.1-1.2,9.9-3.1,14.6c-0.9,2.2-0.2,3.9,0.8,5.8c1.6,2.8,4.2,1.3,6.3,1.5c2.1,0.2,1.7-1.8,1.8-3.1
		c0.4-3.4,0.6-6.9,2-10.1c1.2-2.6,2.8-4.2,6.1-3.9c6.3,0.4,12.4,1.6,17.7,5.2c1.8,1.2,3.3,1.3,5.2,0.6c4.1-1.6,8.4-2.2,12.9-2.2
		c3.2,0,5.3,1.5,6.4,4.5c1.5,3.9,1.9,7.8,1.8,12c-0.2,3.8-0.1,3.8,4.2,3.7c0.2-1.4-0.3-2.8-0.7-4.1c-3.6-12.3-8.7-24.1-14.7-35.4
		c-1.7-3.1-3.8-6.1-4.7-9.6c0.9,0,1.9,0,2.8,0c1.8,2.8,2.6,6.2,6.5,7.3c15.4,4.6,29.1,12.3,41.3,22.7c0,1.3,0,2.5,0,3.8
		c-0.8-0.5-1.6-1-2.3-1.6c-10-9-21.5-15.5-34.1-20.1c-1.5-0.6-3.1-1.4-5.4-1.2c1.7,3.6,3.3,6.8,4.6,10c0.9,2.2,2.4,3.5,4.5,4.4
		c10.5,4.4,19.9,10.5,28.8,17.5c1.2,0.9,2.1,2.4,3.9,2.4c0,1.6,0,3.1,0,4.7c-13.4-11.5-27.4-20.2-33.1-20.6c0,0.3-0.1,0.6,0,0.9
		c0.4,1.3,1.1,2.6,1.4,4c1.1,6.9,5.2,10.9,11.6,13.7C190.9,61,197,66.9,203.5,71.9z M127.6,144.4c-3.3-5-6.7-9.6-8.6-15.2
		c-1.2-3.5-1.4-3.5-5-2.7c-6.1,1.4-12.4,1.8-18.6,1.7c-3.6-0.1-4-0.5-4.2-4.1c-0.3-4.4-0.2-8.9,1.8-12.9s1.9-7.3-1.4-10.4
		c-0.2-0.2-0.4-0.5-0.5-0.8c-0.9-1.9-2.2-2.3-4.2-1.5c-3.8,1.5-7.8,2.4-11.8,3c-4.3,0.7-5.7-0.4-5.9-4.9c-0.2-4.6,0.6-9.1,2.9-13.1
		c1.6-2.7,1.2-4.7-0.6-7.2c-3.2-4.6-6.1-9.4-7.2-15.1c-0.3-1.6-1.5-1.9-2.6-2.3c-1.5-0.5-1.8,0.9-2.2,1.8c-2.5,5-6,9.1-10.6,12.2
		c-1.2,0.8-1.9,1.6-1.5,3.1c0.6,2.5-0.8,4.2-2.9,4.6c-6.1,1.1-6.5,5.2-6.3,10.2c0.1,2.5,0.5,3.3,3,3.3c6.9-0.1,12.6,2.7,17.5,7.6
		c4.2,4.2,9.1,7.6,14.9,9.6c2.8,0.9,3.4,2.7,3.4,5.3c0,3-2.6,4.6-3.3,7c-1.6,5.2-5.3,5.6-9.6,5.1c-4.2-0.5-8.4-1-12.5-1.5
		c-1.6-0.2-3.1-0.4-4.4,0.8c-4.1,3.8-5.7,8.5-5,13.9c0.6,4.8,3.7,7.3,7.9,9c2.8,1.1,5.7,1.7,8.7,1.8c3.3,0,6.6,0,9.8,0.2
		c4,0.2,7.5-0.8,11.1-2.8c12-6.9,24.8-10.1,38.7-7.8C121.2,142.9,124.4,143.7,127.6,144.4z M115.9,92.8c2.9,0.3,6-0.5,9-1.3
		c4.2-1.1,4.6-2.3,3-6.5c-1.2-3.2-3.4-5.5-5.9-7.8c-3.5-3.2-3.5-3.4,0.3-6.1c3.5-2.4,5.5-5.9,6.9-9.8c0.7-1.9,0.1-2.9-1.8-3.5
		c-5-1.4-10-2.7-15.2-2.3c-3.4,0.2-5.6-0.6-6.8-4.1c-1.4-3.9-4.2-6.9-7.7-9.2c-2.8-1.9-3.6-1.8-6.1,0.6c-3,2.8-4.5,6.4-4.9,10.4
		c-0.2,2.6-1.1,3.9-3.9,4c-4.1,0.2-7.9,1.7-11.7,3.4c-3.9,1.7-3.9,1.8-2,5.9c2,4.1,4.2,8,7.1,11.6c1.3,1.6,1.4,2.7,0,4.5
		c-3,3.6-4,8.1-4.1,12.7c-0.1,3.5,0.3,3.8,3.8,3.2c4.3-0.7,8.5-1.9,12.6-3.7c2.1-0.9,3.5-0.9,4.2,1.8c1.1,4,4.2,6.5,7.1,9.1
		c2.3,2.1,3.2,2,5.6-0.2c2.8-2.5,4.6-5.5,5.5-9.1C111.8,92.7,111.7,92.6,115.9,92.8z M154.1,165.5c5.9,1,11.2,0.1,16.4-1.8
		c3.4-1.3,3.8-1,4.8,2.6c0.4,1.4,0.5,3,1.7,4c1.3-0.3,1.4-1.1,1.7-1.8c5-14,7.1-28.5,7.9-43.2c0.1-1.1-0.1-2.2-0.7-3.2
		c-2.7-4.5-5.2-9.2-7.1-14.7c-4.2,3.1-7.1,6.5-9.4,10.4c-2.4,4.2-2.4,4.2-7.3,3.1c-6.4-1.4-12.9-2.5-19.5-2.4
		c-2.4,0.1-3,0.9-2.2,3.2c1.8,5.3,4.3,10,7.8,14.3c4.5,5.6,4.5,5.6,1.1,11.7c-3.2,5.8-3.2,5.9,1.9,9.8c0.4,0.3,0.8,0.6,1.1,0.9
		C155.6,161.1,155.6,161.1,154.1,165.5z M162,96.6c2.8-3.7,3.1-7.3,3.6-10.7c0.4-2.4,1.3-4,3.8-4.7c3.9-1.2,6.6-4,8.8-7.4
		c2.7-4.4,2.4-5.8-2-8.7c-2.4-1.6-5-2.7-7.7-3.3c-2.8-0.6-3.5-2-2.8-4.7c1.1-4.2,0.2-8.4-1.3-12.4c-0.7-2.1-2-2.9-4.2-2.8
		c-3.8,0.1-7.5,0.6-11,2c-3.2,1.3-5.7,1.2-8.6-1c-4.7-3.5-10.3-4.5-16.4-3.9c7.7,6.6,13.4,14.7,17.9,23.6c2.2-0.9,2.6-2.5,3.4-3.8
		c3.5-5.2,7.4-10.1,12.6-13.7c1-0.7,2.2-1.9,3.3-0.7c1.2,1.4-0.5,2.1-1.4,2.8c-0.7,0.6-1.5,1.1-2.2,1.7c-5.5,4.7-9.6,10.5-13.1,17.1
		c2,0.8,3.6,0.6,5.1,0.6c7.8-0.1,15.6,0,23.4,1.1c1.6,0.2,4.3-0.1,4,2s-2.9,1-4.5,0.8c-7.3-0.9-14.6-1.1-22-1
		c-1.1,0-2.6-0.4-3.4,1.4C153.5,78.3,158,87,162,96.6z M21.2,207.1c-0.4,0.5-0.8,0.7-0.8,0.9c-1.5,12.7,0.1,25,5.5,36.6
		c1.3,2.8,2.1,5.4,2.3,8.4c0.3,6.3-0.3,12.5-1.8,18.6c-1.6,6.6-2.3,5.5,4.7,6.3c0.2,0,0.3,0,0.5,0.1c2.1,0.5,3.2-0.3,3.6-2.4
		c2.1-10,4.2-19.9,2.2-30.2c-0.9-4.8-1.1-9.6-1-14.5c0.1-4.4,0.4-8.7,0.7-13.1c0.1-1.3,0.3-2.7-1.4-2.9
		C30,214,25.3,211.1,21.2,207.1z M183.4,243.6c2.1-3.4,2.7-7.4,4.4-10.8c1.2-2.3,0.4-3.6-1.6-4.9c-8.2-5.4-14.7-12.5-20.2-20.5
		c-0.7-1-1.1-2.2-2.7-2.8c-2.5,3-3.9,6.6-5.9,9.9c-1.3,2-1,3.6,0.4,5.5c4.8,6.3,9.9,12.4,16.1,17.5
		C176.7,239.9,179.6,242.3,183.4,243.6z M130.4,141.5c-0.3-11.1-0.9-21-1.7-31c-0.1-1.4-0.1-2.8-1.8-3.4c-1.4-0.5-2-1.9-2.8-3.1
		c-1-1.5-2.1-1.5-3.5-0.6c-8.1,5.1-15.8,10.7-22,18c-0.8,1-2.2,1.9-1.5,3.8c6.7,0.1,13.3-0.8,19.8-2.6c3.2-0.9,3.2-0.8,3.9,2.4
		C122.2,131.2,125.3,136.3,130.4,141.5z M143.9,71.5c-1,2.6-1.7,4.3-2.4,6.1c-2.5,6.9-5.4,13.6-8.9,20.1c-0.8,1.5-1.5,4.6-3.4,3.6
		c-2.2-1.1,0.3-3.1,0.8-4.7c0.1-0.4,0.4-0.8,0.6-1.3c3.5-6.7,6.4-13.6,8.9-20.6c0.4-1.1,1.3-2.2,0-3.5c-3.8,0.8-7.4,2.3-10.9,3.8
		c-2.1,0.9-2.4,2.1-0.9,3.9c1.7,2,2.9,4.4,3.6,7.1c1.1,4.6,0.3,6.2-4.1,7.9c-4.1,1.6-4.2,1.9-2.1,6c0.4,0.8,1,1.6,1.4,2.4
		c1,1.9,2.4,2,4.3,1.1c3.6-1.8,6.3-4.6,8.5-7.9c3.5-5.1,3.4-5.1,8.1-1.3c3.6,2.9,7.4,5.5,12.8,5.7C156.1,89.7,151.6,80.2,143.9,71.5
		z M172.1,189.9c-2.1,3.3-3.8,6-5.5,8.8c-0.8,1.3-1.1,2.5-0.3,3.9c5.7,9.1,12.7,17,21.6,23.1c1.8,1.2,2.7,0.7,3.6-1.1
		c1.2-2.4,2.5-4.7,4-6.9c1.3-1.9,1-2.9-0.9-4.1c-7.2-4.3-12.7-10.5-17.7-17.2C175.4,194.4,173.9,192.4,172.1,189.9z M133.2,139.3
		c6-4.3,7.5-8.4,5.3-13.9c-0.4-1.2-0.9-2.3-1.3-3.5c-1.3-4.4-0.4-5.8,4.1-6.2c2.2-0.2,4.4,0,6.5,0.1c6.8,0.3,12.2-3.3,18.1-5.6
		c-0.6-1.6-1.4-1.8-2.1-2c-6.5-2.1-13.1-4-19.9-5.3c-1.7-0.3-3.4-0.5-5.1-0.4c-3.2,0.1-7.6,3.5-7.4,5.8
		C132.2,118.5,133,128.6,133.2,139.3z M102.5,263.6c0.8,0.6,1.6,0.5,2.4,0.4c6.9-1.1,5.9,0.2,5.7-6.6c-0.2-7.5,1.1-14.6,5.3-21
		c2.3-3.5,2.2-4.7-1.1-7.5c-6.9-5.9-11.1-13.3-13.5-21.9c-1.5-5.3-1.5-5.3-6.7-2.7c-1,0.5-1.9,1-3,1.4c-1.7,0.7-2,1.7-1,3.2
		c3.6,5.9,7.5,11.6,13.9,14.8c2.3,1.2,3.1,2.6,3.2,5.1c0.4,10.3-1.3,20.2-4.1,30C103.1,260.4,102.2,261.9,102.5,263.6z M154.2,220.4
		c-1.8,3.7-3.3,6.8-4.8,9.9c-0.7,1.4-0.6,2.6,0.3,3.9c3,4.4,6,8.7,10.2,12.1c1.1,0.9,2.2,2.2,3.6,2.1c5.7-0.4,9.5,3.3,13.7,6.2
		c0.8,0.6,1.4,1.7,2.8,1.3c1.1-1.7,1.2-3.8,2-5.7c0.9-2.2,0.3-3.7-1.9-4.9c-7.6-4.2-13.6-10.3-19.2-16.9
		C158.7,226,156.8,223.6,154.2,220.4z M78.8,54.7c-0.4-0.7-0.4-1.1-0.7-1.2c-6.6-3.6-13.1-7.2-19.2-11.6c-2-1.4-2.8,0.1-3.7,1.4
		c-4.5,6.3-7.7,13.2-9.5,20.7c-0.3,1.1-0.5,2.1-0.9,3.1c-0.3,0.8-1.2,1.4-1.8,0.8c-3-3.1-3.5,0.7-4.7,1.8c-1,0.8-1.4,2.6-0.4,3.9
		c1,1.2,2.3,0.4,3.4-0.1c7.1-2.6,12-7.5,15.4-14.2c1.8-3.6,3.1-4.3,6.6-2.7c3.4,1.6,6.5,1.7,9.8,0C74.9,55.8,76.8,55.4,78.8,54.7z
		 M43,62.5c2.1-7.7,5.5-14.5,10.2-21.6C41,41.3,30.1,40.4,18.9,37c1.7,5.4,4.8,9.1,8.8,11.8C33.2,52.6,37.2,57.9,43,62.5z
		 M30.7,86.9c0,1.6-0.2,3.2,0.1,4.7c0.3,1.6,1.2,3,3.1,2.9c1.7-0.1,1.7-1.5,2-2.7c0.7-2.6,0.5-5.3-0.3-7.9c-0.6-1.8-0.1-2.6,1.7-3
		c2-0.4,3.9-1.1,5.7-2c1.4-0.7,2.5-1.6,1.9-3.2c-0.8-1.9-2.1-0.5-3.1-0.2c-2.3,0.8-4.6,1.1-6.9,0.7c-1.5-0.3-3.5-0.4-3.7-2.3
		c-0.1-1.6,0.5-3.4,2-4.5c0.9-0.6,1.9-1,2.9-1.5c1.3-0.7,2.4-1.5,3.2-2.7c1.3-1.9,0.2-3.2-1.1-4.5C37,59.5,36,60.1,35,61.1
		c-1.8,1.8-4.1,2.7-6.7,3.1c-1.8,0.3-2.7-0.4-2.7-2.2c0-1.9,0-3.7,0.3-5.6c0.2-1.8-1.1-2.4-2.2-3.2c-0.8-0.5-1.5-0.3-2.1,0.4
		c-1.9,2.2-2.5,5-2.9,7.8c-0.4,2.4,1.5,3.2,2.8,4.5C27.6,71.5,31.2,78.3,30.7,86.9z M147,235.6c-1.7,4-2.9,7-4.2,10
		c-0.4,0.9-0.7,1.8-0.2,2.7c2.7,4.6,5.1,9.3,9.9,12.2c1.6,0.9,2.8,1.2,3.7-0.9c1-2.5,2.3-4.8,3.9-6.9c0.6-0.8,0.9-1.8,0-2.5
		C155,246.6,151.3,241.6,147,235.6z M127.5,71.9c3.5-1.2,6.9-2.5,10.5-3.5c2.5-0.7,2.8-1.8,1.7-4c-3.9-7.9-8.7-15.1-15.4-20.9
		c-0.9-0.8-1.6-2-3.2-1.7c-1.4,2.7-1.3,5.7-1.5,8.6c-0.1,1.9,0.7,2.8,2.6,3.1c2.4,0.5,4.9,1.1,7.2,1.9c3.7,1.2,3.9,1.8,2.9,5.4
		C131.4,64.8,129.5,68.1,127.5,71.9z M140.7,251.2c-1.5,4.4-2.5,7.6-3.6,10.8c-0.3,0.8-0.2,1.6,0.3,2.2c3,4.3,6.7,7.8,11.2,10.4
		c1.2,0.7,2.6,0.5,3.1-0.9c0.9-2.5,1.5-5.1,2.1-7.6c0.2-0.8-0.2-1.6-1-1.9C147.5,261.6,144.4,256.9,140.7,251.2z M150.3,312.6
		c3.4-5,3.4-5.1-1.3-7.1c-5.5-2.4-10.4-5.7-14.4-10.1c-2.2-2.5-4.7-4.8-1.8-8.5c1.2-1.5-0.6-2.5-1.7-3.3c-1.1-0.7-1.7,0.2-2.2,1
		c-0.9,1.3-1.7,2.6-2.6,3.9c-1.1,1.5-1,2.7,0.2,4.2C133.3,300.7,141.2,307.3,150.3,312.6z M175.5,81.3c-2.7,1.9-5.6,1.7-6.4,3.8
		c-1.3,3.3-1.7,6.9-2.5,10.4c-0.1,0.2,0.1,0.7,0.3,0.8c3.3,2.2,4.8,5.6,6.4,9c0.5,1.1,1.3,1.2,2.2,0.5c1.2-0.9,2.2-1.9,1.8-3.5
		C175.9,95.8,175.5,89.1,175.5,81.3z M142.1,133.4c-2.7,5.5-6.5,9-11,12.3c3.9,2,7.4,3.8,10.8,5.7c1.4,0.8,2.2,0.5,2.9-1
		c1.1-2.3,2.3-4.5,3.5-6.6c0.6-1,0.8-2,0-3C146.4,138.5,144.5,136.2,142.1,133.4z M52.8,279.2c-6,0-9.2,2.6-9.5,7.4
		c-0.1,1.3,0.3,2.3,1.7,2.2c3.7-0.2,7.5-0.6,11.2-0.9c0.8-0.1,1.4-0.5,1.7-1.4C59.3,282.4,57.1,279.2,52.8,279.2z M145.4,276.8
		c-1.4-2.3-3.4-3.3-5-4.7c-1.5-1.4-2.5-3.6-5-4c-1.3,3.5-2.1,6.9-2.7,10.4c-0.3,1.9,0.6,2.9,1.8,3.9c1.3,1.1,2.3,0.1,3.3-0.6
		C140.2,280.2,142.7,278.6,145.4,276.8z M28.2,88.8c1.5-8.3-2-16.5-8.9-21.1c1.3,3.2,2.5,6,2.3,8.9C21.2,82,24.5,85.1,28.2,88.8z
		 M111.9,279.3c1.4,0,2.5-0.1,3.6,0c2.5,0.2,3.2-1.2,3.2-3.4c0.1-3.9-4.5-6.8-8.1-5c-1.8,0.9-4.4,5.5-3.7,7.1
		C108,280.7,110.4,279,111.9,279.3z M106.9,109.1c4.3-2.9,8.6-5.8,13-8.6c1.8-1.2,1.3-2.7,0.4-4c-1.1-1.5-5.9-1-6.5,0.7
		C112.3,101.7,109.7,105.3,106.9,109.1z M104.5,111.1c-2.3,0.5-3.8-0.8-5.4-2.1c-1.1-0.9-2.1-0.8-2.6,0.5c-1.6,3.6-2.9,7.3-2.3,11.6
		C97.9,117.6,101.2,114.4,104.5,111.1z M21.5,286.3c3.2,0.7,5.9,0.4,8.5,0.4c2,0,2.5-1.4,2.9-3c0.2-0.9,0.5-2.1-0.6-2.4
		c-2.5-0.7-5.3-1.3-7.7-0.6C22.3,281.3,22.4,284,21.5,286.3z M11.2,172.3c4.8-5.5,4.7-11.4-0.1-15.2
		C10.1,162.2,11.5,167.2,11.2,172.3z M109.6,266.9c-2.5-0.5-4.4,0.1-6.4,0.2c-2.3,0.2-3.2,1.7-3.7,3.6c-0.4,1.3-0.1,2.2,1.4,2.2
		c2,0.1,4.1,0.5,5.4-1.8C107.1,269.7,108.8,268.9,109.6,266.9z M161.1,103.9c2.9,1.3,5.7,2.6,9.2,2.5c-0.3-0.9-0.4-1.5-0.7-2.1
		C166.6,97.9,165.5,97.9,161.1,103.9z M118.3,239.9c-3.9,4.3-5.5,11.6-3.9,16.9C116.6,251.4,117.9,246.1,118.3,239.9z M24.7,114.9
		c-0.8,2.5-1.2,5.1-2.6,7.4c-1.5,2.4-4.6,3.1-5.8,5.9C22.9,128,26.4,122.5,24.7,114.9z M15.2,133.8c0.3,3,1.2,5.7,1,8.7
		c-0.2,3.3-3.8,4.6-4.4,7.9C18.5,147.3,19.9,140.5,15.2,133.8z M151.4,100.6c-1.7-1.1-3.4-2.3-5-3.5c-3.3-2.4-3.3-2.4-5.4,1.9
		C144.4,100.3,147.9,100.7,151.4,100.6z M144.6,166.7c2.9-0.5,4.6-2,6.2-3.5c0.7-0.6,0.7-1.5,0-2c-1-0.9-1.9-2.3-3.5-2
		c-1.2,0.3-1,1.8-1.3,2.8C145.6,163.4,145.2,164.8,144.6,166.7z M32.1,58.2c0.2-1.7-0.1-3.4-2-3.5c-2.1-0.2-1.9,1.9-2.3,3.3
		c-0.1,0.6-0.1,1.2-0.1,1.8c0,0.9,0.1,1.9,1.3,2c1.1,0.1,2.2-0.3,2.7-1.3C32.1,59.8,32,58.9,32.1,58.2z M159.2,116.5
		c6.4,2.8,7.6,2.2,8.7-3.8C165.1,113.9,162.4,115.1,159.2,116.5z M18.6,122.1c3.3-2.8,3.7-4.1,2.5-8.4
		C19,117.2,18.7,118.4,18.6,122.1z"/>
	<path class="st2" d="M6.5,67.2c3.3,1.9,5,5,6.3,8.4c0.5,1.4,0.8,2.9,0,4.1c-2.1,3.1-0.4,5,1.5,7.3c3.3,3.9,6.3,8.1,9.1,12.7
		c-2.8,1.5-5.9,1.3-8.6,2.5c-3,1.4-3.6,2.9-1,4.7c4.6,3.3,3.7,6.9,2.3,11.3c-3.6,11.3-6.5,22.8-7.8,34.7c-1.9,16.4,0.8,32,8.2,46.8
		c0.9,1.9,1.4,3.6,1.2,5.8c-1.7,14.7,0.1,29,6.5,42.5c1,2,1.4,4.1,1.4,6.3c0.2,9.9-2,19.2-5.8,28.3c-0.4,0.9-0.9,1.7-1.2,2.6
		c-1.1,3.3-0.4,4.3,3,4.4c3.9,0.1,7.8,0,11.7,0c1.8,0,3.2-0.4,2.4-2.7c-0.3-0.9,0-1.8,0.3-2.7c2.1-6.9,3.6-13.9,4.5-21
		c0.1-0.6,0.2-1.2,1.2-1.7c3,3.9,4,8.5,4.2,13.3c0.1,1.9-1.1,3.2-2.3,4.4c-2.2,2.4-3.3,5.3-3.2,8.6c0,2.9,1,4.1,3.9,4
		c4.4-0.1,8.7-0.7,13.1-0.9c2.6-0.2,3.5-1.5,3.5-3.9c-0.1-9.8-1-19.4-5-28.4c-1.5-3.5-1.4-6.5-0.3-9.9c1.9-5.7,4.9-10.8,7.1-16.3
		c2.1-5.2,3.9-10.6,4.5-16.2c0.2-2.2,1.2-3.2,3.3-3.8c4.5-1.1,9-2.4,13.5-3.8c1.5-0.4,2.6-0.6,3.5,1c3.9,6.9,8.5,13.1,15.6,17.1
		c2,1.1,1.5,3.3,1.5,5.1c0.1,11.1-2.3,21.7-5.9,32.1c-0.8,2.2-1.7,4.4-2.5,6.5c-1.6,4.2-0.6,5.8,3.8,5.7c2.8,0,4,0.8,3.7,3.7
		c-0.2,1.9,1,2.9,2.9,2.8c4.1-0.1,8.1-0.3,12.2-0.5c1.7-0.1,2.5-1.1,2.6-2.7c0.1-1.2,0.4-2.6,0.1-3.7c-1-4.3,0.8-7.8,2.8-11.4
		c4.6-8,8.8-16.2,11.7-25c1.3-3.7,2.3-7.5,2.3-11.4c0-0.8,0.2-1.7-0.2-2.3c-3-4.5-0.4-8,1.5-11.9c2.4-4.8,3.1-10.1,3.4-15.5
		c0.5-7.8,0.1-15.6-1-23.4c-0.3-2.6,0.2-3.8,2.9-4.8c3.3-1.2,6.4-1.9,9.9-1.3c4.7,0.7,9.4,0.2,13.9-1.3c2.1-0.7,2.9-0.4,4.2,1.8
		c3.4,5.7,1.4,10.2-1.5,15.1c-8.2,13.8-16.7,27.5-23.6,42.1c-7.3,15.3-13.3,31-17.4,47.4c-0.7,2.6-1.6,5.1-3,7.4
		c-8.3,13.6-18.6,25.1-33.4,31.9c-0.5,0.3-1,0.7-1.5,1c-28.7,0-57.5,0-86.3,0C6.5,231.7,6.5,149.5,6.5,67.2z"/>
	<path class="st2" d="M152.8,10c0.9,3.5,3,6.5,4.7,9.6c6.1,11.3,11.2,23,14.7,35.4c0.4,1.3,0.9,2.6,0.7,4.1c-4.2,0.1-4.3,0-4.2-3.7
		c0.2-4.1-0.2-8.1-1.8-12c-1.2-3-3.3-4.4-6.4-4.5c-4.4,0-8.7,0.6-12.9,2.2c-1.9,0.7-3.4,0.6-5.2-0.6c-5.3-3.7-11.4-4.8-17.7-5.2
		c-3.3-0.2-4.9,1.3-6.1,3.9c-1.4,3.2-1.6,6.7-2,10.1c-0.1,1.3,0.3,3.2-1.8,3.1c-2.1-0.2-4.8,1.3-6.3-1.5c-1-1.8-1.7-3.6-0.8-5.8
		c1.9-4.7,3.2-9.5,3.1-14.6c-0.1-2.5,1.5-2.7,3.4-2.7c6.7-0.1,13.4-0.5,20-2c0.6-0.1,1.2-0.2,1.8-0.4c3.8-1.1,4-1.6,2.5-5.2
		s-4.2-6.5-5.4-10.2C139.7,10,146.3,10,152.8,10z"/>
	<path class="st2" d="M38.4,10c-1.3,3.6-1.4,7.3-1.5,11.1c-0.2,3.7-0.2,3.8-4,4.1c-5.9,0.5-11.3,2.2-16,5.8c-2.1,1.6-3,3.1-1.7,5.9
		c2.1,4.4,4.5,8.5,8.3,12.3c-5.3,2.9-6.3,8.1-7.5,13.5c-2.1-0.5-3.3-2-4.8-3s-2.9-1.8-4.7-0.9c0-16.2,0-32.3,0-48.8
		C17.1,10,27.8,10,38.4,10z"/>
	<path class="st2" d="M127.6,144.4c-3.2-0.7-6.3-1.4-9.5-2c-13.9-2.3-26.7,0.9-38.7,7.8c-3.5,2.1-7.1,3-11.1,2.8
		c-3.3-0.2-6.6-0.1-9.8-0.2c-3,0-5.9-0.6-8.7-1.8c-4.2-1.7-7.3-4.2-7.9-9c-0.7-5.5,0.9-10.2,5-13.9c1.3-1.2,2.9-1,4.4-0.8
		c4.2,0.5,8.4,1.1,12.5,1.5c4.3,0.5,8,0,9.6-5.1c0.8-2.4,3.3-4,3.3-7c0-2.6-0.6-4.4-3.4-5.3c-5.7-1.9-10.7-5.3-14.9-9.6
		C53.6,96.9,48,94.1,41,94.2c-2.5,0-2.8-0.9-3-3.3c-0.3-5.1,0.2-9.1,6.3-10.2c2.1-0.4,3.5-2,2.9-4.6c-0.3-1.4,0.4-2.3,1.5-3.1
		c4.6-3.1,8.2-7.2,10.6-12.2c0.5-0.9,0.7-2.3,2.2-1.8c1.1,0.4,2.3,0.6,2.6,2.3c1.1,5.6,4,10.5,7.2,15.1c1.7,2.5,2.2,4.5,0.6,7.2
		c-2.3,4-3.1,8.5-2.9,13.1c0.2,4.5,1.5,5.6,5.9,4.9c4-0.6,8-1.5,11.8-3c2-0.8,3.3-0.4,4.2,1.5c0.1,0.3,0.3,0.6,0.5,0.8
		c3.3,3.1,3.4,6.4,1.4,10.4c-1.9,4-2.1,8.5-1.8,12.9c0.3,3.6,0.7,4,4.2,4.1c6.3,0.2,12.5-0.3,18.6-1.7c3.7-0.8,3.8-0.8,5,2.7
		C120.9,134.7,124.3,139.4,127.6,144.4z"/>
	<path class="st2" d="M175.5,81.3c0.1,7.8,0.4,14.4,1.9,21c0.4,1.6-0.6,2.6-1.8,3.5c-0.9,0.7-1.7,0.6-2.2-0.5
		c-1.6-3.4-3.1-6.8-6.4-9c-0.2-0.1-0.4-0.6-0.3-0.8c0.8-3.5,1.2-7.1,2.5-10.4C169.9,83.1,172.8,83.2,175.5,81.3z"/>
	<path class="st2" d="M142.1,133.4c2.4,2.8,4.2,5.1,6.2,7.3c0.9,1,0.6,1.9,0,3c-1.2,2.2-2.4,4.4-3.5,6.6c-0.7,1.5-1.5,1.8-2.9,1
		c-3.4-1.9-6.9-3.6-10.8-5.7C135.6,142.4,139.4,138.8,142.1,133.4z"/>
	<path class="st1" d="M52.8,279.2c4.4,0,6.6,3.2,5.1,7.3c-0.3,0.8-0.8,1.3-1.7,1.4c-3.7,0.3-7.5,0.7-11.2,0.9
		c-1.4,0.1-1.8-0.9-1.7-2.2C43.5,281.8,46.8,279.2,52.8,279.2z"/>
	<path class="st2" d="M28.2,88.8c-3.8-3.7-7-6.9-6.6-12.2c0.2-2.9-1-5.7-2.3-8.9C26.2,72.3,29.7,80.5,28.2,88.8z"/>
	<path class="st1" d="M21.5,286.3c0.9-2.3,0.8-5,3.1-5.6c2.5-0.7,5.2-0.1,7.7,0.6c1.1,0.3,0.8,1.5,0.6,2.4c-0.4,1.5-0.9,3-2.9,3
		C27.4,286.7,24.8,287,21.5,286.3z"/>
	<path class="st2" d="M11.2,172.3c0.2-5.1-1.2-10.1-0.1-15.2C16,160.9,16.1,166.7,11.2,172.3z"/>
	<path class="st2" d="M118.3,239.9c-0.3,6.1-1.7,11.4-3.9,16.9C112.7,251.6,114.4,244.2,118.3,239.9z"/>
	<g>
		<path d="M203.1,212.7c-3.9,1.9-5.8,5.4-7.6,8.7c-0.2,0.4-0.4,0.8-0.7,1.2c-5.9,10.5-9.3,21.7-12.8,34.3c-0.1,0.5-0.3,1-0.3,1.6
			c0,2.1,1,3.9,2.7,5c0.9,0.5,1.8,0.8,2.8,0.8c0.8,0,1.6-0.2,2.4-0.6c4.3-2.1,8.9-2.6,13.7-3.2l1.3-0.2V212L203.1,212.7z"/>
		<path d="M127.7,56.9c-5.2-1.4-10.3-2.7-15.6-2.3c-3.3,0.2-4.8-0.7-5.8-3.5c-1.3-3.8-4.1-7-8.1-9.7c-3.2-2.1-4.5-2-7.4,0.7
			c-3.1,2.9-4.8,6.6-5.2,11c-0.2,2.3-0.8,3-3,3.1c-4.3,0.2-8.3,1.8-12,3.4c-2.1,0.9-3.3,1.5-3.7,2.6c-0.4,1.2,0.2,2.4,1.2,4.6
			c2.2,4.6,4.5,8.4,7.2,11.8c1,1.2,1.1,1.8,0,3.2c-2.8,3.4-4.2,7.8-4.4,13.3c0,1.8,0,3.1,0.9,3.9s2.2,0.6,4.1,0.4
			c4.3-0.7,8.6-1.9,12.8-3.7c1-0.4,1.6-0.5,2-0.4c0.4,0.2,0.7,0.9,0.8,1.5c1.1,4,4.1,6.7,6.9,9.2l0.4,0.4c1.4,1.2,2.4,1.8,3.4,1.8
			c1.1,0,2.2-0.7,3.6-1.9c2.9-2.5,4.8-5.8,5.8-9.6c0.4-1.5,0.6-2.4,1-2.6c0.4-0.3,1.5-0.2,3.1-0.2c3,0.3,6-0.5,9.3-1.4
			c2.1-0.6,3.6-1.2,4.3-2.5s0.3-3-0.6-5.3c-1.3-3.5-3.7-6-6.1-8.2c-0.8-0.7-2.3-2.1-2.3-2.4s1.6-1.4,2.5-2.1
			c3.3-2.3,5.6-5.6,7.2-10.3c0.4-1.2,0.4-2.2,0-3C129.8,57.8,129,57.2,127.7,56.9z"/>
		<path d="M150.9,159.8c-0.8-0.8-2-2-3.7-1.6c-1.5,0.4-1.7,1.8-1.9,2.7c0,0.3-0.1,0.6-0.1,0.8c-0.3,1-0.6,1.9-1,3.1l-1,3.2l1.6-0.3
			c3.1-0.5,5-2.2,6.8-3.8c0.6-0.5,0.9-1.1,0.9-1.8c0-0.6-0.3-1.2-0.8-1.7C151.3,160.2,151.1,160,150.9,159.8z"/>
	</g>
	<path class="st2" d="M32.1,58.2c-0.1,0.7,0,1.6-0.3,2.2c-0.5,1.1-1.6,1.4-2.7,1.3c-1.2-0.1-1.3-1.1-1.3-2c0-0.6,0-1.2,0.1-1.8
		c0.3-1.4,0.2-3.5,2.3-3.3C32,54.8,32.3,56.5,32.1,58.2z"/>
	<path class="st2" d="M159.2,116.5c3.2-1.4,5.9-2.6,8.7-3.8C166.8,118.8,165.6,119.4,159.2,116.5z"/>
	<path d="M49.2,114c-4.1,0-7.1-1.1-9.6-3.4c-1.1-1-1.3-1.9,0-3c4.3-3.6,12.1-2.9,15.7,1.4c1.5,1.8,1.3,3-0.9,4
		C52.5,113.7,50.6,114.1,49.2,114z M53.8,110.7c-2-1.9-3.3-3.7-5.8-2.7c-0.9,0.3-1,1.7-0.5,2.5C49.2,112.9,51.2,111.4,53.8,110.7z"
		/>
	<path d="M113.1,148.4c-3.9,1.2-7.8,1.3-11.6-0.1C105.3,147,109.2,147,113.1,148.4z"/>
	<path d="M61.6,165.4c-3.3,1.4-6.3,1.1-9.7,0.3C54.8,163.7,57.8,163.6,61.6,165.4z"/>
	<path d="M102.8,154.1c3.6-1.6,7.2-0.8,10.7,0.3C109.9,155.7,106.3,155.3,102.8,154.1z"/>
	<path d="M79.7,164.7c-3,2-6.2,2-9.6,1.1C73.2,163.8,76.4,163.8,79.7,164.7z"/>
	<path d="M78.2,159.1c-3.1,1.5-6.3,2.1-10.5,0.6C71.7,157.8,75,158.3,78.2,159.1z"/>
	<path d="M133.6,154.7c-4.6-0.4-7.9-1.8-11.7-3.6C125.4,150,129.7,151.3,133.6,154.7z"/>
	<path d="M93.4,150.7c-2.7,2.2-5.7,3.8-10.2,3.6C86.7,151.6,89.9,150.6,93.4,150.7z"/>
	<path d="M50.5,158.5c3.7-1.2,6.6-0.2,9.5,0.3c0.4,0.1,0.7,0.5,0.7,1c0,0.6-0.5,0.9-0.9,0.8C56.9,160,53.8,160.7,50.5,158.5z"/>
	<path d="M95.3,155.5c-2.4,2.2-5.2,3.3-9.5,3.1C89.3,156.1,92.1,155.2,95.3,155.5z"/>
	<path d="M104,160.3c3.7-1.3,4.4-1.2,8.2,0.2C109.2,162.5,106.6,161.1,104,160.3z"/>
	<path d="M54.7,172c2.4-1.8,5-2.1,8.7-1.4C60.2,172.8,57.5,172.6,54.7,172z"/>
	<path d="M128.2,163.4c-2.9,0.6-5-0.5-7.2-2.1C123.9,160.4,124.9,160.7,128.2,163.4z"/>
	<g>
		<g>
			
				<ellipse transform="matrix(9.053404e-02 -0.9959 0.9959 9.053404e-02 -127.5293 412.3638)" class="st0" cx="162" cy="276" rx="34.7" ry="34.7"/>
			<path d="M162,312.2c-19.9,0-36.2-16.2-36.2-36.2s16.2-36.2,36.2-36.2s36.2,16.2,36.2,36.2S181.9,312.2,162,312.2z M162,242.8
				c-18.3,0-33.2,14.9-33.2,33.2s14.9,33.2,33.2,33.2s33.2-14.9,33.2-33.2S180.3,242.8,162,242.8z"/>
		</g>
		<g>
			<path class="st3" d="M147.9,270.4c0.1,0.2,0.7,0.8,1.4,0.8l0,0c0.4,0,0.7-0.2,1-0.5c0.2-0.2,1.5-1.6,1.5-2.4
				c0-0.3-0.2-0.7-1.2-2.2c-0.6-0.9-1.4-2.3-1.5-2.7c-0.2-0.9-0.8-1.3-1.7-1.3c-0.5,0-1,0.1-1.2,0.4c-0.3,0.3-0.4,0.7-0.4,1.5
				s0.2,1.9,0.7,3.3C147,268.7,147.5,269.7,147.9,270.4z"/>
			<path class="st3" d="M183.1,286.2c-0.5-1.1-1-2-1.8-1.9c-0.7,0.1-1,1.1-1,3.9v3.2l-1.4,0.7c-0.4,0.2-0.6,0.2-2.1,0.2
				c-0.5,0-1.2,0-2.2,0c-2.9,0.1-4.7,0.2-5.8,0.3c-0.3,0-0.5,0-0.8,0.1c-0.9,0.1-1.7-0.1-2.5-0.5s-1.3-0.9-1.6-1.5
				c-0.2-0.5-0.1-1.1,0-1.7c0-0.2,0.1-0.3,0.1-0.4c0.2-0.6,0.3-1.1,0.5-2.5c0.2-1.8,0.7-4.6,2-8.4c0.1-0.4,0.1-1.1-1.1-1.8
				c-0.7-0.4-1.4-0.8-2.2-1.1c-0.2-0.1-0.3-0.1-0.4-0.2c0.2-0.1,0.6-0.2,1.1-0.3c1.2-0.3,2.4-0.5,3.5-0.6c1,0,2,0.2,3.2,0.8
				c2,1,2.1,1,2.2,1c0.5,0,0.8-0.5,1.3-1.8c0.4-1.3,0.5-1.8,0.2-2.1c-0.1-0.2-0.5-0.5-2.9-1.9c-2-1.2-3.3-1.6-4-1.1
				c-0.3,0.2-0.6,0.5-0.6,1.3v0.1c-0.3,0-0.9,0.1-3.1,0.6c-1.1,0.3-1.6,0.3-1.8,0.4v-0.1c0-0.1,0-0.5,0.9-0.9
				c1.1-0.5,3.6-2.8,7.8-6.9c2.3-2.2,3.7-3.6,4.3-4.4c0.6-0.9,0.9-1.7,0.8-2.4c-0.1-0.7-0.6-1.4-1.5-1.9c-0.8-0.5-1.1-0.7-1.3-0.8
				c-0.3-0.4-0.7-0.6-1.1-0.8c-0.5-0.2-1-0.3-1.4-0.2c-0.6,0.1-1,0.5-1,1.1c0,0.5,0.3,1.1,0.9,1.9c0.4,0.6,0.4,0.8,0.4,0.8
				s-0.1,0.3-0.7,1.5c-0.6,1-2.1,3-4.4,5.9c-2,2.5-3,3.6-3.5,4c0-0.3,0-0.8,0-1.3c0-0.6,0-1.4,0.1-2.5c0.2-4,0.4-6.7,0.6-8.1
				c0.2-1.6,0.5-2.2,0.7-2.6c0.5-0.9,0.7-1.5,0.5-2.1c-0.2-0.5-0.7-1.1-1.7-1.8c-0.5-0.3-1-0.6-1.5-0.8c-1.3-0.5-2.1-0.6-2.6-0.3
				c-0.3,0.2-0.4,0.5-0.4,0.8s0.1,0.7,1.1,1.7c0.3,0.3,0.4,0.7,0.4,1.2c0,0.6-0.1,2.1-0.3,4.5c-0.8,9.6-1.3,14.7-1.3,15.5
				c0,0.1,0,0.1,0,0.1s-0.1,0-0.3,0c-0.4,0-1.1,0.1-3.4,0.9c-4.3,1.7-7.8,2.7-10.3,2.8c-1.9,0.1-2.8,0.4-2.9,1
				c-0.2,0.9,0.6,1.7,1.3,2.3c1,0.9,1.8,1.2,2.5,1c0.1,0,0.4-0.2,1.5-0.6c0.9-0.3,1.8-0.6,2.7-0.9s2-0.6,3.2-1
				c0.9-0.3,1.7-0.5,2.4-0.7c0,0.2,0,0.5,0,0.8c-0.1,1.1-1.6,3.9-8.4,10.8c-4.1,4.1-5.1,4.5-5.3,4.5c-1.3,0-1.4,0.8-1.4,1.1
				c0,0.5,0.3,0.9,0.8,1c1.1,0.2,2.9-0.5,5.3-2.1c1.3-0.9,3.2-2.5,5.6-4.8c2.4-2.3,4.3-4.3,5.6-5.8c0.9-1.1,1.5-2.2,2-3.1
				c0.2-0.4,0.8-1.7,0.1-2.4c-0.2-0.2-0.5-0.4-1.4-0.6l1.1-0.3c1.1-0.3,1.6-0.3,1.9-0.3c0.1,0,0.2,0,0.3,0.1
				c0.1,0.5,0.4,1.1,1.1,1.7l0.7,0.8l-0.9,3.6c-0.6,2.6-1,5-1.1,7.2c-0.2,1.5-0.2,2.5-0.1,3c0.1,0.6,0.4,1.2,1,2
				c0.9,1.1,2,1.8,3.3,2.3c1.4,0.5,3.7,0.4,7,0.4c1.1,0,2.3,0,3.6,0c1.9,0,3,0,3.6,0.1c0.3,0,0.5,0,0.7,0c0.5,0,0.8-0.1,1.5-0.3
				l0.3-0.1c1.4-0.5,2.2-1.8,2.5-3.9C184.3,290.1,184,288.1,183.1,286.2z"/>
		</g>
	</g>
	
		<linearGradient id="SVGID_1_" gradientUnits="userSpaceOnUse" x1="105" y1="-128" x2="105" y2="-452" gradientTransform="matrix(1 0 0 -1 0 -128)">
		<stop  offset="0" style="stop-color:#EB1A21"/>
		<stop  offset="1" style="stop-color:#A51A21"/>
	</linearGradient>
	<path class="st4" d="M210,324c-70,0-140,0-210,0C0,216,0,108,0,0c70,0,140,0,210,0C210,108,210,216,210,324z M199.9,162.6
		c0-46.5-0.2-87.6-0.2-134.1c0-9.4-3.5-18.1-13-18.1c-50.8,0-101-0.4-151.8-0.4c-4,0-8.3,0.5-12.3,0.7c-5.9,0.2-11.3,6.1-11.3,11.8
		c0,93.3-0.4,182.4-0.4,275.8c0,1.5,0.2,1.6,0.3,3.1c0.7,6.6,5,12.6,11.3,12.6c55.5,0,107.4,0.2,162.9,0.3c1.9,0,3.6-0.7,5.3-1.7
		c5.5-3,9.5-6,9.5-12.1C200.1,254,199.9,208.9,199.9,162.6z"/>
	<path d="M200.8,161.4c0.1-9.1,0-18.3,0.1-27.6c0.2-36.3,0.1-72.7,0-109c0-9.1-6.8-15.3-16-15.3c-52.8,0-105.7,0-158.5,0
		c-9.4,0-15.6,6.2-15.6,15.8c0,38.4,0.2,76.7,0.1,115.1c0,29.5-0.4,58.9-0.5,88.4c-0.1,23.5-0.1,47-0.1,70.4c0,8,6.5,15.3,13.7,15.3
		c54.3,0.1,108.6,0,162.9,0c2.2,0,4-0.5,5.9-1.8c5.1-3.5,8.1-7.9,8-14.4C200.7,252.7,200.8,207.1,200.8,161.4z M186.5,310.2
		c-3,0-3.7,0-3.7,0s-103.1,0-154.7,0c-8.3,0-13.1-4.5-13-14.9c0-22.8,0-45.6,0.1-68.4c0.1-28.6,0.5-57.2,0.5-85.9
		c0.1-37.3-0.2-75.1-0.1-112.3c0-7.9,2.5-14.8,12.6-14.8c50.2,0,105.1,0.2,155.3,0.2c8.7,0,13,5.3,12.6,14.1c0,35.2,0,106.5,0,106.5
		v27c0,0,0,91.6,0.1,135.9C196,304.4,191.2,309.6,186.5,310.2z"/>
	<g>
		<g>
			<polygon class="st2" points="29.9,305.4 29.9,253.6 21,258 21,239.7 33,233.2 46.9,233.2 46.9,305.4 			"/>
			<path d="M43.8,236.3v66H33v-53.6l-8.7,4.3v-11.5l9.6-5.4h9.9 M50,230.1h-6.2h-9.9h-1.6l-1.4,0.8l-9.6,5.4l-3.3,1.7v3.7v11.5v10.1
				l8.7-4.3v43.6v6.2H33h10.9H50v-6.2v-66V230.1L50,230.1z"/>
		</g>
		<g>
			<path class="st2" d="M77.2,306c-7.1,0-12.7-2-16.6-5.9s-5.9-9.3-5.9-16v-30.1c0-6.8,2-12.1,5.9-16c3.9-3.9,9.5-5.9,16.6-5.9
				c7.1,0,12.7,2,16.6,5.7c3.9,3.9,5.9,9.3,5.9,16.1v30.1c0,6.8-2,12.1-5.9,16C89.9,304,84.3,306,77.2,306z M77.2,248.8
				c-2.8,0-3.7,1.1-4,1.4c-0.9,1.1-1.4,2.9-1.4,5.4v26.8c0,2.5,0.5,4.3,1.4,5.4c0.3,0.3,1.1,1.4,4,1.4c2.9,0,3.7-1.1,4-1.4
				c0.9-1.1,1.4-2.9,1.4-5.4v-26.8c0-2.5-0.5-4.3-1.4-5.4C80.9,249.9,80.1,248.8,77.2,248.8z"/>
			<path d="M77.2,235.4c6.4,0,11.2,1.7,14.4,5c3.3,3.3,5,7.9,5,13.8v30.1c0,5.9-1.7,10.5-5,13.8s-8.1,5-14.4,5s-11.2-1.7-14.4-5
				s-5-7.9-5-13.8v-30.1c0-5.9,1.7-10.5,5-13.8C66.2,237.1,71,235.4,77.2,235.4 M77.2,292.6c2.9,0,5.1-0.9,6.4-2.6
				c1.4-1.7,2-4.2,2-7.4v-26.8c0-3.3-0.6-5.7-2-7.4c-1.4-1.7-3.6-2.6-6.4-2.6c-2.8,0-5.1,0.9-6.4,2.6c-1.4,1.7-2,4.2-2,7.4v26.8
				c0,3.3,0.6,5.7,2,7.4C72.2,291.6,74.2,292.6,77.2,292.6 M77.2,229.1c-7.9,0-14.3,2.3-18.8,6.7c-4.5,4.5-6.8,10.5-6.8,18.3v30.1
				c0,7.6,2.3,13.6,6.7,18.1c4.5,4.5,10.9,6.8,18.8,6.8c7.9,0,14.3-2.3,18.8-6.7c4.5-4.5,6.8-10.5,6.8-18.3v-30.1
				c0-7.6-2.3-13.8-6.8-18.3C91.4,231.5,85.1,229.1,77.2,229.1L77.2,229.1z M75.6,252.3c0,0,0.5-0.2,1.6-0.2c1.2,0,1.6,0.3,1.6,0.3
				c0.3,0.5,0.6,1.6,0.6,3.6v26.8c0,2-0.3,3.1-0.6,3.6l0,0c0,0-0.5,0.2-1.6,0.2c-1.2,0-1.6-0.3-1.6-0.3c-0.3-0.5-0.6-1.6-0.6-3.6
				v-26.8C75,253.8,75.3,252.7,75.6,252.3L75.6,252.3L75.6,252.3z"/>
		</g>
	</g>
</g>
</svg>
