<?xml version="1.0" encoding="utf-8"?>
<!-- Generator: Adobe Illustrator 22.0.1, SVG Export Plug-In . SVG Version: 6.00 Build 0)  -->
<svg version="1.1" id="레이어_2_1_" xmlns="http://www.w3.org/2000/svg" xmlns:xlink="http://www.w3.org/1999/xlink" x="0px"
	 y="0px" viewBox="0 0 210 324" style="enable-background:new 0 0 210 324;" xml:space="preserve">
<style type="text/css">
	.st0{fill:#005CA9;}
	.st1{fill:#EB1A21;}
	.st2{fill:#FFFFFF;}
	.st3{fill:url(#SVGID_1_);}
</style>
<g>
	<g>
		<path class="st0" d="M159.1,261.2c0-1.7-1-2.8-1.8-3.8c-0.1-0.2-0.3-0.3-0.4-0.5c-11.8-14.8-21.4-31.8-29.3-52.1
			c-12.3-31.4-20-66.9-24.4-111.5c-0.6-6.4-1.1-13-1.5-19.3c-0.2-3.4-0.5-6.9-0.7-10.3c-0.3-4.2-0.7-4.6-4.9-4.9
			c-2.3-0.1-4.5-0.3-6.8-0.4l-10.5-0.6c-9.9-0.6-20.2-1.2-30.3-1.7c-1.9-0.1-3.1-0.2-3.9,0.6c-0.8,0.8-0.7,1.9-0.5,3.8
			c0.2,3,0.4,5.9,0.6,8.9c0.6,8.2,1.2,16.7,2,25c2.1,22.2,4.5,40.6,7.5,57.9c4.7,27.1,9.8,47.7,16.6,66.6
			c5.9,16.5,12.5,29.3,20.6,40.4c2.1,2.8,4.3,4,7.8,4c0.1,0,0.2,0,0.3,0c12.7-0.2,25.7-0.4,38.2-0.5c5.7-0.1,11.5-0.1,17.2-0.2
			c0.2,0,0.4,0,0.6,0c1,0,2.2,0.1,3.2-0.9l0.3-0.3L159.1,261.2z"/>
		<g>
			<path class="st1" d="M23.6,76.4c2.2-0.3,2.7-0.1,2.8,0c0.1,0.1,0.3,0.6-0.4,2.8c-1.8,5.5-2.5,10.2-2.1,14.8
				c0.6,6.6,2.8,12.3,6.5,17.4l0.8,1.1l0.8-1.1c7.5-10,12.3-19.6,12.1-24.5v-1h-1c-1.3,0-2,0.9-2.5,1.5l-0.2,0.2
				c-0.7,0.9-1.4,1.7-2.1,2.6c-1.5,1.9-3.1,3.8-4.7,5.6c-0.7,0.7-1.1,0.9-1.4,0.9c-0.2,0-0.6-0.4-0.9-1.3c-0.1-0.4-0.2-0.8-0.3-1.3
				c0-0.3-0.1-0.7-0.2-1c-1.7-7.8-1.2-14.3,1.7-20.3l0.6-1.2l-1.3-0.3c-5.2-1.1-9.6-3.3-13.6-6.9c-1.6-1.4-1.7-1.9-1.7-2.1
				c0-0.2,0.3-0.6,2.1-1.5c5.3-2.7,11-3.5,17.4-2.4c0.2,0,0.4,0.1,0.6,0.2c0.8,0.3,2.2,0.8,3.5-0.6l0.6-0.6l-0.5-0.7
				c-6-7.9-10.9-16.7-14.9-26.8c-0.1-0.3-0.3-0.6-0.4-0.9c-0.3-0.7-0.6-1.4-0.8-2.1c-0.2-0.7,0-1.2,0.1-1.3c0.2-0.2,0.7-0.1,1.3,0.1
				c0.9,0.4,1.7,0.9,2.6,1.5l0.6,0.4c8,5.1,15.3,12.1,22.3,21.6c0.5,0.6,0.9,1.3,1.4,1.9c0.6,0.8,1.2,1.6,1.8,2.4
				c1.1,1.5,2.4,1.9,3.7,1.3c1.4-0.6,1.3-2,1.2-2.7c0-0.1,0-0.2,0-0.3c0-0.7-0.1-1.4-0.1-2v-0.9c-0.5-9.4,0.5-18.8,3.1-28.1
				c0.1-0.3,0.2-0.6,0.2-1c0.3-1.6,0.5-1.9,1.3-1.9c0.7,0,0.9,0.3,1.3,1.7c0.1,0.3,0.2,0.6,0.3,0.8c1.7,4.6,3.2,9.6,4.6,15.7
				c0.2,0.9,0.4,1.8,0.5,2.8c0.3,2.1,0.7,4.3,1.8,6.6l0.6,1.2l1-0.9c0.7-0.7,1.5-1.3,2.2-1.9c3.4-3,6.6-5.9,10.1-8.5
				c5.5-4,10-6.5,14.5-8.2l0.2-0.1c1.3-0.5,1.8-0.6,2.4,0c0.4,0.4,0.4,0.7-0.3,1.7c-0.1,0.2-0.3,0.4-0.4,0.6
				c-5,9.5-10.5,16.8-16.9,22.5c-0.1,0.1-0.3,0.2-0.5,0.3c-0.8,0.5-2,1.4-1.7,3.5l0.1,0.8h0.8c1.1,0.1,2.1,0.1,3.2,0.1
				c2.4,0.1,4.8,0.2,7.2,0.5c5.3,0.6,8.9-1.7,11.3-7c2.3-5.3,3.4-10.6,3.1-15.6c-0.3-6.2,2.5-10.8,6.1-15.7c0.2-0.3,0.6-0.7,0.9-1
				c0.8-0.8,1.8-1.8,2.2-3.6l0.3-1.4l-1.4,0.2c-13.9,2.2-24.3,6.1-32.9,12.4c-0.4,0.3-0.8,0.6-1.1,0.9c-0.6,0.5-1.3,1-1.9,1.4
				c-1.1,0.7-1.5,0.6-1.5,0.6s-0.3-0.2-0.6-1.6C79,26.4,79,25.6,79,24.8c0-6.9-0.8-13.7-2.4-20.5l-0.2-0.8H54.5l-0.3,0.6
				c-3.7,9.4-4.8,19-3.2,28.6c0.1,0.8,0.1,1.5,0,2c-0.1,0.6-0.4,1-0.7,1.1c-0.4,0.1-0.8-0.1-1.2-0.5c-0.6-0.6-1.1-1.3-1.7-2
				c-0.2-0.3-0.4-0.6-0.6-0.9C40.9,24.6,35.3,19.1,28.9,15c-6.6-4.3-13.1-6.6-20-7c-2,0-3.4,0-4.1,0.9C4,9.8,4.2,11.2,4.7,13
				C7.4,24.5,13,34.7,21.4,43.3c1,1,2,2,2.9,2.9c0.6,0.6,1.3,1.2,1.9,1.9c0.4,0.4,0.5,0.7,0.5,0.8s-0.2,0.4-0.8,0.6
				c-0.6,0.3-1.3,0.5-2.1,0.7c-7.4,2-14.5,5.2-21.8,10l-0.5,0.3V74l1.2-0.3c0.5-0.1,0.9,0.1,1.6,0.4C10.1,76.8,16.4,77.5,23.6,76.4z
				"/>
			<path class="st1" d="M52,298.5l-0.9-0.3c-0.2-0.1-0.3-0.1-0.4-0.2c-0.2-0.1-0.5-0.2-0.9-0.2c-0.5,0.1-1,0.1-1.4,0.2
				c-0.3,0.1-0.7,0.1-1,0.2c-9.9,1.6-19-1.3-28-8.7l-0.1-0.1c-1.1-0.9-1.4-1.3-1.1-2c0.4-1,1.3-1.5,2.6-1.4c0.8,0,1.5,0.2,2.3,0.3
				c0.5,0.1,1,0.2,1.5,0.2c8.2,1,16.5,0.2,26.9-2.8l1.7-0.5l-1.4-1.2c-3.5-3.1-6.4-6.4-9.5-10.7c-7.2-9.9-13.3-20.3-20.3-33
				l-0.2-0.3c-0.2-0.3-0.3-0.6-0.5-0.9c-0.7-1.5-0.3-2,0.2-2.3c0.4-0.3,0.7-0.4,1.8,0.5c1,0.9,2,1.8,2.8,2.6c2,1.9,3.9,3.7,5.9,5.5
				c11.2,10.5,22.8,21.3,32.7,33.7l0.6,0.8l0.8-0.7c6-5.2,12.8-11.1,17.6-18.7c0.2-0.3,0.4-0.6,0.5-0.9s0.3-0.5,0.4-0.8
				c1.5-2.4-0.1-4.3-0.7-5.1c-1.7-2.1-3.8-1-4.7-0.6c-2.2,1.1-4.1,2.6-5.7,4.4c-1.4,1.7-2.6,3.4-3.9,5.1l-0.4,0.5
				c-0.8,1.1-1.2,1.5-1.9,1.4c-0.6-0.1-0.8-0.5-1.1-1.7v-0.1c-1.1-4.4-3.8-7.7-6.6-10.7c-2.4-2.6-5.3-5.2-8.7-8
				C40,233.4,28,226.4,17.7,220.6c-0.1,0-0.1-0.1-0.2-0.1c-0.5-0.4-1.8-1.2-3.3,0.2l-0.4,0.4l0.1,0.6c0.3,1.3,0.6,2.6,0.9,4
				c0.7,3,1.3,6,2.1,9.1c2.4,10,4.9,19.8,8.9,29l0.3,0.8c1.5,3.5,3,7.2,6.6,9.6c0.2,0.1,0.4,0.3,0.6,0.4c1.1,0.7,1.2,0.8,1,1.3
				c-0.2,0.6-0.7,0.7-1.9,0.9c-0.2,0-0.4,0-0.5,0.1c-6.6,0.9-13.2,3.4-20.3,7.5c-0.2,0.1-0.4,0.2-0.6,0.3c-0.9,0.5-2.2,1.1-2.6,2.7
				l-0.2,0.9l1.4,0.4c0.4,0.1,0.7,0.2,1,0.3c4.4,1,6.8,3,8,6.8c1.4,4.2,4.1,7.7,6.6,10.6c1.3,1.5,3.1,3.4,5.6,4.6
				c2,0.9,3.3,1.5,3.5,2s-0.4,2-1.2,3.9c-0.2,0.6-0.5,1.1-0.8,1.7c-0.1,0.3-0.3,0.6-0.4,0.8l-0.7,1.5H37l0.3-0.3
				c7.3-7.1,11.8-13.8,14.3-21.3L52,298.5z"/>
			<path class="st1" d="M76.6,297.4c-0.7-1.1-0.9-1.5-0.4-2.1c0.4-0.5,0.6-0.5,1.7,0c0.4,0.2,0.9,0.4,1.4,0.4
				c8.1,1.3,15.1,1.3,21.6-0.1l0.8-0.2c2.2-0.5,4.6-0.9,6.7-2.5l1.1-0.8l-1.1-0.8c-1.2-0.8-2.2-0.8-3-0.7h-0.3
				c-9.3,0.4-18.6-0.8-28.5-3.6c-2.4-0.7-2.7-1.1-2.7-1.2s0.1-0.6,1.8-2.4c6.3-6.5,10.5-13.2,12.8-20.4c0.1-0.2,0.2-0.5,0.3-0.7
				c0.4-0.9,1.3-2.8-0.8-3.9c-0.6-0.3-1.2-0.4-1.8-0.2c-0.9,0.3-1.4,1.2-1.7,2c-0.1,0.3-0.2,0.5-0.4,0.7
				c-3.8,5.4-8.7,10.5-15.2,15.9c-1.3,1.1-2.6,1.6-3.7,1.5c-1.2-0.1-2.3-0.9-3.4-2.4c-1.1-1.4-2.2-2.9-3.4-4.2
				c-8.3-9.3-17.5-18-26.4-26.3l-0.5-0.5c-0.1-0.1-0.1-0.2-0.2-0.2c-0.4-0.5-1.3-1.5-2.8-0.8l-0.3,0.2l-0.1,0.4
				c-0.4,1.2,0.1,2,0.4,2.6l0.1,0.1c4.6,8,9.6,16.5,15.5,24.3c2.4,3.2,5.4,7.3,9.6,10l0.4,0.2c1.1,0.7,1.5,1,1.4,1.7
				c-0.1,0.9-0.7,1.2-2.3,1.6H53c-0.4,0.1-0.9,0.2-1.3,0.4c-0.5,0.1-1,0.3-1.5,0.4c-10.4,2.5-18.5,3.3-26.2,2.3l-1.9-0.2l0.9,1.7
				c0.1,0.2,0.2,0.3,0.2,0.5c0.1,0.3,0.3,0.6,0.5,0.9c0.4,0.4,0.8,0.7,1.3,1c8.5,5.5,17.5,6.7,26.9,3.6c0.3-0.1,0.5-0.2,0.8-0.3
				c1.1-0.4,1.4-0.5,1.9-0.1c0.6,0.5,0.5,0.9-0.1,2.2c-0.1,0.2-0.2,0.5-0.3,0.7c-2.7,6.5-6.7,14.7-13.4,21.4l-1.7,1.7h8.7l0.3-0.3
				c1.1-1.2,2.2-2.4,3.3-3.6c2.6-2.8,5.3-5.7,7.8-8.6c2.5-3,5-6.3,5.9-10.5c0-0.2,0.1-0.3,0.1-0.5c0.2-1.3,0.4-1.6,1-1.7
				s0.9,0.2,1.5,1.4c0.1,0.2,0.2,0.3,0.3,0.5c3.2,5.3,5.9,10.9,8,16.4c0.1,0.3,0.2,0.5,0.2,0.8c0.3,1.1,0.7,2.6,2.6,3.7l1.3,0.7
				l0.2-1.5c0.7-6.4-0.3-12.6-3-19.1C77.1,298.2,76.8,297.8,76.6,297.4z"/>
			<path class="st1" d="M115.8,283c-8.3-2.2-16.7-2.3-24.4-2.1c-0.4,0-0.8,0-1.2,0.1c-0.7,0-1.4,0.1-2.1,0c-0.5-0.1-0.9-0.2-1-0.5
				c-0.1-0.2,0-0.6,0.4-1c0.3-0.4,0.8-0.8,1.3-1.2c0.4-0.3,0.8-0.6,1.1-1l0.2-0.2c2.9-2.8,5.9-5.7,7.1-10.5l0.3-1.1l-1.1-0.2
				c-1.5-0.2-2.7-1-4.3-1.9l-1.9-1.1l-0.4,1.2c-2.2,6.9-6.1,13.2-12.2,19.9l-0.5,0.6l0.5,0.7c0.9,1.2,1.9,1.5,2.7,1.7h0.2
				c10.6,2.7,21.3,3.4,31.7,1.9c0.5-0.1,1.1-0.2,1.6-0.4c2.2-0.6,2.8-0.6,3.2,0.7c0.4,1.3-0.5,2-2.5,3c-0.4,0.2-0.7,0.4-1,0.5
				c-7.2,4.2-15.5,5.9-26.2,5.5c-0.6,0-1.2-0.1-1.9-0.2c-1.6-0.2-3.5-0.4-5.5,0.2l-1,0.3l0.3,1c1.9,6.4,3.5,13.4,2.1,20.6l-0.2,1.2
				h24.6v-1c-0.1-2.4-1.4-4.2-2.6-5.8c-0.3-0.4-0.6-0.8-0.8-1.1c-1.9-2.9-4.4-5.5-7.7-8.4c-1-0.9-1-1.2-0.8-1.7
				c0.2-0.4,0.4-0.5,1.5-0.3c4.3,0.7,8.2-0.2,11.5-1.3c5-1.6,10.2-3.7,15.9-6.6c0.4-0.2,0.8-0.4,1.3-0.6c1.4-0.6,2.8-1.2,3.9-2.5
				l0.5-0.6l-0.5-0.7C124.6,286.3,121.7,284.5,115.8,283z"/>
			<path class="st1" d="M75.4,316.6c-2-5.3-4-10.8-7.7-16.1l-1-1.4l-0.8,1.6c-3,6.2-7.4,11-11.7,15.6c-0.9,1-1.9,2-2.8,3.1L50,321
				h27l-0.5-1.4C76.1,318.6,75.8,317.6,75.4,316.6z"/>
			<path class="st1" d="M160.9,193.6c0.2,0,0.3,0,0.5,0.1c13.8,1.4,24.6-5.6,35.1-12.3l0.9-0.6l-0.3-0.7c-0.7-2.1-2.1-3.1-3.2-3.9
				c-0.2-0.2-0.4-0.3-0.7-0.5c-6.2-4.9-13.3-8.5-21-10.8c-1.9-0.6-3.8-1-5.7-1.4c-1.4-0.3-2.8-0.7-4.2-1c-1.3-0.4-1.6-0.6-1.6-0.7
				c0-0.1-0.1-0.4,0.5-1.6c3.6-7,4.8-14.4,5.6-21.4c0.7-6.7,1.3-12.8,1-19.5l-0.1-1.3l-1.3,0.5c-17.2,6.1-27.1,15.6-31.4,29.9
				c-0.1,0.4-0.2,0.7-0.2,1.1c-0.2,1.3-0.3,1.5-1,1.5c-0.5,0.1-0.6,0-1.1-1.1c-0.1-0.3-0.3-0.7-0.5-1c-2.7-4.5-6-8.3-9.6-11.3
				c-3.2-2.6-6.7-5.3-11.9-6.4l-1.5-0.3l0.3,1.5c0.3,1.8,0.7,3.5,1,5.2c0.7,3.9,1.4,7.5,2,11.3c0.7,4.6,1.9,9.3,7.5,11.5
				c1.3,0.5,2.3,1.7,3.3,3c0.3,0.3,0.6,0.7,0.9,1s0.5,0.7,0.8,1.1c0.7,1,1.4,2.1,2.8,2.7l0.5,0.2l0.5-0.3c1.4-1,2.1-2.4,2.6-3.6
				c0.2-0.4,0.4-0.8,0.6-1.1c4.2-7.3,9.3-15.9,15.7-23.8c3.9-4.8,8.3-8.7,13-11.8c1.1-0.7,1.4-0.5,1.7-0.1c0.3,0.3,0.2,0.5-0.4,1.5
				c-0.2,0.3-0.4,0.6-0.7,0.9c-0.3,0.3-0.5,0.7-0.7,1c-7.6,12.1-12.8,23.6-15.6,35.2l-0.2,0.6c-0.4,1.5-0.8,3.2-0.5,5.3l0.2,1l1-0.1
				c5.2-0.7,10.4-0.9,15.9-0.6c7.3,0.4,13.6,2,19.1,5.1l0.1,0.1c1.5,0.8,1.8,1.2,1.5,2.1c-0.2,0.7-0.8,1-2.2,1.1
				c-0.5,0-1.1,0-1.6,0.1c-0.6,0-1.2,0-1.8,0.1c-8.7,0.4-15.6,1.4-21.8,2.9c-4.7,1.2-9.3,2.5-13.7,5.6l-1,0.4l1.2,0.8
				c4.2,2.7,7.5,5.8,10.1,9.4c2.5,3.5,4.6,7.3,6.6,11.2c3.1,5.8,7.7,10.2,11.8,13.7l0.9,0.8l0.6-1.1c0.9-1.5,0.6-2.6,0.5-3.4
				l-0.1-0.3c-1.8-9.3-5.5-17.7-11.3-25c-0.1-0.2-0.2-0.3-0.4-0.5c-0.8-0.9-1-1.2-0.6-1.8C159.6,193.5,159.8,193.5,160.9,193.6z"/>
			<path class="st1" d="M152.9,141.7c0.4-0.9,0.9-1.7,1.4-2.9l2.9-5.8l-3.3,2.4c-2.8,2-4.3,3.9-5.7,5.7l-0.4,0.5
				c-6.7,8.4-12.1,17.8-16.5,25.9c-0.8,1.4-2.2,4-2.8,4.1l0,0c-0.6,0-2.4-2.5-3.4-3.9c-2-2.7-4-5.6-8-7.5l-1.8-0.8l0.4,1.9
				c1.4,7.4,3.4,13.8,5.4,20.3c0.3,1,0.6,2.1,0.9,3.1c0.7,2.8,1.5,5.7,3,8.1c7.1,11.3,15.6,18.8,26,22.8c0.6,0.2,1.3,0.4,1.9,0.6
				l0.6,0.2c0.4,0.1,0.9,0.3,1.4,0.3s1.1-0.2,1.7-0.7c1.3-1.3,0.6-2.7,0.3-3.6l-0.1-0.2c-0.3-0.7-0.7-1.5-1.1-2.3
				c-3.9-7.3-8.1-14.1-15.8-18.1c-0.7-0.3-1-0.8-1.1-1.4c-0.1-0.6,0.2-1.3,0.7-1.9c0.7-0.8,1.8-1.4,2.9-2c5.2-2.7,11.3-4.6,18.6-5.8
				c3.1-0.5,6.2-0.9,9.2-1.2c1.4-0.2,2.8-0.3,4.1-0.5l0.7-0.1l0.7-2.7l-1-0.3c-0.5-0.1-1-0.3-1.6-0.5c-1.1-0.3-2.3-0.7-3.5-0.9
				c-7.2-1.5-14.8-1.6-24-0.3c-0.7,0.1-2.9,0.4-3.2,0.1c-0.2-0.2-0.1-1.2,0.2-3C144.2,162,147.6,152.2,152.9,141.7z"/>
			<path class="st1" d="M99.6,31.9l0.9-1.6l-1.8,0.1c-2.4,0.1-3.9,1.1-5.1,1.9c-0.3,0.2-0.5,0.3-0.7,0.5c-7.3,4.4-13.5,10-19.1,15.3
				c-0.2,0.2-0.5,0.5-0.7,0.7c-0.9,1-1.2,1.2-1.8,1c-0.7-0.3-0.8-0.8-0.9-2.1c0-0.3,0-0.6-0.1-0.9c-0.7-5.4-1.8-10.9-3.4-16.8
				c-0.1-0.2-0.1-0.4-0.2-0.7c-0.3-1.3-0.7-2.9-2.3-4.5l-1.2-1.2l-0.4,1.7c-2.1,8.3-2.9,15.4-2.3,22.5c0.1,1.2,0.2,2.2,0.2,3
				c0.2,4.2,0.6,4.6,4.9,4.9c0.9,0.1,1.9,0.1,3.2,0.3c1,0.1,2,0.1,3,0.2c0.9,0,1.9,0.1,2.8,0.2c0.3,0,0.5,0,0.8,0
				c1.7,0,3.2-0.6,4.8-1.7C87.9,48.9,94.1,41.7,99.6,31.9z"/>
			<path class="st1" d="M36.8,71.3c-6,4.9-5.5,11.2-5.1,17.3c0.1,0.9,0.1,1.8,0.2,2.7l0.1,1.1l1.1-0.2c0.3-0.1,0.5-0.1,0.7-0.1
				c0.5,0,0.9-0.1,1.2-0.4c9-8.7,9.3-9.5,8-22.1v-0.5c0-0.3-0.1-0.6-0.1-0.9c-0.5-6.5-1.2-7.2-7.4-8.2c-3.7-0.6-7-0.6-10,0.1
				c-0.2,0.1-0.5,0.1-0.8,0.2c-1.5,0.3-3.4,0.7-4.5,2.8l-0.4,0.7l0.6,0.5c3.7,3,8.7,6.3,15.4,5.4c1.1-0.2,1.4,0.1,1.5,0.4
				C37.4,70.3,37.6,70.6,36.8,71.3z"/>
			<path class="st1" d="M48.3,54.5h4.9l-1.1-1.6c-7.4-10.6-14.3-17.5-22.4-22.5L27.4,29l0.8,2.6c2.3,7.1,5.9,14,10.9,21.2
				c0.8,1.2,1.9,1.8,3.2,1.8c0,0,0,0,0.1,0C44.3,54.5,46.2,54.5,48.3,54.5z"/>
			<path class="st1" d="M153.7,218.1c-4.1-1.2-8.1-2.9-11.6-5.2c-2.8-1.7-5.2-3.8-7.8-6c-0.9-0.8-1.9-1.6-2.9-2.4l-2.6-2.1l1,3.1
				c0.1,0.5,0.3,1,0.4,1.4c1,3.3,2,6.7,4.9,9.2c4.7,4,8.8,6.9,12.9,8.9c2,1,4.1,1.7,6.2,2.1c0.2,0,0.5,0.1,0.9,0.1
				c0.8,0,1.7-0.3,2.2-1.5c0.6-1.4,0.5-3.2-0.2-4.8C156.4,219.6,155.1,218.5,153.7,218.1z"/>
		</g>
		<g>
			<path d="M207.2,21.1c-4.7-0.9-8.9,0.5-12.9,2.1c-3,1.2-5.8,1.2-9.1,0c-4.2-1.5-7.5-3.9-10.1-7.2c-0.6-0.7-1.1-1.5-1.8-2.4
				c-0.4-0.5-0.7-1-1.2-1.6l-1.4-1.8l-0.4,2.2c-1.6,8-0.7,15.6,2.6,23.8c0.2,0.6,0.6,1.2,1,1.7c1,1.6,1.3,2.2,0.6,2.9
				s-1,0.7-2.5-0.5c-0.6-0.5-1.2-0.9-1.9-1.2c-5.4-2-11.1-2.1-16.4-0.2c-4.5,1.6-8.7,1.2-13.7,0c-2.4-0.6-4.8-1.2-7-1.7
				c-1-0.3-2-0.5-3-0.7l-0.6-0.1l-0.4,0.4c-0.9,0.9-1,1.9-0.4,2.8c4.5,6.5,10.7,14.9,18.2,22.4c3,3,6.1,5.1,9.4,6.6
				c0.8,0.3,1.2,0.8,1.3,1.1c0,0.3-0.3,0.8-1.2,1.5c-0.4,0.3-0.9,0.5-1.3,0.7c-0.2,0.1-0.5,0.2-0.7,0.3
				c-11.6,5.9-19.6,13.4-24.6,22.9c-0.6,1.2-1.5,2-3.1,2.8c-2,1.1-4.1,2.3-6.4,3.6L114,105l3.2,0.3c0.8,0.1,1.4,0.1,2,0.2
				c1,0.1,1.8,0.2,2.6,0.2c11.2,0.4,23.2,0.3,35.1-2.5c5.9-1.4,10.5-3.3,14.7-6l0.3-0.2c0.4-0.3,0.8-0.5,1.2-0.7
				c1.5-0.7,2-0.5,2.1-0.4s0.5,0.4,0.5,2c0,1.5-0.1,3-0.2,4.5c-0.1,1.1-0.1,2.1-0.2,3.2c-0.3,11.2,0.7,20.9,3.3,29.7l0.2,0.6
				c0.6,2,1.2,4.1,2.5,6.3l0.7,1.1l0.9-0.9c1.8-1.8,2-3.9,2.1-5.8c0.1-0.7,0.1-1.3,0.2-1.9c0.6-2.7,1.5-4.4,3.3-6.1
				c7.7-7.1,12.7-16.2,16.7-24.2c0.2-0.5,0.5-1,0.7-1.5c0.5-1.2,1-2.4,1.9-3.3l0.3-0.3v-78L207.2,21.1z"/>
			<path d="M184.7,230.7c-4.4,1.1-8.4,0.3-13.1-2.5c-3.1-1.9-5.7-4.4-8.3-7.1c-0.1-0.1-0.2-0.3-0.4-0.5c-0.5-0.7-1.4-2-3.3-1.3
				l-0.6,0.2v0.6c0,0.1,0,0.3,0,0.4c0,0.4-0.1,0.8,0,1.2c1.3,13,4.6,22.2,10.8,29.8c1,1.3,1.1,1.7,1.1,1.8c0,0.2-0.4,0.6-1.9,1.3
				c-0.6,0.3-1.3,0.5-2,0.8c-1.8,0.6-3.7,1.3-5.1,3l-0.4,0.5l0.3,0.6c1.3,2.3,1.9,3.7,1.7,4.1s-1.6,0.5-4.1,0.6h-0.9
				c-1.1,0-2.3,0-3.4,0c-1.7,0-3.2,0.5-4.7,1.6c-4.5,3.6-10.2,8.5-14.3,14.9c-0.1,0.2-0.3,0.4-0.5,0.6c-0.7,1-1.7,2.2-1.3,4.2
				l0.2,0.9l1-0.1c1.2-0.2,2.4-0.4,3.6-0.6c2.6-0.4,5.2-0.8,7.9-1.2c7.7-1.1,16-1.2,25.5-0.3c0.2,0,0.4,0,0.7,0
				c1.6,0.1,2.3,0.2,2.6,1.1c0.2,0.7-0.1,1.1-1.1,2c-0.3,0.3-0.7,0.6-1,1c0,0.1-0.1,0.1-0.1,0.1l-0.1,0.1
				c-5.5,5.6-9.8,12.1-12.6,19.4c-1,2.6-1.9,5.3-2.7,7.9c-0.4,1.2-0.8,2.4-1.2,3.6l-1,1.6h4.9l0.3-0.5c5.2-9.2,13.1-14.7,24.3-16.9
				c0.2,0,0.5-0.1,0.7-0.2c1.2-0.3,2-0.4,2.6,0.2c0.4,0.4,0.4,0.5-0.3,1.4c-0.3,0.4-0.6,0.9-0.8,1.4c-1.2,4.2-2.6,8.9-1,13.9
				l0.2,0.7H208v-89.3l-0.7-0.2C200.4,228.9,192.8,228.6,184.7,230.7z"/>
			<path d="M58.7,183.4c-0.1-0.2-0.1-0.4-0.2-0.6c-4-17.4-7.1-35.2-9.4-53l-0.2-1.5c-0.8-6.6-1.7-13.4-5.6-19.3
				c-0.2-0.3-0.4-0.6-0.5-0.9c-0.7-1.2-1.6-2.8-3.7-3.4l-0.7-0.2l-1.6,2.5c-0.9,1.4-1.8,2.8-2.7,4.2c-0.5,0.8-2.1,3.2-3,3.2l0,0
				c-0.9,0-2.5-2.6-3-3.5c-3.1-5.2-4.9-9.9-5.4-14.5c-0.7-6-4.9-8-9-10l-1-0.5l-0.5,0.5c-1.3,1.3-0.8,2.3-0.5,2.8
				c2.1,4.6,1.5,8.3-2.1,12.2c-5.5,6-7.4,13.5-5.5,21.7c0.4,1.8,1.1,3.6,1.7,5.3l0.4,1.3c0.6,1.6,0.4,2,0.4,2
				c-0.1,0.1-0.4,0.3-2.3,0.4c-0.4,0-0.8,0-1.2-0.1c-0.2,0-0.4,0-0.6,0H1.6v63.4h1c6.7-0.1,12.6-2.9,18.5-8.9
				c4.8-4.9,7.5-10.9,9.5-16.2c0.2-0.5,0.3-1,0.4-1.4c0.4-1.7,0.7-2.3,1.7-2.5c1-0.1,1.5,0.5,2.4,2c0.3,0.4,0.5,0.9,0.8,1.3
				c3.8,5,7.7,10.1,12.8,14.3c1.9,1.6,4.2,3.3,7.3,3.8c1.1,0.2,2,0,2.5-0.6s0.7-1.4,0.5-2.4C59,184.3,58.8,183.9,58.7,183.4z"/>
		</g>
		<path d="M52.2,320c-1.6,0-3.2,0-4.9,0c3.7-4.1,7.5-8,11.1-12.2c2.5-2.9,4.9-6.1,5.7-10c0.3-1.3,0.3-2.8,1.9-3s2.1,1.2,2.8,2.3
			c3.2,5.3,5.9,10.8,8.1,16.6c0.5,1.3,0.5,2.9,2.4,3.9c0.7-6.7-0.4-12.7-2.9-18.6c-0.6-1.4-2.3-2.6-1-4.4c1.3-1.5,2.7-0.2,4,0.1
			c7.1,1.1,14.2,1.4,21.3-0.1c2.4-0.5,4.9-0.9,7.1-2.5c-1-0.7-1.8-0.5-2.6-0.5c-9.8,0.4-19.4-0.9-28.8-3.7c-4.2-1.2-4.4-2.1-1.3-5.3
			c5.6-5.8,10.1-12.2,12.6-20c0.4-1.2,1.6-2.6,0-3.4s-2,1.2-2.6,2.2c-4.3,6.1-9.7,11.4-15.4,16.1c-3.2,2.7-6.1,2.2-8.5-1.1
			c-1.1-1.4-2.2-2.8-3.4-4.2c-8.4-9.4-17.7-18.1-26.9-26.8c-0.5-0.4-0.9-1.4-1.8-0.9c-0.3,0.8,0.1,1.3,0.4,1.9
			c4.8,8.3,9.7,16.5,15.4,24.2c2.7,3.6,5.5,7.2,9.3,9.8c1.1,0.7,2.4,1.4,2.2,2.9c-0.2,1.8-1.8,2.1-3.2,2.5c-0.9,0.2-1.9,0.5-2.8,0.8
			c-8.7,2.1-17.5,3.4-26.6,2.3c0.3,0.5,0.4,0.9,0.6,1.1c0.3,0.3,0.7,0.6,1.1,0.9c8.1,5.2,16.8,6.5,26,3.5c1.2-0.4,2.4-1.3,3.6-0.2
			c1.5,1.3,0.4,2.7-0.2,4c-3.4,8-7.4,15.5-13.6,21.7c-1.6,0-3.2,0-4.9,0c6.2-6,11.3-12.6,14.1-20.9c-0.5-0.2-0.6-0.3-0.8-0.3
			c-0.8,0.1-1.6,0.3-2.4,0.4c-11.1,1.7-20.4-2-28.8-8.9c-1-0.8-2.2-1.7-1.5-3.2c0.6-1.5,2-2.1,3.6-2c1.3,0.1,2.6,0.4,3.9,0.5
			c8.8,1.1,17.4-0.1,26.5-2.7c-4-3.5-6.9-7.1-9.7-10.9c-7.6-10.5-14.1-21.8-20.3-33.2c-0.2-0.4-0.5-0.8-0.7-1.3
			c-0.6-1.3-0.8-2.6,0.5-3.5c1.1-0.8,2.2-0.2,3.1,0.6c1,0.8,1.9,1.7,2.9,2.6c13.3,12.5,27,24.7,38.7,39.4
			c6.5-5.7,12.8-11.2,17.4-18.4c0.3-0.5,0.6-1.1,1-1.7c1-1.5,0.3-2.8-0.7-4c-1-1.3-2.3-0.9-3.5-0.3c-2.1,1-3.9,2.4-5.3,4.2
			c-1.4,1.7-2.8,3.6-4.1,5.4c-0.8,1.1-1.5,2.2-3.1,1.9c-1.3-0.3-1.6-1.5-1.9-2.6c-1.1-4.1-3.6-7.2-6.3-10.2
			c-2.7-2.9-5.6-5.4-8.6-7.9c-10.3-8.2-21.6-14.9-33.1-21.3c-0.6-0.3-1.3-1.1-2.4,0c1,4.2,1.9,8.6,3,13c2.4,9.8,4.9,19.5,8.8,28.8
			c1.6,3.7,3,7.6,6.6,10c1.1,0.7,2.5,1.2,1.9,2.9c-0.5,1.4-2,1.4-3.3,1.6c-7.2,1-13.7,3.7-20,7.3c-1,0.6-2.4,0.9-2.7,2.4
			c0.6,0.2,1,0.3,1.5,0.4c4.2,1,7.3,3,8.7,7.4c1.3,3.8,3.7,7.2,6.4,10.3c1.5,1.7,3.1,3.3,5.2,4.3c4.9,2.2,4.9,2.2,2.9,7.3
			c-0.4,0.9-0.9,1.7-1.3,2.6c-1.3,0-2.6,0-3.9,0c0.4-0.7,0.8-1.4,1.1-2.1c1.6-3.2,1.6-3.2-1.5-5.2c-4.4-2.8-7.9-6.6-9.7-11.3
			c-3-7.8-8.2-11.1-16.3-10.6c0-1.3,0-2.6,0-3.9c6.5-3.7,12.6-7.9,19.8-10.1c2.1-0.7,4.2-1.3,6.6-2.1c-4.5-6.8-7.1-13.9-9.4-21.2
			c-3.5-11.3-6.1-22.9-8.6-34.4c-0.3-1.3-0.8-2.6,0.6-3.5c1.2-0.8,2.2,0.1,3.1,0.6c9.9,5.5,19.8,11.1,29.1,17.6
			c9.4,6.6,18.7,13.4,24.7,24.3c3.3-4.6,7.1-8.1,12.1-10.3c-4-7.6-7.5-15-10.4-22.7c-4-10.3-7.2-20.8-10-31.5
			c-0.5-2-1.2-3.1-3.5-3.2c-3.5-0.1-6.4-2-9.2-4.1c-4.3-3.3-7.7-7.4-11-11.6c-1-1.2-1.6-2.9-3.6-3.5c-5.5,14.2-14.1,25.1-30.4,27.2
			c0-1.3,0-2.6,0-3.9c7.3-0.1,12.9-3.7,17.8-8.6c4.4-4.5,7.1-10,9.3-15.8c0.6-1.7,0.5-4.3,3-4.6c2.4-0.3,3,2.2,4.1,3.6
			c3.8,5,7.7,10.1,12.6,14.1c2,1.6,4.1,3.2,6.8,3.6c1.4,0.2,2.2-0.2,1.9-1.8c-0.1-0.6-0.3-1.3-0.4-1.9c-4-17.5-7.1-35.2-9.4-53.1
			c-0.9-7.1-1.6-14.2-5.6-20.4c-0.9-1.4-1.5-3.3-3.7-3.8c-1.3,2.1-2.6,4.1-3.9,6.1c-3.2,4.9-4.6,4.9-7.7-0.3
			c-2.8-4.6-4.9-9.5-5.5-14.9C21.1,91,17,89.2,13,87.3c-0.8,0.8-0.5,1.3-0.3,1.7c2.2,4.9,1.6,9-2.2,13.2c-5.3,5.8-7.1,13-5.2,20.8
			c0.5,2.2,1.3,4.3,2.1,6.5c1,3,0.5,3.6-2.8,3.7c-0.6,0-1.3-0.1-1.9-0.1c0-8.4,0-16.9,0-25.3c2.2-3.3,4.1-6.9,6.8-10
			c1.9-2.2,1.6-5.5-0.4-8c-0.7-0.9-1.7-1.6-2.4-2.4c-1.4-1.6-1-3.1,1.1-3.6c3.1-0.7,6.1-0.2,8.9,1.3c1.4,0.7,2.5,2,4.4,2.3
			c1.1-2.5,1.4-5.1,1.9-8.1c-5,0.1-9.6,0.3-14-0.9c-2.2-0.6-4.1-2-6.5-1.8c0-1.3,0-2.6,0-3.9c0.9-0.2,1.6,0.2,2.3,0.5
			c5.9,2.8,12.1,3.2,18.5,2.2c4-0.6,4.7,0.3,3.4,4.1c-1.6,4.7-2.5,9.4-2,14.3c0.6,6.1,2.5,11.8,6.3,16.9
			c7.4-9.8,12.1-19.3,11.9-23.9c-0.9,0-1.4,0.7-1.9,1.4c-2.3,2.7-4.5,5.6-6.9,8.2c-1.7,1.9-3.1,1.6-4-0.7c-0.3-0.8-0.3-1.6-0.5-2.4
			c-1.6-7.1-1.5-14.1,1.8-21c-5.7-1.2-10.2-3.6-14.1-7.1c-2.8-2.5-2.7-3.6,0.6-5.2c5.7-2.9,11.7-3.5,18-2.5c1,0.2,2,1.1,3.3-0.2
			c-6-8.2-10.9-17.3-14.8-27c-0.4-1.1-1-2.1-1.2-3.2c-0.4-2,0.8-3.1,2.8-2.3c1.2,0.5,2.3,1.2,3.4,1.9c9,5.7,16.3,13.3,22.6,21.9
			c1.1,1.4,2,2.9,3.1,4.3c0.6,0.8,1.4,1.5,2.4,1c0.9-0.4,0.6-1.4,0.6-2.1c0-1-0.1-1.9-0.2-2.9c-0.5-9.6,0.5-19.1,3.1-28.4
			c0.4-1.5,0.3-3.6,2.5-3.6c1.9,0,2,1.8,2.5,3.2c1.9,5.2,3.4,10.5,4.7,15.8c0.7,3,0.7,6.1,2.2,9.2c4.2-3.7,8.1-7.3,12.4-10.5
			c4.6-3.4,9.4-6.4,14.8-8.3c1.2-0.4,2.5-1,3.6,0.2c1.2,1.3,0.1,2.4-0.5,3.5c-4.5,8.5-9.9,16.4-17.2,22.8c-0.8,0.7-2.1,1-1.8,2.9
			c3.5,0.2,7,0.2,10.5,0.6c5.2,0.6,8.3-1.9,10.2-6.4c2.1-4.8,3.3-10,3-15.1c-0.4-6.6,2.7-11.4,6.2-16.3c0.9-1.3,2.5-2.1,2.9-4.2
			c-11.8,1.8-22.8,5.2-32.5,12.3c-1,0.8-2,1.6-3.1,2.3c-2.2,1.4-3.1,0.9-3.6-1.7c0.2-0.8,0.2-1.6,0.2-2.4c0-6.8-0.8-13.6-2.4-20.2
			c1.3,0,2.6,0,3.9,0c0.7,6.4,2.2,12.7,1.9,19c1.4,0.3,2-0.2,2.7-0.7c10.4-7.2,22.2-10.4,34.5-12.3c1.4-0.2,2.9-0.4,4.3-0.3
			c2,0.2,2.7,2,1.5,3.5c-0.8,1-1.9,1.7-2.9,2.5c-5.8,4.9-9.8,10.7-9.8,18.7c0,1.3-0.1,2.6-0.3,3.9c-0.8,5.6-1.4,11.6-5.3,15.9
			c-2.9,3.2-3.3,6.4-2.8,10.2c0.3,1.8,0.2,3.6,0.3,5.3c1.2,18.1,3,36.2,5.7,54.1c0.3,2.2,1.1,3.4,3.2,4.2
			c7.4,2.7,13.2,7.5,18.1,13.5c0.7,0.9,1.1,2.5,3.1,2.1c5.7-14.8,17.4-23.2,31.9-28.3c3.8-1.3,4.6-0.7,4.8,3.3c0,1,0,1.9,0,2.9
			c-0.4,12.8-1,25.6-6,37.6c1.6,1.1,3.3,1.3,4.8,1.7c10.8,2.8,20.6,7.6,29,15.1c3.7,3.3,3.7,4.1-0.3,6.8
			c-10.1,6.8-20.7,12.7-33.2,13.2c-0.2,1.2,0.3,1.9,0.7,2.5c4.9,7.6,7.8,16,9.1,24.9c0.5,3.5,1.5,4.4,5,4.5c1.3,0.1,2.6,0,3.9-0.3
			c7.9-1.6,15.7-1.8,23.6,0.2c0,1.3,0,2.6,0,3.9c-7.3-2.6-14.7-2.6-22-0.7c-5.2,1.3-9.6,0-13.9-2.6c-3.2-1.9-5.9-4.5-8.5-7.2
			c-0.7-0.7-1-2.1-2.6-1.6c0,0.5-0.1,0.9-0.1,1.4c1,10.6,3.6,20.7,10.6,29.3c2,2.5,1.7,3.3-1.2,4.6c-2.3,1.1-5,1.4-6.8,3.5
			c3,5.3,2.6,6.1-3.3,6.2c-1.5,0-2.9,0.1-4.4,0c-1.5,0-2.8,0.5-4,1.4c-5.4,4.3-10.3,8.9-14.1,14.7c-0.7,1.2-2,2.2-1.6,4.1
			c3.8-0.6,7.6-1.2,11.5-1.8c8.6-1.2,17.1-1.1,25.7-0.4c1.6,0.1,3.5,0,4.2,1.9c0.6,1.9-1.3,2.7-2.3,3.9c-0.1,0.1-0.2,0.2-0.3,0.3
			c-5.4,5.5-9.6,11.8-12.4,19c-1.5,3.8-2.6,7.7-3.9,11.5c-1,0-1.9,0-2.9,0c1.9-12.6,8-23.2,16.6-33.2c-3.4-0.3-6-0.6-8.5-0.6
			c-8.9-0.1-17.8,0.9-26.5,2.8c-2.1,0.5-5.1,0.1-4.7,3.8c0,0.3-0.9,0.9-1.4,1.2c-8.4,4.2-16.7,8.5-25.9,10.7
			c-1.3,0.3-2.8,0.2-4.1,1.2c3.4,4.6,7.4,8.5,8.7,14.1c-1.3,0-2.6,0-3.9,0c-0.1-2.6-1.9-4.4-3.2-6.4c-2.1-3.1-4.7-5.8-7.6-8.2
			c-0.9-0.8-1.7-1.6-1-2.9c0.6-1.1,1.6-1,2.6-0.8c3.8,0.6,7.4-0.1,11-1.2c5.4-1.7,10.6-4,15.7-6.5c1.6-0.8,3.5-1.4,4.8-2.8
			c-3.1-3.9-5.9-5.6-11.5-7.1c-7.9-2.1-16-2.2-24.2-2c-1.1,0-2.3,0.2-3.4,0.1c-1.9-0.2-2.5-1.6-1.3-3.1c0.7-0.9,1.7-1.5,2.5-2.3
			c2.9-2.8,5.8-5.6,7.1-10.2c-2-0.3-3.5-1.4-5.4-2.6c-2.6,8-7.1,14.5-12.4,20.3c0.7,1,1.6,1.2,2.3,1.4c10.3,2.6,20.8,3.4,31.3,1.9
			c2-0.3,4.9-2,5.9,1.1c0.8,2.7-2.2,3.7-4,4.8c-8.3,4.8-17.3,6-26.7,5.7c-2.2-0.1-4.5-0.8-7,0c2.1,6.9,3.6,13.9,2.1,21.1
			c-2.3,0-4.5,0-6.8,0c-2.4-6.3-4.4-12.7-8.7-19C63.2,308.7,57.5,314.2,52.2,320z M158.1,261.2c0-1.6-1.1-2.6-2-3.7
			c-12.7-15.8-22.1-33.5-29.5-52.3c-14-36-20.7-73.5-24.5-111.7c-1-9.8-1.5-19.7-2.3-29.6c-0.3-3.7-0.3-3.7-4-4
			c-2.3-0.1-4.5-0.3-6.8-0.4c-13.6-0.8-27.2-1.6-40.8-2.3c-3.5-0.2-3.6-0.1-3.4,3.4c0.8,11.3,1.6,22.6,2.6,33.9
			c1.9,19.4,4.2,38.7,7.5,57.9c3.9,22.6,8.8,44.9,16.6,66.4C76.7,233.1,83,246.7,92,259c1.9,2.6,4,3.6,7.3,3.6
			c18.5-0.4,37-0.5,55.5-0.7C155.9,261.8,157.1,262.1,158.1,261.2z M110.6,132c1.1,5.8,2.2,11.1,3,16.5c0.7,4.6,1.9,8.7,6.8,10.7
			c1.9,0.8,3.2,2.7,4.6,4.3c1,1.2,1.6,2.8,3.3,3.5c1.6-1.2,2.1-2.9,3-4.4c4.7-8.3,9.8-16.4,15.8-23.9c3.8-4.7,8.2-8.8,13.3-12.1
			c1-0.7,2.1-1.1,3,0.1c0.8,1,0.2,1.8-0.3,2.7c-0.4,0.7-1,1.3-1.4,2c-6.9,10.9-12.4,22.4-15.5,35c-0.4,1.7-1,3.4-0.6,5.5
			c5.5-0.7,10.8-0.9,16.1-0.7c6.9,0.3,13.5,1.8,19.5,5.2c1.3,0.7,2.7,1.4,2.1,3.3c-0.5,1.5-1.8,1.7-3.1,1.8
			c-1.1,0.1-2.3,0.1-3.4,0.1c-7.3,0.4-14.6,1.1-21.7,2.9c-4.5,1.1-9.1,2.4-13.3,5.4c4.2,2.7,7.6,5.9,10.3,9.7
			c2.6,3.6,4.6,7.4,6.7,11.3c2.8,5.3,6.9,9.5,11.5,13.4c0.8-1.4,0.5-2.2,0.3-3c-1.7-9.1-5.4-17.3-11.1-24.6c-0.8-1-1.9-1.9-1.1-3.4
			c0.7-1.2,1.9-0.8,3.1-0.7c13.6,1.4,24.1-5.5,34.7-12.3c-0.7-2.2-2.3-2.9-3.5-3.9c-6.2-4.8-13.1-8.4-20.6-10.6
			c-3.3-1-6.6-1.6-9.9-2.5c-2.5-0.7-3-1.4-1.7-3.8c3.4-6.6,4.7-13.8,5.4-21.1c0.7-6.2,1.3-12.5,0.9-19.3
			c-15,5.4-26.2,13.9-30.8,29.2c-0.4,1.3-0.1,3.1-2.1,3.3c-1.8,0.2-1.9-1.5-2.5-2.5c-2.6-4.2-5.6-7.9-9.4-11.1
			C118.8,135.6,115.5,133.1,110.6,132z M174.1,178.2c0.1-0.4,0.2-0.7,0.3-1.1c-1.7-0.5-3.3-1-5-1.4c-7.9-1.7-15.8-1.4-23.7-0.3
			c-4.5,0.6-4.9,0.3-4.2-4c1.9-10.6,5.6-20.6,10.5-30.2c0.7-1.3,1.3-2.7,2.5-5c-3,2.2-4.4,4.1-5.9,6c-6.3,8-11.5,16.8-16.4,25.8
			c-3.3,6-3.8,6-7.9,0.3c-1.9-2.7-3.9-5.4-7.7-7.2c1.4,7.3,3.3,13.8,5.3,20.2c1.1,3.7,1.8,7.8,3.8,11c6.2,9.9,14.2,18,25.5,22.4
			c0.8,0.3,1.5,0.5,2.3,0.7s1.6,0.6,2.3-0.1c0.9-0.9,0.4-1.8,0-2.7c-0.3-0.7-0.7-1.5-1-2.2c-3.8-7-7.9-13.8-15.4-17.7
			c-2-1-2.2-3.2-0.7-4.9c0.8-0.9,2-1.6,3.2-2.2c5.9-3.1,12.3-4.8,18.9-5.9C165.2,179.3,169.7,178.8,174.1,178.2z M129.5,287.5
			c3.6-8.8,9.5-15.3,17.1-21.9c-7.3,0-13.2,0-19.1,0c-7.9,0.1-15.8,0.1-23.8,0.3c-1.4,0-3.2-0.3-3.7,1.5c-1.2,4.1-4.1,7.1-6.6,10.9
			C106,278.9,118.6,278.5,129.5,287.5z M98.7,31.4c-2.6,0.1-3.9,1.3-5.4,2.2c-7,4.2-13,9.6-18.9,15.2c-1,1-1.8,2.6-3.6,1.9
			c-1.7-0.6-1.4-2.4-1.6-3.8c-0.7-5.6-1.9-11.2-3.4-16.6c-0.4-1.4-0.5-3-2.3-4.7c-2,7.7-2.9,14.9-2.2,22.1c0.7,8.1-0.9,6.5,7.4,7.3
			c1.9,0.2,3.9,0.2,5.8,0.4s3.4-0.4,4.9-1.5C87.5,48,93.6,40.5,98.7,31.4z M167,252.4c-4.3-6.1-7.4-12.5-8.8-19.5
			c-0.4-2.1-1.5-2.9-3.6-3.1c-4.4-0.4-8.3-2.5-12-4.8c-1.3-0.8-2.3-2-4.5-2.3c4.9,10,10.3,18.9,16.5,27.4
			C159.3,256.4,159.3,256.4,167,252.4z M32.8,91.3c0.9-0.2,1.3-0.1,1.5-0.3c8.7-8.5,9-9.1,7.7-21.3c0-0.5-0.1-1-0.1-1.4
			c-0.5-6-0.8-6.3-6.6-7.3c-3.2-0.5-6.5-0.6-9.7,0.1C24,61.5,22,61.5,21,63.5c4.3,3.5,8.9,6,14.6,5.2c1-0.1,2-0.1,2.5,0.9
			s0,1.9-0.8,2.5C31,77.4,32.5,84.4,32.8,91.3z M51.3,53.5c-6.3-9-13.1-16.6-22.1-22.2c2.5,7.6,6.2,14.5,10.8,20.9
			c0.6,0.8,1.3,1.4,2.4,1.3C45.1,53.5,47.8,53.5,51.3,53.5z M130.8,205.3c1.1,3.7,1.9,7.5,5,10.2c3.9,3.4,8,6.5,12.7,8.8
			c1.9,0.9,3.9,1.6,5.9,2c0.8,0.2,1.6,0.2,2-0.8c1-2.4-0.5-5.7-3-6.5c-4.2-1.2-8.2-3-11.9-5.3C137.7,211.3,134.4,208.2,130.8,205.3z
			 M44.3,97.6c-3.6,3.2-3.7,4.6,0.9,8.4C44.9,103.1,44.6,100.4,44.3,97.6z"/>
		<path class="st2" d="M207,228.5c-7.8-2-15.7-1.8-23.6-0.2c-1.3,0.3-2.6,0.4-3.9,0.3c-3.4-0.2-4.4-1.1-5-4.5
			c-1.4-8.9-4.2-17.3-9.1-24.9c-0.4-0.7-0.9-1.3-0.7-2.5c12.5-0.5,23.1-6.4,33.2-13.2c4.1-2.7,4.1-3.5,0.3-6.8
			c-8.4-7.5-18.2-12.3-29-15.1c-1.6-0.4-3.2-0.5-4.8-1.7c4.9-12,5.5-24.8,6-37.6c0-1,0.1-1.9,0-2.9c-0.2-4-0.9-4.6-4.8-3.3
			c-14.5,5.1-26.2,13.5-31.9,28.3c-2,0.4-2.3-1.2-3.1-2.1c-4.9-6-10.7-10.8-18.1-13.5c-2.2-0.8-2.9-2-3.2-4.2
			c-2.7-18-4.6-36-5.7-54.1c-0.1-1.8-0.1-3.6-0.3-5.3c-0.6-3.8-0.1-7,2.8-10.2c3.9-4.3,4.5-10.3,5.3-15.9c0.2-1.3,0.3-2.6,0.3-3.9
			c-0.1-8,3.9-13.8,9.8-18.7c1-0.8,2.1-1.5,2.9-2.5c1.3-1.5,0.5-3.3-1.5-3.5c-1.4-0.2-2.9,0-4.3,0.3c-12.3,1.9-24.1,5.1-34.5,12.3
			c-0.6,0.4-1.3,1-2.7,0.7c0.3-6.3-1.2-12.6-1.9-19c42.5,0,85,0,127.5,0c0,4.5,0,9.1,0,13.6c-4.6,0-9,1-13.3,2.5
			c-3.1,1.1-6,0.8-9-0.4c-4.8-1.9-8-5.4-10.2-10c-0.6-1.2-1-2.4-1.7-3.5c-1-1.4-2.3-1.3-3.2,0c-0.7,0.9-1,2-1.3,3.1
			c-1.4,5.7-1.6,11.5-0.4,17.4c0.6,2.8,1.4,5.6,2.2,8.9c-7.3-1.6-14.1-0.7-20.9,1.3c-1.6,0.5-3.2,0.1-4.8-0.2
			c-6.4-1.1-12.6-3-18.7-5.2c-1.2-0.4-2.6-1-3.5,0.5c-0.7,1.2,0.1,2.2,0.8,3.1c8.6,11.9,16.6,24.4,28.8,33.4
			c0.3,0.2,0.3,0.8,0.5,1.3c-1.9,1.1-3.7,2.2-5.5,3.3c-7.1,4.5-13.2,10-17.4,17.3c-1.9,3.3-4.5,5.5-7.7,7.1
			c-2.9,1.4-5.9,2.7-8.8,4.1c-1.5,0.8-2.6,2.1-2.1,3.9c0.4,1.5,2,1.4,3.3,1.5c7.8,0.6,15.5,1.1,23.3,0.6c12-0.7,23.9-2.3,34.7-8.1
			c0.2-0.1,0.5,0.2,1.1,0.4c0,5.5-0.3,11.2,0.1,16.9c0.6,11.1,3.3,21.8,8.4,31.7c0.5,1,1,2.2,2.4,2s1.5-1.4,1.6-2.6
			c0.6-4.3,1.3-8.6,2-13c0.3-1.9,1-3.6,2.5-5.1c6.1-5.5,10.5-12.3,14.4-19.4c0.7-1.2,0.9-2.8,2.5-3.4C207,148,207,188.3,207,228.5z"
			/>
		<path class="st2" d="M2.6,198.3c16.3-2.1,25-13,30.4-27.2c2,0.6,2.6,2.3,3.6,3.5c3.4,4.2,6.8,8.3,11,11.6c2.7,2.1,5.6,4,9.2,4.1
			c2.3,0.1,3,1.2,3.5,3.2c2.7,10.7,6,21.2,10,31.5c3,7.7,6.5,15.2,10.4,22.7c-5,2.2-8.7,5.8-12.1,10.3c-6-10.9-15.3-17.7-24.7-24.3
			c-9.3-6.5-19.2-12.1-29.1-17.6c-1-0.5-1.9-1.4-3.1-0.6c-1.4,0.9-0.9,2.2-0.6,3.5c2.5,11.6,5.1,23.1,8.6,34.4
			c2.3,7.3,4.9,14.4,9.4,21.2c-2.4,0.8-4.5,1.5-6.6,2.1C15.2,279,9,283.2,2.6,286.9C2.6,257.4,2.6,227.8,2.6,198.3z"/>
		<path class="st2" d="M108.7,320c-1.3-5.6-5.3-9.5-8.7-14.1c1.3-1,2.8-0.9,4.1-1.2c9.2-2.2,17.5-6.5,25.9-10.7
			c0.6-0.3,1.5-0.8,1.4-1.2c-0.4-3.8,2.6-3.4,4.7-3.8c8.7-1.9,17.5-2.9,26.5-2.8c2.6,0,5.1,0.4,8.5,0.6c-8.6,10-14.8,20.6-16.6,33.2
			C139.2,320,123.9,320,108.7,320z"/>
		<path d="M207,22.1c-4.3-0.8-8.4,0.5-12.3,2c-3.4,1.3-6.5,1.2-9.8,0c-4.3-1.5-7.8-3.9-10.5-7.5c-0.9-1.1-1.7-2.3-3-4
			c-1.7,8.6-0.4,16,2.6,23.3c0.7,1.8,3.2,3.8,1.4,5.7c-2,2.2-3.7-0.8-5.5-1.4c-5.3-2-10.7-2-15.7-0.2c-4.9,1.7-9.5,1.1-14.3,0
			c-3.4-0.8-6.8-1.7-10-2.5c-0.7,0.7-0.5,1.2-0.3,1.6c5.5,7.9,11.2,15.5,18.1,22.2c2.7,2.6,5.6,4.9,9.1,6.4c2.4,1.1,2.4,2.8,0.2,4.3
			c-0.7,0.5-1.4,0.8-2.2,1.1c-10.2,5.2-18.8,12.2-24.1,22.5c-0.8,1.5-2,2.5-3.5,3.3c-3,1.6-5.9,3.3-9.8,5.5c2.2,0.2,3.3,0.4,4.5,0.4
			c11.7,0.4,23.4,0.3,34.8-2.5c5.1-1.2,9.9-3,14.3-5.8c0.5-0.4,1.1-0.7,1.7-1c2.8-1.3,4-0.5,4,2.5c0,2.6-0.3,5.2-0.3,7.8
			c-0.3,9.9,0.5,19.8,3.3,29.4c0.6,2.2,1.2,4.4,2.6,6.7c2.1-2.1,1.6-4.9,2.1-7.2c0.5-2.7,1.5-4.7,3.6-6.6
			c7.3-6.7,12.1-15.1,16.4-23.9c0.8-1.7,1.4-3.7,2.7-5.1c0,2.9,0,5.8,0,8.8c-1.5,0.6-1.8,2.2-2.5,3.4c-3.9,7.1-8.4,13.9-14.4,19.4
			c-1.6,1.4-2.2,3.2-2.5,5.1c-0.7,4.3-1.4,8.6-2,13c-0.2,1.2-0.2,2.4-1.6,2.6c-1.4,0.2-1.9-1-2.4-2c-5.1-10-7.8-20.6-8.4-31.7
			c-0.3-5.6-0.1-11.3-0.1-16.9c-0.6-0.2-0.9-0.5-1.1-0.4c-10.9,5.8-22.7,7.5-34.7,8.1c-7.8,0.4-15.6-0.1-23.3-0.6
			c-1.3-0.1-2.9,0-3.3-1.5c-0.5-1.8,0.6-3.2,2.1-3.9c2.9-1.5,5.9-2.7,8.8-4.1c3.3-1.6,5.8-3.8,7.7-7.1c4.2-7.3,10.3-12.8,17.4-17.3
			c1.8-1.1,3.6-2.2,5.5-3.3c-0.2-0.5-0.2-1.1-0.5-1.3C139.7,60.5,131.7,48,123,36c-0.7-0.9-1.5-1.9-0.8-3.1c0.9-1.5,2.3-0.9,3.5-0.5
			c6.1,2.2,12.3,4.1,18.7,5.2c1.6,0.3,3.2,0.7,4.8,0.2c6.7-2.1,13.5-2.9,20.9-1.3c-0.8-3.3-1.6-6.1-2.2-8.9
			c-1.2-5.8-1-11.6,0.4-17.4c0.3-1.1,0.6-2.2,1.3-3.1c0.9-1.2,2.2-1.4,3.2,0c0.7,1.1,1.2,2.3,1.7,3.5c2.2,4.5,5.4,8.1,10.2,10
			c3,1.2,5.9,1.5,9,0.4c4.3-1.5,8.7-2.5,13.3-2.5C207,19.5,207,20.8,207,22.1z"/>
		<path class="st2" d="M2.6,290.8c8.1-0.6,13.3,2.8,16.3,10.6c1.8,4.6,5.3,8.5,9.7,11.3c3.1,2,3.1,2,1.5,5.2
			c-0.4,0.7-0.7,1.4-1.1,2.1c-8.8,0-17.5,0-26.3,0C2.6,310.3,2.6,300.5,2.6,290.8z"/>
		<path d="M55.1,4.6c-3.6,9.1-4.7,18.4-3.1,28c0.1,0.8,0.2,1.6,0,2.4c-0.4,2-2.1,2.5-3.6,1.1c-0.9-0.9-1.6-2-2.4-3
			c-5-6.6-10.6-12.6-17.6-17.2c-6-3.8-12.4-6.4-19.5-6.8c-3.7-0.2-4.1,0.1-3.2,3.7c2.7,11.5,8.2,21.4,16.5,29.8
			c1.6,1.6,3.2,3.2,4.8,4.8c1.3,1.3,0.9,2.3-0.6,3c-0.7,0.3-1.5,0.6-2.3,0.8c-7.8,2-14.9,5.5-21.5,9.8c0-1.6,0-3.2,0-4.9
			c6.6-2.4,12.4-6.4,19.2-7.9c-0.4-2-1.6-2.7-2.4-3.6C12.3,37.1,7,28.6,3.8,18.8c-0.3-0.9-0.5-1.9-1.2-2.6c0-3.6,0-7.1,0-10.7
			c0-1.9,1.4-0.6,2-1c0.8,1.6,2.3,0.9,3.4,1c7.3,0.3,14,2.6,20.2,6.3C34.3,15.4,39.4,20,44,25.3c1.1,1.3,2,2.9,4.2,4
			c-0.9-8.8,0.4-16.9,3-24.7C52.5,4.6,53.8,4.6,55.1,4.6z"/>
		<path class="st2" d="M51.2,4.6c-2.6,7.9-3.9,15.9-3,24.7c-2.2-1.1-3.1-2.8-4.2-4c-4.7-5.2-9.8-9.9-15.8-13.5
			C21.9,8.1,15.3,5.9,8,5.5c-1.2-0.1-2.7,0.6-3.4-1C20.1,4.6,35.7,4.6,51.2,4.6z"/>
		<path class="st2" d="M2.6,16.3C3.3,17,3.5,18,3.8,18.9c3.2,9.8,8.5,18.4,15.6,25.8c0.9,0.9,2.1,1.6,2.4,3.6
			C15,49.8,9.2,53.9,2.6,56.2C2.6,42.9,2.6,29.6,2.6,16.3z"/>
		<path class="st2" d="M2.6,76.6c2.4-0.2,4.3,1.2,6.5,1.8c4.4,1.2,8.9,1,13.9,0.9c-0.4,3-0.8,5.6-1.9,8.1c-1.9-0.3-3-1.6-4.4-2.3
			c-2.9-1.5-5.8-2-8.9-1.3c-2.1,0.5-2.5,2-1.1,3.6c0.7,0.9,1.7,1.5,2.4,2.4c2,2.6,2.4,5.9,0.4,8c-2.7,3.1-4.6,6.6-6.8,10
			C2.6,97.4,2.6,87,2.6,76.6z"/>
		<path class="st2" d="M183.6,320c-6.5,0-13,0-19.5,0c4.9-7.2,11.5-11.7,20.8-13.8C183.6,311.1,183.3,315.6,183.6,320z"/>
		<path d="M183.6,320c-0.3-4.4,0-8.9,1.3-13.8c-9.3,2.1-15.9,6.7-20.8,13.8c-1.3,0-2.6,0-3.9,0c5.5-9.8,14.1-15.3,24.9-17.4
			c1.4-0.3,3-0.9,4.2,0.3c1.5,1.5-0.4,2.6-0.8,3.8c-1.3,4.4-2.5,8.7-1,13.3C186.2,320,184.9,320,183.6,320z"/>
		<path class="st2" d="M129.5,287.5c-10.9-9-23.4-8.6-36.1-9.3c2.4-3.8,5.4-6.8,6.6-10.9c0.5-1.8,2.3-1.4,3.7-1.5
			c7.9-0.1,15.8-0.2,23.8-0.3c5.9,0,11.8,0,19.1,0C139,272.1,133.1,278.6,129.5,287.5z"/>
		<path class="st2" d="M167,252.4c-7.7,4-7.7,4.1-12.4-2.4c-6.2-8.5-11.7-17.4-16.5-27.4c2.1,0.3,3.2,1.6,4.5,2.3
			c3.7,2.3,7.6,4.4,12,4.8c2.1,0.2,3.1,1,3.6,3.1C159.6,239.9,162.6,246.3,167,252.4z"/>
		<path class="st2" d="M44.3,97.6c0.3,2.8,0.6,5.5,0.9,8.4C40.6,102.2,40.7,100.8,44.3,97.6z"/>
		<g>
			
				<linearGradient id="SVGID_1_" gradientUnits="userSpaceOnUse" x1="105" y1="-128" x2="105" y2="-452" gradientTransform="matrix(1 0 0 -1 0 -128)">
				<stop  offset="0" style="stop-color:#EB1A21"/>
				<stop  offset="1" style="stop-color:#A51A21"/>
			</linearGradient>
			<path class="st3" d="M210,324c-70,0-140,0-210,0C0,216,0,108,0,0c70,0,140,0,210,0C210,108,210,216,210,324z M199.9,162.6
				c0-46.5-0.2-87.6-0.2-134.1c0-9.4-3.5-18.1-13-18.1c-50.8,0-101-0.4-151.8-0.4c-4,0-8.3,0.5-12.3,0.7
				c-5.9,0.2-11.3,6.1-11.3,11.7c0,93.3-0.4,182.4-0.4,275.8c0,1.5,0.2,1.6,0.3,3.1c0.7,6.6,5,12.6,11.3,12.6
				c55.5,0,107.4,0.2,162.9,0.3c1.9,0,3.6-0.7,5.3-1.7c5.5-3,9.5-6,9.5-12.1C200.1,254,199.9,208.9,199.9,162.6z"/>
			<path d="M200.8,161.4c0.1-9.1,0-18.3,0.1-27.6c0.2-36.3,0.1-72.7,0-109c0-9.1-6.8-15.3-16-15.3c-52.8,0-105.7,0-158.5,0
				c-9.4,0-15.6,6.2-15.6,15.8c0,38.4,0.2,76.7,0.1,115.1c0,29.5-0.4,58.9-0.5,88.4c-0.1,23.5-0.1,47-0.1,70.4
				c0,8,6.5,15.3,13.7,15.3c54.3,0.1,108.6,0,162.9,0c2.2,0,4-0.5,5.9-1.8c5.1-3.5,8.1-7.9,8-14.4
				C200.7,252.7,200.8,207.1,200.8,161.4z M186.5,310.2c-3,0-3.7,0-3.7,0s-103.1,0-154.7,0c-8.3,0-13.1-4.5-13-14.9
				c0-22.8,0-45.6,0.1-68.4c0.1-28.6,0.5-57.2,0.5-85.9c0.1-37.3-0.2-75.1-0.1-112.3c0-7.9,2.5-14.8,12.6-14.8
				c50.2,0,105.1,0.2,155.3,0.2c8.7,0,13,5.3,12.6,14.1c0,35.2,0,106.5,0,106.5v27c0,0,0,91.6,0.1,135.9
				C196,304.4,191.2,309.6,186.5,310.2z"/>
		</g>
		<g>
			<path d="M76.7,97.9c-0.1-0.6,0.2-0.9,0.8-0.9c0.4,0,1.3,0.2,2.6,0.7c1.6,0.6,2.6,1.2,3.1,1.9c0.4,0.7,0.6,1.9,0.5,3.6l-0.2,2.6
				l1.5-0.3c1-0.2,1.6-0.4,1.9-0.6c0.2-0.2,0.3-0.5,0.3-1c0-1.1,1-1.3,2.9-0.4c0.3,0.2,0.8,0.4,1.4,0.7c1.6,0.8,2.7,1.5,3,2
				c0.4,0.5,0.3,1.2-0.3,2c-0.4,0.5-0.7,0.7-0.9,0.7c-0.2,0-0.7-0.2-1.5-0.6c-1-0.5-1.9-0.8-2.9-0.8s-2.2,0.2-3.7,0.8
				c-1.1,0.3-1.8,0.6-2,0.9c-0.2,0.2-0.3,0.7-0.4,1.3c-0.1,1.8,0,2.8,0.1,3c0.1,0,0.5,0,1.3-0.2s1.4-0.8,1.7-1.7
				c0.3-0.9,0.5-1.4,0.7-1.4c0.3,0,1.3,0.5,3,1.4c1.7,1,2.7,1.6,3,2c0.5,0.5,0.7,0.9,0.7,1.1s-0.3,0.6-0.8,1.1l-1.1,1.3l-1.9-1.3
				c-0.9-0.5-1.5-0.8-1.8-0.8s-0.9,0.1-1.6,0.5c-1.1,0.5-2,0.8-2.6,1c-0.4,0.2-0.6,0.4-0.8,0.7c-0.1,0.3-0.2,1-0.4,2.1l-0.1,2.4
				l1.4-0.2c1.1-0.1,2.2-0.4,3.5-0.7c1.4-0.3,4.1-0.7,8.1-1c0.1,0,0.2-0.5,0.2-1.4c0-0.6,0.1-1.1,0.2-1.3c0.1-0.2,0.5-0.3,1-0.3
				c0.7,0,1.5,0.4,2.4,1.1c0.9,0.8,1.8,1.4,2.9,2c0.9,0.5,1.4,1.1,1.6,2c0.1,0.8-0.2,1.5-1,2c-0.7,0.4-1.4,0.2-2-0.4
				c-0.3-0.3-0.9-0.5-1.6-0.6c-0.8-0.1-2.2-0.1-4.3-0.1c-1.5,0-2.7,0-3.5,0.1c-0.8,0-1.4,0.1-1.8,0.1c-0.4,0.1-0.9,0.2-1.7,0.3
				c-0.8,0.2-1.6,0.3-2.5,0.5c-1.8,0.4-3.1,0.8-3.7,1.4c-0.6,0.5-1.2,0.7-1.9,0.4c-0.4-0.2-0.9-0.3-1.5-0.3c-0.7,0-1.4,0.1-2.2,0.3
				c-0.8,0.2-1.6,0.3-2.4,0.5c-0.8,0.1-1.6,0.3-2.4,0.6c-0.9,0.2-1.5,0.4-1.9,0.4c-0.9,0.2-2.1,0.8-3.6,1.7s-2.4,1.6-2.8,2.2
				c-0.2,0.4-0.6,0.6-1.3,0.6c-0.5,0-1.8-0.5-3.9-1.5c-2.1-1-3.1-1.7-3.1-2.1c0-1.1,1.3-1.3,4-0.6c1.1,0.3,1.9,0.3,2.4,0.3
				c0.5-0.1,1.4-0.5,2.9-1.2c2.9-1.5,7.2-2.6,12.9-3.4c1.1-0.2,1.8-0.6,1.9-1.2s0.4-0.9,0.7-0.9c0.2,0,0.4-0.5,0.6-1.5
				s0.1-1.6-0.1-1.8c-0.3-0.3-1.7,0-4,0.8c-2,0.7-3.5,1.1-4.3,1.2c-0.9,0.1-1.5-0.2-1.9-0.7c-0.4-0.6-0.5-1.1-0.2-1.6
				c0.2-0.5,0.7-0.8,1.4-0.7c1.1,0.1,3.3-0.4,6.7-1.5l2.5-0.8v-2.2c0-1.1-0.1-1.7-0.1-1.9c-0.1-0.2-0.4-0.1-0.9,0
				c-0.9,0.2-2,0.7-3.3,1.3c-1.3,0.7-2.2,1.2-2.6,1.5c-0.4,0.5-0.8,0.6-1.2,0.3c-0.4-0.2-1.3-1-2.6-2.3c-0.8-0.8-1.4-1.7-1.7-2.5
				c-0.3-0.8-0.2-1.3,0.2-1.7c0.5-0.2,0.7-0.2,0.7,0.2c0,0.4,0.3,0.5,0.8,0.5s1,0.2,1.3,0.5c0.6,0.6,2.9,0.3,7-0.9
				c1.6-0.5,2.6-0.9,2.9-1.4c0.4-0.5,0.5-1.5,0.5-3c0-0.6-0.1-1.1-0.3-1.4c-0.2-0.4-0.7-0.8-1.5-1.4C77.5,99.3,76.8,98.5,76.7,97.9z
				 M86.7,127.2c0.3-0.4,0.8-0.5,1.7-0.5c0.9,0,1.4,0.2,1.6,0.5s0.8,0.7,2,1.3c2.2,1.2,2.6,2.5,1.2,3.8c-0.4,0.3-0.6,2.3-0.6,5.8
				c0,3.6,0,7.4,0,11.6c0,4.2-0.2,7.1-0.7,8.6c-0.6,1.7-1.2,2.6-1.8,2.6c-0.5,0.1-1.5-0.4-2.9-1.7s-2.1-2.2-2.1-2.8
				c0-0.7,0.1-1,0.3-1c0.2,0,0.8,0.2,1.7,0.7c0.9,0.5,1.5,0.6,1.7,0.4c1-1,1.1-8,0.4-20.9c-0.1-2.3-0.2-3.8-0.4-4.3
				c-0.2-0.5-0.4-0.9-0.9-1.1c-1.1-0.5-2.7-0.3-4.8,0.7c-0.3,0.1-0.5,0.3-0.5,0.3c0,0.1,0.2,0.3,0.5,0.7c0.4,0.7,0.5,1.5,0.2,2.3
				s-0.4,2.2-0.4,4.2s0.1,3,0.3,3.1c0.3,0.1,0.5,0,0.6-0.4c0.5-0.8,1.5-0.8,3.1-0.2c1.7,0.7,2.3,1.7,1.9,3c-0.2,0.4-0.5,0.7-0.9,1
				c-0.4,0.5-0.7,0.8-1,0.7c-0.2,0-0.6-0.3-1.1-0.7c-0.6-0.4-1.1-0.7-1.5-0.7s-1.5,0.2-3.4,0.6c-3.1,0.7-5.1,1.3-6,1.6
				s-1.5,0.6-1.7,1s-0.3,2.1-0.3,4.9c0,2.4-0.1,4-0.5,5c-0.3,0.9-0.9,1.3-1.8,1.3c-0.7-0.1-1-0.8-1-2c0-4.1,0.4-10.4,1.1-18.8
				c0.2-2,0.2-3.3,0.2-4.1c0-0.7-0.2-1.3-0.5-1.8c-0.9-1.4-0.9-2.1,0.1-2.2c0.6-0.1,1.4,0.2,2.4,1.1l1.4,1.3l-0.5,5
				c-0.5,4.7-0.6,7.1-0.5,7.2c0,0,0.1,0.1,0.3,0.1c0.4-0.1,1.4-0.5,3-1.1s2.4-0.9,2.5-1.1c0.2-0.2,0.3-1.4,0.5-3.5s0.3-3.6,0.5-4.4
				c0.2-0.8-0.1-1.3-0.7-1.7s-1.4-0.4-2.5-0.2c-1,0.1-1.7,0-2.1-0.5s-0.4-1.1,0.2-1.6c0.5-0.5,1.3-0.8,2.2-0.8c0.8,0,2.5-0.4,5-1.1
				C85,127.9,86.4,127.5,86.7,127.2z"/>
		</g>
		<g>
			<path d="M82.1,191.9c0.2-0.5,0.5-0.7,0.8-0.7s0.6,0.2,0.8,0.5c0.1,0.2,0.8,0.4,2.1,0.6c1.2,0.1,1.9,0.3,2.3,0.7
				c0.3,0.4,0.6,1.2,0.7,2.5c0,1.1,0.2,1.7,0.6,1.6c0.1,0,0.2-0.2,0.4-0.7c0.2-1,1.2-1.3,3-0.9c1.9,0.4,2.9,1.3,2.9,2.6
				c0,0.4-0.1,0.8-0.3,1.3c-0.2,0.5-0.5,0.7-0.8,0.8c-0.3,0-0.9,0-1.8-0.2s-1.5-0.3-1.9-0.3c-0.4,0.1-0.8,0.3-1.4,0.8
				c-0.6,0.4-1,1.1-1.4,2.1c-0.3,0.9-0.5,1.8-0.4,2.7c0,0.4,0.5,0.9,1.5,1.4s2.3,1.4,3.9,2.7l2.7,2L94,215l-2.6-2.7
				c-2.7-2.6-4.2-3.5-4.4-2.8c0,0.1-0.1,0.1-0.1,0.2c-0.5,3-1.6,6.1-3.2,9.3s-3,5.4-4.4,6.4c-1.2,0.9-1.8,1-1.7,0.3
				c0-0.5,0.4-1.4,1.3-2.5c1.2-1.4,2.2-3.3,3.1-5.7c0.6-1.7,1.2-4.4,2.1-8.2c0.8-3.8,1.2-5.8,1-6c-0.1-0.1-0.7,0.3-1.6,1
				c-0.4,0.3-1.4,0.9-2.8,1.9s-2.5,1.8-3.1,2.4c-1.2,0.9-2.1,1.4-2.5,1.4c-0.5,0-1.3-0.6-2.4-1.7c-1.4-1.3-1.9-2.2-1.5-2.7
				s0.9-0.5,1.7-0.1c0.7,0.4,1.5,0.5,2.3,0.3c0.4-0.2,2.3-1.2,5.5-2.9c3.2-1.8,4.9-2.8,5.1-3c0,0,0.1-0.6,0.2-1.8s-0.1-2-0.6-2.4
				c-0.6-0.4-1-0.8-1.3-1s-0.6-0.5-1-0.9c-0.3-0.3-0.6-0.7-0.7-0.9C82.1,192.4,82.1,192.1,82.1,191.9z M80.3,172.3
				c0.4-0.7,0.8-1,1.1-0.9c0.3,0,0.8,0.5,1.4,1.3c0.7,0.9,1.2,1.7,1.7,2.2c0.9,1.1,1.4,1.9,1.5,2.4s-0.1,1.7-0.5,3.4
				c-0.2,0.7-0.3,1.2-0.4,1.7s-0.1,1-0.2,1.5c0.4,0,0.9-0.3,1.5-0.8c0.5-0.5,0.9-1,0.9-1.5c0.1-0.7,0.5-1.1,0.9-1.1
				c0.5,0,1.3,0.2,2.5,0.8c1.1,0.6,1.9,0.9,2.4,0.9c0.4,0,0.7,0.4,0.7,1.3c0.1,0.9-0.1,1.7-0.4,2.3c-0.3,0.5-0.6,0.8-0.8,0.8
				c-0.2,0-0.8-0.2-1.6-0.5c-0.8-0.4-1.4-0.6-1.8-0.6c-0.4,0.1-1.1,0.4-2.3,1.2c-3.4,2-5,3.2-5,3.7c0,0.4-0.7,1.7-2.3,4
				c-1.6,2.3-2.5,3.2-2.8,2.7c-0.4-0.4-0.5-0.7-0.1-1.1c0.9-0.9,2-3.4,3.3-7.4s2-7,1.9-9c0-1.2,0-2-0.1-2.4s-0.4-0.9-0.9-1.4
				c-0.8-0.7-1.2-1.3-1.4-1.9C79.6,173.5,79.8,172.9,80.3,172.3z M109.4,203.3c0-0.6,0.2-0.8,0.8-0.8c0.5,0,1.5,0.3,2.9,1
				s2.2,1.2,2.3,1.5c0.1,0.5-0.2,1.6-1,3.2c-0.8,1.7-1.9,3.5-3.2,5.6c-1.4,2.4-2.2,3.6-2.1,3.7c0,0.1,1.5,0,4.5-0.3
				c3-0.2,4.5-0.5,4.4-0.9c-0.1-1,0.2-1.5,0.7-1.7c0.5-0.1,1.3,0.1,2.2,0.7c1.1,0.8,1.8,1.1,2.2,0.8c0.5-0.2,1.1,0.1,2,1.1
				c0.8,1,1.3,1.9,1.4,2.7s-0.2,1.5-0.8,2.1c-0.4,0.3-0.8,0.4-1.1,0.3c-0.3-0.1-0.9-0.4-1.7-1c-0.9-0.6-1.6-0.9-2.3-1
				c-0.7-0.1-2.5-0.1-5.5,0.2c-6.9,0.5-12.6,2-16.8,4.4c-2.2,1.1-3.9,1.7-4.9,1.8c-1.1,0.1-2.1-0.4-3.1-1.5
				c-0.8-0.7-1.1-1.3-0.8-1.8c0.3-0.4,1-0.6,2.2-0.5c1.1,0.1,2.9-0.4,5.6-1.3c2.7-1,4.2-1.4,4.5-1.5c2.1-0.5,3.6-1.3,4.4-2.2
				c0.8-1,2.2-3.7,4.2-8.2l1.4-2.9l-1-1.3C109.8,204.6,109.4,203.9,109.4,203.3z M111,185.3c0.8-0.6,1.5-0.8,1.9-0.8
				c0.5,0,1.2,0.4,2.1,1.1l1.7,1.4l-1.2,2.1c-0.8,1.4-1.2,2.2-1.1,2.5c0,0.4-0.4,2-1.4,4.7c-0.9,2.7-1.6,4.3-1.9,4.7
				c-0.4,0.5-0.9,0.5-1.6,0.2c-0.9-0.6-2.4-0.6-4.2,0.1s-3.3,1.6-4.2,2.9c-0.7,0.9-1.1,1.4-1.5,1.5c-0.4,0-0.8-0.4-1.2-1.3
				c-0.5-0.9-0.6-1.5-0.5-1.9c0.2-0.3,0-1.6-0.5-4s-1.2-3.9-1.9-4.6c-1.7-1.7-1.6-2.5,0.2-2.7c2-0.2,3.2,1.4,3.8,4.5
				c0.5,2.3,0.8,3.7,0.9,4.1c0.2,0.5,0.4,0.6,0.7,0.4c4.2-2,6.7-3.1,7.5-3.3c0.8-0.3,1.2-0.6,1.4-0.9c0.2-0.3,0.4-1.4,0.7-3.2
				c0.5-2.7,0.6-4.1,0.5-4c-0.1,0-0.2,0.1-0.5,0.3c-0.5,0.3-1.5,0.6-3,1s-2.7,0.9-3.6,1.5c-0.7,0.5-1.3,0.7-2.1,0.6
				c-0.7-0.1-1.1-0.5-1.2-1.2c-0.1-0.6,2.2-1.9,6.8-3.7C109.1,186.6,110.2,186,111,185.3z M108.1,174.7c0.1-0.8,0.5-1.1,1-1.1
				s1.6,0.3,3.2,0.9c1.4,0.7,2.3,1.3,2.7,1.8c0.4,0.5,0.4,1.2,0.1,2.1c-0.2,0.6-0.5,0.9-0.8,1s-1.1,0-2.3-0.3
				c-1.2-0.3-2.1-0.4-2.7-0.3c-0.6,0-1.6,0.3-3.1,0.8c-2,0.8-3.9,1.6-5.5,2.5c-1.2,0.6-2,0.9-2.3,1s-0.7-0.2-1.2-0.7
				c-0.7-0.5-1-1.3-1.1-2.3c0-0.6,0-1,0.1-1.1c0.1-0.2,0.5-0.2,1.2-0.1c1.1,0.2,3.1-0.4,6.1-1.6C106.5,176.1,108,175.2,108.1,174.7z
				 M98.3,208.3c-0.1-0.8,0.1-1.3,0.4-1.6s0.7-0.3,1.1,0.1c0.4,0.3,0.8,0.8,1.1,1.5c0.5,1.2,1.3,1,2.6-0.5c1.5-1.7,2.3-1.9,2.4-0.8
				c0.1,0.7-0.3,1.8-1.1,3.3c-0.9,1.5-1.3,2.6-1.3,3.2c0,0.6-0.2,1.3-0.5,1.9c-0.3,0.6-0.6,0.9-0.9,0.9c-0.2,0-0.9-1.1-2-3.5
				C98.9,210.5,98.4,209,98.3,208.3z"/>
		</g>
	</g>
	<g>
		<g>
			<polygon class="st2" points="29.9,305.3 29.9,253.6 21.2,258 21.2,239.7 33.1,233 46.9,233 46.9,305.3 			"/>
			<path d="M43.8,236.1v66H33v-53.6l-8.7,4.3v-11.5l9.6-5.4h9.9 M50,229.9h-6.2h-9.9h-1.6l-1.4,0.8l-9.6,5.4l-3.3,1.7v3.7V253v10.1
				l8.7-4.3v43.6v6.2H33h10.9H50v-6.2v-66V229.9L50,229.9z"/>
		</g>
		<g>
			<path class="st2" d="M77.3,306c-7.1,0-12.7-2-16.6-5.9s-5.9-9.3-5.9-16v-30.1c0-6.8,2-12.1,5.9-16c3.9-3.9,9.5-5.9,16.6-5.9
				s12.7,2,16.6,5.7c3.9,3.9,5.9,9.3,5.9,16.1v30.1c0,6.8-2,12.1-5.9,16C89.9,304,84.3,306,77.3,306z M77.3,248.8
				c-2.8,0-3.7,1.1-4,1.4c-0.9,1.1-1.4,2.9-1.4,5.4v26.8c0,2.5,0.5,4.3,1.4,5.4c0.3,0.3,1.1,1.4,4,1.4c2.9,0,3.7-1.1,4-1.4
				c0.9-1.1,1.4-2.9,1.4-5.4v-26.8c0-2.5-0.5-4.3-1.4-5.4C80.9,249.9,80.1,248.8,77.3,248.8z"/>
			<path d="M77.3,235.4c6.4,0,11.2,1.7,14.4,5c3.3,3.3,5,7.9,5,13.8v30.1c0,5.9-1.7,10.5-5,13.8c-3.3,3.3-8.1,5-14.4,5
				s-11.2-1.7-14.4-5c-3.3-3.3-5-7.9-5-13.8v-30.1c0-5.9,1.7-10.5,5-13.8C66.2,237.1,71,235.4,77.3,235.4 M77.3,292.6
				c2.9,0,5.1-0.9,6.4-2.6c1.4-1.7,2-4.2,2-7.4v-26.8c0-3.3-0.6-5.7-2-7.4c-1.4-1.7-3.6-2.6-6.4-2.6c-2.8,0-5.1,0.9-6.4,2.6
				c-1.4,1.7-2,4.2-2,7.4v26.8c0,3.3,0.6,5.7,2,7.4C72.2,291.6,74.4,292.6,77.3,292.6 M77.3,229.1c-7.9,0-14.3,2.3-18.8,6.7
				c-4.5,4.5-6.8,10.5-6.8,18.3v30.1c0,7.6,2.3,13.6,6.7,18.1c4.5,4.5,10.9,6.8,18.8,6.8s14.3-2.3,18.8-6.7
				c4.5-4.5,6.8-10.5,6.8-18.3v-30.1c0-7.6-2.3-13.8-6.8-18.3C91.6,231.5,85.2,229.1,77.3,229.1L77.3,229.1z M75.8,252.3
				c0,0,0.5-0.2,1.6-0.2c1.2,0,1.6,0.3,1.6,0.3c0.3,0.5,0.6,1.6,0.6,3.6v26.8c0,2-0.3,3.1-0.6,3.6l0,0c0,0-0.5,0.2-1.6,0.2
				c-1.2,0-1.6-0.3-1.6-0.3c-0.3-0.5-0.6-1.6-0.6-3.6v-26.8C75,253.8,75.3,252.6,75.8,252.3L75.8,252.3L75.8,252.3z"/>
		</g>
	</g>
</g>
</svg>
